<svg xmlns="http://www.w3.org/2000/svg" viewBox="0.03 0.03 599.97 599.98"><defs><style>.a{fill:#2c3742;}</style></defs><title>Artboard 1</title><path class="a" d="M591.45,295.75a.53.53,0,0,1-.4-.19l-6-6.88a.53.53,0,0,1-.11-.53.55.55,0,0,1,.4-.35l8.88-1.8a.54.54,0,0,1,.51.17.56.56,0,0,1,.1.53l-2.9,8.68a.54.54,0,0,1-.4.36Zm-5-7.08,4.76,5.48,2.31-6.91Z"/><path class="a" d="M185,594.9l-.17,0-5.32-1.79a.55.55,0,0,1-.35-.4.51.51,0,0,1,.17-.51l4.19-3.77a.52.52,0,0,1,.52-.11.53.53,0,0,1,.35.4l1.13,5.56a.54.54,0,0,1-.17.51A.51.51,0,0,1,185,594.9Zm-4.28-2.54,3.57,1.2-.76-3.73Z"/><path class="a" d="M367.15,146.67a.46.46,0,0,1-.23-.06.5.5,0,0,1-.3-.44L366,137.6a.53.53,0,0,1,.76-.53l7.66,3.71a.52.52,0,0,1,.3.44.54.54,0,0,1-.22.49l-7,4.86A.57.57,0,0,1,367.15,146.67Zm-.06-8.23.51,6.72,5.49-3.81Z"/><path class="a" d="M292.28,286.4a.54.54,0,0,1-.45-.26l-3.52-5.76a.52.52,0,0,1,0-.54.51.51,0,0,1,.45-.28l6.7-.21a.47.47,0,0,1,.46.26.51.51,0,0,1,0,.53l-3.17,6a.54.54,0,0,1-.45.29Zm-2.59-5.79,2.56,4.17,2.3-4.32Z"/><path class="a" d="M490,520.43a.63.63,0,0,1-.19,0,.55.55,0,0,1-.33-.42l-4.2-26.32a.56.56,0,0,1,.19-.51.51.51,0,0,1,.52-.08l24.63,9.48a.54.54,0,0,1,.34.42.53.53,0,0,1-.19.5l-20.43,16.84A.54.54,0,0,1,490,520.43Zm-3.52-26,3.9,24.48,19-15.66Z"/><path class="a" d="M76.77,217.8a.52.52,0,0,1-.33-.12.54.54,0,0,1-.19-.51l1.82-11.74a.54.54,0,0,1,.34-.42.49.49,0,0,1,.52.09l9.14,7.47a.54.54,0,0,1-.14.92l-11,4.27A.41.41,0,0,1,76.77,217.8ZM79,206.52l-1.54,9.9,9.25-3.6Z"/><path class="a" d="M230.41,376.5a.53.53,0,0,1-.51-.66l2.2-9.11a.51.51,0,0,1,.36-.39.53.53,0,0,1,.52.13l6.69,6.48a.53.53,0,0,1,.15.52.51.51,0,0,1-.36.38l-8.9,2.63Zm2.5-8.61-1.76,7.3,7.12-2.11Z"/><path class="a" d="M203.66,173.36a.65.65,0,0,1-.2,0l-10.81-4.46a.53.53,0,0,1-.33-.42.56.56,0,0,1,.2-.5l9.22-7.25a.56.56,0,0,1,.53-.07.53.53,0,0,1,.33.43l1.59,11.69a.54.54,0,0,1-.2.5A.52.52,0,0,1,203.66,173.36Zm-9.76-5.14L203,172l-1.34-9.86Z"/><path class="a" d="M11.47,546.25a.47.47,0,0,1-.16,0,.56.56,0,0,1-.36-.4L9.6,539.64a.55.55,0,0,1,.16-.51.52.52,0,0,1,.52-.11l6,1.9a.54.54,0,0,1,.2.91l-4.62,4.28A.5.5,0,0,1,11.47,546.25Zm-.63-5.93.95,4.37,3.26-3Z"/><path class="a" d="M137.23,283.85a.48.48,0,0,1-.26-.07l-21.54-12.17a.54.54,0,0,1-.27-.46.56.56,0,0,1,.26-.47L136.6,257.9a.55.55,0,0,1,.54,0,.57.57,0,0,1,.27.46l.35,25a.56.56,0,0,1-.26.47A.54.54,0,0,1,137.23,283.85Zm-20.47-12.72,19.92,11.26-.32-23.09Z"/><path class="a" d="M453.29,303.74a.57.57,0,0,1-.18,0,.54.54,0,0,1-.35-.41l-1-5.27a.53.53,0,0,1,.18-.51.52.52,0,0,1,.52-.1l5,1.79a.54.54,0,0,1,.17.91l-4,3.49A.5.5,0,0,1,453.29,303.74Zm-.29-5,.64,3.44,2.63-2.28Z"/><path class="a" d="M88.48,71.34a.63.63,0,0,1-.19,0l-16.75-6.5a.51.51,0,0,1-.34-.41.55.55,0,0,1,.19-.51L85.33,52.46a.5.5,0,0,1,.52-.08.51.51,0,0,1,.34.41L89,70.72a.53.53,0,0,1-.19.5A.54.54,0,0,1,88.48,71.34Zm-15.7-7.2,15,5.83L85.28,53.88Z"/><path class="a" d="M591.12,160.37a.44.44,0,0,1-.16,0l-8.33-2.64a.54.54,0,0,1-.2-.91l6.42-6a.55.55,0,0,1,.52-.12.54.54,0,0,1,.36.4l1.91,8.62a.53.53,0,0,1-.52.65ZM583.83,157,590.4,159l-1.5-6.8Z"/><path class="a" d="M497.72,564h0l-20.63-1.36a.54.54,0,0,1-.41-.84l11.48-17.39a.56.56,0,0,1,.48-.24.52.52,0,0,1,.44.3l9.15,18.76a.55.55,0,0,1,0,.54A.52.52,0,0,1,497.72,564ZM478,561.66l18.8,1.24-8.34-17.09Z"/><path class="a" d="M75.53,339.41h-.07L67,338.25a.56.56,0,0,1-.43-.33.53.53,0,0,1,.08-.53l5.2-6.82a.53.53,0,0,1,.49-.2.51.51,0,0,1,.42.33l3.24,8a.54.54,0,0,1-.5.74Zm-7.45-2.1,6.61.9L72.16,332Z"/><path class="a" d="M436.78,20.12a.63.63,0,0,1-.19,0,.53.53,0,0,1-.33-.42L434.05,5.88a.53.53,0,0,1,.19-.5.54.54,0,0,1,.53-.09l12.9,5a.51.51,0,0,1,.34.41.55.55,0,0,1-.19.51L437.12,20A.54.54,0,0,1,436.78,20.12ZM435.25,6.63l1.91,12,9.27-7.65Z"/><path class="a" d="M564.85,61.42h0l-9.4-.65a.55.55,0,0,1-.41-.84L560.27,52a.53.53,0,0,1,.48-.23.54.54,0,0,1,.44.3l4.14,8.56a.54.54,0,0,1-.48.78Zm-8.44-1.66,7.56.52-3.33-6.89Z"/><path class="a" d="M55.71,570.62a.55.55,0,0,1-.35-.12l-16-13.73a.53.53,0,0,1,.17-.91l19.76-7.19a.53.53,0,0,1,.52.1.55.55,0,0,1,.18.5l-3.73,20.91a.55.55,0,0,1-.34.41Zm-15-14.07,14.63,12.52L58.75,550Z"/><path class="a" d="M228.65,36.39a.39.39,0,0,1-.15,0,.54.54,0,0,1-.37-.38l-1.33-5.38a.55.55,0,0,1,.14-.52.53.53,0,0,1,.52-.13l5.27,1.52a.54.54,0,0,1,.37.38.53.53,0,0,1-.15.52L229,36.24A.51.51,0,0,1,228.65,36.39Zm-.6-5.14.89,3.57,2.61-2.56Z"/><path class="a" d="M155.81,381.82a.51.51,0,0,1-.17,0l-19.43-6.56a.54.54,0,0,1-.36-.4.56.56,0,0,1,.17-.51l15.33-13.75a.54.54,0,0,1,.53-.11.53.53,0,0,1,.35.4l4.1,20.31a.54.54,0,0,1-.17.51A.52.52,0,0,1,155.81,381.82Zm-18.39-7.32,17.68,6L151.37,362Z"/><path class="a" d="M69.13,181.41a.57.57,0,0,1-.37-.14l-4-3.9a.58.58,0,0,1-.15-.52.56.56,0,0,1,.37-.39l5.36-1.59a.54.54,0,0,1,.66.65L69.65,181a.54.54,0,0,1-.37.39A.39.39,0,0,1,69.13,181.41Zm-3-4.18,2.71,2.61.88-3.67Z"/><path class="a" d="M516.72,566.67a.55.55,0,0,1-.25-.07.53.53,0,0,1-.28-.45l-1-29.74a.58.58,0,0,1,.25-.48.55.55,0,0,1,.54,0l25.94,14a.54.54,0,0,1,0,.93l-25,15.73A.47.47,0,0,1,516.72,566.67Zm-.42-29.37.92,27.88,23.4-14.75Z"/><path class="a" d="M114.52,59.33a.4.4,0,0,1-.15,0,.52.52,0,0,1-.37-.39l-4.89-21.66a.56.56,0,0,1,.16-.52.52.52,0,0,1,.52-.12l21,6.55a.56.56,0,0,1,.36.39.56.56,0,0,1-.16.52l-16.1,15.11A.51.51,0,0,1,114.52,59.33Zm-4.16-21.41,4.48,19.84,14.74-13.85Z"/><path class="a" d="M94.68,564.17h0a.54.54,0,0,1-.45-.29l-6.64-13a.55.55,0,0,1,0-.54.53.53,0,0,1,.48-.25l14.47.69a.54.54,0,0,1,.45.29.57.57,0,0,1,0,.54l-7.83,12.34A.54.54,0,0,1,94.68,564.17Zm-5.74-13,5.79,11.37,6.84-10.77Z"/><path class="a" d="M215,504.39a.54.54,0,0,1-.52-.67L219.76,482a.53.53,0,0,1,.89-.26l16,15.51a.55.55,0,0,1,.15.52.56.56,0,0,1-.37.39l-21.26,6.24Zm5.59-21.26-4.85,19.94,19.49-5.72Z"/><path class="a" d="M258,481.72a.52.52,0,0,1-.33-.12.53.53,0,0,1-.2-.49l.78-5.83a.52.52,0,0,1,.32-.42.53.53,0,0,1,.53.07l4.6,3.59a.55.55,0,0,1-.13.93l-5.37,2.23A.65.65,0,0,1,258,481.72Zm1.18-5.37-.53,4,3.67-1.53Z"/><path class="a" d="M590.76,16.06a.54.54,0,0,1-.22,0l-7.08-3.3a.55.55,0,0,1-.08-.93l6.36-4.55a.56.56,0,0,1,.53-.05.57.57,0,0,1,.31.44l.71,7.85a.55.55,0,0,1-.22.49A.52.52,0,0,1,590.76,16.06Zm-6-3.94,5.4,2.52-.54-6Z"/><path class="a" d="M298.44,63.56a.52.52,0,0,1-.24-.05l-11.48-5.92a.54.54,0,0,1-.29-.45.56.56,0,0,1,.24-.48l10.81-7.1a.53.53,0,0,1,.53,0,.54.54,0,0,1,.29.45L299,63a.55.55,0,0,1-.24.48A.51.51,0,0,1,298.44,63.56ZM288,57.05l9.83,5.07L297.28,51Z"/><path class="a" d="M507.34,79.48a.45.45,0,0,1-.16,0,.54.54,0,0,1-.36-.4l-6.64-32.16a.53.53,0,0,1,.16-.51.5.5,0,0,1,.52-.11l30.86,10.26a.53.53,0,0,1,.35.4.55.55,0,0,1-.16.51L507.7,79.34A.54.54,0,0,1,507.34,79.48Zm-5.93-31.9,6.26,30.34,22.84-20.66Z"/><path class="a" d="M259.1,325.65a.54.54,0,0,1-.45-.26.55.55,0,0,1,0-.54l14-26a.54.54,0,0,1,.46-.28.43.43,0,0,1,.46.25l15.27,25.28a.55.55,0,0,1,0,.54.51.51,0,0,1-.45.28l-29.27.74Zm14-25.48L260,324.55l27.43-.69Z"/><path class="a" d="M531.61,510.13a.53.53,0,0,1-.52-.65l1.55-7a.53.53,0,0,1,.36-.39.52.52,0,0,1,.52.11l5.23,4.87a.54.54,0,0,1-.2.91l-6.78,2.15Zm1.87-6.52-1.15,5.19,5-1.59Z"/><path class="a" d="M195.5,328.58a.54.54,0,0,1-.43-.22l-4.31-5.7a.54.54,0,0,1,.35-.86l7-.93a.5.5,0,0,1,.49.21.51.51,0,0,1,.07.53L196,328.24a.53.53,0,0,1-.43.33Zm-3.34-5.83,3.2,4.22,2-4.91Z"/><path class="a" d="M424.74,419.8a.52.52,0,0,1-.42-.22.53.53,0,0,1-.07-.53l11.59-27.28a.54.54,0,0,1,.92-.11l17.55,23.79a.55.55,0,0,1-.36.86l-29.15,3.48Zm11.71-26.75L425.6,418.61l27.31-3.26Z"/><path class="a" d="M541.81,106.34h-.1a.54.54,0,0,1-.4-.36l-6.51-20.1a.54.54,0,0,1,.61-.69l20.46,4.34a.53.53,0,0,1,.39.36.57.57,0,0,1-.1.53l-13.95,15.75A.52.52,0,0,1,541.81,106.34ZM536.1,86.43,542,104.75l12.72-14.37Z"/><path class="a" d="M41.84,312.4l-.15,0a.56.56,0,0,1-.37-.39l-5.57-23a.55.55,0,0,1,.14-.52.55.55,0,0,1,.52-.13l22.51,6.64a.51.51,0,0,1,.37.38.53.53,0,0,1-.15.52L42.21,312.25A.53.53,0,0,1,41.84,312.4ZM37,289.6l5.14,21.23,15.6-15.12Z"/><path class="a" d="M153.27,140.77a.48.48,0,0,1-.26-.07l-9.48-5.19a.55.55,0,0,1-.28-.46.54.54,0,0,1,.26-.47l9.18-5.71a.51.51,0,0,1,.53,0,.53.53,0,0,1,.28.46l.3,10.91a.55.55,0,0,1-.25.47A.6.6,0,0,1,153.27,140.77ZM144.85,135l7.86,4.31-.24-9Z"/><path class="a" d="M356.51,507.23a.54.54,0,0,1-.47-.79l2.48-4.71a.55.55,0,0,1,.45-.28.56.56,0,0,1,.47.25l2.79,4.53a.55.55,0,0,1,0,.54.53.53,0,0,1-.46.28l-5.26.18Zm2.52-4.17-1.62,3.06,3.43-.11Z"/><path class="a" d="M235.9,338.77a.54.54,0,0,1-.46-.26l-3.62-6a.53.53,0,0,1,.44-.82l7-.17a.61.61,0,0,1,.47.26.55.55,0,0,1,0,.54l-3.33,6.18a.53.53,0,0,1-.45.28Zm-2.7-6,2.67,4.42,2.45-4.54Z"/><path class="a" d="M592.94,392.26l-.11,0L573.14,388a.54.54,0,0,1-.4-.36.53.53,0,0,1,.11-.53L586.31,372a.53.53,0,0,1,.9.2l6.23,19.36a.54.54,0,0,1-.11.53A.53.53,0,0,1,592.94,392.26Zm-18.68-5.09L592.15,391l-5.67-17.59Z"/><path class="a" d="M196.15,559.15a.54.54,0,0,1-.46-.26L193,554.31a.55.55,0,0,1,0-.54.52.52,0,0,1,.45-.27l5.29-.11a.63.63,0,0,1,.47.26.55.55,0,0,1,0,.54l-2.56,4.68a.51.51,0,0,1-.45.28Zm-1.8-4.6,1.78,3,1.66-3.06Z"/><path class="a" d="M547.09,31.05h0a.51.51,0,0,1-.44-.29L534.73,7a.57.57,0,0,1,0-.54.5.5,0,0,1,.48-.24l26.3,1.48A.53.53,0,0,1,562,8a.55.55,0,0,1,0,.53L547.54,30.81A.54.54,0,0,1,547.09,31.05Zm-11-23.73,11,22.12L560.56,8.69Z"/><path class="a" d="M250.36,17.84a.52.52,0,0,1-.44-.23l-6.69-9.77a.58.58,0,0,1,0-.54.55.55,0,0,1,.44-.31l11.71-1a.56.56,0,0,1,.48.23.55.55,0,0,1,0,.54l-5,10.75a.52.52,0,0,1-.44.3ZM244.63,8l5.64,8.24,4.24-9.06Z"/><path class="a" d="M110.07,11.16a.54.54,0,0,1-.25-.06.51.51,0,0,1-.28-.45l-.24-5.8a.53.53,0,0,1,.78-.5L115.16,7a.56.56,0,0,1,.29.46.55.55,0,0,1-.25.47l-4.85,3.11A.46.46,0,0,1,110.07,11.16Zm.33-5.43.16,3.94,3.29-2.11Z"/><path class="a" d="M558.26,147.44l-.13,0L537.59,142a.53.53,0,0,1-.38-.37.55.55,0,0,1,.14-.52l14.93-15.27a.52.52,0,0,1,.51-.15.54.54,0,0,1,.38.38l5.61,20.72a.55.55,0,0,1-.14.52A.55.55,0,0,1,558.26,147.44Zm-19.51-6.27,18.76,5-5.12-18.92Z"/><path class="a" d="M269.57,196.63h0l-12.46-.8a.52.52,0,0,1-.44-.3.53.53,0,0,1,0-.53l6.91-10.52a.55.55,0,0,1,.48-.24.51.51,0,0,1,.44.29L270,195.85a.55.55,0,0,1,0,.54A.54.54,0,0,1,269.57,196.63Zm-11.51-1.81,10.62.67L264,185.85Z"/><path class="a" d="M589.27,498.67a.46.46,0,0,1-.23-.05l-28.28-13.93a.53.53,0,0,1-.3-.45.52.52,0,0,1,.23-.48l26.06-17.82a.58.58,0,0,1,.54,0,.54.54,0,0,1,.29.45l2.22,31.75a.54.54,0,0,1-.23.48A.55.55,0,0,1,589.27,498.67Zm-27.22-14.54,26.63,13.11-2.09-29.88Z"/><path class="a" d="M407.36,257.08a.51.51,0,0,1-.17,0l-6.8-2.32a.54.54,0,0,1-.36-.4.56.56,0,0,1,.17-.51l5.39-4.81a.5.5,0,0,1,.52-.1.54.54,0,0,1,.36.4l1.41,7.12a.55.55,0,0,1-.52.65ZM401.6,254l5.06,1.72-1.06-5.29Z"/><path class="a" d="M387,110.49l-.15,0a.56.56,0,0,1-.37-.39l-2.08-8.37a.55.55,0,0,1,.15-.52.53.53,0,0,1,.52-.13l8.2,2.36a.54.54,0,0,1,.23.91l-6.13,6A.51.51,0,0,1,387,110.49Zm-1.34-8.14,1.63,6.56,4.81-4.71Z"/><path class="a" d="M271.18,94.75h-.12a.56.56,0,0,1-.39-.37l-3.92-12.88a.54.54,0,0,1,.63-.68l13,3a.56.56,0,0,1,.39.37.53.53,0,0,1-.12.52l-9.06,9.88A.52.52,0,0,1,271.18,94.75ZM268,82.07l3.38,11.09,7.81-8.51Z"/><path class="a" d="M12.3,18.52h-.13a.54.54,0,0,1-.38-.38L7.43,2.47A.55.55,0,0,1,7.56,2a.53.53,0,0,1,.51-.14l15.58,4a.55.55,0,0,1,.39.38.53.53,0,0,1-.14.52L12.68,18.36A.55.55,0,0,1,12.3,18.52ZM8.7,3.08l3.86,13.86L22.5,6.63Z"/><path class="a" d="M69.73,251.28a.51.51,0,0,1-.42-.21.53.53,0,0,1-.07-.53l4.23-10.35a.53.53,0,0,1,.42-.33.54.54,0,0,1,.49.21L81.12,249a.54.54,0,0,1-.35.86l-11,1.47Zm4.37-9.82-3.52,8.63,9.14-1.22Z"/><path class="a" d="M76.18,385.6a.51.51,0,0,1-.44-.25L63.56,366.56a.57.57,0,0,1,0-.54.54.54,0,0,1,.45-.29l22.17-1.27a.51.51,0,0,1,.48.24.57.57,0,0,1,0,.54l-10,20.06a.57.57,0,0,1-.45.3ZM65,366.75,76.12,384l9.17-18.4Z"/><path class="a" d="M339.21,339.8a.45.45,0,0,1-.2,0,.52.52,0,0,1-.32-.43l-1.94-15.65a.57.57,0,0,1,.21-.5.53.53,0,0,1,.53-.06l14.36,6.13a.52.52,0,0,1,.32.43.51.51,0,0,1-.2.49l-12.44,9.52A.46.46,0,0,1,339.21,339.8Zm-1.29-15.33,1.71,13.8,11-8.39Z"/><path class="a" d="M157.45,96.18h0l-23.85-1.41a.54.54,0,0,1-.45-.29.57.57,0,0,1,0-.54l13.14-20.19a.51.51,0,0,1,.47-.24.54.54,0,0,1,.45.29l10.71,21.6a.55.55,0,0,1,0,.54A.52.52,0,0,1,157.45,96.18Zm-22.9-2.43,22,1.3-9.89-19.93Z"/><path class="a" d="M18.38,130.3h0l-7.74-.22a.53.53,0,0,1-.45-.28.55.55,0,0,1,0-.54l4.06-6.67a.54.54,0,0,1,.47-.26.51.51,0,0,1,.45.28l3.68,6.89a.55.55,0,0,1,0,.54A.54.54,0,0,1,18.38,130.3ZM11.57,129l5.9.17-2.81-5.26Z"/><path class="a" d="M472.39,93.21a.65.65,0,0,1-.2,0l-4.94-2a.55.55,0,0,1-.13-.93l4.23-3.3a.53.53,0,0,1,.53-.07.52.52,0,0,1,.32.43l.72,5.35a.57.57,0,0,1-.21.5A.54.54,0,0,1,472.39,93.21Zm-3.89-2.73,3.24,1.34-.47-3.51Z"/><path class="a" d="M590.59,528.76a.54.54,0,0,1-.39-.17l-4.9-5.41a.54.54,0,0,1-.11-.53.51.51,0,0,1,.39-.36l7.08-1.59a.55.55,0,0,1,.51.16.56.56,0,0,1,.11.53l-2.18,7a.54.54,0,0,1-.39.36Zm-3.88-5.62,3.65,4L592,522Z"/><path class="a" d="M322.62,596.21h0l-22.39-.71a.51.51,0,0,1-.45-.28.55.55,0,0,1,0-.54l11.81-19.27a.56.56,0,0,1,.46-.25.53.53,0,0,1,.46.28l10.59,20a.55.55,0,0,1,0,.54A.54.54,0,0,1,322.62,596.21Zm-21.46-1.75,20.56.65L312,576.77Z"/><path class="a" d="M546.37,427.67a.54.54,0,0,1-.52-.68l5.07-19.08a.56.56,0,0,1,.38-.38.55.55,0,0,1,.51.14l13.8,14a.55.55,0,0,1-.24.9l-18.87,5.09Zm5.34-18.58-4.59,17.28,17.08-4.61Z"/><path class="a" d="M261.56,556.43a.59.59,0,0,1-.26-.07.55.55,0,0,1-.27-.46l-.09-5.74a.5.5,0,0,1,.26-.47.49.49,0,0,1,.53,0l5,2.78a.57.57,0,0,1,.27.47.56.56,0,0,1-.26.47l-4.86,3A.57.57,0,0,1,261.56,556.43Zm.46-5.36.06,3.88,3.29-2Z"/><path class="a" d="M395.73,69.27a.53.53,0,0,1-.4-.19l-17.2-19.71a.54.54,0,0,1-.11-.53.58.58,0,0,1,.4-.36l25.48-5.21a.52.52,0,0,1,.5.17.54.54,0,0,1,.11.53L396.24,68.9a.53.53,0,0,1-.4.35ZM379.54,49.35l16,18.32,7.69-23.16Z"/><path class="a" d="M288,118.55a.52.52,0,0,1-.21,0,.57.57,0,0,1-.32-.43l-.7-6a.54.54,0,0,1,.21-.49.51.51,0,0,1,.53-.06l5.5,2.39a.54.54,0,0,1,.11.92l-4.8,3.62A.46.46,0,0,1,288,118.55Zm-.06-5.69.48,4.17,3.32-2.51Z"/><path class="a" d="M73.39,442.73l-.12,0-26.91-6.38A.52.52,0,0,1,46,436a.55.55,0,0,1,.12-.52L65,415.05a.51.51,0,0,1,.51-.15.54.54,0,0,1,.39.37l8,26.77a.58.58,0,0,1-.12.52A.56.56,0,0,1,73.39,442.73ZM47.5,435.5l25.11,5.95-7.46-25Z"/><path class="a" d="M401.82,559.74l-.14,0-9.14-2.58a.53.53,0,0,1-.37-.38.55.55,0,0,1,.14-.52l6.77-6.72a.55.55,0,0,1,.52-.13.54.54,0,0,1,.37.38l2.36,9.3a.53.53,0,0,1-.14.52A.51.51,0,0,1,401.82,559.74Zm-8.11-3.38,7.36,2.07-1.9-7.49Z"/><path class="a" d="M467.86,60.71a.4.4,0,0,1-.15,0,.51.51,0,0,1-.36-.39l-1.61-7.07a.56.56,0,0,1,.16-.52.53.53,0,0,1,.52-.12l6.85,2.14a.54.54,0,0,1,.21.9l-5.25,4.94A.51.51,0,0,1,467.86,60.71ZM467,53.89l1.19,5.25,3.9-3.67Z"/><path class="a" d="M9.4,213.42H9.29a.54.54,0,0,1-.39-.36L5.58,202.89a.57.57,0,0,1,.1-.53.52.52,0,0,1,.51-.16l10.36,2.17a.51.51,0,0,1,.39.35.56.56,0,0,1-.1.53l-7,8A.52.52,0,0,1,9.4,213.42Zm-2.52-10,2.74,8.39,5.81-6.6Z"/><path class="a" d="M378.35,12.24a.53.53,0,0,1-.29-.1l-5.63-3.82a.54.54,0,0,1,.07-.93l6.08-3a.53.53,0,0,1,.53,0,.57.57,0,0,1,.23.49l-.46,6.83a.52.52,0,0,1-.29.45A.53.53,0,0,1,378.35,12.24ZM373.79,8l4.1,2.78.33-5Z"/><path class="a" d="M509.48,15.7a.5.5,0,0,1-.45-.25l-4.14-6.81a.55.55,0,0,1,0-.54.51.51,0,0,1,.45-.28l7.91-.23a.55.55,0,0,1,.48.8l-3.76,7a.53.53,0,0,1-.46.28Zm-3.21-6.83,3.18,5.22,2.89-5.4Z"/><path class="a" d="M314.33,100.79h0a.52.52,0,0,1-.45-.27l-3.06-5.44a.55.55,0,0,1,0-.54.54.54,0,0,1,.46-.27h0l6.18,0a.52.52,0,0,1,.46.27.57.57,0,0,1,0,.54l-3.13,5.39A.53.53,0,0,1,314.33,100.79Zm-2.14-5.43,2.14,3.81,2.2-3.78Z"/><path class="a" d="M387.44,221.78a.53.53,0,0,1-.5-.7l4.85-15.5a.56.56,0,0,1,.39-.37.53.53,0,0,1,.51.17l10.85,12a.56.56,0,0,1,.11.53.54.54,0,0,1-.39.36l-15.7,3.5Zm5.09-15-4.3,13.73,13.9-3.1Z"/><path class="a" d="M150.37,457.28A5.49,5.49,0,0,1,149,457c-.49-.14-1.23-.34-1.38-.14a.52.52,0,0,1-.74.11.53.53,0,0,1-.11-.75c.58-.79,1.6-.51,2.51-.26.49.13,1.23.34,1.39.14s-.26-.87-.52-1.31c-.47-.77-1-1.73-.47-2.51s1.65-.49,2.52-.26c.49.14,1.23.34,1.38.14s-.25-.87-.52-1.31c-.46-.77-1-1.73-.46-2.51s1.65-.5,2.51-.26c.5.13,1.24.34,1.39.13s-.25-.86-.52-1.31c-.46-.77-1-1.72-.46-2.51a.54.54,0,0,1,.75-.11.55.55,0,0,1,.1.76c-.15.2.26.86.52,1.3.47.77,1,1.73.46,2.52s-1.65.49-2.51.26c-.5-.14-1.24-.33-1.39-.14s.26.87.52,1.31c.47.77,1,1.73.46,2.51s-1.65.5-2.51.26c-.49-.13-1.24-.34-1.38-.14s.25.87.51,1.31c.47.77,1.05,1.73.47,2.51A1.31,1.31,0,0,1,150.37,457.28Z"/><path class="a" d="M109.37,241.28a.56.56,0,0,1-.46-.25.54.54,0,0,1,.18-.74c1.51-.93,1.06-3.64.63-6.27-.49-3-1-6.06,1.12-7.36s4.59.57,7,2.39c2.11,1.6,4.29,3.25,5.79,2.33s1.05-3.64.61-6.27c-.49-3-1-6.05,1.12-7.36s4.58.58,7,2.4c2.1,1.6,4.27,3.26,5.77,2.34s1.06-3.64.62-6.27c-.49-3-1-6.06,1.11-7.36s4.58.58,7,2.4c2.1,1.61,4.27,3.26,5.77,2.34a.53.53,0,0,1,.73.18.55.55,0,0,1-.18.74c-2.12,1.3-4.58-.58-7-2.4-2.1-1.6-4.28-3.26-5.77-2.34s-1.06,3.64-.62,6.27c.49,3,1,6.06-1.11,7.36s-4.59-.58-7-2.4c-2.1-1.6-4.28-3.26-5.78-2.33s-1,3.63-.62,6.26c.5,3,1,6.06-1.11,7.36s-4.59-.58-7-2.39c-2.1-1.6-4.28-3.26-5.78-2.33s-1.06,3.64-.62,6.26c.49,3,1,6.06-1.12,7.37A.58.58,0,0,1,109.37,241.28Z"/><path class="a" d="M426.76,119.73a.51.51,0,0,1-.17,0,.55.55,0,0,1-.34-.68c.6-1.8-1.6-3.68-3.72-5.5-2.39-2-4.87-4.17-4-6.66s4.06-2.68,7.19-2.86c2.78-.17,5.65-.34,6.25-2.13s-1.61-3.68-3.73-5.5c-2.4-2-4.87-4.16-4.05-6.65s4.06-2.67,7.19-2.86c2.77-.16,5.65-.32,6.24-2.12s-1.61-3.67-3.73-5.49c-2.39-2-4.87-4.16-4-6.65s4.06-2.67,7.19-2.85c2.77-.16,5.64-.33,6.23-2.12a.55.55,0,0,1,.68-.34.53.53,0,0,1,.33.68c-.82,2.49-4.05,2.67-7.18,2.85-2.78.16-5.65.33-6.24,2.12s1.6,3.67,3.73,5.49c2.39,2,4.87,4.17,4.05,6.65s-4.06,2.68-7.19,2.86c-2.78.16-5.65.33-6.24,2.12s1.6,3.68,3.73,5.49c2.39,2,4.87,4.17,4.05,6.66s-4.06,2.68-7.19,2.86c-2.78.16-5.65.33-6.25,2.13s1.6,3.68,3.73,5.5c2.39,2,4.87,4.17,4,6.66A.53.53,0,0,1,426.76,119.73Z"/><path class="a" d="M111.74,119.11a.54.54,0,0,1-.53-.46c-.12-.85-1.56-1.2-3-1.54-1.73-.42-3.53-.85-3.76-2.43s1.37-2.51,2.91-3.42c1.24-.73,2.52-1.48,2.4-2.34s-1.57-1.2-3-1.54c-1.74-.41-3.54-.85-3.77-2.42s1.37-2.52,2.92-3.42c1.24-.73,2.52-1.48,2.39-2.33s-1.56-1.21-2.95-1.54c-1.74-.42-3.54-.85-3.77-2.43s1.37-2.51,2.92-3.41c1.24-.73,2.52-1.48,2.39-2.33a.54.54,0,1,1,1.06-.16c.22,1.57-1.37,2.51-2.92,3.42-1.24.72-2.52,1.47-2.39,2.33s1.56,1.2,3,1.53c1.74.42,3.54.85,3.77,2.43s-1.37,2.51-2.92,3.42c-1.24.73-2.52,1.48-2.39,2.33s1.56,1.2,3,1.54c1.73.42,3.53.85,3.76,2.42s-1.37,2.52-2.91,3.43c-1.24.73-2.52,1.48-2.4,2.34s1.57,1.2,3,1.54c1.74.42,3.54.85,3.77,2.43a.55.55,0,0,1-.45.61Z"/><path class="a" d="M439,274.8c-1.43,0-2.31-1.57-3.16-3.1-.74-1.31-1.47-2.67-2.38-2.55a.52.52,0,0,1-.6-.46.53.53,0,0,1,.45-.6c1.61-.23,2.54,1.45,3.45,3.08.74,1.31,1.49,2.68,2.38,2.55s1.26-1.64,1.62-3.1c.45-1.81.91-3.69,2.51-3.91s2.55,1.46,3.45,3.09c.74,1.31,1.52,2.66,2.39,2.55s1.26-1.64,1.62-3.1c.45-1.82.91-3.69,2.51-3.91s2.55,1.46,3.46,3.08c.73,1.32,1.49,2.66,2.38,2.55s1.27-1.64,1.63-3.1c.45-1.81.91-3.68,2.52-3.9a.51.51,0,0,1,.59.46.53.53,0,0,1-.45.6c-.89.12-1.27,1.64-1.63,3.1-.45,1.81-.91,3.69-2.51,3.91s-2.55-1.46-3.46-3.09c-.73-1.31-1.52-2.68-2.39-2.54s-1.26,1.63-1.62,3.1c-.44,1.81-.91,3.68-2.51,3.9s-2.54-1.46-3.45-3.08c-.74-1.32-1.49-2.66-2.38-2.55s-1.26,1.64-1.62,3.1c-.45,1.81-.91,3.68-2.52,3.9A1.27,1.27,0,0,1,439,274.8Z"/><path class="a" d="M251.25,122.53a2.49,2.49,0,0,1-1.6-.55c-1.68-1.32-1-3.84-.26-6.29.6-2.1,1.22-4.27.11-5.14s-3,.27-4.89,1.37c-2.17,1.29-4.41,2.61-6.09,1.3s-1-3.85-.25-6.29c.6-2.1,1.23-4.27.12-5.14s-3,.27-4.89,1.38c-2.17,1.28-4.42,2.61-6.09,1.29s-.95-3.84-.25-6.28c.61-2.1,1.23-4.27.12-5.14a.54.54,0,0,1-.09-.75.53.53,0,0,1,.75-.1c1.67,1.32.94,3.85.24,6.29-.6,2.09-1.22,4.26-.12,5.13s3-.27,4.9-1.37c2.17-1.29,4.41-2.61,6.08-1.3s1,3.85.25,6.29c-.6,2.1-1.22,4.27-.11,5.14s3-.27,4.89-1.37c2.17-1.29,4.41-2.62,6.09-1.3s1,3.85.25,6.29c-.59,2.1-1.21,4.27-.11,5.14s3-.26,4.9-1.37c2.17-1.28,4.42-2.6,6.09-1.28a.53.53,0,1,1-.65.84c-1.1-.87-3,.27-4.9,1.37C254.21,121.6,252.63,122.53,251.25,122.53Z"/><path class="a" d="M526.2,400.18a.52.52,0,0,1-.38-.17c-1.78-1.88-.44-4.86.86-7.73,1.15-2.55,2.35-5.18,1.06-6.54s-3.94-.28-6.51.76c-2.9,1.19-5.9,2.41-7.68.52s-.44-4.86.86-7.74c1.15-2.55,2.34-5.18,1.06-6.55s-4-.28-6.52.77c-2.9,1.18-5.89,2.4-7.68.51s-.44-4.86.85-7.74c1.15-2.55,2.34-5.19,1.05-6.55s-3.94-.29-6.52.76c-2.89,1.18-5.89,2.4-7.68.51a.55.55,0,0,1,0-.76.53.53,0,0,1,.75,0c1.29,1.37,3.95.29,6.52-.76,2.9-1.18,5.9-2.4,7.68-.51s.45,4.87-.85,7.75c-1.15,2.55-2.34,5.19-1,6.55s3.94.28,6.51-.77c2.9-1.18,5.9-2.4,7.68-.51s.44,4.86-.85,7.74c-1.15,2.55-2.35,5.18-1.06,6.55s3.94.27,6.51-.77c2.9-1.18,5.9-2.41,7.68-.52s.44,4.86-.86,7.74c-1.15,2.55-2.34,5.18-1.06,6.54a.55.55,0,0,1,0,.76A.51.51,0,0,1,526.2,400.18Z"/><path class="a" d="M437.48,249.2a.52.52,0,0,1-.27-.07.55.55,0,0,1-.19-.74c1.06-1.83-.9-4.38-2.8-6.83-2.11-2.74-4.3-5.57-2.88-8s4.93-1.93,8.33-1.42c3.05.45,6.2.93,7.25-.91s-.9-4.37-2.8-6.82c-2.11-2.74-4.3-5.57-2.88-8s4.93-1.93,8.32-1.42c3.05.46,6.2.93,7.25-.9s-.9-4.36-2.8-6.82c-2.12-2.74-4.3-5.57-2.89-8s4.93-1.92,8.33-1.41c3,.46,6.19.94,7.24-.89a.52.52,0,0,1,.73-.19.53.53,0,0,1,.19.73c-1.41,2.46-4.92,1.93-8.32,1.41-3-.45-6.19-.93-7.25.9s.91,4.36,2.81,6.82c2.11,2.73,4.3,5.56,2.88,8s-4.93,1.92-8.32,1.41c-3.05-.45-6.2-.93-7.25.9s.9,4.37,2.8,6.82c2.11,2.74,4.3,5.57,2.88,8s-4.93,1.94-8.33,1.43c-3-.46-6.19-.93-7.25.91s.9,4.37,2.8,6.83c2.11,2.74,4.3,5.57,2.88,8A.54.54,0,0,1,437.48,249.2Z"/><path class="a" d="M522.87,275.06a.53.53,0,0,1-.53-.5c-.19-2.66,2.8-4.12,5.68-5.53,2.57-1.25,5.22-2.54,5.08-4.48s-2.94-2.85-5.65-3.72c-3.05-1-6.2-2-6.39-4.68s2.8-4.12,5.68-5.53c2.57-1.25,5.22-2.55,5.09-4.49s-2.94-2.84-5.66-3.72c-3-1-6.2-2-6.39-4.68s2.8-4.13,5.68-5.54c2.57-1.25,5.22-2.55,5.09-4.49s-2.94-2.86-5.66-3.74c-3-1-6.2-2-6.39-4.68a.53.53,0,1,1,1.06-.07c.14,1.94,2.94,2.85,5.66,3.73,3,1,6.2,2,6.39,4.68s-2.8,4.13-5.68,5.54c-2.57,1.26-5.22,2.56-5.09,4.5s2.94,2.85,5.66,3.72c3,1,6.2,2,6.39,4.68s-2.8,4.12-5.68,5.53c-2.57,1.25-5.22,2.55-5.09,4.49s2.94,2.84,5.66,3.72c3.05,1,6.2,2,6.39,4.67s-2.8,4.12-5.69,5.53c-2.56,1.25-5.21,2.55-5.08,4.48a.54.54,0,0,1-.49.58Z"/><path class="a" d="M480.7,36.72a.54.54,0,0,1-.49-.32c-.78-1.76.83-3.44,2.38-5.06,1.31-1.36,2.66-2.77,2.17-3.87s-2.43-1-4.3-.93c-2.23.1-4.53.2-5.31-1.57s.82-3.44,2.37-5.06c1.31-1.36,2.66-2.77,2.17-3.87s-2.43-1-4.3-.93c-2.23.1-4.53.19-5.31-1.57s.82-3.44,2.37-5.07c1.3-1.36,2.65-2.77,2.17-3.87s-2.43-1-4.31-.94c-2.23.09-4.53.19-5.31-1.57a.56.56,0,0,1,.26-.72.54.54,0,0,1,.71.27c.48,1.11,2.42,1,4.3.94,2.23-.09,4.53-.18,5.32,1.58s-.82,3.44-2.38,5.06c-1.3,1.37-2.65,2.78-2.16,3.88s2.42,1,4.3.93c2.22-.09,4.53-.19,5.31,1.57s-.82,3.44-2.37,5.06c-1.31,1.37-2.66,2.78-2.17,3.87s2.43,1,4.3.94c2.22-.1,4.53-.2,5.31,1.56s-.82,3.44-2.38,5.06c-1.3,1.36-2.65,2.77-2.17,3.87a.54.54,0,0,1-.26.71A.59.59,0,0,1,480.7,36.72Z"/><path class="a" d="M356.08,296.48a1.24,1.24,0,0,1-.37-.06c-.92-.3-1-1.41-1.07-2.31,0-.52-.09-1.29-.33-1.37s-.72.53-1,.93c-.56.69-1.27,1.56-2.19,1.27s-1-1.42-1.07-2.31c0-.52-.09-1.29-.32-1.37s-.72.53-1.05.93c-.56.69-1.26,1.57-2.18,1.27s-1-1.41-1.07-2.31c0-.51-.09-1.29-.33-1.36a.54.54,0,0,1-.34-.68.53.53,0,0,1,.66-.35c.93.3,1,1.41,1.07,2.31,0,.51.09,1.29.33,1.36s.72-.52,1-.92c.56-.7,1.26-1.57,2.19-1.27s1,1.41,1.06,2.31c0,.51.1,1.28.33,1.36s.72-.53,1.05-.92c.56-.7,1.27-1.57,2.18-1.27s1,1.41,1.07,2.31c0,.51.1,1.29.33,1.36s.72-.52,1.05-.92c.56-.7,1.27-1.56,2.18-1.27a.54.54,0,0,1,.35.67.54.54,0,0,1-.67.36c-.23-.08-.72.52-1,.92C357.41,295.75,356.83,296.48,356.08,296.48Z"/><path class="a" d="M223.45,316.93a.53.53,0,0,1-.46-.26c-1.51-2.57.76-5.57,3-8.47,2-2.62,4-5.32,2.9-7.26s-4.48-1.4-7.7-.88c-3.56.57-7.26,1.17-8.77-1.4s.76-5.57,3-8.47c2-2.62,4-5.33,2.89-7.27s-4.47-1.4-7.69-.89c-3.57.58-7.27,1.17-8.78-1.39s.76-5.58,3-8.48c2-2.63,4-5.34,2.89-7.28s-4.48-1.41-7.7-.89c-3.58.57-7.27,1.16-8.78-1.41a.55.55,0,0,1,.18-.74.53.53,0,0,1,.73.19c1.15,1.94,4.48,1.41,7.7.89,3.57-.57,7.27-1.16,8.78,1.41s-.76,5.57-3,8.48c-2,2.62-4,5.33-2.88,7.28s4.47,1.4,7.69.88c3.57-.57,7.26-1.17,8.78,1.4s-.77,5.57-3,8.47c-2,2.62-4,5.33-2.9,7.27s4.47,1.4,7.7.88c3.57-.57,7.26-1.17,8.77,1.4s-.76,5.56-3,8.47c-2,2.61-4,5.32-2.9,7.26a.53.53,0,0,1-.18.73A.47.47,0,0,1,223.45,316.93Z"/><path class="a" d="M489.28,413a3.18,3.18,0,0,1-2.77-1.22c-1.39-1.91.14-4.4,1.63-6.81,1.29-2.1,2.63-4.28,1.67-5.6s-3.41-.68-5.78-.05c-2.72.71-5.52,1.44-6.91-.46s.15-4.4,1.64-6.81c1.29-2.1,2.63-4.27,1.67-5.59s-3.41-.68-5.78-.06c-2.71.71-5.52,1.45-6.9-.46s.15-4.39,1.63-6.8c1.3-2.1,2.64-4.27,1.68-5.59a.54.54,0,0,1,.12-.75.52.52,0,0,1,.74.11c1.39,1.91-.15,4.4-1.63,6.8-1.3,2.1-2.64,4.28-1.68,5.6s3.4.67,5.78.05c2.71-.71,5.51-1.45,6.9.46s-.15,4.39-1.63,6.8c-1.3,2.1-2.64,4.28-1.68,5.6s3.41.67,5.78.05c2.72-.71,5.52-1.44,6.91.46s-.15,4.41-1.63,6.81c-1.29,2.11-2.63,4.28-1.67,5.61s3.41.68,5.78.06c2.72-.71,5.52-1.45,6.91.46a.55.55,0,0,1-.11.75.53.53,0,0,1-.75-.11c-1-1.33-3.41-.68-5.78-.06A17.71,17.71,0,0,1,489.28,413Z"/><path class="a" d="M483.07,597.84H483c-2.17-.31-2.81-3-3.43-5.53-.54-2.22-1.09-4.52-2.55-4.73s-2.62,1.85-3.74,3.83c-1.3,2.3-2.65,4.68-4.82,4.36s-2.81-3-3.44-5.54c-.53-2.22-1.09-4.51-2.55-4.72s-2.62,1.84-3.74,3.83c-1.3,2.29-2.64,4.68-4.82,4.36s-2.82-3-3.44-5.54c-.54-2.22-1.1-4.52-2.56-4.73s-2.63,1.85-3.75,3.83c-1.3,2.3-2.65,4.67-4.83,4.36a.54.54,0,0,1-.45-.61.55.55,0,0,1,.6-.46c1.47.21,2.63-1.84,3.75-3.83,1.3-2.29,2.65-4.67,4.82-4.35s2.83,3,3.45,5.53c.54,2.22,1.09,4.52,2.56,4.73s2.62-1.84,3.74-3.83c1.3-2.29,2.64-4.68,4.82-4.36s2.82,3,3.44,5.54c.53,2.22,1.09,4.52,2.55,4.72s2.62-1.84,3.74-3.82c1.3-2.3,2.62-4.67,4.82-4.36s2.81,3,3.43,5.53c.54,2.22,1.09,4.52,2.55,4.73a.54.54,0,0,1-.07,1.07Z"/><path class="a" d="M145.42,591.32h-.09c-1.8-.31-2.26-2.47-2.71-4.57-.38-1.74-.77-3.55-1.85-3.73s-2,1.4-3,2.93c-1.1,1.83-2.23,3.74-4,3.42s-2.27-2.46-2.72-4.56c-.38-1.74-.77-3.55-1.85-3.73s-2,1.4-3,2.92c-1.1,1.84-2.24,3.75-4,3.43s-2.27-2.47-2.73-4.56c-.38-1.75-.77-3.55-1.86-3.73s-2,1.39-3,2.92c-1.1,1.83-2.24,3.73-4,3.43a.53.53,0,0,1-.43-.62.53.53,0,0,1,.61-.45c1.09.18,2-1.39,3-2.92,1.1-1.83,2.24-3.73,4-3.43s2.27,2.47,2.72,4.57c.38,1.74.77,3.55,1.86,3.73s2-1.4,3-2.92c1.1-1.84,2.24-3.73,4-3.43s2.27,2.47,2.72,4.56c.38,1.75.77,3.55,1.85,3.73s2-1.39,2.95-2.92c1.1-1.84,2.24-3.74,4-3.43s2.27,2.47,2.72,4.56c.37,1.75.76,3.55,1.85,3.73a.53.53,0,0,1,.43.62A.52.52,0,0,1,145.42,591.32Z"/><path class="a" d="M253.48,281.6a.52.52,0,0,1-.41-.19c-.52-.63-.11-1.4.22-2a2.46,2.46,0,0,0,.34-.82,3.07,3.07,0,0,0-.84.21c-.66.22-1.49.49-2-.13s-.11-1.4.22-2a2.42,2.42,0,0,0,.34-.83,2.74,2.74,0,0,0-.84.22c-.67.21-1.49.49-2-.14s-.1-1.39.23-2a2.42,2.42,0,0,0,.34-.83,2.78,2.78,0,0,0-.85.21c-.66.22-1.49.49-2-.14a.54.54,0,0,1,.82-.69,2.59,2.59,0,0,0,.85-.19c.66-.22,1.48-.5,2,.13s.11,1.4-.23,2a2.58,2.58,0,0,0-.33.83,3.61,3.61,0,0,0,.84-.22c.66-.21,1.49-.49,2,.14s.11,1.39-.22,2a2.42,2.42,0,0,0-.34.83,3,3,0,0,0,.85-.21c.66-.22,1.48-.49,2,.13s.11,1.4-.22,2a2.58,2.58,0,0,0-.34.83.54.54,0,0,1-.07.75A.54.54,0,0,1,253.48,281.6Z"/><path class="a" d="M388.17,514.91h-.1a.52.52,0,0,1-.42-.62c.21-1.15,1.52-1.41,2.67-1.64.82-.17,1.75-.35,1.83-.78s-.72-.95-1.43-1.4c-1-.64-2.12-1.36-1.91-2.51s1.52-1.41,2.67-1.64c.83-.16,1.76-.35,1.84-.78s-.73-.94-1.43-1.4c-1-.63-2.12-1.35-1.91-2.5s1.52-1.42,2.67-1.65c.82-.16,1.75-.35,1.84-.78s-.73-.95-1.43-1.4c-1-.64-2.12-1.36-1.91-2.51a.53.53,0,1,1,1.05.2c-.08.43.72.95,1.43,1.4,1,.63,2.11,1.36,1.9,2.51s-1.52,1.41-2.67,1.64c-.82.16-1.75.35-1.83.78s.72.95,1.43,1.4c1,.64,2.11,1.36,1.9,2.51s-1.52,1.41-2.67,1.64c-.82.16-1.75.35-1.83.78s.72,1,1.43,1.4c1,.64,2.12,1.36,1.9,2.51s-1.51,1.4-2.67,1.63c-.82.17-1.75.35-1.83.78A.53.53,0,0,1,388.17,514.91Z"/><path class="a" d="M370.71,477.34h-.08a.54.54,0,0,1-.45-.61c0-.13-.58-.49-.81-.63-.65-.38-1.45-.86-1.33-1.71s1-1.07,1.77-1.24c.26-.07.94-.23,1-.36s-.61-.5-.82-.63c-.64-.38-1.45-.86-1.32-1.71s1-1.07,1.76-1.24c.24-.05.94-.22,1-.35s-.6-.51-.81-.63c-.65-.38-1.46-.86-1.33-1.71s1-1.07,1.77-1.24c.23-.06.94-.22,1-.35a.54.54,0,0,1,.6-.46.55.55,0,0,1,.45.62c-.13.85-1,1.06-1.77,1.24-.23.05-.94.22-1,.35s.61.5.82.62c.64.39,1.45.86,1.33,1.72s-1,1.06-1.77,1.24c-.24.05-.94.22-1,.35s.61.5.81.63c.65.38,1.46.86,1.33,1.71s-1,1.07-1.77,1.24c-.25.06-.94.23-1,.36s.59.49.82.62c.65.39,1.45.87,1.33,1.72A.54.54,0,0,1,370.71,477.34Z"/><path class="a" d="M170.15,481.06c-1.26,0-2.5-1.15-3.7-2.26s-2.52-2.32-3.45-1.86a.52.52,0,0,1-.71-.25.54.54,0,0,1,.24-.72c1.58-.78,3.13.65,4.63,2,1.24,1.14,2.52,2.32,3.45,1.86s.81-2.21.69-3.9c-.15-2.05-.31-4.17,1.27-4.94s3.14.65,4.64,2c1.24,1.14,2.52,2.32,3.45,1.87s.81-2.21.69-3.9c-.15-2-.31-4.17,1.28-4.95s3.13.65,4.63,2c1.24,1.15,2.53,2.32,3.46,1.87s.81-2.21.69-3.91c-.15-2.05-.3-4.16,1.28-4.94a.52.52,0,0,1,.71.25.53.53,0,0,1-.24.71c-.94.46-.81,2.21-.69,3.91.15,2.05.3,4.16-1.28,4.94s-3.14-.65-4.64-2c-1.24-1.14-2.53-2.32-3.46-1.86s-.81,2.21-.68,3.9c.14,2.05.3,4.17-1.28,4.94s-3.14-.65-4.64-2c-1.24-1.14-2.51-2.32-3.45-1.86s-.81,2.2-.68,3.89c.14,2.05.3,4.17-1.28,4.95A2.11,2.11,0,0,1,170.15,481.06Z"/><path class="a" d="M46.72,490.12h-.08a.54.54,0,0,1-.44-.62c.07-.46-.77-1-1.52-1.42-1-.63-2.2-1.34-2-2.52s1.52-1.48,2.69-1.75c.85-.19,1.81-.41,1.88-.87s-.77-1-1.51-1.42c-1-.63-2.21-1.34-2-2.52s1.52-1.48,2.7-1.74c.85-.19,1.81-.41,1.88-.87s-.77-1-1.52-1.42c-1-.63-2.2-1.34-2-2.51s1.52-1.48,2.7-1.75c.84-.19,1.8-.4,1.88-.86a.52.52,0,0,1,.6-.45.54.54,0,0,1,.44.62c-.18,1.18-1.52,1.48-2.69,1.74-.85.19-1.81.41-1.88.87s.77,1,1.51,1.42c1,.62,2.21,1.34,2,2.51s-1.52,1.48-2.7,1.75c-.85.19-1.81.41-1.88.87s.77,1,1.52,1.42c1,.62,2.2,1.33,2,2.51s-1.52,1.48-2.69,1.75c-.85.19-1.81.41-1.89.87s.77,1,1.52,1.42c1,.63,2.2,1.34,2,2.52A.54.54,0,0,1,46.72,490.12Z"/><path class="a" d="M345.21,592.21a.54.54,0,0,1,0-1.08c1.28-.12,1.86-2.13,2.42-4.08.66-2.28,1.34-4.65,3.34-4.84s3.11,2,4.19,4.11c.92,1.8,1.86,3.69,3.15,3.54s1.85-2.14,2.41-4.08c.66-2.29,1.34-4.66,3.34-4.85s3.1,2,4.18,4.11c.92,1.8,1.83,3.64,3.14,3.54s1.86-2.14,2.42-4.08c.66-2.29,1.34-4.65,3.33-4.85s3.1,2,4.18,4.12c.92,1.79,1.87,3.65,3.14,3.53a.55.55,0,0,1,.58.49.54.54,0,0,1-.48.58c-2,.19-3.11-2-4.18-4.11-.92-1.8-1.88-3.66-3.14-3.54s-1.85,2.14-2.41,4.08c-.66,2.29-1.34,4.66-3.34,4.85s-3.1-2-4.18-4.11c-.92-1.8-1.89-3.64-3.14-3.54s-1.86,2.13-2.42,4.08c-.66,2.29-1.34,4.65-3.33,4.85s-3.11-2-4.19-4.12c-.92-1.8-1.84-3.65-3.15-3.53s-1.86,2.13-2.42,4.08c-.66,2.28-1.34,4.65-3.34,4.85Z"/><path class="a" d="M17.31,172.88a.53.53,0,0,1-.52-.44c0-.16-.73-.3-1.07-.36-.77-.15-1.74-.34-1.91-1.22s.66-1.41,1.32-1.84c.29-.19.89-.58.86-.75s-.73-.29-1.07-.36c-.77-.14-1.74-.33-1.91-1.21s.66-1.41,1.32-1.85c.29-.18.89-.57.86-.74s-.73-.29-1.07-.36c-.77-.15-1.74-.33-1.91-1.21s.66-1.41,1.32-1.85c.29-.18.89-.57.86-.73a.53.53,0,1,1,1-.21c.17.88-.66,1.42-1.32,1.85-.29.19-.89.57-.86.74s.73.29,1.07.36c.78.15,1.74.33,1.91,1.21s-.66,1.42-1.32,1.85c-.29.19-.89.57-.85.74s.72.29,1.06.36c.78.15,1.74.33,1.91,1.21s-.66,1.42-1.32,1.85c-.29.19-.89.58-.85.74s.73.3,1.06.36c.78.15,1.74.34,1.91,1.22a.53.53,0,0,1-.42.63Z"/><path class="a" d="M270.43,597.92a.54.54,0,0,1-.53-.49c0-.35-.84-.61-1.5-.81-1-.31-2.16-.67-2.25-1.74s1-1.62,1.93-2.1c.62-.31,1.38-.7,1.35-1s-.84-.6-1.5-.8c-1-.32-2.16-.67-2.25-1.74s1-1.62,1.93-2.1c.62-.31,1.38-.69,1.35-1s-.84-.6-1.5-.8c-1-.32-2.16-.67-2.25-1.74s1-1.62,1.94-2.1c.61-.31,1.37-.69,1.35-1a.53.53,0,1,1,1.05-.09c.09,1.07-1,1.62-1.93,2.09-.61.31-1.38.7-1.35,1s.85.59,1.5.8c1,.31,2.17.67,2.25,1.74s-1,1.62-1.93,2.09c-.62.31-1.38.7-1.35,1.05s.84.6,1.5.8c1,.31,2.16.67,2.25,1.74s-1,1.62-1.93,2.1c-.62.31-1.38.7-1.35,1s.84.6,1.5.8c1,.31,2.16.67,2.25,1.75a.54.54,0,0,1-.48.58Z"/><path class="a" d="M13,371.52a18.44,18.44,0,0,1-5.12-1.12c-2.79-.87-5.67-1.78-6.9-.23a.53.53,0,0,1-.75.08.54.54,0,0,1-.08-.76c1.69-2.11,4.92-1.1,8.05-.12,2.78.88,5.66,1.78,6.9.23s-.24-4.21-1.66-6.79c-1.6-2.88-3.26-5.87-1.57-8s4.93-1.1,8.05-.13c2.79.88,5.67,1.78,6.91.23s-.23-4.22-1.66-6.79c-1.6-2.89-3.26-5.87-1.56-8S28.5,339,31.63,340c2.79.88,5.68,1.78,6.92.22s-.24-4.22-1.66-6.79c-1.6-2.89-3.26-5.88-1.56-8a.53.53,0,0,1,.75-.08.55.55,0,0,1,.08.76c-1.24,1.55.23,4.21,1.66,6.79,1.6,2.89,3.25,5.88,1.55,8s-4.93,1.11-8,.13c-2.79-.87-5.67-1.77-6.92-.22s.24,4.22,1.67,6.79c1.6,2.89,3.25,5.88,1.56,8s-4.93,1.1-8,.12c-2.79-.87-5.67-1.77-6.91-.22s.24,4.21,1.66,6.79c1.6,2.88,3.26,5.87,1.57,8A3.54,3.54,0,0,1,13,371.52Z"/><path class="a" d="M586.29,201.63a3.26,3.26,0,0,1-1.52-.38c-2.51-1.32-2.16-4.91-1.82-8.38.3-3.11.62-6.33-1.25-7.31s-4.29,1.13-6.63,3.17c-2.61,2.28-5.31,4.64-7.81,3.32s-2.16-4.91-1.81-8.38c.3-3.11.62-6.33-1.25-7.31s-4.28,1.14-6.62,3.18c-2.61,2.28-5.31,4.64-7.81,3.32s-2.15-4.91-1.81-8.37c.31-3.12.63-6.33-1.24-7.31a.54.54,0,0,1-.22-.73.52.52,0,0,1,.71-.23c2.51,1.32,2.15,4.9,1.81,8.37-.31,3.11-.63,6.33,1.24,7.31s4.28-1.13,6.62-3.17c2.61-2.29,5.31-4.64,7.81-3.32s2.16,4.9,1.81,8.37c-.3,3.11-.62,6.33,1.25,7.31s4.29-1.13,6.63-3.17c2.6-2.28,5.3-4.64,7.81-3.32s2.16,4.91,1.82,8.38c-.31,3.11-.62,6.33,1.25,7.32s4.29-1.13,6.63-3.18c2.61-2.27,5.32-4.62,7.82-3.31a.54.54,0,0,1,.23.73.53.53,0,0,1-.72.22c-1.87-1-4.29,1.13-6.63,3.18C590.5,199.76,588.35,201.63,586.29,201.63Z"/><path class="a" d="M436.48,446.79a.51.51,0,0,1-.36-.15.55.55,0,0,1,0-.76,2.6,2.6,0,0,0-.3-.88c-.29-.66-.66-1.47-.1-2.07s1.39-.27,2.05,0c.26.11.76.31.89.25a3,3,0,0,0-.31-.87c-.29-.65-.66-1.47-.1-2.07s1.39-.26,2,0a2.37,2.37,0,0,0,.89.26,3,3,0,0,0-.31-.88c-.29-.65-.66-1.46-.1-2.06s1.39-.27,2.05,0c.26.11.75.31.88.25a.53.53,0,0,1,.75,0,.55.55,0,0,1,0,.76c-.57.6-1.39.27-2,0-.26-.11-.76-.32-.89-.26a3,3,0,0,0,.31.88c.3.65.67,1.46.1,2.06s-1.38.27-2.05,0A2.54,2.54,0,0,0,439,441a2.63,2.63,0,0,0,.3.87c.3.66.67,1.47.1,2.07s-1.38.27-2,0c-.27-.11-.77-.31-.89-.25a2.63,2.63,0,0,0,.3.87c.3.66.66,1.47.1,2.07A.52.52,0,0,1,436.48,446.79Z"/><path class="a" d="M285.12,262.1a.5.5,0,0,1-.34-.13c-2.1-1.77-1-5.09,0-8.29.92-2.87,1.88-5.83.33-7.14s-4.26.18-6.88,1.62c-2.94,1.61-6,3.27-8.07,1.5s-1-5.1,0-8.3c.92-2.87,1.87-5.84.32-7.15s-4.26.18-6.88,1.62c-2.93,1.61-6,3.27-8.07,1.5s-1.05-5.1,0-8.31c.92-2.87,1.88-5.83.32-7.14s-4.27.17-6.89,1.61c-2.93,1.61-6,3.27-8.08,1.49a.56.56,0,0,1-.07-.76.55.55,0,0,1,.75-.07c1.56,1.32,4.27-.17,6.89-1.61,2.94-1.61,6-3.27,8.08-1.49s1,5.09,0,8.3c-.92,2.87-1.87,5.84-.31,7.15s4.26-.18,6.88-1.61c2.93-1.61,6-3.28,8.07-1.5s1,5.09,0,8.3c-.92,2.87-1.88,5.83-.32,7.14s4.26-.18,6.88-1.62c2.93-1.61,6-3.27,8.07-1.5s1,5.09,0,8.3c-.92,2.87-1.88,5.83-.33,7.14a.54.54,0,0,1-.34,1Z"/><path class="a" d="M590.43,252.1h0a.54.54,0,0,1-.5-.57c.05-.86.94-1.16,1.65-1.41.23-.08.92-.31.93-.45s-.64-.43-.88-.54c-.68-.33-1.53-.72-1.49-1.59s.94-1.16,1.65-1.41c.25-.09.92-.32.93-.45s-.63-.44-.87-.55c-.69-.32-1.54-.72-1.5-1.58s.94-1.17,1.65-1.41c.26-.09.93-.32.93-.46s-.63-.43-.87-.55c-.69-.32-1.54-.72-1.49-1.58a.52.52,0,0,1,.56-.51.54.54,0,0,1,.5.57c0,.13.63.43.88.55.68.32,1.53.72,1.48,1.58s-.93,1.17-1.64,1.41c-.26.09-.93.32-.93.46s.63.43.87.54c.69.33,1.54.72,1.49,1.59s-.93,1.16-1.65,1.41c-.25.09-.92.31-.93.45s.64.44.88.55c.68.32,1.54.72,1.49,1.58s-.93,1.17-1.65,1.41c-.25.09-.92.32-.93.45A.53.53,0,0,1,590.43,252.1Z"/><path class="a" d="M441.2,562.88h0c-.84,0-1.16-.88-1.41-1.57-.1-.27-.31-.82-.44-.88s-.36.6-.47.86c-.28.67-.63,1.51-1.45,1.51h0c-.84,0-1.16-.88-1.41-1.57-.1-.27-.31-.82-.44-.87s-.36.59-.47.85c-.28.67-.63,1.51-1.45,1.51h0c-.83,0-1.15-.88-1.41-1.57-.1-.26-.3-.81-.44-.87a.54.54,0,0,1-.52-.55.56.56,0,0,1,.55-.53c.83,0,1.15.88,1.41,1.57.09.27.3.82.43.87s.36-.59.47-.85c.28-.68.66-1.48,1.47-1.51s1.16.88,1.41,1.57c.1.27.31.82.44.87s.36-.59.47-.85c.28-.68.69-1.56,1.47-1.51s1.16.88,1.41,1.57c.1.26.31.82.44.87s.36-.59.47-.85c.29-.68.64-1.51,1.45-1.51h0a.54.54,0,0,1,0,1.07h0c-.13,0-.36.6-.47.86C442.37,562,442,562.88,441.2,562.88Z"/><path class="a" d="M231.05,248.29a.44.44,0,0,1-.16,0c-1-.31-1.06-1.46-1.14-2.48,0-.61-.1-1.44-.39-1.53s-.81.55-1.2,1c-.63.79-1.35,1.69-2.33,1.37s-1.07-1.46-1.14-2.48c-.05-.61-.11-1.44-.4-1.53s-.81.55-1.19,1c-.64.79-1.36,1.69-2.34,1.37s-1.07-1.46-1.14-2.48c-.05-.61-.11-1.44-.4-1.53s-.82.55-1.2,1c-.64.79-1.36,1.69-2.34,1.37a.53.53,0,0,1-.34-.67.51.51,0,0,1,.66-.35c.3.07.82-.56,1.2-1,.63-.79,1.36-1.68,2.34-1.37s1.06,1.46,1.14,2.48c0,.61.11,1.45.4,1.54s.81-.56,1.19-1c.64-.79,1.36-1.69,2.34-1.38s1.06,1.46,1.14,2.48c0,.61.11,1.44.4,1.54s.81-.56,1.19-1c.64-.79,1.36-1.7,2.34-1.38s1.06,1.46,1.13,2.48c.05.61.11,1.44.4,1.53a.54.54,0,0,1,.35.68A.52.52,0,0,1,231.05,248.29Z"/><path class="a" d="M554,319.79a10.87,10.87,0,0,1-2.62-.48c-1.39-.37-2.84-.75-3.35-.05a.52.52,0,0,1-.74.11.53.53,0,0,1-.11-.75c.94-1.29,2.73-.81,4.47-.35,1.4.37,2.84.75,3.35.05s-.28-2-1-3.22c-1-1.55-1.93-3.14-1-4.43s2.73-.81,4.47-.35c1.4.36,2.84.75,3.35,0s-.27-2-1-3.22c-1-1.54-1.93-3.14-1-4.43s2.74-.82,4.48-.36c1.4.37,2.84.75,3.35,0s-.27-2-1-3.23c-.95-1.55-1.93-3.14-1-4.43a.53.53,0,0,1,.74-.12.55.55,0,0,1,.12.76c-.52.7.27,2,1,3.22.95,1.55,1.93,3.15,1,4.44s-2.74.81-4.48.35c-1.39-.36-2.84-.75-3.35,0s.28,2,1,3.22c1,1.55,1.93,3.14,1,4.43s-2.74.81-4.48.36c-1.39-.37-2.83-.76-3.35-.05s.28,2,1,3.22c.95,1.54,1.93,3.14,1,4.43A2.15,2.15,0,0,1,554,319.79Z"/><path class="a" d="M335,379.56c-1,0-2-.83-2.93-1.58s-2-1.61-2.59-1.25a.55.55,0,0,1-.73-.2.56.56,0,0,1,.2-.74c1.26-.71,2.6.39,3.78,1.35,1,.79,2,1.6,2.59,1.26s.45-1.65.29-2.9c-.21-1.52-.44-3.26.81-4s2.59.38,3.78,1.35c1,.79,2,1.61,2.59,1.25s.45-1.64.28-2.89c-.2-1.53-.43-3.26.82-4s2.6.38,3.78,1.35c1,.78,2,1.6,2.6,1.25s.45-1.65.28-2.9c-.2-1.53-.43-3.26.82-4a.54.54,0,0,1,.52.94c-.62.36-.45,1.65-.28,2.9.2,1.53.43,3.26-.82,4s-2.59-.38-3.78-1.35c-1-.79-2-1.6-2.6-1.25s-.45,1.65-.28,2.9c.2,1.53.43,3.26-.81,4s-2.6-.38-3.79-1.35c-1-.79-2-1.61-2.59-1.25s-.45,1.64-.28,2.89c.2,1.53.43,3.26-.81,4A1.67,1.67,0,0,1,335,379.56Z"/><path class="a" d="M583.48,343.56l-.16,0a.55.55,0,0,1-.35-.68c.28-.87,1.29-.94,2.1-1,.39,0,1.11-.08,1.16-.25s-.5-.64-.8-.89c-.63-.53-1.41-1.18-1.13-2.05s1.29-.94,2.1-1c.39,0,1.1-.08,1.16-.25s-.5-.65-.8-.89c-.63-.53-1.41-1.18-1.13-2s1.29-1,2.1-1c.38,0,1.1-.07,1.16-.25s-.5-.64-.8-.89c-.63-.53-1.41-1.18-1.13-2.05a.53.53,0,1,1,1,.32c-.06.18.5.65.8.9.63.52,1.41,1.17,1.13,2.05s-1.29.94-2.1,1c-.38,0-1.1.08-1.16.25s.5.65.8.89c.63.53,1.41,1.18,1.13,2.05s-1.28.95-2.1,1c-.38,0-1.1.08-1.16.26s.5.64.8.89c.63.52,1.41,1.18,1.13,2.05s-1.28.94-2.1,1c-.38,0-1.1.08-1.15.26A.54.54,0,0,1,583.48,343.56Z"/><path class="a" d="M335.36,524.33a.43.43,0,0,1-.19,0c-1.2-.46-1.22-2-1.24-3.34,0-1.06,0-2.16-.56-2.36s-1.26.61-2,1.39c-.9,1-1.93,2.12-3.13,1.66s-1.22-2-1.25-3.34c0-1.06,0-2.16-.56-2.36s-1.25.6-2,1.38c-.91,1-1.93,2.12-3.13,1.67s-1.23-2-1.25-3.35c0-1.06,0-2.15-.57-2.36s-1.26.61-2,1.39c-.9,1-1.92,2.12-3.13,1.66a.54.54,0,0,1-.3-.7.53.53,0,0,1,.68-.31c.53.21,1.26-.6,2-1.38.91-1,1.93-2.11,3.13-1.66s1.23,2,1.25,3.34c0,1.06,0,2.16.57,2.36s1.25-.6,2-1.38c.91-1,1.92-2.12,3.13-1.67s1.23,2,1.25,3.35c0,1.06,0,2.15.56,2.35s1.26-.6,2-1.38c.9-1,1.93-2.12,3.12-1.66s1.23,2,1.25,3.34c0,1.06,0,2.15.56,2.36a.54.54,0,0,1,.31.69A.55.55,0,0,1,335.36,524.33Z"/><path class="a" d="M131.84,419.7c-1.29,0-2.15-1.39-3-2.73-.72-1.17-1.45-2.35-2.25-2.22a.54.54,0,0,1-.2-1.06c1.48-.28,2.44,1.24,3.35,2.7.72,1.16,1.46,2.34,2.25,2.22s1.06-1.54,1.32-2.89c.34-1.7.68-3.45,2.17-3.73s2.44,1.23,3.35,2.69c.73,1.16,1.47,2.36,2.26,2.22s1.05-1.54,1.32-2.89c.33-1.7.68-3.45,2.17-3.73s2.44,1.23,3.35,2.69c.73,1.16,1.49,2.36,2.26,2.22s1.06-1.54,1.33-2.89c.33-1.7.68-3.46,2.17-3.74a.53.53,0,0,1,.62.43.54.54,0,0,1-.42.63c-.79.15-1.06,1.54-1.33,2.89-.33,1.7-.68,3.45-2.17,3.73S148,415,147,413.55c-.72-1.16-1.46-2.34-2.26-2.22s-1.05,1.54-1.32,2.89c-.33,1.7-.68,3.45-2.17,3.73s-2.43-1.23-3.35-2.69c-.72-1.16-1.48-2.37-2.25-2.22s-1.06,1.54-1.32,2.89c-.34,1.7-.68,3.45-2.17,3.73A1.47,1.47,0,0,1,131.84,419.7Z"/><path class="a" d="M590.49,597.72h0c-2.79-.1-4-3.44-5.14-6.68-1-2.9-2.11-5.9-4.18-6s-3.33,2.86-4.55,5.69c-1.35,3.11-2.74,6.33-5.45,6.33H571c-2.79-.09-4-3.44-5.14-6.67-1-2.9-2.12-5.9-4.19-6s-3.33,2.86-4.55,5.68c-1.36,3.16-2.74,6.44-5.56,6.33s-4-3.44-5.16-6.68c-1-2.9-2.12-5.9-4.19-6h-.07c-2,0-3.29,2.88-4.5,5.68-1.36,3.16-2.82,6.4-5.57,6.33a.54.54,0,0,1,0-1.08c2.11,0,3.34-2.86,4.56-5.68,1.36-3.16,2.82-6.42,5.57-6.33s4,3.44,5.16,6.68c1,2.9,2.11,5.9,4.19,6h.07c2,0,3.28-2.89,4.48-5.69,1.35-3.11,2.74-6.33,5.46-6.33h.11c2.79.09,4,3.44,5.15,6.68,1,2.9,2.11,5.9,4.18,6s3.33-2.86,4.55-5.68c1.36-3.16,2.82-6.4,5.56-6.33s4,3.44,5.15,6.67c1,2.9,2.11,5.9,4.17,6a.54.54,0,0,1,0,1.08Z"/><path class="a" d="M402.08,314.15a.54.54,0,0,1-.51-.39c-.37-1.3-2.49-1.51-4.54-1.72-2.41-.25-4.9-.5-5.46-2.5s1.41-3.54,3.32-5c1.63-1.28,3.31-2.61,2.94-3.9s-2.48-1.51-4.54-1.72c-2.4-.24-4.89-.5-5.45-2.49s1.4-3.54,3.32-5c1.63-1.28,3.31-2.6,2.95-3.89s-2.49-1.51-4.55-1.71c-2.4-.25-4.89-.5-5.45-2.49s1.41-3.54,3.32-5c1.63-1.28,3.32-2.6,2.95-3.89a.53.53,0,0,1,.36-.66.53.53,0,0,1,.66.37c.57,2-1.41,3.53-3.32,5-1.63,1.28-3.32,2.6-2.95,3.89s2.49,1.51,4.54,1.71c2.4.25,4.89.5,5.46,2.49s-1.41,3.54-3.32,5c-1.63,1.28-3.32,2.6-2.95,3.9s2.49,1.5,4.54,1.71c2.4.25,4.89.5,5.46,2.49s-1.41,3.55-3.32,5.05c-1.63,1.28-3.32,2.6-3,3.89s2.49,1.52,4.54,1.73c2.41.24,4.9.5,5.46,2.49a.55.55,0,0,1-.36.67Z"/><path class="a" d="M321.32,416.52a.52.52,0,0,1-.39-.17c-1.35-1.47-.31-3.68.69-5.8.85-1.81,1.73-3.68.88-4.61s-2.77-.2-4.62.52c-2.18.84-4.43,1.71-5.77.24s-.31-3.67.69-5.8c.85-1.81,1.73-3.68.87-4.62s-2.76-.2-4.61.52c-2.18.85-4.43,1.72-5.78.25s-.31-3.68.69-5.81c.85-1.81,1.73-3.68.87-4.62s-2.77-.2-4.62.51c-2.17.85-4.43,1.72-5.78.25a.55.55,0,0,1,0-.76.53.53,0,0,1,.75,0c.86.94,2.77.2,4.62-.52,2.18-.85,4.43-1.72,5.78-.24s.31,3.68-.69,5.81c-.85,1.81-1.73,3.68-.87,4.62s2.77.19,4.62-.52c2.18-.85,4.43-1.73,5.78-.25s.3,3.68-.7,5.81c-.85,1.81-1.73,3.67-.87,4.61s2.77.2,4.61-.52c2.18-.84,4.43-1.72,5.78-.25s.31,3.68-.7,5.81c-.85,1.8-1.73,3.67-.87,4.61a.53.53,0,0,1-.39.9Z"/><path class="a" d="M199.82,528.52a.5.5,0,0,1-.34-.13c-1.22-1-.64-2.82-.08-4.56.45-1.4.92-2.84.25-3.4s-2,.16-3.26.86c-1.59.87-3.24,1.77-4.46.74s-.64-2.82-.08-4.56c.45-1.4.92-2.85.25-3.41s-2,.16-3.27.86c-1.59.87-3.23,1.78-4.45.75s-.65-2.83-.09-4.57c.45-1.4.91-2.85.25-3.41s-2,.16-3.27.86c-1.59.87-3.24,1.77-4.46.74a.54.54,0,0,1-.07-.76.53.53,0,0,1,.75-.07c.67.56,2-.16,3.27-.86,1.59-.87,3.23-1.77,4.46-.74s.64,2.83.08,4.57c-.45,1.4-.91,2.84-.24,3.41s2-.16,3.26-.86c1.6-.87,3.24-1.78,4.46-.75s.64,2.83.08,4.57c-.45,1.4-.91,2.84-.25,3.41s2-.17,3.27-.87c1.59-.87,3.23-1.77,4.45-.74s.64,2.83.08,4.57c-.45,1.39-.91,2.84-.25,3.4a.54.54,0,0,1,.07.76A.55.55,0,0,1,199.82,528.52Z"/><path class="a" d="M355.26,187.33a2.25,2.25,0,0,1-1.15-.32c-1.63-1-1.29-3.25-.95-5.45.27-1.85.56-3.77-.45-4.37s-2.52.59-4,1.74c-1.74,1.36-3.54,2.78-5.17,1.81s-1.28-3.25-.95-5.45c.28-1.85.57-3.77-.44-4.37s-2.51.59-4,1.74c-1.74,1.37-3.54,2.78-5.17,1.81s-1.28-3.24-.95-5.45c.28-1.85.57-3.76-.43-4.36a.53.53,0,0,1-.19-.73.52.52,0,0,1,.72-.19c1.63,1,1.29,3.24.95,5.45-.28,1.85-.57,3.76.43,4.36s2.52-.59,4-1.74c1.75-1.37,3.55-2.78,5.17-1.81s1.29,3.25,1,5.45c-.28,1.85-.56,3.76.44,4.36s2.52-.59,4-1.73c1.74-1.37,3.54-2.79,5.17-1.81s1.29,3.24,1,5.45c-.28,1.85-.57,3.76.44,4.36s2.52-.58,4-1.73c1.75-1.37,3.55-2.78,5.18-1.81a.55.55,0,0,1,.19.74.53.53,0,0,1-.73.19c-1-.6-2.52.59-4,1.73S356.57,187.33,355.26,187.33Z"/><path class="a" d="M287.11,176.26a.51.51,0,0,1-.44-.24c-1.1-1.72.32-3.75,1.7-5.71,1.18-1.68,2.39-3.4,1.68-4.51s-2.76-.69-4.75-.3c-2.33.47-4.75.95-5.85-.76s.33-3.75,1.71-5.72c1.17-1.67,2.38-3.4,1.68-4.5s-2.77-.7-4.76-.3c-2.33.46-4.75.94-5.85-.77s.33-3.76,1.7-5.72c1.18-1.68,2.39-3.41,1.68-4.52s-2.77-.7-4.76-.3c-2.33.47-4.75,1-5.85-.77a.55.55,0,0,1,.16-.75.53.53,0,0,1,.74.16c.71,1.11,2.76.7,4.75.31,2.34-.47,4.75-1,5.85.77s-.32,3.75-1.7,5.72c-1.17,1.67-2.38,3.4-1.67,4.51s2.76.7,4.75.3c2.33-.47,4.75-.95,5.85.77s-.33,3.75-1.7,5.71c-1.18,1.68-2.39,3.41-1.68,4.51s2.76.7,4.75.3c2.33-.47,4.75-.95,5.85.77s-.33,3.75-1.71,5.71c-1.17,1.67-2.39,3.4-1.68,4.5a.55.55,0,0,1-.16.75A.6.6,0,0,1,287.11,176.26Z"/><path class="a" d="M193.46,219.47a.55.55,0,0,1-.49-.33c-.8-1.93-3.94-1.87-7-1.81-3.4.07-6.92.14-8-2.46s1.41-5.11,3.82-7.53c2.16-2.16,4.4-4.4,3.6-6.34s-4-1.86-7-1.79c-3.4.07-6.91.14-8-2.46s1.42-5.1,3.83-7.52c2.17-2.16,4.41-4.4,3.6-6.33s-4-1.86-7-1.79c-3.41.07-6.92.14-8-2.46s1.41-5.09,3.83-7.51c2.16-2.16,4.4-4.4,3.6-6.32a.53.53,0,1,1,1-.42c1.08,2.59-1.42,5.09-3.83,7.51-2.17,2.16-4.41,4.4-3.6,6.32s4,1.87,7,1.8c3.4-.07,6.91-.14,8,2.46S177.4,187.58,175,190c-2.16,2.17-4.4,4.4-3.6,6.33s4,1.86,7,1.8c3.4-.07,6.91-.14,8,2.46s-1.41,5.1-3.83,7.52c-2.16,2.17-4.4,4.41-3.59,6.34s3.95,1.87,7,1.81c3.41-.07,6.91-.14,8,2.46a.53.53,0,0,1-.28.7A.54.54,0,0,1,193.46,219.47Z"/><path class="a" d="M256.67,408.72h-.07a.53.53,0,0,1-.46-.6c.35-3,4-4,7.6-5,3.23-.87,6.56-1.77,6.83-4.07s-2.76-4-5.69-5.58c-3.25-1.78-6.6-3.62-6.24-6.65s4-4,7.6-5c3.23-.88,6.56-1.78,6.83-4.08s-2.76-4-5.69-5.58c-3.25-1.78-6.6-3.63-6.25-6.65s4.05-4,7.61-5c3.23-.87,6.56-1.78,6.83-4.08s-2.76-4-5.69-5.59c-3.25-1.79-6.6-3.63-6.24-6.66a.54.54,0,0,1,.59-.47.53.53,0,0,1,.46.6c-.27,2.3,2.76,4,5.7,5.58,3.24,1.79,6.59,3.64,6.24,6.66s-4.05,4-7.61,5c-3.23.88-6.56,1.78-6.83,4.09s2.76,4,5.69,5.58c3.25,1.78,6.6,3.63,6.24,6.65s-4,4-7.6,5c-3.23.87-6.56,1.77-6.83,4.07s2.76,4,5.69,5.58c3.25,1.78,6.6,3.63,6.25,6.65s-4,4-7.61,5c-3.22.87-6.56,1.77-6.83,4.07A.53.53,0,0,1,256.67,408.72Z"/><path class="a" d="M166.24,43.86a.53.53,0,0,1-.52-.43c-.28-1.43-2.52-1.85-4.69-2.26-2.52-.47-5.12-1-5.54-3.1s1.8-3.6,3.94-5c1.85-1.22,3.76-2.47,3.48-3.9s-2.52-1.85-4.69-2.25c-2.51-.48-5.12-1-5.54-3.1s1.8-3.6,3.95-5c1.85-1.22,3.76-2.48,3.48-3.9s-2.53-1.84-4.69-2.25c-2.52-.47-5.12-1-5.54-3.1s1.8-3.59,3.94-5c1.85-1.22,3.76-2.47,3.48-3.9a.54.54,0,0,1,.42-.63.53.53,0,0,1,.63.42c.42,2.14-1.8,3.6-3.95,5-1.85,1.21-3.76,2.47-3.48,3.89s2.52,1.85,4.69,2.25c2.52.47,5.12,1,5.54,3.1s-1.8,3.6-3.94,5c-1.85,1.22-3.77,2.47-3.49,3.9s2.53,1.84,4.7,2.25c2.51.47,5.11,1,5.54,3.1s-1.8,3.6-4,5c-1.85,1.22-3.76,2.48-3.48,3.91s2.53,1.85,4.7,2.26c2.51.47,5.12,1,5.54,3.1a.54.54,0,0,1-.42.63Z"/><path class="a" d="M543.25,378.71h-.07a.54.54,0,0,1-.46-.61c.26-2,2.6-2.59,4.87-3.18,1.93-.49,3.92-1,4.08-2.28s-1.63-2.28-3.36-3.27c-2-1.15-4.15-2.35-3.9-4.34s2.61-2.61,4.88-3.19c1.92-.5,3.91-1,4.08-2.28s-1.63-2.29-3.36-3.27c-2-1.16-4.16-2.35-3.9-4.35s2.61-2.61,4.87-3.19c1.93-.5,3.92-1,4.08-2.29s-1.62-2.3-3.36-3.28c-2-1.16-4.15-2.35-3.89-4.35a.53.53,0,1,1,1.06.14c-.17,1.27,1.62,2.29,3.35,3.27,2,1.16,4.16,2.36,3.9,4.36s-2.61,2.6-4.87,3.19c-1.93.5-3.92,1-4.08,2.29s1.62,2.29,3.36,3.27c2,1.15,4.15,2.35,3.89,4.35s-2.6,2.6-4.87,3.18c-1.93.5-3.91,1-4.08,2.29s1.63,2.28,3.36,3.27c2,1.15,4.16,2.35,3.9,4.34s-2.61,2.6-4.88,3.19c-1.92.49-3.91,1-4.07,2.27A.55.55,0,0,1,543.25,378.71Z"/><path class="a" d="M518.06,444.79H518a.54.54,0,0,1-.4-.65c.11-.52-.78-1.13-1.57-1.67-1.07-.74-2.27-1.57-2-2.8s1.72-1.47,3-1.69c.94-.15,2-.33,2.12-.85s-.78-1.13-1.57-1.67c-1.06-.74-2.27-1.57-2-2.8s1.71-1.47,3-1.68c.94-.16,2-.33,2.12-.85s-.78-1.14-1.57-1.68c-1.07-.73-2.28-1.56-2-2.79s1.72-1.47,3-1.68c.94-.15,2-.33,2.11-.85a.54.54,0,0,1,.64-.41.54.54,0,0,1,.4.64c-.27,1.23-1.71,1.47-3,1.68-.94.16-2,.33-2.12.85s.78,1.13,1.57,1.67c1.06.74,2.27,1.57,2,2.8s-1.71,1.47-3,1.68c-.94.16-2,.33-2.12.85s.78,1.14,1.57,1.68c1.06.73,2.27,1.56,2,2.79s-1.71,1.47-3,1.69c-.94.15-2,.33-2.12.85s.78,1.14,1.57,1.68c1.06.73,2.27,1.56,2,2.8A.53.53,0,0,1,518.06,444.79Z"/><path class="a" d="M313.53,229.38a.53.53,0,0,1-.52-.44c-.2-1.13-2-1.5-3.79-1.86-2.11-.43-4.29-.88-4.63-2.72s1.55-3,3.38-4.2c1.52-1,3.09-2,2.89-3.1s-2-1.49-3.79-1.85c-2.11-.43-4.29-.88-4.63-2.72s1.55-3,3.38-4.19c1.52-1,3.09-2,2.89-3.1s-2-1.49-3.79-1.85c-2.11-.43-4.29-.87-4.63-2.71s1.56-3,3.38-4.19c1.52-1,3.1-2,2.89-3.09a.53.53,0,1,1,1.05-.19c.33,1.83-1.55,3-3.38,4.19-1.52,1-3.09,2-2.89,3.09s2,1.49,3.79,1.85c2.11.43,4.29.87,4.63,2.71s-1.56,3-3.38,4.2c-1.52,1-3.09,2-2.89,3.09s2,1.49,3.79,1.85c2.11.43,4.29.88,4.62,2.72s-1.55,3-3.37,4.2c-1.52,1-3.1,2-2.89,3.1s2,1.49,3.79,1.85c2.11.43,4.29.88,4.63,2.72a.55.55,0,0,1-.43.63Z"/><path class="a" d="M94.23,411.79a.52.52,0,0,1-.29-.09.54.54,0,0,1-.15-.74c.81-1.25,2.55-.88,4.09-.57,1.27.26,2.58.53,3-.1s-.36-1.74-1.1-2.82c-.9-1.3-1.92-2.78-1.12-4s2.56-.88,4.1-.57c1.26.26,2.58.53,3-.1s-.36-1.75-1.1-2.82c-.9-1.3-1.93-2.78-1.12-4s2.55-.88,4.1-.57c1.26.26,2.58.53,3-.1s-.36-1.75-1.1-2.82c-.9-1.31-1.92-2.79-1.11-4a.52.52,0,0,1,.73-.16.54.54,0,0,1,.15.75c-.41.63.36,1.74,1.1,2.82.9,1.3,1.93,2.78,1.12,4s-2.55.89-4.1.57c-1.27-.26-2.58-.53-3,.1s.36,1.75,1.1,2.82c.9,1.31,1.92,2.78,1.12,4s-2.56.88-4.1.57c-1.26-.27-2.58-.53-3,.1s.36,1.74,1.1,2.82c.9,1.3,1.93,2.78,1.12,4s-2.55.88-4.09.57c-1.27-.27-2.58-.54-3,.1A.54.54,0,0,1,94.23,411.79Z"/><path class="a" d="M285.24,533.31a.39.39,0,0,1-.15,0,.54.54,0,0,1-.36-.67c.47-1.57-1.51-3.17-3.42-4.71-2.19-1.77-4.46-3.6-3.78-5.87s3.56-2.52,6.36-2.77c2.44-.22,5-.44,5.43-2s-1.52-3.16-3.43-4.71c-2.19-1.76-4.45-3.59-3.78-5.86s3.56-2.52,6.36-2.76c2.43-.21,5-.44,5.42-2s-1.51-3.17-3.42-4.71c-2.19-1.77-4.46-3.59-3.78-5.86s3.56-2.51,6.35-2.76c2.44-.21,5-.43,5.43-2a.52.52,0,0,1,.66-.36.53.53,0,0,1,.35.67c-.67,2.26-3.56,2.51-6.35,2.76-2.44.21-5,.43-5.42,2s1.51,3.17,3.42,4.71c2.19,1.77,4.46,3.59,3.78,5.86s-3.56,2.52-6.35,2.76c-2.44.21-5,.44-5.43,2s1.51,3.17,3.42,4.71c2.19,1.77,4.46,3.6,3.78,5.86s-3.56,2.52-6.35,2.77c-2.44.22-5,.44-5.43,2s1.51,3.17,3.42,4.71c2.19,1.77,4.46,3.6,3.78,5.87A.53.53,0,0,1,285.24,533.31Z"/><path class="a" d="M467.32,166.87a.47.47,0,0,1-.35-.14c-1.61-1.45-.7-4,.17-6.39.76-2.1,1.54-4.27.47-5.23s-3.11.06-5.08,1.06c-2.29,1.15-4.66,2.34-6.27.89s-.7-4,.17-6.4c.76-2.1,1.54-4.26.47-5.23s-3.12.06-5.09,1.06c-2.29,1.15-4.66,2.35-6.27.89s-.7-4,.17-6.4c.75-2.1,1.53-4.27.46-5.24s-3.12.06-5.09,1c-2.29,1.16-4.66,2.35-6.27.9a.54.54,0,0,1,0-.76.53.53,0,0,1,.75-.05c1.07,1,3.11-.06,5.09-1,2.29-1.15,4.66-2.35,6.27-.89s.7,4-.17,6.4c-.75,2.1-1.53,4.27-.46,5.24s3.11-.06,5.09-1.06c2.29-1.15,4.66-2.35,6.26-.89s.71,4-.17,6.4c-.75,2.1-1.53,4.26-.46,5.23s3.11-.06,5.08-1.06c2.29-1.15,4.66-2.35,6.27-.89s.7,4-.18,6.39c-.75,2.1-1.53,4.27-.47,5.23a.55.55,0,0,1,.05.76A.53.53,0,0,1,467.32,166.87Z"/><path class="a" d="M100.67,287.77h-.1c-1.63-.31-2-2.26-2.38-4.15-.29-1.54-.6-3.12-1.52-3.3s-1.78,1.19-2.61,2.51c-1,1.63-2.08,3.3-3.71,3s-2-2.26-2.37-4.15c-.3-1.54-.61-3.13-1.54-3.3s-1.78,1.19-2.61,2.51c-1,1.63-2.08,3.3-3.7,3s-2-2.27-2.38-4.16c-.3-1.53-.61-3.12-1.54-3.3s-1.78,1.19-2.61,2.51c-1,1.63-2.08,3.3-3.71,3a.54.54,0,0,1,.19-1.06c.94.19,1.79-1.19,2.62-2.51,1-1.63,2.07-3.31,3.71-3s2,2.27,2.38,4.16c.3,1.53.61,3.12,1.54,3.3s1.78-1.19,2.61-2.52c1-1.62,2.08-3.3,3.7-3s2,2.26,2.38,4.15c.3,1.54.61,3.13,1.53,3.3s1.78-1.19,2.61-2.51c1-1.63,2.07-3.31,3.7-3s2,2.27,2.38,4.15c.3,1.54.6,3.13,1.53,3.3a.55.55,0,0,1,.42.63A.53.53,0,0,1,100.67,287.77Z"/><path class="a" d="M131.1,546.86a.53.53,0,0,1-.5-.38c-.13-.4-1-.48-1.85-.54-1.15-.1-2.44-.2-2.78-1.3s.68-1.93,1.57-2.66c.63-.51,1.35-1.1,1.23-1.5s-1-.47-1.85-.54c-1.14-.09-2.44-.2-2.78-1.3s.68-1.92,1.57-2.65c.64-.51,1.35-1.1,1.23-1.5s-1-.47-1.85-.54c-1.14-.09-2.44-.2-2.77-1.29s.67-1.93,1.57-2.66c.63-.51,1.34-1.09,1.22-1.49a.53.53,0,0,1,1-.32c.33,1.1-.68,1.92-1.57,2.65-.63.52-1.35,1.1-1.23,1.5s1,.47,1.85.54c1.14.09,2.44.2,2.77,1.29s-.67,1.93-1.57,2.66c-.63.51-1.34,1.1-1.22,1.5s1,.47,1.84.54c1.15.09,2.45.2,2.78,1.29s-.68,1.93-1.57,2.66c-.63.52-1.34,1.1-1.22,1.5s1,.48,1.84.54c1.15.1,2.45.2,2.78,1.3a.53.53,0,0,1-.35.67A.45.45,0,0,1,131.1,546.86Z"/><path class="a" d="M569.88,271a.64.64,0,0,1-.23-.05c-.85-.42-.78-1.51-.72-2.38,0-.5.08-1.24-.12-1.34s-.75.41-1.11.74c-.64.59-1.43,1.34-2.28.92s-.79-1.5-.73-2.38c0-.49.08-1.24-.12-1.34s-.75.41-1.11.74c-.64.6-1.43,1.34-2.28.92s-.79-1.5-.73-2.38c0-.49.08-1.24-.12-1.34s-.75.41-1.11.74c-.64.6-1.44,1.33-2.29.92a.54.54,0,0,1-.25-.72.52.52,0,0,1,.71-.25c.21.12.75-.4,1.11-.74.63-.59,1.42-1.33,2.28-.92s.79,1.51.73,2.38c0,.5-.08,1.24.13,1.34s.74-.4,1.1-.74c.64-.59,1.44-1.33,2.29-.92s.78,1.51.72,2.38c0,.5-.08,1.24.13,1.34s.74-.41,1.1-.74c.64-.6,1.44-1.33,2.29-.92s.78,1.5.72,2.38c0,.49-.08,1.24.12,1.33a.54.54,0,0,1,.25.72A.52.52,0,0,1,569.88,271Z"/><path class="a" d="M530.62,473.39h-.11c-2.23-.08-3.16-2.7-4-5.24-.78-2.2-1.58-4.47-3.09-4.52h-.06c-1.48,0-2.43,2.17-3.35,4.28-1.08,2.46-2.14,5-4.42,4.92s-3.15-2.71-4-5.24c-.77-2.2-1.57-4.47-3.08-4.53s-2.48,2.15-3.41,4.28c-1.07,2.46-2.16,5-4.42,4.92s-3.15-2.7-4-5.24c-.77-2.19-1.57-4.46-3.08-4.52a.54.54,0,0,1-.51-.56.53.53,0,0,1,.55-.52c2.23.09,3.15,2.71,4,5.24.78,2.2,1.57,4.47,3.08,4.53s2.48-2.15,3.41-4.28c1.08-2.46,2.17-5,4.42-4.92s3.15,2.7,4,5.24c.78,2.19,1.58,4.47,3.09,4.52s2.47-2.15,3.41-4.28c1.08-2.46,2.18-5,4.42-4.92s3.16,2.71,4.05,5.24c.78,2.2,1.58,4.47,3.09,4.53S533,470.17,534,468c1.08-2.46,2.15-5,4.42-4.92a.54.54,0,0,1,.52.55.57.57,0,0,1-.56.52c-1.5-.11-2.48,2.15-3.41,4.28C533.88,470.89,532.78,473.39,530.62,473.39Z"/><path class="a" d="M112.82,360.53a.52.52,0,0,1-.29-.09.55.55,0,0,1-.15-.75c1.08-1.65-.62-4.13-2.26-6.53-1.85-2.7-3.75-5.49-2.28-7.75s4.77-1.56,7.94-.89c2.83.59,5.75,1.21,6.83-.44s-.62-4.13-2.26-6.53c-1.85-2.7-3.76-5.49-2.28-7.74s4.76-1.56,7.93-.89c2.83.6,5.75,1.22,6.83-.43s-.63-4.13-2.27-6.53c-1.85-2.69-3.75-5.48-2.28-7.73s4.76-1.56,7.93-.89c2.82.6,5.75,1.22,6.82-.42a.54.54,0,0,1,.74-.15.54.54,0,0,1,.15.74c-1.47,2.25-4.75,1.56-7.93.89-2.83-.6-5.75-1.22-6.82.42s.62,4.13,2.26,6.53c1.85,2.7,3.76,5.49,2.28,7.74s-4.76,1.55-7.93.89c-2.82-.6-5.75-1.22-6.82.43s.62,4.12,2.26,6.53c1.85,2.69,3.75,5.48,2.28,7.73s-4.76,1.57-7.94.9c-2.82-.6-5.75-1.21-6.83.44s.62,4.13,2.26,6.53c1.85,2.7,3.75,5.49,2.28,7.75A.57.57,0,0,1,112.82,360.53Z"/><path class="a" d="M436.21,337.28a.55.55,0,0,1-.48-.29c-1-1.94.76-3.94,2.44-5.88,1.45-1.67,2.94-3.39,2.3-4.68s-2.91-1.07-5.09-.87c-2.54.24-5.16.49-6.14-1.45s.76-3.94,2.44-5.88c1.44-1.67,2.94-3.39,2.29-4.68s-2.91-1.08-5.09-.87c-2.54.24-5.16.48-6.14-1.45s.76-4,2.44-5.89c1.44-1.67,2.93-3.39,2.28-4.68s-2.9-1.08-5.09-.88c-2.53.24-5.16.48-6.14-1.46a.54.54,0,0,1,.23-.72.54.54,0,0,1,.72.23c.65,1.29,2.91,1.08,5.09.88,2.54-.23,5.17-.48,6.14,1.46s-.76,3.94-2.43,5.88c-1.45,1.67-2.94,3.4-2.29,4.69s2.91,1.08,5.09.87c2.54-.24,5.16-.48,6.14,1.45s-.76,3.94-2.44,5.88c-1.45,1.67-2.94,3.4-2.29,4.68s2.9,1.08,5.09.87c2.54-.23,5.16-.48,6.13,1.45s-.76,3.94-2.44,5.88c-1.44,1.67-2.94,3.39-2.29,4.68a.54.54,0,0,1-.23.72A.53.53,0,0,1,436.21,337.28Z"/><path class="a" d="M79.67,481.44a.56.56,0,0,1-.47-.28c-.43-.8.22-1.59.74-2.22.24-.3.7-.85.61-1s-.79-.08-1.17,0c-.81.1-1.81.21-2.24-.58s.21-1.59.73-2.22c.24-.3.7-.86.61-1s-.79-.07-1.17,0c-.81.1-1.81.22-2.24-.58s.21-1.59.73-2.22c.25-.3.7-.85.61-1s-.79-.07-1.17,0c-.81.1-1.81.22-2.24-.58a.54.54,0,0,1,.21-.73.52.52,0,0,1,.72.22c.09.16.8.07,1.18,0,.8-.1,1.81-.22,2.24.58s-.21,1.59-.73,2.22c-.25.3-.7.85-.62,1s.8.07,1.18,0c.81-.09,1.81-.21,2.24.59s-.22,1.58-.73,2.21c-.25.3-.7.86-.62,1s.8.07,1.18,0c.8-.1,1.8-.22,2.24.58s-.22,1.59-.74,2.22c-.24.3-.7.85-.61,1a.55.55,0,0,1-.21.73A.51.51,0,0,1,79.67,481.44Z"/><path class="a" d="M414.07,477.79a.55.55,0,0,1-.42-.2c-1.51-1.89,0-4.53,1.36-7.08,1.24-2.24,2.53-4.56,1.46-5.88s-3.56-.54-6,.22c-2.76.87-5.62,1.77-7.13-.12s-.06-4.53,1.35-7.09c1.24-2.24,2.52-4.56,1.46-5.88s-3.57-.54-6,.22c-2.77.87-5.62,1.77-7.14-.12s-.06-4.54,1.35-7.1c1.24-2.24,2.52-4.56,1.46-5.89s-3.58-.54-6,.22c-2.76.87-5.62,1.77-7.14-.13a.54.54,0,1,1,.83-.68c1.06,1.33,3.57.54,6-.22,2.77-.86,5.62-1.76,7.14.13s.06,4.54-1.35,7.1c-1.24,2.24-2.52,4.56-1.45,5.89s3.57.54,6-.23c2.77-.87,5.62-1.77,7.14.13s.05,4.53-1.36,7.09c-1.24,2.24-2.52,4.56-1.46,5.88s3.57.54,6-.23c2.76-.87,5.61-1.76,7.13.13s.06,4.53-1.36,7.08c-1.24,2.24-2.52,4.56-1.46,5.88a.54.54,0,0,1-.08.76A.52.52,0,0,1,414.07,477.79Z"/><path class="a" d="M164.59,539.63a1.33,1.33,0,0,1-1.17-.54c-.57-.8,0-1.74.52-2.5.27-.43.69-1.09.54-1.29s-.89,0-1.38.1c-.87.21-1.95.48-2.51-.32s0-1.74.52-2.5c.28-.43.69-1.08.55-1.29s-.89,0-1.39.11c-.91.22-1.94.48-2.5-.32s0-1.7.52-2.5c.28-.43.69-1.09.55-1.29a.55.55,0,0,1,.12-.75.54.54,0,0,1,.75.12c.56.8,0,1.75-.52,2.5-.28.44-.7,1.09-.55,1.29s.89,0,1.38-.1c.87-.21,1.94-.48,2.51.32s0,1.74-.52,2.5c-.28.43-.7,1.09-.55,1.29s.89,0,1.38-.11c.87-.21,1.95-.48,2.51.32s0,1.74-.52,2.5c-.28.44-.69,1.09-.55,1.3s.9,0,1.39-.1c.86-.22,1.94-.48,2.51.32a.54.54,0,0,1-.13.75.53.53,0,0,1-.74-.13c-.15-.21-.89,0-1.39.1A5.44,5.44,0,0,1,164.59,539.63Z"/><path class="a" d="M265.89,446.56a.53.53,0,0,1-.27-.08c-2.35-1.43-1.8-4.87-1.26-8.2.48-3,1-6.06-.76-7.11s-4.18.84-6.55,2.67c-2.66,2-5.4,4.16-7.75,2.73s-1.8-4.87-1.27-8.21c.48-3,1-6.05-.76-7.11s-4.19.84-6.56,2.67c-2.65,2-5.4,4.16-7.75,2.73s-1.8-4.88-1.27-8.21c.47-3,1-6.06-.77-7.11s-4.19.83-6.57,2.66c-2.66,2-5.41,4.16-7.76,2.72a.53.53,0,0,1-.18-.73.53.53,0,0,1,.73-.19c1.74,1.06,4.19-.83,6.57-2.66,2.65-2,5.4-4.16,7.75-2.73s1.81,4.88,1.28,8.21c-.48,3-1,6.06.77,7.12s4.18-.84,6.56-2.67c2.65-2,5.4-4.16,7.75-2.73s1.8,4.87,1.26,8.21c-.48,3-1,6,.76,7.11s4.19-.84,6.56-2.67c2.65-2,5.4-4.16,7.75-2.73s1.8,4.87,1.26,8.2c-.48,3-1,6.06.76,7.11a.53.53,0,0,1,.18.73A.54.54,0,0,1,265.89,446.56Z"/><path class="a" d="M98.38,314.7h-.07c-.82-.1-1.06-1-1.25-1.7-.07-.27-.22-.84-.35-.9s-.41.55-.54.8c-.35.65-.78,1.46-1.61,1.35s-1.07-1-1.25-1.69c-.08-.28-.23-.85-.35-.91s-.42.55-.55.8c-.35.65-.78,1.47-1.61,1.35s-1.07-1-1.26-1.7c-.07-.27-.22-.84-.35-.91s-.41.56-.55.81c-.35.64-.78,1.46-1.61,1.35a.54.54,0,0,1,.13-1.07c.14,0,.41-.55.55-.8.35-.65.76-1.47,1.61-1.35s1.06,1,1.25,1.7c.07.27.23.84.35.9s.42-.55.55-.8c.35-.65.78-1.46,1.61-1.35s1.06,1,1.25,1.7c.08.27.23.84.35.9s.42-.55.55-.8c.35-.64.77-1.47,1.61-1.35s1.06,1,1.25,1.7c.07.27.22.84.35.91a.52.52,0,0,1,.46.59A.53.53,0,0,1,98.38,314.7Z"/><path class="a" d="M50.11,523.59a.54.54,0,0,1,0-1.08c1.56,0,2.44-2.33,3.28-4.57,1-2.57,2-5.23,4.27-5.26h0c2.26,0,3.33,2.61,4.37,5.14C63,520,64,522.34,65.47,522.3s2.44-2.34,3.28-4.58c1-2.57,2-5.23,4.26-5.26h0c2.25,0,3.33,2.61,4.36,5.14.91,2.21,1.82,4.46,3.41,4.48s2.43-2.34,3.28-4.57c1-2.58,2-5.24,4.26-5.27s3.35,2.6,4.39,5.14c.91,2.2,1.84,4.48,3.38,4.48h0a.54.54,0,0,1,0,1.08h0c-2.25,0-3.32-2.62-4.36-5.14-.9-2.21-1.83-4.48-3.38-4.48h0c-1.56,0-2.43,2.33-3.28,4.57-1,2.57-2,5.23-4.26,5.26h0c-2.25,0-3.32-2.61-4.36-5.14-.91-2.21-1.86-4.47-3.4-4.47s-2.44,2.33-3.28,4.57c-1,2.57-2,5.23-4.26,5.26s-3.37-2.6-4.41-5.14c-.91-2.2-1.84-4.48-3.39-4.48h0c-1.56,0-2.43,2.34-3.28,4.58-1,2.57-2,5.23-4.27,5.26Z"/><path class="a" d="M356.57,85a3,3,0,0,1-1.67-.5c-2.11-1.41-1.48-4.53-.86-7.56.54-2.67,1.1-5.44-.42-6.45s-3.79.61-6,2.17c-2.51,1.77-5.09,3.6-7.21,2.19s-1.47-4.53-.86-7.56c.54-2.67,1.1-5.43-.41-6.44s-3.79.61-6,2.17c-2.5,1.77-5.09,3.59-7.2,2.19s-1.48-4.53-.86-7.55c.54-2.68,1.1-5.44-.4-6.44a.55.55,0,0,1-.15-.75.52.52,0,0,1,.73-.15c2.11,1.4,1.48,4.53.86,7.55-.54,2.68-1.1,5.44.4,6.44s3.8-.61,6-2.17c2.5-1.77,5.09-3.59,7.2-2.19s1.48,4.54.86,7.56c-.54,2.67-1.1,5.44.41,6.44s3.79-.61,6-2.17c2.5-1.76,5.09-3.59,7.2-2.18s1.48,4.53.87,7.56c-.54,2.67-1.1,5.44.41,6.44s3.8-.6,6-2.16c2.5-1.77,5.09-3.59,7.2-2.18a.52.52,0,0,1,.15.74.51.51,0,0,1-.73.15c-1.51-1-3.8.61-6,2.17C360.23,83.6,358.31,85,356.57,85Z"/><path class="a" d="M335.26,554.8l-.23,0c-.87-.17-1.06-1.16-1.21-1.95-.06-.35-.2-1.07-.37-1.11s-.56.59-.75.88c-.43.69-1,1.53-1.84,1.36s-1.06-1.17-1.21-2c-.07-.35-.2-1.07-.37-1.1s-.56.58-.75.88c-.43.68-1,1.52-1.85,1.35s-1.06-1.16-1.21-2c-.06-.35-.19-1.07-.36-1.11a.53.53,0,0,1,.2-1c.88.17,1.06,1.16,1.21,2,.06.34.2,1.06.36,1.1s.57-.59.76-.88c.43-.68,1-1.53,1.84-1.36s1.06,1.16,1.21,2c.07.35.2,1.07.37,1.1s.56-.58.75-.88c.43-.68,1-1.52,1.85-1.35s1.06,1.16,1.21,2c.06.34.2,1.06.37,1.1s.56-.58.75-.88c.43-.68,1-1.52,1.85-1.36a.54.54,0,0,1-.2,1.06c-.21-.07-.57.58-.76.88C336.49,554,336,554.8,335.26,554.8Z"/><path class="a" d="M235.62,457.63h0c-1-.06-1.37-1.14-1.69-2.1-.18-.57-.44-1.35-.74-1.36s-.63.73-.88,1.27c-.42.92-.94,2-1.91,1.9s-1.37-1.14-1.69-2.1c-.19-.57-.45-1.35-.74-1.36s-.64.73-.89,1.27c-.42.91-.87,2-1.91,1.9s-1.37-1.14-1.69-2.1c-.19-.57-.45-1.35-.75-1.36s-.63.73-.88,1.27c-.42.91-.85,2-1.91,1.89a.54.54,0,0,1-.51-.56.52.52,0,0,1,.56-.51c.27,0,.64-.73.89-1.27.42-.92.86-2,1.91-1.9s1.38,1.14,1.7,2.1c.19.57.45,1.35.74,1.36s.64-.73.89-1.27c.42-.92.87-2,1.9-1.9s1.38,1.14,1.7,2.1c.19.57.45,1.35.74,1.36h0c.29,0,.63-.73.87-1.27.42-.91.86-2,1.91-1.9s1.37,1.14,1.69,2.1c.19.57.45,1.35.74,1.36a.54.54,0,0,1,0,1.08Z"/><path class="a" d="M53.15,103.2a3.11,3.11,0,0,1-.79-.1c-2.68-.67-3.16-4.15-3.62-7.51-.41-3-.84-6.13-2.82-6.62s-3.78,2-5.54,4.52c-2,2.76-4,5.62-6.65,5s-3.16-4.15-3.61-7.52c-.42-3-.84-6.12-2.82-6.62s-3.78,2.06-5.53,4.53c-2,2.76-4,5.62-6.66,5S12,89.63,11.5,86.26c-.4-3-.83-6.12-2.8-6.61A.55.55,0,0,1,8.31,79,.54.54,0,0,1,9,78.6c2.68.67,3.15,4.15,3.61,7.52.41,3,.83,6.12,2.8,6.61s3.79-2.06,5.54-4.53c2-2.76,4-5.61,6.66-4.94s3.15,4.15,3.61,7.51c.41,3,.83,6.13,2.81,6.62s3.79-2.06,5.54-4.52c2-2.76,4-5.62,6.66-5s3.16,4.15,3.62,7.52c.41,3,.84,6.12,2.82,6.62s3.79-2.06,5.55-4.53c1.95-2.76,4-5.61,6.66-4.94a.54.54,0,0,1-.25,1c-2-.5-3.8,2-5.55,4.52S55.45,103.2,53.15,103.2Z"/><path class="a" d="M174.31,306.39h0a.55.55,0,0,1-.5-.57c.15-2.34-3-3.85-6-5.31-3.35-1.61-6.83-3.28-6.63-6.34s3.84-4.27,7.37-5.45c3.19-1.06,6.5-2.16,6.64-4.49s-3-3.84-6-5.29c-3.36-1.62-6.83-3.28-6.64-6.34s3.84-4.27,7.37-5.44c3.2-1.05,6.5-2.15,6.65-4.48s-3-3.83-6-5.29c-3.35-1.61-6.82-3.28-6.63-6.33s3.84-4.27,7.37-5.43c3.19-1.06,6.5-2.15,6.64-4.48a.5.5,0,0,1,.57-.5.53.53,0,0,1,.49.57c-.19,3.05-3.84,4.26-7.37,5.43-3.19,1.06-6.5,2.15-6.64,4.47s3,3.84,6,5.3c3.36,1.61,6.83,3.27,6.64,6.33s-3.84,4.27-7.37,5.44c-3.2,1.06-6.5,2.15-6.65,4.48s3,3.84,6,5.29c3.35,1.61,6.82,3.28,6.63,6.34s-3.84,4.27-7.37,5.44c-3.19,1.07-6.5,2.16-6.64,4.5s3,3.84,6,5.3c3.36,1.61,6.83,3.28,6.64,6.34A.54.54,0,0,1,174.31,306.39Z"/><path class="a" d="M234.93,69h0c-.94,0-1.3-1.07-1.59-1.89-.16-.47-.41-1.17-.63-1.17s-.52.66-.72,1.11c-.35.8-.81,1.79-1.74,1.76s-1.3-1.07-1.59-1.89c-.16-.46-.4-1.16-.63-1.17h0c-.23,0-.52.67-.72,1.12-.35.78-.78,1.75-1.68,1.75h-.06c-.94,0-1.3-1.06-1.59-1.89-.16-.46-.41-1.16-.63-1.17s-.53.67-.73,1.12c-.34.78-.77,1.75-1.68,1.75h0a.54.54,0,0,1-.52-.55.57.57,0,0,1,.56-.52h0c.23,0,.52-.67.72-1.12.35-.8.79-1.75,1.74-1.75s1.3,1.06,1.59,1.88c.16.47.41,1.17.64,1.18s.52-.67.72-1.12c.35-.8.79-1.77,1.73-1.76s1.31,1.07,1.6,1.89c.16.46.4,1.16.63,1.17h0c.23,0,.52-.67.72-1.11.35-.8.81-1.75,1.73-1.76S234,66,234.32,66.79c.16.46.41,1.16.63,1.17a.52.52,0,0,1,.51.56A.53.53,0,0,1,234.93,69Z"/><path class="a" d="M11.71,510.46a.55.55,0,0,1-.53-.47c-.15-1.15,1-1.81,2-2.39.72-.41,1.55-.88,1.49-1.31s-1-.67-1.78-.87c-1.13-.29-2.42-.62-2.57-1.78s1-1.81,2-2.39c.73-.41,1.55-.88,1.5-1.31s-1-.67-1.78-.88c-1.14-.28-2.42-.61-2.58-1.77s1-1.81,2-2.39c.72-.42,1.55-.89,1.49-1.32s-1-.67-1.78-.88c-1.14-.29-2.42-.62-2.57-1.77a.53.53,0,1,1,1.05-.15c.06.44,1,.67,1.78.88,1.13.29,2.42.62,2.57,1.78s-1,1.81-2,2.39c-.73.42-1.55.88-1.49,1.32s1,.66,1.78.87c1.13.29,2.42.62,2.57,1.77s-1,1.82-2,2.4c-.73.41-1.55.88-1.5,1.31s1,.67,1.78.87c1.14.29,2.42.62,2.58,1.78s-1,1.81-2,2.39c-.72.41-1.55.88-1.49,1.31a.54.54,0,0,1-.46.6Z"/><path class="a" d="M357.32,265.14a.43.43,0,0,1-.19,0,.53.53,0,0,1-.3-.69c.56-1.49,2.42-1.52,4.22-1.54,1.44,0,2.93,0,3.24-.85s-.79-1.84-1.85-2.83c-1.32-1.23-2.68-2.51-2.12-4s2.43-1.53,4.23-1.55c1.44,0,2.93,0,3.24-.85S367,251,365.94,250c-1.32-1.24-2.68-2.51-2.12-4s2.43-1.52,4.22-1.55c1.45,0,2.94,0,3.25-.85s-.79-1.85-1.85-2.84c-1.31-1.23-2.68-2.51-2.11-4a.53.53,0,0,1,.68-.31.54.54,0,0,1,.31.7c-.31.82.79,1.84,1.85,2.83,1.32,1.24,2.68,2.52,2.11,4s-2.42,1.52-4.22,1.55c-1.44,0-2.94,0-3.25.86s.79,1.84,1.85,2.83c1.32,1.23,2.69,2.51,2.12,4s-2.42,1.52-4.22,1.55c-1.44,0-2.94,0-3.25.85s.79,1.84,1.85,2.83c1.32,1.23,2.69,2.51,2.12,4s-2.42,1.52-4.22,1.54c-1.44,0-2.93,0-3.24.85A.53.53,0,0,1,357.32,265.14Z"/><path class="a" d="M42.78,221.45a.42.42,0,0,1-.22,0,.54.54,0,0,1-.27-.71l4.23-9.28-6.35,2.37a.51.51,0,0,1-.57-.14.53.53,0,0,1-.09-.59l5.24-11.52a.53.53,0,1,1,1,.45L41,212.32,47.36,210a.52.52,0,0,1,.57.14.53.53,0,0,1,.09.59l-4.76,10.46A.52.52,0,0,1,42.78,221.45Z"/><path class="a" d="M10.92,53.39a.46.46,0,0,1-.19,0,.54.54,0,0,1-.31-.69l1.67-4.55L9.71,49.22A.54.54,0,0,1,9,48.54l1.92-5.24a.53.53,0,0,1,.68-.32.55.55,0,0,1,.32.7l-1.48,4,2.38-1.11a.54.54,0,0,1,.72.68L11.42,53A.54.54,0,0,1,10.92,53.39Z"/><path class="a" d="M451.74,506.61a.45.45,0,0,1-.2,0,.55.55,0,0,1-.29-.7L463.15,477l-17.92,7.45a.53.53,0,0,1-.69-.7l11.26-27.28a.53.53,0,0,1,.69-.29.54.54,0,0,1,.29.71L446,483l17.93-7.45a.53.53,0,0,1,.57.12.54.54,0,0,1,.12.59l-12.4,30A.52.52,0,0,1,451.74,506.61Z"/><path class="a" d="M309.5,467.08a.54.54,0,0,1-.53-.51l-1.48-25.3L296,454.39a.53.53,0,0,1-.57.15.56.56,0,0,1-.36-.48l-1.71-29.28a.53.53,0,1,1,1.06-.06l1.64,28,11.51-13.12a.54.54,0,0,1,.57-.15.53.53,0,0,1,.36.48l1.56,26.6a.53.53,0,0,1-.5.57Z"/><path class="a" d="M42.3,395.07a.39.39,0,0,1-.15,0,.54.54,0,0,1-.36-.67l1.15-3.93-2.19,1.2a.51.51,0,0,1-.58,0A.56.56,0,0,1,40,391l1.67-5.7a.53.53,0,0,1,.66-.36.54.54,0,0,1,.36.67l-1.3,4.45,2.19-1.2a.52.52,0,0,1,.58.06.53.53,0,0,1,.18.57l-1.52,5.18A.53.53,0,0,1,42.3,395.07Z"/><path class="a" d="M133.43,172.75a.52.52,0,0,1-.42-.22L119,153.4l-2.39,16.28a.55.55,0,0,1-.39.45.54.54,0,0,1-.56-.21L99.36,147.71a.55.55,0,0,1,.11-.75.53.53,0,0,1,.75.11l15.51,21.17L118.12,152a.53.53,0,0,1,.4-.44.53.53,0,0,1,.55.2l14.79,20.18a.53.53,0,0,1-.11.75A.5.5,0,0,1,133.43,172.75Z"/><path class="a" d="M347.84,448.84a.78.78,0,0,1-.21,0,.56.56,0,0,1-.29-.71l6.87-16.42-10.07,4.13a.51.51,0,0,1-.57-.12.54.54,0,0,1-.11-.59l6.69-16a.53.53,0,0,1,.69-.29.56.56,0,0,1,.29.71l-6.19,14.81L355,430.19a.52.52,0,0,1,.58.12.55.55,0,0,1,.11.59l-7.36,17.61A.54.54,0,0,1,347.84,448.84Z"/><path class="a" d="M592.55,568.79a.32.32,0,0,1-.14,0,.53.53,0,0,1-.37-.66l2.86-10.43-5.58,3.19a.53.53,0,0,1-.59,0,.54.54,0,0,1-.18-.57l2.92-10.61a.53.53,0,0,1,.65-.38.55.55,0,0,1,.37.67l-2.57,9.36,5.58-3.19a.53.53,0,0,1,.59,0,.53.53,0,0,1,.18.57l-3.21,11.68A.53.53,0,0,1,592.55,568.79Z"/><path class="a" d="M587.9,440.15a.52.52,0,0,1-.24,0,.56.56,0,0,1-.24-.73l3.31-6.67-4.06,1.36a.51.51,0,0,1-.57-.16.55.55,0,0,1-.08-.59l3.53-7.12a.52.52,0,0,1,.71-.24.54.54,0,0,1,.24.72l-3,6,4.06-1.36a.53.53,0,0,1,.57.15.57.57,0,0,1,.08.6l-3.89,7.84A.53.53,0,0,1,587.9,440.15Z"/><path class="a" d="M199.34,100.2a.53.53,0,0,1-.47-.28l-7-13.1L189,96.56a.52.52,0,0,1-.46.38.53.53,0,0,1-.52-.28L179.62,81a.54.54,0,0,1,.21-.73.52.52,0,0,1,.72.22L188.34,95l2.86-9.74a.52.52,0,0,1,1-.1l7.64,14.23a.54.54,0,0,1-.22.73A.45.45,0,0,1,199.34,100.2Z"/><path class="a" d="M19.31,414.79a.53.53,0,0,1-.46-.26L15.05,408,14,412.26a.53.53,0,0,1-1,.14l-4.05-7a.54.54,0,0,1,.19-.73.53.53,0,0,1,.73.19l3.39,5.83,1.09-4.26a.53.53,0,0,1,.44-.4.53.53,0,0,1,.54.26L19.77,414a.54.54,0,0,1-.19.74A.5.5,0,0,1,19.31,414.79Z"/><path class="a" d="M423.37,196.35a.56.56,0,0,1-.32-.11.55.55,0,0,1-.1-.76l8.73-11.68-9.77,1.37a.53.53,0,0,1-.53-.26.55.55,0,0,1,0-.6l10.47-14a.52.52,0,0,1,.74-.11.55.55,0,0,1,.1.76l-9.69,13,9.77-1.37a.56.56,0,0,1,.53.26.54.54,0,0,1,0,.6l-9.51,12.72A.55.55,0,0,1,423.37,196.35Z"/><path class="a" d="M117.19,450.05a.52.52,0,0,1-.38-.16l-4.17-4.19v3.36a.53.53,0,0,1-.91.38l-4.61-4.64a.55.55,0,0,1,0-.76.54.54,0,0,1,.76,0l3.7,3.72V444.4a.53.53,0,0,1,.33-.49.52.52,0,0,1,.58.11l5.08,5.11a.55.55,0,0,1,0,.76A.52.52,0,0,1,117.19,450.05Z"/><path class="a" d="M163.3,570.89a.51.51,0,0,1-.44-.24l-2.9-4.47-.6,2.91a.52.52,0,0,1-.42.41.54.54,0,0,1-.55-.23l-3.27-5a.55.55,0,0,1,.15-.75.53.53,0,0,1,.74.16l2.57,4,.6-2.92a.53.53,0,0,1,1-.18l3.61,5.56a.54.54,0,0,1-.15.74A.58.58,0,0,1,163.3,570.89Z"/><path class="a" d="M145.4,500.27a.54.54,0,0,1-.37-.16l-17.68-18,0,17.54a.54.54,0,0,1-.33.5.53.53,0,0,1-.58-.12l-20.46-20.78a.55.55,0,0,1,0-.76.53.53,0,0,1,.75,0l19.55,19.86,0-17.54a.53.53,0,0,1,.91-.38l18.59,18.88a.54.54,0,0,1,0,.76A.57.57,0,0,1,145.4,500.27Z"/><path class="a" d="M216.18,598.79a.53.53,0,0,1-.42-.2.55.55,0,0,1,.09-.76l18.54-14.68-16.15-2a.54.54,0,0,1-.27-1l21.53-17a.53.53,0,0,1,.74.09.55.55,0,0,1-.09.76l-20.51,16.24,16.15,2a.54.54,0,0,1,.27,1L216.5,598.68A.48.48,0,0,1,216.18,598.79Z"/><path class="a" d="M29.18,594.14a.51.51,0,0,1-.42-.21l-9.25-12.45-1.32,9.44a.55.55,0,0,1-.4.45.53.53,0,0,1-.55-.2L8.13,578.92a.55.55,0,0,1,.11-.76.52.52,0,0,1,.74.11l8.33,11.21L18.64,580a.53.53,0,0,1,.95-.25l10,13.49a.53.53,0,0,1-.11.75A.46.46,0,0,1,29.18,594.14Z"/><path class="a" d="M479.58,304.75a.55.55,0,0,1-.42-.2.54.54,0,0,1,.08-.75l19.18-15.74-15.32-1.62a.55.55,0,0,1-.46-.38.53.53,0,0,1,.18-.57l18.33-15.05a.54.54,0,0,1,.75.08.55.55,0,0,1-.08.76L484.49,285.5l15.32,1.62a.52.52,0,0,1,.45.38.53.53,0,0,1-.17.57l-20.18,16.56A.52.52,0,0,1,479.58,304.75Z"/><path class="a" d="M499.17,199.51a.54.54,0,0,1-.53-.52l-.41-14.67-6.08,6.52a.53.53,0,0,1-.92-.36l-.41-14.5a.55.55,0,0,1,.52-.56.57.57,0,0,1,.55.53l.37,13.2,6.08-6.51a.53.53,0,0,1,.58-.13.53.53,0,0,1,.34.48l.44,16a.53.53,0,0,1-.51.55Z"/><path class="a" d="M71.6,596a.52.52,0,0,1-.21,0l-6.56-2.88a.54.54,0,0,1,.43-1l5.37,2.36L69.25,591a.55.55,0,0,1,.12-.59.54.54,0,0,1,.59-.1l7.21,3.16a.55.55,0,0,1,.28.71.54.54,0,0,1-.7.28l-6-2.65,1.38,3.55a.54.54,0,0,1-.12.58A.53.53,0,0,1,71.6,596Z"/><path class="a" d="M408.08,19.43H408a.54.54,0,0,1-.44-.62L409,10.51l-4.49,3.21a.53.53,0,0,1-.59,0,.55.55,0,0,1-.24-.55l1.79-10.53a.53.53,0,0,1,.61-.44.54.54,0,0,1,.44.62l-1.57,9.25,4.49-3.21a.53.53,0,0,1,.83.53L408.6,19A.53.53,0,0,1,408.08,19.43Z"/><path class="a" d="M434.55,44.72a.57.57,0,0,1-.22,0l-6.95-3.07a.54.54,0,0,1,.43-1l5.77,2.55-1.31-3.38a.53.53,0,0,1,.13-.58.52.52,0,0,1,.58-.11l6.32,2.79a.54.54,0,0,1,.27.71.53.53,0,0,1-.7.27l-5.14-2.26L435,44a.54.54,0,0,1-.12.58A.55.55,0,0,1,434.55,44.72Z"/><path class="a" d="M475.16,123.73a.54.54,0,0,1,0-1.07l25.52-1.53L488.71,110.4a.55.55,0,0,1-.15-.58.54.54,0,0,1,.48-.36L513.39,108a.54.54,0,0,1,.06,1.07l-23.07,1.39,11.94,10.72a.55.55,0,0,1,.15.58.52.52,0,0,1-.47.36l-26.81,1.61Z"/><path class="a" d="M584.68,125.52a.34.34,0,0,1-.14,0,.53.53,0,0,1-.37-.66l6.06-22-13.6,7.77a.53.53,0,0,1-.59,0,.55.55,0,0,1-.19-.57l7-25.65a.53.53,0,1,1,1,.28L577.22,109l13.6-7.78a.53.53,0,0,1,.59.05.52.52,0,0,1,.18.56l-6.4,23.31A.52.52,0,0,1,584.68,125.52Z"/><path class="a" d="M478.63,440.54a.57.57,0,0,1-.25-.06l-5.54-2.9a.53.53,0,0,1-.22-.72.51.51,0,0,1,.71-.23l4.4,2.29-.83-2.62a.54.54,0,0,1,.76-.64l5,2.63a.54.54,0,0,1,.23.72.53.53,0,0,1-.72.23l-3.89-2,.83,2.62a.55.55,0,0,1-.51.71Z"/><path class="a" d="M563.9,562.45h-.13a.54.54,0,0,1-.39-.65l7.15-29.7-16.19,10a.53.53,0,0,1-.59,0,.55.55,0,0,1-.2-.56l6.77-28.12a.53.53,0,1,1,1,.25l-6.46,26.86,16.18-10a.53.53,0,0,1,.59,0,.51.51,0,0,1,.2.56L564.41,562A.51.51,0,0,1,563.9,562.45Z"/><path class="a" d="M326,260.83h0l-8.19-.43a.53.53,0,0,1-.5-.56.51.51,0,0,1,.56-.51l6.91.36-3-3.4a.53.53,0,0,1-.08-.59.49.49,0,0,1,.5-.3l9,.47a.52.52,0,0,1,.5.56.49.49,0,0,1-.55.51l-7.74-.4,3,3.39a.55.55,0,0,1,.08.59A.53.53,0,0,1,326,260.83Z"/><path class="a" d="M510.38,594.9a.54.54,0,0,1-.45-.25l-2.69-4.36-.72,3.17a.55.55,0,0,1-.43.41.51.51,0,0,1-.54-.25l-3.72-6a.54.54,0,0,1,.17-.74.53.53,0,0,1,.74.17l3,4.9.72-3.17a.55.55,0,0,1,.43-.41.51.51,0,0,1,.54.25l3.37,5.45a.55.55,0,0,1-.17.75A.54.54,0,0,1,510.38,594.9Z"/><path class="a" d="M105.09,196.05a.54.54,0,0,1-.53-.49l-.47-5.43-2.21,2.66a.52.52,0,0,1-.56.17.54.54,0,0,1-.37-.47l-.65-7.4a.54.54,0,0,1,.48-.59.55.55,0,0,1,.58.49l.53,6.11,2.21-2.66a.52.52,0,0,1,.57-.17.55.55,0,0,1,.37.47l.58,6.72a.54.54,0,0,1-.48.59Z"/><path class="a" d="M47.54,154.38a.53.53,0,0,1-.48-.3.54.54,0,0,1,.24-.72l19.83-10-14.5-4.91a.54.54,0,0,1-.36-.48.52.52,0,0,1,.29-.51l23.1-11.65a.53.53,0,0,1,.71.25.55.55,0,0,1-.24.72L54.19,137.84l14.5,4.91a.56.56,0,0,1,.36.47.53.53,0,0,1-.3.52l-21,10.58A.46.46,0,0,1,47.54,154.38Z"/><path class="a" d="M288.71,16.83a.52.52,0,0,1-.52-.49L287.67,10l-2.32,2.77a.53.53,0,0,1-.57.16.54.54,0,0,1-.37-.47l-.56-6.95a.53.53,0,1,1,1.06-.09l.46,5.66,2.32-2.77a.51.51,0,0,1,.57-.16.53.53,0,0,1,.37.46l.61,7.66a.52.52,0,0,1-.48.58Z"/><path class="a" d="M309.3,145.6a.51.51,0,0,1-.35-.13.55.55,0,0,1-.06-.76l5.31-6.32-4.79.4a.56.56,0,0,1-.52-.29.55.55,0,0,1,.07-.6l5.58-6.64a.53.53,0,0,1,.75-.06.55.55,0,0,1,.06.76l-4.75,5.65,4.79-.39a.53.53,0,0,1,.52.29.53.53,0,0,1-.07.59l-6.14,7.31A.5.5,0,0,1,309.3,145.6Z"/><path class="a" d="M172.06,347.45a.54.54,0,0,1-.51-.39l-2.24-7.83-2.57,4.71a.53.53,0,0,1-.52.28.55.55,0,0,1-.45-.39l-2.86-10a.54.54,0,0,1,.37-.67.53.53,0,0,1,.65.37l2.5,8.74,2.57-4.71a.53.53,0,0,1,1,.11l2.59,9.08a.54.54,0,0,1-.36.67Z"/><path class="a" d="M524.74,300.72a.54.54,0,0,1-.16-1.05l5.47-1.73-2.85-1.52a.53.53,0,0,1-.28-.52.54.54,0,0,1,.37-.47l6.08-1.92a.53.53,0,0,1,.67.35.54.54,0,0,1-.35.68l-4.86,1.53,2.86,1.52a.53.53,0,0,1,.28.52.55.55,0,0,1-.37.47l-6.7,2.12Z"/><path class="a" d="M308.13,355.44a.52.52,0,0,1-.29-.09l-7-4.59a.53.53,0,0,1-.16-.74.53.53,0,0,1,.74-.16l5.95,3.88-.87-4a.55.55,0,0,1,.22-.56.53.53,0,0,1,.59,0l6.39,4.17a.54.54,0,0,1,.16.74.53.53,0,0,1-.74.16l-5.31-3.46.87,4a.55.55,0,0,1-.22.56A.57.57,0,0,1,308.13,355.44Z"/><path class="a" d="M588,61.88a.57.57,0,0,1-.18,0,.55.55,0,0,1-.32-.69l4-10.92-7,3.29a.52.52,0,0,1-.59-.09.54.54,0,0,1-.13-.58L588.6,39.5a.53.53,0,0,1,1,.38L585.19,52l7-3.29a.54.54,0,0,1,.72.68l-4.41,12.13A.53.53,0,0,1,588,61.88Z"/><path class="a" d="M8.72,311.58l-.15,0a.53.53,0,0,1-.36-.66l1.19-4.25L7,308a.51.51,0,0,1-.59-.05.52.52,0,0,1-.18-.56L8,301.3a.51.51,0,0,1,.65-.37.53.53,0,0,1,.37.66L7.64,306.4,10,305.07a.53.53,0,0,1,.59,0,.54.54,0,0,1,.18.57l-1.55,5.5A.54.54,0,0,1,8.72,311.58Z"/><path class="a" d="M423.09,540l-.17,0a.54.54,0,0,1-.33-.68l6.29-18.63-12,6a.54.54,0,0,1-.74-.66l7.38-21.86a.53.53,0,0,1,.67-.33.54.54,0,0,1,.34.68l-7,20.63,12-6a.54.54,0,0,1,.74.66l-6.7,19.86A.55.55,0,0,1,423.09,540Z"/><path class="a" d="M315.46,317.42a.4.4,0,0,1-.15,0,.53.53,0,0,1-.36-.66l3.93-13.63-8.37,4.64a.51.51,0,0,1-.59-.05.55.55,0,0,1-.17-.57l4.72-16.37a.52.52,0,0,1,.66-.37.53.53,0,0,1,.36.67l-4.36,15.12,8.37-4.64a.53.53,0,0,1,.59.06.51.51,0,0,1,.17.57L316,317A.54.54,0,0,1,315.46,317.42Z"/><path class="a" d="M188.87,392.3a.55.55,0,0,1-.38-.92l19.39-19.92-19.16.15h0a.54.54,0,0,1-.38-.91l22.33-22.95a.53.53,0,0,1,.75,0,.55.55,0,0,1,0,.76l-21.43,22,19.16-.15h0a.54.54,0,0,1,.38.91l-20.29,20.85A.55.55,0,0,1,188.87,392.3Z"/><path class="a" d="M338.78,219a.54.54,0,0,1,0-1.07l4.69-.31-2.22-2a.54.54,0,0,1,.31-.94l6.58-.44a.53.53,0,0,1,.56.5.54.54,0,0,1-.49.58l-5.29.35,2.21,2a.58.58,0,0,1,.16.58.55.55,0,0,1-.47.37l-6,.39Z"/><path class="a" d="M79.53,24.8a.54.54,0,0,1-.51-.38L75,12l-4,7.93a.55.55,0,0,1-.52.3.54.54,0,0,1-.46-.37L65.17,4.72A.54.54,0,0,1,65.51,4a.53.53,0,0,1,.67.34l4.47,13.86,4-7.94a.51.51,0,0,1,.52-.29.54.54,0,0,1,.46.37L80,24.09a.53.53,0,0,1-.34.68A.45.45,0,0,1,79.53,24.8Z"/><path class="a" d="M289.77,561.64a.54.54,0,0,1-.21-1l4.87-2.13-2.74-1.1a.54.54,0,0,1-.34-.49.55.55,0,0,1,.32-.51l5.49-2.4a.53.53,0,0,1,.7.28.54.54,0,0,1-.27.71l-4.32,1.89L296,558a.54.54,0,0,1,.34.5.56.56,0,0,1-.32.5l-6,2.65A.52.52,0,0,1,289.77,561.64Z"/><path class="a" d="M389,181.39a.51.51,0,0,1-.33-.11.56.56,0,0,1-.1-.76L406,157.75,388.33,160a.53.53,0,0,1-.53-.26.57.57,0,0,1,0-.6l16.58-21.63a.53.53,0,0,1,.74-.09.54.54,0,0,1,.1.75l-15.79,20.6,17.7-2.26a.53.53,0,0,1,.53.26.55.55,0,0,1,0,.6l-18.24,23.8A.54.54,0,0,1,389,181.39Z"/><path class="a" d="M193.92,11.23a.54.54,0,0,1,0-1.07l8.71-.12L198.49,6a.54.54,0,0,1,.36-.93l11-.14h0a.54.54,0,0,1,0,1.07l-9.72.13,4.15,4.09a.54.54,0,0,1,.12.58.53.53,0,0,1-.49.34l-10,.13Z"/><path class="a" d="M340.15,28.28a.57.57,0,0,1-.18,0L310.39,17.62a.53.53,0,1,1,.35-1L339.11,26.8,331,9.55a.55.55,0,0,1,.08-.59.53.53,0,0,1,.58-.15l26.87,9.65a.54.54,0,0,1,.32.69.52.52,0,0,1-.67.33l-25.67-9.22,8.12,17.25a.54.54,0,0,1-.09.59A.55.55,0,0,1,340.15,28.28Z"/><path class="a" d="M25.59,268a.56.56,0,0,1-.32-.11L.35,249.27a.54.54,0,0,1-.12-.75.53.53,0,0,1,.75-.11l23.89,17.82-3.08-20.62a.53.53,0,0,1,.84-.52l27.43,20.46a.55.55,0,0,1,.12.76.53.53,0,0,1-.75.11L23,246.73l3.08,20.62a.52.52,0,0,1-.25.54A.53.53,0,0,1,25.59,268Z"/><path class="a" d="M402.4,600a.56.56,0,0,1-.51-.37.54.54,0,0,1,.35-.68l16.22-5.28-9.33-4.84a.53.53,0,0,1-.29-.53.55.55,0,0,1,.37-.47l15.84-5.16a.54.54,0,0,1,.33,1l-14.63,4.76,9.33,4.84a.55.55,0,0,1,.29.53.53.53,0,0,1-.37.46L402.56,600A.45.45,0,0,1,402.4,600Z"/><path class="a" d="M531.23,194a.53.53,0,0,1-.51-.38L527,181.07l-4.11,7.82a.56.56,0,0,1-.52.29.55.55,0,0,1-.46-.38l-4.56-15.13a.54.54,0,0,1,.35-.67.55.55,0,0,1,.67.36l4.18,13.88,4.12-7.82a.55.55,0,0,1,.52-.28.52.52,0,0,1,.45.38l4.15,13.74a.55.55,0,0,1-.36.67Z"/><path class="a" d="M239.44,171.68a.54.54,0,0,1-.52-.42l-6.1-27.17-9.18,14.75a.53.53,0,0,1-1-.17l-5.8-25.83a.53.53,0,0,1,.4-.64.52.52,0,0,1,.64.4l5.51,24.57,9.19-14.75a.52.52,0,0,1,1,.17L240,171a.56.56,0,0,1-.4.65Z"/><path class="a" d="M221.63,211.09h0a.54.54,0,0,1-.49-.58l.64-8.36-3.69,3.2a.53.53,0,0,1-.88-.45l.68-8.78a.53.53,0,1,1,1.06.09l-.58,7.48,3.7-3.2a.53.53,0,0,1,.59-.07.52.52,0,0,1,.28.52l-.74,9.66A.53.53,0,0,1,221.63,211.09Z"/><path class="a" d="M341.43,135.8a.48.48,0,0,1-.28-.08A.54.54,0,0,1,341,135l7.37-12.34-8.44,2.11a.54.54,0,0,1-.59-.8l7.3-12.23a.54.54,0,0,1,.73-.18.53.53,0,0,1,.18.74l-6.63,11.11,8.44-2.1a.51.51,0,0,1,.56.2.54.54,0,0,1,0,.6l-8,13.45A.52.52,0,0,1,341.43,135.8Z"/><path class="a" d="M184.82,131.53a.55.55,0,0,1-.33-.11l-4.91-3.92a.54.54,0,0,1-.09-.75.52.52,0,0,1,.75-.09l3.9,3.11-.32-2.75a.53.53,0,0,1,.86-.48l4.45,3.56a.54.54,0,0,1,.09.75.53.53,0,0,1-.75.09L185,128.19l.32,2.74a.53.53,0,0,1-.26.53A.48.48,0,0,1,184.82,131.53Z"/><path class="a" d="M43.4,62.86a.39.39,0,0,1-.18,0,.52.52,0,0,1-.31-.69l8.21-22.45-13.4,6.23a.54.54,0,0,1-.58-.09.56.56,0,0,1-.14-.59l7.87-21.5a.53.53,0,0,1,.68-.32.54.54,0,0,1,.32.69L38.45,44.39l13.39-6.23a.52.52,0,0,1,.58.09.53.53,0,0,1,.14.58L43.9,62.51A.54.54,0,0,1,43.4,62.86Z"/><path class="a" d="M387.9,366.78h0a.55.55,0,0,1-.51-.57l1.13-24.9-12.59,11.63a.53.53,0,0,1-.89-.42l1.3-28.85a.53.53,0,1,1,1.06.05l-1.24,27.55,12.59-11.63a.52.52,0,0,1,.58-.09.53.53,0,0,1,.31.51l-1.19,26.2A.53.53,0,0,1,387.9,366.78Z"/><path class="a" d="M198,445.92a.53.53,0,0,1-.53-.48l-2.59-24.1-10.38,13.07a.53.53,0,0,1-.94-.28l-3-27.95a.52.52,0,0,1,.47-.59.53.53,0,0,1,.58.47l2.87,26.66,10.38-13.07a.54.54,0,0,1,.95.28l2.73,25.4a.54.54,0,0,1-.47.59Z"/><path class="a" d="M569.87,237.11a.53.53,0,0,1-.51-.37l-5.31-16.23L558.85,231a.53.53,0,0,1-.51.3.54.54,0,0,1-.47-.37l-6.29-19.23a.55.55,0,0,1,.34-.68.53.53,0,0,1,.67.35l5.89,18,5.2-10.47a.52.52,0,0,1,1,.08l5.72,17.46a.54.54,0,0,1-.34.68A.45.45,0,0,1,569.87,237.11Z"/><path class="a" d="M184.62,54.1a.54.54,0,0,1-.11-1.06l12.11-2.69-7.06-4.58a.51.51,0,0,1-.24-.54.55.55,0,0,1,.41-.44l14.71-3.25a.53.53,0,0,1,.63.41.54.54,0,0,1-.4.64l-13.46,3,7.06,4.58a.53.53,0,0,1,.24.55.55.55,0,0,1-.41.43l-13.36,3Z"/><path class="a" d="M410.9,374.89a.55.55,0,0,1-.53-.47.53.53,0,0,1,.46-.6l31.6-4.05-15.8-12.4a.52.52,0,0,1-.19-.56.53.53,0,0,1,.45-.4l29.86-3.82a.53.53,0,0,1,.59.47.54.54,0,0,1-.46.6l-28.59,3.66,15.81,12.4a.55.55,0,0,1-.26,1L411,374.88Z"/><path class="a" d="M334,484.31a.51.51,0,0,1-.36-.15.54.54,0,0,1,0-.76l3.1-3.37-2.46.09a.53.53,0,0,1-.51-.32.54.54,0,0,1,.1-.59l3.61-3.93a.53.53,0,0,1,.75,0,.54.54,0,0,1,0,.76l-2.74,3,2.47-.09a.55.55,0,0,1,.41.91l-4,4.32A.51.51,0,0,1,334,484.31Z"/><path class="a" d="M367.41,548.12h-.13a.53.53,0,0,1-.38-.66l1.87-7.2-4.17,2.46a.53.53,0,0,1-.78-.6l2.42-9.31a.54.54,0,0,1,.65-.39.55.55,0,0,1,.38.66l-2.1,8,4.17-2.46a.54.54,0,0,1,.79.6l-2.2,8.46A.54.54,0,0,1,367.41,548.12Z"/><path class="a" d="M18.28,458.57a.53.53,0,0,1-.5-.35l-3.39-9.38-2.48,5.4a.54.54,0,0,1-.51.31.53.53,0,0,1-.47-.35l-3.49-9.63a.54.54,0,0,1,.32-.69.53.53,0,0,1,.68.32l3,8.41,2.48-5.4a.58.58,0,0,1,.5-.32.53.53,0,0,1,.48.36l3.84,10.6a.54.54,0,0,1-.31.69A.63.63,0,0,1,18.28,458.57Z"/><path class="a" d="M261.59,48.21h-.11L255,46.73a.54.54,0,0,1-.41-.64.54.54,0,0,1,.64-.41l5.26,1.18-1.61-2.56a.55.55,0,0,1,0-.6.51.51,0,0,1,.55-.21l5.91,1.33a.54.54,0,0,1,.41.64.53.53,0,0,1-.64.41l-4.66-1L262,47.38a.54.54,0,0,1,0,.6A.53.53,0,0,1,261.59,48.21Z"/><path class="a" d="M500.67,339.64a.59.59,0,0,1-.23-.05l-26.88-12.5a.53.53,0,0,1-.26-.71.53.53,0,0,1,.7-.27l25.72,12-6.82-18.63a.54.54,0,0,1,.14-.59.54.54,0,0,1,.58-.09l29.59,13.76a.53.53,0,0,1,.26.71.52.52,0,0,1-.7.26l-28.43-13.21,6.82,18.63a.54.54,0,0,1-.13.58A.51.51,0,0,1,500.67,339.64Z"/><path class="a" d="M459.8,550.37l-.14,0a.54.54,0,0,1-.37-.67L464,532.85l-10.32,5.87a.53.53,0,0,1-.59,0,.54.54,0,0,1-.18-.57l5.51-19.9a.54.54,0,1,1,1,.29l-5.17,18.65,10.32-5.87a.53.53,0,0,1,.59,0,.54.54,0,0,1,.18.57l-5,18.08A.53.53,0,0,1,459.8,550.37Z"/><path class="a" d="M229.67,536.81a.54.54,0,0,1-.5-.33.53.53,0,0,1,.3-.7l11.88-4.9-7.17-3.06a.54.54,0,0,1,0-1l11.88-4.9a.54.54,0,0,1,.4,1l-10.69,4.4,7.18,3.06a.54.54,0,0,1,.32.5.55.55,0,0,1-.33.5l-13.07,5.38A.51.51,0,0,1,229.67,536.81Z"/><path class="a" d="M399.77,412a.52.52,0,0,1-.39-.17l-17.58-19-.54,16.26a.56.56,0,0,1-.35.49.53.53,0,0,1-.57-.14l-16.77-18.15a.55.55,0,0,1,0-.76.53.53,0,0,1,.75,0l15.9,17.2.54-16.26a.53.53,0,0,1,.34-.49.55.55,0,0,1,.58.14l18.46,20a.55.55,0,0,1,0,.76A.51.51,0,0,1,399.77,412Z"/><path class="a" d="M492.42,254.81h0a.54.54,0,0,1-.51-.56l1-25.09L480.26,241a.54.54,0,0,1-.58.09.53.53,0,0,1-.31-.51l1.15-29a.54.54,0,0,1,.55-.52.54.54,0,0,1,.51.56l-1.1,27.74,12.62-11.78a.52.52,0,0,1,.59-.09.53.53,0,0,1,.3.51l-1,26.38A.53.53,0,0,1,492.42,254.81Z"/><path class="a" d="M508.71,151.26l-.13,0L497,148.3a.55.55,0,0,1-.38-.66.52.52,0,0,1,.64-.39l10.32,2.63-3.27-5.54a.54.54,0,0,1,.58-.8l10.51,2.68a.54.54,0,0,1,.38.65.52.52,0,0,1-.64.39l-9.26-2.35,3.27,5.53a.55.55,0,0,1,0,.6A.53.53,0,0,1,508.71,151.26Z"/><path class="a" d="M559.94,459.41a.45.45,0,0,1-.16,0,.53.53,0,0,1-.35-.67l1.27-4.22-2.39,1.29a.53.53,0,0,1-.59-.06.56.56,0,0,1-.17-.57l1.82-6a.53.53,0,1,1,1,.32L559,454.22l2.39-1.29a.53.53,0,0,1,.59.06.55.55,0,0,1,.17.57L560.45,459A.53.53,0,0,1,559.94,459.41Z"/></svg>