<svg width="88" height="33" viewBox="0 0 88 33" fill="none" xmlns="http://www.w3.org/2000/svg">
<g clip-path="url(#clip0_429_24576)">
<path d="M47.7984 20.2723C47.7984 22.9482 44.469 22.7897 44.469 22.7897H41.1389V17.9541H44.469C47.8958 17.9314 47.7984 20.2723 47.7984 20.2723ZM41.1389 10.5799H43.6761C46.3115 10.72 46.2119 12.6812 46.2119 12.6812C46.2119 15.1189 43.2985 15.1587 43.2985 15.1587H41.1389V10.5806V10.5799ZM47.1833 16.1095C47.1833 16.1095 49.4617 15.1388 49.4418 12.5625C49.4418 12.5625 49.7881 8.3406 44.1945 7.82575H37.9879V25.5246H45.1033C45.1033 25.5246 51.0482 25.5424 51.0482 20.5305C51.0482 20.5305 51.1883 17.12 47.1833 16.1095ZM31.1186 4.35767H57.2512V28.9827H31.12V4.35767H31.1186ZM17.6644 20.2723C17.6644 22.9482 14.3342 22.7897 14.3342 22.7897H11.0041V17.9541H14.3342C17.7618 17.9314 17.6637 20.2723 17.6637 20.2723H17.6644ZM11.0041 10.5799H13.5421C16.1767 10.72 16.0772 12.6812 16.0772 12.6812C16.0772 15.1189 13.1637 15.1587 13.1637 15.1587H11.0041V10.5806V10.5799ZM17.0485 16.1095C17.0485 16.1095 19.3277 15.1388 19.307 12.5625C19.307 12.5625 19.6541 8.3406 14.0605 7.82575H7.85245V25.5246H14.9678C14.9678 25.5246 20.9127 25.5424 20.9127 20.5305C20.9127 20.5305 21.0528 17.12 17.0485 16.1095ZM0.985966 4.35767H27.1179V28.9827H0.985966V4.35767ZM82.0548 9.09438V12.3641C82.0548 12.3641 78.8633 10.4028 75.3362 10.3637C75.3362 10.3637 68.7556 10.2343 68.4597 16.6713C68.4597 16.6713 68.2215 22.5906 75.2565 22.9276C75.2565 22.9276 78.2084 23.2832 82.2133 20.7303V24.1159C82.2133 24.1159 76.8416 27.3081 70.6187 24.8498C70.6187 24.8498 65.3877 22.9397 65.1879 16.6713C65.1879 16.6713 64.9703 10.2243 71.947 8.08389C71.947 8.08389 73.8101 7.37064 77.1581 7.6878C77.1581 7.6878 79.1591 7.88549 82.0548 9.09438ZM61.2541 28.9834H87.3853V4.35767H61.2541V28.9827V28.9834Z" fill="#8F95B3"/>
</g>
<defs>
<clipPath id="clip0_429_24576">
<rect width="86.7556" height="32" fill="white" transform="translate(0.986023 0.802246)"/>
</clipPath>
</defs>
</svg>
