<svg width="77" height="33" viewBox="0 0 77 33" fill="none" xmlns="http://www.w3.org/2000/svg">
<g clip-path="url(#clip0_429_24563)">
<path d="M66.3208 14.911C65.0372 15.2046 61.6474 15.3675 61.6474 15.3675L61.2307 16.6937C61.2307 16.6937 62.9089 16.5522 64.1377 16.6724C64.1377 16.6724 64.5331 16.6397 64.5764 17.1062C64.5985 17.5847 64.5437 18.0846 64.5437 18.0846C64.5437 18.0846 64.511 18.3783 64.105 18.4544C63.6335 18.5305 60.452 18.672 60.452 18.672L59.9364 20.3894C59.9364 20.3894 59.7494 20.7805 60.1782 20.6717C60.5722 20.5629 63.9073 19.9321 64.346 20.0196C64.8068 20.1284 65.3338 20.7591 65.1802 21.3238C65.0045 22.0086 61.6694 24.117 59.6513 23.9762C59.6513 23.9762 58.5868 24.0409 57.6979 22.6173C56.8424 21.259 57.9944 18.7047 57.9944 18.7047C57.9944 18.7047 57.4788 17.5086 57.8628 17.0742C57.8628 17.0742 58.0819 16.8893 58.7404 16.8352L59.5631 15.1613C59.5631 15.1613 58.6308 15.2153 58.0819 14.5419C57.577 13.8898 57.5343 13.6068 57.929 13.4326C58.3457 13.2157 62.207 12.5309 64.8623 12.6176C64.8623 12.6176 65.7939 12.5095 66.6173 14.1067C66.6173 14.1067 66.9907 14.7588 66.3322 14.911H66.3208ZM56.3155 21.3458C55.9869 22.1387 55.076 22.9757 53.9795 22.4651C52.8602 21.9431 51.0938 18.3783 51.0938 18.3783C51.0938 18.3783 50.436 17.0521 50.3044 17.0962C50.3044 17.0962 50.1615 16.8352 50.084 18.2909C49.9752 19.7373 50.1068 22.5518 49.503 22.9977C48.9548 23.4322 48.2963 23.2473 47.9236 22.7367C47.6164 22.2262 47.4849 20.9981 47.6605 18.8569C47.8575 16.7158 48.351 14.4331 48.9761 13.7262C49.6346 13.0094 50.1615 13.5307 50.3592 13.7262C50.3592 13.7262 51.204 14.4871 52.6298 16.7371L52.8716 17.1495C52.8716 17.1495 54.1658 19.2914 54.2973 19.2807C54.2973 19.2807 54.4068 19.3888 54.495 19.3021C54.6266 19.2694 54.5825 18.5739 54.5825 18.5739C54.5825 18.5739 54.3407 16.2592 53.1347 12.346C53.1347 12.346 52.959 11.8461 53.0792 11.3682C53.1894 10.933 53.6609 11.1506 53.6609 11.1506C53.6609 11.1506 55.482 12.0203 56.3702 14.955C57.2484 17.8891 56.6561 20.5515 56.3276 21.3458H56.3162H56.3155ZM47.3868 13.8137C47.2111 14.1181 47.1343 14.5419 46.377 14.6614C46.377 14.6614 39.0269 15.1719 38.665 15.6832C38.665 15.6832 38.4232 15.9876 38.8186 16.0637C39.2353 16.1504 40.9028 16.3673 41.6929 16.4114C42.5484 16.4114 45.4227 16.4327 46.4758 17.7156C46.4758 17.7156 47.0796 18.3243 47.0575 19.7046C47.0362 21.1175 46.783 21.6174 46.2234 22.128C45.6424 22.6066 40.6618 24.8231 37.4468 21.4326C37.4468 21.4326 35.977 19.802 37.9631 18.5632C37.9631 18.5632 39.3889 17.6935 43.0419 18.7047C43.0419 18.7047 44.1391 19.0958 44.095 19.4976C44.0296 19.9328 43.1848 20.3673 41.956 20.3453C40.7713 20.3133 39.8938 19.7479 40.0694 19.8454C40.2337 19.9001 38.7859 19.1499 38.3357 19.6605C37.897 20.139 38.0065 20.4214 38.4452 20.715C39.5425 21.3458 43.854 21.1175 45.1375 19.6932C45.1375 19.6932 45.6531 19.1172 44.8744 18.65C44.1064 18.2155 41.8685 17.9438 41.0017 17.9104C40.1789 17.8678 37.0963 17.9104 36.6355 17.1175C36.6355 17.1175 36.1967 16.5522 36.6796 15.0091C37.1844 13.3785 40.7713 12.7478 42.3293 12.6176C42.3293 12.6176 46.6074 12.4441 47.4088 13.3138C47.4088 13.3138 47.5183 13.5094 47.3868 13.8023V13.8137ZM35.2524 23.3675C34.7368 23.7472 33.6396 23.5844 33.3217 23.1499C33.0145 22.7694 32.905 21.2697 32.959 18.911C33.0365 16.4982 33.0692 13.5421 33.6175 13.0635C34.1665 12.5963 34.4957 13.0094 34.7148 13.3245C34.9345 13.6502 35.2196 14.0093 35.2637 14.7588C35.3292 15.5197 35.5155 19.4329 35.5155 19.4329C35.5155 19.4329 35.7572 22.9977 35.263 23.3675H35.2524ZM36.3496 10.6507C34.8349 11.1613 33.8038 10.9991 32.9263 10.618C32.5423 11.3028 32.3126 11.509 32.0268 11.5531C31.588 11.5958 31.204 10.901 31.1492 10.6834C31.0618 10.5198 30.8534 10.2269 31.1052 9.56411C30.2497 8.80322 30.1843 7.78136 30.3372 7.09656C30.5348 6.293 31.9834 3.27078 36.3716 2.91238C36.3716 2.91238 38.5213 2.7602 38.8947 3.89015H38.9608C38.9608 3.89015 41.0444 3.89015 41.001 5.73833C41.001 7.5858 38.697 9.8898 36.3496 10.6834V10.6507ZM38.3023 5.38989C36.9199 5.60749 34.7916 7.43362 33.7711 8.94402C35.3398 9.22704 38.0826 9.11824 39.3114 6.66135C39.3114 6.66135 39.8931 5.11824 38.3016 5.38989H38.3023ZM32.2351 6.58598C31.7964 7.29211 31.775 7.71664 31.9834 7.99896C32.4989 7.23807 33.4092 6.04269 34.7809 5.10758C33.7277 5.21638 32.8388 5.65087 32.2351 6.58598ZM69.6125 23.2907C68.6028 25.7476 67.7473 28.2365 67.2538 31.9641C67.2538 31.9641 67.1443 32.6923 66.5405 32.4534C65.9368 32.2358 64.9498 31.258 64.73 29.8777C64.511 28.0729 65.3231 25.0301 66.9793 21.5307C66.4964 20.7698 66.1565 19.6391 66.431 18.0526C66.431 18.0526 66.8698 15.1179 69.8316 12.4654C69.8316 12.4654 70.1828 12.1725 70.3805 12.2699C70.6216 12.3787 70.5228 13.3138 70.3251 13.7917C70.1501 14.2482 68.8332 16.5088 68.8332 16.5088C68.8332 16.5088 68.0104 18.0519 68.2408 19.2587C69.7981 16.8893 73.3423 12.0857 75.5361 13.6068C76.9299 14.5853 76.9299 17.7369 75.8874 19.563C75.0646 21.0087 72.7386 23.9975 69.6346 23.3021L69.6125 23.2914V23.2907ZM74.1978 15.9108C73.3864 16.7805 71.9379 18.4331 70.7972 20.6717C72.004 20.5415 73.178 19.8781 73.54 19.541C74.121 19.0304 75.4593 17.6502 75.2509 15.824C75.2509 15.824 75.1194 14.8676 74.1978 15.9108ZM25.0501 24.5735C21.166 25.7469 17.5023 25.2036 15.5055 24.6823C15.4508 25.4859 15.3633 25.8237 15.231 25.9538C15.0774 26.128 13.8045 26.8448 13.1027 25.8237C12.7955 25.3344 12.6419 24.4541 12.5544 23.6498C8.05663 21.6281 5.97165 18.6507 5.90552 18.5412C5.79672 18.4331 4.77627 17.3785 5.79672 16.0736C6.75103 14.9003 9.91049 13.7156 12.7407 13.2484C12.8502 10.8569 13.114 9.01015 13.454 8.19451C13.8593 7.21602 14.3756 8.08571 14.8364 8.7378C15.209 9.22704 15.4394 11.3248 15.4614 12.9981C17.3046 12.9113 18.4232 13.0414 20.4748 13.4333C23.1741 13.8898 24.9732 15.2587 24.8303 16.8025C24.6988 18.3243 23.2943 18.9543 22.746 18.9977C22.1978 19.0411 21.3196 18.6393 21.3196 18.6393C20.7052 18.3563 21.2648 18.096 21.978 17.7917C22.7674 17.4112 22.5924 17.0308 22.5924 17.0308C22.3073 16.1611 18.8072 15.5851 15.3299 15.5851C15.3299 17.4873 15.4067 20.639 15.4614 22.4758C17.897 22.9323 19.7181 22.8349 19.7181 22.8349C19.7181 22.8349 28.6042 22.5846 28.8559 16.9654C29.1311 11.3355 19.9706 5.94455 13.2236 4.24927C6.48721 2.49851 2.66996 3.73798 2.34072 3.90082C1.97805 4.07504 2.30801 4.14047 2.30801 4.14047C2.30801 4.14047 2.66996 4.19451 3.32774 4.41211C3.98623 4.62971 3.4593 4.9554 3.4593 4.9554C2.3073 5.34651 1.02445 5.11895 0.771296 4.597C0.519563 4.08571 0.936274 3.61851 1.42978 2.93371C1.89058 2.22758 2.41752 2.24891 2.41752 2.24891C10.7553 -0.630378 20.9356 4.53229 20.9356 4.53229C30.458 9.29318 32.0815 14.8903 31.9066 17.0642C31.753 19.2046 30.9188 22.8242 25.0501 24.5849V24.5742V24.5735ZM6.72898 16.8025C5.78534 17.237 6.44383 17.9332 6.44383 17.9332C8.22089 19.8134 10.3933 20.9981 12.4776 21.7369C12.7194 18.4765 12.6966 17.3138 12.6966 15.6718C9.47174 15.8894 7.60649 16.4114 6.72898 16.8025Z" fill="#8F95B3"/>
</g>
<defs>
<clipPath id="clip0_429_24563">
<rect width="76.0889" height="32" fill="white" transform="translate(0.696045 0.934082)"/>
</clipPath>
</defs>
</svg>
