<svg width="80" height="33" viewBox="0 0 80 33" fill="none" xmlns="http://www.w3.org/2000/svg">
<g clip-path="url(#clip0_429_24558)">
<path d="M9.7906 3.0675H10.4932C12.9302 3.12155 15.3273 4.12279 17.0489 5.89417C16.4132 6.55693 15.7639 7.19266 15.1417 7.85542C14.1746 6.96297 13.0084 6.27319 11.7376 6.02999C9.85744 5.62466 7.83078 5.98946 6.25495 7.08457C4.53335 8.23444 3.36784 10.1822 3.11611 12.265C2.83806 14.3201 3.40766 16.4847 4.71895 18.0805C5.97691 19.6364 7.89762 20.6099 9.88375 20.6775C11.7376 20.7855 13.6718 20.2039 15.0222 18.8783C16.0818 17.9454 16.5725 16.5253 16.731 15.1457C14.5323 15.1457 12.3342 15.1592 10.1355 15.1457V12.3596H19.3927C19.8692 15.3484 19.1808 18.7169 16.9558 20.8531C15.4731 22.3678 13.4201 23.2609 11.3273 23.4366C9.30064 23.6392 7.20855 23.2474 5.40731 22.2462C3.21808 21.0427 1.53835 19.0877 0.67842 16.7422C-0.114469 14.5903 -0.128691 12.1562 0.612998 9.99159C1.2964 8.01393 2.56711 6.29195 4.25531 5.05577C5.85744 3.85257 7.80375 3.18982 9.7906 3.0675ZM62.8992 3.77008H65.7337V23.0839C64.7929 23.0839 63.8393 23.0981 62.8992 23.0711C62.9127 16.6462 62.8992 10.2085 62.8992 3.77008ZM25.6974 10.4652C27.4454 10.1274 29.3398 10.5057 30.7833 11.5745C32.0939 12.521 33.0077 14.0087 33.2864 15.6321C33.6434 17.5116 33.194 19.5674 32.0014 21.0558C30.7172 22.7191 28.6109 23.6115 26.5586 23.4764C24.6777 23.3683 22.8502 22.4076 21.7373 20.8389C20.4786 19.108 20.175 16.7272 20.8626 14.6984C21.5524 12.521 23.4987 10.8577 25.6974 10.4652ZM26.095 13.0351C25.3644 13.229 24.7148 13.6507 24.2404 14.2391C22.9561 15.8078 23.035 18.3635 24.4523 19.8248C25.2601 20.6632 26.479 21.0551 27.6046 20.8254C28.65 20.6362 29.5645 19.9194 30.0679 18.9729C30.9426 17.363 30.6902 15.145 29.3526 13.8871C28.4921 13.0757 27.2334 12.7372 26.095 13.0351ZM39.7362 10.4652C41.7358 10.0734 43.9211 10.6408 45.418 12.0744C47.8542 14.3066 48.1188 18.4858 46.0395 21.0558C44.7808 22.6785 42.7421 23.571 40.7289 23.4764C38.8089 23.4223 36.9145 22.4488 35.776 20.8389C34.491 19.0675 34.213 16.6327 34.9412 14.5633C35.6701 12.4535 37.5773 10.8442 39.7355 10.4652H39.7362ZM40.133 13.0351C39.4062 13.2292 38.7581 13.6454 38.2791 14.2255C37.0077 15.7672 37.0603 18.2831 38.4249 19.7573C39.2327 20.6362 40.4907 21.0693 41.6562 20.8254C42.6894 20.6227 43.616 19.9194 44.1195 18.9729C44.9799 17.3495 44.7289 15.1315 43.3778 13.8743C42.5173 13.0622 41.2587 12.7372 40.133 13.0351ZM51.6416 11.2495C53.1648 10.2753 55.1915 10.0051 56.8327 10.8442C57.3504 11.0739 57.7742 11.4664 58.1838 11.8583C58.1981 11.4935 58.1838 11.1144 58.1981 10.7354C59.0848 10.7496 59.9723 10.7354 60.8718 10.7496V22.6785C60.8597 24.4776 60.4096 26.3841 59.1367 27.6961C57.7472 29.1432 55.6153 29.5898 53.6946 29.2926C51.6416 28.9811 49.8546 27.4529 49.0596 25.5187C49.8539 25.1262 50.688 24.8154 51.5093 24.4499C51.973 25.5592 52.9131 26.5064 54.0921 26.7226C55.2704 26.9388 56.635 26.6416 57.403 25.6403C58.2244 24.6127 58.2244 23.2062 58.1845 21.9482C57.5751 22.5569 56.8733 23.0981 56.0256 23.3007C54.1838 23.8284 52.1586 23.1791 50.7421 21.907C49.3113 20.6362 48.4637 18.675 48.5426 16.7272C48.5824 14.5228 49.8013 12.3994 51.6416 11.2495ZM54.3837 12.9811C53.5758 13.1162 52.8206 13.5763 52.3044 14.2113C51.0592 15.726 51.0592 18.1473 52.3172 19.635C53.0326 20.5146 54.1846 21.0017 55.2967 20.8794C56.3435 20.7713 57.3106 20.0951 57.8269 19.1621C58.7015 17.5791 58.555 15.4288 57.3767 14.0492C56.6478 13.1973 55.483 12.7784 54.3829 12.9811H54.3837ZM69.1371 11.9393C70.7264 10.4247 73.1762 9.91053 75.2157 10.7091C77.1492 11.4529 78.3808 13.3331 79.0037 15.2673C76.1294 16.4833 73.2693 17.6879 70.395 18.9047C70.7925 19.6762 71.402 20.3795 72.2226 20.6632C73.3753 21.0828 74.752 20.9335 75.7191 20.1491C76.1031 19.8519 76.4075 19.4593 76.699 19.081C77.4279 19.5809 78.1561 20.068 78.8843 20.5687C77.8517 22.1509 76.1166 23.2602 74.2493 23.4359C72.1828 23.6933 69.9847 22.8812 68.6471 21.2314C66.4484 18.6344 66.6603 14.2796 69.1371 11.9393ZM70.5543 14.4424C70.1035 15.1052 69.9186 15.9166 69.9314 16.7144C71.8521 15.9038 73.7721 15.0917 75.6928 14.2668C75.3749 13.5095 74.6069 13.0494 73.8254 12.9278C72.5668 12.6974 71.2562 13.3871 70.5543 14.4424Z" fill="#8F95B3"/>
</g>
<defs>
<clipPath id="clip0_429_24558">
<rect width="78.9333" height="32" fill="white" transform="translate(0.0697327 0.934082)"/>
</clipPath>
</defs>
</svg>
