<svg width="151" height="33" viewBox="0 0 151 33" fill="none" xmlns="http://www.w3.org/2000/svg">
<g clip-path="url(#clip0_429_24573)">
<path fill-rule="evenodd" clip-rule="evenodd" d="M0.827515 0.934082H16.0339V16.1405H0.827515V0.934082ZM53.7143 19.3654L52.8218 21.8955H52.7472C52.5187 21.0484 52.2285 20.2191 51.8789 19.4144L47.091 7.38386H42.4026V26.559H45.5031V14.7261C45.5031 13.9823 45.5031 13.1389 45.4789 12.0971C45.4629 11.786 45.4387 11.4754 45.4064 11.1655C45.3967 11.0708 45.3877 10.976 45.3793 10.8811H45.454C45.5627 11.4372 45.712 11.9845 45.9006 12.5188L51.6556 26.5092H53.8387L59.544 12.3943C59.6385 12.1483 59.7338 11.7131 59.8284 11.2779C59.8576 11.1435 59.8867 11.0098 59.9159 10.8818H59.9905C59.9297 12.0305 59.8799 13.1797 59.8412 14.3293V26.4843H63.1408V7.33408H58.6266L53.7143 19.3661V19.3654ZM66.2661 12.7421H69.491V26.4843H66.2661V12.7421ZM67.9038 6.93728C67.3577 6.93728 66.9111 7.13568 66.5392 7.4827C66.1673 7.83044 65.9688 8.27702 65.9688 8.82244C65.9688 9.34368 66.1673 9.78955 66.5392 10.1373C66.9111 10.4843 67.3577 10.6578 67.9038 10.6578C68.4492 10.6578 68.9207 10.4594 69.2677 10.1373C69.4505 9.97105 69.596 9.76787 69.6945 9.5412C69.7929 9.31453 69.8421 9.06954 69.8387 8.82244C69.8387 8.3019 69.6396 7.85533 69.2677 7.4827C68.9456 7.13568 68.4741 6.93728 67.9038 6.93728ZM80.9271 12.6176C80.3316 12.4905 79.7248 12.4241 79.1159 12.4192C77.6524 12.4192 76.3127 12.7421 75.1969 13.3863C74.0805 14.032 73.1873 14.9245 72.617 16.0409C72.0211 17.1823 71.7239 18.4971 71.7239 20.0103C71.7239 21.3245 72.0211 22.4907 72.5921 23.5574C73.1624 24.5991 73.956 25.4425 75.0227 26.0128C76.0403 26.5839 77.2307 26.8811 78.5704 26.8811C80.1086 26.8811 81.4227 26.559 82.4652 25.9638L82.4894 25.9389V22.9622L82.3657 23.0617C81.8942 23.4088 81.3488 23.706 80.8026 23.8795C80.2323 24.0786 79.7111 24.1782 79.2652 24.1782C77.9753 24.1782 76.9576 23.8055 76.2387 22.9871C75.4942 22.1927 75.1223 21.1012 75.1223 19.7373C75.1223 18.3236 75.4942 17.2071 76.2636 16.3879C77.0323 15.5702 78.0492 15.1478 79.2894 15.1478C80.3312 15.1478 81.3985 15.4955 82.3657 16.1903L82.4894 16.2898V13.1389L82.4652 13.114L82.4282 13.0991C82.0158 12.9284 81.5528 12.7385 80.9271 12.6176ZM91.5689 12.5181C90.7736 12.5116 90.0012 12.7838 89.3857 13.2875C88.8403 13.7341 88.4677 14.3791 88.1456 15.1478H88.1207V12.7421H84.8958V26.4843H88.1207V19.4642C88.1207 18.2738 88.3689 17.2811 88.9143 16.5622C89.4604 15.8176 90.1544 15.4457 90.9978 15.4457C91.1969 15.4457 91.3953 15.4791 91.6158 15.5154C91.726 15.5339 91.8419 15.5531 91.9656 15.5695C92.3127 15.669 92.5609 15.7686 92.7344 15.8923L92.8588 15.9919V12.767L92.7841 12.7421C92.5608 12.5927 92.1143 12.5188 91.5689 12.5188V12.5181ZM100.35 12.4441C98.0926 12.4441 96.2821 13.114 95.017 14.4281C93.7271 15.7437 93.107 17.5542 93.107 19.8361C93.107 21.9695 93.752 23.706 94.9921 24.9711C96.2323 26.2119 97.9191 26.8569 100.028 26.8569C102.236 26.8569 103.997 26.1871 105.262 24.8473C106.552 23.5076 107.172 21.722 107.172 19.514C107.172 17.3309 106.576 15.5943 105.361 14.33C104.195 13.0642 102.484 12.4441 100.35 12.4441ZM102.93 23.0112C102.334 23.7807 101.392 24.1526 100.226 24.1526C99.0604 24.1526 98.1175 23.7807 97.4476 22.9622C96.7777 22.1927 96.4556 21.077 96.4556 19.6626C96.4556 18.1991 96.8026 17.0827 97.4476 16.2891C98.1175 15.4955 99.0355 15.0987 100.201 15.0987C101.342 15.0987 102.236 15.4706 102.88 16.2393C103.525 17.0087 103.872 18.1245 103.872 19.5887C103.823 21.077 103.55 22.2425 102.93 23.0119V23.0112ZM114.366 18.4473C113.349 18.0256 112.704 17.7028 112.406 17.4304C112.158 17.1815 112.034 16.8345 112.034 16.3887C112.034 16.016 112.183 15.6441 112.554 15.3959C112.927 15.1478 113.349 15.024 113.969 15.024C114.514 15.024 115.085 15.1236 115.631 15.2722C116.176 15.4215 116.672 15.6441 117.069 15.9421L117.194 16.0416V13.0144L117.119 12.9903C116.644 12.8081 116.155 12.6668 115.656 12.5679C115.131 12.4759 114.6 12.4262 114.068 12.4192C112.53 12.4192 111.264 12.7911 110.272 13.6103C109.28 14.3791 108.809 15.4208 108.809 16.6361C108.809 17.2811 108.909 17.8521 109.131 18.3236C109.364 18.8206 109.703 19.2607 110.124 19.6128C110.57 19.9606 111.215 20.3574 112.109 20.7293C112.852 21.0521 113.423 21.3003 113.77 21.4987C114.117 21.6971 114.341 21.9204 114.514 22.0939C114.639 22.2923 114.713 22.5405 114.713 22.8626C114.713 23.7807 114.019 24.2272 112.604 24.2272C112.059 24.2272 111.488 24.1277 110.819 23.9044C110.173 23.6895 109.563 23.3804 109.007 22.9871L108.884 22.8875V26.0377L108.958 26.0626C109.429 26.2859 109.999 26.4345 110.694 26.6087C111.389 26.7325 112.009 26.832 112.554 26.832C114.217 26.832 115.581 26.4594 116.549 25.6409C117.541 24.8473 118.062 23.8304 118.062 22.5156C118.062 21.5983 117.814 20.7791 117.268 20.159C116.549 19.5638 115.656 18.943 114.366 18.4473ZM126.57 12.4441C124.313 12.4441 122.502 13.114 121.237 14.4281C119.972 15.7437 119.327 17.5542 119.327 19.8361C119.327 21.9695 119.972 23.706 121.212 24.9711C122.452 26.2119 124.139 26.8569 126.248 26.8569C128.456 26.8569 130.217 26.1871 131.482 24.8473C132.772 23.5076 133.392 21.722 133.392 19.514C133.392 17.3309 132.797 15.5943 131.581 14.33C130.415 13.0642 128.704 12.4441 126.57 12.4441ZM129.125 23.0112C128.53 23.7807 127.587 24.1526 126.421 24.1526C125.231 24.1526 124.313 23.7807 123.643 22.9622C122.974 22.1927 122.651 21.077 122.651 19.6626C122.651 18.1991 122.998 17.0827 123.643 16.2891C124.313 15.4955 125.231 15.0987 126.397 15.0987C127.513 15.0987 128.431 15.4706 129.076 16.2393C129.721 17.0087 130.068 18.1245 130.068 19.5887C130.068 21.077 129.746 22.2425 129.125 23.0119V23.0112ZM150.632 15.3959V12.7421H147.383V8.67382L147.284 8.6987L144.207 9.61604L144.133 9.64093V12.7414H139.271V11.0055C139.271 10.2119 139.469 9.59115 139.817 9.19435C140.164 8.79755 140.685 8.59915 141.33 8.59915C141.776 8.59915 142.248 8.6987 142.769 8.92199L142.893 8.99595V6.19275L142.819 6.16857C142.372 6.01924 141.776 5.91968 141.007 5.91968C140.04 5.91968 139.197 6.14368 138.428 6.51559C137.68 6.91629 137.067 7.5291 136.666 8.27702C136.244 9.02084 136.021 9.86422 136.021 10.832V12.7421H133.764V15.3711H136.021V26.4843H139.271V15.3959H144.133V22.4658C144.133 25.3686 145.497 26.832 148.226 26.832C148.673 26.832 149.144 26.7574 149.591 26.6827C150.062 26.5831 150.409 26.4594 150.607 26.3606L150.632 26.3357V23.6811L150.508 23.7807C150.304 23.9185 150.078 24.0193 149.839 24.0786C149.591 24.1526 149.367 24.1782 149.194 24.1782C148.549 24.1782 148.102 24.0288 147.779 23.6569C147.482 23.3092 147.333 22.7389 147.333 21.8955V15.3959H150.632ZM32.8275 0.934082H17.6211V16.1405H32.8275V0.934082ZM0.827515 17.7277H16.0339V32.9341H0.827515V17.7277ZM32.8275 17.7277H17.6211V32.9341H32.8275V17.7277Z" fill="#8F95B3"/>
</g>
<defs>
<clipPath id="clip0_429_24573">
<rect width="150.044" height="32" fill="white" transform="translate(0.827332 0.934082)"/>
</clipPath>
</defs>
</svg>
