<svg width="85" height="33" viewBox="0 0 85 33" fill="none" xmlns="http://www.w3.org/2000/svg">
<g clip-path="url(#clip0_429_24565)">
<path d="M12.2399 26.4985C10.9848 26.719 9.70694 26.7858 8.3857 26.9622L4.35725 15.1229V27.4706C3.10143 27.6029 1.95654 27.78 0.767563 27.9563V5.33801H4.11476L8.69503 18.1714V5.33801H12.2406V26.4985H12.2399ZM19.1761 13.621C20.5414 13.621 22.6335 13.5549 23.8886 13.5549V17.0891C22.3256 17.0891 20.4973 17.0891 19.1761 17.1553V22.4125C21.2461 22.2795 23.3162 22.1032 25.4083 22.0363V25.4383L15.6525 26.2113V5.33801H25.4083V8.87224H19.1761V13.621ZM38.5112 8.87224H34.8554V25.1289C33.6657 25.1289 32.4767 25.1289 31.3318 25.173V8.87224H27.6767V5.33801H38.5105V8.87224H38.5112ZM44.2357 13.3778H49.0584V16.9121H44.2357V24.9305H40.7782V5.33801H50.6229V8.87224H44.2371V13.3778H44.2357ZM56.3473 21.8379C58.3512 21.882 60.3772 22.037 62.337 22.1473V25.6374C59.1882 25.4383 56.0394 25.2392 52.8245 25.173V5.33801H56.3473V21.8379ZM65.3101 25.8799C66.433 25.9467 67.622 26.0129 68.7669 26.1451V5.33801H65.3101V25.8799ZM84.2037 5.33801L79.7336 16.095L84.2037 27.9563C82.8824 27.78 81.5612 27.5368 80.2399 27.3163L77.7076 20.7777L75.1313 26.7858C73.8541 26.5654 72.6211 26.4985 71.3439 26.3215L75.8801 15.962L71.7841 5.33801H75.5715L77.884 11.2801L80.3501 5.33801H84.2037Z" fill="#8F95B3"/>
</g>
<defs>
<clipPath id="clip0_429_24565">
<rect width="83.9111" height="32" fill="white" transform="translate(0.766785 0.934082)"/>
</clipPath>
</defs>
</svg>
