<svg width="61" height="33" viewBox="0 0 61 33" fill="none" xmlns="http://www.w3.org/2000/svg">
<g clip-path="url(#clip0_429_24534)">
<path d="M8.6059 23.9919C11.4432 23.9919 13.6377 21.7974 13.6377 18.5504V5.91187H16.7083V26.3904H13.6669V24.4889C12.2916 25.9225 10.3908 26.7417 8.25532 26.7417C3.86563 26.7417 0.502075 23.5524 0.502075 18.7275V5.91542H3.57336V18.5504C3.57336 21.8557 5.73799 23.9919 8.60519 23.9919H8.6059ZM18.991 5.91187H21.9456V13.3721C22.6347 12.6663 23.4584 12.1059 24.3679 11.724C25.2773 11.342 26.2542 11.1463 27.2406 11.1485C31.6288 11.1485 35.0806 14.6301 35.0806 18.96C35.0806 23.2601 31.6288 26.741 27.2406 26.741C26.2495 26.7438 25.2678 26.5485 24.3532 26.1668C23.4386 25.7851 22.6094 25.2246 21.9143 24.5181V26.3897H18.9867L18.991 5.91187ZM27.0358 24.1376C29.8447 24.1376 32.1558 21.8265 32.1558 18.96C32.1558 16.0637 29.8447 13.7817 27.0358 13.7817C24.1984 13.7817 21.8873 16.0637 21.8873 18.96C21.8873 21.8265 24.1686 24.1376 27.0358 24.1376ZM43.9161 11.1776C48.2162 11.1776 51.3764 14.4843 51.3764 18.9309V19.8959H39.2377C39.6473 22.3243 41.6655 24.1384 44.1799 24.1384C45.9079 24.1384 47.3693 23.4358 48.4807 21.9439L50.6162 23.5232C49.1243 25.5129 46.9007 26.7119 44.1799 26.7119C39.7042 26.7119 36.2518 23.3768 36.2518 18.9309C36.2518 14.7176 39.5584 11.1776 43.9175 11.1776H43.9161ZM39.2939 17.5563H48.3926C47.8955 15.2736 46.053 13.7519 43.8585 13.7519C41.6647 13.7519 39.8215 15.2736 39.2946 17.5563H39.2939ZM59.3039 14.1039C57.3732 14.1039 55.9687 15.5958 55.9687 17.9069V26.3904H53.0141V11.4706H55.9417V13.3152C56.6727 12.1156 57.8724 11.3547 59.5108 11.3547H60.5348V14.1053L59.3046 14.1039H59.3039Z" fill="#8F95B3"/>
</g>
<defs>
<clipPath id="clip0_429_24534">
<rect width="59.7333" height="32" fill="white" transform="translate(0.502197 0.934082)"/>
</clipPath>
</defs>
</svg>
