<svg xmlns="http://www.w3.org/2000/svg" xmlns:xlink="http://www.w3.org/1999/xlink" width="1720" height="1101" xmlns:v="https://vecta.io/nano"><style><![CDATA[.B{fill:#fff}.C{fill-rule:nonzero}.D{fill:#cce3ff}.E{fill:#d7ebff}.F{fill:#e576c6}.G{stroke:#000}.H{stroke-width:3}.I{fill:#0d0b6d}.J{fill:#ecf6ff}.K{stroke-width:8}.L{fill:#2437a8}.M{fill:#fcbda4}.N{opacity:.203}.O{fill:#ffe8c0}.P{stroke-linecap:square}]]></style><defs><path d="M70.343 114.832l-.848-29.317s35.621 2.837 43.241-1.122c0 0 9.313-47.988-1.794-74.563l-.225-1.036L35.545 0l-4.723 42.544C28.29 35.074 7.9 27.201 2.438 37.897-9.4 61.075 32.928 76.681 32.928 76.681l-4.298 38.504" id="A"/><path d="M211.135 7.465C213.699 1.637 227.168 0 227.168 0s21.495 23.921 23.419 27.574 5.481 21.737 5.312 25.311-11.255 19.628-11.255 19.628c-6.878-1.629-2.386-9.921-2.386-9.921s-6.161 5.036-8.722 4.952c-24.121-.794-22.829-12.602-22.258-14.08 1.281-3.32 7.719.476 7.719.476s-15.195-29.803-7.862-46.475zM40.071 18.893s2.605 5.506 4.941 12.178 1.364 10.756 6.417 21.238c5.735 11.898-4.524 6.992-8.201 1.797-2.871-4.053-2.545-9.532-6.267-11.988-1.247 1.99-4.098 4.836-5.687 22.002-.286 3.079 1.11 13.066 1.11 13.066.031 2.992.414 9.233-2.992 10.186-.844.236-1.943-.697-1.943-.697s.33 3.904-3.152 4.682c-1.369.305-4.087-8.126-4.087-8.126s-.414 4.281-3.014 4.757c-.735.135-9.413-24.294-9.413-24.294l.522 5.517 1.151 5.652s-.092 3.041-2.535 3.579c-.97.214-2.832-4.859-4.577-10.827C-.37 58.328-.315 51.348.483 44.408c.965-8.387 1.094-13.599 4.827-23.882l34.761-1.633z" id="B"/><path d="M248.969 198.97l-43.52 24.078-10.7-20.598.27-27.498h-63.51l-7.04-.01h-62.44l-.93-33.859L49.769 209l-49.74 2.336s-.98-70.733 8.49-111.651c6.03-26.066 35.49-74.5 63.39-91.152 4.46-2.664 10.38-4.533 16.99-5.826 2.41-.477 4.91-.875 7.46-1.203 25.24-3.251 55.79.01 55.79.01 2.42.875 4.69 1.74 6.81 2.615 1.29.527 2.52 1.054 3.7 1.581 1.62.726 3.14 1.441 4.57 2.167l.08.04c20.24 10.21 23.13 20.638 29.51 33.752 8.18 16.78 16.65 68.326 16.65 68.326l35.5 88.975z" id="C"/><path d="M62.405 22.688L48.151 65.575 15.674 20.831.33 20.222 7.97.001l26.92 1.281 10.64 17.517L56.35 2.306l7.17.338 3.36 20.222-4.475-.178z" id="D"/><path d="M.092 19.266L7.835.276l13.041 11.909L.092 19.266zm28.76-6.208l12.471-10.2 4.217 17.701-16.688-7.501z" id="E"/><path d="M221.723 17.066l-.286 26.277s55.182 9.28 73.888 31.775h-109.94L189.991 0l31.732 17.066zM45.683 11.048l-.303 31.255s24.614 3.432 34.632 32.566H.327l7.969-34.294 3.118-31.263 34.269 1.736z" id="F"/><path d="M181.99 7.524l31.732 10.18-.286 26.277-34.004-1.631 2.558-34.825zM4.079.904l33.604 10.782-.302 31.255L.296 41.213 4.079.904z" id="G"/><path d="M166.722 80.196l-21.494 207.285H87.426l9.782-207.285H56.217C25.169 80.196 0 55.34 0 24.676V0h92.98 191.677c40.19 0 71.291 35.107 66.318 74.864l-27.766 212.616h-58.79l2.707-207.285H166.722z" id="H"/><path d="M21.067 65.521c4.062 6.487-1.602 15.034-3.917 20.028-.783 1.717-2.518 24.774-3.26 25.426-2.881 2.527 33.047 9.234 33.047 9.234l2.344-29.043c10.226.59 22.228.049 28.819-4.334 19.635-13.06 20.798-58.344 20.477-60.609L82.109 7.801S57.275-3.667 53.496 1.206c-6.913 8.925-23.091 48.858-34.803 44.301 0 0 1.477-12.416-8.886-12.401-7.722.012-9.813 6.206-9.807 9.783.017 12.077 15.612 13.893 21.067 22.632" id="I"/><path d="M403.773 106.051s45.011-21.037 69.89-13.125l-77.957 52.627-11.199-30.544 19.266-8.958zM60.458 26.293L33.42 50.144s1.444 14.001.551 30.057c-1.292 23.243-5.924 45.789-5.924 45.789L0 42.744 53.232 0l7.226 26.293z" id="J"/><path d="M193.784 10.267L217.291 0h9.24l3.929 13.008 24.76 1.85c-.141-3.485-1.582 16.61-8.741 51.117l60.771 200.964 74.52 246.431-19.26 8.96-117.29-255.391-35.229-79.347c-16.497 41.573-38.953 86.928-69.497 131.648C79.758 408.161 11.42 457.465 11.42 457.465L.9 432.177S142.59 316.148 171.623 8.611l22.161 1.656z" id="K"/><path d="M236.7 266.939H.171S16.29 148.649 45.16 70.229C64.31 18.21 81.551 3.62 87.261 0h82.62c1.79 4.109 18.96 44.419 37.559 124.169 23.531 100.85 29.26 142.77 29.26 142.77" id="L"/><path d="M237.806 89.795c4.964 5.868 10.466 12.528 11.324 14.214 1.614 3.171 4.6 18.868 4.457 21.969s-9.443 17.037-9.443 17.037c-5.772-1.414-2.002-8.611-2.002-8.611s-5.169 4.371-7.319 4.298c-20.24-.69-19.155-10.938-18.677-12.221 1.075-2.882 6.478.413 6.478.413s-10.268-20.83-7.929-35.563L186.159 39.84l29.34-17.83 22.307 67.785h0zM32.721 80.711l6.867 21.96s.757 5.061.891 10.98.063 9.507 3.38 18.644c2.311 6.367-6.846 3.77-9.172.128-2.399-3.756-2.428-18.348-7.185-15.851s-7.468 16.956-7.746 30.798c-.044 2.174-1.808 3.807-3.008 4.334-1.948.855-3.86-7.881-3.86-7.881s-1.252 2.911-4.088 1.42c-1.004-.528-3.579-6.578-3.579-6.578s-2.144-3.052-3.115-6.344C.392 126.508-.462 115.912.255 112.877c1.698-7.178 5.147-19.266 8.803-25.765-.018-1.5-.543-47.921 2-87.113l35.68 9.75-14.017 70.961h0z" id="M"/><path d="M204.499 156.92l-29.34 17.83-9.13-16.75-.96-8.5-86.82-1.28s.75-8.09-1.09-19.78c-2.42-15.29-15.07-32.77-15.07-32.77l-22.47 29.38-3.88 19.61-35.68-9.75c1.51-11.95 2.81-23.43 6.25-33.17 13.27-37.67 36.94-80.2 55.85-92.12 19.46-12.26 37-9.03 53.28-8.17 28.14 1.47 42.05 1.18 54.63 12.73 26.24 24.08 25.45 115.02 25.45 115.02l8.98 27.72z" id="N"/><path d="M8.186 13.285L10.018 0l43.689 6.023-1.268 9.196c8.232 1.301 12.728 2.822 12.728 2.822L56.84 79.345.03 13.422s2.55-.097 8.156-.137h0z" id="O"/><path id="P" d="M91.452 120.534a5.03 5.03 0 0 1-4.053 5.843 5.03 5.03 0 0 1-5.844-4.053 5.03 5.03 0 0 1 4.054-5.843 5.03 5.03 0 0 1 5.843 4.053"/><path id="Q" d="M90.595 140.935s3.477 5.638 10.363 5.161"/></defs><g transform="translate(-22 -142)" fill="none" fill-rule="evenodd"><path d="M1741.931 685.965c0 131.425-106.541 237.965-237.966 237.965s-237.966-106.54-237.966-237.965S1372.54 448 1503.965 448s237.966 106.54 237.966 237.965" class="J"/><path d="M1503.965 617.191v486.729m0-261.049l52.974-52.973m-50.974-106.036l27.276-27.276m-29.276 107.253l-50.769-50.768" stroke="#b6d4ff" class="K"/><path d="M899.22 819.18c0 114.54-74.75 178.44-172.109 178.44S555 933.72 555 819.18C555 578.02 664.851 300 727.111 300S899.22 578.02 899.22 819.18" class="D"/><path d="M727.11 648.81v528.67m2.057-248.61l60.915-60.915m-68.071-55.148l-49.846-49.846m57.945-28.238l38.052-38.053" stroke="#ecf6ff" class="K P"/><path d="M1408.022 1017.246l42.437 197.679h28.073l-42.437-197.679z" class="D"/><path d="M725.785 1017.245h726.637v-30.579H725.785zm572.562 110.742h141.671v-30.58h-141.671z" class="E"/><path d="M875.921 816l-31.846 170.666h38.431L914.352 816zm553.903 0l-31.846 170.666h38.43L1468.254 816z" class="D"/><path fill="#b6d4ff" d="M1282.025 1017.246h170.397v-30.579h-170.397z"/><path d="M1506.581 927.25l-5.697 30.586h-38.437l5.708-30.586z" class="D"/><path d="M1468.156 927.25l-5.708 30.586H815.711l5.708-30.586z" class="E"/><path d="M1516.957 871.627l-5.697 30.575h-38.437l5.708-30.575z" class="D"/><path d="M1478.532 871.627l-5.708 30.575H826.087l5.708-30.575z" class="E"/><path d="M1488.907 816.004l-5.696 30.576h38.425l5.697-30.576z" class="D"/><path d="M842.18 816.004l-5.708 30.576h646.738l5.697-30.576z" class="E"/><path d="M1298.347 1017.246l-42.437 197.679h28.074l42.436-197.679zm-446.235-.001l42.437 197.679h28.072l-42.436-197.679z" class="D"/><path d="M742.436 1127.986h141.672v-30.579H742.436z" class="E"/><path d="M742.436 1017.245L700 1214.924h28.074l42.435-197.679z" class="D"/><path d="M652.038 821.83c0 105.931-43.816 202.141-143.019 202.141S366 927.761 366 821.83C366 697.567 440.965 574 509.019 574s143.019 123.567 143.019 247.83" class="J"/><path d="M509.019 798.985v301.675m3-163.789l38.709-43.464m-47.414-15.543l-38.71-43.465" stroke="#dceeff" class="K P"/><path d="M1678.784 178.966h-9.537a8.31 8.31 0 0 0-8.308 8.308v687.802h26.153V187.274a8.31 8.31 0 0 0-8.308-8.308" class="E"/><path d="M1653.096 938.341h41.841v-70.935h-41.841z" class="D"/><path d="M1641.739 1106.991h64.553V899.678h-64.553z" class="E"/><g class="D"><path d="M1700.923 1079.527h-53.813c-10.876 0-19.693 8.816-19.693 19.692v8.652h93.197v-8.652c0-10.876-8.816-19.692-19.691-19.692m5.364-181.799h-64.542a9.69 9.69 0 0 0-9.687 9.686v1.193a9.69 9.69 0 0 0 9.687 9.686h64.542a9.69 9.69 0 0 0 9.686-9.686v-1.193a9.69 9.69 0 0 0-9.686-9.686M1674.016 142h0c-9.615 0-17.41 7.795-17.41 17.41v2.146c0 9.615 7.795 17.41 17.41 17.41s17.41-7.795 17.41-17.41v-2.146c0-9.615-7.794-17.41-17.41-17.41m25.739 203.029h-51.478a9.69 9.69 0 0 0-9.686 9.686v1.193a9.69 9.69 0 0 0 9.686 9.686h51.478a9.69 9.69 0 0 0 9.686-9.686v-1.193a9.69 9.69 0 0 0-9.686-9.686"/><path d="M1692.727 365.594h-37.422a6.36 6.36 0 0 0-6.359 6.359v.784a6.36 6.36 0 0 0 6.359 6.358h37.422a6.36 6.36 0 0 0 6.359-6.358v-.784a6.36 6.36 0 0 0-6.359-6.359"/></g><path d="M1723.447 208.763l-28.273 136.265h-42.302l-28.286-136.265z" class="J"/><path d="M1732.032 215.986l-12.397-24.39h-91.239L1616 215.986z" class="D"/><g transform="matrix(-1 0 0 1 1580 477)"><g transform="translate(272 69)"><path d="M39.862 14.515c1.922 9.749-4.422 19.211-14.171 21.133S6.479 31.226 4.557 21.477 8.979 2.266 18.728.343 37.94 4.766 39.862 14.515" class="L"/><g transform="translate(11.607 77.16)"><mask id="R" class="B"><use xlink:href="#A"/></mask><g class="F"><use xlink:href="#A"/><g mask="url(#R)" class="C"><path d="M0 8.554h116v108H0z"/></g></g></g><path fill="#000" opacity=".398" d="M81.102 162.675l-24.021-5.151 23.904 16.15z"/><path fill="#405fd3" d="M100.916 114.767l8.3 20.295-9.948.127z"/><g class="I"><use xlink:href="#P"/><use xlink:href="#P" x="26.106"/></g><use xlink:href="#Q" class="B"/><use xlink:href="#Q" stroke="#252535" stroke-width="4"/><path d="M45.558 123.272c-3.447-4.442-7.287-7.383-10.758-9.326l.818-16.983 35.312-6.158c-2.891 19.468-15.689 28.426-25.372 32.468z" fill="#19141e"/><path d="M8.957 91.683S-3.075 48.514 31.55 24.691c42.857-29.488 92.463 47.984 92.463 47.984" fill="#ce3d29"/><path d="M.132 96.646l3.217 18.049c.809 4.545 5.126 7.591 9.679 6.831l117.084-19.539a8.43 8.43 0 0 0 6.696-10.687l-6.444-21.904c-1.236-4.202-5.487-6.755-9.777-5.874L6.73 86.917c-4.472.919-7.399 5.234-6.598 9.729m6.821-24.02l19.836-27.239 30.293 15.429 17.42-26.098 31.088 14.488" class="L"/></g><g transform="translate(206 242.818)"><g transform="translate(0 209.451)"><mask id="S" class="B"><use xlink:href="#B"/></mask><g class="F"><use xlink:href="#B"/><g mask="url(#S)" class="C"><path d="M0 11.246h256v81H0z"/></g></g></g><path d="M223.923 230.989s3.385 12.361 15.001 16.213c4.062 1.346 3.047 17.244 13.003 15.342" opacity=".147" class="G H"/><g transform="translate(0 18.889)"><mask id="T" class="B"><use xlink:href="#C"/></mask><g fill="#2f2f3d"><use xlink:href="#C"/><g mask="url(#T)" class="C"><path d="M-8 0h265v223H-8z"/></g></g></g><g transform="translate(94)"><mask id="U" class="B"><use xlink:href="#D"/></mask><g class="M"><use xlink:href="#D"/><g mask="url(#U)" class="C"><path d="M-1-2.982h70v70H-1z"/></g></g></g><g transform="translate(114 5.965)"><mask id="V" class="B"><use xlink:href="#E"/></mask><g fill="#ea847a"><use xlink:href="#E"/><g mask="url(#V)" class="C"><path d="M-13-28.83h70v70h-70z"/></g></g></g><g stroke-width="5" class="G"><path opacity=".201" d="M60.191 168.053l6.568-47.084L87.1 89.522"/><path d="M195.019 193.837l4.347-74.72" class="N"/></g></g><g transform="translate(268 431.233)"><g transform="translate(84 259.32)"><mask id="W" class="B"><use xlink:href="#F"/></mask><g class="I"><use xlink:href="#F"/><g mask="url(#W)" class="C"><path d="M-4 37.316h299v45H-4z"/></g></g></g><g transform="translate(92 258.682)"><mask id="X" class="B"><use xlink:href="#G"/></mask><g fill="#cf3e83"><use xlink:href="#G"/><g mask="url(#X)" class="C"><path d="M-10-1.998h233v60H-10z"/></g></g></g><mask id="Y" class="B"><use xlink:href="#H"/></mask><use fill="#18181c" xlink:href="#H"/><g mask="url(#Y)" class="C M"><path d="M0-11.95h351v308H0z"/></g><path d="M0 0h126.186c26.068 0 46.449 22.209 43.892 47.83l-24.85 239.65H87.426l9.782-207.285H56.217C25.169 80.196 0 55.339 0 24.676V0z" opacity=".102" class="B"/></g></g><g transform="translate(0 352)"><g transform="translate(182 39)"><path d="M178.076 146.405H.046s-1.89-28.686 18.57-52.128c5.92-6.786 6.86-12.71 6.7-19.212-.14-5.593-1.08-11.622-.35-19.004C29.326 24.972 53.506.999 87.596.999c30.12 0 59.919 18.611 68.16 44.472 5.331 16.73 4.775 26.348 3.074 39.516-3.23 25.019 11.539 25.165 18.052 42.249 4.438 11.642 1.194 19.169 1.194 19.169" class="O"/><path d="M95.262 133.79s-12.931.382-18.442-2.628l17.755 11.147.687-8.519z" fill="#cf3e83"/><g transform="translate(45.981 42.624)"><mask id="Z" class="B"><use xlink:href="#I"/></mask><g class="F"><use xlink:href="#I"/><g mask="url(#Z)" class="C"><path d="M13.019 25.376h86v98h-86z"/></g></g></g><path fill="#405fd3" d="M123.37 88.109l7.4 17.941-8.585-.173z"/><path d="M115.492 88.887c-.184 3.584-2.292 6.376-4.708 6.237s-4.225-3.157-4.041-6.741 2.293-6.377 4.708-6.237 4.226 3.157 4.041 6.741m22.687-.573c-.185 3.584-2.292 6.376-4.708 6.237s-4.225-3.157-4.041-6.741 2.292-6.376 4.708-6.237 4.225 3.158 4.041 6.741" class="I"/><path d="M120.663 41.846a35.26 35.26 0 0 0 .406 12.447l.38 1.519c.893 3.372 2.27 6.578 4.066 9.521 4.848 7.925 12.764 13.967 22.382 16.356a26.94 26.94 0 0 0 1.475.322l1.879-12.94-.009-.002c.068-.403.126-.797.184-1.201 2.32-15.972-3.261-29.677-11.025-42.624-1.443-2.409-3.356-3.713-5.087-5.929-5.109 3.04-7.035 4.5-10.097 9.655-2.291 3.842-3.872 8.181-4.554 12.876" class="O"/><path d="M120.079 114.47s-5.594 1.805-11.2-4.427" stroke="#1c295e" class="H"/><path d="M95.24 133.79s-12.93.382-18.442-2.628l17.755 11.147.687-8.519z" fill="#000" opacity=".398"/><path d="M131.563 74.703c-22.41 42.232-48.576 10.896-59.67 28.026-11.692 18.055 14.853 23.934 14.853 43.677h-75.35l46.1-42.352-26.67-32.014s12.95-21.789 31.24-28.717c41.27-15.634 97.077-20.596 69.497 31.38" class="O"/></g><g transform="translate(22 338)"><g transform="translate(0 407.322)"><mask id="a" class="B"><use xlink:href="#J"/></mask><g class="I"><use xlink:href="#J"/><g mask="url(#a)" class="C"><path d="M-2 21.678h476v124H-2z"/></g></g></g><g transform="translate(22)"><mask id="b" class="B"><use xlink:href="#K"/></mask><g class="F"><use xlink:href="#K"/><g mask="url(#b)" class="C"><path d="M-1 267h398v255H-1z"/></g></g></g><g transform="translate(113)"><mask id="c" class="B"><use xlink:href="#L"/></mask><use xlink:href="#L" class="M"/><g mask="url(#c)" fill="#1e9dbc" class="C"><path d="M-1 0h238v270H-1z"/></g></g></g><g transform="translate(130 178)"><g transform="translate(0 147.909)"><mask id="d" class="B"><use xlink:href="#M"/></mask><g class="F"><use xlink:href="#M"/><g mask="url(#d)" class="C"><path d="M0 .091h254v152H0z"/></g></g></g><path d="M226.757 246.679s2.84 10.729 12.587 14.072c3.409 1.169 2.558 14.969 10.911 13.318" opacity=".146" class="G H"/><g transform="translate(11 13)"><mask id="e" class="B"><use xlink:href="#N"/></mask><use fill="#72a065" xlink:href="#N"/><g mask="url(#e)" fill="#2f2f3d" class="C"><path d="M-5 0h209v175H-5z"/></g></g><path d="M175.272 162.266c3.208-40.743 25.413-49.358 9.413-95.05" class="G H N"/><g transform="translate(99)"><mask id="f" class="B"><use xlink:href="#O"/></mask><use xlink:href="#O" class="L"/><g mask="url(#f)" fill="#1e9dbc" class="C"><path d="M-7 0h72v79H-7z"/></g></g><path d="M91.752 81.178l-18.667 27.487" class="G H N"/></g></g></g></svg>