<svg xmlns="http://www.w3.org/2000/svg" xmlns:xlink="http://www.w3.org/1999/xlink" width="1499" height="1201" xmlns:v="https://vecta.io/nano"><style><![CDATA[.B{fill:#cce3ff}.C{fill:#dceeff}.D{stroke:#dceeff}.E{fill-rule:nonzero}.F{fill:#b6d4ff}.G{fill:#fff}.H{fill:#19141e}.I{fill:#ecf6ff}.J{stroke-width:5}.K{stroke-width:9}.L{stroke:#19141e}.M{stroke-linecap:round}.N{fill:#6ca1ff}.O{fill:#f6b852}]]></style><defs><path d="M108.369 483.613l2.476-22.892 14.545-134.86c.715-6.63 6.627-11.42 13.224-10.7l50.907 5.57c6.587.72 11.346 6.67 10.631 13.3l-13.78 127.73c17.823 4.12 31.116 20.18 31.126 39.37v.021 12.159H105.162 0l1.311-12.18 4.371-40.41 14.545-134.86c.715-6.63 6.627-11.42 13.224-10.7l50.907 5.57c6.587.72 11.346 6.67 10.631 13.3l-13.78 127.73c11.993 2.772 21.935 10.951 27.159 21.852zM56.537 58.392c-7.719-5.765-12.758-14.991-12.792-25.353-.059-17.431 14.062-31.74 31.38-31.798L146.311 1c17.318-.058 31.534 14.155 31.592 31.585s-14.063 31.739-31.38 31.798l-67.166.226.124-24.782c.032-6.351-5.058-11.526-11.368-11.558S56.661 33.36 56.63 39.711l-.093 18.68zm36.152 188.919c0 15.88-12.79 28.753-28.566 28.753s-28.567-12.873-28.567-28.753 12.79-28.753 28.567-28.753 28.566 12.873 28.566 28.753zm105.043 0c0 15.88-12.79 28.753-28.566 28.753s-28.567-12.873-28.567-28.753 12.79-28.753 28.567-28.753 28.566 12.873 28.566 28.753z" id="A"/><path d="M253.929 251.8l-11.19 9.989-2.327-2.849a75.94 75.94 0 0 1-4.831-7.065c-4.16-6.897-6.864-13.878-7.336-20.81-.635-9.321 2.951-17.608 11.136-23.581 8.193-5.978 16.733-6.493 24.041-1.785 5.211 3.356 9.226 8.923 12.53 16.09 1.668 3.619 3.049 7.44 4.174 11.253.393 1.331.727 2.571 1.005 3.693l.357 1.526-14.674 3.111a36.35 36.35 0 0 0-.243-1.032 72.12 72.12 0 0 0-.831-3.053c-.934-3.165-2.075-6.323-3.409-9.218-2.218-4.812-4.708-8.263-7.031-9.759-1.932-1.245-3.75-1.135-7.077 1.292-3.89 2.839-5.308 6.114-5.013 10.444.283 4.155 2.179 9.047 5.216 14.084a61.06 61.06 0 0 0 3.873 5.664 50.21 50.21 0 0 0 1.246 1.558l.383.45zM68.699 108.236l-.69 1.363c-6.15 12.157-21.126 17.072-33.282 10.923l-2.049-1.036c-12.156-6.149-17.071-21.126-10.922-33.283l34.79-68.779c4.68-9.254 14.476-14.311 24.249-13.487C85.413 2.044 90.46.999 95.74.999h67.693c9.512 0 18.272 3.392 25.128 9.025 9.04 2.004 16.625 9.015 18.844 18.595l17.398 75.089c3.074 13.271-5.269 26.645-18.54 29.72l-2.237.518c-12.64 2.929-25.374-4.501-29.214-16.681-3.608 1.088-7.429 1.672-11.379 1.672H95.74c-10.422 0-19.94-4.071-27.041-10.701h0zM16.036 258.704l-14.974.885a31.13 31.13 0 0 1-.034-.797c-.189-5.921.345-13.004 2.261-19.999 4.07-14.854 13.461-24.471 28.853-23.864 8.668.342 15.137 3.959 18.596 10.392 2.694 5.011 3.238 11.03 2.29 17.844-.591 4.245-1.75 8.655-3.308 13.107-.79 2.256-1.634 4.382-2.481 6.326a61.03 61.03 0 0 1-1.193 2.599l-13.435-6.671a26.16 26.16 0 0 0 .211-.442l.666-1.478c.706-1.62 1.414-3.405 2.074-5.29 1.255-3.585 2.171-7.07 2.609-10.219 1.123-8.066-.42-10.936-6.62-11.181-7.196-.284-11.371 3.991-13.795 12.839-.817 2.981-1.33 6.242-1.582 9.581-.175 2.321-.205 4.375-.154 5.975l.015.391z" id="B"/><path d="M42.094 139.539c-22.888 0-41.615-18.727-41.615-41.615V75.462c0-22.888 18.727-41.615 41.615-41.615h4c22.889 0 41.616 18.727 41.616 41.615v22.462c0 22.888-18.727 41.615-41.616 41.615h-4zM68.325 10.385C68.325 4.65 72.974.001 78.71.001S89.095 4.65 89.095 10.385A10.39 10.39 0 0 1 78.71 20.77c-5.736 0-10.385-4.65-10.385-10.385z" id="C"/><path id="D" d="M201.53 130.663h96.487L311.047.5H214.56z"/><path id="E" d="M196.322 130.663h98.282L307.635.5h-98.283z"/><path id="F" d="M456.356 39.213l-9.03 90.181H328.762l9.031-90.181z"/><path id="G" d="M453.703 39.213l-9.03 90.181h-120.77l9.031-90.181z"/><path id="H" d="M84.853 149.797l33.047 51.846h18.288l-33.047-51.846z"/></defs><g transform="translate(-362 -95)" fill="none" fill-rule="evenodd"><g transform="matrix(-1 0 0 1 1861 532)"><g stroke="#cce3ff" stroke-width="18"><path d="M42.769 624.206l50.308-624m202.657 624l-50.308-624"/><path d="M60.19 26.683h212.39M45.769 163.298h241.23M34.385 326.991h264M15 474.683h302.769"/></g><path d="M212.276 274.76h-69.782c-3.162 0-5.725-2.563-5.725-5.724V159.305c0-3.161 2.563-5.724 5.725-5.724h69.782c3.161 0 5.724 2.563 5.724 5.724v109.731c0 3.161-2.563 5.724-5.724 5.724M165.66 427.38H95.879c-3.162 0-5.725-2.563-5.725-5.725V322.54c0-3.161 2.563-5.724 5.725-5.724h69.781c3.162 0 5.725 2.563 5.725 5.724v99.115c0 3.162-2.563 5.725-5.725 5.725" class="B"/><g class="D"><path d="M24.769 624.206l50.308-624m202.657 624l-50.308-624" stroke-width="30"/><path d="M45.19 26.683h212.39M30.769 163.298h241.23M19.385 326.991h264M0 474.683h302.769" stroke-width="18"/></g><path d="M153.231 393.731H84.307c-3.398 0-6.153-2.755-6.153-6.154v-64.606c0-3.399 2.755-6.155 6.153-6.155h75.077v70.761c0 3.399-2.755 6.154-6.153 6.154" class="I"/><path d="M78.154 380.611h81.23v-20.365h-81.23z" class="C"/><path d="M165.383 316.821a6 6 0 0 0-6 6v-6h6zm34.463-78.942h-68.923c-3.399 0-6.154-2.755-6.154-6.154v-71.991c0-3.399 2.755-6.154 6.154-6.154h75.076v78.145c0 3.399-2.755 6.154-6.153 6.154" class="I"/><path d="M124.77 223.501H206v-9.33h-81.23zm0-18.441H206v-9.33h-81.23z" class="C"/><path d="M211.998 153.586c-3.31 0-6 2.937-6 6.576v-6.576h6z" class="I"/></g><g transform="matrix(-1 0 0 1 1486 94)"><path d="M0 1061.36h388.308V224.437H0z" class="C"/><path d="M46.154 1061.36h308.923v-800H46.154z" class="B"/><path d="M158.34 976.58h84.551V785.042H158.34zm0-445.155h84.551V339.888H158.34zm0 222.577h84.551V562.464H158.34z" class="C"/><path d="M75.098 608.476h56.844" stroke="#b6d4ff" stroke-width="14"/><path d="M388.308 1061.36h12.615V224.437h-12.615zm-354.77 0h12.615v-800H33.538zm38.579-385.921h0c-7.31 0-13.235-5.925-13.235-13.234v-60.403c0-7.309 5.925-13.234 13.235-13.234s13.235 5.925 13.235 13.234v60.403c0 7.309-5.925 13.234-13.235 13.234m328.806-479.981C400.923 88.725 314.399 2.2 207.665 2.2S14.407 88.725 14.407 195.458h386.516z" class="F"/><g class="C"><path d="M386.516 194.258C386.516 87.525 299.991.999 193.258.999S0 87.525 0 194.258h386.516z"/><path d="M386.516 195.458C386.516 88.725 299.991 2.2 193.258 2.2S0 88.725 0 195.458h386.516z"/></g><path d="M335.842 163.055H33.859C49.502 90.422 111.162 36.214 184.851 36.214s135.348 54.208 150.991 126.841" class="F"/><path d="M351.449 163.055H49.466C65.109 90.422 126.769 36.214 200.458 36.214s135.348 54.208 150.991 126.841" class="G"/></g><g transform="matrix(-1 0 0 1 887 351)"><use xlink:href="#D" class="C"/><use xlink:href="#D" class="D J"/><use xlink:href="#E" class="G"/><use xlink:href="#E" class="D J"/><g class="C"><path d="M215.147 113.477h64.075l9.589-95.79h-64.075z"/><use xlink:href="#F"/></g><use xlink:href="#F" class="D J"/><use xlink:href="#G" class="G"/><use xlink:href="#G" class="D J"/><path d="M428.239 56.904l-5.487 54.798h-73.385l5.487-54.798zM55.552 95.687h0c0 6.903 5.597 12.5 12.501 12.5h112.469V83.186H68.053c-6.904 0-12.501 5.597-12.501 12.501" class="B"/><path d="M131.197 95.687h0a7.24 7.24 0 0 0 7.236 7.236h41.786a.3.3 0 0 0 .302-.3V88.75a.3.3 0 0 0-.302-.3h-41.786a7.24 7.24 0 0 0-7.236 7.237" class="C"/><path d="M39.855 108.187v25.001h122.759c6.904 0 12.501-5.597 12.501-12.5s-5.597-12.501-12.501-12.501H39.855z" class="B"/><path d="M39.855 113.521v14.334h50.474a7.17 7.17 0 0 0 7.167-7.167 7.17 7.17 0 0 0-7.167-7.167H39.855zM0 149.797h423.178V132.02H0z" class="C"/><path d="M423.178 149.797h69.617V132.02h-69.617z" class="B"/><path d="M103.141 149.797l33.047 51.846v-51.846z" class="F"/><use xlink:href="#H" class="B"/><path d="M345.518 149.797l33.047 51.846v-51.846z" class="F"/><use xlink:href="#H" x="242.377" class="B"/></g><path d="M518.854 765.334c0 30.56-18.58 55.333-41.5 55.333s-41.5-24.773-41.5-55.333 18.58-55.333 41.5-55.333 41.5 24.773 41.5 55.333" class="B"/><path d="M477.665 1055.963V768.147" class="D K"/><path d="M432.971 846.617c19.597 19.598 23.569 47.399 8.871 62.098s-42.5 10.726-62.098-8.871-23.568-47.4-8.871-62.098 42.5-10.726 62.098 8.871m139.93 40.264c15.803 15.803 11.533 45.695-9.538 66.766s-50.962 25.34-66.765 9.537" class="B"/><path d="M551.611 914.719l-72.718 72.926m51.706-142.665l-53.142 52.517m-55.179 62.76l55.517 56.142m-74.654-146.008l74.213 75.097" class="D K"/><path d="M499.918 1154.809h-44.507c-34.185 0-62.154-27.969-62.154-62.154v-58.486h168.815v58.486c0 34.185-27.969 62.154-62.154 62.154" class="I"/><path d="M562.072 1066.676H393.257m168.815 32.606H393.257" class="D K"/><g class="C"><path d="M884.042 771.149s-76.674 169.231-85.829 353.231l85.829-353.231"/><path d="M746.855 901.201s55.187 1.436 63.589 185.436c0 0-23.551-138.872-63.589-185.436"/><path d="M803.21 715.999s32.216 194.674.506 392.766l-.506-392.766"/></g><path d="M846.667 1160.859H766.99c-.598 0-1.194-.011-1.788-.033-36.331-1.358-56.544-47.312-35.968-80.466l18.253-29.408H866.17l18.252 29.408c20.577 33.154.364 79.108-35.967 80.466-.594.022-1.189.033-1.788.033" class="I"/><path d="M721 1118.589h171.657m-167.673-28.422h164.241" stroke="#b6d4ff" class="K"/><g transform="matrix(-1 0 0 1 887 204)"><path d="M0 17.776h423.177V0H0z" class="C"/><path d="M423.177 17.776h69.618V0h-69.618z" class="B"/><path d="M103.141 17.776l33.046 51.846V17.776z" class="F"/><path d="M84.853 17.776l33.046 51.846h18.288l-33.046-51.846z" class="B"/><path d="M345.517 17.776l33.047 51.846V17.776z" class="F"/><use xlink:href="#H" x="242.376" y="-132.021" class="B"/></g><g transform="matrix(-1 0 0 1 1332 431)"><g transform="translate(142.403 351)"><path d="M168.067 257.488l-13.015 120.636M66.271 257.488L53.256 378.124m96.317-336.899l18.01 199.853" stroke-width="23" class="L M"/><path d="M56.63 39.711c.032-6.351 5.173-11.474 11.482-11.442s11.4 5.206 11.368 11.558l-.994 199.346c-.032 6.351-5.173 11.474-11.482 11.442s-11.4-5.206-11.368-11.558l.994-199.346z" class="E H"/><mask id="I" class="G"><use xlink:href="#A"/></mask><use xlink:href="#A" class="N"/><g mask="url(#I)" class="E O"><path d="M0 0h218v514H0z"/></g><g fill="#000"><path d="M112.259 501.041c-.003-6.277-1.428-12.219-3.967-17.518l2.476-22.892 14.545-134.86c.715-6.63 6.627-11.42 13.224-10.7l50.907 5.57c6.587.72 11.346 6.67 10.631 13.3l-13.78 127.73c17.823 4.12 31.116 20.18 31.126 39.37v12.18H0l1.311-12.18h110.948z" opacity=".397"/><path d="M197.715 247.253c0 15.88-12.79 28.753-28.566 28.753s-28.567-12.873-28.567-28.753 12.79-28.753 28.567-28.753 28.566 12.873 28.566 28.753" opacity=".401"/><path d="M45.251 342.306c0 4.587-3.694 8.305-8.251 8.305s-8.252-3.718-8.252-8.305S32.442 334 37 334s8.251 3.719 8.251 8.306zm-2.916 27.084c0 4.587-3.694 8.306-8.251 8.306s-8.252-3.719-8.252-8.306 3.695-8.305 8.252-8.305 8.251 3.718 8.251 8.305z" opacity=".597"/><path d="M36.614 471.926c0 6.035-4.86 10.927-10.855 10.927s-10.856-4.892-10.856-10.927S19.763 461 25.759 461s10.855 4.892 10.855 10.926" opacity=".396"/></g></g><g transform="translate(120 217)"><path d="M199.838 113.627l44.832 96.811" stroke-width="16" class="L M"/><path d="M112.201 135h34.77v-28h-34.77z" class="H"/><path d="M31.318 220.459l9.617-105.545" stroke-width="16" class="L M"/><mask id="J" class="G"><use xlink:href="#B"/></mask><g class="E"><use xlink:href="#B" class="N"/><g mask="url(#J)" class="O"><path d="M-1-1h282v279H-1z"/></g></g><path d="M130.356 80.282h33.23c6.601 0 12-5.4 12-12V48.795c0-6.6-5.399-12-12-12h-33.23c-6.601 0-12 5.4-12 12v19.487c0 6.6 5.399 12 12 12" class="H"/><g fill="#000"><path d="M253.756 251.263l-11.19 9.989-2.327-2.849a75.94 75.94 0 0 1-4.831-7.065c-4.16-6.897-6.864-13.878-7.336-20.81-.635-9.321 2.951-17.608 11.136-23.581 8.193-5.978 16.733-6.493 24.041-1.785 5.211 3.356 9.226 8.923 12.53 16.09 1.668 3.619 3.049 7.44 4.174 11.253a87.05 87.05 0 0 1 1.005 3.693l.357 1.526-14.674 3.111c-.032-.152-.113-.507-.243-1.032a72.12 72.12 0 0 0-.831-3.053c-.934-3.165-2.075-6.323-3.409-9.218-2.218-4.812-4.708-8.263-7.031-9.759-1.932-1.245-3.75-1.135-7.077 1.292-3.89 2.839-5.308 6.114-5.013 10.444.283 4.155 2.179 9.047 5.216 14.084a61.06 61.06 0 0 0 3.873 5.664 50.21 50.21 0 0 0 1.246 1.558l.383.45zm-63.25-142.907c-1.025 4.055.637 8.473 4.391 10.774a9.82 9.82 0 0 0 13.5-3.241 9.82 9.82 0 0 0-3.241-13.5c-2.772-1.699-6.056-1.857-8.851-.714 4.417-6.397 7.01-14.137 7.01-22.455V40.668c0-12.318-5.687-23.373-14.565-30.668 9.04 2.004 16.625 9.015 18.844 18.595l17.398 75.089c3.074 13.271-5.269 26.645-18.54 29.72l-2.237.518c-12.64 2.929-25.374-4.501-29.214-16.681 5.841-1.761 11.126-4.838 15.506-8.884h0zM56.442 17.575C62.59 5.418 77.568.503 89.724 6.652l2.048 1.036c12.156 6.149 17.072 21.126 10.923 33.283l-34.79 68.779c-6.15 12.157-21.126 17.072-33.282 10.923l-2.049-1.036c-12.156-6.149-17.071-21.126-10.922-33.283l34.79-68.779zm-1.194 81.198a9.82 9.82 0 0 0-6.558-12.237 9.82 9.82 0 0 0-12.237 6.558 9.82 9.82 0 0 0 6.558 12.237 9.82 9.82 0 0 0 12.237-6.558zm32.647-64.542a9.82 9.82 0 0 0-6.558-12.237 9.82 9.82 0 0 0-12.237 6.558 9.82 9.82 0 0 0 6.558 12.237 9.82 9.82 0 0 0 12.237-6.558zm-71.85 224.571l-14.974.885c-.01-.171-.022-.439-.034-.797-.189-5.921.345-13.004 2.261-19.999 4.07-14.854 13.461-24.471 28.853-23.864 8.668.342 15.137 3.959 18.596 10.392 2.694 5.011 3.238 11.03 2.29 17.844-.591 4.245-1.75 8.655-3.308 13.107-.79 2.256-1.634 4.382-2.481 6.326-.518 1.189-.933 2.075-1.193 2.599l-13.435-6.671c.027-.054.099-.204.211-.442l.666-1.478c.706-1.62 1.414-3.405 2.074-5.29 1.255-3.585 2.171-7.07 2.609-10.219 1.123-8.066-.42-10.936-6.62-11.181-7.196-.284-11.371 3.991-13.795 12.839-.817 2.981-1.33 6.242-1.582 9.581-.175 2.321-.205 4.375-.154 5.975l.015.391z" opacity=".399" class="E"/><path d="M55.217 98.751a9.82 9.82 0 0 1-12.237 6.558 9.82 9.82 0 0 1-6.558-12.237 9.82 9.82 0 0 1 12.237-6.558 9.82 9.82 0 0 1 6.558 12.237zm32.646-64.542a9.82 9.82 0 0 1-12.237 6.558 9.82 9.82 0 0 1-6.558-12.237 9.82 9.82 0 0 1 12.237-6.558 9.82 9.82 0 0 1 6.558 12.237zm120.525 81.739a9.82 9.82 0 0 1-13.5 3.241 9.82 9.82 0 0 1-3.24-13.5 9.82 9.82 0 0 1 13.499-3.241 9.82 9.82 0 0 1 3.241 13.5z" opacity=".602"/></g></g><g transform="translate(203 67)"><g class="H"><path d="M97.859 95.308h13.351c5.309 0 9.653-4.344 9.653-9.654S116.519 76 111.21 76H97.859c-5.31 0-9.654 4.345-9.654 9.654s4.344 9.654 9.654 9.654"/><path d="M45.657 113.554c2.015-5.456 9.66-8.676 17.075-7.193s11.793 7.107 9.777 12.563l-10.167 27.522c-2.015 5.456-2.693 7.019-11.843 7.019H37.378c-4.78 0-6.247-3.089-1.888-12.388l10.167-27.522z" class="E"/></g><g transform="translate(15)"><mask id="K" class="G"><use xlink:href="#C"/></mask><use xlink:href="#C" class="N"/><g mask="url(#K)" class="E O"><path d="M0-3h89v144H0z"/></g></g><g class="H"><path d="M89.537 19.898c-6.808 5.929-10.684 12.485-11.853 21.415a3 3 0 0 1-5.949-.779C73.081 30.25 77.493 22.631 84.94 15.95c1.101 1.731 2.7 3.114 4.597 3.947z" class="E"/><path d="M72.718 78.381c.524 2.966-1.455 5.794-4.421 6.318s-5.794-1.455-6.318-4.421 1.455-5.794 4.421-6.318 5.795 1.455 6.318 4.421m28.31.116c.524 2.966-1.456 5.794-4.421 6.318s-5.794-1.455-6.318-4.421 1.455-5.794 4.421-6.318 5.794 1.456 6.318 4.421"/></g><path d="M79.12 72.492l13.76 21.834-14.811.358z" fill="#000" opacity=".404"/><path d="M9.654 93.242h12.953V73.934H9.654C4.344 73.934 0 78.279 0 83.588s4.344 9.654 9.654 9.654" class="H"/><path d="M76.321 104.871c-6.552 1.11-12.677-2.632-13.342-6.554" stroke-width="4" class="L"/></g></g></g></svg>