<svg xmlns="http://www.w3.org/2000/svg" xmlns:xlink="http://www.w3.org/1999/xlink" width="2174" height="1134" xmlns:v="https://vecta.io/nano"><style><![CDATA[.B{fill:#b6d4ff}.C{fill:#cce3ff}.D{fill:#dceeff}.E{fill-rule:nonzero}.F{fill:#fff}.G{fill:#19141e}.H{fill:#ecf6ff}.I{stroke:#cce3ff}.J{fill:#e576c6}.K{fill:#d2e9fc}.L{stroke-width:11}.M{stroke-width:15}.N{fill:#2437a8}.O{opacity:.398}.P{stroke:#19141e}.Q{fill:#6ca1ff}.R{stroke-linecap:round}]]></style><defs><path d="M70.161 112.544l-.847-29.187s35.521 2.824 43.121-1.117c0 0 9.286-47.775-1.79-74.232l-.224-1.031L35.46 0l-5.015 40.092c-2.525-7.436-22.552-14.79-28-4.141-11.804 23.075 30.405 38.612 30.405 38.612l-4.286 38.332" id="A"/><path d="M176.495 15.594l-.28 24.011s53.925 8.479 72.204 29.035H140.986l4.5-68.64 31.009 15.594zM41.854 13.572l-.28 26.968s22.712 2.962 31.957 28.1H0l7.354-29.591 2.878-26.976 31.622 1.499z" id="B"/><path d="M138.212 2.023l31.009 9.303-.279 24.01-33.229-1.491 2.499-31.823zM3.571 0L34.58 9.304l-.279 26.967L.08 34.781 3.571 0z" id="C"/><path d="M128.562 115.404L55.794 474.5H0L66.736 0h59.434 72.56l-4.593 472.666-17.123.247-32.599.483h-.119l-8.313.118-7.421-358.11z" id="D"/><path d="M211.131 7.465C213.694 1.636 227.164 0 227.164 0s21.495 23.921 23.418 27.573 5.482 21.738 5.313 25.311-11.255 19.628-11.255 19.628c-6.878-1.629-2.386-9.92-2.386-9.92s-6.161 5.036-8.723 4.952c-24.121-.795-22.829-12.603-22.257-14.08 1.281-3.321 7.719.476 7.719.476s-15.196-29.804-7.862-46.475zM36.067 12.273l4.373 8.301s2.231 3.823 4.567 10.496 1.365 10.756 6.417 21.238c5.735 11.898-4.523 6.992-8.202 1.798-2.87-4.054-2.545-9.533-6.266-11.988-1.247 1.989-4.097 4.835-5.687 22.002-.285 3.078 1.11 13.065 1.11 13.065.031 2.993.415 9.233-2.992 10.186-.844.236-1.943-.697-1.943-.697s.33 3.905-3.151 4.682c-1.37.305-4.087-8.126-4.087-8.126s-.415 4.282-3.015 4.758c-.735.134-9.413-24.294-9.413-24.294l.522 5.517 1.152 5.651s-.093 3.042-2.536 3.58c-.97.214-2.832-4.86-4.577-10.828C-.375 58.327-.32 51.348.478 44.408c.965-8.388.535-11.204 4.269-21.489 1.541-4.243 4.897-10.655 6.676-13.389l24.644 2.743z" id="E"/><path d="M99.829 19.133L101.025 0l55.549 3.429-1.084 17.357c31.173 11.935 33.866 23.592 41.33 38.916 8.174 16.784 16.649 68.328 16.649 68.328l35.5 88.975-43.52 24.078-10.702-20.605.268-27.497-132.985-.004-.93-33.86-11.33 67.919-49.74 2.336s-.985-70.735 8.486-111.654c6.029-26.065 35.489-74.498 63.385-91.153 6.812-4.068 17.037-6.296 27.928-7.432z" id="F"/><path d="M51.947 198.999l.135-.001c10.567 0 19.132 10.98 19.132 24.524s-8.564 24.522-19.131 24.523l-10.521.001v-.01c-10.325-.354-18.609-11.194-18.609-24.514s8.285-24.161 18.609-24.515v-.008h.387l.135-.001.135.001h9.729zm89.582 0l.135-.001c10.566 0 19.132 10.98 19.132 24.524s-8.566 24.523-19.131 24.523l-10.521.001v-.01c-10.324-.355-18.609-11.194-18.609-24.514s8.285-24.16 18.609-24.515v-.008h.388l.135-.001.135.001h9.728zM53.02 28.115c-7.711 0-14.018-6.325-14.018-14.057S45.31 0 53.02 0h63.162c7.71 0 14.018 6.326 14.018 14.057s-6.309 14.057-14.018 14.057H53.02zm26.308 464.63H0l12.533-32.187 66.794 32.187zm114.733 0h-79.328l12.533-32.187 66.794 32.187z" id="G"/><path d="M63.286 124.415l-.911.011c-20.042 0-36.289-16.248-36.289-36.29s16.247-36.29 36.289-36.29c4.281 0 8.389.741 12.202 2.102C92.459 21.773 126.795 0 166.216 0c37.604 0 70.581 19.811 89.063 49.565 3.665-1.245 7.594-1.921 11.681-1.921 20.042 0 36.29 16.248 36.29 36.29 0 19.062-14.698 34.691-33.378 36.174-7.421 50.591-51.002 89.431-103.655 89.431-51.147 0-93.734-36.652-102.929-85.124h0zM.076 224.623c-1.101-14.748 9.963-27.595 24.711-28.696l37.051-2.764c14.748-1.101 27.595 9.963 28.695 24.71l6.302 84.456c1.1 14.748-9.963 27.595-24.71 28.696l-37.052 2.765c-14.748 1.1-27.595-9.964-28.695-24.711L.076 224.623zm241.64-6.641c.078-14.789 12.131-26.713 26.919-26.634l37.154.197c14.788.08 26.713 12.132 26.634 26.92l-.451 84.689c-.078 14.789-12.131 26.714-26.919 26.635l-37.154-.198c-14.788-.079-26.713-12.131-26.634-26.92l.451-84.689z" id="H"/><path d="M42.094 139.539c-22.888 0-41.615-18.727-41.615-41.615V75.462c0-22.888 18.727-41.615 41.615-41.615h4c22.889 0 41.616 18.727 41.616 41.615v22.462c0 22.888-18.727 41.615-41.616 41.615h-4zM68.325 10.385C68.325 4.65 72.974.001 78.71.001S89.095 4.65 89.095 10.385A10.39 10.39 0 0 1 78.71 20.77c-5.736 0-10.385-4.65-10.385-10.385z" id="I"/><path id="J" d="M1070.742 646.431c2.758 23.966-6.212 44.443-6.212 44.443s-13.441-18.378-16.199-42.344 6.211-44.443 6.211-44.443 13.441 18.379 16.2 42.344"/><path id="K" d="M995.255 665.172c-.861 24.109-12.796 43.012-12.796 43.012s-10.538-20.183-9.677-44.292 12.795-43.012 12.795-43.012 10.539 20.184 9.678 44.292"/><path id="L" d="M1064.923 665.66c11.993 21.529 11.65 43.545 11.65 43.545s-19.789-12.889-31.783-34.418-11.65-43.544-11.65-43.544 19.789 12.888 31.783 34.417"/><path id="M" d="M1081.807 649.003c-3.067 23.935-16.746 42.171-16.746 42.171s-8.705-20.57-5.638-44.505 16.746-42.171 16.746-42.171 8.705 20.57 5.638 44.505"/><path id="N" d="M1091.792 666.303c-9.876 22.387-28.35 36.777-28.35 36.777s-2.462-21.905 7.414-44.293 28.35-36.777 28.35-36.777 2.461 21.906-7.414 44.293"/><path id="O" d="M1038.286 672.797h56.688l-5.985 44.664h-44.719z"/><path id="P" d="M987.585 671.507c9.906 21.133 7.982 42.678 7.982 42.678s-17.987-12.72-27.893-33.854-7.984-42.678-7.984-42.678 17.988 12.72 27.895 33.854"/><path id="Q" d="M1002.531 681.834c-8.751 21.645-26.032 35.349-26.032 35.349s-3.092-21.389 5.66-43.034 26.032-35.349 26.032-35.349 3.092 21.389-5.66 43.034"/><path id="R" d="M963.674 682.979h43.766l-4.621 34.481h-34.524z"/><path id="S" d="M117.921 79.312c.492 2.721-1.317 5.325-4.042 5.817s-5.333-1.314-5.826-4.035 1.317-5.324 4.041-5.817 5.334 1.314 5.827 4.035"/><path id="T" d="M117.066 99.622s3.466 5.613 10.333 5.138"/><path id="U" d="M29.457 223.574c0 7.928 4.283 14.356 9.565 14.356s9.565-6.428 9.565-14.356-4.282-14.357-9.565-14.357-9.565 6.428-9.565 14.357"/></defs><g transform="translate(-183 -105)" fill="none" fill-rule="evenodd"><path d="M870.781 745.211h29.668V186.715h-29.668z" class="H"/><path d="M1168.314 759.654h9.598V173.551h-9.598z" class="B"/><path d="M1060.022 173.75v292.213M961.821 173.75v292.213m206.493.64H891.253" stroke="#dceeff" class="M"/><path d="M854.62 759.654h313.694V173.552H854.62v586.102zm28.999-29h255.695V202.551H883.619v528.103z" class="D"/><path d="M846.74 730.704h329.453v-13.243H846.74z" class="H"/><path d="M1176.192 730.704h8.133v-13.243h-8.133z" class="B"/><g class="K"><use xlink:href="#J"/><use xlink:href="#K"/><use xlink:href="#L"/><use xlink:href="#M"/><use xlink:href="#N"/></g><path d="M795 146.249h434.29V126H795z" class="D"/><path d="M1225.658 146.249h10.275V126h-10.275zm-.132 124.731h6.381v-12.996h-6.381z" class="B"/><path d="M806.143 257.984h414.693V146.25H806.143z" class="D"/><path d="M799.405 270.98h427.553v-12.996H799.405z" class="C"/><g class="B"><path d="M806.143 163.24h414.693v-16.991H806.143z"/><use xlink:href="#O"/></g><g class="K"><use xlink:href="#P"/><use xlink:href="#Q"/></g><use xlink:href="#R" class="B"/><path d="M1726.781 745.211h29.668V186.715h-29.668z" class="H"/><path d="M2024.314 759.654h9.598V173.551h-9.598z" class="B"/><path d="M1916.022 173.75v292.213m-98.201-292.213v292.213m206.493.64h-277.061" stroke="#dceeff" class="M"/><path d="M1710.62 759.654h313.694V173.552H1710.62v586.102zm28.999-29h255.695V202.551h-255.695v528.103z" class="D"/><path d="M1702.74 730.704h329.453v-13.243H1702.74z" class="H"/><path d="M2032.192 730.704h8.133v-13.243h-8.133z" class="B"/><g class="K"><use xlink:href="#J" x="856"/><use xlink:href="#K" x="856"/><use xlink:href="#L" x="856"/><use xlink:href="#M" x="856"/><use xlink:href="#N" x="856"/></g><path d="M1651 146.249h434.29V126H1651z" class="D"/><path d="M2081.658 146.249h10.275V126h-10.275zm-.132 124.731h6.381v-12.996h-6.381z" class="B"/><path d="M1662.143 257.984h414.693V146.25h-414.693z" class="D"/><path d="M1655.405 270.98h427.553v-12.996h-427.553z" class="C"/><g class="B"><path d="M1662.143 163.24h414.693v-16.991h-414.693z"/><use xlink:href="#O" x="856"/></g><g class="K"><use xlink:href="#P" x="856"/><use xlink:href="#Q" x="856"/></g><use xlink:href="#R" x="856" class="B"/><path d="M1516.402 175.763c0 39.081-31.682 70.763-70.764 70.763s-70.762-31.682-70.762-70.763S1406.557 105 1445.638 105s70.764 31.681 70.764 70.763" class="C"/><path d="M1502.527 175.763c0 39.081-31.683 70.763-70.764 70.763s-70.762-31.682-70.762-70.763S1392.682 105 1431.763 105s70.764 31.681 70.764 70.763" class="D"/><path d="M1485.387 175.758c0 27.622-20.877 50.36-47.702 53.307a53.82 53.82 0 0 1-5.916.322c-29.622 0-53.63-24.007-53.63-53.629 0-29.611 24.008-53.619 53.63-53.619a53.82 53.82 0 0 1 5.916.323c26.825 2.947 47.702 25.685 47.702 53.296" class="C"/><path d="M1485.387 175.758c0 27.622-20.877 50.36-47.702 53.307-26.837-2.947-47.714-25.685-47.714-53.307 0-27.611 20.877-50.349 47.714-53.296 26.825 2.947 47.702 25.685 47.702 53.296" class="H"/><g stroke-width="8" class="I"><path d="M1434.089 145.943l17.375 37.895"/><path d="M1453.119 167.951l-38.06 41.37"/></g><path d="M1533.063 898.154h-69.129V758.722c0-5.922 4.801-10.721 10.723-10.721h47.683c5.922 0 10.723 4.799 10.723 10.721v139.432z" class="C"/><g class="D"><path d="M1623.183 880.112a28.06 28.06 0 0 1-6.53 18.04h-43.35a28.06 28.06 0 0 1-6.53-18.04c0-15.58 12.63-28.21 28.21-28.21 15.57 0 28.2 12.63 28.2 28.21"/><path d="M1585.235 860.112h19.486v-16.616h-19.486z"/><path d="M1580.105 843.496h29.744v-8.615h-29.744z"/></g><path d="M1583.484 898.154h-41.629l20.815-32.549zm-119.55-18.275h69.129v-81.665h-69.129zm10.052 12.746h23.718v-5.539h-23.718zm-10.052-127.924h69.129v-1.87h-69.129z" class="B"/><path d="M1680.18 1051.693v47.749" class="C"/><path d="M1680.18 1051.693v47.749" class="I L"/><path d="M1604.487 1051.693v47.749" class="C"/><path d="M1604.487 1051.693v47.749" class="I L"/><path d="M1274.642 1051.693v47.749" class="C"/><path d="M1274.642 1051.693v47.749" class="I L"/><path d="M1198.949 1051.693v47.749" class="C"/><path d="M1198.949 1051.693v47.749" class="I L"/><path d="M1165 1051.693h406.154V898.154H1165z" class="D"/><path d="M1188.384 1034.578h169.436V915.193h-169.436zm189.948 0h169.437V915.193h-169.437z" class="C"/><path d="M1571.155 1051.693h142.358V898.154h-142.358z" class="B"/><path d="M1265.312 860.652v.001c0 6.903 5.597 12.5 12.501 12.5h112.469v-25.001h-112.469c-6.904 0-12.501 5.597-12.501 12.5" class="C"/><path d="M1340.958 860.652v.001a7.24 7.24 0 0 0 7.236 7.236h41.787a.3.3 0 0 0 .301-.3v-13.873a.3.3 0 0 0-.301-.3h-41.787a7.24 7.24 0 0 0-7.236 7.236" class="D"/><path d="M1249.615 873.153v25.001h122.759c6.904 0 12.501-5.597 12.501-12.5s-5.597-12.501-12.501-12.501h-122.759z" class="C"/><path d="M1249.615 878.486v14.335h50.474a7.17 7.17 0 0 0 7.168-7.167 7.17 7.17 0 0 0-7.168-7.168h-50.474z" class="D"/><path d="M1307.847 915.193h0c0 9.12-7.393 16.513-16.513 16.513h-36.463c-9.119 0-16.512-7.393-16.512-16.513h69.488zm189.949 0h0c0 9.12-7.394 16.513-16.514 16.513h-36.462c-9.12 0-16.513-7.393-16.513-16.513h69.489z" class="B"/><g transform="matrix(-1 0 0 1 1153 645)"><g class="B"><path d="M230.641 331.179h564.375V197.507H230.641z"/><path d="M388.975 225.794h406.888c21.178 0 38.852-16.171 40.729-37.267l12.725-143.013C851.445 21.595 832.6 1 808.587 1H401.699c-21.179 0-38.853 16.171-40.73 37.267L348.246 181.28c-2.128 23.919 16.715 44.514 40.729 44.514M54.074 396.124h158.361c23.424 0 41.826-20.056 39.814-43.395l-13.11-152.051c-1.781-20.663-19.074-36.529-39.813-36.529H40.965c-23.425 0-41.827 20.056-39.815 43.394l13.11 152.052c1.782 20.663 19.074 36.529 39.814 36.529"/></g><path d="M266.555 225.794h452.029c21.179 0 38.853-16.171 40.73-37.267l12.723-143.013C774.165 21.595 755.322 1 731.308 1H279.279c-21.179 0-38.853 16.171-40.73 37.267L225.825 181.28c-2.127 23.919 16.716 44.514 40.73 44.514" class="D"/><path d="M70.794 396.124h690.239v-70.002H70.794z" class="C"/><path d="M165.029 326.122h485.633c24.119 0 43.671-19.552 43.671-43.67s-19.552-43.67-43.671-43.67H165.029c-24.118 0-43.67 19.552-43.67 43.67s19.552 43.67 43.67 43.67" class="D"/><path d="M892.204 452.84h16.564l-7-56.716h-30.564zm-142.358 0h16.563l-7-56.716h-30.563zm-676.437 0H56.846l7-56.716h30.563zm142.359 0h-16.564l7-56.716h30.564z" class="B"/><path d="M54.074 396.124h23.729c23.425 0 41.827-20.056 39.815-43.395l-13.109-152.051c-1.782-20.663-19.075-36.529-39.815-36.529H40.965c-23.425 0-41.827 20.056-39.815 43.394l13.11 152.052c1.782 20.663 19.074 36.529 39.814 36.529" class="C"/><path d="M737.888 396.124h178.361c20.74 0 38.033-15.866 39.814-36.529l13.109-152.052c2.013-23.338-16.388-43.394-39.813-43.394H750.997c-20.739 0-38.032 15.866-39.813 36.529l-13.109 152.051c-2.013 23.339 16.388 43.395 39.813 43.395" class="B"/><path d="M737.888 396.124h23.729c20.741 0 38.034-15.866 39.815-36.529l13.109-152.052c2.012-23.338-16.389-43.394-39.814-43.394h-23.73c-20.739 0-38.032 15.866-39.813 36.529l-13.109 152.051c-2.013 23.339 16.388 43.395 39.813 43.395" class="C"/></g><g class="B"><path d="M2261.813 1010.61l37.744 88.703h17.116l-22.707-93.051zm-192.813 0l37.743 88.703h17.116l-22.707-93.051zm-288 88.703h17.116l37.743-88.703-32.152-4.348zm192.813 0h17.116l37.744-88.703-32.153-4.348z"/><path d="M1802.047 803.02v214.78l223.213.477 36.707-212.461-259.92-2.796zm17 17.184l222.769 2.396-30.866 178.647-191.903-.41V820.204z"/></g><path d="M2094.958 670.999l-59.999 347.278h261.749l60.001-347.278z" class="C"/><path d="M2024.572 670.999l-60 347.278h258.575l60-347.278z" class="D"/><path d="M1960.461 1018.277h307.794c15.714 0 28.453-12.739 28.453-28.454v-65.576c0-15.715-12.739-28.454-28.453-28.454h-307.794c-15.715 0-28.454 12.739-28.454 28.454v65.576c0 15.715 12.739 28.454 28.454 28.454" class="C"/><path d="M1800.891 1018.277h272.604V895.793h-272.604z" class="D"/><path d="M2073.495 803.02v214.78l223.213.477 36.708-212.461-259.921-2.796zm17 17.184l222.769 2.396-30.866 178.647-191.903-.41V820.204z" class="B"/><g transform="translate(532 289)"><g transform="translate(245 110)"><path d="M153.23 54.376L50.047 56.989l-.079-1.653-1.229-25.298-.936-19.253C47.5 4.616 52.674-.424 58.843.029l82.972 6.08c5.201.373 9.286 4.569 9.545 9.76l.445 9.093 1.229 25.467.196 3.947z" class="N"/><path d="M153.034 50.429c-14.922 2-32.33 3.573-50.937 4.471-19.018.924-36.852 1.022-52.13.436l-1.229-25.298c15.145-2.062 32.907-3.689 51.933-4.604 18.609-.898 36.078-1.013 51.134-.471l1.229 25.467z" fill="#5e93d1"/><g transform="translate(38.285 37.909)"><mask id="V" class="F"><use xlink:href="#A"/></mask><g class="J"><use xlink:href="#A"/><g mask="url(#V)" class="E"><path d="M0 .313h116v113H0z"/></g></g></g><path fill="#000" d="M107.599 121.266l-23.952-5.128 23.837 16.078z" class="O"/><path fill="#405fd3" d="M127.358 73.57l8.277 20.204-9.92.126z"/><g fill="#0d0b6d"><use xlink:href="#S"/><use xlink:href="#S" x="26.033"/></g><use xlink:href="#T" class="F"/><use xlink:href="#T" stroke="#252535" stroke-width="4"/><path d="M152.919 60.774l-1.18-6.067c-2.036-8.07-63.235-4.989-63.235-4.989l.834 10.854-1.029 5.188C38.791 67.177.365 62.858.003 55.399-.393 47.26 44.677 38.466 100.668 35.756s101.701 1.692 102.097 9.83c.264 5.441-19.792 11.175-49.846 15.188z" class="N"/><path d="M77.234 90.535l-.236-.52C69.181 73.313 55.477 69.84 51.694 69.186l-1.139-9.726c-.605-7.387 37.949-9.742 37.949-9.742s3.764 34.794 1.386 37.763c-1.479 1.85-6.682 2.706-12.656 3.054z" class="G"/></g><g transform="translate(202 435.216)"><g transform="translate(.663 445.047)"><mask id="W" class="F"><use xlink:href="#B"/></mask><use fill="#0d0b6d" xlink:href="#B"/><g mask="url(#W)" class="E N"><path d="M.329 34.156h248v35h-248z"/></g></g><g transform="translate(7.937 449.315)"><mask id="X" class="F"><use xlink:href="#C"/></mask><g fill="#cf3e83"><use xlink:href="#C"/><g mask="url(#X)" class="E"><path d="M0 18.055h170v18H0z"/></g></g></g><mask id="Y" class="F"><use xlink:href="#D"/></mask><g fill="#2f2f3d"><use xlink:href="#D"/><g mask="url(#Y)" class="E"><path d="M0 0h198v474H0z"/></g></g><path fill="#000" opacity=".201" d="M128.762 112.743l12.552-55.554-9.444 168.424z"/></g><g transform="translate(205 242.818)"><g transform="translate(1 208.597)"><mask id="Z" class="F"><use xlink:href="#E"/></mask><g class="J"><use xlink:href="#E"/><g mask="url(#Z)" class="E"><path d="M0 12.101h256v80H0z"/></g></g></g><path d="M224.918 230.134s3.385 12.36 15.002 16.212c4.061 1.347 3.047 17.245 13.003 15.343" stroke="#000" stroke-width="3" opacity=".145"/><g transform="translate(1)"><mask id="a" class="F"><use xlink:href="#F"/></mask><use fill="#72a065" xlink:href="#F"/><g mask="url(#a)" fill="#ea847a" class="E"><path d="M-6 0h255v242H-6z"/></g></g><g stroke="#000" stroke-width="5"><path opacity=".204" d="M62.31 166.766l9.154-47.518 22.642-38.134"/><path d="M194.015 193.18l4.325-69.24" opacity=".199"/></g></g></g><g transform="matrix(-1 0 0 1 2145 334)"><g transform="translate(172.208 411.914)"><path d="M119.679 22.422l18.01 199.107m.001 17.985L130.201 468.4M48.096 20.972l-.994 198.601m0 8.496L20.38 474.837" stroke-width="16" class="P R"/><mask id="b" class="F"><use xlink:href="#G"/></mask><use xlink:href="#G" class="Q"/><g mask="url(#b)" class="E J"><path d="M0-.996h194v508H0z"/></g><g fill="#000"><path d="M130.876 247.894c-10.324-.355-18.609-11.194-18.609-24.514s8.285-24.16 18.609-24.515v-.008h.388l.135-.001.135.001h9.728l.135-.001c10.566 0 19.132 10.98 19.132 24.524s-8.566 24.523-19.131 24.523h-10.521v-.01zm-12.024-24.514c0 7.928 4.283 14.356 9.565 14.356s9.565-6.428 9.565-14.356-4.282-14.357-9.565-14.357-9.565 6.428-9.565 14.357zM41.46 247.993c-10.325-.354-18.609-11.194-18.609-24.514s8.285-24.161 18.609-24.515v-.008h.387.135.135 9.729.135c10.567 0 19.132 10.98 19.132 24.524s-8.564 24.522-19.131 24.523l-10.521.001v-.01h0zm-12.024-24.514c0 7.928 4.283 14.356 9.565 14.356s9.565-6.428 9.565-14.356-4.282-14.357-9.565-14.357-9.565 6.428-9.565 14.357z" opacity=".403"/><use xlink:href="#U" opacity=".603"/><use xlink:href="#U" x="89.466" y="-0.2" opacity=".604"/><path opacity=".396" d="M79.328 492.962H0l12.533-32.187zm114.733 0h-79.328l12.533-32.187z"/></g></g><g transform="translate(86 205)"><g class="P"><path d="M43.078 388.378l-21.074-22.853 30.553-39.266 36.681 31.823-13.229 27.939m195.927.473l-18.891-24.687 34.023-36.301 33.61 35.049-15.733 26.61" class="M"/><path d="M287.444 221.706l-15.145-111.038M45.56 218.324l15.966-110.922" stroke-width="27" class="R"/></g><path d="M224.007 156.422H180.89c-6.425 0-11.633-5.208-11.633-11.633v-43.117c0-6.424 5.208-11.632 11.633-11.632h43.117c6.424 0 11.632 5.208 11.632 11.632v43.117c0 6.425-5.208 11.633-11.632 11.633" class="G"/><path d="M213.007 156.422H180.89c-6.425 0-11.633-5.208-11.633-11.633v-43.117c0-6.424 5.208-11.632 11.633-11.632h32.117c6.424 0 11.632 5.208 11.632 11.632v43.117c0 6.425-5.208 11.633-11.632 11.633" fill="#405fd3"/><g transform="translate(0 18.461)"><mask id="c" class="F"><use xlink:href="#H"/></mask><use xlink:href="#H" class="Q"/><g mask="url(#c)" class="E J"><path d="M0 7.539h332v326H0z"/></g></g><path d="M126.21 26.461h80.013V0H126.21zm86.797 129.961c6.424 0 11.632-5.208 11.632-11.633v-43.117c0-6.424-5.208-11.632-11.632-11.632h11c6.424 0 11.632 5.208 11.632 11.632v43.117c0 6.425-5.208 11.633-11.632 11.633h-11z" class="G"/><path d="M16 241.409l6.652 84.48L16 241.409zM32.488 240l6.652 84.48L32.488 240z" stroke="#000" stroke-width="9" opacity=".402" stroke-linejoin="round"/><g fill="#000"><path d="M213.05 156.382h-32.117c-6.425 0-11.633-5.208-11.633-11.633v-43.117c0-6.424 5.208-11.632 11.633-11.632h32.117c6.424 0 11.632 5.208 11.632 11.632v43.117c0 6.425-5.208 11.633-11.632 11.633zm-26.623-36.527a8.43 8.43 0 0 0 8.428-8.428 8.43 8.43 0 0 0-8.428-8.427 8.43 8.43 0 0 0-8.427 8.427 8.43 8.43 0 0 0 8.427 8.428zm23.949 0a8.43 8.43 0 0 0 8.428-8.428 8.43 8.43 0 0 0-8.428-8.427 8.43 8.43 0 0 0-8.428 8.427 8.43 8.43 0 0 0 8.428 8.428zm-23.949 24.358a8.43 8.43 0 0 0 8.428-8.428 8.43 8.43 0 0 0-8.428-8.427 8.43 8.43 0 0 0-8.427 8.427 8.43 8.43 0 0 0 8.427 8.428z" class="O"/><path d="M25 106.29c0 20.042 16.247 36.29 36.289 36.29s36.29-16.248 36.29-36.29S81.331 70 61.289 70 25 86.248 25 106.29" opacity=".404"/><path d="M242.451 236.634L242 321.323c-.079 14.789 11.846 26.841 26.634 26.92l37.154.198c14.788.079 26.841-11.846 26.919-26.635l.451-84.689c.079-14.788-11.846-26.84-26.634-26.92L269.37 210c-14.788-.079-26.841 11.845-26.919 26.634" opacity=".399"/><path d="M255 68.421c3.665-1.245 7.594-1.921 11.681-1.921 20.042 0 36.29 16.248 36.29 36.29 0 19.062-14.698 34.691-33.378 36.174a105.63 105.63 0 0 0 1.115-15.338c0-20.259-5.75-39.175-15.707-55.205h0z" class="O"/><path d="M186.427 144.205a8.43 8.43 0 0 0 8.428-8.428 8.43 8.43 0 0 0-8.428-8.427 8.43 8.43 0 0 0-8.427 8.427 8.43 8.43 0 0 0 8.427 8.428" opacity=".598"/></g></g><g transform="translate(203 57)"><g class="G"><path d="M97.859 95.308h13.351c5.309 0 9.653-4.344 9.653-9.654S116.519 76 111.21 76H97.859c-5.31 0-9.654 4.345-9.654 9.654s4.344 9.654 9.654 9.654"/><path d="M45.657 113.554c2.015-5.456 9.66-8.676 17.075-7.193s11.793 7.107 9.777 12.563l-10.167 27.522c-2.015 5.456-2.693 7.019-11.843 7.019H37.378c-4.78 0-6.247-3.089-1.888-12.388l10.167-27.522z" class="E"/></g><g transform="translate(15)"><mask id="d" class="F"><use xlink:href="#I"/></mask><use xlink:href="#I" class="Q"/><g mask="url(#d)" class="E J"><path d="M0-3h89v144H0z"/></g></g><g class="G"><path d="M89.537 19.898c-6.808 5.929-10.684 12.485-11.853 21.415a3 3 0 0 1-5.949-.779C73.081 30.25 77.493 22.631 84.94 15.95c1.101 1.731 2.7 3.114 4.597 3.947z" class="E"/><path d="M72.718 78.381c.524 2.966-1.455 5.794-4.421 6.318s-5.794-1.455-6.318-4.421 1.455-5.794 4.421-6.318 5.795 1.455 6.318 4.421m28.31.116c.524 2.966-1.456 5.794-4.421 6.318s-5.794-1.455-6.318-4.421 1.455-5.794 4.421-6.318 5.794 1.456 6.318 4.421"/></g><path d="M79.12 72.492l13.76 21.834-14.811.358z" fill="#000" opacity=".404"/><path d="M9.654 93.242h12.953V73.934H9.654C4.344 73.934 0 78.279 0 83.588s4.344 9.654 9.654 9.654" class="G"/><path d="M76.321 104.871c-6.552 1.11-12.677-2.632-13.342-6.554" stroke-width="4" class="P"/></g></g></g></svg>