<svg xmlns="http://www.w3.org/2000/svg" xmlns:xlink="http://www.w3.org/1999/xlink" width="1772" height="1164" xmlns:v="https://vecta.io/nano"><style><![CDATA[.B{fill:#fff}.C{fill:#dceeff}.D{fill:#cce3ff}.E{fill-rule:nonzero}.F{stroke-width:5}.G{stroke:#dceeff}.H{fill:#b6d4ff}.I{stroke-width:3}.J{stroke:#000}.K{fill:#ecf6ff}.L{fill:#0d0b6d}.M{stroke-width:20}.N{fill:#19141e}.O{fill:#202128}.P{stroke:#202128}.Q{fill:#3d3e44}.R{fill:#cf3e83}.S{fill:#c83820}.T{fill:#18181c}.U{stroke-width:7}]]></style><defs><path d="M78.1 86.325c-6.59 4.38-18.59 4.92-28.82 4.33l-2.34 29.05-33.38-13.74 4.601-44.35C11.451 55.535.02 52.715 0 42.385c0-3.58 2.09-9.77 9.81-9.79 10.36-.01 8.88 12.41 8.88 12.41 11.721 4.55 23.71-34.83 30.62-43.75 3.78-4.88 32.8 6.04 32.8 6.04l16.47 18.42c.32 2.27-.84 47.55-20.48 60.61" id="A"/><path d="M222.802 243.571l-22.811 2.859-36.739-57.46-1.341-19.099-55.969-.83-23.89-.35h-.05l-6.89-.44c-30.09-2.1-71.78-7.951-74.64-24.151-5.19-29.34 34.07-86.279 38.71-92.879l.439-.63c6.58-9.4 13.201-16.71 19.381-20.6 12.02-7.57 23.29-9.231 34-9.2L95.871.001l43.691 6.029-2.38 17.281c12.83 1.23 21.559 3.739 29.729 11.239 26.231 24.081 28.161 114.271 28.161 114.271l27.73 94.75z" id="B"/><path d="M125.405 107.62c5.244 6.172 11.63 13.843 12.56 15.67 1.614 3.171 4.599 18.868 4.457 21.97s-9.444 17.037-9.444 17.037c-5.771-1.414-2.002-8.611-2.002-8.611s-5.169 4.371-7.318 4.297c-20.24-.69-19.156-10.937-18.677-12.221 1.075-2.882 6.478.414 6.478.414s-10.387-21.074-7.887-35.819l21.833-2.736zM63.831 29.045s3.591.915 3.659 3.172c0 .641-21.878 4.779-21.878 4.779l4.762.282 4.95-.239s2.573.479 2.719 2.616c.051.846-4.506 1.752-9.807 2.445-8.241 1.086-14.166.129-19.963-1.453l-1.41-.376c-5.968-1.565-8.627-1.856-16.303-6.037-3.404-1.855-8.422-5.531-10.516-7.395L5.575 6.372l7.626-2.607s3.539-1.386 9.516-2.489C26.47.584 30.133.858 34.006.439l-2.2 8.063c-.248.179-.532.785-.746 1.017.164.136.326.29.514.461 1.581 1.445 4.573 4.009 17.449 7.224 2.582.642 11.251.761 11.251.761 2.548.367 7.9.863 8.268 3.864.094.744-.838 1.548-.838 1.548s3.359.231 3.564 3.274c.086 1.197-7.437 2.394-7.437 2.394z" id="C"/><path d="M26.697 104.714l-2.581 22.528s48.02 12.589 66.073 31.312l-89.518.155 3.351-64.522 22.675 10.527zM129.734 0l10.311 20.292s47.177-16.044 72.657-10.36l-74.03 49.132-33.751-55.326L129.734 0z" id="D"/><path d="M.937 97.597l23.785 9.453-.203 18.702-24.313-.893.731-27.262zm104.26-91.727L130.345.619l10.183 15.772-20.851 12.71-14.48-23.23z" id="E"/><path d="M234.667 201.1l-12.31 133.624h-57.019l2.531-194.014-108.835.75c-31.048 0-61.078-26.664-58.925-57.653l3.385-31.55L169.7 3.155c30.769-6.957 41.437 2.234 61.385 37.744l88.076 180.539-48.384 32.333-36.11-52.67z" id="F"/><path d="M174.95 16.323l-.275 25.133s52.989 8.875 70.953 30.391H140.057L144.479 0l30.471 16.323zM44.317 10.567l-.291 29.893s23.636 3.283 33.256 31.148H.764l7.652-32.801 2.994-29.9 32.907 1.66z" id="G"/><path d="M136.797 6.331l30.471 9.737-.275 25.133-32.652-1.561 2.455-33.309zM4.366 0l32.269 10.312-.291 29.893-35.61-1.653L4.366 0z" id="H"/><path d="M188.905 77.63l-20.64 198.26H112.76l9.394-198.26H53.983C24.169 77.63 0 53.855 0 24.527V.926h79.683 184.061c38.594 0 68.458 33.578 63.684 71.604l-26.664 203.36H244.31l2.599-198.26h-58.004z" id="I"/><path d="M72.134 118.03l-.843-29.227s36.298 2.828 43.874-1.119c0 0 5.758-35.514.283-60.695L85.643 0 37.542 3.552l-5.459 43.662c-2.517-7.447-25.43-16.781-30.93-.077-7.093 21.541 33.788 32.86 33.788 32.86l-4.272 38.385" id="J"/><path d="M219.863 162.906l1.282 8.188c1.984 12.675-8.708 24.024-22.634 24.024H68.664c-14.185 0-24.947-11.754-22.533-24.607l1.552-8.26c-19.858-7.03-45.29-21.825-47.523-51.765-2.761-37.04 30.841-70.721 53.821-89.227C58.977 15.665 65.063 10.74 72.459 7.29c28.205-13.153 83.908-4.127 83.908-4.127 20.621 6.225 34.488 9.525 43.833 19.585 23.2 17.058 66.833 54.313 67.938 93.913.715 25.616-27.743 39.544-48.276 46.244z" id="K"/><path d="M62.549 22.258l18.428 20.277 11.895-31.211 23.895 20.446-36.23 22.861-50.232-31.103-30.153 9.26S6.85-.086 49.573 0C69.612.04 73.8 11.096 72.597 22.825c-.042.412-1.906.064-2.521 0-3.598-.376-4.593-.399-7.302-.555l-.225-.012zm79.141 178.996h-51.7-62.725l1-14.558c15.735-5.531 24.639-24.434 24.37-64.639l35.919.528 31.775.467c.313 35.173 6.753 51.08 20.361 62.65l1 15.552z" id="L"/><path id="M" d="M1055.17 683.894h152.254l20.56-205.394h-152.253z"/><path id="N" d="M1046.952 683.894h155.086l20.56-205.394h-155.086z"/><path id="O" d="M935.033 1124.806h37.951V869.67h-37.951z"/><path id="P" d="M1499.414 376.577h486.808v-16.753h-486.808z"/><path id="Q" d="M79.337 110.574s3.175 5.786 10.037 5.649"/><path id="R" d="M392.733.5l-10.404 103.899H245.728L256.132.5z"/><path id="S" d="M389.677.5l-10.404 103.899H240.131L250.536.5z"/><path id="T" d="M103.141 124.995l33.047 51.846v-51.846z"/><path id="U" d="M84.853 124.995l33.047 51.846h18.288l-33.047-51.846z"/><path id="V" d="M201.53 130.663h96.487L311.047.5H214.56z"/><path id="W" d="M196.322 130.663h98.282L307.635.5h-98.283z"/><path id="X" d="M456.356 39.213l-9.03 90.181H328.762l9.031-90.181z"/><path id="Y" d="M453.703 39.213l-9.03 90.181h-120.77l9.031-90.181z"/></defs><g transform="translate(-253 -105)" fill="none" fill-rule="evenodd"><use xlink:href="#M" class="C"/><use xlink:href="#M" class="F G"/><use xlink:href="#N" class="B"/><use xlink:href="#N" class="F G"/><path d="M1076.655 656.774h101.109l15.131-151.153h-101.109z" class="C"/><path d="M957.432 644.273h-6.849c-31.938 0-57.83-25.892-57.83-57.831h122.509c0 31.939-25.892 57.831-57.83 57.831" class="K"/><path d="M894.669 644.273h0c0 6.904 5.597 12.501 12.5 12.501h112.469v-25.001H907.169c-6.903 0-12.5 5.597-12.5 12.5" class="C"/><path d="M970.313 644.273h0a7.24 7.24 0 0 0 7.237 7.237h41.786a.3.3 0 0 0 .301-.301v-13.872a.3.3 0 0 0-.301-.3H977.55a7.24 7.24 0 0 0-7.237 7.236" class="K"/><path d="M878.971 656.774v25.001h122.759c6.903 0 12.5-5.597 12.5-12.501s-5.597-12.5-12.5-12.5H878.971z" class="C"/><path d="M878.971 662.107v14.335h50.474a7.17 7.17 0 0 0 7.167-7.168 7.17 7.17 0 0 0-7.167-7.167h-50.474z" class="K"/><path d="M878.971 1131.705h335.961V785.934H878.971z" class="D"/><g class="C"><path d="M1193.301 1131.705h47.909V795.781h-47.909z"/><path d="M837.476 801.118h403.735V711.58H837.476z"/></g><path d="M790 711.581h503.818v-30.686H790z" class="D"/><g class="H"><path d="M1241.211 1131.705h23.375V711.581h-23.375zm-355.827 0h15.218V801.454h-15.218z"/><path d="M1259.846 711.581h48.41v-30.686h-48.41z"/></g><g class="C"><path d="M837.475 1131.705h47.909V785.524h-47.909z"/><path d="M824.073 1131.705h61.312v-84.658h-61.312zm369.228 0h61.816v-84.658h-61.816z"/></g><g class="K"><path d="M985.687 1118.652s-55.152-32.336 11.309-126.408c0 0 34.212 39.95 47.384-7.385 0 0 37.287 59.113 13.079 94.813"/><path d="M1107.955 1121.934s49.656-39.845 9.451-120.05c0 0-57.64 61.539-72.205-52.512 0 0-42.091 86.109-15.647 127.436"/></g><g class="C"><path d="M972.637 1131.705h150.23v-31.144h-150.23z"/><path d="M1115.514 1082.927l-10.305-29.241-122.952 46.851 10.306 29.243z"/><path d="M1108.027 1131.121l10.787-32.6-120.247-43.02-10.786 32.599z"/></g><path d="M1251.522 1131.705h26.855v-84.658h-26.855z" class="H"/><g stroke="#b6d4ff" class="F"><use xlink:href="#O"/><use xlink:href="#O" x="37.951"/><use xlink:href="#O" x="75.902"/><use xlink:href="#O" x="113.854"/><use xlink:href="#O" x="151.805"/><use xlink:href="#O" x="189.756"/></g><path d="M791.646 1029.94v1.66c0 13.85-10.745 25.069-23.988 25.069H579.754c-28.984 0-51.289-27.809-47.289-58.969l21.214-173.62c1.837-14.38 13.157-25.08 26.534-25.08h55.691c13.368 0 24.687 10.7 26.535 25.08l21.214 173.62c.162 1.24.277 2.48.345 3.71l.114-.02s3.924 28.55 40.399 28.55h67.135z" class="C"/><path d="M591.607 1252.242a16.04 16.04 0 0 1-16.035 16.034c-8.856 0-16.034-7.179-16.034-16.034s7.178-16.035 16.034-16.035a16.04 16.04 0 0 1 16.035 16.035" class="H"/><g class="D"><path d="M737.923 1255.456H579.462c-6.069 0-11.035-4.966-11.035-11.035s4.966-11.036 11.035-11.036h158.461c6.069 0 11.035 4.967 11.035 11.036s-4.966 11.035-11.035 11.035"/><path d="M650.562 1250.208h16.262V1056h-16.262z"/><path d="M714.414 1056l-55.721 25.376-55.72-25.376z"/></g><g class="H"><path d="M659.925 1255.456h-20.562c-6.07 0-11.036-4.966-11.036-11.035s4.966-11.036 11.036-11.036h20.562c6.069 0 11.035 4.967 11.035 11.036s-4.966 11.035-11.035 11.035"/><path d="M646.437 1252.242c0 8.855-7.179 16.034-16.034 16.034a16.04 16.04 0 0 1-16.035-16.034c0-8.855 7.178-16.035 16.035-16.035a16.04 16.04 0 0 1 16.034 16.035m112.473 0c0 8.855-7.179 16.034-16.035 16.034s-16.034-7.179-16.034-16.034 7.178-16.035 16.034-16.035a16.04 16.04 0 0 1 16.035 16.035"/></g><g transform="translate(540 612)"><g transform="translate(32 36)"><g class="N"><path d="M185.796 63.869c0 36.431-28.19 65.964-62.966 65.964S59.864 100.3 59.864 63.869 85.002.001 119.777.001s66.019 27.437 66.019 63.868"/><path d="M74.291 29.903c7.051-.194 9.03-9.717 2.745-12.919-5.786-2.949-13.095-5.249-22.026-5.558C37.118 10.807 8.8 23.935 3.583 53.032-2.233 85.469 21.392 100.62 0 127.825l58.286 20.694s10.897-18.454-1.543-45.978C45.601 77.889 28.712 31.153 74.291 29.903"/></g><path d="M128.982 131.575s-12.931.382-18.442-2.628l17.755 11.147.687-8.519z" class="R"/><g transform="translate(79.699 40.916)"><mask id="Z" class="B"><use xlink:href="#A"/></mask><g fill="#ed4848"><use xlink:href="#A"/><g mask="url(#Z)" class="E"><path d="M.301.084h101v120h-101z"/></g></g></g><path fill="#405fd3" d="M157.091 85.894l7.4 17.94-8.585-.172z"/><path d="M149.212 86.672c-.184 3.584-2.292 6.376-4.708 6.237s-4.225-3.157-4.04-6.741 2.292-6.376 4.708-6.237 4.225 3.158 4.04 6.741m22.688-.573c-.185 3.584-2.292 6.376-4.708 6.237s-4.225-3.157-4.041-6.741 2.292-6.377 4.708-6.238 4.225 3.158 4.041 6.742" class="L"/><path d="M153.8 112.255s-5.594 1.806-11.2-4.427" stroke="#1c295e" class="I"/><path d="M128.96 131.575s-12.93.382-18.442-2.629l17.755 11.147.687-8.518z" fill="#000" opacity=".403"/><g class="N"><path d="M98.394 85.916s44.574 3.738 67.686-48.98l-51.078-8.923"/><path d="M158.335 29.654s-.051 36.718 20.77 54.975l2.359-23.385"/></g></g><g transform="translate(27 162)"><path d="M82.002 168.691l-6.91-.101.019-.339 6.891.44" class="S"/><mask id="a" class="B"><use xlink:href="#B"/></mask><use xlink:href="#B" class="S"/><g mask="url(#a)" class="E L"><path d="M0-1h242v247H0z"/></g><path d="M105.942 169.041v.4s-10.02.02-23.89-.75l23.89.35z" class="S"/><path d="M161.108 169.639c3.208-40.743 25.413-49.358 9.413-95.051" opacity=".201" class="I J"/><path d="M198.884 220.043l-83.438-9.617c-2.733-.316-4.532-3.002-3.783-5.648L144.631 88.3c.596-2.105 2.63-3.467 4.804-3.217l83.438 9.617c2.732.315 4.532 3.002 3.782 5.648l-32.967 116.477c-.596 2.106-2.631 3.468-4.804 3.218" class="T"/><path d="M124.791 176.515l.482.132c5.797 1.582 11.722 2.539 19.963 1.453 5.301-.693 9.858-1.599 9.807-2.445-.146-2.137-2.719-2.616-2.719-2.616l-4.95.239-4.762-.282s21.878-4.138 21.878-4.779c-.068-2.257-3.659-3.172-3.659-3.172s7.523-1.197 7.437-2.394c-.205-3.043-3.564-3.274-3.564-3.274s.932-.804.838-1.548c-.368-3.001-5.72-3.497-8.268-3.864 0 0-8.669-.119-11.251-.761-6.791-1.696-10.832-3.21-13.367-4.475l16.942-59.857c.596-2.105 2.631-3.467 4.804-3.217l83.438 9.618a4.46 4.46 0 0 1 3.782 5.647l-32.967 116.477a4.46 4.46 0 0 1-4.804 3.218l-83.438-9.617c-2.732-.316-4.532-3.002-3.783-5.648l8.162-28.835z" fill="#fcbda4"/><g transform="translate(97 136)"><mask id="b" class="B"><use xlink:href="#C"/></mask><use fill="#e576c6" xlink:href="#C"/><g mask="url(#b)" fill="#ed4848" class="E"><path d="M-3 0h148v162H-3z"/></g></g><path d="M212.592 254.051s2.84 10.729 12.587 14.072c3.409 1.169 2.558 14.969 10.911 13.319" opacity=".148" class="I J"/><path d="M158.075 96.507c-.657 2.064-2.059 3.461-3.132 3.12s-1.41-2.292-.753-4.356 2.059-3.462 3.132-3.121 1.41 2.292.753 4.357" fill="#020101"/><path opacity=".2" d="M74.029 82.667l-21.06 34.872 52.363 20.719" class="I J"/></g><g transform="translate(100 278)"><g transform="translate(172 219.741)"><mask id="c" class="B"><use xlink:href="#D"/></mask><g class="L"><use xlink:href="#D"/><g mask="url(#c)" class="E"><path d="M-5 3.259h218v155H-5z"/></g></g></g><g transform="translate(174 222)"><mask id="d" class="B"><use xlink:href="#E"/></mask><g class="R"><use xlink:href="#E"/><g mask="url(#d)" class="E"><path d="M-8-12h176v149H-8z"/></g></g></g><mask id="e" class="B"><use xlink:href="#F"/></mask><g fill="#2f2f3d"><use xlink:href="#F"/><g mask="url(#e)" class="E"><path d="M0 0h319v340H0z"/></g></g><path d="M183.586 63.745h0L59.034 141.46l108.835-.75-2.531 194.014h57.019l19.548-212.184c4.823-38.607-19.339-58.795-58.319-58.795" opacity=".15" class="T"/></g></g><path d="M1940.071 678.578c0 26.544-31.061 48.063-69.376 48.063s-69.377-21.519-69.377-48.063 31.062-48.062 69.377-48.062 69.376 21.518 69.376 48.062" fill="#d2e9fc"/><g class="D"><path d="M1873.191 627.436c1.974 13.433-4.736 24.891-4.736 24.891s-9.909-10.322-11.882-23.755 4.735-24.891 4.735-24.891 9.909 10.322 11.883 23.755"/><path d="M1870.303 636.211c8.826 12.084 8.507 24.419 8.507 24.419s-14.63-7.257-23.457-19.342-8.506-24.419-8.506-24.419 14.63 7.258 23.456 19.342"/><path d="M1881.384 628.897c-2.345 13.406-12.537 23.599-12.537 23.599s-6.392-11.542-4.047-24.948 12.537-23.598 12.537-23.598 6.391 11.542 4.047 24.947"/><path d="M1888.734 638.608c-7.386 12.525-21.121 20.555-21.121 20.555s-1.761-12.279 5.626-24.804 21.122-20.555 21.122-20.555 1.76 12.279-5.627 24.804m19.393 125.647h-74.865c-13.229 0-23.951-10.723-23.951-23.951s10.722-23.95 23.951-23.95h74.865c13.228 0 23.951 10.723 23.951 23.95s-10.723 23.951-23.951 23.951"/></g><g stroke="#b6d4ff"><path d="M1831.051 644.661l-12.788-9.966m-5.435 61.533l-11.51 7.926m44.96-12.25l19.862 3.241m30.927-52.105l11.993-14.818m9.91 30.941l13.108-8.394m-10.55 51.76l12.469 8.038m-81.953-48.084l-5.934-13.793m62.692 28.835l-14.258 6.788m-54.71-14.677l-13.574-9.03" stroke-width="9"/><path d="M2014.376 341v441.077" class="M"/></g><path d="M1496.475 344.605v433.538m261.805-422.905v424.411" stroke="#ecf6ff" stroke-width="22"/><path d="M1468.001 782.077h537.152V341h-537.152v441.077zm19-19h499.152V360h-499.152v403.077z" class="C"/><g stroke-width="22" class="G"><path d="M1740.802 342.885v438.127"/><path d="M1468.001 561.539h537.152"/></g><g class="D"><use xlink:href="#P"/><use xlink:href="#P" y="29.637"/><use xlink:href="#P" y="59.275"/><use xlink:href="#P" y="88.912"/><use xlink:href="#P" y="118.55"/><path d="M1101.402 175.763c0 39.081-31.682 70.763-70.764 70.763s-70.762-31.682-70.762-70.763S991.557 105 1030.638 105s70.764 31.681 70.764 70.763"/></g><path d="M1087.527 175.763c0 39.081-31.683 70.763-70.764 70.763s-70.762-31.682-70.762-70.763S977.682 105 1016.763 105s70.764 31.681 70.764 70.763" class="C"/><path d="M1070.387 175.758c0 27.622-20.877 50.36-47.702 53.307a53.82 53.82 0 0 1-5.916.322c-29.622 0-53.63-24.007-53.63-53.629 0-29.611 24.008-53.619 53.63-53.619a53.82 53.82 0 0 1 5.916.323c26.825 2.947 47.702 25.685 47.702 53.296" class="D"/><path d="M1070.387 175.758c0 27.622-20.877 50.36-47.702 53.307-26.837-2.947-47.714-25.685-47.714-53.307 0-27.611 20.877-50.349 47.714-53.296 26.825 2.947 47.702 25.685 47.702 53.296" class="K"/><g stroke="#cce3ff" stroke-width="8"><path d="M1019.089 145.943l17.375 37.895"/><path d="M1038.119 167.951l-38.06 41.37"/></g><g transform="matrix(-1 0 0 1 1835 455)"><g transform="translate(53 249.996)"><path d="M289.818 355.881c-13.268 0-24.024 15.532-24.024 34.691s10.756 34.692 24.024 34.692 24.024-15.532 24.024-34.692-10.756-34.691-24.024-34.691" class="O"/><path d="M289.97 392.384V8.556" class="M P"/><path d="M119.546 197.691h190.368V.432H119.546z" class="Q"/><g class="P"><path stroke-linejoin="round" d="M118.261 392.384V8.556L48.078 29.728" class="M"/><g class="U"><path d="M206.644 284.169l166.348 212.809"/><path d="M372.991 284.169L206.644 496.978"/><path d="M189.95 390.573h199.735"/><path d="M289.818 235.523v310.1"/></g></g><path d="M289.97 221.608c-65.313 0-118.26 76.458-118.26 170.777s52.947 170.775 118.26 170.775 118.26-76.458 118.26-170.775-52.947-170.777-118.26-170.777m0 26.748c22.478 0 44.312 13.653 61.481 38.446 9.229 13.327 16.52 29.003 21.672 46.591 5.454 18.622 8.22 38.469 8.22 58.992s-2.766 40.368-8.22 58.99c-5.152 17.589-12.443 33.265-21.672 46.591-17.169 24.793-39.003 38.446-61.481 38.446s-44.312-13.653-61.481-38.446c-9.229-13.326-16.52-29.003-21.672-46.591-5.454-18.622-8.22-38.469-8.22-58.99s2.766-40.369 8.22-58.992c5.152-17.589 12.443-33.264 21.672-46.591 17.169-24.793 39.002-38.446 61.481-38.446" fill="#868b9b"/><g class="P"><path d="M118.108 235.523v310.1" class="U"/><path d="M442.481 473.368V190.208" class="M"/></g><path d="M446.943 462.444c-19.26 0-34.872 22.546-34.872 50.358s15.612 50.358 34.872 50.358 34.872-22.547 34.872-50.358-15.612-50.358-34.872-50.358m0 21.972c3.71 0 12.786 9.946 12.786 28.386s-9.075 28.386-12.786 28.386-12.786-9.947-12.786-28.386 9.075-28.386 12.786-28.386m-282.3-186.726h277.838v-42.908H164.643z" class="O"/><path d="M122.392 297.69h150.619v-42.908H122.392z" class="Q"/><g transform="translate(325.53 429.197)"><mask id="f" class="B"><use xlink:href="#G"/></mask><g class="L"><use xlink:href="#G"/><g mask="url(#f)" class="E"><path d="M-4.801 6.373h251v67h-251z"/></g></g></g><g transform="translate(333.212 429.452)"><mask id="g" class="B"><use xlink:href="#H"/></mask><g class="R"><use xlink:href="#H"/><g mask="url(#g)" class="E"><path d="M-5.762 20.448h173v24h-173z"/></g></g></g><path d="M316.74 524.558h262.439v-23.514H316.74z" class="O"/><path d="M306.368 524.559h87.852v-23.514h-87.852z" class="Q"/><path d="M118.261 221.608C52.947 221.608 0 298.066 0 392.384s52.947 170.775 118.26 170.775 118.26-76.458 118.26-170.775-52.947-170.777-118.26-170.777m0 26.748c22.478 0 44.312 13.653 61.481 38.446 9.228 13.327 16.52 29.003 21.672 46.591 5.454 18.622 8.22 38.469 8.22 58.992s-2.766 40.368-8.22 58.99c-5.152 17.589-12.444 33.265-21.672 46.591-17.169 24.793-39.003 38.446-61.481 38.446s-44.312-13.653-61.481-38.446c-9.229-13.326-16.52-29.003-21.672-46.591-5.454-18.622-8.22-38.469-8.22-58.99s2.766-40.369 8.22-58.992c5.152-17.589 12.443-33.264 21.672-46.591 17.169-24.793 39.002-38.446 61.481-38.446" fill="#bfc4d6"/><path d="M263.087 473.368l-.28-215.496" stroke="#3d3e44" class="M"/><path d="M275.234 462.444c-19.26 0-34.872 22.546-34.872 50.358s15.612 50.358 34.872 50.358 34.872-22.547 34.872-50.358-15.613-50.358-34.872-50.358m0 21.972c3.71 0 12.786 9.946 12.786 28.386s-9.075 28.386-12.786 28.386-12.786-9.947-12.786-28.386 9.075-28.386 12.786-28.386" class="Q"/><path d="M117.219 354.743c-13.268 0-24.024 15.533-24.024 34.691s10.756 34.693 24.024 34.693 24.024-15.533 24.024-34.693-10.756-34.691-24.024-34.691" class="O"/><g class="P U"><path d="M45.504 297.69l143.43 183.491"/><path d="M187.88 301.314L42.864 486.832"/><path d="M21.933 390.573h187.129"/></g><g transform="translate(216.509 180.242)"><mask id="h" class="B"><use xlink:href="#I"/></mask><use xlink:href="#I" class="T"/><g mask="url(#h)" fill="#2437a8" class="E"><path d="M.491-24.895h327v309h-327z"/></g></g><path d="M216.509 181.168h149.98c25.032 0 44.603 21.242 42.148 45.748l-23.863 229.216h-55.505l9.394-198.26h-68.171c-29.814 0-53.983-23.775-53.983-53.102v-23.601z" fill-opacity=".1" class="B"/></g><g transform="translate(281 100)"><path d="M120.066 46.28s25.363 33.147-9.073 41.946l9.073-41.946z" class="N"/><g transform="translate(.675 42.195)"><mask id="i" class="B"><use xlink:href="#J"/></mask><use fill="#5e93d1" xlink:href="#J"/><g mask="url(#i)" fill="#e576c6" class="E"><path d="M-5 12.101h129v111H-5z"/></g></g><path d="M13.942 80.023s-23.352-9.529 3.855-37.759S69.25 28.682 69.25 28.682 76.088-.082 95.016.001c26.965.117 31.127 41.9 31.127 41.9s13.591-22.724 21.319-19.476 7.941 78.723-99.349 41.942c0 0 9.225 20.814-15.356 25.041 0 0-4.287-8.884-18.816-9.386" class="N"/><path stroke="#19141e" stroke-width="9" d="M24.2 19.964l3.379 18.853-7.041 3.379L7.526 28.902"/><path fill="#000" opacity=".4" d="M71.965 130.998l-23.878-5.135 23.764 16.1z"/><path fill="#125475" d="M92.117 87.021l8.251 20.232-9.888.126z"/><path d="M82.254 88.987c.492 2.725-1.313 5.333-4.029 5.825a5 5 0 0 1-5.808-4.04c-.492-2.725 1.312-5.333 4.029-5.825a5 5 0 0 1 5.808 4.04m25.952 0c.492 2.725-1.313 5.333-4.03 5.825a5 5 0 0 1-5.807-4.04c-.492-2.725 1.312-5.333 4.029-5.825a5 5 0 0 1 5.808 4.04" class="L"/><use xlink:href="#Q" class="B"/><use xlink:href="#Q" stroke="#252535" stroke-width="4"/></g><g transform="translate(194 232.877)"><g transform="translate(0 21.871)"><mask id="j" class="B"><use xlink:href="#K"/></mask><g fill="#1e9dbc"><use xlink:href="#K"/><g mask="url(#j)" class="E"><path d="M0 0h268v195H0z"/></g></g></g><g class="F J"><path d="M201.342 110.394L184.641 75.42l16.701 34.974 4.361-3.97-4.361 3.97zm0 0l.178.373-.178-.373-16.701 15.206 16.701-15.206z" opacity=".199"/><path d="M79.083 106.603l-11.239-5.58 11.239 5.58 19.854-39.839-19.854 39.839zm0 0l-1.005 2.018 1.005-2.018 38.262 18.997-38.262-18.997z" opacity=".2"/></g><path d="M151.818 62.431c0 3.436-2.801 6.219-6.256 6.219s-6.257-2.784-6.257-6.219 6.257-12.184 6.257-12.184 6.256 8.749 6.256 12.184" fill="#000" opacity=".203"/><g class="J"><g class="F"><path d="M91.1 186.29s26.105-.352 26.245-64.233" opacity=".196"/><path d="M205.703 183.308s-19.893-.321-20-58.654" opacity=".199"/></g><path d="M146.896 68.651c3.873 27.761 14.178 54.401 7.521 148.305" opacity=".203" class="I"/></g><g transform="translate(64)"><mask id="k" class="B"><use xlink:href="#L"/></mask><g fill="#efefef"><use xlink:href="#L"/><g mask="url(#k)" class="E"><path d="M0-9.941h142v227H0z"/></g></g></g><path d="M146.896 68.651c4.177 25.195 14.251 54.167 7.594 148.071" opacity=".201" class="I J"/></g></g><g transform="matrix(-1 0 0 1 746 263)"><use xlink:href="#R" class="C"/><use xlink:href="#R" class="F G"/><use xlink:href="#S" class="B"/><use xlink:href="#S" class="F G"/><path d="M360.34 20.882l-6.322 63.135h-84.549l6.322-63.135z" class="D"/><path d="M105.024 107.219h18.564V34.706h-18.564z" class="C"/><path d="M86.459 107.219h18.564V34.706H86.459zm37.129 0h18.563V34.706h-18.563z" class="D"/><path d="M190.664 107.219h-48.513V34.706h48.513a5.13 5.13 0 0 1 5.129 5.129v62.256a5.13 5.13 0 0 1-5.129 5.128" class="H"/><path d="M150.101 52.45h37.743v-7.18h-37.743zm8.41 11.076h20.923v-7.179h-20.923z" class="D"/><path d="M0 124.995h423.178v-17.776H0z" class="C"/><path d="M423.178 124.995h69.617v-17.776h-69.617z" class="D"/><use xlink:href="#T" class="H"/><use xlink:href="#U" class="D"/><use xlink:href="#T" x="242.377" class="H"/><use xlink:href="#U" x="242.377" class="D"/></g><g transform="matrix(-1 0 0 1 746 462)"><use xlink:href="#V" class="C"/><use xlink:href="#V" class="F G"/><use xlink:href="#W" class="B"/><use xlink:href="#W" class="F G"/><g class="C"><path d="M215.147 113.477h64.075l9.589-95.79h-64.075z"/><use xlink:href="#X"/></g><use xlink:href="#X" class="F G"/><use xlink:href="#Y" class="B"/><use xlink:href="#Y" class="F G"/><path d="M428.239 56.904l-5.487 54.798h-73.385l5.487-54.798zM55.552 95.687h0c0 6.903 5.597 12.5 12.501 12.5h112.469V83.186H68.053c-6.904 0-12.501 5.597-12.501 12.501" class="D"/><path d="M131.197 95.687h0a7.24 7.24 0 0 0 7.236 7.236h41.786a.3.3 0 0 0 .302-.3V88.75a.3.3 0 0 0-.302-.3h-41.786a7.24 7.24 0 0 0-7.236 7.237" class="C"/><path d="M39.855 108.187v25.001h122.759c6.904 0 12.501-5.597 12.501-12.5s-5.597-12.501-12.501-12.501H39.855z" class="D"/><path d="M39.855 113.521v14.334h50.474a7.17 7.17 0 0 0 7.167-7.167 7.17 7.17 0 0 0-7.167-7.167H39.855zM0 149.797h423.178V132.02H0z" class="C"/><path d="M423.178 149.797h69.617V132.02h-69.617z" class="D"/><use xlink:href="#T" y="24.802" class="H"/><use xlink:href="#U" y="24.802" class="D"/><use xlink:href="#T" x="242.377" y="24.802" class="H"/><use xlink:href="#U" x="242.377" y="24.802" class="D"/></g></g></svg>