<svg xmlns="http://www.w3.org/2000/svg" xmlns:xlink="http://www.w3.org/1999/xlink" width="1212" height="1105" xmlns:v="https://vecta.io/nano"><style><![CDATA[.B{fill:#fff}.C{fill-rule:nonzero}.D{fill:#cce3ff}.E{fill:#ecf6ff}.F{stroke-width:8}.G{fill:#2437a8}.H{fill:#19141e}.I{stroke-linecap:square}]]></style><defs><path d="M70.161 112.544l-.847-29.187s35.521 2.824 43.121-1.117c0 0 9.286-47.775-1.79-74.232l-.224-1.031L35.46 0l-5.015 40.092c-2.525-7.436-22.552-14.79-28-4.141-11.804 23.075 30.405 38.612 30.405 38.612l-4.286 38.332" id="A"/><path d="M169.034 15.812l-.283 24.345s54.576 8.597 73.077 29.441H133.095L137.65 0l31.385 15.812zM42.806 13.761l-.282 27.345s22.987 3.001 32.343 28.492H.448l7.443-30.004 4.825-4.796 30.09-21.038z" id="B"/><path d="M129.76 2.05l31.385 9.434-.283 24.344-33.631-1.512L129.76 2.05zM6.545 0l31.384 9.433-3.294 27.344L0 35.266 6.545 0z" id="C"/><path d="M81.066 460.375h4.926l-3.012 28.128H0l3.012-28.128h5.49L70.288 0h38.818 94.416l-7.84 460.875h4.232v27.128h-82.98v-27.128h4.695l-4.697-172.841-35.866 172.341z" id="D"/><path d="M211.13 7.465C213.694 1.637 227.163 0 227.163 0s21.495 23.921 23.419 27.573 5.481 21.738 5.312 25.311-11.255 19.629-11.255 19.629c-6.878-1.629-2.386-9.921-2.386-9.921s-6.161 5.036-8.722 4.952c-24.121-.795-22.829-12.602-22.258-14.08 1.281-3.32 7.719.476 7.719.476s-15.195-29.803-7.862-46.475zM40.6 18.87s2.072 3.539 4.407 10.212 1.364 10.756 6.417 21.238c5.735 11.898-4.523 6.991-8.201 1.797-2.871-4.053-2.545-9.533-6.267-11.987-1.247 1.99-4.097 4.835-5.687 22.002-.285 3.078 1.111 13.065 1.111 13.065.03 2.992.413 9.233-2.992 10.185-.845.238-1.944-.696-1.944-.696s.33 3.905-3.152 4.682c-1.368.305-4.087-8.126-4.087-8.126s-.414 4.282-3.014 4.757c-.735.135-9.412-24.293-9.412-24.293l.522 5.517 1.151 5.651s-.092 3.041-2.536 3.58c-.97.214-2.832-4.86-4.576-10.828C-.375 56.338-.32 49.36.478 42.419c.965-8.387 1.219-11.613 4.952-21.898L40.6 18.87z" id="E"/><path d="M28.811 18.72L33.288 0l19.46 1.203 13.38 16.463 8.7-15.111 6.21.388 1.929 17.477c31.374 11.964 34.062 23.639 41.543 38.998 8.175 16.784-1.805 133.28-1.805 133.28L0 187.075S16.627 19.984 27.518 18.849l1.293-.13z" id="F"/><path d="M36.769 284.6l8.737-39.564 3.518 2.34c2.505 1.277 3.527.647 3.76-.4.25-1.127-.939-4.145-3.014-9.329-.414-1.035-.932-2.567-1.554-4.596l18.07-81.384-2.186-19.677-14.33 76.867-49.74 2.336s-.98-70.733 8.49-111.651c6.03-26.066 39.915-75.376 55.504-85.67C70.64 9.503 99.829.964 99.829.964s7.447 18.467 7.701 43.961c.554 55.672-5.087 245.029-5.087 245.029L36.769 284.6zm168.68-61.696l-6.77-14.036 1.84 77.571-23.41 2.755-18.706-239.82-2.904-46.74c0-.01-.01-.02-.01-.02s32.418 11.329 43.18 29.121c5.565 9.202 14.8 78.116 14.8 78.116l35.5 88.975-43.52 24.078z" id="G"/><path d="M31.698 121.258L2.163 58.876C-1.198 51.776.5 43.327 6.348 38.057l2.376-2.141-.155-.268c-4.823-8.327-2.908-18.897 4.535-25.026L24.829.964s7.054 23.545 7.337 35.164c.402 16.51-.468 85.131-.468 85.131zm57.043-.591L80.49 2.614l15.218 12.213c6.318 5.071 9.303 13.197 7.757 21.121l-.411 2.109.917.77c6.912 5.808 9.43 15.294 6.302 23.735l-21.532 58.105z" id="H"/><path id="I" d="M117.921 79.312c.492 2.721-1.317 5.325-4.042 5.817s-5.333-1.314-5.826-4.035 1.317-5.324 4.041-5.817 5.334 1.314 5.827 4.035"/><path id="J" d="M117.066 99.622s3.466 5.613 10.333 5.138"/></defs><g transform="translate(-300 -142)" fill="none" fill-rule="evenodd"><path d="M883.084 248.784H531s33.169-48.375 60.438-49.132c32.544-.903 47.198 34.883 78.45 34.883 31.259 0 52.187-87.534 110.044-87.534 61.763 0 103.152 101.783 103.152 101.783" class="E"/><path d="M999.398 664.981c-6.329-18.95-41.019-15.742-41.024-68.583-.009-79.562 109.564-70.481 116.025-130.428s-63.948-58.514-66.128-109.076S1059.63 202 1140.861 202c64.052 0 11.001 80.502 62.693 116.502s110.732-10.12 139.951 46.49c40.249 77.978-62.67 171.628-52.516 231.406s70.487 45.645 72.334 111.327-85.796 77.242-77.539 133.564c5.205 35.504 60.67 23.65 63.579 93.658 2.464 59.273-188.104 132.616-331.257 12s5.449-209.639-18.708-281.966" class="D"/><path d="M1157.176 521.408v582.528m3-188.107l74.854-74.854m-73.854-138.362l38.053-38.052m-46.053 122.768l-59.688-59.688m61.066-124.603l-29.001-29" stroke="#ecf6ff" class="F I"/><path d="M644.22 746.18c0 114.54-74.75 178.44-172.109 178.44S300 860.72 300 746.18C300 505.02 409.851 227 472.111 227S644.22 505.02 644.22 746.18" class="D"/><path d="M472.11 575.81v528.67m2.057-248.61l60.915-60.915m-68.071-55.148l-49.846-49.846m57.945-28.238l38.052-38.053" stroke="#ecf6ff" class="F I"/><path d="M1007.931 693.965c0 131.425-106.541 237.965-237.966 237.965S531.999 825.39 531.999 693.965 638.54 456 769.965 456s237.966 106.54 237.966 237.965" class="E"/><path d="M769.965 625.191v486.729m0-261.049l52.974-52.973m-50.974-106.036l27.276-27.276m-29.276 107.253l-50.769-50.768" stroke="#b6d4ff" class="F"/><path d="M1458.784 178.966h-9.537a8.31 8.31 0 0 0-8.308 8.308v687.802h26.153V187.274a8.31 8.31 0 0 0-8.308-8.308" fill="#d7ebff"/><path d="M1433.096 938.341h41.841v-70.935h-41.841z" class="D"/><path fill="#d7ebff" d="M1421.739 1106.991h64.553V899.678h-64.553z"/><g class="D"><path d="M1480.923 1079.527h-53.813c-10.876 0-19.693 8.816-19.693 19.692v8.652h93.197v-8.652c0-10.876-8.816-19.692-19.691-19.692m5.364-181.799h-64.542a9.69 9.69 0 0 0-9.687 9.686v1.193a9.69 9.69 0 0 0 9.687 9.686h64.542a9.69 9.69 0 0 0 9.686-9.686v-1.193a9.69 9.69 0 0 0-9.686-9.686M1454.016 142h0c-9.615 0-17.41 7.795-17.41 17.41v2.146c0 9.615 7.795 17.41 17.41 17.41s17.41-7.795 17.41-17.41v-2.146c0-9.615-7.794-17.41-17.41-17.41m25.739 203.029h-51.478a9.69 9.69 0 0 0-9.686 9.686v1.193a9.69 9.69 0 0 0 9.686 9.686h51.478a9.69 9.69 0 0 0 9.686-9.686v-1.193a9.69 9.69 0 0 0-9.686-9.686"/><path d="M1472.727 365.594h-37.422a6.36 6.36 0 0 0-6.359 6.359v.784a6.36 6.36 0 0 0 6.359 6.358h37.422a6.36 6.36 0 0 0 6.359-6.358v-.784a6.36 6.36 0 0 0-6.359-6.359"/></g><path d="M1503.447 208.763l-28.273 136.265h-42.302l-28.286-136.265z" class="E"/><path d="M1512.032 215.986l-12.397-24.39h-91.239L1396 215.986z" class="D"/><g transform="translate(522 288)"><g transform="translate(245 110)"><path d="M153.23 54.376L50.047 56.989l-.079-1.653-1.229-25.298-.936-19.253C47.5 4.616 52.674-.424 58.843.029l82.972 6.08c5.201.373 9.286 4.569 9.545 9.76l.445 9.093 1.229 25.467.196 3.947z" class="G"/><path d="M153.034 50.429c-14.922 2-32.33 3.573-50.937 4.471-19.018.924-36.852 1.022-52.13.436l-1.229-25.298c15.145-2.062 32.907-3.689 51.933-4.604 18.609-.898 36.078-1.013 51.134-.471l1.229 25.467z" fill="#5e93d1"/><g transform="translate(38.285 37.909)"><mask id="K" class="B"><use xlink:href="#A"/></mask><g fill="#e576c6"><use xlink:href="#A"/><g mask="url(#K)" class="C"><path d="M0 .313h116v113H0z"/></g></g></g><path fill="#000" opacity=".398" d="M107.599 121.266l-23.952-5.128 23.837 16.078z"/><path fill="#405fd3" d="M127.358 73.57l8.277 20.204-9.92.126z"/><g fill="#0d0b6d"><use xlink:href="#I"/><use xlink:href="#I" x="26.033"/></g><use xlink:href="#J" class="B"/><use xlink:href="#J" stroke="#252535" stroke-width="4"/><path d="M152.919 60.774l-1.18-6.067c-2.036-8.07-63.235-4.989-63.235-4.989l.834 10.854-1.029 5.188C38.791 67.177.365 62.858.003 55.399-.393 47.26 44.677 38.466 100.668 35.756s101.701 1.692 102.097 9.83c.264 5.441-19.792 11.175-49.846 15.188z" class="G"/><path d="M77.234 90.535l-.236-.52C69.181 73.313 55.477 69.84 51.694 69.186l-1.139-9.726c-.605-7.387 37.949-9.742 37.949-9.742s3.764 34.794 1.386 37.763c-1.479 1.85-6.682 2.706-12.656 3.054z" class="H"/></g><g transform="translate(198 431.233)"><g transform="translate(6.024 458.092)"><mask id="L" class="B"><use xlink:href="#B"/></mask><use fill="#0d0b6d" xlink:href="#B"/><g mask="url(#L)" class="C G"><path d="M0 36.789h242v33H0z"/></g></g><g transform="translate(13.914 462.421)"><mask id="M" class="B"><use xlink:href="#C"/></mask><g fill="#cf3e83"><use xlink:href="#C"/><g mask="url(#M)" class="C"><path d="M.143 18.464h161v19h-161z"/></g></g></g><g transform="translate(1.004)"><mask id="N" class="B"><use xlink:href="#D"/></mask><use fill="#2f2f3d" xlink:href="#D"/><g mask="url(#N)" class="C H"><path d="M.001 0h203v489h-203z"/></g></g><path fill="#000" opacity=".2" d="M116.547 304.013l34.575-222.886-31.441 287.265z"/></g><g transform="translate(207 242.818)"><g transform="translate(0 208.312)"><mask id="O" class="B"><use xlink:href="#E"/></mask><g fill="#e576c6"><use xlink:href="#E"/><g mask="url(#O)" class="C"><path d="M-9 16.362h265v73H-9z"/></g></g></g><path d="M223.918 229.849s3.385 12.361 15.001 16.212c4.062 1.347 3.047 17.245 13.003 15.343" stroke="#000" stroke-width="3" opacity=".151"/><g transform="translate(72.31)"><mask id="P" class="B"><use xlink:href="#F"/></mask><g fill="#efefef"><use xlink:href="#F"/><g mask="url(#P)" class="C"><path d="M26.69 0h69v198h-69z"/></g></g></g><path d="M192.524 192.896l5.755-92.131" stroke="#12173a" stroke-width="5"/><g transform="translate(0 17.894)"><mask id="Q" class="B"><use xlink:href="#G"/></mask><use fill="#ce3d29" xlink:href="#G"/><g mask="url(#Q)" class="C H"><path d="M0 0h249v290H0z"/></g></g><g transform="translate(75 17.894)"><mask id="R" class="B"><use xlink:href="#H"/></mask><use fill="#3c3c42" xlink:href="#H"/><g mask="url(#R)" fill="#efefef" class="C"><path d="M0 0h112v124H0z"/></g></g><path stroke="#000" stroke-width="5" opacity=".197" d="M63.864 151.146l2.891-14.354 14.623-26.844"/></g></g></g></svg>