<svg xmlns="http://www.w3.org/2000/svg" xmlns:xlink="http://www.w3.org/1999/xlink" width="1664" height="979" xmlns:v="https://vecta.io/nano"><style><![CDATA[.B{fill:#fff}.C{fill:#dceeff}.D{fill:#cce3ff}.E{fill-rule:nonzero}.F{fill:#b6d4ff}.G{fill:#19141e}.H{stroke:#dceeff}.I{fill:#ecf6ff}.J{stroke:#ecf6ff}.K{stroke-width:22}.L{stroke-width:17}.M{stroke-width:5}.N{stroke-width:3}.O{stroke:#000}.P{stroke:#b6d4ff}.Q{fill:#c83820}.R{fill:#6ca1ff}.S{fill:#f6b852}.T{stroke-linecap:round}]]></style><defs><path d="M78.1 86.325c-6.59 4.38-18.59 4.92-28.82 4.33l-2.34 29.05-33.38-13.74 4.601-44.35C11.451 55.535.02 52.715 0 42.385c0-3.58 2.09-9.77 9.81-9.79 10.36-.01 8.88 12.41 8.88 12.41 11.721 4.55 23.71-34.83 30.62-43.75 3.78-4.88 32.8 6.04 32.8 6.04l16.47 18.42c.32 2.27-.84 47.55-20.48 60.61" id="A"/><path d="M222.802 243.571l-22.811 2.859-36.739-57.46-1.341-19.099-55.969-.83-23.89-.35h-.05l-6.89-.44c-30.09-2.1-71.78-7.951-74.64-24.151-5.19-29.34 34.07-86.279 38.71-92.879l.439-.63c6.58-9.4 13.201-16.71 19.381-20.6 12.02-7.57 23.29-9.231 34-9.2L95.871.001l43.691 6.029-2.38 17.281c12.83 1.23 21.559 3.739 29.729 11.239 26.231 24.081 28.161 114.271 28.161 114.271l27.73 94.75z" id="B"/><path d="M125.405 107.62c5.244 6.172 11.63 13.843 12.56 15.67 1.614 3.171 4.599 18.868 4.457 21.97s-9.444 17.037-9.444 17.037c-5.771-1.414-2.002-8.611-2.002-8.611s-5.169 4.371-7.318 4.297c-20.24-.69-19.156-10.937-18.677-12.221 1.075-2.882 6.478.414 6.478.414s-10.387-21.074-7.887-35.819l21.833-2.736zM63.831 29.045s3.591.915 3.659 3.172c0 .641-21.878 4.779-21.878 4.779l4.762.282 4.95-.239s2.573.479 2.719 2.616c.051.846-4.506 1.752-9.807 2.445-8.241 1.086-14.166.129-19.963-1.453l-1.41-.376c-5.968-1.565-8.627-1.856-16.303-6.037-3.404-1.855-8.422-5.531-10.516-7.395L5.575 6.372l7.626-2.607s3.539-1.386 9.516-2.489C26.47.584 30.133.858 34.006.439l-2.2 8.063c-.248.179-.532.785-.746 1.017.164.136.326.29.514.461 1.581 1.445 4.573 4.009 17.449 7.224 2.582.642 11.251.761 11.251.761 2.548.367 7.9.863 8.268 3.864.094.744-.838 1.548-.838 1.548s3.359.231 3.564 3.274c.086 1.197-7.437 2.394-7.437 2.394z" id="C"/><path d="M26.697 104.714l-2.581 22.528s48.02 12.589 66.073 31.312l-89.518.155 3.351-64.522 22.675 10.527zM129.734 0l10.311 20.292s47.177-16.044 72.657-10.36l-74.03 49.132-33.751-55.326L129.734 0z" id="D"/><path d="M.937 97.597l23.785 9.453-.203 18.702-24.313-.893.731-27.262zm104.26-91.727L130.345.619l10.183 15.772-20.851 12.71-14.48-23.23z" id="E"/><path d="M234.667 201.1l-12.31 133.624h-57.019l2.531-194.014-108.835.75c-31.048 0-61.078-26.664-58.925-57.653l3.385-31.55L169.7 3.155c30.769-6.957 41.437 2.234 61.385 37.744l88.076 180.539-48.384 32.333-36.11-52.67z" id="F"/><path d="M128.641 89.553v10.656c0 8.397-6.763 15.204-15.105 15.204H64.78c-8.341 0-15.104-6.807-15.104-15.204V88h-4.968v53.792c6.06-3.763 12.509-5.792 19.199-5.792l.199.001h51.796l.199-.001c6.771 0 13.297 2.079 19.421 5.931V89.553h-6.881 0zm0-18h15.822c4.938 0 8.942 4.029 8.942 9v79.16c16.112 22.906 26.602 60.259 26.602 102.45 0 69.679-28.611 126.165-63.906 126.165-.849 0-1.694-.033-2.534-.097H66.441c-.841.065-1.686.097-2.534.097C28.612 388.329 0 331.843 0 262.164 0 219.9 10.527 182.49 26.686 159.595v102.569a9 9 0 0 0 6.246 8.584c2.116 30.036 15.178 53.158 30.974 53.158 17.273 0 31.275-27.643 31.275-61.742s-14.001-61.741-31.275-61.741c-7.236 0-13.899 4.852-19.198 12.999v39.374h19.337c4.938 0 8.942 4.029 8.942 9s-4.003 9-8.942 9H35.766c-4.938 0-8.942-4.029-8.942-9V79c0-4.971 4.003-9 8.942-9h13.909V15.204C49.675 6.807 56.438 0 64.78 0h48.756c8.342 0 15.105 6.807 15.105 15.204v56.349z" id="G"/><path d="M63.286 124.415l-.911.011c-20.042 0-36.289-16.248-36.289-36.29s16.247-36.29 36.289-36.29c4.281 0 8.389.741 12.202 2.102C92.459 21.773 126.795 0 166.216 0c37.604 0 70.581 19.811 89.063 49.565 3.665-1.245 7.594-1.921 11.681-1.921 20.042 0 36.29 16.248 36.29 36.29 0 19.062-14.698 34.691-33.378 36.174-7.421 50.591-51.002 89.431-103.655 89.431-51.147 0-93.734-36.652-102.929-85.124h0zM.076 224.623c-1.101-14.748 9.963-27.595 24.711-28.696l37.051-2.764c14.748-1.101 27.595 9.963 28.695 24.71l6.302 84.456c1.1 14.748-9.963 27.595-24.71 28.696l-37.052 2.765c-14.748 1.1-27.595-9.964-28.695-24.711L.076 224.623zm241.64-6.641c.078-14.789 12.131-26.713 26.919-26.634l37.154.197c14.788.08 26.713 12.132 26.634 26.92l-.451 84.689c-.078 14.789-12.131 26.714-26.919 26.635l-37.154-.198c-14.788-.079-26.713-12.131-26.634-26.92l.451-84.689z" id="H"/><path d="M73.753 96.45H20.875C9.394 96.45 0 87.056 0 75.575V61.502c0-11.481 9.394-20.875 20.875-20.875h133.336c11.481 0 20.875 9.394 20.875 20.875v14.073c0 11.481-9.394 20.875-20.875 20.875h-50.099v41.876H73.753V96.45zm7.861-85.912a10.54 10.54 0 0 1-10.538 10.539 10.54 10.54 0 0 1-10.539-10.539A10.54 10.54 0 0 1 71.076 0a10.54 10.54 0 0 1 10.538 10.538z" id="I"/><path id="J" d="M1779.594 638.05c-1.561 13.11-8.2 24.67-17.9 32.64h-63.43c-9.7-7.97-16.34-19.53-17.91-32.64h99.24z"/><path id="K" d="M1779.594 610.802c-2.953 24.778-24.042 44.001-49.619 44.001s-46.666-19.223-49.618-44.001h99.237z"/><path id="L" d="M1091.17 492.894h152.254l20.56-205.394h-152.253z"/><path id="M" d="M1082.952 492.894h155.086l20.56-205.394h-155.086z"/><path id="N" d="M971.033 933.806h37.951V678.67h-37.951z"/><path id="O" d="M64.341 66.29c0 4.061 3.292 7.353 7.353 7.353s7.353-3.292 7.353-7.353-3.292-7.353-7.353-7.353-7.353 3.292-7.353 7.353"/></defs><g transform="translate(-245 -102)" fill="none" fill-rule="evenodd"><path d="M1716.046 123.921V667.56" class="J K"/><path d="M1707.979 104.43v564.888" class="H L"/><path d="M1891.513 102v568.69" stroke-width="20" class="P"/><path d="M1546.039 106.647v558.971" class="J K"/><path d="M1524.963 670.69h360.363V101.999h-360.363V670.69zm22.001-22h316.362V124h-316.362v524.69z" class="C"/><path d="M1455.001 698.721h446.358V670.69h-446.358z" class="D"/><path d="M1797.563 698.721h110.565V670.69h-110.565z" class="F"/><path d="M1552.324 300.8h333.002m-333.002 176.645h333.002" class="H L"/><g class="F"><use xlink:href="#J"/><use xlink:href="#K"/></g><path d="M1593.404 650.133l10.769-104.94h33.673l10.769 104.94c1.128 10.997-7.501 20.557-18.556 20.557h-18.099c-11.055 0-19.685-9.56-18.556-20.557" class="D"/><g transform="matrix(-1 0 0 1 699 101)"><path d="M261.046 22.921V566.56" class="J K"/><path d="M252.979 3.43v564.888" class="H L"/><path d="M436.513 1v568.69" stroke-width="20" class="P"/><path d="M91.039 5.647v558.971" class="J K"/><path d="M69.963 569.69h360.363V.999H69.963V569.69zm22.001-22h316.362V23H91.964v524.69z" class="C"/><path d="M.001 597.721h446.358V569.69H.001z" class="D"/><path d="M342.563 597.721h110.565V569.69H342.563z" class="F"/><path d="M97.324 199.8h333.002M97.324 376.445h333.002" class="H L"/><g class="F"><use xlink:href="#J" x="-1455" y="-101"/><use xlink:href="#K" x="-1455" y="-101"/></g><path d="M138.404 549.133l10.769-104.94h33.673l10.769 104.94c1.128 10.997-7.501 20.557-18.556 20.557H156.96c-11.055 0-19.685-9.56-18.556-20.557" class="D"/></g><use xlink:href="#L" class="C"/><use xlink:href="#L" class="H M"/><use xlink:href="#M" class="B"/><use xlink:href="#M" class="H M"/><path d="M1112.655 465.774h101.109l15.131-151.153h-101.109z" class="C"/><path d="M993.432 453.273h-6.849c-31.938 0-57.83-25.892-57.83-57.831h122.509c0 31.939-25.892 57.831-57.83 57.831" class="I"/><path d="M930.669 453.273h0c0 6.904 5.597 12.501 12.5 12.501h112.469v-25.001H943.169c-6.903 0-12.5 5.597-12.5 12.5" class="C"/><path d="M1006.313 453.273h0a7.24 7.24 0 0 0 7.237 7.237h41.786a.3.3 0 0 0 .301-.301v-13.872a.3.3 0 0 0-.301-.3h-41.786a7.24 7.24 0 0 0-7.237 7.236" class="I"/><path d="M914.971 465.774v25.001h122.759c6.903 0 12.5-5.597 12.5-12.501s-5.597-12.5-12.5-12.5H914.971z" class="C"/><path d="M914.971 471.107v14.335h50.474a7.17 7.17 0 0 0 7.167-7.168 7.17 7.17 0 0 0-7.167-7.167h-50.474z" class="I"/><path d="M914.971 940.705h335.961V594.934H914.971z" class="D"/><g class="C"><path d="M1229.301 940.705h47.909V604.781h-47.909z"/><path d="M873.476 610.118h403.735V520.58H873.476z"/></g><path d="M826 520.581h503.818v-30.686H826z" class="D"/><g class="F"><path d="M1277.211 940.705h23.375V520.581h-23.375zm-355.827 0h15.218V610.454h-15.218z"/><path d="M1295.846 520.581h48.41v-30.686h-48.41z"/></g><g class="C"><path d="M873.475 940.705h47.909V594.524h-47.909z"/><path d="M860.073 940.705h61.312v-84.658h-61.312zm369.228 0h61.816v-84.658h-61.816z"/></g><g class="I"><path d="M1021.687 927.652s-55.152-32.336 11.309-126.408c0 0 34.212 39.95 47.384-7.385 0 0 37.287 59.113 13.079 94.813"/><path d="M1143.955 930.934s49.656-39.845 9.451-120.05c0 0-57.64 61.539-72.205-52.512 0 0-42.091 86.109-15.647 127.436"/></g><g class="C"><path d="M1008.637 940.705h150.23v-31.144h-150.23z"/><path d="M1151.514 891.927l-10.305-29.241-122.952 46.851 10.306 29.243z"/><path d="M1144.027 940.121l10.787-32.6-120.247-43.02-10.786 32.599z"/></g><path d="M1287.522 940.705h26.855v-84.658h-26.855z" class="F"/><g class="M P"><use xlink:href="#N"/><use xlink:href="#N" x="37.951"/><use xlink:href="#N" x="75.902"/><use xlink:href="#N" x="113.854"/><use xlink:href="#N" x="151.805"/><use xlink:href="#N" x="189.756"/></g><path d="M622.646 841.94v1.66c0 13.85-10.745 25.069-23.988 25.069H410.754c-28.984 0-51.289-27.809-47.289-58.969l21.214-173.62c1.837-14.38 13.157-25.08 26.534-25.08h55.691c13.368 0 24.687 10.7 26.535 25.08l21.214 173.62c.162 1.24.277 2.48.345 3.71l.114-.02s3.924 28.55 40.399 28.55h67.135z" class="C"/><path d="M422.607 1064.242a16.04 16.04 0 0 1-16.035 16.034c-8.856 0-16.034-7.179-16.034-16.034s7.178-16.035 16.034-16.035a16.04 16.04 0 0 1 16.035 16.035" class="F"/><g class="D"><path d="M568.923 1067.456H410.462c-6.069 0-11.035-4.966-11.035-11.035s4.966-11.036 11.035-11.036h158.461c6.069 0 11.035 4.967 11.035 11.036s-4.966 11.035-11.035 11.035"/><path d="M481.562 1062.208h16.262V868h-16.262z"/><path d="M545.414 868l-55.721 25.376L433.972 868z"/></g><g class="F"><path d="M490.925 1067.456h-20.562c-6.07 0-11.036-4.966-11.036-11.035s4.966-11.036 11.036-11.036h20.562c6.069 0 11.035 4.967 11.035 11.036s-4.966 11.035-11.035 11.035"/><path d="M477.437 1064.242c0 8.855-7.179 16.034-16.034 16.034a16.04 16.04 0 0 1-16.035-16.034c0-8.855 7.178-16.035 16.035-16.035a16.04 16.04 0 0 1 16.034 16.035m112.473 0c0 8.855-7.179 16.034-16.035 16.034s-16.034-7.179-16.034-16.034 7.178-16.035 16.034-16.035a16.04 16.04 0 0 1 16.035 16.035"/></g><g transform="translate(333 423)"><g transform="translate(32 36)"><g class="G"><path d="M185.796 63.869c0 36.431-28.19 65.964-62.966 65.964S59.864 100.3 59.864 63.869 85.002.001 119.777.001s66.019 27.437 66.019 63.868"/><path d="M74.291 29.903c7.051-.194 9.03-9.717 2.745-12.919-5.786-2.949-13.095-5.249-22.026-5.558C37.118 10.807 8.8 23.935 3.583 53.032-2.233 85.469 21.392 100.62 0 127.825l58.286 20.694s10.897-18.454-1.543-45.978C45.601 77.889 28.712 31.153 74.291 29.903"/></g><path d="M128.982 131.575s-12.931.382-18.442-2.628l17.755 11.147.687-8.519z" fill="#cf3e83"/><g transform="translate(79.699 40.916)"><mask id="P" class="B"><use xlink:href="#A"/></mask><g fill="#ed4848"><use xlink:href="#A"/><g mask="url(#P)" class="E"><path d="M.301.084h101v120h-101z"/></g></g></g><path fill="#405fd3" d="M157.091 85.894l7.4 17.94-8.585-.172z"/><path d="M149.212 86.672c-.184 3.584-2.292 6.376-4.708 6.237s-4.225-3.157-4.04-6.741 2.292-6.376 4.708-6.237 4.225 3.158 4.04 6.741m22.688-.573c-.185 3.584-2.292 6.376-4.708 6.237s-4.225-3.157-4.041-6.741 2.292-6.377 4.708-6.238 4.225 3.158 4.041 6.742" fill="#0d0b6d"/><path d="M153.8 112.255s-5.594 1.806-11.2-4.427" stroke="#1c295e" class="N"/><path d="M128.96 131.575s-12.93.382-18.442-2.629l17.755 11.147.687-8.518z" fill="#000" opacity=".403"/><g class="G"><path d="M98.394 85.916s44.574 3.738 67.686-48.98l-51.078-8.923"/><path d="M158.335 29.654s-.051 36.718 20.77 54.975l2.359-23.385"/></g></g><g transform="translate(27 162)"><path d="M82.002 168.691l-6.91-.101.019-.339 6.891.44" class="Q"/><mask id="Q" class="B"><use xlink:href="#B"/></mask><use xlink:href="#B" class="Q"/><g mask="url(#Q)" fill="#2437a8" class="E"><path d="M0-1h242v247H0z"/></g><path d="M105.942 169.041v.4s-10.02.02-23.89-.75l23.89.35z" class="Q"/><path d="M161.108 169.639c3.208-40.743 25.413-49.358 9.413-95.051" opacity=".201" class="N O"/><path d="M198.884 220.043l-83.438-9.617c-2.733-.316-4.532-3.002-3.783-5.648L144.631 88.3c.596-2.105 2.63-3.467 4.804-3.217l83.438 9.617c2.732.315 4.532 3.002 3.782 5.648l-32.967 116.477c-.596 2.106-2.631 3.468-4.804 3.218" fill="#18181c"/><path d="M124.791 176.515l.482.132c5.797 1.582 11.722 2.539 19.963 1.453 5.301-.693 9.858-1.599 9.807-2.445-.146-2.137-2.719-2.616-2.719-2.616l-4.95.239-4.762-.282s21.878-4.138 21.878-4.779c-.068-2.257-3.659-3.172-3.659-3.172s7.523-1.197 7.437-2.394c-.205-3.043-3.564-3.274-3.564-3.274s.932-.804.838-1.548c-.368-3.001-5.72-3.497-8.268-3.864 0 0-8.669-.119-11.251-.761-6.791-1.696-10.832-3.21-13.367-4.475l16.942-59.857c.596-2.105 2.631-3.467 4.804-3.217l83.438 9.618a4.46 4.46 0 0 1 3.782 5.647l-32.967 116.477a4.46 4.46 0 0 1-4.804 3.218l-83.438-9.617c-2.732-.316-4.532-3.002-3.783-5.648l8.162-28.835z" fill="#fcbda4"/><g transform="translate(97 136)"><mask id="R" class="B"><use xlink:href="#C"/></mask><use fill="#e576c6" xlink:href="#C"/><g mask="url(#R)" fill="#ed4848" class="E"><path d="M-3 0h148v162H-3z"/></g></g><path d="M212.592 254.051s2.84 10.729 12.587 14.072c3.409 1.169 2.558 14.969 10.911 13.319" opacity=".148" class="N O"/><path d="M158.075 96.507c-.657 2.064-2.059 3.461-3.132 3.12s-1.41-2.292-.753-4.356 2.059-3.462 3.132-3.121 1.41 2.292.753 4.357" fill="#020101"/><path opacity=".2" d="M74.029 82.667l-21.06 34.872 52.363 20.719" class="N O"/></g><g transform="translate(100 278)"><g transform="translate(172 219.741)"><mask id="S" class="B"><use xlink:href="#D"/></mask><g fill="#0d0b6d"><use xlink:href="#D"/><g mask="url(#S)" class="E"><path d="M-5 3.259h218v155H-5z"/></g></g></g><g transform="translate(174 222)"><mask id="T" class="B"><use xlink:href="#E"/></mask><g fill="#cf3e83"><use xlink:href="#E"/><g mask="url(#T)" class="E"><path d="M-8-12h176v149H-8z"/></g></g></g><mask id="U" class="B"><use xlink:href="#F"/></mask><use fill="#2f2f3d" xlink:href="#F"/><g mask="url(#U)" fill="#a47ef1" class="E"><path d="M0 0h319v340H0z"/></g><path d="M183.586 63.745h0L59.034 141.46l108.835-.75-2.531 194.014h57.019l19.548-212.184c4.823-38.607-19.339-58.795-58.319-58.795" fill="#18181c" opacity=".15"/></g></g><g transform="matrix(-1 0 0 1 1805 279)"><g transform="translate(168.234 412)"><mask id="V" class="B"><use xlink:href="#G"/></mask><g class="E"><use xlink:href="#G" class="R"/><g mask="url(#V)" class="S"><path d="M0-9h180v403H0z"/></g></g><path d="M33.09 270.386a8.9 8.9 0 0 0 2.676.41h28.278c4.938 0 8.942-4.029 8.942-9s-4.003-9-8.942-9H44.708v-39.559C50.032 204.947 56.753 200 64.059 200c17.273 0 31.275 27.642 31.275 61.741s-14.001 61.742-31.275 61.742c-15.785 0-28.84-23.091-30.969-53.097h0zM49.412 58.15h78.966V30.928H49.412z" class="G"/><path d="M136.121 142.011l-.814-.545V90h-7.144V72h16.086c4.938 0 8.942 4.029 8.942 9l.216 77.916a82.28 82.28 0 0 0-1.49-1.913c-.379-.524-.749-1.041-1.09-1.411l-.258-.282c17.971 22.329 29.912 61.838 29.912 106.854 0 69.679-28.611 126.165-63.906 126.165-.849 0-1.694-.033-2.534-.097H66.913c34.119-2.627 61.372-58.064 61.372-126.068 0-69.548-28.504-125.951-63.707-126.164l51.796.001.199-.001c6.818 0 13.386 2.108 19.547 6.011h0zm10.456 8.729l1.425 1.545c-.42-.491-.869-.989-1.425-1.545h0zM44.708 252.796h19.337c4.938 0 8.942 4.029 8.942 9s-4.003 9-8.942 9H35.767c-4.938 0-8.942-4.029-8.942-9V79c0-4.971 4.003-9 8.942-9h28.278c4.938 0 8.942 4.029 8.942 9s-4.003 9-8.942 9H44.708v164.796z" fill="#000" opacity=".396"/></g><g transform="translate(86 205)"><g stroke="#19141e"><path d="M43.078 388.378l-21.074-22.853 30.553-39.266 36.681 31.823-13.229 27.939m195.927.473l-18.891-24.687 34.023-36.301 33.61 35.049-15.733 26.61" stroke-width="15"/><path d="M287.444 221.706l-15.145-111.038M45.56 218.324l15.966-110.922" stroke-width="27" class="T"/></g><path d="M224.007 156.422H180.89c-6.425 0-11.633-5.208-11.633-11.633v-43.117c0-6.424 5.208-11.632 11.633-11.632h43.117c6.424 0 11.632 5.208 11.632 11.632v43.117c0 6.425-5.208 11.633-11.632 11.633" class="G"/><path d="M213.007 156.422H180.89c-6.425 0-11.633-5.208-11.633-11.633v-43.117c0-6.424 5.208-11.632 11.633-11.632h32.117c6.424 0 11.632 5.208 11.632 11.632v43.117c0 6.425-5.208 11.633-11.632 11.633" fill="#405fd3"/><g transform="translate(0 18.461)"><mask id="W" class="B"><use xlink:href="#H"/></mask><use xlink:href="#H" class="R"/><g mask="url(#W)" class="E S"><path d="M0 7.539h332v326H0z"/></g></g><path d="M126.21 26.461h80.013V0H126.21zm86.797 129.961c6.424 0 11.632-5.208 11.632-11.633v-43.117c0-6.424-5.208-11.632-11.632-11.632h11c6.424 0 11.632 5.208 11.632 11.632v43.117c0 6.425-5.208 11.633-11.632 11.633h-11z" class="G"/><path d="M16 241.409l6.652 84.48L16 241.409zM32.488 240l6.652 84.48L32.488 240z" stroke-width="9" opacity=".402" stroke-linejoin="round" class="O"/><g fill="#000"><path d="M213.05 156.382h-32.117c-6.425 0-11.633-5.208-11.633-11.633v-43.117c0-6.424 5.208-11.632 11.633-11.632h32.117c6.424 0 11.632 5.208 11.632 11.632v43.117c0 6.425-5.208 11.633-11.632 11.633zm-26.623-36.527a8.43 8.43 0 0 0 8.428-8.428 8.43 8.43 0 0 0-8.428-8.427 8.43 8.43 0 0 0-8.427 8.427 8.43 8.43 0 0 0 8.427 8.428zm23.949 0a8.43 8.43 0 0 0 8.428-8.428 8.43 8.43 0 0 0-8.428-8.427 8.43 8.43 0 0 0-8.428 8.427 8.43 8.43 0 0 0 8.428 8.428zm-23.949 24.358a8.43 8.43 0 0 0 8.428-8.428 8.43 8.43 0 0 0-8.428-8.427 8.43 8.43 0 0 0-8.427 8.427 8.43 8.43 0 0 0 8.427 8.428z" opacity=".398"/><path d="M25 106.29c0 20.042 16.247 36.29 36.289 36.29s36.29-16.248 36.29-36.29S81.331 70 61.289 70 25 86.248 25 106.29" opacity=".404"/><path d="M242.451 236.634L242 321.323c-.079 14.789 11.846 26.841 26.634 26.92l37.154.198c14.788.079 26.841-11.846 26.919-26.635l.451-84.689c.079-14.788-11.846-26.84-26.634-26.92L269.37 210c-14.788-.079-26.841 11.845-26.919 26.634" opacity=".399"/><path d="M255 68.421c3.665-1.245 7.594-1.921 11.681-1.921 20.042 0 36.29 16.248 36.29 36.29 0 19.062-14.698 34.691-33.378 36.174a105.63 105.63 0 0 0 1.115-15.338c0-20.259-5.75-39.175-15.707-55.205h0z" opacity=".398"/><path d="M186.427 144.205a8.43 8.43 0 0 0 8.428-8.428 8.43 8.43 0 0 0-8.428-8.427 8.43 8.43 0 0 0-8.427 8.427 8.43 8.43 0 0 0 8.427 8.428" opacity=".598"/></g></g><g transform="translate(159 67)"><path d="M72.728 12.423s17.462 11.549 19.383 31.53" stroke="#19141e" class="M T"/><mask id="X" class="B"><use xlink:href="#I"/></mask><use xlink:href="#I" class="R"/><g mask="url(#X)" class="E S"><path d="M21 0h154v141H21z"/></g><g fill="#000"><path d="M73.753 138.326h30.359v-42H73.753z" opacity=".399"/><path opacity=".4" d="M73.753 124.742l30.359-10V96.158H73.753z"/></g><path d="M20.875 96.45h0C9.394 96.45 0 87.056 0 75.575V61.502c0-11.481 9.394-20.875 20.875-20.875S41.75 50.021 41.75 61.502v14.073c0 11.481-9.394 20.875-20.875 20.875" class="G"/><path d="M53.615 68.539A16.01 16.01 0 0 0 69.62 84.544a16.01 16.01 0 0 0 16.006-16.005A16.01 16.01 0 0 0 69.62 52.533a16.01 16.01 0 0 0-16.005 16.006" class="B"/><use xlink:href="#O" class="G"/><path d="M131.665 68.539a16.01 16.01 0 0 0 16.006 16.005 16.01 16.01 0 0 0 16.006-16.005 16.01 16.01 0 0 0-16.006-16.006 16.01 16.01 0 0 0-16.006 16.006" class="B"/><g class="G"><use xlink:href="#O" x="78.05"/><path d="M104.988 57.568l14.316 10.863-14.316 11.078"/></g></g></g><path d="M1162.402 175.763c0 39.081-31.682 70.763-70.764 70.763s-70.762-31.682-70.762-70.763S1052.557 105 1091.638 105s70.764 31.681 70.764 70.763" class="D"/><path d="M1148.527 175.763c0 39.081-31.683 70.763-70.764 70.763s-70.762-31.682-70.762-70.763S1038.681 105 1077.763 105s70.764 31.681 70.764 70.763" class="C"/><path d="M1131.387 175.758c0 27.622-20.877 50.36-47.702 53.307a53.82 53.82 0 0 1-5.916.322c-29.622 0-53.63-24.007-53.63-53.629 0-29.611 24.008-53.619 53.63-53.619a53.82 53.82 0 0 1 5.916.323c26.825 2.947 47.702 25.685 47.702 53.296" class="D"/><path d="M1131.387 175.758c0 27.622-20.877 50.36-47.702 53.307-26.837-2.947-47.714-25.685-47.714-53.307 0-27.611 20.877-50.349 47.714-53.296 26.825 2.947 47.702 25.685 47.702 53.296" class="I"/><g stroke="#cce3ff" stroke-width="8"><path d="M1080.089 145.943l17.375 37.895"/><path d="M1099.119 167.951l-38.06 41.37"/></g></g></svg>