<svg xmlns="http://www.w3.org/2000/svg" xmlns:xlink="http://www.w3.org/1999/xlink" width="1632" height="1038" xmlns:v="https://vecta.io/nano"><style><![CDATA[.B{fill:#fff}.C{fill:#cce3ff}.D{fill:#dceeff}.E{fill:#b6d4ff}.F{fill-rule:nonzero}.G{stroke-width:5}.H{stroke:#dceeff}.I{fill:#19141e}.J{stroke:#19141e}.K{stroke-width:9}.L{fill:#ecf6ff}.M{fill:#5e93d1}.N{fill:#0d0b6d}.O{fill:#6ca1ff}.P{fill:#a47ef1}]]></style><defs><path d="M70.979 116.29l-.861-29.689s36.123 2.873 43.851-1.137c0 0 9.443-48.598-1.82-75.51l-.228-1.048L35.691 0l-4.742 43.159c-2.568-7.564-23.29-15.613-28.83-4.781C-9.886 61.85 33.038 77.655 33.038 77.655l-4.358 38.992" id="A"/><path id="B" d="M.021.51h85.885v29.473H.021z"/><path d="M289.578 83.598l6.091 19.62s47.566-19.504 72.033-12.104l-82.45 47.728-21.465-53.883 25.791-1.361zM67.223 24.72L40.552 49.158s3.962 16.261 5.632 31.598c2.417 22.202.931 42.243.931 42.243L.876 42.35 57.959 0l9.265 24.72z" id="C"/><path d="M240.619 89.232l25.498-2.295 5.019 16.305-21.104 8.795-9.413-22.805zM33.035 0l2.932 30.971-19.948 18.211L.18 24.843 33.035 0z" id="D"/><path d="M132.541 110.131L98.676 0h86.91 45.747c.086 26.939-3.087 71.311-19.883 121.837l53.325 251.161c.663 3.154-.458 6.303-2.734 8.341l8.103 28.771-33.119 9.642-7.889-26.811-.206.068c-4.696 1.551-9.752-1.055-11.198-5.761l-52.685-171.351c-5.941 8.759-12.415 17.501-19.452 26.182-44.553 54.961-72.321 84.603-86.602 98.862-5.098 5.1-13.029 5.349-18.408 1.182l-20.365 16.769L0 331.078l20.126-16.573c-3.226-5.172-2.695-11.898 1.428-16.488 20.52-22.897 78.27-92.822 110.987-187.886h0z" id="E"/><path id="F" d="M126.785 386.281l-13.949 4.951-55.971-194.064-34.531-119.72L0 .001h28.31l4.977 19.531 38.352 150.426z"/><path d="M285.217 65.731c-11.036 21.67-49.778 92.806-77.398 81.46-20.679-8.496-45.435-78.929-45.435-78.929l40.241-23.949 18.082 48.402 36.921-40.111c-1.254-7.948-2.258-18.338.241-22.001 4.255-6.234 25.783-25.442 25.783-25.442l3.92 32.544.685-2.743c-.001-.153.036-.318.114-.497l.023-.052 1.585-6.351c-.665-.336-.938-.814-.65-1.477.233-.538.743-1.127 1.454-1.746l5.411-21.682 4.379 1.973c4.187-.863 19.351 9.445 19.581 9.602l.003.002c3.088 1.994-4.256 34.955-10.221 41.078-4.244 4.356-17.449 8.112-24.719 9.917h0zM38.686 212.706l2.465 4.679s2.231 3.823 4.567 10.497 1.365 10.756 6.417 21.237c5.735 11.898-4.523 6.992-8.201 1.798-2.871-4.054-2.545-9.533-6.267-11.988-1.247 1.99-4.097 4.835-5.687 22.002-.285 3.079 1.111 13.066 1.111 13.066.03 2.992.414 9.233-2.993 10.185-.844.237-1.943-.697-1.943-.697s.33 3.905-3.151 4.682c-1.369.305-4.088-8.126-4.088-8.126s-.414 4.282-3.014 4.758c-.735.134-9.413-24.294-9.413-24.294l.522 5.517 1.152 5.651s-.093 3.042-2.536 3.58c-.97.214-2.832-4.859-4.577-10.828C.336 255.139.391 248.16 1.19 241.22c.964-8.387.535-11.204 4.268-21.488.446-1.23 1.046-2.642 1.715-4.094-2.048-17.681-7.82-69.434-7.113-85.323.857-19.271 21.275-62.052 21.275-62.052l41.453 23.174-22.848 41.63-1.254 79.639h0zm99.172-191.7c-24.01-1.412-34.14-16.334-36.45-20.37 15.234-1.052 16.826-.898 37.118 1.204 8.23.853 14.002 2.604 19.592 4.135 1.21 4.106 2.93 16.383-20.26 15.031z" id="G"/><path d="M189.245 43.714l.144-.028 16.354 37.597-23.342 13.604-4.873 82.087H44.538l-2.23-80.952L.258 64.578s19.83-39.765 53.76-55.592c10.97-5.12 21.03-7.536 30.39-8.46.767-.076.162-.054.255.308.053.205.238.512.453.859s.215.235 1.268 1.789 2.615 3.103 4.97 5.505c1.953 1.993 4.651 3.944 7.298 5.423 3.014 1.684 5.972 2.809 7.869 3.607 1.713.721 3.157 1.098 4.553 1.43 3.943.936 7.013 1.227 13.275 1.553.76.04 5.16-.286 5.934-.44 1.104-.219 2.093-.418 3.341-.758s4.35-1.788 6.403-4.338c.871-1.082 1.698-4.639 1.444-7.259s-1.398-2.626-.353-2.34c18.37 5 35.731 15.31 45.88 33.592a108.29 108.29 0 0 1 2.247 4.258z" id="H"/><path id="I" d="M.887.234h44.282v72.363H.887z"/><path id="J" d="M.904.234h19.171v72.363H.904z"/><path d="M84.103 59.608H31.18l-20-40.428h92.923l-20 40.428zm21.179-40.428H10c-5.523 0-10-4.294-10-9.59S4.477.001 10 .001h95.282c5.523 0 10 4.293 10 9.59s-4.477 9.59-10 9.59z" id="K"/><path d="M40.668 257.852c7.761 4.123 13.466 11.835 14.614 21.056a28.36 28.36 0 0 1 .214 3.029c.075 4.536-5.641 6.523-8.406 2.928-3.155-4.102-7.334-6.468-11.704-6.081-8.385.743-14.295 11.348-13.203 23.692l.007.078c.334 3.679-3.42 6.337-6.729 4.698C7.079 303.104.995 294.814.11 284.812c-1.059-11.964 5.642-22.825 15.943-27.612V62.055C7.337 57.366 1.412 48.159 1.412 37.568c0-11.517 7.006-21.398 16.99-25.611C22.017 4.877 29.39 0 37.845 0H210.7c7.703 0 14.506 4.046 18.39 10.118 12.719-2.007 25.535 5.084 30.284 17.6 5.125 13.506-.97 28.517-13.672 34.772v196.916c9.185 5.387 14.825 15.84 13.538 27.096-1.141 9.977-7.435 18.107-15.92 22.041-3.352 1.554-7.035-1.2-6.607-4.868.003-.027.005-.053.009-.078 1.409-12.312-4.228-23.066-12.591-24.023-4.359-.498-8.598 1.761-11.857 5.779-2.856 3.524-8.519 1.391-8.328-3.141.042-1 .139-2.009.291-3.023 1.482-9.841 8.144-17.818 16.85-21.455V76.736c-3.093 1.688-6.633 2.649-10.388 2.649H40.668v178.467h0z" id="L"/><path d="M149.268 106.502a10.67 10.67 0 0 1 9.898 10.64v4.795H16.92v-4.795a10.67 10.67 0 0 1 9.897-10.64v-1.899c0-6.492 4.743-11.93 10.935-13.019v-78.3C37.753 5.977 43.731 0 51.036 0h74.015c7.306 0 13.283 5.977 13.283 13.283v78.3c6.192 1.09 10.935 6.527 10.935 13.019v1.899zm22.58-56.255c0 7.127-5.777 12.905-12.904 12.905a12.91 12.91 0 0 1-12.905-12.905c0-7.127 5.778-12.904 12.905-12.904s12.904 5.777 12.904 12.904zM0 50.247c0-7.127 5.778-12.904 12.905-12.904S25.81 43.12 25.81 50.247a12.91 12.91 0 0 1-12.905 12.905A12.91 12.91 0 0 1 0 50.247z" id="M"/><path id="N" d="M1464.488 271.398h25.235V175h-25.235z"/><path id="O" d="M1351.343 979.54h20.124v-76.874h-20.124z"/><path id="P" d="M1421.781 473.068c-1.56 13.11-8.2 24.67-17.899 32.64h-63.431c-9.699-7.97-16.34-19.53-17.909-32.64h99.239z"/><path id="Q" d="M1389.105 691.994c0 19.295-2.057 36.943-5.487 50.63h-35.944c-3.423-13.687-5.488-31.335-5.488-50.63"/><path id="R" d="M1387.327 700.472c8.15 1.609 13.453 9.521 11.844 17.671s-9.521 13.453-17.671 11.844"/><path id="S" d="M958.578 902.422c0 6.69 5.424 12.114 12.115 12.114s12.114-5.424 12.114-12.114-5.423-12.115-12.114-12.115-12.115 5.424-12.115 12.115"/><path id="T" d="M80.613 76.527c.502 2.768-1.339 5.416-4.111 5.917a5.1 5.1 0 0 1-5.924-4.104c-.502-2.768 1.338-5.417 4.11-5.918a5.1 5.1 0 0 1 5.925 4.105"/><path id="U" d="M79.333 34.321c-5.63 4.634-6.437 12.955-1.803 18.585s12.955 6.437 18.585 1.803 6.437-12.955 1.803-18.585-12.955-6.437-18.585-1.803"/><path id="V" d="M86.389 39.974c-2.586 2.129-2.957 5.951-.828 8.538s5.951 2.957 8.537.828 2.958-5.951.829-8.538a6.07 6.07 0 0 0-8.538-.828"/><path id="W" d="M5.766 89.23h76.118V.5H5.766z"/><path id="X" d="M.5 89.23h77.535V.5H.5z"/></defs><g transform="translate(-184 -175)" fill="none" fill-rule="evenodd"><g transform="matrix(-1 0 0 1 760 647)"><g class="E"><path d="M480.813 340.61l37.744 88.703h17.116l-22.707-93.051zm-192.813 0l37.743 88.703h17.116l-22.707-93.051zM0 429.313h17.116l37.743-88.703-32.152-4.348zm192.813 0h17.116l37.744-88.703-32.153-4.348z"/><path d="M21.047 133.02V347.8l223.213.477 36.707-212.461-259.92-2.796zm17 17.184l222.769 2.396-30.866 178.647-191.903-.41V150.204z"/></g><path d="M313.958.999l-59.999 347.278h261.749L575.709.999z" class="C"/><path d="M243.572.999l-60 347.278h258.575l60-347.278z" class="D"/><path d="M179.461 348.277h307.794c15.714 0 28.453-12.739 28.453-28.454v-65.576c0-15.715-12.739-28.454-28.453-28.454H179.461c-15.715 0-28.454 12.739-28.454 28.454v65.576c0 15.715 12.739 28.454 28.454 28.454" class="C"/><path d="M19.891 348.277h272.604V225.793H19.891z" class="D"/><path d="M292.495 133.02V347.8l223.213.477 36.708-212.461-259.921-2.796zm17 17.184l222.769 2.396-30.866 178.647-191.903-.41V150.204z" class="E"/></g><path d="M1280 1074.576h26.534v-86.202H1280zm221.017 0h26.534v-86.202h-26.534z" class="D"/><g class="E"><path d="M1374.112 1074.576h26.533v-86.202h-26.533zm221.016 0h26.534v-86.202h-26.534z"/><path d="M1373.959 1003.669h247.549V271.411h-247.549z"/></g><g class="D"><path d="M1280.499 1003.669h247.551V271.411h-247.551z"/><path d="M1448.966 221.618c0 21.04-11.115 39.5-27.787 49.793h-61.204c-16.673-10.293-27.788-28.753-27.788-49.793 0-9.791 2.409-19.009 6.655-27.104h103.47c4.245 8.095 6.654 17.313 6.654 27.104"/><use xlink:href="#N"/></g><g class="C"><use xlink:href="#N" x="-25.236"/><use xlink:href="#N" x="25.235"/></g><path d="M1582.748 271.398h-67.79V175h67.79a5.13 5.13 0 0 1 5.128 5.128v86.142a5.13 5.13 0 0 1-5.128 5.128" class="E"/><path d="M1537.197 213.314h28.441v-9.545h-28.441zM1302.659 979.54h203.326V768.779h-203.326z" class="C"/><path d="M1302.66 979.54h70.147V768.779h-70.147z" class="E"/><path d="M1302.659 742.624h203.326v-210.76h-203.326z" class="C"/><path d="M1302.66 742.624h70.147v-210.76h-70.147z" class="E"/><path d="M1302.659 505.708h203.326v-210.76h-203.326z" class="C"/><path d="M1302.66 505.708h70.147v-210.76h-70.147z" class="E"/><use xlink:href="#O" class="D"/><g class="C"><use xlink:href="#O" x="-20.124"/><use xlink:href="#O" x="20.124"/></g><path d="M1444.611 979.54h-53.021v-76.874h53.021a5.13 5.13 0 0 1 5.129 5.128v66.617a5.13 5.13 0 0 1-5.129 5.129" class="E"/><path d="M1400.208 921.476h40.915v-7.611h-40.915zm9.117 11.743h22.681v-7.611h-22.681z" class="C"/><g class="D"><use xlink:href="#P"/><path d="M1421.781 445.82c-2.952 24.777-24.042 44-49.618 44s-46.666-19.223-49.619-44h99.237z"/><use xlink:href="#P" y="-54.456"/><path d="M1421.781 391.363c-2.952 24.778-24.042 44.001-49.618 44.001s-46.666-19.223-49.619-44.001h99.237z"/></g><use xlink:href="#Q" class="L"/><use xlink:href="#R" stroke="#ecf6ff" stroke-width="8"/><use xlink:href="#Q" x="72" class="L"/><use xlink:href="#R" x="64.208" stroke="#ecf6ff" stroke-width="8"/><path d="M954.98 816.552h0c0 6.903 5.597 12.5 12.5 12.5h112.469v-25.001H967.48c-6.903 0-12.5 5.597-12.5 12.501" class="C"/><path d="M1030.624 816.552h0a7.24 7.24 0 0 0 7.237 7.236h41.786a.3.3 0 0 0 .301-.3v-13.873a.3.3 0 0 0-.301-.3h-41.786a7.24 7.24 0 0 0-7.237 7.237" class="D"/><path d="M939.283 829.052v25.001h122.759c6.903 0 12.5-5.597 12.5-12.5s-5.597-12.501-12.5-12.501H939.283z" class="C"/><path d="M939.283 834.386v14.334h50.474a7.17 7.17 0 0 0 7.167-7.167 7.17 7.17 0 0 0-7.167-7.167h-50.474zm47.161-45.578l7.984-77.809h24.968l7.985 77.809c.836 8.154-5.562 15.242-13.758 15.242h-13.421c-8.196 0-14.595-7.088-13.758-15.242M896 1032.201h152V854.053H896z" class="D"/><path d="M1048 1032.201h101.144V854.053H1048z" class="E"/><path d="M909.624 1015.149h122.136v-65.36H909.624zm0-80.048h122.136v-65.36H909.624z" class="C"/><path d="M896 1074.312h14.891v-42.111H896z" class="D"/><path d="M1134.253 1074.312h14.891v-42.111h-14.891z" class="E"/><path d="M1033.108 1074.312H1048v-42.111h-14.892z" class="D"/><g class="E"><path d="M995.538 1074.312h14.891v-42.111h-14.891z"/><use xlink:href="#S"/><use xlink:href="#S" y="80.047"/></g><g transform="matrix(-1 0 0 1 1702 329)"><g transform="translate(283 111)"><use xlink:href="#A" transform="translate(0 32.603)" class="M"/><path fill="#000" opacity=".4" d="M70.118 119.203l-24.357-5.216 24.24 16.355z"/><path fill="#2437a8" d="M90.21 70.687l8.417 20.552-10.087.128z"/><g class="N"><use xlink:href="#T"/><use xlink:href="#T" x="26.474"/></g><path d="M79.745 97.186s3.526 5.71 10.509 5.226" class="B"/><path d="M79.745 97.186s3.526 5.71 10.509 5.226" stroke="#252535" stroke-width="4"/><path d="M31.409 76.222c-5.692-5.894-11.887-8.391-15.645-9.428l.717-14.875 35.808-6.236c-2.468 16.594-12.052 25.648-20.88 30.539h0z" fill="#eacb47"/><path d="M114.261 48.36c-3.226-3.065-24.252-4.015-49.527-2.071-5.879.452-11.515 1.022-16.726 1.682-17.229 2.161-29.906 5.235-31.969 7.939C13.75 22.129 34.464 2.011 61.586.14c17.793-1.23 33.929 5.705 43.588 20.154 4.943 7.405 8.195 16.791 9.088 28.066" fill="#393954"/><g transform="translate(47.986 19.046)"><mask id="Y" class="B"><use xlink:href="#B"/></mask><path d="M66.683 29.983h-.009c-.034-.235-.173-.461-.398-.669-3.226-3.065-24.252-4.015-49.527-2.071-5.88.452-11.515 1.022-16.726 1.682 7.413-7.035 20.975-18.156 36.972-23.147 6.841-2.134 13.778-3.689 20.194-4.53 15.573-2.062 28.068.054 28.692 8.129.806 10.507-16.509 19.304-19.197 20.607" fill="#161629" mask="url(#Y)"/></g></g><g transform="translate(137 430.237)"><g transform="translate(0 314.078)"><mask id="Z" class="B"><use xlink:href="#C"/></mask><use xlink:href="#C" class="N"/><g mask="url(#Z)" class="F I"><path d="M-14.019 15.377h382v124h-382z"/></g></g><g transform="translate(24.533 314.054)"><mask id="a" class="B"><use xlink:href="#D"/></mask><g fill="#cf3e83"><use xlink:href="#D"/><g mask="url(#a)" class="F"><path d="M-11.39 15.4h302v97h-302z"/></g></g></g><g transform="translate(28.547)"><mask id="b" class="B"><use xlink:href="#E"/></mask><use fill="#101016" xlink:href="#E"/><g mask="url(#b)" fill="#2437a8" class="F"><path d="M.453 0h279v423h-279z"/></g></g><path d="M257.684 392.942l-.206.068c-4.696 1.551-9.752-1.055-11.198-5.761l-52.685-171.351-32.506-105.765L127.223 0h86.91l25.864 121.837 53.325 251.161c.663 3.154-.458 6.303-2.734 8.341l8.103 28.771-33.119 9.642-7.889-26.811z" opacity=".099" class="B"/><g transform="translate(148.663)"><mask id="c" class="B"><use xlink:href="#F"/></mask><use fill="#efefef" xlink:href="#F"/><g mask="url(#c)" fill="#f6b852" class="F"><path d="M.289 0h126v391h-126z"/></g></g></g><g transform="translate(203 232.877)"><g transform="translate(0 20.766)"><mask id="d" class="B"><use xlink:href="#G"/></mask><use fill="#e576c6" xlink:href="#G"/><g mask="url(#d)" fill="#ed4848" class="F"><path d="M0 .111h321v288H0z"/></g></g><g transform="translate(17 20.877)"><mask id="e" class="B"><use xlink:href="#H"/></mask><use xlink:href="#H" class="M"/><g mask="url(#e)" class="F N"><path d="M0 0h206v177H0z"/></g></g><path stroke="#000" opacity=".201" d="M59.306 116.895l10.667 7.218 25.641-29.772" class="G"/><g transform="translate(270 .761)"><mask id="f" class="B"><use xlink:href="#I"/></mask><path d="M32.834 63.507l-1.858 9.089H.887L15.08.233h30.089l-5.511 28.098-5.917-2.735-1.843-.509-1.451.081-.629.428v1.758l6.432 9.224-4.92 2.138-7.57 3.96-2.187 1.51-.847.783-.692.618-.441.531-.265.475-.114.616.114.273.132.21.191.189 2.481.874 5.66-1.546h5.594l-7.467 1.546L21 51.692l-1.672 1.572-.945 1.155v1.057l1.651.741 10.414-1.192L27 56.894l-2.285 1.413-2.095 1.078L21 61.469v1.029l.574.604 1.454.771h2.218 4.468l3.119-.366z" mask="url(#f)" class="M"/></g><g transform="translate(265 .761)"><mask id="g" class="B"><use xlink:href="#J"/></mask><path fill="#020101" mask="url(#g)" d="M5.883 72.597H.904L15.097.233h4.978z"/></g><path d="M290.257 9.396c-.416 2.114-1.649 3.653-2.754 3.438s-1.663-2.103-1.247-4.216 1.649-3.653 2.754-3.439 1.663 2.104 1.247 4.217" fill="#020101"/></g></g><g transform="translate(473 519)"><g transform="translate(36 336.235)"><path d="M420.82 355.325H0c1.944-49.952 32.611-71.294 79.38-72.475 30.872-83.699 98.515 1.694 103.384-64.512 5.721-77.857 7.366-169.619 7.366-169.619l39.88.661 10.24 149.214c4.9 70.895 54.82 5.146 120.39 48.11 33.099 21.689 31.623 74.157 31.623 74.157s28.557 1.43 28.557 34.464" fill="#b5b8bc"/><g fill="#d7dadd"><path d="M144.59 355.325H41.37c4.49-22.152 23.66-38.31 46.24-40.525a55.76 55.76 0 0 1 13.28.326c2.59.384 5.11.93 7.55 1.649 6.69 1.967 12.75 5.15 17.93 9.254 9.35 7.375 15.87 17.731 18.22 29.296m229.41 0h-55.86c2.29-10.194 9.58-18.45 19.17-21.586a27.34 27.34 0 0 1 7.14-1.323c1.43-.077 2.85-.038 4.23.105 12.17 1.237 22.34 10.462 25.32 22.804"/><path d="M283.18 355.325H123.56c-.66-6.31-.51-12.792.53-19.342a75.72 75.72 0 0 1 2.28-9.954c11.04-36.497 48.85-60.395 89.09-54.526 9.51 1.39 18.37 4.326 26.35 8.506 27.67 14.461 44.74 43.843 41.37 75.316M156.442 210.177c-1.309 8.25-9.344 13.919-17.946 12.664s-14.515-8.96-13.206-17.209 9.343-13.919 17.946-12.664 14.515 8.96 13.206 17.209"/><path d="M270.833 213.041c-.54 3.404-3.856 5.744-7.406 5.226s-5.991-3.698-5.45-7.103 3.856-5.744 7.406-5.226 5.99 3.698 5.45 7.103m187.049 103.672c-1.247 7.856-8.899 13.256-17.092 12.061s-13.824-8.534-12.577-16.39 8.899-13.257 17.092-12.061 13.824 8.534 12.577 16.39"/></g><g transform="translate(153.989)"><mask id="h" class="B"><use xlink:href="#K"/></mask><use xlink:href="#K" class="O"/><g mask="url(#h)" class="F P"><path d="M.011 0h115v59h-115z"/></g></g><path d="M237.923 59.607H185l-20-40.428h92.923z" fill="#000" opacity=".402"/></g><g transform="translate(123 205)"><mask id="i" class="B"><use xlink:href="#L"/></mask><use xlink:href="#L" class="O"/><g mask="url(#i)" class="F P"><path d="M-10-3h286v312H-10z"/></g><path d="M127.135 57.986a12.04 12.04 0 0 1-12-12V30.538a12.04 12.04 0 0 1 12-12h66.381a12.04 12.04 0 0 1 12 12v15.448a12.04 12.04 0 0 1-12 12h-66.381zM124.7 38.262a13.69 13.69 0 0 0 13.685 13.685c7.557 0 13.684-6.127 13.684-13.685s-6.127-13.684-13.684-13.684S124.7 30.704 124.7 38.262zm37.556 0a13.69 13.69 0 0 0 13.685 13.685c7.557 0 13.684-6.127 13.684-13.685s-6.127-13.684-13.684-13.684-13.685 6.126-13.685 13.684z" class="I"/><path d="M221.088 257.319V76.798l5.872-5.968 3.603-4.692c.207-.254.446-.679.493-.768s.036-.096.122-.089l2.218.089c1.707 0 3.782-.191 6.101-.681.767-.162 1.842-.472 3.161-.913.618-.207 1.634-.634 3.046-1.281v194.824h-24.615zm8.003-247.201c12.719-2.007 25.535 5.084 30.284 17.6 5.444 14.348-1.773 30.393-16.122 35.837-4.007 1.521-8.147 2.054-12.151 1.72.912-2.398 1.412-4.994 1.412-7.702V21.814c0-4.295-1.258-8.311-3.424-11.696h0zM22.518 64.546a17.26 17.26 0 0 0 .611.125c.775.144 1.676.333 2.698.48a28.07 28.07 0 0 0 3.371.202c15.347 0 27.787-12.441 27.787-27.787S44.546 9.781 29.199 9.781a27.7 27.7 0 0 0-10.797 2.176C22.017 4.876 29.39 0 37.845 0h27.371c11.997 0 21.813 9.816 21.813 21.814v35.758c0 11.997-9.816 21.813-21.813 21.813H40.668v177.934H16.053V62.066l.505.26-.002-.008c1.874.959 3.872 1.712 5.962 2.228h0z" fill="#000" opacity=".401"/><path d="M221.088 234.627h24.615-24.615zm0-21h24.615-24.615zm0-21h24.615-24.615zm0-21h24.615-24.615zm0-21h24.615-24.615zm0-21h24.615-24.615zm0-21h24.615-24.615zm0-21h24.615-24.615zm-205.035 147h24.615-24.615zm0-21h24.615-24.615zm0-21h24.615-24.615zm0-21h24.615-24.615zm0-21h24.615-24.615zm0-21h24.615-24.615zm0-21h24.615-24.615zm0-21h24.615-24.615z" class="G J"/><path d="M106 131.168h34.77V76H106z" class="I"/></g><g transform="translate(167 82)"><g stroke-linecap="round" class="G"><path d="M150.671 51.246h-30.465" class="J"/><path d="M57.676 9.699c-5.792 0-10.532 4.739-10.532 10.532" stroke="#fff"/><path d="M12.524 51.246h37.471" class="J"/></g><g transform="translate(0 1)"><mask id="j" class="B"><use xlink:href="#M"/></mask><use xlink:href="#M" class="O"/><g mask="url(#j)" class="F P"><path d="M0 .001h172v122H0z"/></g></g><path d="M26.817 107.501v-3.294c.579-5.974 5.948-11.823 13.218-11.823h96.015c7.27 0 12.413 5.399 13.218 11.392v3.725a10.67 10.67 0 0 1 9.898 10.64v4.795H16.92v-4.795a10.67 10.67 0 0 1 9.897-10.64h0zm145.031-56.255c0 7.127-5.777 12.905-12.904 12.905a12.91 12.91 0 0 1-12.905-12.905c0-7.127 5.778-12.904 12.905-12.904s12.904 5.777 12.904 12.904zM0 51.246c0-7.127 5.778-12.904 12.905-12.904S25.81 44.119 25.81 51.246a12.91 12.91 0 0 1-12.905 12.905A12.91 12.91 0 0 1 0 51.246z" fill="#000" opacity=".396"/><g class="J"><path d="M27.66 107.818h121.309" class="G"/><path d="M58.457 72.292h79.876" stroke-width="7"/></g><use xlink:href="#U" class="B"/><use xlink:href="#V" class="I"/><use xlink:href="#U" x="34.731" class="B"/><use xlink:href="#V" x="34.73" class="I"/></g></g><g transform="matrix(-1 0 0 1 651 182)"><path d="M122.095 194.756h130.994V.5H122.095z" class="D"/><path d="M122.095 194.756h130.994V.5H122.095z" class="H K"/><path d="M.5 194.756h245.499V.5H.5z" class="B"/><path d="M.5 194.756h245.499V.5H.5z" class="H K"/><path d="M23.097 173.623h200.305V21.633H23.097z" class="B"/><path d="M23.097 173.623h200.305V21.633H23.097z" class="H K"/><path d="M73.768 136.906h99.98V58.349h-99.98z" class="E"/></g><g transform="matrix(-1 0 0 1 768 379)"><path d="M0 17.776h423.177V0H0z" class="D"/><path d="M423.177 17.776h69.618V0h-69.618z" class="C"/><path d="M103.141 17.776l33.046 51.846V17.776z" class="E"/><path d="M84.853 17.776l33.046 51.846h18.288l-33.046-51.846z" class="C"/><path d="M345.517 17.776l33.047 51.846V17.776z" class="E"/><path d="M327.229 17.776l33.047 51.846h18.288l-33.047-51.846z" class="C"/></g><g transform="matrix(-1 0 0 1 763 287)"><use xlink:href="#W" class="D"/><use xlink:href="#W" class="G H"/><use xlink:href="#X" class="B"/><use xlink:href="#X" class="G H"/><path d="M18.852 66.141H56.11V23.427H18.852z" class="C"/></g><g class="D"><path d="M1807.042 694.149s-76.674 169.231-85.829 353.231l85.829-353.231"/><path d="M1669.855 824.201s55.187 1.436 63.589 185.436c0 0-23.551-138.872-63.589-185.436"/><path d="M1726.21 638.999s32.216 194.674.506 392.766l-.506-392.766"/></g><path d="M1769.667 1083.859h-79.677c-.598 0-1.194-.011-1.788-.033-36.331-1.358-56.544-47.312-35.968-80.466l18.253-29.408h118.683l18.252 29.408c20.577 33.154.364 79.108-35.967 80.466-.594.022-1.189.033-1.788.033" class="L"/><path d="M1644 1041.589h171.657m-167.673-28.422h164.241" stroke="#b6d4ff" class="K"/><g transform="matrix(-1 0 0 1 361 287)"><use xlink:href="#W" class="D"/><use xlink:href="#W" class="G H"/><use xlink:href="#X" class="B"/><use xlink:href="#X" class="G H"/><path d="M18.852 66.141H56.11V23.427H18.852z" class="C"/></g></g></svg>