<svg xmlns="http://www.w3.org/2000/svg" xmlns:xlink="http://www.w3.org/1999/xlink" width="2268" height="1136" xmlns:v="https://vecta.io/nano"><style><![CDATA[.B{fill:#fff}.C{fill-rule:nonzero}.D{stroke-width:3}.E{fill:#cce3ff}.F{fill:#b6d4ff}.G{fill:#19141e}.H{fill:#e576c6}.I{fill:#0d0b6d}.J{stroke:#000}.K{fill:#ecf6ff}.L{stroke:#cce3ff}.M{stroke-width:7}.N{fill:#cf3e83}.O{opacity:.147}.P{fill:#ce3d29}.Q{opacity:.201}.R{stroke-linecap:square}]]></style><defs><path d="M78.101 86.331c-6.87 3.94-18.601 4.92-28.82 4.33l-2.35 29.04-33.37-13.73 4.59-44.34C11.441 55.541.021 52.721 0 42.381c-.009-3.57 2.08-9.77 9.8-9.78 10.37-.01 8.891 12.4 8.891 12.4 11.71 4.56 23.7-34.82 30.62-43.75 3.779-4.87 32.8 6.05 32.8 6.05l17.45 4.67s.609 61.69-21.46 74.36" id="A"/><path d="M326.125 87.826l5.524 20.974s43.888-18.872 67.562-10.525l-78.447 49.149-19.783-58.658 25.144-.94zM60.029 24.797L35.517 49.312s2.227 13.349 2.336 28.812c.158 22.383-2.932 44.297-2.932 44.297L0 42.482 51.514 0l8.515 24.797z" id="B"/><path d="M276.001 76.392l25.74-4.799 9.716 37.231-20.736 8.935-14.721-41.366zM30.963 0l2.694 31.067-18.333 18.267L.768 24.919 30.963 0z" id="C"/><path d="M170.349 319.821C130.39 399.349 61.603 466.77 61.603 466.77L.016 375.442s82.048-72.038 120.769-231.114c-6.509-26.136-11.135-47.665-12.759-61.463C102.699 37.683 129.573 7.26 136.785 0h3.308 81.028c1.732 6.442 8.597 42.557 6.222 95.759l25.23 86.905 80.846 282.519-104.999 37.452s-30.14-90.252-58.071-182.814h0z" id="D"/><path id="E" d="M.218 140h45.385V0H.218z"/><path d="M227.311 228.597l-20.787 8.765c.053-3.186.546-6.218 1.673-8.868 2.151-5.059 13.453-6.48 13.453-6.48l5.661 6.583h0zm6.434 7.626c3.671 4.416 6.914 8.462 7.556 9.723 1.614 3.171 4.599 18.868 4.457 21.969s-9.444 17.037-9.444 17.037c-5.771-1.414-2.002-8.611-2.002-8.611s-5.17 4.371-7.318 4.298c-20.241-.69-19.156-10.938-18.678-12.221 1.075-2.882 6.478.413 6.478.413s-5.224-10.597-7.371-22.021l26.321-10.588h0zM137.658 22.63C120.145 20.986 112.34 6.334 109.491.734c6.219-.07 12.215.667 18.026 1.006 11.675.678 20.574.987 27.888 2.302.486 1.754 4.117 20.631-17.747 18.588zM36.763 229.354l2.826 9.036s.757 5.061.891 10.98.062 9.506 3.379 18.643c2.312 6.367-6.845 3.771-9.171.129-2.4-3.757-2.428-18.348-7.186-15.851s-7.468 16.956-7.746 30.797c-.043 2.175-1.807 3.808-3.008 4.335-1.947.855-3.859-7.881-3.859-7.881s-1.253 2.911-4.089 1.419c-1.003-.527-3.578-6.577-3.578-6.577s-2.145-3.052-3.115-6.344C.392 262.228-.463 251.631.255 248.597c.917-3.876 3.389-10.959 5.519-16.787l30.988-2.456z" id="F"/><path d="M189.635 24.796l44.871-18.92 3.404 9.062-45.64 18.359-2.635-8.501zM.319 4.758L50.936.374v9.539l-50.461 4-.156-9.155z" id="G"/><path d="M78.11 86.829c-6.6 4.39-18.6 4.93-28.82 4.34l-2.35 29.04s-16.59-7.24-26.09-12.6c-1.64-.92-3.06-1.79-4.15-2.56l1.11-10.66v-.02l3.06-29.14C15.27 56.739.02 54.829 0 42.889c0-3.58 2.09-9.77 9.81-9.78 10.36-.02 8.89 12.4 8.89 12.4 11.71 4.56 27.89-35.38 34.8-44.3 3.78-4.88 28.61 6.59 28.61 6.59l16.47 18.43c.32 2.26-.84 47.54-20.47 60.6" id="H"/><path d="M218.441 225.99c-8.606-14.001-36.64-60.407-38.279-73.427-2.053-16.309-.211-37.369-.211-37.369l26.224-15.61 6.634 38.819 27.031 84.838c5.307 6.239 11.969 14.225 12.921 16.094 1.613 3.171 4.599 18.868 4.457 21.969s-9.444 17.037-9.444 17.037c-5.772-1.414-2.002-8.611-2.002-8.611s-5.17 4.372-7.319 4.298c-20.24-.69-19.155-10.938-18.677-12.221 1.075-2.882 6.478.414 6.478.414s-10.583-21.47-7.813-36.232h0zm-183.294-9.208l5.377 22.414a98.08 98.08 0 0 0 .147 11.014c-.266 5.915-.579 9.489 2.113 18.83 1.876 6.509-7.085 3.3-9.16-.492-2.14-3.91-1.182-18.47-6.098-16.3s-8.596 16.412-9.808 30.204c-.191 2.167-2.061 3.677-3.295 4.121-2 .722-3.318-8.124-3.318-8.124s-1.446 2.821-4.175 1.141c-.965-.595-3.125-6.804-3.125-6.804s-1.934-3.191-2.681-6.54c-1.317-5.915-1.454-16.545-.533-19.524 2.096-6.776 6.113-17.974 10.053-24.368-.158-17.795-.45-87.742 4.53-100.649 5.715-14.814 16.058-34.675 16.058-34.675l30.677 20.511-16.454 26.645-10.307 82.596zM147.916 2.615s8.054 5.692 14.07 15.87c8.233 13.924 3.929 25.937-8.737 25.957-13.563.023-29.126-4.593-35.687-25.133-3.319-10.39-6.454-18.595-6.454-18.595l36.808 1.901z" id="I"/><path d="M90.547.839c.405 1.067 3.326 8.828 6.406 18.47 6.561 20.54 22.124 25.156 35.687 25.133 12.666-.02 16.97-12.033 8.737-25.957-5.299-8.965-12.179-14.449-13.744-15.629 15.994 1.081 25.954 3.089 35.178 11.741 17.561 16.47 30.844 63.84 33.154 92.16l-31.979 11.54-7.098 31.75H72.761s.907-9.5-.903-21.19c-2.36-15.29-10.875-26.7-10.875-26.7l-8.448 12.84L0 84.027c17.2-31.362 41.19-63.7 57.185-73.99C68.977 2.447 80.045.793 90.547.839h0zm4.967.134l1.723.089-1.723-.089h0z" id="J"/><path d="M331.321 90.01l5.612 21.495s44.586-19.342 68.638-10.788l-79.697 50.372-20.097-60.116 25.544-.964zM60.985 25.413L36.082 50.537s2.263 13.681 2.373 29.529c.16 22.938-2.979 45.398-2.979 45.398L0 43.539 52.334 0l8.651 25.413z" id="K"/><path d="M286.341 95.652l25.275-1.987 4.622 17.863-21.067 9.156-8.831-25.032zM31.276 0l2.738 31.839-18.626 18.721L.6 25.54 31.276 0z" id="L"/><path d="M220.594 104.388l18.388 79.978 76.982 315.575-4.277 1.301-.02.01-22.704 6.928-.059.01-18.211 5.559S215.982 383.435 171.165 262.6c-8.711 16.841-18.782 33.712-30.42 50.327C80.041 399.595 25.438 455.065 25.438 455.065l-5.932-10.938-.01-.01-13.432-24.763-.118-.218-5.863-10.81s89.34-94.651 126.56-275.922c-6.908-23.503-11.49-42.729-12.643-55.333C110.6 39.881 134.654 6.484 139.64 0h57.638 26.834c.581 4.701 4.582 46.306-3.518 104.387h0z" id="M"/><path id="N" d="M649.898 1031.651c0 32.473-26.324 58.797-58.797 58.797s-58.796-26.324-58.796-58.797 26.324-58.797 58.796-58.797 58.797 26.324 58.797 58.797"/><path id="O" d="M1497.057 1027.87c0-39.105 33.251-70.806 74.269-70.806s74.268 31.701 74.268 70.806h-148.537z"/></defs><g transform="translate(-171 -95)" fill="none" fill-rule="evenodd"><path d="M1520.038 342.83c0 105.931-43.816 202.141-143.019 202.141S1234 448.761 1234 342.83C1234 218.567 1308.965 95 1377.019 95s143.019 123.567 143.019 247.83" class="K"/><path d="M1377.019 319.985V621.66m3-163.789l38.709-43.464m-47.414-15.543l-38.71-43.465" stroke="#dceeff" stroke-width="8" class="R"/><path d="M1098.059 364.065c-3.911-8.853-25.349-7.355-25.352-32.042-.006-37.171 67.709-32.929 71.702-60.936s-39.519-27.338-40.866-50.96 31.739-72.366 81.939-72.366c39.583 0 6.799 37.611 38.744 54.43s68.431-4.728 86.488 21.72c24.873 36.431-38.729 80.185-32.454 108.113s43.56 21.325 44.702 52.012-53.021 36.087-47.918 62.401c3.217 16.587 37.493 11.049 39.291 43.757 1.523 27.692-116.246 61.958-204.713 5.606s3.367-97.943-11.561-131.735" class="E"/><path d="M1195.563 296.988v272.157m1.854-87.884l46.259-34.972m-45.641-64.642l23.516-17.778m-28.46 57.357l-36.887-27.886m37.739-58.215l-17.922-13.549" stroke-width="8" stroke="#ecf6ff" class="R"/><path d="M928 669.077S995.29 514 1102.663 514c87.088 0 96.807 109.784 176.64 107.077s120.295-52.846 192.305-52.846c90.862 0 165.899 100.846 165.899 100.846H928zm-58.962 357.21v-.011l-18.11-140.319h219.559l18.111 140.33z" class="K"/><g class="F"><use xlink:href="#N"/><path d="M1107.37 1031.651c0 32.473-26.324 58.797-58.797 58.797s-58.797-26.324-58.797-58.797 26.324-58.797 58.797-58.797 58.797 26.324 58.797 58.797"/></g><path d="M901.65 1026.292H257.38c-39.08 0-72.089-29.021-77.089-67.78l-9.29-71.99 124.37-.56-.011-.05-33.779-229.41H767.98l82.301 227.68.649 1.78 50.72 140.33z" class="E"/><path d="M901.65 1026.292H749.951l-14.25-39.41-5.931-16.42-30.54-84.5-82.939-229.46H767.98l82.301 227.68.649 1.78zm-252.06-140.38H490.83l-33.78-229.41h109.61l33.29 92.099 11.47 31.72 27.17 75.16 2.85 7.87z" class="B"/><g class="E"><path d="M944.01 1026.282h-252v-140.32h151.723c46.988 0 86.67 34.889 92.684 81.492l7.593 58.828z"/><path d="M984.7 885.962v140.32h-40.69l-18.111-140.32z"/></g><path d="M944.01 1026.287v-.011L925.9 885.957h151.694c38.811 0 71.585 28.816 76.553 67.308l9.424 73.022H944.01z" class="K"/><path d="M292.055 1027.488c0-39.105 33.251-70.806 74.269-70.806s74.268 31.701 74.268 70.806H292.055zm457.472 0c0-39.105 33.251-70.806 74.269-70.806s74.268 31.701 74.268 70.806H749.527z" class="B"/><use xlink:href="#N" x="232.694" class="F"/><path d="M1138.032 955.389c0 13.999-9.247 25.348-20.654 25.348s-20.656-11.349-20.656-25.348 9.248-25.349 20.656-25.349 20.654 11.349 20.654 25.349m-130.469 0c0 13.999-9.247 25.348-20.655 25.348s-20.655-11.349-20.655-25.348 9.247-25.349 20.655-25.349 20.655 11.349 20.655 25.349" class="B"/><path d="M425.119 1031.651c0 32.473-26.323 58.797-58.796 58.797s-58.797-26.324-58.797-58.797 26.324-58.797 58.797-58.797 58.796 26.324 58.796 58.797" class="F"/><path d="M1033.659 966.341h42.99v-21.904h-42.99z" class="E"/><path d="M518.12 885.912v.02H406.29l-33.78-229.43h111.82zm-153.81 0H252.48l-78.105.049L265.914 656.5l64.606.002z" class="B"/><path d="M850.928 885.958l-.65-1.779-82.298-227.677" class="L M"/><path d="M176.048 925.649h597.747" stroke="#fff" class="D"/><path d="M174.375 885.961L265.914 656.5h500.714" class="L M"/><path d="M661.452 873.83h-68.308c-17.672 0-32-14.327-32-32s14.328-32 32-32h68.308v64zM1854.9 1032.033c0 32.472-26.324 58.796-58.797 58.796s-58.796-26.324-58.796-58.796 26.324-58.796 58.796-58.796 58.797 26.324 58.797 58.796m477.472 0c0 32.472-26.324 58.796-58.797 58.796s-58.797-26.324-58.797-58.796 26.324-58.796 58.797-58.796 58.797 26.324 58.797 58.796" class="F"/><path d="M2176.65 1026.67h-712.609l-18.04-139.77 124.37-.56-49.75-337.84h483.189l121.47 336.06.65 1.78z" class="E"/><path d="M2176.65 1026.67h-151.7l-14.25-39.41-5.93-16.42-30.54-84.5-122.12-337.84h151.7l121.47 336.06.65 1.78zm-252.06-140.38h-158.76l-49.74-337.79h86.399l72.46 200.48 11.471 31.72 27.17 75.16 2.85 7.87z" class="B"/><path d="M1967.008 1026.668h292.696V886.344h-292.696z" class="E"/><path d="M2438.574 1026.669h-219.558l-18.113-140.326h219.558z" class="K"/><g class="B"><use xlink:href="#O"/><use xlink:href="#O" x="477.472"/></g><path d="M2107.594 1032.033c0 32.472-26.324 58.796-58.797 58.796s-58.796-26.324-58.796-58.796 26.323-58.796 58.796-58.796 58.797 26.324 58.797 58.796" class="F"/><path d="M2413.034 955.771c0 13.999-9.247 25.348-20.654 25.348s-20.656-11.349-20.656-25.348 9.248-25.348 20.656-25.348 20.654 11.348 20.654 25.348m-130.469 0c0 13.999-9.248 25.348-20.655 25.348s-20.655-11.349-20.655-25.348 9.247-25.348 20.655-25.348 20.655 11.348 20.655 25.348" class="B"/><g class="F"><path d="M1913.594 863.73h-31.801c-8.893 0-16.102-7.209-16.102-16.103v-84.073c0-8.893 7.209-16.103 16.102-16.103h31.801V863.73z"/><path d="M1913.594 863.73h20.062v-49.951h-20.062zm-283.473 168.303c0 32.472-26.323 58.796-58.796 58.796s-58.797-26.324-58.797-58.796 26.324-58.796 58.797-58.796 58.796 26.324 58.796 58.796"/></g><path d="M1886.418 863.73V747.451" stroke="#fff" class="D"/><path d="M2308.661 966.723h42.99v-21.905h-42.99z" class="E"/><path d="M1727.88 886.29h-111.83l-49.74-337.79h111.82z" class="B"/><path d="M2125.93 886.341l-.65-1.78-123.47-336.06h-477.57" class="L M"/><path d="M1451.05 926.031h597.747" stroke="#fff" class="D"/><g transform="translate(666 356)"><g transform="translate(180 38)"><g class="G"><path d="M137.886 68.193c.057 37.166-30.753 67.339-68.816 67.394S.104 105.559.047 68.394 30.8 1.055 68.864.999s68.965 30.028 69.022 67.194"/><path d="M0 68.511l.105 75.053 137.84-.217-.105-75.053z"/></g><path d="M80.019 136.151s-12.931.382-18.442-2.629l17.755 11.148.687-8.519z" class="N"/><g transform="translate(30.739 45.489)"><mask id="P" class="B"><use xlink:href="#A"/></mask><use fill="#5e93d1" xlink:href="#A"/><g mask="url(#P)" class="C H"><path d="M.261 9.511h99v110h-99z"/></g></g><path fill="#2437a8" d="M108.129 90.47l7.4 17.94-8.586-.172z"/><path d="M100.25 91.248c-.185 3.584-2.292 6.376-4.708 6.237s-4.225-3.157-4.04-6.741 2.292-6.377 4.708-6.238 4.225 3.158 4.04 6.742m22.686-.573c-.184 3.584-2.292 6.376-4.708 6.237s-4.225-3.157-4.04-6.741 2.292-6.377 4.708-6.237 4.225 3.157 4.04 6.741" class="I"/><path d="M104.837 116.831s-5.594 1.805-11.199-4.427" stroke="#1c295e" class="D"/><path d="M79.998 136.151s-12.931.382-18.442-2.628l17.755 11.147.687-8.519z" fill="#000" opacity=".395"/><path d="M51.206 90.854s55.737-3.085 82.014-37.085c16.186-20.946-77.197-26.513-77.197-26.513l-4.817 63.598z" class="G"/></g><g transform="translate(41 337)"><g transform="translate(0 390.394)"><mask id="Q" class="B"><use xlink:href="#B"/></mask><g class="I"><use xlink:href="#B"/><g mask="url(#Q)" class="C"><path d="M-11.538 20.183h411v127h-411z"/></g></g></g><g transform="translate(20.192 390.371)"><mask id="R" class="B"><use xlink:href="#C"/></mask><g class="N"><use xlink:href="#C"/><g mask="url(#R)" class="C"><path d="M-4.808.975h335v116h-335z"/></g></g></g><g transform="translate(22.115 .961)"><mask id="S" class="B"><use xlink:href="#D"/></mask><g class="I"><use xlink:href="#D"/><g mask="url(#S)" class="C"><path d="M-2.885.001h337v503h-337z"/></g></g></g><path d="M355.535 466.144l-104.999 37.452s-31.539-94.443-59.991-189.192c-17.768-59.106-35.827-121.702-47.644-169.115-6.509-26.135-11.135-47.663-12.759-61.462C124.815 38.644 151.689 8.221 158.9.961h59.452c4.943 13.356 14.904 42 31.107 95.76l25.23 86.904 80.846 282.519" class="B O"/></g><g transform="translate(112 181)"><path d="M217.302 238.409s-38.833-62.061-40.771-77.454c-2.053-16.309-.21-37.369-.21-37.369l26.223-15.61 6.635 38.818 28.297 88.812m-228.419-.74s-1.229-89.954 4.486-104.768 16.059-34.675 16.059-34.675l30.677 20.51-16.454 26.645-11.341 90.879" class="H"/><path d="M148.907 26.86l4.59 131.12-21.3-.32 1.84-130.31-.739-.54.769.05-16.74-17.2 9.11.6 21.151 1.16c.759 1.03 2.449 3.84 2.25 8.34-.171 3.67-.441 5.45-.641 6.31-.14.6-.25.75-.28.78l-.01.01z" class="P"/><path d="M96.532 81.026l-19.487 29.525" stroke="#ff9929" class="D"/><g transform="translate(116 18.477)"><mask id="T" class="B"><use xlink:href="#E"/></mask><g fill="#fcbda4"><use xlink:href="#E"/><g mask="url(#T)" class="C"><path d="M-12 3.523h70v136h-70z"/></g></g></g><g transform="translate(0 8)"><mask id="U" class="B"><use xlink:href="#F"/></mask><g class="H"><use xlink:href="#F"/><g mask="url(#U)" class="C"><path d="M-11-8h265v296H-11z"/></g></g></g><path d="M32.772 269.596c.55 2.705 1.094 5.26 1.916 6.546 2.326 3.642 11.483 6.238 9.171-.129-3.317-9.137-3.246-12.725-3.379-18.643s-.891-10.98-.891-10.98l-2.921-9.34 1.079-9.01-37.46 3.06s1.271-79.1 16.45-122.18c13.281-37.67 37.51-78.58 56.43-90.49a63.66 63.66 0 0 1 3.381-1.99l-3.73-5.07L113.847 0s-1.26 4.93 3.05 9.23c.129.14.28.28.429.43l16.741 17.2-.77-.05.739.54-1.84 130.31-2.559 182.05-104.88-3.16 8.015-66.954h0z" class="P"/><path d="M218.926 248.707s2.841 10.729 12.588 14.072c3.408 1.169 2.557 14.969 10.911 13.318" class="D J O"/><g transform="translate(4 226)"><mask id="V" class="B"><use xlink:href="#G"/></mask><g fill="#fcbda4"><use xlink:href="#G"/><g mask="url(#V)" class="C"><path d="M-3-4h241v37H-3z"/></g></g></g><g class="P"><path d="M241.827 230.47l-50.52 21.3-20.469-192.23-6.49-34.24 7.469-.76 6.821-3.62 2.429 2.07c26.24 24.08 30.071 112 30.071 112l30.689 95.48z"/><path d="M191.307 251.77l-1.29.55-19.9-66.66 5.95-27.35-22.571-.33-4.589-131.12.009-.01c.031-.03.141-.18.281-.78.2-.86.469-2.64.64-6.31.199-4.5-1.49-7.31-2.25-8.34l-.36-.44.74-6.98 32.36 16.03-1.69.89-6.82 3.62-7.47.76 6.49 34.24 20.47 192.23z"/><path d="M148.916 26.85l.28-.78c-.139.6-.25.75-.28.78m51.761 312.86h-40.82l-6.361-181.729 22.571.329-5.951 27.35 19.901 66.66 1.29-.55z"/></g><g class="D J"><path d="M72.816 11.367s13.51 17.319 28.941 20.396c14.601 2.912 32.311-4.906 32.311-4.906m46.26-6.823s-1.187 8.596-6.8 10.75c-9.836 3.773-22.653-4.578-22.653-4.578" opacity=".205"/><path d="M191.331 251.951L179.926 88.477" class="Q"/></g><path d="M167.403 95.942c-.104 3.438-2.49 6.156-5.331 6.071s-5.06-2.943-4.955-6.381 2.49-6.156 5.33-6.07 5.06 2.942 4.956 6.38m-2.563-45.859c-.104 3.438-2.49 6.156-5.33 6.071s-5.06-2.943-4.956-6.381 2.49-6.156 5.331-6.07 5.059 2.942 4.955 6.38m5.124 91.719c-.104 3.438-2.49 6.156-5.331 6.071s-5.059-2.943-4.955-6.381 2.49-6.156 5.33-6.07 5.06 2.942 4.956 6.38" class="Q" fill="#000"/><g class="D J"><path opacity=".197" d="M96.532 74.78l-19.487 58.312-8.672 91.795-64.054 5.871"/><path d="M69.789 209.898l-57.826 5.091m179.368 23.42l36.836-16.65" class="Q"/></g></g></g><g transform="matrix(-1 0 0 1 2056 298)"><g transform="translate(157 34)"><g class="G"><path d="M164.098 123.6c.062 41.173-33.267 74.601-74.439 74.662s-74.601-33.266-74.663-74.44 33.267-74.6 74.44-74.661 74.6 33.266 74.662 74.439"/><path d="M0 40.085C.033 62.19 17.98 80.084 40.085 80.05s39.999-17.979 39.966-40.085S62.071-.033 39.966 0-.033 17.98 0 40.085m15.003 88.952l.188 125.909 149.102-.222-.188-125.909z"/></g><g transform="translate(50.992 95.267)"><mask id="W" class="B"><use xlink:href="#H"/></mask><g class="H"><use xlink:href="#H"/><g mask="url(#W)" class="C"><path d="M.008 6.733h99v116h-99z"/></g></g></g><path fill="#405fd3" d="M128.393 144.502l7.4 17.94-8.585-.172z"/><path d="M120.514 145.28c-.185 3.584-2.292 6.376-4.708 6.237s-4.225-3.157-4.041-6.741 2.292-6.377 4.708-6.237 4.225 3.157 4.041 6.741m22.687-.572c-.185 3.583-2.292 6.376-4.708 6.237s-4.225-3.158-4.041-6.741 2.292-6.377 4.708-6.238 4.225 3.158 4.041 6.742" class="I"/><g class="G"><path d="M127.483 102.864c.007 4.957.842 9.721 2.365 14.137.202.55.405 1.121.639 1.67 1.469 3.699 3.426 7.127 5.786 10.185 6.365 8.233 15.687 13.803 26.242 14.921.541.055 1.072.099 1.613.12l-.023-15.082h-.011l.009-1.402c-.028-18.615-6.152-35.719-16.387-49.194a76.61 76.61 0 0 0-6.131-7.123c-4.936 4.325-8.842 9.915-11.283 16.311-1.827 4.769-2.827 9.984-2.819 15.457"/><path d="M69.633 101.991c.016 10.773 9.779 19.839 23.102 22.604 1.055.225 2.128.405 3.229.54 1.767.236 3.589.347 5.439.344 17.528-.026 31.72-10.582 31.7-23.582-.002-1.25-.133-2.478-.394-3.671-2.394-11.258-15.532-19.853-31.376-19.829-17.361.026-31.442 10.388-31.691 23.219-.009.125-.009.25-.009.375"/></g><path d="M125.101 170.863s-5.594 1.806-11.199-4.427" stroke="#1c295e" class="D"/><path d="M100.277 186.433s-12.93.382-18.442-2.629l17.755 11.148.687-8.519z" fill="#000" opacity=".401"/><path d="M116.45 198.085s-3.382-.152-8.583.177l-8.582.472.856-10.604 19.661 2.59-3.352 7.365z" class="G"/></g><g transform="translate(111 231)"><mask id="X" class="B"><use xlink:href="#I"/></mask><g class="H"><use xlink:href="#I"/><g mask="url(#X)" class="C"><path d="M-2-2h259v289H-2z"/></g></g><path d="M230.387 234.097s2.84 10.729 12.587 14.072c3.409 1.169 2.557 14.969 10.912 13.318" class="D J O"/><g transform="translate(20.608)"><mask id="Y" class="B"><use xlink:href="#J"/></mask><g fill="#72a065"><use xlink:href="#J"/><g mask="url(#Y)" class="C"><path d="M.392 0h196v150h-196z"/></g></g></g><path d="M177.902 150.685c3.208-40.743 24.413-50.358 8.413-96.051M147.916 2.615s8.054 5.692 14.07 15.87c8.233 13.924 3.929 25.937-8.737 25.957-13.563.023-29.126-4.593-35.687-25.133-3.319-10.39-6.454-18.595-6.454-18.595m-7.947 74.92l-19.487 29.525" opacity=".204" stroke-width="4" class="J"/></g><g transform="translate(45 381)"><g transform="translate(0 399.711)"><mask id="Z" class="B"><use xlink:href="#K"/></mask><g class="I"><use xlink:href="#K"/><g mask="url(#Z)" class="C"><path d="M-.985 19.1h407v132h-407z"/></g></g></g><g transform="translate(20.694 399.688)"><mask id="a" class="B"><use xlink:href="#L"/></mask><g class="N"><use xlink:href="#L"/><g mask="url(#a)" class="C"><path d="M-4.927 5.327h336v115h-336z"/></g></g></g><g transform="translate(22.665)"><mask id="b" class="B"><use xlink:href="#M"/></mask><use fill="#101016" xlink:href="#M"/><g mask="url(#b)" class="C G"><path d="M-1.971 0h316v513h-316z"/></g></g><path d="M338.63 499.942l-4.277 1.301-.02.01-22.704 6.928-.059.01-18.211 5.559s-54.711-130.314-99.529-251.149c-17.708-47.754-33.879-94.03-44.522-130.196-6.908-23.503-11.49-42.729-12.643-55.332-3.4-37.19 20.655-70.587 25.641-77.071h57.638l23.315 104.387 18.388 79.979 76.982 315.575" opacity=".145" class="B"/></g></g></g></svg>