<svg xmlns="http://www.w3.org/2000/svg" xmlns:xlink="http://www.w3.org/1999/xlink" width="2520" height="1091" xmlns:v="https://vecta.io/nano"><style><![CDATA[.B{fill:#cce3ff}.C{fill:#fff}.D{fill:#19141e}.E{fill-rule:nonzero}.F{fill:#b6d4ff}.G{fill:#dceeff}.H{fill:#000}.I{stroke:#19141e}.J{stroke-width:5}.K{fill:#6ca1ff}.L{stroke:#dceeff}.M{stroke-linecap:round}.N{fill:#ed4848}.O{opacity:.396}.P{opacity:.399}.Q{fill:#f6b852}]]></style><defs><path d="M128.641 89.553v10.656c0 8.397-6.763 15.204-15.105 15.204H64.78c-8.341 0-15.104-6.807-15.104-15.204V88h-4.968v53.792c6.06-3.763 12.509-5.792 19.199-5.792l.199.001h51.796l.199-.001c6.771 0 13.297 2.079 19.421 5.931V89.553h-6.881 0zm0-18h15.822c4.938 0 8.942 4.029 8.942 9v79.16c16.112 22.906 26.602 60.259 26.602 102.45 0 69.679-28.611 126.165-63.906 126.165-.849 0-1.694-.033-2.534-.097H66.441c-.841.065-1.686.097-2.534.097C28.612 388.329 0 331.843 0 262.164 0 219.9 10.527 182.49 26.686 159.595v102.569a9 9 0 0 0 6.246 8.584c2.116 30.036 15.178 53.158 30.974 53.158 17.273 0 31.275-27.643 31.275-61.742s-14.001-61.741-31.275-61.741c-7.236 0-13.899 4.852-19.198 12.999v39.374h19.337c4.938 0 8.942 4.029 8.942 9s-4.003 9-8.942 9H35.766c-4.938 0-8.942-4.029-8.942-9V79c0-4.971 4.003-9 8.942-9h13.909V15.204C49.675 6.807 56.438 0 64.78 0h48.756c8.342 0 15.105 6.807 15.105 15.204v56.349z" id="A"/><path d="M63.286 124.415l-.911.011c-20.042 0-36.289-16.248-36.289-36.29s16.247-36.29 36.289-36.29c4.281 0 8.389.741 12.202 2.102C92.459 21.773 126.795 0 166.216 0c37.604 0 70.581 19.811 89.063 49.565 3.665-1.245 7.594-1.921 11.681-1.921 20.042 0 36.29 16.248 36.29 36.29 0 19.062-14.698 34.691-33.378 36.174-7.421 50.591-51.002 89.431-103.655 89.431-51.147 0-93.734-36.652-102.929-85.124h0zM.076 224.623c-1.101-14.748 9.963-27.595 24.711-28.696l37.051-2.764c14.748-1.101 27.595 9.963 28.695 24.71l6.302 84.456c1.1 14.748-9.963 27.595-24.71 28.696l-37.052 2.765c-14.748 1.1-27.595-9.964-28.695-24.711L.076 224.623zm241.64-6.641c.078-14.789 12.131-26.713 26.919-26.634l37.154.197c14.788.08 26.713 12.132 26.634 26.92l-.451 84.689c-.078 14.789-12.131 26.714-26.919 26.635l-37.154-.198c-14.788-.079-26.713-12.131-26.634-26.92l.451-84.689z" id="B"/><path d="M73.753 96.45H20.875C9.394 96.45 0 87.056 0 75.575V61.502c0-11.481 9.394-20.875 20.875-20.875h133.336c11.481 0 20.875 9.394 20.875 20.875v14.073c0 11.481-9.394 20.875-20.875 20.875h-50.099v41.876H73.753V96.45zm7.861-85.912a10.54 10.54 0 0 1-10.538 10.539 10.54 10.54 0 0 1-10.539-10.539A10.54 10.54 0 0 1 71.076 0a10.54 10.54 0 0 1 10.538 10.538z" id="C"/><path d="M78.11 86.829c-6.6 4.39-18.6 4.93-28.82 4.34l-2.35 29.04s-16.59-7.24-26.09-12.6c-1.64-.92-3.06-1.79-4.15-2.56l1.11-10.66v-.02l3.06-29.14C15.27 56.739.02 54.829 0 42.889c0-3.58 2.09-9.77 9.81-9.78 10.36-.02 8.89 12.4 8.89 12.4 11.71 4.56 27.89-35.38 34.8-44.3 3.78-4.88 28.61 6.59 28.61 6.59l16.47 18.43c.32 2.26-.84 47.54-20.47 60.6" id="D"/><path d="M218.441 225.99c-8.606-14.001-36.64-60.407-38.279-73.427-2.053-16.309-.211-37.369-.211-37.369l26.224-15.61 6.634 38.819 27.031 84.838c5.307 6.239 11.969 14.225 12.921 16.094 1.613 3.171 4.599 18.868 4.457 21.969s-9.444 17.037-9.444 17.037c-5.772-1.414-2.002-8.611-2.002-8.611s-5.17 4.372-7.319 4.298c-20.24-.69-19.155-10.938-18.677-12.221 1.075-2.882 6.478.414 6.478.414s-10.583-21.47-7.813-36.232h0zm-183.294-9.208l5.377 22.414a98.08 98.08 0 0 0 .147 11.014c-.266 5.915-.579 9.489 2.113 18.83 1.876 6.509-7.085 3.3-9.16-.492-2.14-3.91-1.182-18.47-6.098-16.3s-8.596 16.412-9.808 30.204c-.191 2.167-2.061 3.677-3.295 4.121-2 .722-3.318-8.124-3.318-8.124s-1.446 2.821-4.175 1.141c-.965-.595-3.125-6.804-3.125-6.804s-1.934-3.191-2.681-6.54c-1.317-5.915-1.454-16.545-.533-19.524 2.096-6.776 6.113-17.974 10.053-24.368-.158-17.795-.45-87.742 4.53-100.649 5.715-14.814 16.058-34.675 16.058-34.675l30.677 20.511-16.454 26.645-10.307 82.596zM147.916 2.615s8.054 5.692 14.07 15.87c8.233 13.924 3.929 25.937-8.737 25.957-13.563.023-29.126-4.593-35.687-25.133-3.319-10.39-6.454-18.595-6.454-18.595l36.808 1.901z" id="E"/><path d="M90.547.839c.405 1.067 3.326 8.828 6.406 18.47 6.561 20.54 22.124 25.156 35.687 25.133 12.666-.02 16.97-12.033 8.737-25.957-5.299-8.965-12.179-14.449-13.744-15.629 15.994 1.081 25.954 3.089 35.178 11.741 17.561 16.47 30.844 63.84 33.154 92.16l-31.979 11.54-7.098 31.75H72.761s.907-9.5-.903-21.19c-2.36-15.29-10.875-26.7-10.875-26.7l-8.448 12.84L0 84.027c17.2-31.362 41.19-63.7 57.185-73.99C68.977 2.447 80.045.793 90.547.839h0zm4.967.134l1.723.089-1.723-.089h0z" id="F"/><path d="M331.321 90.01l5.612 21.495s44.586-19.342 68.638-10.788l-79.697 50.372-20.097-60.116 25.544-.964zM60.985 25.413L36.082 50.537s2.263 13.681 2.373 29.529c.16 22.938-2.979 45.398-2.979 45.398L0 43.539 52.334 0l8.651 25.413z" id="G"/><path d="M286.341 95.652l25.275-1.987 4.622 17.863-21.067 9.156-8.831-25.032zM31.276 0l2.738 31.839-18.626 18.721L.6 25.54 31.276 0z" id="H"/><path d="M220.594 104.388l18.388 79.978 76.982 315.575-4.277 1.301-.02.01-22.704 6.928-.059.01-18.211 5.559S215.982 383.435 171.165 262.6c-8.711 16.841-18.782 33.712-30.42 50.327C80.041 399.595 25.438 455.065 25.438 455.065l-5.932-10.938-.01-.01-13.432-24.763-.118-.218-5.863-10.81s89.34-94.651 126.56-275.922c-6.908-23.503-11.49-42.729-12.643-55.333C110.6 39.881 134.654 6.484 139.64 0h57.638 26.834c.581 4.701 4.582 46.306-3.518 104.387h0z" id="I"/><path d="M108.369 483.613l2.476-22.892 14.545-134.86c.715-6.63 6.627-11.42 13.224-10.7l50.907 5.57c6.587.72 11.346 6.67 10.631 13.3l-13.78 127.73c17.823 4.12 31.116 20.18 31.126 39.37v.021 12.159H105.162 0l1.311-12.18 4.371-40.41 14.545-134.86c.715-6.63 6.627-11.42 13.224-10.7l50.907 5.57c6.587.72 11.346 6.67 10.631 13.3l-13.78 127.73c11.993 2.772 21.935 10.951 27.159 21.852zM56.537 58.392c-7.719-5.765-12.758-14.991-12.792-25.353-.059-17.431 14.062-31.74 31.38-31.798L146.311 1c17.318-.058 31.534 14.155 31.592 31.585s-14.063 31.739-31.38 31.798l-67.166.226.124-24.782c.032-6.351-5.058-11.526-11.368-11.558S56.661 33.36 56.63 39.711l-.093 18.68zm36.152 188.919c0 15.88-12.79 28.753-28.566 28.753s-28.567-12.873-28.567-28.753 12.79-28.753 28.567-28.753 28.566 12.873 28.566 28.753zm105.043 0c0 15.88-12.79 28.753-28.566 28.753s-28.567-12.873-28.567-28.753 12.79-28.753 28.567-28.753 28.566 12.873 28.566 28.753z" id="J"/><path d="M253.929 251.8l-11.19 9.989-2.327-2.849a75.94 75.94 0 0 1-4.831-7.065c-4.16-6.897-6.864-13.878-7.336-20.81-.635-9.321 2.951-17.608 11.136-23.581 8.193-5.978 16.733-6.493 24.041-1.785 5.211 3.356 9.226 8.923 12.53 16.09 1.668 3.619 3.049 7.44 4.174 11.253.393 1.331.727 2.571 1.005 3.693l.357 1.526-14.674 3.111a36.35 36.35 0 0 0-.243-1.032 72.12 72.12 0 0 0-.831-3.053c-.934-3.165-2.075-6.323-3.409-9.218-2.218-4.812-4.708-8.263-7.031-9.759-1.932-1.245-3.75-1.135-7.077 1.292-3.89 2.839-5.308 6.114-5.013 10.444.283 4.155 2.179 9.047 5.216 14.084a61.06 61.06 0 0 0 3.873 5.664 50.21 50.21 0 0 0 1.246 1.558l.383.45zM68.699 108.236l-.69 1.363c-6.15 12.157-21.126 17.072-33.282 10.923l-2.049-1.036c-12.156-6.149-17.071-21.126-10.922-33.283l34.79-68.779c4.68-9.254 14.476-14.311 24.249-13.487C85.413 2.044 90.46.999 95.74.999h67.693c9.512 0 18.272 3.392 25.128 9.025 9.04 2.004 16.625 9.015 18.844 18.595l17.398 75.089c3.074 13.271-5.269 26.645-18.54 29.72l-2.237.518c-12.64 2.929-25.374-4.501-29.214-16.681-3.608 1.088-7.429 1.672-11.379 1.672H95.74c-10.422 0-19.94-4.071-27.041-10.701h0zM16.036 258.704l-14.974.885a31.13 31.13 0 0 1-.034-.797c-.189-5.921.345-13.004 2.261-19.999 4.07-14.854 13.461-24.471 28.853-23.864 8.668.342 15.137 3.959 18.596 10.392 2.694 5.011 3.238 11.03 2.29 17.844-.591 4.245-1.75 8.655-3.308 13.107-.79 2.256-1.634 4.382-2.481 6.326a61.03 61.03 0 0 1-1.193 2.599l-13.435-6.671a26.16 26.16 0 0 0 .211-.442l.666-1.478c.706-1.62 1.414-3.405 2.074-5.29 1.255-3.585 2.171-7.07 2.609-10.219 1.123-8.066-.42-10.936-6.62-11.181-7.196-.284-11.371 3.991-13.795 12.839-.817 2.981-1.33 6.242-1.582 9.581-.175 2.321-.205 4.375-.154 5.975l.015.391z" id="K"/><path d="M123.486 13.578C124.485 5.916 131.037 0 138.971 0a15.62 15.62 0 0 1 15.616 15.617 15.62 15.62 0 0 1-15.616 15.617c-6.308 0-11.743-3.74-14.207-9.124l-10.891-8.333-14.82 11.338-14.809-11.338-14.813 11.338-14.809-11.338-14.812 11.338-8.176-6.259c-1.492 7.07-7.765 12.377-15.279 12.377A15.62 15.62 0 0 1 .739 15.617 15.62 15.62 0 0 1 16.356 0c7.031 0 12.976 4.647 14.934 11.036l8.522 6.524L54.623 6.222 69.432 17.56 84.245 6.222 99.055 17.56l14.818-11.338 9.613 7.355zm9.844 145.006H20.92c-8.95 0-16.205-7.255-16.205-16.205V68.123A16.21 16.21 0 0 1 20.92 51.917h112.41a16.21 16.21 0 0 1 16.205 16.206v74.256c0 8.95-7.255 16.205-16.205 16.205zm-10.478 14.698H31.396a7.35 7.35 0 0 1-7.349-7.349 7.35 7.35 0 0 1 7.349-7.349h91.456a7.35 7.35 0 0 1 7.349 7.349 7.35 7.35 0 0 1-7.349 7.349z" id="L"/><path id="M" d="M895.412 224.794h93.398a38.49 38.49 0 0 0 37.736-30.927l14.583-72.804c4.77-23.818-13.446-46.044-37.736-46.044h-93.398c-18.341 0-34.134 12.943-37.735 30.927l-14.583 72.804c-4.771 23.817 13.445 46.044 37.735 46.044"/><path id="N" d="M64.341 66.29c0 4.061 3.292 7.353 7.353 7.353s7.353-3.292 7.353-7.353-3.292-7.353-7.353-7.353-7.353 3.292-7.353 7.353"/><path id="O" d="M2164.733 88.5l-10.404 103.899h-136.601L2028.132 88.5z"/><path id="P" d="M2161.677 88.5l-10.404 103.899h-139.142L2022.536 88.5z"/><path id="Q" d="M1856.853 212.995l33.047 51.846h18.288l-33.047-51.846z"/><path id="R" d="M201.53 130.663h96.487L311.047.5H214.56z"/><path id="S" d="M196.322 130.663h98.282L307.635.5h-98.283z"/><path id="T" d="M456.356 39.213l-9.03 90.181H328.762l9.031-90.181z"/><path id="U" d="M453.703 39.213l-9.03 90.181h-120.77l9.031-90.181z"/></defs><g transform="translate(-170 -74)" fill="none" fill-rule="evenodd"><g class="F"><path d="M1738.641 904.179h564.375V770.507h-564.375z"/><path d="M1896.975 798.794h406.888c21.178 0 38.852-16.171 40.729-37.267l12.725-143.013c2.128-23.919-16.717-44.514-40.73-44.514h-406.888c-21.179 0-38.853 16.171-40.73 37.267l-12.723 143.013c-2.128 23.919 16.715 44.514 40.729 44.514m-334.901 170.33h158.361c23.424 0 41.826-20.056 39.814-43.395l-13.11-152.051c-1.781-20.663-19.074-36.529-39.813-36.529h-158.361c-23.425 0-41.827 20.056-39.815 43.394l13.11 152.052c1.782 20.663 19.074 36.529 39.814 36.529"/></g><path d="M1774.555 798.794h452.029c21.179 0 38.853-16.171 40.73-37.267l12.723-143.013c2.128-23.919-16.715-44.514-40.729-44.514h-452.029c-21.179 0-38.853 16.171-40.73 37.267l-12.724 143.013c-2.127 23.919 16.716 44.514 40.73 44.514" class="G"/><path d="M1578.794 969.124h690.239v-70.002h-690.239z" class="B"/><path d="M1673.029 899.122h485.633c24.119 0 43.671-19.552 43.671-43.67s-19.552-43.67-43.671-43.67h-485.633c-24.118 0-43.67 19.552-43.67 43.67s19.552 43.67 43.67 43.67" class="G"/><path d="M2400.204 1025.84h16.564l-7-56.716h-30.564zm-142.358 0h16.563l-7-56.716h-30.563zm-676.437 0h-16.563l7-56.716h30.563zm142.359 0h-16.564l7-56.716h30.564z" class="F"/><path d="M1562.074 969.124h23.729c23.425 0 41.827-20.056 39.815-43.395l-13.109-152.051c-1.782-20.663-19.075-36.529-39.815-36.529h-23.729c-23.425 0-41.827 20.056-39.815 43.394l13.11 152.052c1.782 20.663 19.074 36.529 39.814 36.529" class="B"/><path d="M2245.888 969.124h178.361c20.74 0 38.033-15.866 39.814-36.529l13.109-152.052c2.013-23.338-16.388-43.394-39.813-43.394h-178.362c-20.739 0-38.032 15.866-39.813 36.529l-13.109 152.051c-2.013 23.339 16.388 43.395 39.813 43.395" class="F"/><path d="M2245.888 969.124h23.729c20.741 0 38.034-15.866 39.815-36.529l13.109-152.052c2.012-23.338-16.389-43.394-39.814-43.394h-23.73c-20.739 0-38.032 15.866-39.813 36.529l-13.109 152.051c-2.013 23.339 16.388 43.395 39.813 43.395" class="B"/><g transform="matrix(-1 0 0 1 1429 616)"><path d="M441.026 347.277h736.444a32.18 32.18 0 0 0 31.707-26.698l48.881-282.925C1261.457 17.985 1246.312 0 1226.352 0H489.907a32.18 32.18 0 0 0-31.706 26.698l-48.882 282.925c-3.398 19.669 11.746 37.654 31.707 37.654" class="F"/><path d="M370.64 347.277h733.269a32.18 32.18 0 0 0 31.707-26.698l48.881-282.925C1187.895 17.985 1172.751 0 1152.79 0H419.522a32.18 32.18 0 0 0-31.707 26.698l-48.882 282.925c-3.397 19.669 11.746 37.654 31.707 37.654" class="G"/><path d="M868.317 347.277h307.793c15.715 0 28.454-12.739 28.454-28.454v-65.576c0-15.714-12.739-28.453-28.454-28.453H868.317c-15.715 0-28.454 12.739-28.454 28.453v65.576c0 15.715 12.739 28.454 28.454 28.454" class="F"/><path d="M1139.539 347.277v64.98m-228.359-64.98v64.98m-611.504-64.98v64.98m-228.36-64.98v64.98" stroke="#cce3ff" stroke-width="10"/><path d="M39.164 347.277h903.023c21.63 0 39.164-17.534 39.164-39.164v-44.156c0-21.629-17.534-39.163-39.164-39.163H39.164C17.534 224.794 0 242.328 0 263.957v44.156c0 21.63 17.534 39.164 39.164 39.164" class="B"/><g class="F"><use xlink:href="#M"/><path d="M362.027 224.794h93.398a38.49 38.49 0 0 0 37.736-30.927l14.583-72.804c4.77-23.818-13.446-46.044-37.736-46.044H376.61c-18.341 0-34.134 12.943-37.735 30.927l-14.583 72.804c-4.771 23.817 13.445 46.044 37.735 46.044"/></g><use xlink:href="#M" x="-131" class="B"/></g><g transform="translate(538 364)"><g transform="translate(168.234 412)"><mask id="V" class="C"><use xlink:href="#A"/></mask><g class="E"><use xlink:href="#A" class="K"/><g mask="url(#V)" class="N"><path d="M0-9h180v403H0z"/></g></g><path d="M33.09 270.386a8.9 8.9 0 0 0 2.676.41h28.278c4.938 0 8.942-4.029 8.942-9s-4.003-9-8.942-9H44.708v-39.559C50.032 204.947 56.753 200 64.059 200c17.273 0 31.275 27.642 31.275 61.741s-14.001 61.742-31.275 61.742c-15.785 0-28.84-23.091-30.969-53.097h0zM49.412 58.15h78.966V30.928H49.412z" class="D"/><path d="M136.121 142.011l-.814-.545V90h-7.144V72h16.086c4.938 0 8.942 4.029 8.942 9l.216 77.916a82.28 82.28 0 0 0-1.49-1.913c-.379-.524-.749-1.041-1.09-1.411l-.258-.282c17.971 22.329 29.912 61.838 29.912 106.854 0 69.679-28.611 126.165-63.906 126.165-.849 0-1.694-.033-2.534-.097H66.913c34.119-2.627 61.372-58.064 61.372-126.068 0-69.548-28.504-125.951-63.707-126.164l51.796.001.199-.001c6.818 0 13.386 2.108 19.547 6.011h0zm10.456 8.729l1.425 1.545c-.42-.491-.869-.989-1.425-1.545h0zM44.708 252.796h19.337c4.938 0 8.942 4.029 8.942 9s-4.003 9-8.942 9H35.767c-4.938 0-8.942-4.029-8.942-9V79c0-4.971 4.003-9 8.942-9h28.278c4.938 0 8.942 4.029 8.942 9s-4.003 9-8.942 9H44.708v164.796z" class="H O"/></g><g transform="translate(86 205)"><g class="I"><path d="M43.078 388.378l-21.074-22.853 30.553-39.266 36.681 31.823-13.229 27.939m195.927.473l-18.891-24.687 34.023-36.301 33.61 35.049-15.733 26.61" stroke-width="15"/><path d="M287.444 221.706l-15.145-111.038M45.56 218.324l15.966-110.922" stroke-width="27" class="M"/></g><path d="M224.007 156.422H180.89c-6.425 0-11.633-5.208-11.633-11.633v-43.117c0-6.424 5.208-11.632 11.633-11.632h43.117c6.424 0 11.632 5.208 11.632 11.632v43.117c0 6.425-5.208 11.633-11.632 11.633" class="D"/><path d="M213.007 156.422H180.89c-6.425 0-11.633-5.208-11.633-11.633v-43.117c0-6.424 5.208-11.632 11.633-11.632h32.117c6.424 0 11.632 5.208 11.632 11.632v43.117c0 6.425-5.208 11.633-11.632 11.633" fill="#405fd3"/><g transform="translate(0 18.461)"><mask id="W" class="C"><use xlink:href="#B"/></mask><use xlink:href="#B" class="K"/><g mask="url(#W)" class="E N"><path d="M0 7.539h332v326H0z"/></g></g><path d="M126.21 26.461h80.013V0H126.21zm86.797 129.961c6.424 0 11.632-5.208 11.632-11.633v-43.117c0-6.424-5.208-11.632-11.632-11.632h11c6.424 0 11.632 5.208 11.632 11.632v43.117c0 6.425-5.208 11.633-11.632 11.633h-11z" class="D"/><path d="M16 241.409l6.652 84.48L16 241.409zM32.488 240l6.652 84.48L32.488 240z" stroke="#000" stroke-width="9" opacity=".402" stroke-linejoin="round"/><g class="H"><path d="M213.05 156.382h-32.117c-6.425 0-11.633-5.208-11.633-11.633v-43.117c0-6.424 5.208-11.632 11.633-11.632h32.117c6.424 0 11.632 5.208 11.632 11.632v43.117c0 6.425-5.208 11.633-11.632 11.633zm-26.623-36.527a8.43 8.43 0 0 0 8.428-8.428 8.43 8.43 0 0 0-8.428-8.427 8.43 8.43 0 0 0-8.427 8.427 8.43 8.43 0 0 0 8.427 8.428zm23.949 0a8.43 8.43 0 0 0 8.428-8.428 8.43 8.43 0 0 0-8.428-8.427 8.43 8.43 0 0 0-8.428 8.427 8.43 8.43 0 0 0 8.428 8.428zm-23.949 24.358a8.43 8.43 0 0 0 8.428-8.428 8.43 8.43 0 0 0-8.428-8.427 8.43 8.43 0 0 0-8.427 8.427 8.43 8.43 0 0 0 8.427 8.428z" opacity=".398"/><path d="M25 106.29c0 20.042 16.247 36.29 36.289 36.29s36.29-16.248 36.29-36.29S81.331 70 61.289 70 25 86.248 25 106.29" opacity=".404"/><path d="M242.451 236.634L242 321.323c-.079 14.789 11.846 26.841 26.634 26.92l37.154.198c14.788.079 26.841-11.846 26.919-26.635l.451-84.689c.079-14.788-11.846-26.84-26.634-26.92L269.37 210c-14.788-.079-26.841 11.845-26.919 26.634" class="P"/><path d="M255 68.421c3.665-1.245 7.594-1.921 11.681-1.921 20.042 0 36.29 16.248 36.29 36.29 0 19.062-14.698 34.691-33.378 36.174a105.63 105.63 0 0 0 1.115-15.338c0-20.259-5.75-39.175-15.707-55.205h0z" opacity=".398"/><path d="M186.427 144.205a8.43 8.43 0 0 0 8.428-8.428 8.43 8.43 0 0 0-8.428-8.427 8.43 8.43 0 0 0-8.427 8.427 8.43 8.43 0 0 0 8.427 8.428" opacity=".598"/></g></g><g transform="translate(159 67)"><path d="M72.728 12.423s17.462 11.549 19.383 31.53" class="I J M"/><mask id="X" class="C"><use xlink:href="#C"/></mask><use xlink:href="#C" class="K"/><g mask="url(#X)" class="E N"><path d="M21 0h154v141H21z"/></g><g class="H"><path d="M73.753 138.326h30.359v-42H73.753z" class="P"/><path opacity=".4" d="M73.753 124.742l30.359-10V96.158H73.753z"/></g><path d="M20.875 96.45h0C9.394 96.45 0 87.056 0 75.575V61.502c0-11.481 9.394-20.875 20.875-20.875S41.75 50.021 41.75 61.502v14.073c0 11.481-9.394 20.875-20.875 20.875" class="D"/><path d="M53.615 68.539A16.01 16.01 0 0 0 69.62 84.544a16.01 16.01 0 0 0 16.006-16.005A16.01 16.01 0 0 0 69.62 52.533a16.01 16.01 0 0 0-16.005 16.006" class="C"/><use xlink:href="#N" class="D"/><path d="M131.665 68.539a16.01 16.01 0 0 0 16.006 16.005 16.01 16.01 0 0 0 16.006-16.005 16.01 16.01 0 0 0-16.006-16.006 16.01 16.01 0 0 0-16.006 16.006" class="C"/><g class="D"><use xlink:href="#N" x="78.05"/><path d="M104.988 57.568l14.316 10.863-14.316 11.078"/></g></g></g><g transform="matrix(-1 0 0 1 2249 233)"><g transform="translate(157 34)"><g class="D"><path d="M164.098 123.6c.062 41.173-33.267 74.601-74.439 74.662s-74.601-33.266-74.663-74.44 33.267-74.6 74.44-74.661 74.6 33.266 74.662 74.439"/><path d="M0 40.085C.033 62.19 17.98 80.084 40.085 80.05s39.999-17.979 39.966-40.085S62.071-.033 39.966 0-.033 17.98 0 40.085m15.003 88.952l.188 125.909 149.102-.222-.188-125.909z"/></g><g transform="translate(50.992 95.267)"><mask id="Y" class="C"><use xlink:href="#D"/></mask><g fill="#e576c6"><use xlink:href="#D"/><g mask="url(#Y)" class="E"><path d="M.008 6.733h99v116h-99z"/></g></g></g><path fill="#405fd3" d="M128.393 144.502l7.4 17.94-8.585-.172z"/><path d="M120.514 145.28c-.185 3.584-2.292 6.376-4.708 6.237s-4.225-3.157-4.041-6.741 2.292-6.377 4.708-6.237 4.225 3.157 4.041 6.741m22.687-.572c-.185 3.583-2.292 6.376-4.708 6.237s-4.225-3.158-4.041-6.741 2.292-6.377 4.708-6.238 4.225 3.158 4.041 6.742" fill="#0d0b6d"/><g class="D"><path d="M127.483 102.864c.007 4.957.842 9.721 2.365 14.137.202.55.405 1.121.639 1.67 1.469 3.699 3.426 7.127 5.786 10.185 6.365 8.233 15.687 13.803 26.242 14.921.541.055 1.072.099 1.613.12l-.023-15.082h-.011l.009-1.402c-.028-18.615-6.152-35.719-16.387-49.194a76.61 76.61 0 0 0-6.131-7.123c-4.936 4.325-8.842 9.915-11.283 16.311-1.827 4.769-2.827 9.984-2.819 15.457"/><path d="M69.633 101.991c.016 10.773 9.779 19.839 23.102 22.604 1.055.225 2.128.405 3.229.54 1.767.236 3.589.347 5.439.344 17.528-.026 31.72-10.582 31.7-23.582-.002-1.25-.133-2.478-.394-3.671-2.394-11.258-15.532-19.853-31.376-19.829-17.361.026-31.442 10.388-31.691 23.219-.009.125-.009.25-.009.375"/></g><path d="M125.101 170.863s-5.594 1.806-11.199-4.427" stroke="#1c295e" stroke-width="3"/><path d="M100.277 186.433s-12.93.382-18.442-2.629l17.755 11.148.687-8.519z" opacity=".401" class="H"/><path d="M116.45 198.085s-3.382-.152-8.583.177l-8.582.472.856-10.604 19.661 2.59-3.352 7.365z" class="D"/></g><g transform="translate(111 231)"><mask id="Z" class="C"><use xlink:href="#E"/></mask><g fill="#e576c6"><use xlink:href="#E"/><g mask="url(#Z)" class="E"><path d="M-2-2h259v289H-2z"/></g></g><path d="M230.387 234.097s2.84 10.729 12.587 14.072c3.409 1.169 2.557 14.969 10.912 13.318" stroke="#000" stroke-width="3" opacity=".147"/><g transform="translate(20.608)"><mask id="a" class="C"><use xlink:href="#F"/></mask><g fill="#72a065"><use xlink:href="#F"/><g mask="url(#a)" class="E"><path d="M.392 0h196v150h-196z"/></g></g></g><path d="M177.902 150.685c3.208-40.743 24.413-50.358 8.413-96.051M147.916 2.615s8.054 5.692 14.07 15.87c8.233 13.924 3.929 25.937-8.737 25.957-13.563.023-29.126-4.593-35.687-25.133-3.319-10.39-6.454-18.595-6.454-18.595m-7.947 74.92l-19.487 29.525" opacity=".204" stroke="#000" stroke-width="4"/></g><g transform="translate(45 381)"><g transform="translate(0 399.711)"><mask id="b" class="C"><use xlink:href="#G"/></mask><g fill="#0d0b6d"><use xlink:href="#G"/><g mask="url(#b)" class="E"><path d="M-.985 19.1h407v132h-407z"/></g></g></g><g transform="translate(20.694 399.688)"><mask id="c" class="C"><use xlink:href="#H"/></mask><g fill="#cf3e83"><use xlink:href="#H"/><g mask="url(#c)" class="E"><path d="M-4.927 5.327h336v115h-336z"/></g></g></g><g transform="translate(22.665)"><mask id="d" class="C"><use xlink:href="#I"/></mask><use fill="#101016" xlink:href="#I"/><g mask="url(#d)" class="D E"><path d="M-1.971 0h316v513h-316z"/></g></g><path d="M338.63 499.942l-4.277 1.301-.02.01-22.704 6.928-.059.01-18.211 5.559s-54.711-130.314-99.529-251.149c-17.708-47.754-33.879-94.03-44.522-130.196-6.908-23.503-11.49-42.729-12.643-55.332-3.4-37.19 20.655-70.587 25.641-77.071h57.638l23.315 104.387 18.388 79.979 76.982 315.575" opacity=".145" class="C"/></g></g><use xlink:href="#O" class="G"/><use xlink:href="#O" class="J L"/><use xlink:href="#P" class="C"/><use xlink:href="#P" class="J L"/><path d="M2132.34 108.882l-6.322 63.135h-84.549l6.322-63.135z" class="B"/><path d="M1877.024 195.219h18.564v-72.513h-18.564z" class="G"/><path d="M1858.459 195.219h18.564v-72.513h-18.564zm37.129 0h18.563v-72.513h-18.563z" class="B"/><path d="M1962.664 195.219h-48.513v-72.513h48.513a5.13 5.13 0 0 1 5.129 5.129v62.256a5.13 5.13 0 0 1-5.129 5.128" class="F"/><path d="M1922.101 140.45h37.743v-7.18h-37.743zm8.41 11.076h20.923v-7.179h-20.923z" class="B"/><path d="M1772 212.995h423.178v-17.776H1772z" class="G"/><path d="M2195.178 212.995h69.617v-17.776h-69.617z" class="B"/><path d="M1875.141 212.995l33.047 51.846v-51.846z" class="F"/><use xlink:href="#Q" class="B"/><path d="M2117.518 212.995l33.047 51.846v-51.846z" class="F"/><use xlink:href="#Q" x="242.377" class="B"/><g transform="matrix(-1 0 0 1 1298 76)"><use xlink:href="#R" class="G"/><use xlink:href="#R" class="J L"/><use xlink:href="#S" class="C"/><use xlink:href="#S" class="J L"/><g class="G"><path d="M215.147 113.477h64.075l9.589-95.79h-64.075z"/><use xlink:href="#T"/></g><use xlink:href="#T" class="J L"/><use xlink:href="#U" class="C"/><use xlink:href="#U" class="J L"/><path d="M428.239 56.904l-5.487 54.798h-73.385l5.487-54.798zM55.552 95.687h0c0 6.903 5.597 12.5 12.501 12.5h112.469V83.186H68.053c-6.904 0-12.501 5.597-12.501 12.501" class="B"/><path d="M131.197 95.687h0a7.24 7.24 0 0 0 7.236 7.236h41.786a.3.3 0 0 0 .302-.3V88.75a.3.3 0 0 0-.302-.3h-41.786a7.24 7.24 0 0 0-7.236 7.237" class="G"/><path d="M39.855 108.187v25.001h122.759c6.904 0 12.501-5.597 12.501-12.5s-5.597-12.501-12.501-12.501H39.855z" class="B"/><path d="M39.855 113.521v14.334h50.474a7.17 7.17 0 0 0 7.167-7.167 7.17 7.17 0 0 0-7.167-7.167H39.855zM0 149.797h423.178V132.02H0z" class="G"/><path d="M423.178 149.797h69.617V132.02h-69.617z" class="B"/><path d="M103.141 149.797l33.047 51.846v-51.846z" class="F"/><use xlink:href="#Q" x="-1772" y="-63.198" class="B"/><path d="M345.518 149.797l33.047 51.846v-51.846z" class="F"/><use xlink:href="#Q" x="-1529.623" y="-63.198" class="B"/></g><g class="G"><path d="M2681.042 645.149s-76.674 169.231-85.829 353.231l85.829-353.231"/><path d="M2543.855 775.201s55.187 1.436 63.589 185.436c0 0-23.551-138.872-63.589-185.436"/><path d="M2600.21 589.999s32.216 194.674.506 392.766l-.506-392.766"/></g><path d="M2643.667 1034.859h-79.677c-.598 0-1.194-.011-1.788-.033-36.331-1.358-56.544-47.312-35.968-80.466l18.253-29.408h118.683l18.252 29.408c20.577 33.154.364 79.108-35.967 80.466-.594.022-1.189.033-1.788.033" fill="#ecf6ff"/><path d="M2518 992.589h171.657m-167.673-28.422h164.241" stroke="#b6d4ff" stroke-width="9"/><g transform="matrix(-1 0 0 1 798 230)"><g fill="#ecf6ff"><path d="M460.515 36.492c-3.479 29.2-28.333 51.854-58.474 51.854s-54.995-22.654-58.474-51.854h116.948zM234.125 1c-3.479 29.2-28.333 51.854-58.475 51.854S120.656 30.2 117.177 1h116.948z"/><path d="M234.125 36.492c-3.479 29.2-28.333 51.854-58.475 51.854s-54.994-22.654-58.473-51.854h116.948z"/></g><g class="G"><path d="M270.819 44.715h47.745l-12.856 42.29h-22.033zm-231.384 0H87.18l-12.856 42.29H52.291z"/><path d="M270.819 17.099h47.745L305.708 59.39h-22.033zM0 97.078h423.178V79.302H0z"/></g><path d="M423.178 97.078h69.617V79.302h-69.617z" class="B"/><path d="M103.141 97.078l33.047 51.846V97.078z" class="F"/><use xlink:href="#Q" x="-1772" y="-115.917" class="B"/><path d="M345.518 97.078l33.047 51.846V97.078z" class="F"/><use xlink:href="#Q" x="-1529.623" y="-115.917" class="B"/></g><g transform="translate(924 300)"><g transform="translate(142.403 351)"><path d="M168.067 257.488l-13.015 120.636M66.271 257.488L53.256 378.124m96.317-336.899l18.01 199.853" stroke-width="23" class="I M"/><path d="M56.63 39.711c.032-6.351 5.173-11.474 11.482-11.442s11.4 5.206 11.368 11.558l-.994 199.346c-.032 6.351-5.173 11.474-11.482 11.442s-11.4-5.206-11.368-11.558l.994-199.346z" class="D E"/><mask id="e" class="C"><use xlink:href="#J"/></mask><use xlink:href="#J" class="K"/><g mask="url(#e)" class="E Q"><path d="M0 0h218v514H0z"/></g><g class="H"><path d="M112.259 501.041c-.003-6.277-1.428-12.219-3.967-17.518l2.476-22.892 14.545-134.86c.715-6.63 6.627-11.42 13.224-10.7l50.907 5.57c6.587.72 11.346 6.67 10.631 13.3l-13.78 127.73c17.823 4.12 31.116 20.18 31.126 39.37v12.18H0l1.311-12.18h110.948z" opacity=".397"/><path d="M197.715 247.253c0 15.88-12.79 28.753-28.566 28.753s-28.567-12.873-28.567-28.753 12.79-28.753 28.567-28.753 28.566 12.873 28.566 28.753" opacity=".401"/><path d="M45.251 342.306c0 4.587-3.694 8.305-8.251 8.305s-8.252-3.718-8.252-8.305S32.442 334 37 334s8.251 3.719 8.251 8.306zm-2.916 27.084c0 4.587-3.694 8.306-8.251 8.306s-8.252-3.719-8.252-8.306 3.695-8.305 8.252-8.305 8.251 3.718 8.251 8.305z" opacity=".597"/><path d="M36.614 471.926c0 6.035-4.86 10.927-10.855 10.927s-10.856-4.892-10.856-10.927S19.763 461 25.759 461s10.855 4.892 10.855 10.926" class="O"/></g></g><g transform="translate(120 217)"><path d="M199.838 113.627l44.832 96.811" stroke-width="16" class="I M"/><path d="M112.201 135h34.77v-28h-34.77z" class="D"/><path d="M31.318 220.459l9.617-105.545" stroke-width="16" class="I M"/><mask id="f" class="C"><use xlink:href="#K"/></mask><g class="E"><use xlink:href="#K" class="K"/><g mask="url(#f)" class="Q"><path d="M-1-1h282v279H-1z"/></g></g><path d="M130.356 80.282h33.23c6.601 0 12-5.4 12-12V48.795c0-6.6-5.399-12-12-12h-33.23c-6.601 0-12 5.4-12 12v19.487c0 6.6 5.399 12 12 12" class="D"/><g class="H"><path d="M253.756 251.263l-11.19 9.989-2.327-2.849a75.94 75.94 0 0 1-4.831-7.065c-4.16-6.897-6.864-13.878-7.336-20.81-.635-9.321 2.951-17.608 11.136-23.581 8.193-5.978 16.733-6.493 24.041-1.785 5.211 3.356 9.226 8.923 12.53 16.09 1.668 3.619 3.049 7.44 4.174 11.253a87.05 87.05 0 0 1 1.005 3.693l.357 1.526-14.674 3.111c-.032-.152-.113-.507-.243-1.032a72.12 72.12 0 0 0-.831-3.053c-.934-3.165-2.075-6.323-3.409-9.218-2.218-4.812-4.708-8.263-7.031-9.759-1.932-1.245-3.75-1.135-7.077 1.292-3.89 2.839-5.308 6.114-5.013 10.444.283 4.155 2.179 9.047 5.216 14.084a61.06 61.06 0 0 0 3.873 5.664 50.21 50.21 0 0 0 1.246 1.558l.383.45zm-63.25-142.907c-1.025 4.055.637 8.473 4.391 10.774a9.82 9.82 0 0 0 13.5-3.241 9.82 9.82 0 0 0-3.241-13.5c-2.772-1.699-6.056-1.857-8.851-.714 4.417-6.397 7.01-14.137 7.01-22.455V40.668c0-12.318-5.687-23.373-14.565-30.668 9.04 2.004 16.625 9.015 18.844 18.595l17.398 75.089c3.074 13.271-5.269 26.645-18.54 29.72l-2.237.518c-12.64 2.929-25.374-4.501-29.214-16.681 5.841-1.761 11.126-4.838 15.506-8.884h0zM56.442 17.575C62.59 5.418 77.568.503 89.724 6.652l2.048 1.036c12.156 6.149 17.072 21.126 10.923 33.283l-34.79 68.779c-6.15 12.157-21.126 17.072-33.282 10.923l-2.049-1.036c-12.156-6.149-17.071-21.126-10.922-33.283l34.79-68.779zm-1.194 81.198a9.82 9.82 0 0 0-6.558-12.237 9.82 9.82 0 0 0-12.237 6.558 9.82 9.82 0 0 0 6.558 12.237 9.82 9.82 0 0 0 12.237-6.558zm32.647-64.542a9.82 9.82 0 0 0-6.558-12.237 9.82 9.82 0 0 0-12.237 6.558 9.82 9.82 0 0 0 6.558 12.237 9.82 9.82 0 0 0 12.237-6.558zm-71.85 224.571l-14.974.885c-.01-.171-.022-.439-.034-.797-.189-5.921.345-13.004 2.261-19.999 4.07-14.854 13.461-24.471 28.853-23.864 8.668.342 15.137 3.959 18.596 10.392 2.694 5.011 3.238 11.03 2.29 17.844-.591 4.245-1.75 8.655-3.308 13.107-.79 2.256-1.634 4.382-2.481 6.326-.518 1.189-.933 2.075-1.193 2.599l-13.435-6.671c.027-.054.099-.204.211-.442l.666-1.478c.706-1.62 1.414-3.405 2.074-5.29 1.255-3.585 2.171-7.07 2.609-10.219 1.123-8.066-.42-10.936-6.62-11.181-7.196-.284-11.371 3.991-13.795 12.839-.817 2.981-1.33 6.242-1.582 9.581-.175 2.321-.205 4.375-.154 5.975l.015.391z" class="E P"/><path d="M55.217 98.751a9.82 9.82 0 0 1-12.237 6.558 9.82 9.82 0 0 1-6.558-12.237 9.82 9.82 0 0 1 12.237-6.558 9.82 9.82 0 0 1 6.558 12.237zm32.646-64.542a9.82 9.82 0 0 1-12.237 6.558 9.82 9.82 0 0 1-6.558-12.237 9.82 9.82 0 0 1 12.237-6.558 9.82 9.82 0 0 1 6.558 12.237zm120.525 81.739a9.82 9.82 0 0 1-13.5 3.241 9.82 9.82 0 0 1-3.24-13.5 9.82 9.82 0 0 1 13.499-3.241 9.82 9.82 0 0 1 3.241 13.5z" opacity=".602"/></g></g><g transform="translate(156 56)"><path d="M160.971 97.128V27.282" stroke-width="7" class="I"/><path d="M167.256 126.774h-28.88V83.727h28.88c11.838 0 21.523 9.685 21.523 21.523s-9.685 21.524-21.523 21.524" class="D"/><g transform="translate(22)"><mask id="g" class="C"><use xlink:href="#L"/></mask><use xlink:href="#L" class="K"/><g mask="url(#g)" class="E Q"><path d="M-1 0h156v173H-1z"/></g></g><g class="H"><path opacity=".404" d="M76.622 13.778L61.811 25.116l-8.175-6.199-.385-7.908 8.561 6.551L76.623 6.222 91.432 17.56l14.813-11.338 14.809 11.338 14.818-11.338 9.481 7.555 1.577 8.384-11.058-8.384-14.82 11.338-14.809-11.338-14.813 11.338z" class="E"/><path d="M144.852 173.282H53.396a7.35 7.35 0 0 1-7.349-7.349 7.35 7.35 0 0 1 7.349-7.349h91.456a7.35 7.35 0 0 1 7.349 7.349 7.35 7.35 0 0 1-7.349 7.349" class="O"/></g><g class="D"><path d="M21.524 126.774h28.879V83.727H21.524C9.686 83.727 0 93.412 0 105.25s9.686 21.524 21.524 21.524m139.447-21.524c0 16.46-10.66 29.804-23.809 29.804s-23.808-13.344-23.808-29.804 10.659-29.804 23.808-29.804 23.809 13.344 23.809 29.804"/><path d="M125.974 135.054h11.188V75.446h-11.188z"/></g><path d="M149.783 105.25c0 16.46-10.659 29.804-23.809 29.804s-23.808-13.344-23.808-29.804 10.659-29.804 23.808-29.804 23.809 13.344 23.809 29.804" class="C"/><path d="M138.162 103.25c0 5.794-3.752 10.492-8.381 10.492s-8.381-4.698-8.381-10.492 3.752-10.492 8.381-10.492 8.381 4.698 8.381 10.492" class="D"/><path d="M38.355 97.128V30.5" stroke-width="7" class="I"/></g></g></g></svg>