<svg xmlns="http://www.w3.org/2000/svg" xmlns:xlink="http://www.w3.org/1999/xlink" width="1771" height="1026" xmlns:v="https://vecta.io/nano"><style><![CDATA[.B{fill:#cce3ff}.C{fill:#dceeff}.D{fill:#fff}.E{fill:#19141e}.F{fill:#b6d4ff}.G{stroke:#dceeff}.H{stroke:#19141e}.I{fill-rule:nonzero}.J{fill:#6ca1ff}.K{fill:#000}.L{stroke-linecap:round}.M{stroke-width:24}.N{stroke-width:9}.O{stroke:#cce3ff}.P{stroke-width:7}.Q{fill:#ecf6ff}.R{fill:#72a065}.S{opacity:.396}.T{stroke-width:27}.U{fill:#cf3e83}]]></style><defs><path d="M51.947 198.999l.135-.001c10.567 0 19.132 10.98 19.132 24.524s-8.564 24.522-19.131 24.523l-10.521.001v-.01c-10.325-.354-18.609-11.194-18.609-24.514s8.285-24.161 18.609-24.515v-.008h.387l.135-.001.135.001h9.729zm89.582 0l.135-.001c10.566 0 19.132 10.98 19.132 24.524s-8.566 24.523-19.131 24.523l-10.521.001v-.01c-10.324-.355-18.609-11.194-18.609-24.514s8.285-24.16 18.609-24.515v-.008h.388l.135-.001.135.001h9.728zM53.02 28.115c-7.711 0-14.018-6.325-14.018-14.057S45.31 0 53.02 0h63.162c7.71 0 14.018 6.326 14.018 14.057s-6.309 14.057-14.018 14.057H53.02zm26.308 464.63H0l12.533-32.187 66.794 32.187zm114.733 0h-79.328l12.533-32.187 66.794 32.187z" id="A"/><path d="M343.626 83.372v48.103c0 21.83-17.861 39.692-39.692 39.692H117.421c-21.831 0-39.692-17.862-39.692-39.692V79.639C56.571 78.687 39.71 61.233 39.71 39.84 39.71 17.837 57.547 0 79.55 0c7.671 0 14.835 2.168 20.914 5.924a39.33 39.33 0 0 1 16.957-3.828h186.513a39.34 39.34 0 0 1 18.637 4.678 40.43 40.43 0 0 1 2.583-.833c21.155-6.05 43.209 6.196 49.257 27.351s-6.196 43.209-27.351 49.258c-1.143.327-2.289.6-3.435.822h0zm41.416 320.592c5.422 6.752 8.524 15.417 8.156 24.749-.53 13.457-8.137 24.96-19.094 31.068-4.326 2.412-9.528-.903-9.322-5.852l.005-.106c.654-16.606-7.958-30.426-19.239-30.871-5.879-.232-11.324 3.212-15.28 8.911-3.469 4.999-11.257 2.712-11.453-3.369a38.07 38.07 0 0 1 .088-4.072c.682-9.083 4.677-17.245 10.731-23.335-13.396-9.445-22.211-25.012-22.271-42.556l-.362-107.904c-.096-28.74 23.34-52.333 52.079-52.43s52.334 23.339 52.43 52.079l.362 107.904c.066 19.59-10.802 36.789-26.831 45.785h0zm-343.503 1.136c-18.233-7.073-31.82-24.149-33.365-44.859L.146 252.635c-2.139-28.661 19.562-53.86 48.222-55.998s53.859 19.561 55.998 48.222l8.028 107.605c1.343 17.994-6.711 34.624-19.984 45.039 9.182 6.519 15.34 17.082 15.764 28.996a38 38 0 0 1-.073 4.072c-.436 6.069-8.306 8.047-11.576 2.916-3.729-5.851-9.034-9.507-14.917-9.507-11.289 0-20.44 13.47-20.44 30.09v.106c.012 4.953-5.317 8.061-9.546 5.48-10.707-6.535-17.854-18.329-17.854-31.796a37.04 37.04 0 0 1 7.772-22.761h0zm134.969-192.799v-23h68.339v23h-68.339z" id="B"/><path d="M73.753 96.45H20.875C9.394 96.45 0 87.056 0 75.575V61.502c0-11.481 9.394-20.875 20.875-20.875h133.336c11.481 0 20.875 9.394 20.875 20.875v14.073c0 11.481-9.394 20.875-20.875 20.875h-50.099v41.876H73.753V96.45zm7.861-85.912a10.54 10.54 0 0 1-10.538 10.539 10.54 10.54 0 0 1-10.539-10.539A10.54 10.54 0 0 1 71.076 0a10.54 10.54 0 0 1 10.538 10.538z" id="C"/><path d="M128.641 89.553v10.656c0 8.397-6.763 15.204-15.105 15.204H64.78c-8.341 0-15.104-6.807-15.104-15.204V88h-4.968v53.792c6.06-3.763 12.509-5.792 19.199-5.792l.199.001h51.796l.199-.001c6.771 0 13.297 2.079 19.421 5.931V89.553h-6.881 0zm0-18h15.822c4.938 0 8.942 4.029 8.942 9v79.16c16.112 22.906 26.602 60.259 26.602 102.45 0 69.679-28.611 126.165-63.906 126.165-.849 0-1.694-.033-2.534-.097H66.441c-.841.065-1.686.097-2.534.097C28.612 388.329 0 331.843 0 262.164 0 219.9 10.527 182.49 26.686 159.595v102.569a9 9 0 0 0 6.246 8.584c2.116 30.036 15.178 53.158 30.974 53.158 17.273 0 31.275-27.643 31.275-61.742s-14.001-61.741-31.275-61.741c-7.236 0-13.899 4.852-19.198 12.999v39.374h19.337c4.938 0 8.942 4.029 8.942 9s-4.003 9-8.942 9H35.766c-4.938 0-8.942-4.029-8.942-9V79c0-4.971 4.003-9 8.942-9h13.909V15.204C49.675 6.807 56.438 0 64.78 0h48.756c8.342 0 15.105 6.807 15.105 15.204v56.349z" id="D"/><path d="M63.286 124.415l-.911.011c-20.042 0-36.289-16.248-36.289-36.29s16.247-36.29 36.289-36.29c4.281 0 8.389.741 12.202 2.102C92.459 21.773 126.795 0 166.216 0c37.604 0 70.581 19.811 89.063 49.565 3.665-1.245 7.594-1.921 11.681-1.921 20.042 0 36.29 16.248 36.29 36.29 0 19.062-14.698 34.691-33.378 36.174-7.421 50.591-51.002 89.431-103.655 89.431-51.147 0-93.734-36.652-102.929-85.124h0zM.076 224.623c-1.101-14.748 9.963-27.595 24.711-28.696l37.051-2.764c14.748-1.101 27.595 9.963 28.695 24.71l6.302 84.456c1.1 14.748-9.963 27.595-24.71 28.696l-37.052 2.765c-14.748 1.1-27.595-9.964-28.695-24.711L.076 224.623zm241.64-6.641c.078-14.789 12.131-26.713 26.919-26.634l37.154.197c14.788.08 26.713 12.132 26.634 26.92l-.451 84.689c-.078 14.789-12.131 26.714-26.919 26.635l-37.154-.198c-14.788-.079-26.713-12.131-26.634-26.92l.451-84.689z" id="E"/><path d="M123.486 13.578C124.485 5.916 131.037 0 138.971 0a15.62 15.62 0 0 1 15.616 15.617 15.62 15.62 0 0 1-15.616 15.617c-6.308 0-11.743-3.74-14.207-9.124l-10.891-8.333-14.82 11.338-14.809-11.338-14.813 11.338-14.809-11.338-14.812 11.338-8.176-6.259c-1.492 7.07-7.765 12.377-15.279 12.377A15.62 15.62 0 0 1 .739 15.617 15.62 15.62 0 0 1 16.356 0c7.031 0 12.976 4.647 14.934 11.036l8.522 6.524L54.623 6.222 69.432 17.56 84.245 6.222 99.055 17.56l14.818-11.338 9.613 7.355zm9.844 145.006H20.92c-8.95 0-16.205-7.255-16.205-16.205V68.123A16.21 16.21 0 0 1 20.92 51.917h112.41a16.21 16.21 0 0 1 16.205 16.206v74.256c0 8.95-7.255 16.205-16.205 16.205zm-10.478 14.698H31.396a7.35 7.35 0 0 1-7.349-7.349 7.35 7.35 0 0 1 7.349-7.349h91.456a7.35 7.35 0 0 1 7.349 7.349 7.35 7.35 0 0 1-7.349 7.349z" id="F"/><path id="G" d="M408.578 799.422c0 6.69 5.424 12.114 12.115 12.114s12.114-5.424 12.114-12.114-5.423-12.115-12.114-12.115-12.115 5.424-12.115 12.115"/><path id="H" d="M1839.16 877.308h-204.923V691c0-59.562 48.284-107.846 107.846-107.846 53.614 0 97.077 43.463 97.077 97.077v197.077z"/><path id="I" d="M1471.095 305.756h130.994V111.5h-130.994z"/><path id="J" d="M1372.097 284.623h200.305v-151.99h-200.305z"/><path id="K" d="M29.457 223.574c0 7.928 4.283 14.356 9.565 14.356s9.565-6.428 9.565-14.356-4.282-14.357-9.565-14.357-9.565 6.428-9.565 14.357"/><path id="L" d="M64.341 66.29c0 4.061 3.292 7.353 7.353 7.353s7.353-3.292 7.353-7.353-3.292-7.353-7.353-7.353-7.353 3.292-7.353 7.353"/></defs><g transform="translate(-346 -88)" fill="none" fill-rule="evenodd"><path d="M404.98 713.552h0c0 6.903 5.597 12.5 12.5 12.5h112.469v-25.001H417.48c-6.903 0-12.5 5.597-12.5 12.501" class="B"/><path d="M480.624 713.552h0a7.24 7.24 0 0 0 7.237 7.236h41.786a.3.3 0 0 0 .301-.3v-13.873a.3.3 0 0 0-.301-.3h-41.786a7.24 7.24 0 0 0-7.237 7.237" class="C"/><path d="M389.283 726.052v25.001h122.759c6.903 0 12.5-5.597 12.5-12.5s-5.597-12.501-12.5-12.501H389.283z" class="B"/><path d="M389.283 731.386v14.334h50.474a7.17 7.17 0 0 0 7.167-7.167 7.17 7.17 0 0 0-7.167-7.167h-50.474zm47.161-45.578l7.984-77.809h24.968l7.985 77.809c.836 8.154-5.562 15.242-13.758 15.242h-13.421c-8.196 0-14.595-7.088-13.758-15.242M346 929.201h152V751.053H346z" class="C"/><path d="M498 929.201h101.144V751.053H498z" class="F"/><path d="M359.624 912.149H481.76v-65.36H359.624zm0-80.048H481.76v-65.36H359.624z" class="B"/><path d="M346 971.312h14.891v-42.111H346z" class="C"/><path d="M584.253 971.312h14.891v-42.111h-14.891z" class="F"/><path d="M483.108 971.312H498v-42.111h-14.892z" class="C"/><g class="F"><path d="M445.538 971.312h14.891v-42.111h-14.891z"/><use xlink:href="#G"/><use xlink:href="#G" y="80.047"/></g><path d="M1979.55 502.935s3.956-20.604 17.469-19.284c28.191 2.756-6.338 93.334 51.672 99.151s64.033-84.92 64.033-84.92" class="O P"/><path d="M1981.635 442.62v529.699m131.089-474.437l-346.17-149.217" stroke-width="15" class="G"/><path d="M1914.968 972.319h133.334v-6.564c0-8.489-6.882-15.371-15.371-15.371h-102.593c-8.488 0-15.37 6.882-15.37 15.371v6.564z" class="C"/><g class="F"><path d="M1694 424.777l113.442 24.697 3.668-31.697-107.269-23.353zm50.709-47.486l33.821 7.363 9.656-44.348a16.44 16.44 0 0 0-12.564-19.556l-1.703-.371a16.44 16.44 0 0 0-19.556 12.564l-9.654 44.348z"/><path d="M1811.111 417.777l-33.654-44.133-24.66-5.369-48.956 26.149z"/></g><path d="M742.014 148.718v376.531m190.759-376.531v376.531M566.004 148.718v376.531" stroke="#b6d4ff" stroke-width="18"/><path d="M1100.109 534.418h18.142V139.547h-18.142z" class="F"/><path d="M550.086 534.418h558.028V139.547H550.086v394.871zm17-17h524.028V156.547H567.086v360.871z" class="C"/><path d="M533.784 552.611h543.552v-18.194H533.784z" class="B"/><path d="M1077.335 552.611h45.548v-18.194h-45.548z" class="F"/><g stroke-width="16" class="G"><path d="M733.72 144.597V529.37m190.759-384.773V529.37"/><path d="M559.561 336.982h533.462"/></g><g class="B"><path d="M625.399 628.572c0-169.428-87.541-330.146-87.541-330.146h-29.944v330.146h117.485z"/><path d="M625.399 98.067c0 102.823-87.541 200.359-87.541 200.359h-29.944V98.067h117.485z"/></g><path d="M550.618 312.869l-53.619 2.327v-28.595l53.619 2.327z" class="Q"/><g class="B"><path d="M1034.387 628.572c0-169.428 84.07-330.146 84.07-330.146h28.758v330.146h-112.828z"/><path d="M1034.387 98.067c0 102.823 84.07 200.359 84.07 200.359h28.758V98.067h-112.828z"/></g><path d="M1105.31 312.869l50.107 2.327V286.6l-50.107 2.328z" class="Q"/><g class="B"><path d="M458.569 113.073h733.646V98.067H458.569zm401.477 394.569h0c-5.798 0-10.542-4.744-10.542-10.541v-93.777c0-5.797 4.744-10.541 10.542-10.541s10.541 4.744 10.541 10.541v93.777c0 5.797-4.743 10.541-10.541 10.541"/><path d="M832.947 444.481h24.115c3.12 0 5.674-2.553 5.674-5.673v-.284c0-3.12-2.554-5.672-5.674-5.672h-24.115a5.69 5.69 0 0 0-5.673 5.672v.284c0 3.12 2.553 5.673 5.673 5.673"/><path d="M834.158 444.481h-.001c-3.785 0-6.883-3.098-6.883-6.884v-19.878c0-3.786 3.098-6.884 6.883-6.884h.001c3.785 0 6.883 3.098 6.883 6.884v19.878c0 3.786-3.098 6.884-6.883 6.884m54.648 31.068h-22.614c-3.12 0-5.673-2.553-5.673-5.673v-3.42c0-3.12 2.553-5.673 5.673-5.673h22.614c3.12 0 5.673 2.553 5.673 5.673v3.42c0 3.12-2.553 5.673-5.673 5.673"/><path d="M887.409 475.549h.956c3.362 0 6.114-2.751 6.114-6.115v-22.018c0-3.363-2.752-6.115-6.114-6.115h-.956c-3.362 0-6.114 2.752-6.114 6.115v22.018c0 3.364 2.752 6.115 6.114 6.115"/></g><g class="F"><path d="M832.336 487.642h59.247l-6.255 46.679h-46.737zm128.546 14.862c-6.098 10.245-2.734 23.493 7.511 29.591a21.59 21.59 0 0 0 22.08-37.101c-10.245-6.098-23.493-2.735-29.591 7.51"/><path d="M968.138 484.545c2.424 7.111 10.185 10.9 10.185 10.9s3.831-7.739 1.408-14.85-10.185-10.901-10.185-10.901-3.831 7.74-1.408 14.851"/></g><path d="M476.139 105.57l-17.569 17.57-17.571-17.57 17.571-17.569zm733.646 1.815l-17.569 17.57-17.57-17.57 17.57-17.57zm310.049 601.076h0c0 7.52-6.095 13.615-13.614 13.615h-107.756v-27.229h107.756c7.519 0 13.614 6.095 13.614 13.614" class="B"/><path d="M1446.367 708.461h0c0 4.353-3.529 7.882-7.882 7.882h-39.858c-.091 0-.164-.073-.164-.164v-15.436c0-.09.073-.163.164-.163h39.858c4.353 0 7.882 3.528 7.882 7.881" class="C"/><path d="M1535.079 722.076v27.229h-117.75c-7.519 0-13.614-6.096-13.614-13.615s6.095-13.614 13.614-13.614h117.75z" class="B"/><path d="M1535.079 727.884v15.612h-48.175a7.81 7.81 0 0 1-7.806-7.806 7.81 7.81 0 0 1 7.806-7.806h48.175z" class="C"/><path d="M1864.314 557v415.238M1631.442 557v415.238" class="M O"/><use xlink:href="#H" class="C"/><path d="M1607.929 557v415.238M1841.16 557v415.238" class="G M"/><path d="M1813 754.847h-228.308c-13.254 0-24-10.745-24-24s10.746-24 24-24H1813c13.255 0 24 10.745 24 24s-10.745 24-24 24" class="Q"/><path d="M1813 754.847h-114.257c-13.255 0-24-10.745-24-24s10.745-24 24-24H1813c13.255 0 24 10.745 24 24s-10.745 24-24 24" fill="#e3f1ff"/><path d="M1356.897 877.308h234.564v-128h-234.564z" class="F"/><path d="M1368.385 557v415.238M1135.513 557v415.238" class="M O"/><use xlink:href="#H" x="-495.929" class="C"/><path d="M1694.231 898.231h-88.615c-16.654 0-30.154-13.5-30.154-30.154V749.308h148.923v118.769c0 16.654-13.5 30.154-30.154 30.154" class="B"/><path d="M1112 557v415.238M1345.231 557v415.238" class="G M"/><path d="M1724.385 877.308h116V754.847h-116z" class="F"/><g class="B"><path d="M1485.36 663.924a21.59 21.59 0 0 1-37.101 22.08c-6.097-10.245-2.735-23.493 7.51-29.591s23.494-2.734 29.591 7.511"/><path d="M1466.412 646.283c-2.423 7.111-10.184 10.9-10.184 10.9s-3.831-7.739-1.408-14.85 10.184-10.901 10.184-10.901 3.831 7.74 1.408 14.851"/></g><use xlink:href="#I" class="C"/><use xlink:href="#I" class="G N"/><path d="M1349.5 305.756h245.499V111.5H1349.5z" class="D"/><path d="M1349.5 305.756h245.499V111.5H1349.5z" class="G N"/><use xlink:href="#J" class="D"/><use xlink:href="#J" class="G N"/><path d="M1422.768 247.906h99.98v-78.557h-99.98z" class="F"/><g transform="translate(476 206)"><g transform="translate(172.208 411.914)"><path d="M119.679 22.422l18.01 199.107m.001 17.985L130.201 468.4M48.096 20.972l-.994 198.601m0 8.496L20.38 474.837" stroke-width="16" class="H L"/><mask id="M" class="D"><use xlink:href="#A"/></mask><use xlink:href="#A" class="J"/><g mask="url(#M)" class="I R"><path d="M0-.996h194v508H0z"/></g><g class="K"><path d="M130.876 247.894c-10.324-.355-18.609-11.194-18.609-24.514s8.285-24.16 18.609-24.515v-.008h.388l.135-.001.135.001h9.728l.135-.001c10.566 0 19.132 10.98 19.132 24.524s-8.566 24.523-19.131 24.523h-10.521v-.01zm-12.024-24.514c0 7.928 4.283 14.356 9.565 14.356s9.565-6.428 9.565-14.356-4.282-14.357-9.565-14.357-9.565 6.428-9.565 14.357zM41.46 247.993c-10.325-.354-18.609-11.194-18.609-24.514s8.285-24.161 18.609-24.515v-.008h.387.135.135 9.729.135c10.567 0 19.132 10.98 19.132 24.524s-8.564 24.522-19.131 24.523l-10.521.001v-.01h0zm-12.024-24.514c0 7.928 4.283 14.356 9.565 14.356s9.565-6.428 9.565-14.356-4.282-14.357-9.565-14.357-9.565 6.428-9.565 14.357z" opacity=".403"/><use xlink:href="#K" opacity=".603"/><use xlink:href="#K" x="89.466" y="-0.2" opacity=".604"/><path d="M79.328 492.962H0l12.533-32.187zm114.733 0h-79.328l12.533-32.187z" class="S"/></g></g><g transform="translate(49 202)"><path d="M354.801 211.479L331.531 40.87" class="H L T"/><path d="M138.122 190.423h145.11l22.128-23.821H115.994z" class="E"/><path d="M51.821 205.807L76.352 35.374" class="H L T"/><g transform="translate(0 .999)"><mask id="N" class="D"><use xlink:href="#B"/></mask><use xlink:href="#B" class="J"/><g mask="url(#N)" class="I R"><path d="M-3 .001h412v462H-3z"/></g></g><path d="M108.173 427.499a38 38 0 0 1-.073 4.072c-.436 6.069-8.306 8.047-11.576 2.916-3.729-5.851-9.034-9.507-14.917-9.507-11.289 0-20.44 13.47-20.44 30.09v.106c.012 4.953-5.317 8.061-9.546 5.48-10.707-6.535-17.854-18.329-17.854-31.796 0-20.93 17.283-37.825 38.366-37.192 19.424.583 35.35 16.411 36.04 35.831zM290.83 84.72c0 25.5-18.561 46.66-42.91 50.72l-1.04-.19C223.04 130.79 205 109.86 205 84.72s18.04-46.07 41.88-50.53a36.54 36.54 0 0 1 1.04-.19c24.349 4.06 42.91 25.22 42.91 50.72zm-81.441.069c0 16.452 13.336 29.788 29.788 29.788s29.788-13.336 29.788-29.788S255.629 55 239.177 55s-29.788 13.337-29.788 29.789zM39.5 40.84C39.5 18.837 57.337 1 79.34 1s39.84 17.837 39.84 39.84-17.837 39.84-39.84 39.84S39.5 62.843 39.5 40.84zm9.612-7.385A19.33 19.33 0 0 0 68.44 52.782a19.33 19.33 0 0 0 19.327-19.327A19.33 19.33 0 0 0 68.44 14.128a19.33 19.33 0 0 0-19.327 19.327zM322.5 7.879a40.43 40.43 0 0 1 2.583-.833c21.155-6.05 43.209 6.196 49.257 27.351s-6.196 43.209-27.351 49.258c-1.143.327-2.289.6-3.435.822V42.893c0-15.107-8.552-28.312-21.055-35.014zm62.541 396.889c5.422 6.752 8.524 15.417 8.156 24.749-.53 13.457-8.137 24.96-19.094 31.068-4.326 2.412-9.528-.903-9.322-5.852l.005-.106c.654-16.606-7.958-30.426-19.239-30.871-5.879-.232-11.324 3.212-15.28 8.911-3.469 4.999-11.257 2.712-11.453-3.369a38.07 38.07 0 0 1 .088-4.072c.682-9.083 4.677-17.245 10.731-23.335-13.396-9.445-22.211-25.012-22.271-42.556l-.362-107.904c-.096-28.74 23.34-52.333 52.079-52.43s52.334 23.339 52.43 52.079l.362 107.904c.066 19.59-10.802 36.789-26.831 45.785h0zM177.709 125.975c0-5.65 4.581-10.231 10.231-10.231s10.231 4.581 10.231 10.231-4.58 10.231-10.231 10.231-10.231-4.581-10.231-10.231zm-29.57 0c0-5.65 4.581-10.231 10.23-10.231s10.232 4.581 10.232 10.231-4.581 10.231-10.232 10.231-10.23-4.581-10.23-10.231zM13.335 261.628c-.437-5.634 3.776-10.554 9.41-10.991s10.555 3.777 10.991 9.41-3.777 10.554-9.41 10.991-10.554-3.777-10.991-9.41zm2.187 28.223c-.437-5.634 3.776-10.554 9.409-10.991s10.555 3.777 10.991 9.41-3.776 10.554-9.41 10.991-10.553-3.777-10.99-9.41zm2.239 28.906c-.437-5.633 3.776-10.554 9.41-10.991s10.554 3.777 10.99 9.41-3.776 10.555-9.409 10.991-10.554-3.776-10.991-9.41zM176 213v-23h69v23h-69z" opacity=".395" class="K"/><path d="M247.68 135.506c24.349-4.06 42.91-25.22 42.91-50.72s-18.561-46.66-42.91-50.72a51.64 51.64 0 0 1 8.49-.7c28.399 0 51.42 23.02 51.42 51.42s-23.021 51.42-51.42 51.42a51.64 51.64 0 0 1-8.49-.7h0z" class="E"/></g><g transform="translate(159 67)"><path d="M72.728 12.423s17.462 11.549 19.383 31.53" stroke-width="5" class="H L"/><mask id="O" class="D"><use xlink:href="#C"/></mask><use xlink:href="#C" class="J"/><g mask="url(#O)" class="I R"><path d="M21 0h154v141H21z"/></g><g class="K"><path d="M73.753 138.326h30.359v-42H73.753z" opacity=".399"/><path opacity=".4" d="M73.753 124.742l30.359-10V96.158H73.753z"/></g><path d="M20.875 96.45h0C9.394 96.45 0 87.056 0 75.575V61.502c0-11.481 9.394-20.875 20.875-20.875S41.75 50.021 41.75 61.502v14.073c0 11.481-9.394 20.875-20.875 20.875" class="E"/><path d="M53.615 68.539A16.01 16.01 0 0 0 69.62 84.544a16.01 16.01 0 0 0 16.006-16.005A16.01 16.01 0 0 0 69.62 52.533a16.01 16.01 0 0 0-16.005 16.006" class="D"/><use xlink:href="#L" class="E"/><path d="M131.665 68.539a16.01 16.01 0 0 0 16.006 16.005 16.01 16.01 0 0 0 16.006-16.005 16.01 16.01 0 0 0-16.006-16.006 16.01 16.01 0 0 0-16.006 16.006" class="D"/><g class="E"><use xlink:href="#L" x="78.05"/><path d="M104.988 57.568l14.316 10.863-14.316 11.078"/></g></g></g><g transform="matrix(-1 0 0 1 1627 313)"><g transform="translate(168.234 412)"><mask id="P" class="D"><use xlink:href="#D"/></mask><g class="I"><use xlink:href="#D" class="J"/><g mask="url(#P)" class="U"><path d="M0-9h180v403H0z"/></g></g><path d="M33.09 270.386a8.9 8.9 0 0 0 2.676.41h28.278c4.938 0 8.942-4.029 8.942-9s-4.003-9-8.942-9H44.708v-39.559C50.032 204.947 56.753 200 64.059 200c17.273 0 31.275 27.642 31.275 61.741s-14.001 61.742-31.275 61.742c-15.785 0-28.84-23.091-30.969-53.097h0zM49.412 58.15h78.966V30.928H49.412z" class="E"/><path d="M136.121 142.011l-.814-.545V90h-7.144V72h16.086c4.938 0 8.942 4.029 8.942 9l.216 77.916a82.28 82.28 0 0 0-1.49-1.913c-.379-.524-.749-1.041-1.09-1.411l-.258-.282c17.971 22.329 29.912 61.838 29.912 106.854 0 69.679-28.611 126.165-63.906 126.165-.849 0-1.694-.033-2.534-.097H66.913c34.119-2.627 61.372-58.064 61.372-126.068 0-69.548-28.504-125.951-63.707-126.164l51.796.001.199-.001c6.818 0 13.386 2.108 19.547 6.011h0zm10.456 8.729l1.425 1.545c-.42-.491-.869-.989-1.425-1.545h0zM44.708 252.796h19.337c4.938 0 8.942 4.029 8.942 9s-4.003 9-8.942 9H35.767c-4.938 0-8.942-4.029-8.942-9V79c0-4.971 4.003-9 8.942-9h28.278c4.938 0 8.942 4.029 8.942 9s-4.003 9-8.942 9H44.708v164.796z" class="K S"/></g><g transform="translate(86 205)"><g class="H"><path d="M43.078 388.378l-21.074-22.853 30.553-39.266 36.681 31.823-13.229 27.939m195.927.473l-18.891-24.687 34.023-36.301 33.61 35.049-15.733 26.61" stroke-width="15"/><path d="M287.444 221.706l-15.145-111.038M45.56 218.324l15.966-110.922" class="L T"/></g><path d="M224.007 156.422H180.89c-6.425 0-11.633-5.208-11.633-11.633v-43.117c0-6.424 5.208-11.632 11.633-11.632h43.117c6.424 0 11.632 5.208 11.632 11.632v43.117c0 6.425-5.208 11.633-11.632 11.633" class="E"/><path d="M213.007 156.422H180.89c-6.425 0-11.633-5.208-11.633-11.633v-43.117c0-6.424 5.208-11.632 11.633-11.632h32.117c6.424 0 11.632 5.208 11.632 11.632v43.117c0 6.425-5.208 11.633-11.632 11.633" fill="#405fd3"/><g transform="translate(0 18.461)"><mask id="Q" class="D"><use xlink:href="#E"/></mask><use xlink:href="#E" class="J"/><g mask="url(#Q)" class="I U"><path d="M0 7.539h332v326H0z"/></g></g><path d="M126.21 26.461h80.013V0H126.21zm86.797 129.961c6.424 0 11.632-5.208 11.632-11.633v-43.117c0-6.424-5.208-11.632-11.632-11.632h11c6.424 0 11.632 5.208 11.632 11.632v43.117c0 6.425-5.208 11.633-11.632 11.633h-11z" class="E"/><path d="M16 241.409l6.652 84.48L16 241.409zM32.488 240l6.652 84.48L32.488 240z" stroke="#000" opacity=".402" stroke-linejoin="round" class="N"/><g class="K"><path d="M213.05 156.382h-32.117c-6.425 0-11.633-5.208-11.633-11.633v-43.117c0-6.424 5.208-11.632 11.633-11.632h32.117c6.424 0 11.632 5.208 11.632 11.632v43.117c0 6.425-5.208 11.633-11.632 11.633zm-26.623-36.527a8.43 8.43 0 0 0 8.428-8.428 8.43 8.43 0 0 0-8.428-8.427 8.43 8.43 0 0 0-8.427 8.427 8.43 8.43 0 0 0 8.427 8.428zm23.949 0a8.43 8.43 0 0 0 8.428-8.428 8.43 8.43 0 0 0-8.428-8.427 8.43 8.43 0 0 0-8.428 8.427 8.43 8.43 0 0 0 8.428 8.428zm-23.949 24.358a8.43 8.43 0 0 0 8.428-8.428 8.43 8.43 0 0 0-8.428-8.427 8.43 8.43 0 0 0-8.427 8.427 8.43 8.43 0 0 0 8.427 8.428z" opacity=".398"/><path d="M25 106.29c0 20.042 16.247 36.29 36.289 36.29s36.29-16.248 36.29-36.29S81.331 70 61.289 70 25 86.248 25 106.29" opacity=".404"/><path d="M242.451 236.634L242 321.323c-.079 14.789 11.846 26.841 26.634 26.92l37.154.198c14.788.079 26.841-11.846 26.919-26.635l.451-84.689c.079-14.788-11.846-26.84-26.634-26.92L269.37 210c-14.788-.079-26.841 11.845-26.919 26.634" opacity=".399"/><path d="M255 68.421c3.665-1.245 7.594-1.921 11.681-1.921 20.042 0 36.29 16.248 36.29 36.29 0 19.062-14.698 34.691-33.378 36.174a105.63 105.63 0 0 0 1.115-15.338c0-20.259-5.75-39.175-15.707-55.205h0z" opacity=".398"/><path d="M186.427 144.205a8.43 8.43 0 0 0 8.428-8.428 8.43 8.43 0 0 0-8.428-8.427 8.43 8.43 0 0 0-8.427 8.427 8.43 8.43 0 0 0 8.427 8.428" opacity=".598"/></g></g><g transform="translate(156 46)"><path d="M160.971 97.128V27.282" class="H P"/><path d="M167.256 126.774h-28.88V83.727h28.88c11.838 0 21.523 9.685 21.523 21.523s-9.685 21.524-21.523 21.524" class="E"/><g transform="translate(22)"><mask id="R" class="D"><use xlink:href="#F"/></mask><use xlink:href="#F" class="J"/><g mask="url(#R)" class="I U"><path d="M-1 0h156v173H-1z"/></g></g><g class="K"><path opacity=".404" d="M76.622 13.778L61.811 25.116l-8.175-6.199-.385-7.908 8.561 6.551L76.623 6.222 91.432 17.56l14.813-11.338 14.809 11.338 14.818-11.338 9.481 7.555 1.577 8.384-11.058-8.384-14.82 11.338-14.809-11.338-14.813 11.338z" class="I"/><path d="M144.852 173.282H53.396a7.35 7.35 0 0 1-7.349-7.349 7.35 7.35 0 0 1 7.349-7.349h91.456a7.35 7.35 0 0 1 7.349 7.349 7.35 7.35 0 0 1-7.349 7.349" class="S"/></g><g class="E"><path d="M21.524 126.774h28.879V83.727H21.524C9.686 83.727 0 93.412 0 105.25s9.686 21.524 21.524 21.524m139.447-21.524c0 16.46-10.66 29.804-23.809 29.804s-23.808-13.344-23.808-29.804 10.659-29.804 23.808-29.804 23.809 13.344 23.809 29.804"/><path d="M125.974 135.054h11.188V75.446h-11.188z"/></g><path d="M149.783 105.25c0 16.46-10.659 29.804-23.809 29.804s-23.808-13.344-23.808-29.804 10.659-29.804 23.808-29.804 23.809 13.344 23.809 29.804" class="D"/><path d="M138.162 103.25c0 5.794-3.752 10.492-8.381 10.492s-8.381-4.698-8.381-10.492 3.752-10.492 8.381-10.492 8.381 4.698 8.381 10.492" class="E"/><path d="M38.355 97.128V30.5" class="H P"/></g></g></g></svg>