<svg xmlns="http://www.w3.org/2000/svg" xmlns:xlink="http://www.w3.org/1999/xlink" width="1975" height="1090" xmlns:v="https://vecta.io/nano"><style><![CDATA[.B{fill:#cce3ff}.C{fill:#fff}.D{fill:#dceeff}.E{fill-rule:nonzero}.F{fill:#b6d4ff}.G{fill:#19141e}.H{stroke-width:7}.I{stroke:#dceeff}.J{fill:#e576c6}.K{stroke:#b6d4ff}.L{stroke-width:16}.M{fill:#ecf6ff}.N{stroke:#19141e}.O{stroke-width:3}.P{stroke-width:5}.Q{stroke:#cce3ff}.R{stroke-linecap:round}.S{fill:#6ca1ff}.T{fill:#f6b852}]]></style><defs><path d="M108.369 483.613l2.476-22.892 14.545-134.86c.715-6.63 6.627-11.42 13.224-10.7l50.907 5.57c6.587.72 11.346 6.67 10.631 13.3l-13.78 127.73c17.823 4.12 31.116 20.18 31.126 39.37v.021 12.159H105.162 0l1.311-12.18 4.371-40.41 14.545-134.86c.715-6.63 6.627-11.42 13.224-10.7l50.907 5.57c6.587.72 11.346 6.67 10.631 13.3l-13.78 127.73c11.993 2.772 21.935 10.951 27.159 21.852zM56.537 58.392c-7.719-5.765-12.758-14.991-12.792-25.353-.059-17.431 14.062-31.74 31.38-31.798L146.311 1c17.318-.058 31.534 14.155 31.592 31.585s-14.063 31.739-31.38 31.798l-67.166.226.124-24.782c.032-6.351-5.058-11.526-11.368-11.558S56.661 33.36 56.63 39.711l-.093 18.68zm36.152 188.919c0 15.88-12.79 28.753-28.566 28.753s-28.567-12.873-28.567-28.753 12.79-28.753 28.567-28.753 28.566 12.873 28.566 28.753zm105.043 0c0 15.88-12.79 28.753-28.566 28.753s-28.567-12.873-28.567-28.753 12.79-28.753 28.567-28.753 28.566 12.873 28.566 28.753z" id="A"/><path d="M253.929 251.8l-11.19 9.989-2.327-2.849a75.94 75.94 0 0 1-4.831-7.065c-4.16-6.897-6.864-13.878-7.336-20.81-.635-9.321 2.951-17.608 11.136-23.581 8.193-5.978 16.733-6.493 24.041-1.785 5.211 3.356 9.226 8.923 12.53 16.09 1.668 3.619 3.049 7.44 4.174 11.253.393 1.331.727 2.571 1.005 3.693l.357 1.526-14.674 3.111a36.35 36.35 0 0 0-.243-1.032 72.12 72.12 0 0 0-.831-3.053c-.934-3.165-2.075-6.323-3.409-9.218-2.218-4.812-4.708-8.263-7.031-9.759-1.932-1.245-3.75-1.135-7.077 1.292-3.89 2.839-5.308 6.114-5.013 10.444.283 4.155 2.179 9.047 5.216 14.084a61.06 61.06 0 0 0 3.873 5.664 50.21 50.21 0 0 0 1.246 1.558l.383.45zM68.699 108.236l-.69 1.363c-6.15 12.157-21.126 17.072-33.282 10.923l-2.049-1.036c-12.156-6.149-17.071-21.126-10.922-33.283l34.79-68.779c4.68-9.254 14.476-14.311 24.249-13.487C85.413 2.044 90.46.999 95.74.999h67.693c9.512 0 18.272 3.392 25.128 9.025 9.04 2.004 16.625 9.015 18.844 18.595l17.398 75.089c3.074 13.271-5.269 26.645-18.54 29.72l-2.237.518c-12.64 2.929-25.374-4.501-29.214-16.681-3.608 1.088-7.429 1.672-11.379 1.672H95.74c-10.422 0-19.94-4.071-27.041-10.701h0zM16.036 258.704l-14.974.885a31.13 31.13 0 0 1-.034-.797c-.189-5.921.345-13.004 2.261-19.999 4.07-14.854 13.461-24.471 28.853-23.864 8.668.342 15.137 3.959 18.596 10.392 2.694 5.011 3.238 11.03 2.29 17.844-.591 4.245-1.75 8.655-3.308 13.107-.79 2.256-1.634 4.382-2.481 6.326a61.03 61.03 0 0 1-1.193 2.599l-13.435-6.671a26.16 26.16 0 0 0 .211-.442l.666-1.478c.706-1.62 1.414-3.405 2.074-5.29 1.255-3.585 2.171-7.07 2.609-10.219 1.123-8.066-.42-10.936-6.62-11.181-7.196-.284-11.371 3.991-13.795 12.839-.817 2.981-1.33 6.242-1.582 9.581-.175 2.321-.205 4.375-.154 5.975l.015.391z" id="B"/><path d="M123.486 13.578C124.485 5.916 131.037 0 138.971 0a15.62 15.62 0 0 1 15.616 15.617 15.62 15.62 0 0 1-15.616 15.617c-6.308 0-11.743-3.74-14.207-9.124l-10.891-8.333-14.82 11.338-14.809-11.338-14.813 11.338-14.809-11.338-14.812 11.338-8.176-6.259c-1.492 7.07-7.765 12.377-15.279 12.377A15.62 15.62 0 0 1 .739 15.617 15.62 15.62 0 0 1 16.356 0c7.031 0 12.976 4.647 14.934 11.036l8.522 6.524L54.623 6.222 69.432 17.56 84.245 6.222 99.055 17.56l14.818-11.338 9.613 7.355zm9.844 145.006H20.92c-8.95 0-16.205-7.255-16.205-16.205V68.123A16.21 16.21 0 0 1 20.92 51.917h112.41a16.21 16.21 0 0 1 16.205 16.206v74.256c0 8.95-7.255 16.205-16.205 16.205zm-10.478 14.698H31.396a7.35 7.35 0 0 1-7.349-7.349 7.35 7.35 0 0 1 7.349-7.349h91.456a7.35 7.35 0 0 1 7.349 7.349 7.35 7.35 0 0 1-7.349 7.349z" id="C"/><path d="M22.25 67.36c4.4 6.263 3.191 14.886 1.144 19.996-.69 1.755-5.004 16.393-5.71 17.083-2.744 2.676 33.296 16.162 33.296 16.162l.803-29.127c10.243.048 22.2-1.127 28.55-5.854C99.249 71.539 98.011 26.257 97.57 24.012L80.149 6.488S54.743-3.648 51.227 1.418C44.796 10.696 30.756 51.431 18.819 47.5c0 0 .818-12.476-9.53-11.912-7.71.42-9.47 6.716-9.275 10.288C.671 57.935 16.341 58.922 22.25 67.36" id="D"/><path d="M219.668 6.834c2.151-5.059 13.453-6.479 13.453-6.479s18.037 20.762 19.651 23.933 4.599 18.867 4.457 21.969-9.444 17.036-9.444 17.036c-5.771-1.413-2.002-8.61-2.002-8.61s-5.169 4.371-7.318 4.297c-20.24-.689-19.156-10.938-18.677-12.221 1.075-2.882 6.477.414 6.477.414s-12.75-25.869-6.597-40.339zM37.729.86l4.004 24.895s.025 5.117-.69 10.994-1.298 9.418.677 18.936c1.377 6.632-7.315 2.752-9.096-1.186-1.836-4.061.224-18.506-4.842-16.717s-9.818 15.713-12.074 29.373c-.354 2.146-2.334 3.51-3.598 3.86-2.049.567-2.692-8.353-2.692-8.353s-1.656 2.702-4.249.82c-.918-.666-2.6-7.022-2.6-7.022S.883 53.132.393 49.736c-.864-5.998-.194-16.608.951-19.508C4.116 23.204 9.44 11.349 14.067 5.577 18.645-.134 26.654 5.976 37.729.86z" id="E"/><path d="M100.809 20.792L103.676 0l43.69 6.024-2.383 17.278c12.825 1.239 21.556 3.742 29.726 11.243 26.24 24.09 28.17 114.27 28.17 114.27l27.73 94.75-22.82 2.86s-38.2-50.62-46.64-77.84h-78.25s.74-8.09-1.1-19.78c-2.42-15.29-11.11-26.69-11.11-26.69l-15.72 19.34-27.24 96.48-25.03 4.49s-7.51-78.87 7.68-121.94c13.28-37.67 37.51-78.58 56.43-90.5 12.011-7.571 23.293-9.231 34-9.193z" id="F"/><path d="M176.362 11.415l64.722 27.295c17.584 16.1 33.024 21.979 11.881 30.356-25.187 9.981-62.374-23.999-62.374-23.999-26.614-1.663-14.229-33.652-14.229-33.652zM12.534 3.038L31.049 0S46.01 42.366 49.743 73.934c2.289 19.35 8.514 36.512-9.011 34.166-24.76-3.317-30.466-52.623-33.234-54.566C4.571 51.479-.034 25.372.315 22.62S12.534 3.038 12.534 3.038z" id="G"/><path d="M111.442 6.662c17.529-1.749 35.816 8.546 41.083 28.287l62.666 240.439 41.546 35.261s-4.416 6.622-15.454 7.726-49.506-33.271-49.506-33.271l.314-.224-84.237-174.818L52.023 288.27c4.806 19.072 10.707 48.993.758 50.108-14.644 1.641-27.231-47.487-27.231-47.487l.145-.119L49.552 82.529 0 68.109l21.365-43.902 54.524-21.46c12.847-5.057 25.755-2.771 35.553 3.916z" id="H"/><path d="M34.071 0S-10.951 46.699 2.513 86.289c14.434 42.439 152.926 36.703 152.926 36.703s27.008-64.272 97.331-68.364L120.091 1.381 34.071 0z" id="I"/><path id="J" d="M2100.488 271.398h25.235V175h-25.235z"/><path id="K" d="M1987.343 979.54h20.124v-76.874h-20.124z"/><path id="L" d="M2057.781 473.068c-1.56 13.11-8.2 24.67-17.899 32.64h-63.431c-9.699-7.97-16.34-19.53-17.909-32.64h99.239z"/><path id="M" d="M2025.105 691.994c0 19.295-2.057 36.943-5.487 50.63h-35.944c-3.423-13.687-5.488-31.335-5.488-50.63"/><path id="N" d="M2023.327 700.472c8.15 1.609 13.453 9.521 11.844 17.671s-9.521 13.453-17.671 11.844"/><path id="O" d="M125.608 92.48c.006 3.589-1.951 6.489-4.371 6.478s-4.386-2.93-4.392-6.518 1.951-6.489 4.371-6.478 4.386 2.93 4.392 6.518"/><path id="P" d="M1626.971 395.94h195.078V230.5h-195.078z"/><path id="Q" d="M1615.5 396.162h195.078v-165.44H1615.5z"/></defs><g transform="translate(-283 -175)" fill="none" fill-rule="evenodd"><g class="I H"><path d="M442.083 778.689v286.165"/><path d="M585.165 921.772H299"/><path d="M543.257 820.597l-202.35 202.349"/><path d="M543.257 1022.946l-202.35-202.349"/><path d="M919.077 781.023l-51.479 281.497"/><path d="M1034.086 947.511l-281.497-51.479"/><path d="M1011.062 840.449l-235.45 162.646"/><path d="M974.661 1039.497l-162.647-235.45"/></g><path d="M840.979 921.772c0 28.735 23.295 52.029 52.03 52.029s52.03-23.294 52.03-52.029-23.294-52.03-52.03-52.03-52.03 23.295-52.03 52.03" class="D"/><path d="M840.979 921.772c0 28.735 23.295 52.029 52.03 52.029s52.03-23.294 52.03-52.029-23.294-52.03-52.03-52.03-52.03 23.295-52.03 52.03z" class="L Q"/><path d="M416.948 921.772c0 13.881 11.253 25.134 25.135 25.134s25.134-11.253 25.134-25.134-11.253-25.135-25.134-25.135-25.135 11.253-25.135 25.135" class="D"/><path d="M416.948 921.772c0 13.881 11.253 25.134 25.135 25.134s25.134-11.253 25.134-25.134-11.253-25.135-25.134-25.135-25.135 11.253-25.135 25.135z" class="L Q"/><path d="M749.927 921.772c0 79.021 64.061 143.082 143.083 143.082s143.082-64.061 143.082-143.082-64.06-143.083-143.082-143.083-143.083 64.061-143.083 143.083zm-450.927 0c0 79.021 64.061 143.082 143.083 143.082s143.082-64.061 143.082-143.082-64.06-143.083-143.082-143.083S299 842.75 299 921.772z" stroke-width="14" class="K"/><g stroke-width="15" class="I"><path stroke-linejoin="bevel" d="M779.736 684.926l-69.645 236.846-220.227-191.07 277.948-2.96 125.197 194.03H710.091"/><path d="M602.509 644.278h-86.717l-73.709 279.255"/></g><path d="M732.935 699.182l82.97 8.855c8.955.956 16.836-5.262 16.836-13.283V685.9c0-7.389-6.736-13.378-15.043-13.378h-82.971c-8.308 0-15.043 5.989-15.043 13.378 0 6.771 5.69 12.475 13.251 13.282" class="B"/><path stroke-width="13" d="M706.433 921.772v63.141h25.946-51.911" class="Q"/><path d="M551.292 657.286h57.449V631h-57.449zm-72.777 81.859l-27.579 5.348V695.43l27.579 5.349c7.848 1.521 13.515 8.393 13.515 16.387v5.591c0 7.994-5.667 14.867-13.515 16.388" class="B"/><path d="M584.014 256.718v376.531m190.759-376.531v376.531M408.004 256.718v376.531" stroke-width="18" class="K"/><path d="M942.109 642.418h18.142V247.547h-18.142z" class="F"/><path d="M392.086 642.418h558.028V247.547H392.086v394.871zm17-17h524.028V264.547H409.086v360.871z" class="D"/><path d="M375.784 660.611h543.552v-18.194H375.784z" class="B"/><path d="M919.335 660.611h45.548v-18.194h-45.548z" class="F"/><g class="I L"><path d="M575.72 252.597V637.37m190.759-384.773V637.37"/><path d="M401.561 444.982h533.462"/></g><g class="B"><path d="M467.399 736.572c0-169.428-87.541-330.146-87.541-330.146h-29.944v330.146h117.485z"/><path d="M467.399 206.067c0 102.823-87.541 200.359-87.541 200.359h-29.944V206.067h117.485z"/></g><path d="M392.618 420.869l-53.619 2.327v-28.595l53.619 2.327z" class="M"/><g class="B"><path d="M876.387 736.572c0-169.428 84.07-330.146 84.07-330.146h28.758v330.146H876.387z"/><path d="M876.387 206.067c0 102.823 84.07 200.359 84.07 200.359h28.758V206.067H876.387z"/></g><path d="M947.31 420.869l50.107 2.327V394.6l-50.107 2.328z" class="M"/><g class="B"><path d="M300.569 221.073h733.646v-15.006H300.569zm401.477 394.569h0c-5.798 0-10.542-4.744-10.542-10.541v-93.777c0-5.797 4.744-10.541 10.542-10.541s10.541 4.744 10.541 10.541v93.777c0 5.797-4.743 10.541-10.541 10.541"/><path d="M674.947 552.481h24.115c3.12 0 5.674-2.553 5.674-5.673v-.284c0-3.12-2.554-5.672-5.674-5.672h-24.115a5.69 5.69 0 0 0-5.673 5.672v.284c0 3.12 2.553 5.673 5.673 5.673"/><path d="M676.158 552.481h-.001c-3.785 0-6.883-3.098-6.883-6.884v-19.878c0-3.786 3.098-6.884 6.883-6.884h.001c3.785 0 6.883 3.098 6.883 6.884v19.878c0 3.786-3.098 6.884-6.883 6.884m54.648 31.068h-22.614c-3.12 0-5.673-2.553-5.673-5.673v-3.42c0-3.12 2.553-5.673 5.673-5.673h22.614c3.12 0 5.673 2.553 5.673 5.673v3.42c0 3.12-2.553 5.673-5.673 5.673"/><path d="M729.409 583.549h.956c3.362 0 6.114-2.751 6.114-6.115v-22.018c0-3.363-2.752-6.115-6.114-6.115h-.956c-3.362 0-6.114 2.752-6.114 6.115v22.018c0 3.364 2.752 6.115 6.114 6.115"/></g><g class="F"><path d="M674.336 595.642h59.247l-6.255 46.679h-46.737zm128.546 14.862c-6.098 10.245-2.734 23.493 7.511 29.591a21.59 21.59 0 0 0 22.08-37.101c-10.245-6.098-23.493-2.735-29.591 7.51"/><path d="M810.138 592.545c2.424 7.111 10.185 10.9 10.185 10.9s3.831-7.739 1.408-14.85-10.185-10.901-10.185-10.901-3.831 7.74-1.408 14.851"/></g><path d="M318.139 213.57l-17.569 17.57-17.571-17.57 17.571-17.569zm733.646 1.815l-17.569 17.57-17.57-17.57 17.57-17.57z" class="B"/><path d="M1103 1072.923h388.308V236H1103z" class="D"/><path d="M1149.154 1072.923h308.923v-800h-308.923z" class="B"/><path d="M1189.769 763.149h227.692V313.538h-227.692zm0 273.466h227.692V896.82h-227.692zm0-165.512h227.692v-83.03h-227.692z" class="D"/><path d="M1171.098 640.039h41.748" stroke-width="9" class="K"/><path d="M1182.889 640.039c0 6.512-5.279 11.79-11.791 11.79s-11.791-5.278-11.791-11.79 5.279-11.791 11.791-11.791 11.791 5.279 11.791 11.791m0 41.548c0 6.512-5.279 11.791-11.791 11.791s-11.791-5.279-11.791-11.791 5.279-11.79 11.791-11.79 11.791 5.278 11.791 11.79m308.419 391.336h12.615V236h-12.615zm-354.77 0h12.616v-800h-12.616z" class="F"/><path d="M1916 1074.576h26.534v-86.202H1916zm221.017 0h26.534v-86.202h-26.534z" class="D"/><g class="F"><path d="M2010.112 1074.576h26.533v-86.202h-26.533zm221.016 0h26.534v-86.202h-26.534z"/><path d="M2009.959 1003.669h247.549V271.411h-247.549z"/></g><g class="D"><path d="M1916.499 1003.669h247.551V271.411h-247.551z"/><path d="M2084.966 221.618c0 21.04-11.115 39.5-27.787 49.793h-61.204c-16.673-10.293-27.788-28.753-27.788-49.793 0-9.791 2.409-19.009 6.655-27.104h103.47c4.245 8.095 6.654 17.313 6.654 27.104"/><use xlink:href="#J"/></g><g class="B"><use xlink:href="#J" x="-25.236"/><use xlink:href="#J" x="25.235"/></g><path d="M2218.748 271.398h-67.79V175h67.79a5.13 5.13 0 0 1 5.128 5.128v86.142a5.13 5.13 0 0 1-5.128 5.128" class="F"/><path d="M2173.197 213.314h28.441v-9.545h-28.441zM1938.659 979.54h203.326V768.779h-203.326z" class="B"/><path d="M1938.66 979.54h70.147V768.779h-70.147z" class="F"/><path d="M1938.659 742.624h203.326v-210.76h-203.326z" class="B"/><path d="M1938.66 742.624h70.147v-210.76h-70.147z" class="F"/><path d="M1938.659 505.708h203.326v-210.76h-203.326z" class="B"/><path d="M1938.66 505.708h70.147v-210.76h-70.147z" class="F"/><use xlink:href="#K" class="D"/><g class="B"><use xlink:href="#K" x="-20.124"/><use xlink:href="#K" x="20.124"/></g><path d="M2080.611 979.54h-53.021v-76.874h53.021a5.13 5.13 0 0 1 5.129 5.128v66.617a5.13 5.13 0 0 1-5.129 5.129" class="F"/><path d="M2036.208 921.476h40.915v-7.611h-40.915zm9.117 11.743h22.681v-7.611h-22.681z" class="B"/><g class="D"><use xlink:href="#L"/><path d="M2057.781 445.82c-2.952 24.777-24.042 44-49.618 44s-46.666-19.223-49.619-44h99.237z"/><use xlink:href="#L" y="-54.456"/><path d="M2057.781 391.363c-2.952 24.778-24.042 44.001-49.618 44.001s-46.666-19.223-49.619-44.001h99.237z"/></g><use xlink:href="#M" class="M"/><use xlink:href="#N" stroke="#ecf6ff" stroke-width="8"/><use xlink:href="#M" x="72" class="M"/><use xlink:href="#N" x="64.208" stroke="#ecf6ff" stroke-width="8"/><path d="M1763.002 992.1l-53.871 216.785h12.585l53.872-216.785z" class="B"/><g class="H K"><path d="M1826.581 1099.475l29.801-105.174"/><path d="M1803.262 994.301l77.65 104.881"/></g><path d="M1803.262 994.301l-111.358 103.709" class="C"/><path d="M1803.262 994.301l-111.358 103.709" class="H K"/><path d="M1849.817 991.97l53.095 216.915h12.403l-53.094-216.915z" class="B"/><path d="M1716.269 994.301l110.312 103.709" class="H K"/><g class="D"><path d="M1709.861 992.1l-53.871 216.785h12.585l53.871-216.785zm86.901 0l53.871 216.785h12.585L1809.347 992.1z"/><path d="M1638 967.941v1.66c0 13.85 11.229 25.069 25.07 25.069h196.369c30.29 0 53.601-27.809 49.42-58.969l-22.17-173.62c-1.919-14.38-13.75-25.08-27.729-25.08h-58.2c-13.97 0-25.8 10.7-27.73 25.08l-22.171 173.62c-.17 1.24-.289 2.479-.359 3.71l-.12-.02s-4.1 28.55-42.22 28.55H1638z"/></g><path d="M1848.063 966.951h-128.37c27.45-5.021 30.69-27.56 30.69-27.56l.119.02a47.49 47.49 0 0 1 .361-3.71l22.17-173.62c1.929-14.38 13.759-25.08 27.73-25.08h56.199c7.671 0 14.102 1.529 19.839 6.666l20.682 164.314c4.18 31.16-19.13 58.97-49.42 58.97" class="M"/><g transform="translate(811 346)"><g transform="translate(142.403 351)"><path d="M168.067 257.488l-13.015 120.636M66.271 257.488L53.256 378.124m96.317-336.899l18.01 199.853" stroke-width="23" class="N R"/><path d="M56.63 39.711c.032-6.351 5.173-11.474 11.482-11.442s11.4 5.206 11.368 11.558l-.994 199.346c-.032 6.351-5.173 11.474-11.482 11.442s-11.4-5.206-11.368-11.558l.994-199.346z" class="E G"/><mask id="R" class="C"><use xlink:href="#A"/></mask><use xlink:href="#A" class="S"/><g mask="url(#R)" class="E J"><path d="M0 0h218v514H0z"/></g><g fill="#000"><path d="M112.259 501.041c-.003-6.277-1.428-12.219-3.967-17.518l2.476-22.892 14.545-134.86c.715-6.63 6.627-11.42 13.224-10.7l50.907 5.57c6.587.72 11.346 6.67 10.631 13.3l-13.78 127.73c17.823 4.12 31.116 20.18 31.126 39.37v12.18H0l1.311-12.18h110.948z" opacity=".397"/><path d="M197.715 247.253c0 15.88-12.79 28.753-28.566 28.753s-28.567-12.873-28.567-28.753 12.79-28.753 28.567-28.753 28.566 12.873 28.566 28.753" opacity=".401"/><path d="M45.251 342.306c0 4.587-3.694 8.305-8.251 8.305s-8.252-3.718-8.252-8.305S32.442 334 37 334s8.251 3.719 8.251 8.306zm-2.916 27.084c0 4.587-3.694 8.306-8.251 8.306s-8.252-3.719-8.252-8.306 3.695-8.305 8.252-8.305 8.251 3.718 8.251 8.305z" opacity=".597"/><path d="M36.614 471.926c0 6.035-4.86 10.927-10.855 10.927s-10.856-4.892-10.856-10.927S19.763 461 25.759 461s10.855 4.892 10.855 10.926" opacity=".396"/></g></g><g transform="translate(120 217)"><path d="M199.838 113.627l44.832 96.811" class="L N R"/><path d="M112.201 135h34.77v-28h-34.77z" class="G"/><path d="M31.318 220.459l9.617-105.545" class="L N R"/><mask id="S" class="C"><use xlink:href="#B"/></mask><g class="E"><use xlink:href="#B" class="S"/><g mask="url(#S)" class="J"><path d="M-1-1h282v279H-1z"/></g></g><path d="M130.356 80.282h33.23c6.601 0 12-5.4 12-12V48.795c0-6.6-5.399-12-12-12h-33.23c-6.601 0-12 5.4-12 12v19.487c0 6.6 5.399 12 12 12" class="G"/><g fill="#000"><path d="M253.756 251.263l-11.19 9.989-2.327-2.849a75.94 75.94 0 0 1-4.831-7.065c-4.16-6.897-6.864-13.878-7.336-20.81-.635-9.321 2.951-17.608 11.136-23.581 8.193-5.978 16.733-6.493 24.041-1.785 5.211 3.356 9.226 8.923 12.53 16.09 1.668 3.619 3.049 7.44 4.174 11.253a87.05 87.05 0 0 1 1.005 3.693l.357 1.526-14.674 3.111c-.032-.152-.113-.507-.243-1.032a72.12 72.12 0 0 0-.831-3.053c-.934-3.165-2.075-6.323-3.409-9.218-2.218-4.812-4.708-8.263-7.031-9.759-1.932-1.245-3.75-1.135-7.077 1.292-3.89 2.839-5.308 6.114-5.013 10.444.283 4.155 2.179 9.047 5.216 14.084a61.06 61.06 0 0 0 3.873 5.664 50.21 50.21 0 0 0 1.246 1.558l.383.45zm-63.25-142.907c-1.025 4.055.637 8.473 4.391 10.774a9.82 9.82 0 0 0 13.5-3.241 9.82 9.82 0 0 0-3.241-13.5c-2.772-1.699-6.056-1.857-8.851-.714 4.417-6.397 7.01-14.137 7.01-22.455V40.668c0-12.318-5.687-23.373-14.565-30.668 9.04 2.004 16.625 9.015 18.844 18.595l17.398 75.089c3.074 13.271-5.269 26.645-18.54 29.72l-2.237.518c-12.64 2.929-25.374-4.501-29.214-16.681 5.841-1.761 11.126-4.838 15.506-8.884h0zM56.442 17.575C62.59 5.418 77.568.503 89.724 6.652l2.048 1.036c12.156 6.149 17.072 21.126 10.923 33.283l-34.79 68.779c-6.15 12.157-21.126 17.072-33.282 10.923l-2.049-1.036c-12.156-6.149-17.071-21.126-10.922-33.283l34.79-68.779zm-1.194 81.198a9.82 9.82 0 0 0-6.558-12.237 9.82 9.82 0 0 0-12.237 6.558 9.82 9.82 0 0 0 6.558 12.237 9.82 9.82 0 0 0 12.237-6.558zm32.647-64.542a9.82 9.82 0 0 0-6.558-12.237 9.82 9.82 0 0 0-12.237 6.558 9.82 9.82 0 0 0 6.558 12.237 9.82 9.82 0 0 0 12.237-6.558zm-71.85 224.571l-14.974.885c-.01-.171-.022-.439-.034-.797-.189-5.921.345-13.004 2.261-19.999 4.07-14.854 13.461-24.471 28.853-23.864 8.668.342 15.137 3.959 18.596 10.392 2.694 5.011 3.238 11.03 2.29 17.844-.591 4.245-1.75 8.655-3.308 13.107-.79 2.256-1.634 4.382-2.481 6.326-.518 1.189-.933 2.075-1.193 2.599l-13.435-6.671c.027-.054.099-.204.211-.442l.666-1.478c.706-1.62 1.414-3.405 2.074-5.29 1.255-3.585 2.171-7.07 2.609-10.219 1.123-8.066-.42-10.936-6.62-11.181-7.196-.284-11.371 3.991-13.795 12.839-.817 2.981-1.33 6.242-1.582 9.581-.175 2.321-.205 4.375-.154 5.975l.015.391z" opacity=".399" class="E"/><path d="M55.217 98.751a9.82 9.82 0 0 1-12.237 6.558 9.82 9.82 0 0 1-6.558-12.237 9.82 9.82 0 0 1 12.237-6.558 9.82 9.82 0 0 1 6.558 12.237zm32.646-64.542a9.82 9.82 0 0 1-12.237 6.558 9.82 9.82 0 0 1-6.558-12.237 9.82 9.82 0 0 1 12.237-6.558 9.82 9.82 0 0 1 6.558 12.237zm120.525 81.739a9.82 9.82 0 0 1-13.5 3.241 9.82 9.82 0 0 1-3.24-13.5 9.82 9.82 0 0 1 13.499-3.241 9.82 9.82 0 0 1 3.241 13.5z" opacity=".602"/></g></g><g transform="translate(156 56)"><path d="M160.971 97.128V27.282" class="H N"/><path d="M167.256 126.774h-28.88V83.727h28.88c11.838 0 21.523 9.685 21.523 21.523s-9.685 21.524-21.523 21.524" class="G"/><g transform="translate(22)"><mask id="T" class="C"><use xlink:href="#C"/></mask><use xlink:href="#C" class="S"/><g mask="url(#T)" class="E J"><path d="M-1 0h156v173H-1z"/></g></g><g fill="#000"><path opacity=".404" d="M76.622 13.778L61.811 25.116l-8.175-6.199-.385-7.908 8.561 6.551L76.623 6.222 91.432 17.56l14.813-11.338 14.809 11.338 14.818-11.338 9.481 7.555 1.577 8.384-11.058-8.384-14.82 11.338-14.809-11.338-14.813 11.338z" class="E"/><path d="M144.852 173.282H53.396a7.35 7.35 0 0 1-7.349-7.349 7.35 7.35 0 0 1 7.349-7.349h91.456a7.35 7.35 0 0 1 7.349 7.349 7.35 7.35 0 0 1-7.349 7.349" opacity=".396"/></g><g class="G"><path d="M21.524 126.774h28.879V83.727H21.524C9.686 83.727 0 93.412 0 105.25s9.686 21.524 21.524 21.524m139.447-21.524c0 16.46-10.66 29.804-23.809 29.804s-23.808-13.344-23.808-29.804 10.659-29.804 23.808-29.804 23.809 13.344 23.809 29.804"/><path d="M125.974 135.054h11.188V75.446h-11.188z"/></g><path d="M149.783 105.25c0 16.46-10.659 29.804-23.809 29.804s-23.808-13.344-23.808-29.804 10.659-29.804 23.808-29.804 23.809 13.344 23.809 29.804" class="C"/><path d="M138.162 103.25c0 5.794-3.752 10.492-8.381 10.492s-8.381-4.698-8.381-10.492 3.752-10.492 8.381-10.492 8.381 4.698 8.381 10.492" class="G"/><path d="M38.355 97.128V30.5" class="H N"/></g></g><g transform="matrix(-1 0 0 1 1939 441)"><g transform="translate(76 106)"><path d="M173.232 70.239c1.174 28.282 16.136 45.23 17.533 71.625 1.798 33.949-17.67 30.361-16.195 58.22.765 14.438-127.854 49.291-164.102 3.892-23.26-29.132-.189-32.764-2.281-72.288C6.115 92.563 34.282 86.69 33.19 66.063 31.737 38.614 53.788 2.041 89.787.128c43.846-2.329 81.67 27.365 83.445 70.111" class="G"/><path d="M107.685 136.644s-12.892 1.067-18.556-1.648l18.321 10.191.235-8.543z" fill="#cf3e83"/><g transform="translate(55.902 45.17)"><mask id="U" class="C"><use xlink:href="#D"/></mask><use fill="#72a065" xlink:href="#D"/><g mask="url(#U)" class="E T"><path d="M.098 4.83h98v119h-98z"/></g></g><path fill="#125475" d="M133.434 91.286l8.34 17.523-8.582.283z"/><g fill="#0d0b6d"><use xlink:href="#O"/><use xlink:href="#O" x="22.624" y="-1.773"/></g><path d="M130.197 47.534a35.28 35.28 0 0 0 2.854 12.122l.673 1.414c1.541 3.13 3.524 6.001 5.866 8.531 6.316 6.812 15.269 11.172 25.17 11.616a26.24 26.24 0 0 0 1.51.025l-.712-13.057h-.01a49.29 49.29 0 0 0-.057-1.214c-.878-16.115-7.377-30.618-17.544-41.777-1.89-2.078-3.913-4.032-6.047-5.863-4.408 3.99-7.796 9.023-9.78 14.681-1.487 4.219-2.181 8.785-1.923 13.522" class="G"/><path d="M131.543 117.784s-5.49 2.099-11.418-3.828" stroke="#1c295e" class="O"/><path d="M74.722 92.67s24.142 7.58 60.555-47.555-82.008-3.969-82.008-3.969L77.93 67.671 74.722 92.67z" class="G"/><path d="M107.664 136.645s-12.892 1.066-18.556-1.648l18.321 10.191.235-8.543z" fill="#000" opacity=".397"/><path d="M58.78 150.976s9.404-3.344 15.485-2.912l2.438-7.408-26.307.853c.156.043 8.384 9.467 8.384 9.467" fill="#240040"/><path d="M79.443 114.957s20.296 46.376-59.407 58.313" class="G"/></g><g transform="translate(34 243)"><path d="M220.944 249.968s-38.833-62.061-40.771-77.453c-2.053-16.31-.211-37.369-.211-37.369l26.223-15.611 6.635 38.819 28.297 88.812" class="J"/><g transform="translate(0 235)"><mask id="V" class="C"><use xlink:href="#E"/></mask><use xlink:href="#E" class="J"/><g mask="url(#V)" class="E T"><path d="M-2 0h259v71H-2z"/></g></g><path d="M230.398 254.048s2.84 10.729 12.587 14.072c3.409 1.169 2.557 14.968 10.911 13.318" stroke="#000" opacity=".152" class="O"/><path d="M12.699 237.981s-1.229-84.508 4.486-98.425 16.058-32.575 16.058-32.575L63.92 126.25l-16.454 25.032-11.341 85.376" class="J"/><g transform="translate(10)"><mask id="W" class="C"><use xlink:href="#F"/></mask><use fill="#c83820" xlink:href="#F"/><g mask="url(#W)" fill="#1e9dbc" class="E"><path d="M-2 0h234v246H-2z"/></g></g><path d="M178.914 169.635c3.208-40.743 25.413-49.358 9.413-95.05m-88.154 18L80.686 122.11" opacity=".196" stroke="#000" class="O"/></g><g transform="translate(94 402)"><g transform="translate(128 313.028)"><mask id="X" class="C"><use xlink:href="#G"/></mask><use fill="#0d0b6d" xlink:href="#G"/><g mask="url(#X)" fill="#2f2f3d" class="E"><path d="M-7 2.972h270v105H-7z"/></g></g><g transform="translate(112.348 41.089)"><mask id="Y" class="C"><use xlink:href="#H"/></mask><use xlink:href="#H" class="J"/><g mask="url(#Y)" class="E T"><path d="M15.652 13.911h253v326h-253z"/></g></g><path d="M220.198 151.166s23.136-61.185 19.854-81.287-25.928-24.616-25.928-24.616" stroke="#000" opacity=".203" class="O"/><mask id="Z" class="C"><use xlink:href="#I"/></mask><use fill="#2b2a38" xlink:href="#I"/><g mask="url(#Z)" fill="#2f2f3d" class="E"><path d="M0 0h257v129H0z"/></g></g></g><use xlink:href="#P" class="D"/><use xlink:href="#P" class="I P"/><use xlink:href="#Q" class="C"/><use xlink:href="#Q" class="I P"/><path d="M1648.726 361.983h125.847v-97.526h-125.847zm-28.96 143.247h76.118V416.5h-76.118z" class="D"/><path d="M1619.766 505.23h76.118V416.5h-76.118z" class="I P"/><path d="M1614.5 505.23h77.535V416.5H1614.5z" class="C"/><path d="M1614.5 505.23h77.535V416.5H1614.5z" class="I P"/><path d="M1632.852 482.141h37.258v-42.714h-37.258z" class="B"/></g></svg>