<svg xmlns="http://www.w3.org/2000/svg" xmlns:xlink="http://www.w3.org/1999/xlink" width="1902" height="1477" xmlns:v="https://vecta.io/nano"><style><![CDATA[.B{fill:#fff}.C{fill-rule:nonzero}.D{stroke:#19141e}.E{fill:#000}.F{fill:#19141e}.G{stroke-linecap:round}.H{fill:#cce3ff}.I{fill:#6ca1ff}.J{stroke-width:5}.K{fill:#ecf6ff}.L{fill:#dceeff}.M{stroke-linejoin:bevel}]]></style><defs><path d="M51.947 198.999l.135-.001c10.567 0 19.132 10.98 19.132 24.524s-8.564 24.522-19.131 24.523l-10.521.001v-.01c-10.325-.354-18.609-11.194-18.609-24.514s8.285-24.161 18.609-24.515v-.008h.387l.135-.001.135.001h9.729zm89.582 0l.135-.001c10.566 0 19.132 10.98 19.132 24.524s-8.566 24.523-19.131 24.523l-10.521.001v-.01c-10.324-.355-18.609-11.194-18.609-24.514s8.285-24.16 18.609-24.515v-.008h.388l.135-.001.135.001h9.728zM53.02 28.115c-7.711 0-14.018-6.325-14.018-14.057S45.31 0 53.02 0h63.162c7.71 0 14.018 6.326 14.018 14.057s-6.309 14.057-14.018 14.057H53.02zm26.308 464.63H0l12.533-32.187 66.794 32.187zm114.733 0h-79.328l12.533-32.187 66.794 32.187z" id="A"/><path d="M343.626 83.372v48.103c0 21.83-17.861 39.692-39.692 39.692H117.421c-21.831 0-39.692-17.862-39.692-39.692V79.639C56.571 78.687 39.71 61.233 39.71 39.84 39.71 17.837 57.547 0 79.55 0c7.671 0 14.835 2.168 20.914 5.924a39.33 39.33 0 0 1 16.957-3.828h186.513a39.34 39.34 0 0 1 18.637 4.678 40.43 40.43 0 0 1 2.583-.833c21.155-6.05 43.209 6.196 49.257 27.351s-6.196 43.209-27.351 49.258c-1.143.327-2.289.6-3.435.822h0zm41.416 320.592c5.422 6.752 8.524 15.417 8.156 24.749-.53 13.457-8.137 24.96-19.094 31.068-4.326 2.412-9.528-.903-9.322-5.852l.005-.106c.654-16.606-7.958-30.426-19.239-30.871-5.879-.232-11.324 3.212-15.28 8.911-3.469 4.999-11.257 2.712-11.453-3.369a38.07 38.07 0 0 1 .088-4.072c.682-9.083 4.677-17.245 10.731-23.335-13.396-9.445-22.211-25.012-22.271-42.556l-.362-107.904c-.096-28.74 23.34-52.333 52.079-52.43s52.334 23.339 52.43 52.079l.362 107.904c.066 19.59-10.802 36.789-26.831 45.785h0zm-343.503 1.136c-18.233-7.073-31.82-24.149-33.365-44.859L.146 252.635c-2.139-28.661 19.562-53.86 48.222-55.998s53.859 19.561 55.998 48.222l8.028 107.605c1.343 17.994-6.711 34.624-19.984 45.039 9.182 6.519 15.34 17.082 15.764 28.996a38 38 0 0 1-.073 4.072c-.436 6.069-8.306 8.047-11.576 2.916-3.729-5.851-9.034-9.507-14.917-9.507-11.289 0-20.44 13.47-20.44 30.09v.106c.012 4.953-5.317 8.061-9.546 5.48-10.707-6.535-17.854-18.329-17.854-31.796a37.04 37.04 0 0 1 7.772-22.761h0zm134.969-192.799v-23h68.339v23h-68.339z" id="B"/><path d="M149.268 106.502a10.67 10.67 0 0 1 9.898 10.64v4.795H16.92v-4.795a10.67 10.67 0 0 1 9.897-10.64v-1.899c0-6.492 4.743-11.93 10.935-13.019v-78.3C37.753 5.977 43.731 0 51.036 0h74.015c7.306 0 13.283 5.977 13.283 13.283v78.3c6.192 1.09 10.935 6.527 10.935 13.019v1.899zm22.58-56.255c0 7.127-5.777 12.905-12.904 12.905a12.91 12.91 0 0 1-12.905-12.905c0-7.127 5.778-12.904 12.905-12.904s12.904 5.777 12.904 12.904zM0 50.247c0-7.127 5.778-12.904 12.905-12.904S25.81 43.12 25.81 50.247a12.91 12.91 0 0 1-12.905 12.905A12.91 12.91 0 0 1 0 50.247z" id="C"/><path d="M70.555 115.845l-.856-29.362s35.906 2.841 43.588-1.124c0 0 8.28-43.248-2.036-75.715L35.479.836l-5.391 43.296c-2.552-7.481-22.475-16.054-27.982-5.341-11.932 23.213 30.735 38.844 30.735 38.844l-4.333 38.563" id="D"/><path d="M331.651 94.749l6.952 22.417s54.287-22.284 82.212-13.829l-94.101 54.532-24.498-61.564 29.435-1.555zM75.723 28.243L45.282 56.166s4.522 18.579 6.428 36.102c2.76 25.366 1.064 48.265 1.064 48.265L0 48.386 65.148 0l10.575 28.243z" id="E"/><path d="M276.774 101.185l29.101-2.622 5.728 18.629-24.086 10.05-10.743-26.056zM37.702 0l3.347 35.385-22.768 20.807L.206 28.385 37.702 0z" id="F"/><path d="M250.732 100.369l81.181 363.041-22.36 5.706h-.01l-26.03 6.652-.13.03-9.01 2.3-77.771-246.92c-8.86 14.429-18.84 28.689-30.071 42.56C86.742 372.284 37.922 414.406 37.922 414.406l-7.26-10.944-.02-.03-17.45-26.299-12.62-19.02s109.26-103.146 158.42-248.245l-16.17-54.869c-8.81-36.795-8.99-53.654-8.99-54.999h94.46 37.88c-1.38 23.979-5.19 59.639-15.44 100.368z" id="G"/><path d="M211.219 7.466C213.783 1.638 227.252 0 227.252 0s21.495 23.922 23.419 27.574 5.481 21.738 5.312 25.311-11.255 19.628-11.255 19.628c-6.878-1.628-2.386-9.921-2.386-9.921s-6.161 5.037-8.722 4.953c-24.121-.795-22.829-12.602-22.258-14.08 1.281-3.32 7.719.476 7.719.476s-15.195-29.803-7.862-46.475zM36.156 12.273l4.373 8.301s2.231 3.823 4.567 10.496 1.364 10.757 6.417 21.238c5.735 11.898-4.524 6.992-8.201 1.798-2.871-4.053-2.545-9.533-6.267-11.988-1.247 1.989-4.097 4.835-5.687 22.002-.285 3.079 1.11 13.066 1.11 13.066.031 2.992.414 9.233-2.992 10.185-.844.237-1.943-.696-1.943-.696s.33 3.904-3.152 4.681c-1.369.305-4.087-8.125-4.087-8.125s-.414 4.281-3.014 4.757c-.735.135-9.413-24.293-9.413-24.293l.522 5.516 1.151 5.651s-.092 3.042-2.535 3.581c-.97.213-2.832-4.86-4.577-10.829C-.286 58.328-.231 51.35.567 44.409c.965-8.387.535-11.204 4.269-21.488 1.54-4.243 4.898-10.656 6.676-13.39l24.644 2.743z" id="H"/><path d="M95.386 19.679L101.112 0l28.6 1.77 9.91 16.175 9.91-14.952 7.13.437 2.398 18.74 3.682 1.573 4.57 2.167.08.04c20.24 10.209 23.13 20.638 29.51 33.751 8.18 16.78 16.65 68.327 16.65 68.327l35.5 88.975-43.52 24.078-10.7-20.598.27-27.498h-63.51l-7.04-.01h-62.44l-.93-33.86-11.33 67.919-49.74 2.335s-.98-70.732 8.49-111.651c6.03-26.065 35.49-74.5 63.39-91.152 4.46-2.663 10.38-4.533 16.99-5.825 2.076-.411 4.219-.763 6.403-1.062zm37.392 180.339a4.09 4.09 0 0 1-4.102 4.078c-2.266 0-4.103-1.825-4.103-4.078s1.837-4.079 4.103-4.079 4.102 1.826 4.102 4.079zm45.128.227c0 2.253-1.836 4.078-4.103 4.078s-4.102-1.825-4.102-4.078 1.837-4.079 4.102-4.079 4.103 1.825 4.103 4.079z" id="I"/><path d="M.624 24.656L8.367 0l13.041 15.461L.624 24.656zm26.158-9.436L39.253 1.978l4.217 22.98-16.688-9.739z" id="J"/><path id="K" d="M29.457 223.574c0 7.928 4.283 14.356 9.565 14.356s9.565-6.428 9.565-14.356-4.282-14.357-9.565-14.357-9.565 6.428-9.565 14.357"/><path id="L" d="M79.333 34.321c-5.63 4.634-6.437 12.955-1.803 18.585s12.955 6.437 18.585 1.803 6.437-12.955 1.803-18.585-12.955-6.437-18.585-1.803"/><path id="M" d="M86.389 39.974c-2.586 2.129-2.957 5.951-.828 8.538s5.951 2.957 8.537.828 2.958-5.951.829-8.538a6.07 6.07 0 0 0-8.538-.828"/><path id="N" d="M80.132 113.277c.499 2.737-1.331 5.357-4.085 5.852s-5.391-1.323-5.89-4.059 1.331-5.357 4.085-5.853 5.392 1.323 5.89 4.06"/><path id="O" d="M79.268 133.708s3.505 5.647 10.446 5.169"/></defs><g transform="translate(-300 -63)" fill="none" fill-rule="evenodd"><g transform="matrix(-1 0 0 1 1735 633)"><g transform="translate(172.208 411.914)"><path d="M119.679 22.422l18.01 199.107m.001 17.985L130.201 468.4M48.096 20.972l-.994 198.601m0 8.496L20.38 474.837" stroke-width="16" class="D G"/><mask id="P" class="B"><use xlink:href="#A"/></mask><g class="I"><use xlink:href="#A"/><g mask="url(#P)" class="C"><path d="M0-.996h194v508H0z"/></g></g><g class="E"><path d="M130.876 247.894c-10.324-.355-18.609-11.194-18.609-24.514s8.285-24.16 18.609-24.515v-.008h.388l.135-.001.135.001h9.728l.135-.001c10.566 0 19.132 10.98 19.132 24.524s-8.566 24.523-19.131 24.523h-10.521v-.01zm-12.024-24.514c0 7.928 4.283 14.356 9.565 14.356s9.565-6.428 9.565-14.356-4.282-14.357-9.565-14.357-9.565 6.428-9.565 14.357zM41.46 247.993c-10.325-.354-18.609-11.194-18.609-24.514s8.285-24.161 18.609-24.515v-.008h.387.135.135 9.729.135c10.567 0 19.132 10.98 19.132 24.524s-8.564 24.522-19.131 24.523l-10.521.001v-.01h0zm-12.024-24.514c0 7.928 4.283 14.356 9.565 14.356s9.565-6.428 9.565-14.356-4.282-14.357-9.565-14.357-9.565 6.428-9.565 14.357z" opacity=".403"/><use xlink:href="#K" opacity=".603"/><use xlink:href="#K" x="89.466" y="-0.2" opacity=".604"/><path opacity=".396" d="M79.328 492.962H0l12.533-32.187zm114.733 0h-79.328l12.533-32.187z"/></g></g><g transform="translate(49 202)"><path d="M354.801 211.479L331.531 40.87" stroke-width="27" class="D G"/><path d="M138.122 190.423h145.11l22.128-23.821H115.994z" class="F"/><path d="M51.821 205.807L76.352 35.374" stroke-width="27" class="D G"/><g transform="translate(0 .999)"><mask id="Q" class="B"><use xlink:href="#B"/></mask><g class="I"><use xlink:href="#B"/><g mask="url(#Q)" class="C"><path d="M-3 .001h412v462H-3z"/></g></g></g><path d="M108.173 427.499a38 38 0 0 1-.073 4.072c-.436 6.069-8.306 8.047-11.576 2.916-3.729-5.851-9.034-9.507-14.917-9.507-11.289 0-20.44 13.47-20.44 30.09v.106c.012 4.953-5.317 8.061-9.546 5.48-10.707-6.535-17.854-18.329-17.854-31.796 0-20.93 17.283-37.825 38.366-37.192 19.424.583 35.35 16.411 36.04 35.831zM290.83 84.72c0 25.5-18.561 46.66-42.91 50.72l-1.04-.19C223.04 130.79 205 109.86 205 84.72s18.04-46.07 41.88-50.53a36.54 36.54 0 0 1 1.04-.19c24.349 4.06 42.91 25.22 42.91 50.72zm-81.441.069c0 16.452 13.336 29.788 29.788 29.788s29.788-13.336 29.788-29.788S255.629 55 239.177 55s-29.788 13.337-29.788 29.789zM39.5 40.84C39.5 18.837 57.337 1 79.34 1s39.84 17.837 39.84 39.84-17.837 39.84-39.84 39.84S39.5 62.843 39.5 40.84zm9.612-7.385A19.33 19.33 0 0 0 68.44 52.782a19.33 19.33 0 0 0 19.327-19.327A19.33 19.33 0 0 0 68.44 14.128a19.33 19.33 0 0 0-19.327 19.327zM322.5 7.879a40.43 40.43 0 0 1 2.583-.833c21.155-6.05 43.209 6.196 49.257 27.351s-6.196 43.209-27.351 49.258c-1.143.327-2.289.6-3.435.822V42.893c0-15.107-8.552-28.312-21.055-35.014zm62.541 396.889c5.422 6.752 8.524 15.417 8.156 24.749-.53 13.457-8.137 24.96-19.094 31.068-4.326 2.412-9.528-.903-9.322-5.852l.005-.106c.654-16.606-7.958-30.426-19.239-30.871-5.879-.232-11.324 3.212-15.28 8.911-3.469 4.999-11.257 2.712-11.453-3.369a38.07 38.07 0 0 1 .088-4.072c.682-9.083 4.677-17.245 10.731-23.335-13.396-9.445-22.211-25.012-22.271-42.556l-.362-107.904c-.096-28.74 23.34-52.333 52.079-52.43s52.334 23.339 52.43 52.079l.362 107.904c.066 19.59-10.802 36.789-26.831 45.785h0zM177.709 125.975c0-5.65 4.581-10.231 10.231-10.231s10.231 4.581 10.231 10.231-4.58 10.231-10.231 10.231-10.231-4.581-10.231-10.231zm-29.57 0c0-5.65 4.581-10.231 10.23-10.231s10.232 4.581 10.232 10.231-4.581 10.231-10.232 10.231-10.23-4.581-10.23-10.231zM13.335 261.628c-.437-5.634 3.776-10.554 9.41-10.991s10.555 3.777 10.991 9.41-3.777 10.554-9.41 10.991-10.554-3.777-10.991-9.41zm2.187 28.223c-.437-5.634 3.776-10.554 9.409-10.991s10.555 3.777 10.991 9.41-3.776 10.554-9.41 10.991-10.553-3.777-10.99-9.41zm2.239 28.906c-.437-5.633 3.776-10.554 9.41-10.991s10.554 3.777 10.99 9.41-3.776 10.555-9.409 10.991-10.554-3.776-10.991-9.41zM176 213v-23h69v23h-69z" opacity=".395" class="E"/><path d="M247.68 135.506c24.349-4.06 42.91-25.22 42.91-50.72s-18.561-46.66-42.91-50.72a51.64 51.64 0 0 1 8.49-.7c28.399 0 51.42 23.02 51.42 51.42s-23.021 51.42-51.42 51.42a51.64 51.64 0 0 1-8.49-.7h0z" class="F"/></g><g transform="translate(167 82)"><g class="G J"><path d="M150.671 51.246h-30.465" class="D"/><path d="M57.676 9.699c-5.792 0-10.532 4.739-10.532 10.532" stroke="#fff"/><path d="M12.524 51.246h37.471" class="D"/></g><g transform="translate(0 1)"><mask id="R" class="B"><use xlink:href="#C"/></mask><g class="I"><use xlink:href="#C"/><g mask="url(#R)" class="C"><path d="M0 .001h172v122H0z"/></g></g></g><path d="M26.817 107.501v-3.294c.579-5.974 5.948-11.823 13.218-11.823h96.015c7.27 0 12.413 5.399 13.218 11.392v3.725a10.67 10.67 0 0 1 9.898 10.64v4.795H16.92v-4.795a10.67 10.67 0 0 1 9.897-10.64h0zm145.031-56.255c0 7.127-5.777 12.905-12.904 12.905a12.91 12.91 0 0 1-12.905-12.905c0-7.127 5.778-12.904 12.905-12.904s12.904 5.777 12.904 12.904zM0 51.246c0-7.127 5.778-12.904 12.905-12.904S25.81 44.119 25.81 51.246a12.91 12.91 0 0 1-12.905 12.905A12.91 12.91 0 0 1 0 51.246z" opacity=".396" class="E"/><g class="D"><path d="M27.66 107.818h121.309" class="J"/><path d="M58.457 72.292h79.876" stroke-width="7"/></g><use xlink:href="#L" class="B"/><use xlink:href="#M" class="F"/><use xlink:href="#L" x="34.731" class="B"/><use xlink:href="#M" x="34.73" class="F"/></g></g><g transform="translate(450 593)"><g transform="translate(283 76)"><g transform="translate(0 69)"><mask id="S" class="B"><use xlink:href="#D"/></mask><use fill="#5e93d1" xlink:href="#D"/><g mask="url(#S)" fill="#a47ef1" class="C"><path d="M0-2h116v118H0z"/></g></g><path opacity=".399" d="M69.699 155.483l-24.212-5.159 24.096 16.175z" class="E"/><path fill="#2437a8" d="M89.671 107.5l8.367 20.326-10.028.127z"/><g fill="#0d0b6d"><use xlink:href="#N"/><use xlink:href="#N" x="26.315"/></g><use xlink:href="#O" class="B"/><use xlink:href="#O" stroke="#252535" stroke-width="4"/><path d="M15.767 103.879C12.402 91.445.225 45.551 1.66 37.716 3.32 28.636 9.681 17.49 42.367 5.798c27.693-9.905 43.314-2.733 48.047 3.37 7.2 9.287 20.838 69.475 20.838 69.475s-11.284 7.979-51.3 6.603c0 0 5.54 23.938-17.168 22.562 0 0 2.433 8.061-8.556 10.597-6.029-9.317-14.031-13.082-18.46-14.528z" class="F"/></g><g transform="translate(109 429.242)"><g transform="translate(0 359.56)"><mask id="T" class="B"><use xlink:href="#E"/></mask><use fill="#0d0b6d" xlink:href="#E"/><g mask="url(#T)" fill="#5e93d1" class="C"><path d="M-12 25.819h433v132H-12z"/></g></g><g transform="translate(27 359.533)"><mask id="U" class="B"><use xlink:href="#F"/></mask><g fill="#cf3e83"><use xlink:href="#F"/><g mask="url(#U)" class="C"><path d="M-4 9.912h345v117H-4z"/></g></g></g><g transform="translate(27 .956)"><mask id="V" class="B"><use xlink:href="#G"/></mask><use fill="#101016" xlink:href="#G"/><g mask="url(#V)" class="C F"><path d="M-9 .04h341v478H-9z"/></g></g><path d="M358.912 464.366l-22.36 5.706h-.01l-26.03 6.652-.13.03-9.01 2.3-77.771-246.921-37.609-121.31-16.17-54.869c-8.81-36.795-8.99-53.654-8.99-54.999h94.46l22.439 100.368 81.181 363.042z" fill-opacity=".1" class="B"/></g><g transform="translate(206 242.818)"><g transform="translate(0 208.596)"><mask id="W" class="B"><use xlink:href="#H"/></mask><use fill="#e576c6" xlink:href="#H"/><g mask="url(#W)" fill="#a47ef1" class="C"><path d="M-6 14.09h262v78H-6z"/></g></g><path d="M224.007 230.134s3.384 12.36 15.001 16.212c4.062 1.347 3.047 17.244 13.003 15.343" stroke="#000" stroke-width="3" opacity=".148"/><mask id="X" class="B"><use xlink:href="#I"/></mask><g fill="#fcbda4"><use xlink:href="#I"/><g mask="url(#X)" class="C"><path d="M-9 0h258v242H-9z"/></g></g><g stroke="#000" class="J"><path opacity=".197" d="M61.398 166.767l9.155-47.519 22.641-38.134"/><path d="M193.103 193.18l4.325-69.24" opacity=".196"/></g><g transform="translate(115 5.768)"><mask id="Y" class="B"><use xlink:href="#J"/></mask><g fill="#ea847a"><use xlink:href="#J"/><g mask="url(#Y)" class="C"><path d="M-1 .197h45v25H-1z"/></g></g></g><g class="E"><path d="M44.778 219.077a3.99 3.99 0 1 1-8 0 3.99 3.99 0 1 1 8 0" opacity=".198"/><path d="M242.009 213.877c0 2.197-1.791 3.977-4 3.977s-4-1.78-4-3.977a3.99 3.99 0 1 1 8 0" opacity=".199"/></g><g stroke="#000" stroke-width="4"><path d="M.089 207.912l53.13-2.344" opacity=".203"/><path d="M195.103 221.422l45.739-25.005" opacity=".199"/></g><g class="E"><path d="M131.593 192.985l-7.04-.01c-.41-84.77-14.38-141.326-35.57-172.234v-.01l7.14-1.65c.11.149.22.298.32.457 21.64 30.222 35.96 86.49 35.15 173.447" opacity=".198"/><path d="M179.053 192.985h-7.17c10.06-81.539 3.7-137.956-12.84-170.822-.03-.08-.07-.149-.11-.229l3.81 1.809 4.57 2.167.08.04c17.28 32.041 23.11 83.716 11.66 167.035" opacity=".197"/></g></g></g><path fill="#d7ebff" d="M1866.369 1131.774h16V419.911h-16z"/><path d="M1701.973 438.028l-126.62-41.974c-5.289-1.753-8.183-7.516-6.429-12.805l6.316-19.054c1.754-5.289 7.516-8.182 12.805-6.429l126.62 41.974c5.289 1.753 8.183 7.516 6.429 12.805l-6.316 19.054c-1.753 5.289-7.516 8.182-12.805 6.429" class="K"/><g class="H"><path d="M1843.704 1395.7h61.33v-235.927h-61.33z"/><path d="M1856.703 1203.772h35.332v-80.725h-35.332zm2.965-766.844h29.404V402.7h-29.404z"/></g><path d="M1659.046 381.644s215.323 47.609 215.323 163.326" stroke="#dceeff" stroke-width="15" class="M"/><path d="M1716.112 425.155l-138.809-46.015c-12.422-4.117-19.216-17.651-15.099-30.073l1.247-3.762c4.118-12.422 17.651-19.217 30.074-15.099l138.809 46.014c12.422 4.118 19.216 17.651 15.098 30.074l-1.247 3.762c-4.118 12.422-17.651 19.217-30.073 15.099" class="H"/><g transform="matrix(-1 0 0 1 645 330)"><path fill="#d7ebff" d="M305.369 803.774h16V91.911h-16z"/><path d="M140.973 110.028L14.353 68.054c-5.289-1.753-8.183-7.516-6.429-12.805l6.316-19.054c1.754-5.289 7.516-8.182 12.805-6.429l126.62 41.974c5.289 1.753 8.183 7.516 6.429 12.805l-6.316 19.054c-1.753 5.289-7.516 8.182-12.805 6.429" class="K"/><g class="H"><path d="M282.704 1067.7h61.33V831.773h-61.33z"/><path d="M295.703 875.772h35.332v-80.725h-35.332zm2.965-766.844h29.404V74.7h-29.404z"/></g><path d="M98.046 53.644s215.323 47.609 215.323 163.326" stroke="#dceeff" stroke-width="15" class="M"/><path d="M155.112 97.155L16.302 51.14C3.881 47.023-2.913 33.489 1.204 21.067l1.247-3.762C6.569 4.883 20.102-1.912 32.525 2.206L171.334 48.22c12.422 4.118 19.216 17.651 15.098 30.074l-1.247 3.762c-4.118 12.422-17.651 19.217-30.073 15.099" class="H"/></g><path d="M1679.174 287.806H1090s38.286-147.327 117.717-147.327c49.919 0 69.992 52.089 116.351 52.089s105.26-129.569 181.097-129.569c118.624 0 174.009 224.807 174.009 224.807m-735.09 39.978H592s33.169-48.375 60.438-49.132c32.544-.903 47.198 34.883 78.45 34.883 31.259 0 52.187-87.534 110.044-87.534 61.763 0 103.152 101.783 103.152 101.783" class="K"/><path d="M2194.246 1130.752l-18.603 269.465h-163.367l-18.601-269.465c-.587-8.439 6.101-15.605 14.558-15.605h171.454c8.457 0 15.146 7.166 14.559 15.605" class="L"/><path d="M2093.961 1175.919v181.725m57.95-181.725l-12.636 181.725m-103.264-181.725l12.636 181.725" stroke="#b6d4ff" stroke-width="16" class="G"/><path d="M2201.227 1132.088h-215.228v-11.427c0-10.33 8.374-18.704 18.705-18.704h177.819c10.33 0 18.704 8.374 18.704 18.704v11.427z" class="L"/><path d="M1993.638 1138.71h200.644" stroke="#cce3ff" stroke-width="14"/><g class="L"><path d="M2054.37 1105.915h8.693v-19.301h-8.693zm67.416-1.805h8.693v-19.301h-8.693z"/><path d="M2054.37 1089.692h76.109V1079h-76.109z"/></g></g></svg>