<svg xmlns="http://www.w3.org/2000/svg" xmlns:xlink="http://www.w3.org/1999/xlink" width="1590" height="999" xmlns:v="https://vecta.io/nano"><style><![CDATA[.B{fill:#cce3ff}.C{fill:#dceeff}.D{fill:#b6d4ff}.E{fill:#fff}.F{fill-rule:nonzero}.G{stroke:#cce3ff}.H{fill:#19141e}.I{stroke-width:11}.J{fill:#e6f4ff}.K{fill:#ecf6ff}.L{fill:#5e93d1}.M{fill:#e576c6}.N{fill:#6ca1ff}.O{fill:#a47ef1}.P{stroke:#19141e}.Q{stroke-linecap:round}]]></style><defs><path d="M215.391 107.69a107.62 107.62 0 0 1-2.301 22.21c-10.229 48.82-53.529 65.48-105.399 65.48C48.22 195.38 0 167.17 0 107.69S48.22 0 107.691 0c40.889 0 76.46 22.78 94.7 56.35 8.289 15.26 13 32.75 13 51.34" id="A"/><path d="M45.835.595C58.429 11.428 77.068 21.501 98.948 28.35c-1.393 14.825-6.019 40.376-19.971 49.657-6.591 4.383-18.594 4.923-28.819 4.333l-2.345 29.043L17.42 99.48s7.586-35.298 3.524-41.785C15.489 48.956.894 46.14.877 34.063c-.006-3.577 2.085-9.77 9.806-9.782 10.364-.015 8.887 12.401 8.887 12.401C29.104 40.391 38.822 14.987 45.835.595z" id="B"/><path d="M237.082 77.318c-.66-6.468-.919-14.206 1.137-16.977 3.771-5.086 22.416-20.461 22.416-20.461l.994 12.83 4.414-15.063s4.888 1.449 9.619 3.924c4.221 2.209 8.226 5.391 9.976 6.634 2.507 1.782-4.781 29.2-9.976 34.134-3.567 3.386-14.084 6.012-20.326 7.326-11.921 19.251-43.691 67.351-61.242 63.382-18.234-4.122-35.151-67.86-35.151-67.86l30.755-14.982 13.391 41.273 33.994-34.161h0zM28.095 217l7.486 19.144s1.137 4.929 1.773 10.753.878 9.368 4.735 18.108c2.688 6.09-6.011 4.271-8.477.869-2.543-3.509-3.83-17.892-8.017-15.046s-5.449 17.322-4.512 30.992c.147 2.147-1.344 3.9-2.41 4.518-1.729 1.001-4.252-7.459-4.252-7.459s-.908 2.972-3.661 1.731c-.975-.439-3.879-6.195-3.879-6.195s-2.249-2.836-3.431-6.003c-2.088-5.591-3.792-15.969-3.39-19.019.949-7.187 3.085-19.317 5.892-26.037-1.657-17.267-8.011-86.592-4.506-99.761 4.011-15.068 11.871-35.488 11.871-35.488l30.16 17.739-12.93 27.603L28.095 217h0zM132.336 1.776s8.054 5.692 14.07 15.87c8.233 13.924 3.929 25.937-8.738 25.957-13.561.023-29.125-4.593-35.686-25.133C98.663 8.08 95.528 0 95.528 0l36.808 1.776z" id="C"/><path d="M32.88 27.776c-3.841-2.505-8.533-5.192-10.406-4.755-2.286.533 1.956 6.578 4.987 10.49-4.898 1.965-11.39 4.908-12.427 7.058-.718 1.489 2.088 1.976 5.565 2.042-3.2 1.534-5.992 3.193-6.641 4.54-.832 1.725 3.063 2.105 7.253 2.044-3.7 1.688-7.166 3.607-7.9 5.128-1.239 2.569 8.01 2.155 13.097 1.743l-1.313 5.74c-.371 1.625-1.851 2.753-3.517 2.68l-18.102-.791C1.321 63.6-.221 61.576.26 59.474L13.086 3.416c.372-1.625 1.851-2.752 3.516-2.68l18.103.791c2.154.095 3.695 2.119 3.215 4.22l-5.04 22.029z" id="D"/><path d="M102.63 1.128L90.499.543s3.135 8.08 6.454 18.47c6.561 20.54 22.125 25.156 35.686 25.133 12.667-.02 16.971-12.033 8.738-25.957-5.299-8.965-12.179-14.449-13.744-15.629 15.995 1.081 25.954 3.09 35.178 11.74 17.561 16.471 31.781 46.835 37.628 76.833l-32.091 14.321-11.43 44.167-83.985-1.28s.735-8.09-1.076-19.78c-2.359-15.29-10.875-26.7-10.875-26.7l-8.447 12.84L0 83.731C17.199 52.368 41.189 20.03 57.184 9.74 68.484 2.467 78.83.642 88.939.543c4.597-.045 9.213.268 13.691.585z" id="E"/><path d="M31.326 1.567L55.661.347l2.601 30.719H.242C12.942 6.089 31.326 1.567 31.326 1.567zm139.195-.077s45.802 12.007 63.02 29.864l-82.427.148L153.357.963l17.165.527z" id="F"/><path d="M39.158 305.02c-4.979 5.219-14.578 12.776-28.6 13.054-12.764.253 10.566-15.76 14.62-18.481L.943 29.501 64.62 0 44.873 306.068l-5.715-1.048h0zm129.348-2.287l32.83 14.248c-20.119 2.203-40.323-6.207-50.745-11.522h-6.504L84.193 39.612l54.77-2.557L151.3 162.689c7.352 73.114 15.322 127.536 17.206 140.044z" id="G"/><path d="M57.3 0S40.327 8.116 25.558 52.166C5.791 111.124 0 289.705 0 289.705h190.332L141.283 1.28 57.3 0z" id="H"/><path d="M128.641 89.219v10.616c0 8.366-6.763 15.147-15.105 15.147H64.78c-8.341 0-15.104-6.782-15.104-15.147V87.672h-4.968v53.592c6.06-3.749 12.509-5.771 19.199-5.771h.199 51.796.199c6.771 0 13.297 2.071 19.421 5.909V89.219h-6.881 0zm0-17.933h15.822c4.938 0 8.942 4.014 8.942 8.966v78.865c16.112 22.82 26.602 60.034 26.602 102.068 0 69.419-28.611 125.694-63.906 125.694-.849 0-1.694-.033-2.534-.097H66.441c-.841.064-1.686.097-2.534.097C28.612 386.88 0 330.605 0 261.186c0-42.107 10.527-79.377 26.686-102.187v102.187a8.97 8.97 0 0 0 6.246 8.552c2.116 29.924 15.178 52.96 30.974 52.96 17.273 0 31.275-27.54 31.275-61.512s-14.001-61.511-31.275-61.511c-7.236 0-13.899 4.834-19.198 12.95v39.227h19.337c4.938 0 8.942 4.014 8.942 8.966s-4.003 8.966-8.942 8.966H35.766c-4.938 0-8.942-4.014-8.942-8.966V78.705c0-4.952 4.003-8.966 8.942-8.966h13.909V15.147C49.675 6.782 56.438 0 64.78 0h48.756c8.342 0 15.105 6.782 15.105 15.147v56.139z" id="I"/><path d="M343.626 83.372v48.103c0 21.83-17.861 39.692-39.692 39.692H117.421c-21.831 0-39.692-17.862-39.692-39.692V79.639C56.571 78.687 39.71 61.233 39.71 39.84 39.71 17.837 57.547 0 79.55 0c7.671 0 14.835 2.168 20.914 5.924a39.33 39.33 0 0 1 16.957-3.828h186.513a39.34 39.34 0 0 1 18.637 4.678 40.43 40.43 0 0 1 2.583-.833c21.155-6.05 43.209 6.196 49.257 27.351s-6.196 43.209-27.351 49.258c-1.143.327-2.289.6-3.435.822h0zm41.416 320.592c5.422 6.752 8.524 15.417 8.156 24.749-.53 13.457-8.137 24.96-19.094 31.068-4.326 2.412-9.528-.903-9.322-5.852l.005-.106c.654-16.606-7.958-30.426-19.239-30.871-5.879-.232-11.324 3.212-15.28 8.911-3.469 4.999-11.257 2.712-11.453-3.369a38.07 38.07 0 0 1 .088-4.072c.682-9.083 4.677-17.245 10.731-23.335-13.396-9.445-22.211-25.012-22.271-42.556l-.362-107.904c-.096-28.74 23.34-52.333 52.079-52.43s52.334 23.339 52.43 52.079l.362 107.904c.066 19.59-10.802 36.789-26.831 45.785h0zm-343.503 1.136c-18.233-7.073-31.82-24.149-33.365-44.859L.146 252.635c-2.139-28.661 19.562-53.86 48.222-55.998s53.859 19.561 55.998 48.222l8.028 107.605c1.343 17.994-6.711 34.624-19.984 45.039 9.182 6.519 15.34 17.082 15.764 28.996a38 38 0 0 1-.073 4.072c-.436 6.069-8.306 8.047-11.576 2.916-3.729-5.851-9.034-9.507-14.917-9.507-11.289 0-20.44 13.47-20.44 30.09v.106c.012 4.953-5.317 8.061-9.546 5.48-10.707-6.535-17.854-18.329-17.854-31.796a37.04 37.04 0 0 1 7.772-22.761h0zm134.969-192.799v-23h68.339v23h-68.339z" id="J"/><path d="M73.753 96.45H20.875C9.394 96.45 0 87.056 0 75.575V61.502c0-11.481 9.394-20.875 20.875-20.875h133.336c11.481 0 20.875 9.394 20.875 20.875v14.073c0 11.481-9.394 20.875-20.875 20.875h-50.099v41.876H73.753V96.45zm7.861-85.912a10.54 10.54 0 0 1-10.538 10.539 10.54 10.54 0 0 1-10.539-10.539A10.54 10.54 0 0 1 71.076 0a10.54 10.54 0 0 1 10.538 10.538z" id="K"/><path id="L" d="M1526.01 1055.077h21.323v-47.283h-21.323z"/><path id="M" d="M64.341 66.29c0 4.061 3.292 7.353 7.353 7.353s7.353-3.292 7.353-7.353-3.292-7.353-7.353-7.353-7.353 3.292-7.353 7.353"/></defs><g transform="translate(-313 -194)" fill="none" fill-rule="evenodd"><path d="M1284.55 581.935s3.956-20.604 17.469-19.284c28.191 2.756-6.338 93.334 51.672 99.151s64.033-84.92 64.033-84.92" stroke-width="7" class="G"/><path d="M1286.635 521.62v529.699m131.089-474.437l-346.17-149.217" stroke="#dceeff" stroke-width="15"/><path d="M1219.968 1051.319h133.334v-6.564c0-8.489-6.882-15.371-15.371-15.371h-102.593c-8.488 0-15.37 6.882-15.37 15.371v6.564z" class="C"/><g class="D"><path d="M999 503.777l113.442 24.697 3.668-31.697-107.269-23.353zm50.709-47.486l33.821 7.363 9.656-44.348a16.44 16.44 0 0 0-12.564-19.556l-1.703-.371a16.44 16.44 0 0 0-19.556 12.564l-9.654 44.348z"/><path d="M1116.111 496.777l-33.654-44.133-24.66-5.369-48.956 26.149z"/></g><g class="C"><path d="M1758.196 347.247h-17.689c-15.266 0-27.641-12.375-27.641-27.641v-46.498c0-4.597 3.726-8.323 8.323-8.323h56.324c4.598 0 8.325 3.726 8.325 8.323v46.498c0 15.266-12.375 27.641-27.642 27.641"/><path d="M1730.433 306.015h37.837v-74.511h-37.837z"/></g><path d="M1548.354 299.551h0c0 6.904 5.597 12.5 12.501 12.5h112.469v-25h-112.469c-6.904 0-12.501 5.596-12.501 12.5" class="B"/><path d="M1624 299.551h0a7.24 7.24 0 0 0 7.236 7.237h41.786c.167 0 .302-.135.302-.301v-13.872c0-.166-.135-.301-.302-.301h-41.786a7.24 7.24 0 0 0-7.236 7.237" class="C"/><path d="M1532.657 312.052v25.001h122.759c6.904 0 12.501-5.597 12.501-12.501s-5.597-12.5-12.501-12.5h-122.759z" class="B"/><path d="M1532.657 317.385v14.334h50.474a7.17 7.17 0 0 0 7.167-7.167 7.17 7.17 0 0 0-7.167-7.167h-50.474zm47.162-45.576l7.984-77.809h24.967l7.985 77.809c.836 8.154-5.562 15.242-13.758 15.242h-13.42c-8.196 0-14.595-7.088-13.758-15.242" class="C"/><g class="J"><path d="M1374.875 1007.794h370.353V348.225h-370.353z"/><path d="M1374.876 1055.077h21.324V348.225h-21.324z"/></g><g class="D"><path d="M1396.2 1055.077h21.323v-47.283H1396.2z"/><use xlink:href="#L"/><use xlink:href="#L" x="219.219"/></g><use xlink:href="#L" x="306.382" fill="#c5e0fc"/><path d="M1723.905 1055.077h21.323V348.225h-21.323z" class="J"/><path d="M1853.715 1055.73h21.323v-47.936h-21.323z" class="D"/><use xlink:href="#L" x="-21.323" fill="#c5e0fc"/><path d="M1396.199 978.52h149.72V851.95h-149.72zm177.99.001h149.72v-126.57h-149.72zm-177.99-154.84h149.72v-126.56h-149.72zm177.99 0h149.72v-126.56h-149.72zM1396.2 668.849h327.705V542.285H1396.2z" class="B"/><path d="M1396.2 668.849h101.379V542.285H1396.2z" class="D"/><path d="M1396.2 514.015h327.705V387.451H1396.2z" class="B"/><path d="M1396.2 514.015h101.379V387.451H1396.2zm349.028 493.779h129.81V348.225h-129.81z" class="D"/><path d="M1740.979 357.685h-374.287c-10.876 0-19.692-8.817-19.692-19.692v-1.185h393.979v20.877z" class="J"/><path d="M1883 357.685h-142.021v-20.877h161.713v1.185c0 10.875-8.816 19.692-19.692 19.692" class="D"/><path d="M1374.875 366.818h370.353v-9.133h-370.353z" class="B"/><path d="M1469.624 514.015h20.124v-76.874h-20.124z" class="C"/><path d="M1449.5 514.015h20.124v-76.874H1449.5zm40.248 0h20.124v-76.874h-20.124z" class="B"/><path d="M1562.892 514.015h-53.021v-76.874h53.021a5.13 5.13 0 0 1 5.129 5.128v66.618a5.13 5.13 0 0 1-5.129 5.128" class="D"/><path d="M1518.489 455.952h40.915v-7.611h-40.915zm9.117 11.743h22.681v-7.611h-22.681z" class="B"/><path d="M1687.416 624.731v1.638a13.62 13.62 0 0 1-13.614 13.614h-117.955v-28.866h117.955c7.518 0 13.614 6.095 13.614 13.614" class="D"/><path d="M1607.775 625.075v.948c0 4.353-3.528 7.882-7.882 7.882h-43.883c-.09 0-.164-.073-.164-.164v-16.384c0-.091.074-.164.164-.164h43.883c4.354 0 7.882 3.529 7.882 7.882" class="C"/><path d="M1703.942 639.983v28.866h-128.789c-7.519 0-13.614-6.095-13.614-13.614v-1.638c0-7.518 6.095-13.614 13.614-13.614h128.789z" class="D"/><path d="M1703.942 646.141v16.551h-52.88a7.81 7.81 0 0 1-7.806-7.807v-.938a7.81 7.81 0 0 1 7.806-7.806h52.88z" class="C"/><path d="M1507.699 861.951h-73.28c-5.524 0-10.001-4.478-10.001-10.001h93.282c0 5.523-4.478 10.001-10.001 10.001m177.99 0h-73.281c-5.523 0-10-4.478-10-10.001h93.282c0 5.523-4.478 10.001-10.001 10.001m0-154.83h-73.281c-5.523 0-10-4.478-10-10h93.282c0 5.522-4.478 10-10.001 10m-177.99 0h-73.28c-5.524 0-10.001-4.478-10.001-10h93.282c0 5.522-4.478 10-10.001 10" class="D"/><g transform="matrix(-1 0 0 1 1212 706)"><path d="M368.063 150.154h-69.129V10.722c0-5.922 4.801-10.721 10.723-10.721h47.683c5.922 0 10.723 4.799 10.723 10.721v139.432z" class="B"/><g class="C"><path d="M458.183 132.112a28.06 28.06 0 0 1-6.53 18.04h-43.35a28.06 28.06 0 0 1-6.53-18.04c0-15.58 12.63-28.21 28.21-28.21 15.57 0 28.2 12.63 28.2 28.21"/><path d="M420.235 112.112h19.486V95.496h-19.486z"/><path d="M415.105 95.496h29.744v-8.615h-29.744z"/></g><path d="M418.484 150.154h-41.629l20.815-32.549zm-119.55-18.275h69.129V50.214h-69.129zm10.052 12.746h23.718v-5.539h-23.718zM298.934 16.701h69.129v-1.87h-69.129z" class="D"/><path d="M515.18 303.693v47.749" class="B"/><path d="M515.18 303.693v47.749" class="G I"/><path d="M439.487 303.693v47.749" class="B"/><path d="M439.487 303.693v47.749" class="G I"/><path d="M109.642 303.693v47.749" class="B"/><path d="M109.642 303.693v47.749" class="G I"/><path d="M33.949 303.693v47.749" class="B"/><path d="M33.949 303.693v47.749" class="G I"/><path d="M0 303.693h406.154V150.154H0z" class="C"/><path d="M23.384 286.578H192.82V167.193H23.384zm189.948 0h169.437V167.193H213.332z" class="B"/><path d="M406.155 303.693h142.358V150.154H406.155z" class="D"/><path d="M100.312 112.652v.001c0 6.903 5.597 12.5 12.501 12.5h112.469v-25.001H112.813c-6.904 0-12.501 5.597-12.501 12.5" class="B"/><path d="M175.958 112.652v.001a7.24 7.24 0 0 0 7.236 7.236h41.787a.3.3 0 0 0 .301-.3v-13.873a.3.3 0 0 0-.301-.3h-41.787a7.24 7.24 0 0 0-7.236 7.236" class="C"/><path d="M84.615 125.153v25.001h122.759c6.904 0 12.501-5.597 12.501-12.5s-5.597-12.501-12.501-12.501H84.615z" class="B"/><path d="M84.615 130.486v14.335h50.474a7.17 7.17 0 0 0 7.168-7.167 7.17 7.17 0 0 0-7.168-7.168H84.615z" class="C"/><path d="M142.847 167.193h0c0 9.12-7.393 16.513-16.513 16.513H89.871c-9.119 0-16.512-7.393-16.512-16.513h69.488zm189.949 0h0c0 9.12-7.394 16.513-16.514 16.513H279.82c-9.12 0-16.513-7.393-16.513-16.513h69.489z" class="D"/></g><g transform="matrix(-1 0 0 1 631 432)"><g stroke-width="18" class="G"><path d="M42.769 624.206l50.308-624m202.657 624l-50.308-624"/><path d="M60.19 26.683h212.39M45.769 163.298h241.23M34.385 326.991h264M15 474.683h302.769"/></g><path d="M212.276 274.76h-69.782c-3.162 0-5.725-2.563-5.725-5.724V159.305c0-3.161 2.563-5.724 5.725-5.724h69.782c3.161 0 5.724 2.563 5.724 5.724v109.731c0 3.161-2.563 5.724-5.724 5.724M165.66 427.38H95.879c-3.162 0-5.725-2.563-5.725-5.725V322.54c0-3.161 2.563-5.724 5.725-5.724h69.781c3.162 0 5.725 2.563 5.725 5.724v99.115c0 3.162-2.563 5.725-5.725 5.725" class="B"/><g stroke="#dceeff"><path d="M24.769 624.206l50.308-624m202.657 624l-50.308-624" stroke-width="30"/><path d="M45.19 26.683h212.39M30.769 163.298h241.23M19.385 326.991h264M0 474.683h302.769" stroke-width="18"/></g><path d="M153.231 393.731H84.307c-3.398 0-6.153-2.755-6.153-6.154v-64.606c0-3.399 2.755-6.155 6.153-6.155h75.077v70.761c0 3.399-2.755 6.154-6.153 6.154" class="K"/><path d="M78.154 380.611h81.23v-20.365h-81.23z" class="C"/><path d="M165.383 316.821a6 6 0 0 0-6 6v-6h6zm34.463-78.942h-68.923c-3.399 0-6.154-2.755-6.154-6.154v-71.991c0-3.399 2.755-6.154 6.154-6.154h75.076v78.145c0 3.399-2.755 6.154-6.153 6.154" class="K"/><path d="M124.77 223.501H206v-9.33h-81.23zm0-18.441H206v-9.33h-81.23z" class="C"/><path d="M211.998 153.586c-3.31 0-6 2.937-6 6.576v-6.576h6z" class="K"/></g><g transform="translate(490 249)"><g transform="translate(131 26)"><g transform="translate(1)"><mask id="N" class="E"><use xlink:href="#A"/></mask><use fill="#eacb47" xlink:href="#A"/><g mask="url(#N)" fill="#405fd3" class="F"><path d="M.001 0h215v215h-215z"/></g></g><path d="M127.158 179.34s-12.931.382-18.442-2.629l17.755 11.148.687-8.519z" fill="#cf3e83"/><g transform="translate(77 97)"><mask id="O" class="E"><use xlink:href="#B"/></mask><use xlink:href="#B" class="L"/><g mask="url(#O)" class="F M"><path d="M-2-27H99v143H-2z"/></g></g><path fill="#2437a8" d="M155.267 133.659l7.4 17.94-8.585-.172z"/><path d="M147.389 134.437c-.185 3.584-2.292 6.376-4.708 6.237s-4.225-3.157-4.041-6.741 2.293-6.377 4.708-6.238 4.226 3.158 4.041 6.742m22.686-.572c-.185 3.584-2.292 6.376-4.708 6.237s-4.225-3.157-4.04-6.741 2.292-6.377 4.708-6.237 4.225 3.157 4.04 6.741" fill="#1d1d23"/><path d="M151.976 160.02s-5.594 1.805-11.199-4.427" stroke="#24242b" stroke-width="3"/><path d="M127.137 179.34s-12.931.382-18.442-2.628l17.755 11.147.687-8.519z" fill="#000" opacity=".399"/></g><g transform="translate(126 220)"><g transform="translate(.95 .543)"><mask id="P" class="E"><use xlink:href="#C"/></mask><g class="M"><use xlink:href="#C"/><g mask="url(#P)" class="F"><path d="M.05.457h285v286H.05z"/></g></g></g><path d="M277.19 42.502c-2.777-1.592-5.421-2.784-6.716-2.482-2.266.529 1.882 6.473 4.907 10.386l-.034.149c-4.884 1.965-11.284 4.879-12.313 7.012-.718 1.489 2.088 1.976 5.565 2.042-3.2 1.534-5.992 3.193-6.641 4.54-.832 1.725 3.063 2.105 7.253 2.044-3.7 1.688-7.166 3.607-7.9 5.128-.935 1.94 4.11 2.179 8.827 2.002l-1.213 5.299c-.371 1.625-1.851 2.753-3.517 2.68l-18.102-.792c-2.154-.094-3.696-2.117-3.215-4.219l12.826-56.058c.372-1.625 1.851-2.753 3.516-2.68l18.103.791c2.154.095 3.695 2.118 3.215 4.22l-4.562 19.937h0z" fill="#020101"/><g transform="translate(248 17)"><mask id="Q" class="E"><use xlink:href="#D"/></mask><g class="L"><use xlink:href="#D"/><g mask="url(#Q)" class="F"><path d="M0-1h38v68H0z"/></g></g></g><path d="M265.754 25.163c-.422 1.837-1.505 3.142-2.42 2.913s-1.314-1.904-.893-3.741 1.506-3.142 2.42-2.913 1.315 1.904.893 3.741m-2.117 9.507c-.422 1.837-1.505 3.142-2.42 2.913s-1.314-1.904-.893-3.741 1.505-3.142 2.42-2.913 1.315 1.904.893 3.741" fill="#020101"/><g transform="translate(5.979)"><mask id="R" class="E"><use xlink:href="#E"/></mask><use xlink:href="#E" class="L"/><g mask="url(#R)" fill="#f6b852" class="F"><path d="M.021-3h200v153h-200z"/></g></g><g stroke="#000" stroke-width="3"><path d="M163.272 150.389c3.208-40.743 24.413-50.358 8.413-96.051" opacity=".203"/><path d="M133.286 2.319s8.054 5.692 14.07 15.87c8.233 13.924 3.929 25.937-8.738 25.957-13.561.023-29.125-4.593-35.686-25.133C99.613 8.623 96.478.543 96.478.543" opacity=".202"/><path d="M88.531 73.338l-19.487 29.525" opacity=".203"/></g></g><g transform="translate(149 367)"><g transform="translate(23 545)"><mask id="S" class="E"><use xlink:href="#F"/></mask><g fill="#0d0b6d"><use xlink:href="#F"/><g mask="url(#S)" class="F"><path d="M-5-2h239v34H-5z"/></g></g></g><g transform="translate(33 244.553)"><mask id="T" class="E"><use xlink:href="#G"/></mask><g class="M"><use xlink:href="#G"/><g mask="url(#T)" class="F"><path d="M-10 45.447h211v273H-10z"/></g></g></g><mask id="U" class="E"><use xlink:href="#H"/></mask><use fill="#2f2f3d" xlink:href="#H"/><g mask="url(#U)" fill="#ea847a" class="F"><path d="M0 0h190v295H0z"/></g></g></g><g transform="matrix(-1 0 0 1 1693 394)"><g transform="translate(168.234 411.914)"><mask id="V" class="E"><use xlink:href="#I"/></mask><g class="F"><use xlink:href="#I" class="N"/><g mask="url(#V)" class="O"><path d="M0-8.966h180v401H0z"/></g></g><path d="M33.09 269.377a8.93 8.93 0 0 0 2.676.409h28.278c4.938 0 8.942-4.014 8.942-8.966s-4.003-8.966-8.942-8.966H44.708v-39.412c5.324-8.259 12.045-13.187 19.352-13.187 17.273 0 31.275 27.539 31.275 61.511s-14.001 61.512-31.275 61.512c-15.785 0-28.84-23.005-30.969-52.899h0zM49.412 57.933h78.966v-27.12H49.412z" class="H"/><path d="M136.121 141.481l-.814-.543V89.664h-7.144V71.732h16.086c4.938 0 8.942 4.014 8.942 8.966l.216 77.625-1.49-1.906c-.379-.522-.749-1.037-1.09-1.405l-.258-.281c17.971 22.246 29.912 61.607 29.912 106.455 0 69.419-28.611 125.694-63.906 125.694-.849 0-1.694-.033-2.534-.097H66.913c34.119-2.617 61.372-57.848 61.372-125.597 0-69.288-28.504-125.481-63.707-125.693h51.796.199c6.818 0 13.386 2.1 19.547 5.988h0zm10.456 8.697l1.425 1.539c-.42-.489-.869-.986-1.425-1.539h0zM44.708 251.853h19.337c4.938 0 8.942 4.014 8.942 8.966s-4.003 8.966-8.942 8.966H35.767c-4.938 0-8.942-4.014-8.942-8.966V78.705c0-4.952 4.003-8.966 8.942-8.966h28.278c4.938 0 8.942 4.014 8.942 8.966s-4.003 8.966-8.942 8.966H44.708v164.181z" fill="#000" opacity=".396"/></g><g transform="translate(49 202)"><path d="M354.801 211.479L331.531 40.87" stroke-width="27" class="P Q"/><path d="M138.122 190.423h145.11l22.128-23.821H115.994z" class="H"/><path d="M51.821 205.807L76.352 35.374" stroke-width="27" class="P Q"/><g transform="translate(0 .999)"><mask id="W" class="E"><use xlink:href="#J"/></mask><use xlink:href="#J" class="N"/><g mask="url(#W)" class="F O"><path d="M-3 .001h412v462H-3z"/></g></g><path d="M108.173 427.499a38 38 0 0 1-.073 4.072c-.436 6.069-8.306 8.047-11.576 2.916-3.729-5.851-9.034-9.507-14.917-9.507-11.289 0-20.44 13.47-20.44 30.09v.106c.012 4.953-5.317 8.061-9.546 5.48-10.707-6.535-17.854-18.329-17.854-31.796 0-20.93 17.283-37.825 38.366-37.192 19.424.583 35.35 16.411 36.04 35.831zM290.83 84.72c0 25.5-18.561 46.66-42.91 50.72l-1.04-.19C223.04 130.79 205 109.86 205 84.72s18.04-46.07 41.88-50.53a36.54 36.54 0 0 1 1.04-.19c24.349 4.06 42.91 25.22 42.91 50.72zm-81.441.069c0 16.452 13.336 29.788 29.788 29.788s29.788-13.336 29.788-29.788S255.629 55 239.177 55s-29.788 13.337-29.788 29.789zM39.5 40.84C39.5 18.837 57.337 1 79.34 1s39.84 17.837 39.84 39.84-17.837 39.84-39.84 39.84S39.5 62.843 39.5 40.84zm9.612-7.385A19.33 19.33 0 0 0 68.44 52.782a19.33 19.33 0 0 0 19.327-19.327A19.33 19.33 0 0 0 68.44 14.128a19.33 19.33 0 0 0-19.327 19.327zM322.5 7.879a40.43 40.43 0 0 1 2.583-.833c21.155-6.05 43.209 6.196 49.257 27.351s-6.196 43.209-27.351 49.258c-1.143.327-2.289.6-3.435.822V42.893c0-15.107-8.552-28.312-21.055-35.014zm62.541 396.889c5.422 6.752 8.524 15.417 8.156 24.749-.53 13.457-8.137 24.96-19.094 31.068-4.326 2.412-9.528-.903-9.322-5.852l.005-.106c.654-16.606-7.958-30.426-19.239-30.871-5.879-.232-11.324 3.212-15.28 8.911-3.469 4.999-11.257 2.712-11.453-3.369a38.07 38.07 0 0 1 .088-4.072c.682-9.083 4.677-17.245 10.731-23.335-13.396-9.445-22.211-25.012-22.271-42.556l-.362-107.904c-.096-28.74 23.34-52.333 52.079-52.43s52.334 23.339 52.43 52.079l.362 107.904c.066 19.59-10.802 36.789-26.831 45.785h0zM177.709 125.975c0-5.65 4.581-10.231 10.231-10.231s10.231 4.581 10.231 10.231-4.58 10.231-10.231 10.231-10.231-4.581-10.231-10.231zm-29.57 0c0-5.65 4.581-10.231 10.23-10.231s10.232 4.581 10.232 10.231-4.581 10.231-10.232 10.231-10.23-4.581-10.23-10.231zM13.335 261.628c-.437-5.634 3.776-10.554 9.41-10.991s10.555 3.777 10.991 9.41-3.777 10.554-9.41 10.991-10.554-3.777-10.991-9.41zm2.187 28.223c-.437-5.634 3.776-10.554 9.409-10.991s10.555 3.777 10.991 9.41-3.776 10.554-9.41 10.991-10.553-3.777-10.99-9.41zm2.239 28.906c-.437-5.633 3.776-10.554 9.41-10.991s10.554 3.777 10.99 9.41-3.776 10.555-9.409 10.991-10.554-3.776-10.991-9.41zM176 213v-23h69v23h-69z" fill="#000" opacity=".395"/><path d="M247.68 135.506c24.349-4.06 42.91-25.22 42.91-50.72s-18.561-46.66-42.91-50.72a51.64 51.64 0 0 1 8.49-.7c28.399 0 51.42 23.02 51.42 51.42s-23.021 51.42-51.42 51.42a51.64 51.64 0 0 1-8.49-.7h0z" class="H"/></g><g transform="translate(159 67)"><path d="M72.728 12.423s17.462 11.549 19.383 31.53" stroke-width="5" class="P Q"/><mask id="X" class="E"><use xlink:href="#K"/></mask><use xlink:href="#K" class="N"/><g mask="url(#X)" class="F O"><path d="M21 0h154v141H21z"/></g><g fill="#000"><path d="M73.753 138.326h30.359v-42H73.753z" opacity=".399"/><path opacity=".4" d="M73.753 124.742l30.359-10V96.158H73.753z"/></g><path d="M20.875 96.45h0C9.394 96.45 0 87.056 0 75.575V61.502c0-11.481 9.394-20.875 20.875-20.875S41.75 50.021 41.75 61.502v14.073c0 11.481-9.394 20.875-20.875 20.875" class="H"/><path d="M53.615 68.539A16.01 16.01 0 0 0 69.62 84.544a16.01 16.01 0 0 0 16.006-16.005A16.01 16.01 0 0 0 69.62 52.533a16.01 16.01 0 0 0-16.005 16.006" class="E"/><use xlink:href="#M" class="H"/><path d="M131.665 68.539a16.01 16.01 0 0 0 16.006 16.005 16.01 16.01 0 0 0 16.006-16.005 16.01 16.01 0 0 0-16.006-16.006 16.01 16.01 0 0 0-16.006 16.006" class="E"/><g class="H"><use xlink:href="#M" x="78.05"/><path d="M104.988 57.568l14.316 10.863-14.316 11.078"/></g></g></g></g></svg>