<svg xmlns="http://www.w3.org/2000/svg" xmlns:xlink="http://www.w3.org/1999/xlink" width="1543" height="1000" xmlns:v="https://vecta.io/nano"><style><![CDATA[.B{fill:#cce3ff}.C{fill:#dceeff}.D{fill:#b6d4ff}.E{fill:#fff}.F{fill:#ecf6ff}.G{fill-rule:nonzero}.H{stroke-width:5}.I{fill:#e6f4ff}.J{stroke:#dceeff}.K{fill:#202128}.L{stroke:#202128}.M{stroke-width:20}.N{fill:#3d3e44}.O{fill:#c5e0fc}.P{stroke-width:7}.Q{fill:#5e93d1}]]></style><defs><path d="M174.95 16.323l-.275 25.133s52.989 8.875 70.953 30.391H140.057L144.479 0l30.471 16.323zM44.317 10.567l-.291 29.893s23.636 3.283 33.256 31.148H.764l7.652-32.801 2.994-29.9 32.907 1.66z" id="A"/><path d="M136.797 6.331l30.471 9.737-.275 25.133-32.652-1.561 2.455-33.309zM4.366 0l32.269 10.312-.291 29.893-35.61-1.653L4.366 0z" id="B"/><path d="M188.905 77.63l-20.64 198.26H112.76l9.394-198.26H53.983C24.169 77.63 0 53.855 0 24.527V.926h79.683 184.061c38.594 0 68.458 33.578 63.684 71.604l-26.664 203.36H244.31l2.599-198.26h-58.004z" id="C"/><path d="M72.134 118.03l-.843-29.227s36.298 2.828 43.874-1.119c0 0 5.758-35.514.283-60.695L85.643 0 37.542 3.552l-5.459 43.662c-2.517-7.447-25.43-16.781-30.93-.077-7.093 21.541 33.788 32.86 33.788 32.86l-4.272 38.385" id="D"/><path d="M285.217 65.731c-11.036 21.67-49.778 92.806-77.398 81.46-20.679-8.496-45.435-78.929-45.435-78.929l40.241-23.949 18.082 48.402 36.921-40.111c-1.254-7.948-2.258-18.338.241-22.001 4.255-6.234 25.783-25.442 25.783-25.442l3.92 32.544.685-2.743c-.001-.153.036-.318.114-.497l.023-.052 1.585-6.351c-.665-.336-.938-.814-.65-1.477.233-.538.743-1.127 1.454-1.746l5.411-21.682 4.379 1.973c4.187-.863 19.351 9.445 19.581 9.602l.003.002c3.088 1.994-4.256 34.955-10.221 41.078-4.244 4.356-17.449 8.112-24.719 9.917h0zM38.686 212.706l2.465 4.679s2.231 3.823 4.567 10.497 1.365 10.756 6.417 21.237c5.735 11.898-4.523 6.992-8.201 1.798-2.871-4.054-2.545-9.533-6.267-11.988-1.247 1.99-4.097 4.835-5.687 22.002-.285 3.079 1.111 13.066 1.111 13.066.03 2.992.414 9.233-2.993 10.185-.844.237-1.943-.697-1.943-.697s.33 3.905-3.151 4.682c-1.369.305-4.088-8.126-4.088-8.126s-.414 4.282-3.014 4.758c-.735.134-9.413-24.294-9.413-24.294l.522 5.517 1.152 5.651s-.093 3.042-2.536 3.58c-.97.214-2.832-4.859-4.577-10.828C.336 255.139.391 248.16 1.19 241.22c.964-8.387.535-11.204 4.268-21.488.446-1.23 1.046-2.642 1.715-4.094-2.048-17.681-7.82-69.434-7.113-85.323.857-19.271 21.275-62.052 21.275-62.052l41.453 23.174-22.848 41.63-1.254 79.639h0zm99.172-191.7c-24.01-1.412-34.14-16.334-36.45-20.37 15.234-1.052 16.826-.898 37.118 1.204 8.23.853 14.002 2.604 19.592 4.135 1.21 4.106 2.93 16.383-20.26 15.031z" id="E"/><path d="M189.245 43.714l.144-.028 16.354 37.597-23.342 13.604-4.873 82.087H44.538l-2.23-80.952L.258 64.578s19.83-39.765 53.76-55.592c10.97-5.12 21.03-7.536 30.39-8.46.767-.076.162-.054.255.308.053.205.238.512.453.859s.215.235 1.268 1.789 2.615 3.103 4.97 5.505c1.953 1.993 4.651 3.944 7.298 5.423 3.014 1.684 5.972 2.809 7.869 3.607 1.713.721 3.157 1.098 4.553 1.43 3.943.936 7.013 1.227 13.275 1.553.76.04 5.16-.286 5.934-.44 1.104-.219 2.093-.418 3.341-.758s4.35-1.788 6.403-4.338c.871-1.082 1.698-4.639 1.444-7.259s-1.398-2.626-.353-2.34c18.37 5 35.731 15.31 45.88 33.592a108.29 108.29 0 0 1 2.247 4.258z" id="F"/><path id="G" d="M.887.234h44.282v72.363H.887z"/><path id="H" d="M.904.234h19.171v72.363H.904z"/><path id="I" d="M1038.53 331.663h96.487l13.03-130.163h-96.487z"/><path id="J" d="M1033.322 331.663h98.282l13.031-130.163h-98.283z"/><path id="K" d="M1293.356 240.213l-9.03 90.181h-118.564l9.031-90.181z"/><path id="L" d="M1290.703 240.213l-9.03 90.181h-120.77l9.031-90.181z"/><path id="M" d="M876.855 314.521v14.334h50.474a7.17 7.17 0 0 0 7.167-7.167 7.17 7.17 0 0 0-7.167-7.167h-50.474z"/><path id="N" d="M940.141 350.797l33.047 51.846v-51.846z"/><path id="O" d="M921.853 350.797l33.047 51.846h18.288l-33.047-51.846z"/><path id="P" d="M1389.01 1055.077h21.323v-47.283h-21.323z"/><path id="Q" d="M79.337 110.574s3.175 5.786 10.037 5.649"/></defs><g transform="translate(-223 -194)" fill="none" fill-rule="evenodd"><use xlink:href="#I" class="C"/><use xlink:href="#I" class="H J"/><use xlink:href="#J" class="E"/><use xlink:href="#J" class="H J"/><g class="C"><path d="M1052.147 314.477h64.075l9.589-95.79h-64.075z"/><use xlink:href="#K"/></g><use xlink:href="#K" class="H J"/><use xlink:href="#L" class="E"/><use xlink:href="#L" class="H J"/><path d="M1265.239 257.904l-5.487 54.798h-73.385l5.487-54.798zm-372.687 38.783h0c0 6.903 5.597 12.5 12.501 12.5h112.469v-25.001H905.053c-6.904 0-12.501 5.597-12.501 12.501" class="B"/><path d="M968.197 296.687h0a7.24 7.24 0 0 0 7.236 7.236h41.786a.3.3 0 0 0 .302-.3V289.75a.3.3 0 0 0-.302-.3h-41.786a7.24 7.24 0 0 0-7.236 7.237" class="C"/><path d="M876.855 309.187v25.001h122.759c6.904 0 12.501-5.597 12.501-12.5s-5.597-12.501-12.501-12.501H876.855z" class="B"/><g class="C"><use xlink:href="#M"/><path d="M837 350.797h423.178V333.02H837z"/></g><path d="M1260.178 350.797h69.617V333.02h-69.617z" class="B"/><use xlink:href="#N" class="D"/><use xlink:href="#O" class="B"/><use xlink:href="#N" x="242.377" class="D"/><use xlink:href="#O" x="242.377" class="B"/><g class="F"><path d="M1297.515 460.492c-3.479 29.2-28.333 51.854-58.474 51.854s-54.995-22.654-58.474-51.854h116.948zM1071.125 425c-3.479 29.2-28.333 51.854-58.475 51.854S957.656 454.2 954.177 425h116.948z"/><path d="M1071.125 460.492c-3.479 29.2-28.333 51.854-58.475 51.854s-54.994-22.654-58.473-51.854h116.948z"/></g><g class="C"><path d="M1107.819 468.715h47.745l-12.856 42.29h-22.033zm-231.384 0h47.745l-12.856 42.29h-22.033z"/><path d="M1107.819 441.099h47.745l-12.856 42.291h-22.033zM837 521.078h423.178v-17.776H837z"/></g><path d="M1260.178 521.078h69.617v-17.776h-69.617z" class="B"/><use xlink:href="#N" y="170.281" class="D"/><use xlink:href="#O" y="170.281" class="B"/><use xlink:href="#N" x="242.377" y="170.281" class="D"/><use xlink:href="#O" x="242.377" y="170.281" class="B"/><path d="M949 1055.057h26.535v-86.202H949zm221.016 0h26.535v-86.202h-26.535z" class="C"/><g class="D"><path d="M1042.548 1055.057h26.535v-86.202h-26.535zm221.016 0h26.534v-86.202h-26.534z"/><path d="M1042.959 984.15h247.549V811.072h-247.549z"/></g><path d="M949 984.15h247.55V811.072H949z" class="C"/><path d="M971.967 961.743h201.616V833.477H971.967z" class="F"/><path d="M1107.52 833.477h0c0 9.12-7.394 16.514-16.514 16.514h-36.462c-9.12 0-16.513-7.394-16.513-16.514h69.489zm75.515-22.092h51.487v-73.847h-51.487z" class="B"/><path d="M1217.03 811.385h-82.2L1165.86 700h82.2z" class="C"/><path d="M1200.03 811.385h-82.2L1148.86 700h82.2z" class="F"/><path d="M1189.696 794.197h-51.955l21.453-77.01h51.955zm-121.041 17.188h36.413v-52.226h-36.413z" class="B"/><path d="M1089.698 811.385h-58.134l21.946-78.773h58.133z" class="C"/><path d="M1077.674 811.385h-58.134l21.946-78.773h58.133z" class="F"/><g class="C"><path d="M1068.789 795.25h-31.374l12.955-46.505h31.375zM904.042 666.149s-76.674 169.231-85.829 353.231l85.829-353.231"/><path d="M766.855 796.201s55.187 1.436 63.589 185.436c0 0-23.551-138.872-63.589-185.436"/><path d="M823.21 610.999s32.216 194.674.506 392.766l-.506-392.766"/></g><path d="M866.667 1055.859H786.99c-.598 0-1.194-.011-1.788-.033-36.331-1.358-56.544-47.312-35.968-80.466l18.253-29.408H886.17l18.252 29.408c20.577 33.154.364 79.108-35.967 80.466-.594.022-1.189.033-1.788.033" class="F"/><path d="M741 1013.589h171.657m-167.673-28.422h164.241" stroke="#b6d4ff" stroke-width="9"/><g class="C"><path d="M1621.196 347.247h-17.689c-15.266 0-27.641-12.375-27.641-27.641v-46.498c0-4.597 3.726-8.323 8.323-8.323h56.324c4.598 0 8.325 3.726 8.325 8.323v46.498c0 15.266-12.375 27.641-27.642 27.641"/><path d="M1593.433 306.015h37.837v-74.511h-37.837z"/></g><path d="M1411.354 299.551h0c0 6.904 5.597 12.5 12.501 12.5h112.469v-25h-112.469c-6.904 0-12.501 5.596-12.501 12.5" class="B"/><path d="M1487 299.551h0a7.24 7.24 0 0 0 7.236 7.237h41.786c.167 0 .302-.135.302-.301v-13.872c0-.166-.135-.301-.302-.301h-41.786a7.24 7.24 0 0 0-7.236 7.237" class="C"/><path d="M1395.657 312.052v25.001h122.759c6.904 0 12.501-5.597 12.501-12.501s-5.597-12.5-12.501-12.5h-122.759z" class="B"/><g class="C"><use xlink:href="#M" x="518.802" y="2.864"/><path d="M1442.819 271.809l7.984-77.809h24.967l7.985 77.809c.836 8.154-5.562 15.242-13.758 15.242h-13.42c-8.196 0-14.595-7.088-13.758-15.242"/></g><g class="I"><path d="M1237.875 1007.794h370.353V348.225h-370.353z"/><path d="M1237.876 1055.077h21.324V348.225h-21.324z"/></g><g class="D"><path d="M1259.2 1055.077h21.323v-47.283H1259.2z"/><use xlink:href="#P"/><use xlink:href="#P" x="219.219"/></g><use xlink:href="#P" x="306.382" class="O"/><path d="M1586.905 1055.077h21.323V348.225h-21.323z" class="I"/><path d="M1716.715 1055.73h21.323v-47.936h-21.323z" class="D"/><use xlink:href="#P" x="-21.323" class="O"/><path d="M1259.199 978.52h149.72V851.95h-149.72zm177.99.001h149.72v-126.57h-149.72zm-177.99-154.84h149.72v-126.56h-149.72zm177.99 0h149.72v-126.56h-149.72zM1259.2 668.849h327.705V542.285H1259.2z" class="B"/><path d="M1259.2 668.849h101.379V542.285H1259.2z" class="D"/><path d="M1259.2 514.015h327.705V387.451H1259.2z" class="B"/><path d="M1259.2 514.015h101.379V387.451H1259.2zm349.028 493.779h129.81V348.225h-129.81z" class="D"/><path d="M1603.979 357.685h-374.287c-10.876 0-19.692-8.817-19.692-19.692v-1.185h393.979v20.877z" class="I"/><path d="M1746 357.685h-142.021v-20.877h161.713v1.185c0 10.875-8.816 19.692-19.692 19.692" class="D"/><path d="M1237.875 366.818h370.353v-9.133h-370.353z" class="B"/><path d="M1332.624 514.015h20.124v-76.874h-20.124z" class="C"/><path d="M1312.5 514.015h20.124v-76.874H1312.5zm40.248 0h20.124v-76.874h-20.124z" class="B"/><path d="M1425.892 514.015h-53.021v-76.874h53.021a5.13 5.13 0 0 1 5.129 5.128v66.618a5.13 5.13 0 0 1-5.129 5.128" class="D"/><path d="M1381.489 455.952h40.915v-7.611h-40.915zm9.117 11.743h22.681v-7.611h-22.681z" class="B"/><path d="M1550.416 624.731v1.638a13.62 13.62 0 0 1-13.614 13.614h-117.955v-28.866h117.955c7.518 0 13.614 6.095 13.614 13.614" class="D"/><path d="M1470.775 625.075v.948c0 4.353-3.528 7.882-7.882 7.882h-43.883c-.09 0-.164-.073-.164-.164v-16.384c0-.091.074-.164.164-.164h43.883c4.354 0 7.882 3.529 7.882 7.882" class="C"/><path d="M1566.942 639.983v28.866h-128.789c-7.519 0-13.614-6.095-13.614-13.614v-1.638c0-7.518 6.095-13.614 13.614-13.614h128.789z" class="D"/><path d="M1566.942 646.141v16.551h-52.88a7.81 7.81 0 0 1-7.806-7.807v-.938a7.81 7.81 0 0 1 7.806-7.806h52.88z" class="C"/><path d="M1370.699 861.951h-73.28c-5.524 0-10.001-4.478-10.001-10.001h93.282c0 5.523-4.478 10.001-10.001 10.001m177.99 0h-73.281c-5.523 0-10-4.478-10-10.001h93.282c0 5.523-4.478 10.001-10.001 10.001m0-154.83h-73.281c-5.523 0-10-4.478-10-10h93.282c0 5.522-4.478 10-10.001 10m-177.99 0h-73.28c-5.524 0-10.001-4.478-10.001-10h93.282c0 5.522-4.478 10-10.001 10" class="D"/><g transform="matrix(-1 0 0 1 721 265)"><path d="M377.016 71.78h-1.774c-24.511 0-44.382-19.87-44.382-44.381V1h90.538v26.399c0 24.511-19.87 44.381-44.382 44.381" class="C"/><path d="M49.353 789.426H28.867v-49.594h31.054z" class="D"/><g class="F"><path d="M8.38 739.832h355.819V84.814H8.38z"/><path d="M28.867 789.426H8.38v-49.594h30.094z"/></g><path d="M380.67 789.426h-16.471v-49.594h24.195z" class="B"/><path d="M343.713 789.426h20.486v-49.594h-30.093z" class="F"/><path d="M174.07 789.426h-20.487v-49.594h28.173zm295.978 0h-18.869l-7.079-49.594h25.948z" class="D"/><path d="M488.916 789.426h-18.868l-6.194-49.594h25.062z" class="B"/><path d="M153.583 789.426h-20.486l-7.686-49.594h28.172z" class="O"/><path d="M23.427 461.154h325.725V345.393H23.427z" class="D"/><path d="M23.427 461.154h100.767V345.393H23.427z" class="B"/><path d="M23.427 588.059h325.725V472.297H23.427z" class="D"/><path d="M23.427 588.059h100.767V472.297H23.427z" class="B"/><path d="M23.427 714.965h325.725V599.203H23.427z" class="D"/><path d="M23.427 714.965h100.767V599.203H23.427z" class="B"/><path d="M23.427 211.894h325.725V96.133H23.427z" class="D"/><path d="M23.427 211.894h100.767V96.133H23.427z" class="B"/><path d="M23.427 334.249h325.725V223.83H23.427z" class="D"/><path d="M23.427 334.249h100.767V223.83H23.427zm340.772 405.583h124.717V84.814H364.199z" class="B"/><path d="M0 84.814h352.426v-21.25H0z" class="I"/><path d="M352.426 84.814h144.657v-21.25H352.426zm-47.689 472.622v.001a10.21 10.21 0 0 1-10.208 10.207h-82.01v-20.415h82.01a10.21 10.21 0 0 1 10.208 10.207" class="B"/><path d="M248.917 557.436v.001a5.91 5.91 0 0 1-5.909 5.909h-30.366c-.068 0-.122-.055-.122-.123V551.65c0-.068.054-.123.122-.123h30.366a5.91 5.91 0 0 1 5.909 5.909" class="C"/><path d="M316.321 567.644v20.416h-89.605a10.21 10.21 0 0 1-10.208-10.208 10.21 10.21 0 0 1 10.208-10.208h89.605z" class="B"/><path d="M316.321 571.999v11.705h-36.683c-3.232 0-5.852-2.62-5.852-5.852s2.62-5.853 5.852-5.853h36.683z" class="C"/><path d="M315.94 526.812v20.416h-83.725a10.21 10.21 0 0 1-10.208-10.208 10.21 10.21 0 0 1 10.208-10.208h83.725z" class="B"/><path d="M315.94 531.168v11.705h-30.803c-3.232 0-5.853-2.62-5.853-5.852s2.621-5.853 5.853-5.853h30.803zM100.833 461.38h56.138v-78.485h-56.138zm0-81.257h56.138v-4.85h-56.138z" class="C"/><path d="M159.094 393.703H98.71a6.05 6.05 0 0 1-6.047-6.048v-1.485a6.05 6.05 0 0 1 6.047-6.047h60.384a6.05 6.05 0 0 1 6.047 6.047v1.485a6.05 6.05 0 0 1-6.047 6.048" class="I"/><path d="M56.368 714.965h86.712V654.16H56.368z" class="F"/><path d="M143.08 714.965h63.924V654.16H143.08zm-17.023-30.403H74.192a9.64 9.64 0 0 1 9.637-9.638h32.59a9.64 9.64 0 0 1 9.638 9.638" class="B"/><path d="M179.676 714.965h86.712V654.16h-86.712z" class="F"/><path d="M266.387 714.965h63.924V654.16h-63.924zm-17.023-30.403h-51.865a9.64 9.64 0 0 1 9.637-9.638h32.59a9.64 9.64 0 0 1 9.638 9.638" class="B"/><path d="M79.788 211.894H166.5V151.09H79.788z" class="F"/><path d="M166.5 211.894h63.924V151.09H166.5zm-17.024-30.401H97.611h0a9.64 9.64 0 0 1 9.637-9.638h32.59a9.64 9.64 0 0 1 9.638 9.638zm114.251 137.514l7.984-77.809h24.968l7.985 77.809c.836 8.153-5.562 15.242-13.759 15.242h-13.42c-8.196 0-14.595-7.089-13.758-15.242" class="B"/><path d="M70.058 588.059h20.124v-76.874H70.058z" class="C"/><path d="M49.933 588.059h20.124v-76.874H49.933zm40.249 0h20.124v-76.874H90.182z" class="F"/><path d="M163.326 588.06h-53.02v-76.874h53.02a5.13 5.13 0 0 1 5.128 5.128v66.617a5.13 5.13 0 0 1-5.128 5.129" class="C"/><path d="M118.923 529.996h40.915v-7.611h-40.915zm9.116 11.743h22.682v-7.611h-22.682z" class="B"/><path d="M229.213 467.473h0c-24.512 0-44.382-19.871-44.382-44.382V410.35h88.764v12.741c0 24.511-19.87 44.382-44.382 44.382" class="F"/><path d="M275.655 298.865c0 14.951-7.898 28.069-19.746 35.384h-43.493c-11.848-7.315-19.746-20.433-19.746-35.384 0-6.957 1.712-13.508 4.729-19.261h73.527c3.017 5.753 4.729 12.304 4.729 19.261" class="C"/></g><g transform="matrix(-1 0 0 1 1422 380)"><g transform="translate(53 249.996)"><path d="M289.818 355.881c-13.268 0-24.024 15.532-24.024 34.691s10.756 34.692 24.024 34.692 24.024-15.532 24.024-34.692-10.756-34.691-24.024-34.691" class="K"/><path d="M289.97 392.384V8.556" class="L M"/><path d="M119.546 197.691h190.368V.432H119.546z" class="N"/><g class="L"><path stroke-linejoin="round" d="M118.261 392.384V8.556L48.078 29.728" class="M"/><g class="P"><path d="M206.644 284.169l166.348 212.809"/><path d="M372.991 284.169L206.644 496.978"/><path d="M189.95 390.573h199.735"/><path d="M289.818 235.523v310.1"/></g></g><path d="M289.97 221.608c-65.313 0-118.26 76.458-118.26 170.777s52.947 170.775 118.26 170.775 118.26-76.458 118.26-170.775-52.947-170.777-118.26-170.777m0 26.748c22.478 0 44.312 13.653 61.481 38.446 9.229 13.327 16.52 29.003 21.672 46.591 5.454 18.622 8.22 38.469 8.22 58.992s-2.766 40.368-8.22 58.99c-5.152 17.589-12.443 33.265-21.672 46.591-17.169 24.793-39.003 38.446-61.481 38.446s-44.312-13.653-61.481-38.446c-9.229-13.326-16.52-29.003-21.672-46.591-5.454-18.622-8.22-38.469-8.22-58.99s2.766-40.369 8.22-58.992c5.152-17.589 12.443-33.264 21.672-46.591 17.169-24.793 39.002-38.446 61.481-38.446" fill="#868b9b"/><g class="L"><path d="M118.108 235.523v310.1" class="P"/><path d="M442.481 473.368V190.208" class="M"/></g><path d="M446.943 462.444c-19.26 0-34.872 22.546-34.872 50.358s15.612 50.358 34.872 50.358 34.872-22.547 34.872-50.358-15.612-50.358-34.872-50.358m0 21.972c3.71 0 12.786 9.946 12.786 28.386s-9.075 28.386-12.786 28.386-12.786-9.947-12.786-28.386 9.075-28.386 12.786-28.386m-282.3-186.726h277.838v-42.908H164.643z" class="K"/><path d="M122.392 297.69h150.619v-42.908H122.392z" class="N"/><g transform="translate(325.53 429.197)"><mask id="R" class="E"><use xlink:href="#A"/></mask><g fill="#0d0b6d"><use xlink:href="#A"/><g mask="url(#R)" class="G"><path d="M-4.801 6.373h251v67h-251z"/></g></g></g><g transform="translate(333.212 429.452)"><mask id="S" class="E"><use xlink:href="#B"/></mask><g fill="#cf3e83"><use xlink:href="#B"/><g mask="url(#S)" class="G"><path d="M-5.762 20.448h173v24h-173z"/></g></g></g><path d="M316.74 524.558h262.439v-23.514H316.74z" class="K"/><path d="M306.368 524.559h87.852v-23.514h-87.852z" class="N"/><path d="M118.261 221.608C52.947 221.608 0 298.066 0 392.384s52.947 170.775 118.26 170.775 118.26-76.458 118.26-170.775-52.947-170.777-118.26-170.777m0 26.748c22.478 0 44.312 13.653 61.481 38.446 9.228 13.327 16.52 29.003 21.672 46.591 5.454 18.622 8.22 38.469 8.22 58.992s-2.766 40.368-8.22 58.99c-5.152 17.589-12.444 33.265-21.672 46.591-17.169 24.793-39.003 38.446-61.481 38.446s-44.312-13.653-61.481-38.446c-9.229-13.326-16.52-29.003-21.672-46.591-5.454-18.622-8.22-38.469-8.22-58.99s2.766-40.369 8.22-58.992c5.152-17.589 12.443-33.264 21.672-46.591 17.169-24.793 39.002-38.446 61.481-38.446" fill="#bfc4d6"/><path d="M263.087 473.368l-.28-215.496" stroke="#3d3e44" class="M"/><path d="M275.234 462.444c-19.26 0-34.872 22.546-34.872 50.358s15.612 50.358 34.872 50.358 34.872-22.547 34.872-50.358-15.613-50.358-34.872-50.358m0 21.972c3.71 0 12.786 9.946 12.786 28.386s-9.075 28.386-12.786 28.386-12.786-9.947-12.786-28.386 9.075-28.386 12.786-28.386" class="N"/><path d="M117.219 354.743c-13.268 0-24.024 15.533-24.024 34.691s10.756 34.693 24.024 34.693 24.024-15.533 24.024-34.693-10.756-34.691-24.024-34.691" class="K"/><g class="L P"><path d="M45.504 297.69l143.43 183.491"/><path d="M187.88 301.314L42.864 486.832"/><path d="M21.933 390.573h187.129"/></g><g transform="translate(216.509 180.242)"><mask id="T" class="E"><use xlink:href="#C"/></mask><use fill="#18181c" xlink:href="#C"/><g mask="url(#T)" fill="#2437a8" class="G"><path d="M.491-24.895h327v309h-327z"/></g></g><path d="M216.509 181.168h149.98c25.032 0 44.603 21.242 42.148 45.748l-23.863 229.216h-55.505l9.394-198.26h-68.171c-29.814 0-53.983-23.775-53.983-53.102v-23.601z" fill-opacity=".1" class="E"/></g><g transform="translate(281 100)"><path d="M120.066 46.28s25.363 33.147-9.073 41.946l9.073-41.946z" fill="#19141e"/><g transform="translate(.675 42.195)"><mask id="U" class="E"><use xlink:href="#D"/></mask><use xlink:href="#D" class="Q"/><g mask="url(#U)" fill="#e576c6" class="G"><path d="M-5 12.101h129v111H-5z"/></g></g><path d="M13.942 80.023s-23.352-9.529 3.855-37.759S69.25 28.682 69.25 28.682 76.088-.082 95.016.001c26.965.117 31.127 41.9 31.127 41.9s13.591-22.724 21.319-19.476 7.941 78.723-99.349 41.942c0 0 9.225 20.814-15.356 25.041 0 0-4.287-8.884-18.816-9.386" fill="#19141e"/><path stroke="#19141e" stroke-width="9" d="M24.2 19.964l3.379 18.853-7.041 3.379L7.526 28.902"/><path fill="#000" opacity=".4" d="M71.965 130.998l-23.878-5.135 23.764 16.1z"/><path fill="#125475" d="M92.117 87.021l8.251 20.232-9.888.126z"/><path d="M82.254 88.987c.492 2.725-1.313 5.333-4.029 5.825a5 5 0 0 1-5.808-4.04c-.492-2.725 1.312-5.333 4.029-5.825a5 5 0 0 1 5.808 4.04m25.952 0c.492 2.725-1.313 5.333-4.03 5.825a5 5 0 0 1-5.807-4.04c-.492-2.725 1.312-5.333 4.029-5.825a5 5 0 0 1 5.808 4.04" fill="#0d0b6d"/><use xlink:href="#Q" class="E"/><use xlink:href="#Q" stroke="#252535" stroke-width="4"/></g><g transform="translate(203 232.877)"><g transform="translate(0 20.766)"><mask id="V" class="E"><use xlink:href="#E"/></mask><g fill="#e576c6"><use xlink:href="#E"/><g mask="url(#V)" class="G"><path d="M0 .111h321v288H0z"/></g></g></g><g transform="translate(17 20.877)"><mask id="W" class="E"><use xlink:href="#F"/></mask><g class="Q"><use xlink:href="#F"/><g mask="url(#W)" class="G"><path d="M0 0h206v177H0z"/></g></g></g><path stroke="#000" opacity=".201" d="M59.306 116.895l10.667 7.218 25.641-29.772" class="H"/><g transform="translate(270 .761)"><mask id="X" class="E"><use xlink:href="#G"/></mask><path d="M32.834 63.507l-1.858 9.089H.887L15.08.233h30.089l-5.511 28.098-5.917-2.735-1.843-.509-1.451.081-.629.428v1.758l6.432 9.224-4.92 2.138-7.57 3.96-2.187 1.51-.847.783-.692.618-.441.531-.265.475-.114.616.114.273.132.21.191.189 2.481.874 5.66-1.546h5.594l-7.467 1.546L21 51.692l-1.672 1.572-.945 1.155v1.057l1.651.741 10.414-1.192L27 56.894l-2.285 1.413-2.095 1.078L21 61.469v1.029l.574.604 1.454.771h2.218 4.468l3.119-.366z" mask="url(#X)" class="Q"/></g><g transform="translate(265 .761)"><mask id="Y" class="E"><use xlink:href="#H"/></mask><path fill="#020101" mask="url(#Y)" d="M5.883 72.597H.904L15.097.233h4.978z"/></g><path d="M290.257 9.396c-.416 2.114-1.649 3.653-2.754 3.438s-1.663-2.103-1.247-4.216 1.649-3.653 2.754-3.439 1.663 2.104 1.247 4.217" fill="#020101"/></g></g></g></svg>