<svg xmlns="http://www.w3.org/2000/svg" xmlns:xlink="http://www.w3.org/1999/xlink" width="1208" height="1038" xmlns:v="https://vecta.io/nano"><style><![CDATA[.S{fill:#b6d4ff}.T{fill:#dceeff}.U{fill:#cce3ff}.V{fill:#fff}.W{fill-rule:nonzero}.X{fill:#cf3e83}.Y{fill:#e576c6}.Z{fill:#ecf6ff}.a{stroke-width:3}]]></style><defs><path d="M21.633 65.015c4.062 6.487 2.398 15.034.083 20.028-.782 1.717-5.866 16.105-6.607 16.757-2.882 2.527 32.394 17.903 32.394 17.903l2.344-29.043c10.226.59 22.228.05 28.82-4.334 19.635-13.06 20.797-58.344 20.476-60.608L82.675 7.295S53.654-3.62 49.874 1.252c-6.913 8.926-18.903 48.306-30.615 43.749 0 0 1.477-12.416-8.886-12.4-7.721.011-9.813 6.205-9.807 9.782.018 12.077 15.613 13.893 21.067 22.632" id="A"/><path d="M219.668 6.834c2.151-5.059 13.453-6.479 13.453-6.479s18.037 20.762 19.651 23.933 4.599 18.867 4.457 21.969-9.444 17.036-9.444 17.036c-5.771-1.413-2.002-8.61-2.002-8.61s-5.169 4.371-7.318 4.297c-20.24-.689-19.156-10.938-18.677-12.221 1.075-2.882 6.477.414 6.477.414s-12.75-25.869-6.597-40.339zM37.729.86l4.004 24.895s.025 5.117-.69 10.994-1.298 9.418.677 18.936c1.377 6.632-7.315 2.752-9.096-1.186-1.836-4.061.224-18.506-4.842-16.717s-9.818 15.713-12.074 29.373c-.354 2.146-2.334 3.51-3.598 3.86-2.049.567-2.692-8.353-2.692-8.353s-1.656 2.702-4.249.82c-.918-.666-2.6-7.022-2.6-7.022S.883 53.132.393 49.736c-.864-5.998-.194-16.608.951-19.508C4.116 23.204 9.44 11.349 14.067 5.577 18.645-.134 26.654 5.976 37.729.86z" id="B"/><path d="M100.809 20.792L103.676 0l43.69 6.024-2.383 17.278c12.825 1.239 21.556 3.742 29.726 11.243 26.24 24.09 28.17 114.27 28.17 114.27l27.73 94.75-22.82 2.86s-38.2-50.62-46.64-77.84h-78.25s.74-8.09-1.1-19.78c-2.42-15.29-11.11-26.69-11.11-26.69l-15.72 19.34-27.24 96.48-25.03 4.49s-7.51-78.87 7.68-121.94c13.28-37.67 37.51-78.58 56.43-90.5 12.011-7.571 23.293-9.231 34-9.193z" id="C"/><path d="M31.326 1.567L55.661.347l2.601 30.719H.242C12.942 6.089 31.326 1.567 31.326 1.567zm139.195-.077s45.802 12.007 63.02 29.864l-82.427.148L153.357.963l17.165.527z" id="D"/><path d="M39.158 305.02c-4.979 5.219-14.578 12.776-28.6 13.054-12.764.253 10.566-15.76 14.62-18.481L.943 29.501 64.62 0 44.873 306.068l-5.715-1.048h0zm129.348-2.287l32.83 14.248c-20.119 2.203-40.323-6.207-50.745-11.522h-6.504L84.193 39.612l54.77-2.557L151.3 162.689c7.352 73.114 15.322 127.536 17.206 140.044z" id="E"/><path d="M57.3 0S40.327 8.116 25.558 52.166C5.791 111.124 0 289.705 0 289.705h190.332L141.283 1.28 57.3 0z" id="F"/><path id="G" d="M1393.488 271.398h25.235V175h-25.235z"/><path id="H" d="M1280.343 979.54h20.124v-76.874h-20.124z"/><path id="I" d="M1350.781 473.068c-1.56 13.11-8.2 24.67-17.899 32.64h-63.431c-9.699-7.97-16.34-19.53-17.909-32.64h99.239z"/><path id="J" d="M1318.105 691.994c0 19.295-2.057 36.943-5.487 50.63h-35.944c-3.423-13.687-5.488-31.335-5.488-50.63"/><path id="K" d="M1316.327 700.472c8.15 1.609 13.453 9.521 11.844 17.671s-9.521 13.453-17.671 11.844"/></defs><g transform="translate(-343 -175)" fill="none" fill-rule="evenodd"><path d="M740.304 706.929l-45.914-97.317m96.878-55.404l-96.877 55.403m95.75-54.206h39.517" stroke="#cce3ff" stroke-width="12"/><path d="M710.761 715.78h86.16c0-7.837-6.353-14.19-14.19-14.19h-57.78c-7.837 0-14.19 6.353-14.19 14.19M865.96 587.855c0-20.049-16.253-36.302-36.302-36.302s-36.303 16.253-36.303 36.302" class="T"/><path d="M610.885 1072.897h8.137l50-333.11h-28.137zm142.447 0h8.137l50-333.11h-28.137z" class="S"/><path d="M952.922 613.799h121.641l-28.542 94.096h-121.64z" class="T"/><path d="M1066 619.852l-24.366 80.343H932.78l24.366-80.343z" class="V"/><path d="M1046.132 644.581l-1.161 3.841h-89.352l1.16-3.841zm-5.7 7.825l-1.161 3.841h-86.427l1.16-3.841zm-27.076 7.825l-1.16 3.842h-62.052l1.16-3.842z" class="S"/><path d="M835.436 715.633h121.64v-7.738h-121.64z" class="T"/><g class="Z"><path d="M957.076 715.633h88.902v-7.738h-88.902z"/><path d="M1074.462 613.799h7.475l-28.541 94.096h-7.475z"/></g><path d="M578 739.787h459.5v-24.153H578z" class="S"/><g class="T"><path d="M1004.269 739.787h179.27v-24.153h-179.27z"/><path d="M1160.789 1072.897h8.137l-30-333.11h-28.137zm-142.997 0h8.137l-30-333.11h-28.137z"/></g><path d="M1050.594 629.401l-1.16 3.842h-89.353l1.16-3.842zm-11.89 7.825l-1.16 3.842h-79.603l1.161-3.842zm-18.595-18.383l-15.203 1.841-1.218-1.912.802-1.744-1.157-1.388 14.203-1.841 2.145 1.281-1.796 1.795z" class="S"/><path d="M602.646 834.94v1.66c0 13.85-10.745 25.069-23.988 25.069H390.754c-28.984 0-51.289-27.809-47.289-58.969l21.214-173.62c1.837-14.38 13.157-25.08 26.534-25.08h55.691c13.368 0 24.687 10.7 26.535 25.08l21.214 173.62c.162 1.24.277 2.48.345 3.71l.114-.02s3.924 28.55 40.399 28.55h67.135z" class="T"/><path d="M402.607 1057.242a16.04 16.04 0 0 1-16.035 16.034c-8.856 0-16.034-7.179-16.034-16.034s7.178-16.035 16.034-16.035a16.04 16.04 0 0 1 16.035 16.035" class="S"/><g class="U"><path d="M548.923 1060.456H390.462c-6.069 0-11.035-4.966-11.035-11.035s4.966-11.036 11.035-11.036h158.461c6.069 0 11.035 4.967 11.035 11.036s-4.966 11.035-11.035 11.035"/><path d="M461.562 1055.208h16.262V861h-16.262z"/><path d="M525.414 861l-55.721 25.376L413.972 861z"/></g><g class="S"><path d="M470.925 1060.456h-20.562c-6.07 0-11.036-4.966-11.036-11.035s4.966-11.036 11.036-11.036h20.562c6.069 0 11.035 4.967 11.035 11.036s-4.966 11.035-11.035 11.035"/><path d="M457.437 1057.242c0 8.855-7.179 16.034-16.034 16.034a16.04 16.04 0 0 1-16.035-16.034c0-8.855 7.178-16.035 16.035-16.035a16.04 16.04 0 0 1 16.034 16.035m112.473 0c0 8.855-7.179 16.034-16.035 16.034s-16.034-7.179-16.034-16.034 7.178-16.035 16.034-16.035a16.04 16.04 0 0 1 16.035 16.035"/></g><path d="M1209 1074.576h26.534v-86.202H1209zm221.017 0h26.534v-86.202h-26.534z" class="T"/><g class="S"><path d="M1303.112 1074.576h26.533v-86.202h-26.533zm221.016 0h26.534v-86.202h-26.534z"/><path d="M1302.959 1003.669h247.549V271.411h-247.549z"/></g><g class="T"><path d="M1209.499 1003.669h247.551V271.411h-247.551z"/><path d="M1377.966 221.618c0 21.04-11.115 39.5-27.787 49.793h-61.204c-16.673-10.293-27.788-28.753-27.788-49.793 0-9.791 2.409-19.009 6.655-27.104h103.47c4.245 8.095 6.654 17.313 6.654 27.104"/><use xlink:href="#G"/></g><g class="U"><use xlink:href="#G" x="-25.236"/><use xlink:href="#G" x="25.235"/></g><path d="M1511.748 271.398h-67.79V175h67.79a5.13 5.13 0 0 1 5.128 5.128v86.142a5.13 5.13 0 0 1-5.128 5.128" class="S"/><path d="M1466.197 213.314h28.441v-9.545h-28.441zM1231.659 979.54h203.326V768.779h-203.326z" class="U"/><path d="M1231.66 979.54h70.147V768.779h-70.147z" class="S"/><path d="M1231.659 742.624h203.326v-210.76h-203.326z" class="U"/><path d="M1231.66 742.624h70.147v-210.76h-70.147z" class="S"/><path d="M1231.659 505.708h203.326v-210.76h-203.326z" class="U"/><path d="M1231.66 505.708h70.147v-210.76h-70.147z" class="S"/><use xlink:href="#H" class="T"/><g class="U"><use xlink:href="#H" x="-20.124"/><use xlink:href="#H" x="20.124"/></g><path d="M1373.611 979.54h-53.021v-76.874h53.021a5.13 5.13 0 0 1 5.129 5.128v66.617a5.13 5.13 0 0 1-5.129 5.129" class="S"/><path d="M1329.208 921.476h40.915v-7.611h-40.915zm9.117 11.743h22.681v-7.611h-22.681z" class="U"/><g class="T"><use xlink:href="#I"/><path d="M1350.781 445.82c-2.952 24.777-24.042 44-49.618 44s-46.666-19.223-49.619-44h99.237z"/><use xlink:href="#I" y="-54.456"/><path d="M1350.781 391.363c-2.952 24.778-24.042 44.001-49.618 44.001s-46.666-19.223-49.619-44.001h99.237z"/></g><use xlink:href="#J" class="Z"/><use xlink:href="#K" stroke="#ecf6ff" stroke-width="8"/><use xlink:href="#J" x="72" class="Z"/><use xlink:href="#K" x="64.208" stroke="#ecf6ff" stroke-width="8"/><g transform="matrix(-1 0 0 1 878 187)"><path d="M0 17.776h423.177V0H0z" class="T"/><path d="M423.177 17.776h69.618V0h-69.618z" class="U"/><path d="M103.141 17.776l33.046 51.846V17.776z" class="S"/><path d="M84.853 17.776l33.046 51.846h18.288l-33.046-51.846z" class="U"/><path d="M345.517 17.776l33.047 51.846V17.776z" class="S"/><path d="M327.229 17.776l33.047 51.846h18.288l-33.047-51.846z" class="U"/></g><g transform="translate(620 289)"><g transform="translate(70 47)"><g fill="#fcbda4"><path d="M224.699 64.117c0 35.411-31.614 64.117-70.612 64.117S83.475 99.528 83.475 64.117 115.089 0 154.087 0s70.612 28.706 70.612 64.117"/><path d="M98.963 222.754l-52.055-7.344C17.214 211.221-3.654 183.499.536 153.805s31.911-50.562 61.605-46.373l52.055 7.344c29.694 4.189 50.561 31.912 46.372 61.605s-31.911 50.562-61.605 46.373"/><path d="M107.06 133.059l-43.12-6.083c-21.262-3-36.204-22.851-33.204-44.113s22.85-36.204 44.112-33.204l43.119 6.083c21.262 2.999 36.205 22.85 33.205 44.112s-22.85 36.205-44.112 33.205"/><path d="M93.49 73.877h0c-18.879-2.664-32.147-20.29-29.484-39.169h.001C66.67 15.829 84.296 2.561 103.175 5.225s32.148 20.289 29.484 39.169-20.29 32.147-39.169 29.483"/></g><path d="M164.846 140.895s-12.93.382-18.442-2.628l17.755 11.147.687-8.519z" class="X"/><g transform="translate(115 50.235)"><mask id="L" class="V"><use xlink:href="#A"/></mask><use fill="#ed4848" xlink:href="#A"/><g mask="url(#L)" class="W X"><path d="M-2 13.765h107v109H-2z"/></g></g><path fill="#405fd3" d="M192.956 95.214l7.4 17.94-8.585-.172z"/><path d="M185.077 95.992c-.185 3.584-2.292 6.376-4.708 6.237s-4.225-3.157-4.041-6.741 2.292-6.376 4.708-6.237 4.225 3.158 4.041 6.741m22.687-.572c-.185 3.584-2.292 6.376-4.708 6.237s-4.225-3.157-4.041-6.741 2.292-6.377 4.708-6.238 4.225 3.158 4.041 6.742" fill="#0d0b6d"/><path d="M189.664 121.575s-5.594 1.806-11.199-4.427" stroke="#1c295e" class="a"/><path d="M164.825 140.895s-12.931.382-18.442-2.629l17.755 11.147.687-8.518z" fill="#000" opacity=".402"/><g fill="#fcbda4"><path d="M167.632 52.048c1.464 4.837 3.775 9.214 6.735 13.025.383.47.771.961 1.188 1.42 2.691 3.128 5.834 5.831 9.307 8.041 9.366 5.944 21.175 8.318 33.023 5.936.606-.124 1.198-.255 1.795-.412l-4.457-14.718-.012.003c-.128-.462-.264-.911-.402-1.371-5.501-18.165-17.212-32.849-32.341-42.639-2.813-1.825-5.748-3.468-8.783-4.938-4.116 5.845-6.735 12.588-7.519 19.635-.593 5.257-.151 10.678 1.466 16.018"/><path d="M134.259 95.188s34.403 5.479 46.444-37.751C193.159 12.718 115.566 42.6 115.566 42.6l23.22 27.795-4.527 24.793zm12.13 36.316c0 12.025-9.749 21.774-21.774 21.774s-21.774-9.749-21.774-21.774 9.748-21.774 21.774-21.774 21.774 9.749 21.774 21.774"/></g></g><g transform="translate(88 188)"><path d="M220.944 249.968s-38.833-62.061-40.771-77.453c-2.053-16.31-.211-37.369-.211-37.369l26.223-15.611 6.635 38.819 28.297 88.812" class="Y"/><g transform="translate(0 235)"><mask id="M" class="V"><use xlink:href="#B"/></mask><use xlink:href="#B" class="Y"/><g mask="url(#M)" class="W X"><path d="M-2 0h259v71H-2z"/></g></g><path d="M230.398 254.048s2.84 10.729 12.587 14.072c3.409 1.169 2.557 14.968 10.911 13.318" stroke="#000" opacity=".152" class="a"/><path d="M12.699 237.981s-1.229-84.508 4.486-98.425 16.058-32.575 16.058-32.575L63.92 126.25l-16.454 25.032-11.341 85.376" class="Y"/><g transform="translate(10)"><mask id="N" class="V"><use xlink:href="#C"/></mask><use fill="#c83820" xlink:href="#C"/><g mask="url(#N)" fill="#f6b852" class="W"><path d="M-2 0h234v246H-2z"/></g></g><path d="M178.914 169.635c3.208-40.743 25.413-49.358 9.413-95.05m-88.154 18L80.686 122.11" opacity=".196" stroke="#000" class="a"/></g><g transform="translate(126 347)"><g transform="translate(23 545)"><mask id="O" class="V"><use xlink:href="#D"/></mask><g fill="#0d0b6d"><use xlink:href="#D"/><g mask="url(#O)" class="W"><path d="M-5-2h239v34H-5z"/></g></g></g><g transform="translate(33 244.553)"><mask id="P" class="V"><use xlink:href="#E"/></mask><use xlink:href="#E" class="Y"/><g mask="url(#P)" class="W X"><path d="M-10 45.447h211v273H-10z"/></g></g><mask id="Q" class="V"><use xlink:href="#F"/></mask><use fill="#2f2f3d" xlink:href="#F"/><g mask="url(#Q)" fill="#2437a8" class="W"><path d="M0 0h190v295H0z"/></g></g></g></g></svg>