<svg xmlns="http://www.w3.org/2000/svg" xmlns:xlink="http://www.w3.org/1999/xlink" width="1316" height="1262" xmlns:v="https://vecta.io/nano"><style><![CDATA[.B{fill:#fff}.C{fill-rule:nonzero}.D{fill:#cce3ff}.E{fill:#d7ebff}.F{fill:#e576c6}.G{fill:#0d0b6d}.H{stroke-width:3}.I{opacity:.201}.J{fill:#19141e}.K{stroke:#000}.L{fill:#ecf6ff}.M{stroke-width:8}.N{fill:#cf3e83}.O{fill:#ce3d29}.P{fill:#fcbda4}.Q{stroke-linecap:square}]]></style><defs><path d="M78.101 86.331c-6.87 3.94-18.601 4.92-28.82 4.33l-2.35 29.04-33.37-13.73 4.59-44.34C11.441 55.541.021 52.721 0 42.381c-.009-3.57 2.08-9.77 9.8-9.78 10.37-.01 8.891 12.4 8.891 12.4 11.71 4.56 23.7-34.82 30.62-43.75 3.779-4.87 32.8 6.05 32.8 6.05l17.45 4.67s.609 61.69-21.46 74.36" id="A"/><path d="M326.125 87.826l5.524 20.974s43.888-18.872 67.562-10.525l-78.447 49.149-19.783-58.658 25.144-.94zM60.029 24.797L35.517 49.312s2.227 13.349 2.336 28.812c.158 22.383-2.932 44.297-2.932 44.297L0 42.482 51.514 0l8.515 24.797z" id="B"/><path d="M276.001 76.392l25.74-4.799 9.716 37.231-20.736 8.935-14.721-41.366zM30.963 0l2.694 31.067-18.333 18.267L.768 24.919 30.963 0z" id="C"/><path d="M170.349 319.821C130.39 399.349 61.603 466.77 61.603 466.77L.016 375.442s82.048-72.038 120.769-231.114c-6.509-26.136-11.135-47.665-12.759-61.463C102.699 37.683 129.573 7.26 136.785 0h3.308 81.028c1.732 6.442 8.597 42.557 6.222 95.759l25.23 86.905 80.846 282.519-104.999 37.452s-30.14-90.252-58.071-182.814h0z" id="D"/><path id="E" d="M.218 140h45.385V0H.218z"/><path d="M227.311 228.597l-20.787 8.765c.053-3.186.546-6.218 1.673-8.868 2.151-5.059 13.453-6.48 13.453-6.48l5.661 6.583h0zm6.434 7.626c3.671 4.416 6.914 8.462 7.556 9.723 1.614 3.171 4.599 18.868 4.457 21.969s-9.444 17.037-9.444 17.037c-5.771-1.414-2.002-8.611-2.002-8.611s-5.17 4.371-7.318 4.298c-20.241-.69-19.156-10.938-18.678-12.221 1.075-2.882 6.478.413 6.478.413s-5.224-10.597-7.371-22.021l26.321-10.588h0zM137.658 22.63C120.145 20.986 112.34 6.334 109.491.734c6.219-.07 12.215.667 18.026 1.006 11.675.678 20.574.987 27.888 2.302.486 1.754 4.117 20.631-17.747 18.588zM36.763 229.354l2.826 9.036s.757 5.061.891 10.98.062 9.506 3.379 18.643c2.312 6.367-6.845 3.771-9.171.129-2.4-3.757-2.428-18.348-7.186-15.851s-7.468 16.956-7.746 30.797c-.043 2.175-1.807 3.808-3.008 4.335-1.947.855-3.859-7.881-3.859-7.881s-1.253 2.911-4.089 1.419c-1.003-.527-3.578-6.577-3.578-6.577s-2.145-3.052-3.115-6.344C.392 262.228-.463 251.631.255 248.597c.917-3.876 3.389-10.959 5.519-16.787l30.988-2.456z" id="F"/><path d="M189.635 24.796l44.871-18.92 3.404 9.062-45.64 18.359-2.635-8.501zM.319 4.758L50.936.374v9.539l-50.461 4-.156-9.155z" id="G"/><path d="M71.028 116.942l-.862-29.813s36.147 2.885 43.88-1.141c0 0 9.451-48.802-1.821-75.827l-.228-1.052L35.716.166 31.44 44.037C28.87 36.441 7.664 27.827 2.12 38.705c-12.013 23.57 30.94 39.441 30.94 39.441L28.699 117.3" id="H"/><path d="M182.331 15.879l-.283 24.451s54.783 8.634 73.354 29.567H146.256L150.828 0l31.503 15.879zM42.521 13.82l-.284 27.463s23.074 3.014 32.467 28.615H.001l5.455-30.134 16.527-9.209L42.521 13.82z" id="I"/><path d="M145.789 2.593l31.503 9.473-.283 24.45-33.76-1.518 2.54-32.405zM5.979.533l31.503 9.474-.284 27.462L.415 35.95 5.979.533z" id="J"/><path d="M185.838 469.258l-.726 22.692h-41.555l.729-22.76c-4.655-1.869-7.982-6.363-8.095-11.673l-6.689-339.891-72.275 343.149c-1.018 4.827-4.596 8.576-9.14 9.957L45.37 491.95H1.8l3.75-23.426c-3.628-2.814-5.731-7.443-5.008-12.387L67.082 1.336h60.131l-.003-.174h72.83l-4.365 455.719c-.061 5.993-4.227 11.006-9.836 12.377z" id="K"/><path id="L" d="M76.592.429l6.979 1.14L7.461 465.042l-7-1.169z"/><path d="M316.927 62.682l-.5-8.629s.01-6.005.79-12.486 5.28-14.147.52-25.589c-4.76-11.433 6.62-3.539 9.14 1.899 2.1 4.533.99 14.067 3.57 17.556 2.18-1.183 3.63-2.724 3.63-2.724l24.53-31.633c.79-1.064 2.25-1.382 3.42-.756l1.32.716c1.39.756 1.83 2.525.94 3.817l-19.23 27.697.65.785 28.81-30.202c.9-1.004 2.41-1.183 3.52-.418l1.73 1.193a2.62 2.62 0 0 1 .59 3.788c-5.73 7.357-27.23 30.709-26.82 30.937l.86.825 26.82-23.551a2.69 2.69 0 0 1 3.67-.288l1.31 1.064c1.15.925 1.32 2.605.38 3.738l-25.33 23.68.73 1.143 21.99-15.359c1.01-.895 2.53-.895 3.55-.01l.61.547a2.64 2.64 0 0 1 .26 3.698c-3.22 3.788-13.22 10.13-21.08 17.954-6.1 6.074-9.09 11.83-17.61 18.65-3.6 2.893-6.81 4.404-9.87 6.005l-22.9-14.047zm-197.71-19.798l29.178-.074c12.23-.042 27.61 5.099 27.61 5.099s8.003 17.97-19.797 16.343-36.991-21.368-36.991-21.368zM.01 178.939c-.615-22.635 26.514-63.337 26.514-63.337l47.486 21.125-19.539 41.601 53.728 74.869-22.118 18.008S.736 205.628.01 178.939z" id="M"/><path d="M101.929 177.815l13.212 17.719-39.795 34.667S2.319 176.707.064 134.764c-1.436-26.714 21.949-64.848 21.949-64.848S51.365 23.031 85.295 7.209c6.963-3.247 23.845-5.956 34.079-7.073 3.137-.343 1.261.879 2.338 2.947 1.125 2.16 4.55 5.36 6.919 7.753 4.931 4.979 14.649 8.749 19.87 9.521 3.978.588 11.667 1.501 15.365 1.004s7.719-2.165 8.794-3.156 2.673-2.232 3.502-4.142.787-1.363.787-3.126-.091-1.502-.264-2.341-.173-1.343-.274-1.777c-.45-1.918-.249-1.657-.249-1.657 20.03 6.046 30.175 8.284 37.472 17.079l55.764 39.111 38.154-49.757 49.23 33.035s-43.589 81.162-75.179 90.135c-25.447 7.228-51.226-15.251-60.29-24.267l10.769 54.637c1.726 9.433-6.539 13.003-13.903 12.669l-116.25.011z" id="N"/><path id="O" d="M80.67 74.237c.502 2.779-1.34 5.44-4.113 5.942s-5.428-1.343-5.929-4.121 1.339-5.44 4.113-5.943 5.427 1.343 5.929 4.122"/><path id="P" d="M75.629 94.977s3.241 5.902 10.246 5.762"/></defs><g transform="translate(-186 -96)" fill="none" fill-rule="evenodd"><path d="M788.931 583.965c0 131.425-106.541 237.965-237.966 237.965S312.999 715.39 312.999 583.965 419.54 346 550.965 346s237.966 106.54 237.966 237.965" class="L"/><path d="M550.965 515.191v486.729m0-261.049l52.974-52.973m-50.974-106.036l27.276-27.276m-29.276 107.253l-50.769-50.768" stroke="#b6d4ff" class="M"/><path d="M1501.79 748.18c0 113.31-73.99 164.16-164.899 164.16-90.901 0-164.891-50.85-164.891-164.16 0-211.07 89.99-408.18 164.891-408.18 74.909 0 164.899 197.11 164.899 408.18" class="L"/><path d="M1336.895 564.728v441.661m3-168.411l61.236-61.237m-62.236-135.778l38.052-38.052m-42.052 145.642l-56.456-56.456" stroke="#cce3ff" class="M Q"/><path d="M1250.22 706.18c0 114.54-74.75 178.44-172.109 178.44S906 820.72 906 706.18C906 465.02 1015.851 187 1078.111 187s172.109 278.02 172.109 519.18" class="D"/><path d="M1078.11 535.81v528.67m2.057-248.61l60.915-60.915m-68.071-55.148l-49.846-49.846m57.945-28.238l38.052-38.053" stroke="#ecf6ff" class="M Q"/><path d="M1064.022 1024.246l42.437 197.679h28.073l-42.437-197.679z" class="D"/><path d="M381.785 1024.245h726.637v-30.579H381.785zm572.562 110.742h141.671v-30.58H954.347z" class="E"/><path d="M531.921 823l-31.846 170.666h38.431L570.352 823zm553.903 0l-31.846 170.666h38.43L1124.254 823z" class="D"/><path fill="#b6d4ff" d="M938.025 1024.246h170.397v-30.579H938.025z"/><path d="M1162.581 934.25l-5.697 30.586h-38.437l5.708-30.586z" class="D"/><path d="M1124.156 934.25l-5.708 30.586H471.711l5.708-30.586z" class="E"/><path d="M1172.957 878.627l-5.697 30.575h-38.437l5.708-30.575z" class="D"/><path d="M1134.532 878.627l-5.708 30.575H482.087l5.708-30.575z" class="E"/><path d="M1144.907 823.004l-5.696 30.576h38.425l5.697-30.576z" class="D"/><path d="M498.18 823.004l-5.708 30.576h646.738l5.697-30.576z" class="E"/><path d="M954.347 1024.246l-42.437 197.679h28.074l42.436-197.679zm-446.235-.001l42.437 197.679h28.072l-42.436-197.679z" class="D"/><path d="M398.436 1134.986h141.672v-30.579H398.436z" class="E"/><path d="M398.436 1024.245L356 1221.924h28.074l42.435-197.679z" class="D"/><path d="M1431.369 898.774h16V186.911h-16z" class="E"/><path d="M1266.973 205.028l-126.62-41.974c-5.289-1.753-8.183-7.516-6.429-12.805l6.316-19.054c1.754-5.289 7.516-8.182 12.805-6.429l126.62 41.974c5.289 1.753 8.183 7.516 6.429 12.805l-6.316 19.054c-1.753 5.289-7.516 8.182-12.805 6.429" class="L"/><g class="D"><path d="M1408.704 1162.7h61.33V926.773h-61.33z"/><path d="M1421.703 970.772h35.332v-80.725h-35.332zm2.965-766.844h29.404V169.7h-29.404z"/></g><path d="M1224.046 148.644s215.323 47.609 215.323 163.326" stroke="#dceeff" stroke-width="15" stroke-linejoin="bevel"/><path d="M1281.112 192.155l-138.809-46.015c-12.422-4.117-19.216-17.651-15.099-30.073l1.247-3.762c4.118-12.422 17.651-19.217 30.074-15.099l138.809 46.014c12.422 4.118 19.216 17.651 15.098 30.074l-1.247 3.762c-4.118 12.422-17.651 19.217-30.073 15.099" class="D"/><g transform="matrix(-1 0 0 1 1426 481)"><g transform="translate(180 38)"><g class="J"><path d="M137.886 68.193c.057 37.166-30.753 67.339-68.816 67.394S.104 105.559.047 68.394 30.8 1.055 68.864.999s68.965 30.028 69.022 67.194"/><path d="M0 68.511l.105 75.053 137.84-.217-.105-75.053z"/></g><path d="M80.019 136.151s-12.931.382-18.442-2.629l17.755 11.148.687-8.519z" class="N"/><g transform="translate(30.739 45.489)"><mask id="Q" class="B"><use xlink:href="#A"/></mask><use fill="#5e93d1" xlink:href="#A"/><g mask="url(#Q)" class="C F"><path d="M.261 9.511h99v110h-99z"/></g></g><path fill="#2437a8" d="M108.129 90.47l7.4 17.94-8.586-.172z"/><path d="M100.25 91.248c-.185 3.584-2.292 6.376-4.708 6.237s-4.225-3.157-4.04-6.741 2.292-6.377 4.708-6.238 4.225 3.158 4.04 6.742m22.686-.573c-.184 3.584-2.292 6.376-4.708 6.237s-4.225-3.157-4.04-6.741 2.292-6.377 4.708-6.237 4.225 3.157 4.04 6.741" class="G"/><path d="M104.837 116.831s-5.594 1.805-11.199-4.427" stroke="#1c295e" class="H"/><path d="M79.998 136.151s-12.931.382-18.442-2.628l17.755 11.147.687-8.519z" fill="#000" opacity=".395"/><path d="M51.206 90.854s55.737-3.085 82.014-37.085c16.186-20.946-77.197-26.513-77.197-26.513l-4.817 63.598z" class="J"/></g><g transform="translate(41 337)"><g transform="translate(0 390.394)"><mask id="R" class="B"><use xlink:href="#B"/></mask><g class="G"><use xlink:href="#B"/><g mask="url(#R)" class="C"><path d="M-11.538 20.183h411v127h-411z"/></g></g></g><g transform="translate(20.192 390.371)"><mask id="S" class="B"><use xlink:href="#C"/></mask><g class="N"><use xlink:href="#C"/><g mask="url(#S)" class="C"><path d="M-4.808.975h335v116h-335z"/></g></g></g><g transform="translate(22.115 .961)"><mask id="T" class="B"><use xlink:href="#D"/></mask><g class="G"><use xlink:href="#D"/><g mask="url(#T)" class="C"><path d="M-2.885.001h337v503h-337z"/></g></g></g><path d="M355.535 466.144l-104.999 37.452s-31.539-94.443-59.991-189.192c-17.768-59.106-35.827-121.702-47.644-169.115-6.509-26.135-11.135-47.663-12.759-61.462C124.815 38.644 151.689 8.221 158.9.961h59.452c4.943 13.356 14.904 42 31.107 95.76l25.23 86.904 80.846 282.519" opacity=".147" class="B"/></g><g transform="translate(112 181)"><path d="M217.302 238.409s-38.833-62.061-40.771-77.454c-2.053-16.309-.21-37.369-.21-37.369l26.223-15.61 6.635 38.818 28.297 88.812m-228.419-.74s-1.229-89.954 4.486-104.768 16.059-34.675 16.059-34.675l30.677 20.51-16.454 26.645-11.341 90.879" class="F"/><path d="M148.907 26.86l4.59 131.12-21.3-.32 1.84-130.31-.739-.54.769.05-16.74-17.2 9.11.6 21.151 1.16c.759 1.03 2.449 3.84 2.25 8.34-.171 3.67-.441 5.45-.641 6.31-.14.6-.25.75-.28.78l-.01.01z" class="O"/><path d="M96.532 81.026l-19.487 29.525" stroke="#ff9929" class="H"/><g transform="translate(116 18.477)"><mask id="U" class="B"><use xlink:href="#E"/></mask><g class="P"><use xlink:href="#E"/><g mask="url(#U)" class="C"><path d="M-12 3.523h70v136h-70z"/></g></g></g><g transform="translate(0 8)"><mask id="V" class="B"><use xlink:href="#F"/></mask><g class="F"><use xlink:href="#F"/><g mask="url(#V)" class="C"><path d="M-11-8h265v296H-11z"/></g></g></g><path d="M32.772 269.596c.55 2.705 1.094 5.26 1.916 6.546 2.326 3.642 11.483 6.238 9.171-.129-3.317-9.137-3.246-12.725-3.379-18.643s-.891-10.98-.891-10.98l-2.921-9.34 1.079-9.01-37.46 3.06s1.271-79.1 16.45-122.18c13.281-37.67 37.51-78.58 56.43-90.49a63.66 63.66 0 0 1 3.381-1.99l-3.73-5.07L113.847 0s-1.26 4.93 3.05 9.23c.129.14.28.28.429.43l16.741 17.2-.77-.05.739.54-1.84 130.31-2.559 182.05-104.88-3.16 8.015-66.954h0z" class="O"/><path d="M218.926 248.707s2.841 10.729 12.588 14.072c3.408 1.169 2.557 14.969 10.911 13.318" opacity=".147" class="H K"/><g transform="translate(4 226)"><mask id="W" class="B"><use xlink:href="#G"/></mask><g class="P"><use xlink:href="#G"/><g mask="url(#W)" class="C"><path d="M-3-4h241v37H-3z"/></g></g></g><g class="O"><path d="M241.827 230.47l-50.52 21.3-20.469-192.23-6.49-34.24 7.469-.76 6.821-3.62 2.429 2.07c26.24 24.08 30.071 112 30.071 112l30.689 95.48z"/><path d="M191.307 251.77l-1.29.55-19.9-66.66 5.95-27.35-22.571-.33-4.589-131.12.009-.01c.031-.03.141-.18.281-.78.2-.86.469-2.64.64-6.31.199-4.5-1.49-7.31-2.25-8.34l-.36-.44.74-6.98 32.36 16.03-1.69.89-6.82 3.62-7.47.76 6.49 34.24 20.47 192.23z"/><path d="M148.916 26.85l.28-.78c-.139.6-.25.75-.28.78m51.761 312.86h-40.82l-6.361-181.729 22.571.329-5.951 27.35 19.901 66.66 1.29-.55z"/></g><g class="H K"><path d="M72.816 11.367s13.51 17.319 28.941 20.396c14.601 2.912 32.311-4.906 32.311-4.906m46.26-6.823s-1.187 8.596-6.8 10.75c-9.836 3.773-22.653-4.578-22.653-4.578" opacity=".205"/><path d="M191.331 251.951L179.926 88.477" class="I"/></g><path d="M167.403 95.942c-.104 3.438-2.49 6.156-5.331 6.071s-5.06-2.943-4.955-6.381 2.49-6.156 5.33-6.07 5.06 2.942 4.956 6.38m-2.563-45.859c-.104 3.438-2.49 6.156-5.33 6.071s-5.06-2.943-4.956-6.381 2.49-6.156 5.331-6.07 5.059 2.942 4.955 6.38m5.124 91.719c-.104 3.438-2.49 6.156-5.331 6.071s-5.059-2.943-4.955-6.381 2.49-6.156 5.33-6.07 5.06 2.942 4.956 6.38" class="I" fill="#000"/><g class="H K"><path opacity=".197" d="M96.532 74.78l-19.487 58.312-8.672 91.795-64.054 5.871"/><path d="M69.789 209.898l-57.826 5.091m179.368 23.42l36.836-16.65" class="I"/></g></g></g><g transform="translate(0 397)"><g transform="translate(283 114)"><path d="M119.749 44.076c0 14.336-9.218 25.957-20.589 25.957S78.573 58.412 78.573 44.076s9.218-25.957 20.588-25.957 20.589 11.621 20.589 25.957" class="J"/><g transform="translate(0 29.963)"><mask id="X" class="B"><use xlink:href="#H"/></mask><g class="F"><use xlink:href="#H"/><g mask="url(#X)" class="C"><path d="M0 0h118v118H0z"/></g></g></g><path fill="#000" opacity=".399" d="M70.167 117.092l-24.375-5.238 24.258 16.423z"/><path fill="#405fd3" d="M89.652 73.443l8.423 20.638-10.094.129z"/><g class="G"><use xlink:href="#O"/><use xlink:href="#O" x="28.304"/></g><path d="M37.104 81.488c-7.233-12.406-17.697-16.19-22.394-17.299-1.873-5.427-3.301-11.72-4.305-18.414C7.715 27.861 20.711 11.516 31.208 6.823c10.626-4.75 28.948-11.332 55.767-2.397 18.03 6.011 29.555-8.38 40.165-2.234 18.13 10.505 1.267 56.498-44.705 44.814-32.884-8.358-33.729-6.261-34.011-.186-.912 19.637-3.967 31.19-11.32 34.668z" class="J"/><use xlink:href="#P" class="B"/><g stroke="#252535" stroke-width="4"><use xlink:href="#P"/><path d="M87.206 74.484c0 6.461-5.227 11.698-11.674 11.698s-11.673-5.237-11.673-11.698a11.69 11.69 0 0 1 11.673-11.699 11.69 11.69 0 0 1 11.674 11.699zm29.394 0c0 6.461-5.227 11.698-11.673 11.698a11.69 11.69 0 1 1 0-23.397A11.69 11.69 0 0 1 116.6 74.484z"/><path d="M92.301 75.026h-5.048m-23.395-.542H35.021"/></g></g><g transform="translate(202 429.242)"><g transform="translate(0 461.395)"><mask id="Y" class="B"><use xlink:href="#I"/></mask><use xlink:href="#I" class="G"/><g mask="url(#Y)" fill="#5e93d1" class="C"><path d="M-9.071 34.938h264v38h-264z"/></g></g><g transform="translate(5.039 465.208)"><mask id="Z" class="B"><use xlink:href="#J"/></mask><g class="N"><use xlink:href="#J"/><g mask="url(#Z)" class="C"><path d="M-5.039-7.028h182v60h-182z"/></g></g></g><g transform="translate(1.008)"><mask id="a" class="B"><use xlink:href="#K"/></mask><use fill="#2f2f3d" xlink:href="#K"/><g mask="url(#a)" class="C P"><path d="M-1.008 1.335h201v493h-201z"/></g></g><path fill="#000" opacity=".198" d="M130.14 123.011l12.752-56.57-9.594 171.506z"/><g transform="translate(7.055 1.335)"><mask id="b" class="B"><use xlink:href="#L"/></mask><g fill="#efefef"><use xlink:href="#L"/><g mask="url(#b)" class="C"><path d="M-2.016 0h86v465h-86z"/></g></g></g></g><g transform="translate(186 212)"><g transform="translate(.156)"><mask id="c" class="B"><use xlink:href="#M"/></mask><g class="F"><use xlink:href="#M"/><g mask="url(#c)" class="C"><path d="M58.844 0h331v285h-331z"/></g></g></g><g transform="translate(0 42.748)"><mask id="d" class="B"><use xlink:href="#N"/></mask><g fill="#72a065"><use xlink:href="#N"/><g mask="url(#d)" class="C"><path d="M0 0h357v231H0z"/></g></g></g><path fill="#000" d="M221.143 153.278l-6.665-26.324 17.996 35.975z" class="I"/><path stroke-width="5" d="M96.986 214.218L65.909 170.17l37.539-56.895" class="I K"/></g></g></g></svg>