<svg xmlns="http://www.w3.org/2000/svg" xmlns:xlink="http://www.w3.org/1999/xlink" width="1270" height="1207" xmlns:v="https://vecta.io/nano"><style><![CDATA[.B{fill:#cce3ff}.C{fill:#d7ebff}.D{fill:#19141e}.E{fill-rule:nonzero}.F{fill:#dceeff}.G{fill:#6ca1ff}.H{fill:#ce3d29}.I{stroke:#19141e}.J{stroke-linecap:round}]]></style><defs><path d="M84.103 59.608H31.18l-20-40.428h92.923l-20 40.428zm21.179-40.428H10c-5.523 0-10-4.294-10-9.59S4.477.001 10 .001h95.282c5.523 0 10 4.293 10 9.59s-4.477 9.59-10 9.59z" id="A"/><path d="M63.286 124.415l-.911.011c-20.042 0-36.289-16.248-36.289-36.29s16.247-36.29 36.289-36.29c4.281 0 8.389.741 12.202 2.102C92.459 21.773 126.795 0 166.216 0c37.604 0 70.581 19.811 89.063 49.565 3.665-1.245 7.594-1.921 11.681-1.921 20.042 0 36.29 16.248 36.29 36.29 0 19.062-14.698 34.691-33.378 36.174-7.421 50.591-51.002 89.431-103.655 89.431-51.147 0-93.734-36.652-102.929-85.124h0zM.076 224.623c-1.101-14.748 9.963-27.595 24.711-28.696l37.051-2.764c14.748-1.101 27.595 9.963 28.695 24.71l6.302 84.456c1.1 14.748-9.963 27.595-24.71 28.696l-37.052 2.765c-14.748 1.1-27.595-9.964-28.695-24.711L.076 224.623zm241.64-6.641c.078-14.789 12.131-26.713 26.919-26.634l37.154.197c14.788.08 26.713 12.132 26.634 26.92l-.451 84.689c-.078 14.789-12.131 26.714-26.919 26.635l-37.154-.198c-14.788-.079-26.713-12.131-26.634-26.92l.451-84.689z" id="B"/><path d="M123.486 13.578C124.485 5.916 131.037 0 138.971 0a15.62 15.62 0 0 1 15.616 15.617 15.62 15.62 0 0 1-15.616 15.617c-6.308 0-11.743-3.74-14.207-9.124l-10.891-8.333-14.82 11.338-14.809-11.338-14.813 11.338-14.809-11.338-14.812 11.338-8.176-6.259c-1.492 7.07-7.765 12.377-15.279 12.377A15.62 15.62 0 0 1 .739 15.617 15.62 15.62 0 0 1 16.356 0c7.031 0 12.976 4.647 14.934 11.036l8.522 6.524L54.623 6.222 69.432 17.56 84.245 6.222 99.055 17.56l14.818-11.338 9.613 7.355zm9.844 145.006H20.92c-8.95 0-16.205-7.255-16.205-16.205V68.123A16.21 16.21 0 0 1 20.92 51.917h112.41a16.21 16.21 0 0 1 16.205 16.206v74.256c0 8.95-7.255 16.205-16.205 16.205zm-10.478 14.698H31.396a7.35 7.35 0 0 1-7.349-7.349 7.35 7.35 0 0 1 7.349-7.349h91.456a7.35 7.35 0 0 1 7.349 7.349 7.35 7.35 0 0 1-7.349 7.349z" id="C"/></defs><g transform="translate(-365 -92)" fill="none" fill-rule="evenodd"><g transform="matrix(-1 0 0 1 1409 760)"><path d="M708.022 201.246l42.437 197.679h28.073l-42.437-197.679z" class="B"/><path d="M25.785 201.245h726.637v-30.579H25.785zm572.562 110.742h141.671v-30.58H598.347z" class="C"/><path d="M175.921 0l-31.846 170.666h38.431L214.352 0zm553.903 0l-31.846 170.666h38.43L768.254 0z" class="B"/><path fill="#b6d4ff" d="M582.025 201.246h170.397v-30.579H582.025z"/><path d="M806.581 111.25l-5.697 30.586h-38.437l5.708-30.586z" class="B"/><path d="M768.156 111.25l-5.708 30.586H115.711l5.708-30.586z" class="C"/><path d="M816.957 55.627l-5.697 30.575h-38.437l5.708-30.575z" class="B"/><path d="M778.532 55.627l-5.708 30.575H126.087l5.708-30.575z" class="C"/><path d="M788.907.004l-5.696 30.576h38.425L827.333.004z" class="B"/><path d="M142.18.004l-5.708 30.576H783.21L788.907.004z" class="C"/><path d="M598.347 201.246L555.91 398.925h28.074l42.436-197.679zm-446.235-.001l42.437 197.679h28.072l-42.436-197.679z" class="B"/><path d="M42.436 311.986h141.672v-30.579H42.436z" class="C"/><path d="M42.436 201.245L0 398.924h28.074l42.435-197.679z" class="B"/></g><path d="M573.246 888.752l-18.603 269.465H391.276l-18.601-269.465c-.587-8.439 6.101-15.605 14.558-15.605h171.454c8.457 0 15.146 7.166 14.559 15.605" class="F"/><path d="M472.961 933.919v181.725m57.95-181.725l-12.636 181.725M415.011 933.919l12.636 181.725" stroke="#b6d4ff" stroke-width="16" class="J"/><path d="M580.227 890.088H364.999v-11.427c0-10.33 8.374-18.704 18.705-18.704h177.819c10.33 0 18.704 8.374 18.704 18.704v11.427z" class="F"/><path d="M372.638 896.71h200.644" stroke="#cce3ff" stroke-width="14"/><g class="F"><path d="M433.37 863.915h8.693v-19.301h-8.693zm67.416-1.805h8.693v-19.301h-8.693z"/><path d="M433.37 847.692h76.109V837H433.37z"/></g><path d="M1595.369 894.774h16V182.911h-16z" class="C"/><path d="M1430.973 201.028l-126.62-41.974c-5.289-1.753-8.183-7.516-6.429-12.805l6.316-19.054c1.754-5.289 7.516-8.182 12.805-6.429l126.62 41.974c5.289 1.753 8.183 7.516 6.429 12.805l-6.316 19.054c-1.753 5.289-7.516 8.182-12.805 6.429" fill="#ecf6ff"/><g class="B"><path d="M1572.704 1158.7h61.33V922.773h-61.33z"/><path d="M1585.703 966.772h35.332v-80.725h-35.332zm2.965-766.844h29.404V165.7h-29.404z"/></g><path d="M1388.046 144.644s215.323 47.609 215.323 163.326" stroke="#dceeff" stroke-width="15" stroke-linejoin="bevel"/><path d="M1445.112 188.155l-138.809-46.015c-12.422-4.117-19.216-17.651-15.099-30.073l1.247-3.762c4.118-12.422 17.651-19.217 30.074-15.099l138.809 46.014c12.422 4.118 19.216 17.651 15.098 30.074l-1.247 3.762c-4.118 12.422-17.651 19.217-30.073 15.099" class="B"/><g transform="translate(700 607)"><g transform="translate(36 336.235)"><path d="M420.82 355.325H0c1.944-49.952 32.611-71.294 79.38-72.475 30.872-83.699 98.515 1.694 103.384-64.512 5.721-77.857 7.366-169.619 7.366-169.619l39.88.661 10.24 149.214c4.9 70.895 54.82 5.146 120.39 48.11 33.099 21.689 31.623 74.157 31.623 74.157s28.557 1.43 28.557 34.464" fill="#b5b8bc"/><g fill="#d7dadd"><path d="M144.59 355.325H41.37c4.49-22.152 23.66-38.31 46.24-40.525a55.76 55.76 0 0 1 13.28.326c2.59.384 5.11.93 7.55 1.649 6.69 1.967 12.75 5.15 17.93 9.254 9.35 7.375 15.87 17.731 18.22 29.296m229.41 0h-55.86c2.29-10.194 9.58-18.45 19.17-21.586a27.34 27.34 0 0 1 7.14-1.323c1.43-.077 2.85-.038 4.23.105 12.17 1.237 22.34 10.462 25.32 22.804"/><path d="M283.18 355.325H123.56c-.66-6.31-.51-12.792.53-19.342a75.72 75.72 0 0 1 2.28-9.954c11.04-36.497 48.85-60.395 89.09-54.526 9.51 1.39 18.37 4.326 26.35 8.506 27.67 14.461 44.74 43.843 41.37 75.316M156.442 210.177c-1.309 8.25-9.344 13.919-17.946 12.664s-14.515-8.96-13.206-17.209 9.343-13.919 17.946-12.664 14.515 8.96 13.206 17.209"/><path d="M270.833 213.041c-.54 3.404-3.856 5.744-7.406 5.226s-5.991-3.698-5.45-7.103 3.856-5.744 7.406-5.226 5.99 3.698 5.45 7.103m187.049 103.672c-1.247 7.856-8.899 13.256-17.092 12.061s-13.824-8.534-12.577-16.39 8.899-13.257 17.092-12.061 13.824 8.534 12.577 16.39"/></g><g transform="translate(153.989)"><mask id="D" fill="#fff"><use xlink:href="#A"/></mask><use xlink:href="#A" class="G"/><g mask="url(#D)" class="E H"><path d="M.011 0h115v59h-115z"/></g></g><path d="M237.923 59.607H185l-20-40.428h92.923z" fill="#000" opacity=".402"/></g><g transform="translate(86 205)"><g class="I"><path d="M43.078 388.378l-21.074-22.853 30.553-39.266 36.681 31.823-13.229 27.939m195.927.473l-18.891-24.687 34.023-36.301 33.61 35.049-15.733 26.61" stroke-width="15"/><path d="M287.444 221.706l-15.145-111.038M45.56 218.324l15.966-110.922" stroke-width="27" class="J"/></g><path d="M224.007 156.422H180.89c-6.425 0-11.633-5.208-11.633-11.633v-43.117c0-6.424 5.208-11.632 11.633-11.632h43.117c6.424 0 11.632 5.208 11.632 11.632v43.117c0 6.425-5.208 11.633-11.632 11.633" class="D"/><path d="M213.007 156.422H180.89c-6.425 0-11.633-5.208-11.633-11.633v-43.117c0-6.424 5.208-11.632 11.633-11.632h32.117c6.424 0 11.632 5.208 11.632 11.632v43.117c0 6.425-5.208 11.633-11.632 11.633" fill="#405fd3"/><g transform="translate(0 18.461)"><mask id="E" fill="#fff"><use xlink:href="#B"/></mask><use xlink:href="#B" class="G"/><g mask="url(#E)" class="E H"><path d="M0 7.539h332v326H0z"/></g></g><path d="M126.21 26.461h80.013V0H126.21zm86.797 129.961c6.424 0 11.632-5.208 11.632-11.633v-43.117c0-6.424-5.208-11.632-11.632-11.632h11c6.424 0 11.632 5.208 11.632 11.632v43.117c0 6.425-5.208 11.633-11.632 11.633h-11z" class="D"/><path d="M16 241.409l6.652 84.48L16 241.409zM32.488 240l6.652 84.48L32.488 240z" stroke="#000" stroke-width="9" opacity=".402" stroke-linejoin="round"/><g fill="#000"><path d="M213.05 156.382h-32.117c-6.425 0-11.633-5.208-11.633-11.633v-43.117c0-6.424 5.208-11.632 11.633-11.632h32.117c6.424 0 11.632 5.208 11.632 11.632v43.117c0 6.425-5.208 11.633-11.632 11.633zm-26.623-36.527a8.43 8.43 0 0 0 8.428-8.428 8.43 8.43 0 0 0-8.428-8.427 8.43 8.43 0 0 0-8.427 8.427 8.43 8.43 0 0 0 8.427 8.428zm23.949 0a8.43 8.43 0 0 0 8.428-8.428 8.43 8.43 0 0 0-8.428-8.427 8.43 8.43 0 0 0-8.428 8.427 8.43 8.43 0 0 0 8.428 8.428zm-23.949 24.358a8.43 8.43 0 0 0 8.428-8.428 8.43 8.43 0 0 0-8.428-8.427 8.43 8.43 0 0 0-8.427 8.427 8.43 8.43 0 0 0 8.427 8.428z" opacity=".398"/><path d="M25 106.29c0 20.042 16.247 36.29 36.289 36.29s36.29-16.248 36.29-36.29S81.331 70 61.289 70 25 86.248 25 106.29" opacity=".404"/><path d="M242.451 236.634L242 321.323c-.079 14.789 11.846 26.841 26.634 26.92l37.154.198c14.788.079 26.841-11.846 26.919-26.635l.451-84.689c.079-14.788-11.846-26.84-26.634-26.92L269.37 210c-14.788-.079-26.841 11.845-26.919 26.634" opacity=".399"/><path d="M255 68.421c3.665-1.245 7.594-1.921 11.681-1.921 20.042 0 36.29 16.248 36.29 36.29 0 19.062-14.698 34.691-33.378 36.174a105.63 105.63 0 0 0 1.115-15.338c0-20.259-5.75-39.175-15.707-55.205h0z" opacity=".398"/><path d="M186.427 144.205a8.43 8.43 0 0 0 8.428-8.428 8.43 8.43 0 0 0-8.428-8.427 8.43 8.43 0 0 0-8.427 8.427 8.43 8.43 0 0 0 8.427 8.428" opacity=".598"/></g></g><g transform="translate(156 46)"><path d="M160.971 97.128V27.282" stroke-width="7" class="I"/><path d="M167.256 126.774h-28.88V83.727h28.88c11.838 0 21.523 9.685 21.523 21.523s-9.685 21.524-21.523 21.524" class="D"/><g transform="translate(22)"><mask id="F" fill="#fff"><use xlink:href="#C"/></mask><use xlink:href="#C" class="G"/><g mask="url(#F)" class="E H"><path d="M-1 0h156v173H-1z"/></g></g><g fill="#000"><path opacity=".404" d="M76.622 13.778L61.811 25.116l-8.175-6.199-.385-7.908 8.561 6.551L76.623 6.222 91.432 17.56l14.813-11.338 14.809 11.338 14.818-11.338 9.481 7.555 1.577 8.384-11.058-8.384-14.82 11.338-14.809-11.338-14.813 11.338z" class="E"/><path d="M144.852 173.282H53.396a7.35 7.35 0 0 1-7.349-7.349 7.35 7.35 0 0 1 7.349-7.349h91.456a7.35 7.35 0 0 1 7.349 7.349 7.35 7.35 0 0 1-7.349 7.349" opacity=".396"/></g><g class="D"><path d="M21.524 126.774h28.879V83.727H21.524C9.686 83.727 0 93.412 0 105.25s9.686 21.524 21.524 21.524m139.447-21.524c0 16.46-10.66 29.804-23.809 29.804s-23.808-13.344-23.808-29.804 10.659-29.804 23.808-29.804 23.809 13.344 23.809 29.804"/><path d="M125.974 135.054h11.188V75.446h-11.188z"/></g><path d="M149.783 105.25c0 16.46-10.659 29.804-23.809 29.804s-23.808-13.344-23.808-29.804 10.659-29.804 23.808-29.804 23.809 13.344 23.809 29.804" fill="#fff"/><path d="M138.162 103.25c0 5.794-3.752 10.492-8.381 10.492s-8.381-4.698-8.381-10.492 3.752-10.492 8.381-10.492 8.381 4.698 8.381 10.492" class="D"/><path d="M38.355 97.128V30.5" stroke-width="7" class="I"/></g></g></g></svg>