<svg xmlns="http://www.w3.org/2000/svg" xmlns:xlink="http://www.w3.org/1999/xlink" width="1337" height="1039" xmlns:v="https://vecta.io/nano"><style><![CDATA[.B{fill:#fff}.C{fill:#cce3ff}.D{fill:#dceeff}.E{stroke:#dceeff}.F{fill:#b6d4ff}.G{stroke-width:5}.H{fill-rule:nonzero}.I{fill:#ecf6ff}.J{stroke-width:8}.K{stroke-width:9}.L{fill:#5e93d1}]]></style><defs><path d="M70.979 116.29l-.861-29.689s36.123 2.873 43.851-1.137c0 0 9.443-48.598-1.82-75.51l-.228-1.048L35.691 0l-4.742 43.159c-2.568-7.564-23.29-15.613-28.83-4.781C-9.886 61.85 33.038 77.655 33.038 77.655l-4.358 38.992" id="A"/><path id="B" d="M.021.51h85.885v29.473H.021z"/><path d="M289.578 83.598l6.091 19.62s47.566-19.504 72.033-12.104l-82.45 47.728-21.465-53.883 25.791-1.361zM67.223 24.72L40.552 49.158s3.962 16.261 5.632 31.598c2.417 22.202.931 42.243.931 42.243L.876 42.35 57.959 0l9.265 24.72z" id="C"/><path d="M240.619 89.232l25.498-2.295 5.019 16.305-21.104 8.795-9.413-22.805zM33.035 0l2.932 30.971-19.948 18.211L.18 24.843 33.035 0z" id="D"/><path d="M132.541 110.131L98.676 0h86.91 45.747c.086 26.939-3.087 71.311-19.883 121.837l53.325 251.161c.663 3.154-.458 6.303-2.734 8.341l8.103 28.771-33.119 9.642-7.889-26.811-.206.068c-4.696 1.551-9.752-1.055-11.198-5.761l-52.685-171.351c-5.941 8.759-12.415 17.501-19.452 26.182-44.553 54.961-72.321 84.603-86.602 98.862-5.098 5.1-13.029 5.349-18.408 1.182l-20.365 16.769L0 331.078l20.126-16.573c-3.226-5.172-2.695-11.898 1.428-16.488 20.52-22.897 78.27-92.822 110.987-187.886h0z" id="E"/><path id="F" d="M126.785 386.281l-13.949 4.951-55.971-194.064-34.531-119.72L0 .001h28.31l4.977 19.531 38.352 150.426z"/><path d="M285.217 65.731c-11.036 21.67-49.778 92.806-77.398 81.46-20.679-8.496-45.435-78.929-45.435-78.929l40.241-23.949 18.082 48.402 36.921-40.111c-1.254-7.948-2.258-18.338.241-22.001 4.255-6.234 25.783-25.442 25.783-25.442l3.92 32.544.685-2.743c-.001-.153.036-.318.114-.497l.023-.052 1.585-6.351c-.665-.336-.938-.814-.65-1.477.233-.538.743-1.127 1.454-1.746l5.411-21.682 4.379 1.973c4.187-.863 19.351 9.445 19.581 9.602l.003.002c3.088 1.994-4.256 34.955-10.221 41.078-4.244 4.356-17.449 8.112-24.719 9.917h0zM38.686 212.706l2.465 4.679s2.231 3.823 4.567 10.497 1.365 10.756 6.417 21.237c5.735 11.898-4.523 6.992-8.201 1.798-2.871-4.054-2.545-9.533-6.267-11.988-1.247 1.99-4.097 4.835-5.687 22.002-.285 3.079 1.111 13.066 1.111 13.066.03 2.992.414 9.233-2.993 10.185-.844.237-1.943-.697-1.943-.697s.33 3.905-3.151 4.682c-1.369.305-4.088-8.126-4.088-8.126s-.414 4.282-3.014 4.758c-.735.134-9.413-24.294-9.413-24.294l.522 5.517 1.152 5.651s-.093 3.042-2.536 3.58c-.97.214-2.832-4.859-4.577-10.828C.336 255.139.391 248.16 1.19 241.22c.964-8.387.535-11.204 4.268-21.488.446-1.23 1.046-2.642 1.715-4.094-2.048-17.681-7.82-69.434-7.113-85.323.857-19.271 21.275-62.052 21.275-62.052l41.453 23.174-22.848 41.63-1.254 79.639h0zm99.172-191.7c-24.01-1.412-34.14-16.334-36.45-20.37 15.234-1.052 16.826-.898 37.118 1.204 8.23.853 14.002 2.604 19.592 4.135 1.21 4.106 2.93 16.383-20.26 15.031z" id="G"/><path d="M189.245 43.714l.144-.028 16.354 37.597-23.342 13.604-4.873 82.087H44.538l-2.23-80.952L.258 64.578s19.83-39.765 53.76-55.592c10.97-5.12 21.03-7.536 30.39-8.46.767-.076.162-.054.255.308.053.205.238.512.453.859s.215.235 1.268 1.789 2.615 3.103 4.97 5.505c1.953 1.993 4.651 3.944 7.298 5.423 3.014 1.684 5.972 2.809 7.869 3.607 1.713.721 3.157 1.098 4.553 1.43 3.943.936 7.013 1.227 13.275 1.553.76.04 5.16-.286 5.934-.44 1.104-.219 2.093-.418 3.341-.758s4.35-1.788 6.403-4.338c.871-1.082 1.698-4.639 1.444-7.259s-1.398-2.626-.353-2.34c18.37 5 35.731 15.31 45.88 33.592a108.29 108.29 0 0 1 2.247 4.258z" id="H"/><path id="I" d="M.887.234h44.282v72.363H.887z"/><path id="J" d="M.904.234h19.171v72.363H.904z"/><path id="K" d="M340.057.5l-20.524 205.003H103.339L123.863.5z"/><path id="L" d="M332.407.5l-20.523 205.003H91.671L112.194.5z"/><path id="M" d="M33.757 629.417h254.401v-77.858H33.757z"/><path id="N" d="M146.222 293.276a14.74 14.74 0 0 0 14.736 14.735 14.74 14.74 0 0 0 14.736-14.735 14.74 14.74 0 0 0-14.736-14.735 14.74 14.74 0 0 0-14.736 14.735"/><path id="O" d="M1431.488 271.398h25.235V175h-25.235z"/><path id="P" d="M1318.343 979.54h20.124v-76.874h-20.124z"/><path id="Q" d="M1388.781 473.068c-1.56 13.11-8.2 24.67-17.899 32.64h-63.431c-9.699-7.97-16.34-19.53-17.909-32.64h99.239z"/><path id="R" d="M1356.105 691.994c0 19.295-2.057 36.943-5.487 50.63h-35.944c-3.423-13.687-5.488-31.335-5.488-50.63"/><path id="S" d="M1354.327 700.472c8.15 1.609 13.453 9.521 11.844 17.671s-9.521 13.453-17.671 11.844"/><path id="T" d="M1068.865 300.747h125.255V195.499h-125.255z"/><path id="U" d="M1061.5 300.889h125.254V195.641H1061.5z"/><path id="V" d="M1067.008 486.055h125.254V323.5h-125.254z"/><path id="W" d="M80.613 76.527c.502 2.768-1.339 5.416-4.111 5.917a5.1 5.1 0 0 1-5.924-4.104c-.502-2.768 1.338-5.417 4.11-5.918a5.1 5.1 0 0 1 5.925 4.105"/></defs><g transform="translate(-252 -175)" fill="none" fill-rule="evenodd"><g transform="matrix(-1 0 0 1 693 287)"><use xlink:href="#K" class="D"/><use xlink:href="#K" class="E G"/><use xlink:href="#L" class="B"/><use xlink:href="#L" class="E G"/><path d="M286.371 39.703l-12.674 126.598h-135.99l12.674-126.598z" class="D"/><path d="M33.757 788.557h382.741V754.47H33.757z" class="F"/><path d="M23.757 788.557h18.325V486.855H23.757zm255.26 0h18.546V486.855h-18.546z" class="D"/><g class="C"><path d="M23.757 766.075h18.325v-11.604H23.757zm255.26 0h18.547v-11.604h-18.547zm61.317-664.257c3.991 34.677-8.987 64.307-8.987 64.307s-19.45-26.593-23.442-61.27 8.989-64.307 8.989-64.307 19.449 26.593 23.44 61.27"/><path d="M331.913 129.641c17.354 31.15 16.857 63.007 16.857 63.007s-28.633-18.65-45.987-49.8-16.857-63.007-16.857-63.007 28.633 18.65 45.987 49.8"/><path d="M356.343 105.539c-4.438 34.633-24.229 61.02-24.229 61.02s-12.596-29.765-8.158-64.398 24.23-61.018 24.23-61.018 12.595 29.763 8.157 64.396"/><path d="M370.792 130.57c-14.29 32.394-41.02 53.215-41.02 53.215s-3.562-31.696 10.727-64.089 41.021-53.215 41.021-53.215 3.561 31.696-10.728 64.089"/></g><path d="M293.371 139.967h82.026l-8.66 64.626h-64.706z" class="I"/><path d="M14.59 754.919h292.735V229.804H14.59z" class="D"/><g class="C"><path d="M33.757 728.488h254.401V650.63H33.757z"/><use xlink:href="#M"/><use xlink:href="#M" y="-99.071"/><use xlink:href="#M" y="-198.141"/><path d="M33.757 332.206h254.401v-77.859H33.757z"/></g><path d="M307.325 754.919h116.703V229.804H307.325z" class="F"/><path d="M0 229.804h319.526v-25.081H0z" class="C"/><g class="F"><path d="M319.235 229.804h121.552v-25.081H319.235z"/><use xlink:href="#N"/><use xlink:href="#N" y="99.07"/><path d="M146.222 491.418a14.74 14.74 0 0 0 14.736 14.735 14.74 14.74 0 0 0 14.736-14.735 14.74 14.74 0 0 0-14.736-14.736 14.74 14.74 0 0 0-14.736 14.736"/><use xlink:href="#N" y="297.212"/><use xlink:href="#N" y="396.282"/></g></g><path d="M1247 1074.576h26.534v-86.202H1247zm221.017 0h26.534v-86.202h-26.534z" class="D"/><g class="F"><path d="M1341.112 1074.576h26.533v-86.202h-26.533zm221.016 0h26.534v-86.202h-26.534z"/><path d="M1340.959 1003.669h247.549V271.411h-247.549z"/></g><g class="D"><path d="M1247.499 1003.669h247.551V271.411h-247.551z"/><path d="M1415.966 221.618c0 21.04-11.115 39.5-27.787 49.793h-61.204c-16.673-10.293-27.788-28.753-27.788-49.793 0-9.791 2.409-19.009 6.655-27.104h103.47c4.245 8.095 6.654 17.313 6.654 27.104"/><use xlink:href="#O"/></g><g class="C"><use xlink:href="#O" x="-25.236"/><use xlink:href="#O" x="25.235"/></g><path d="M1549.748 271.398h-67.79V175h67.79a5.13 5.13 0 0 1 5.128 5.128v86.142a5.13 5.13 0 0 1-5.128 5.128" class="F"/><path d="M1504.197 213.314h28.441v-9.545h-28.441zM1269.659 979.54h203.326V768.779h-203.326z" class="C"/><path d="M1269.66 979.54h70.147V768.779h-70.147z" class="F"/><path d="M1269.659 742.624h203.326v-210.76h-203.326z" class="C"/><path d="M1269.66 742.624h70.147v-210.76h-70.147z" class="F"/><path d="M1269.659 505.708h203.326v-210.76h-203.326z" class="C"/><path d="M1269.66 505.708h70.147v-210.76h-70.147z" class="F"/><use xlink:href="#P" class="D"/><g class="C"><use xlink:href="#P" x="-20.124"/><use xlink:href="#P" x="20.124"/></g><path d="M1411.611 979.54h-53.021v-76.874h53.021a5.13 5.13 0 0 1 5.129 5.128v66.617a5.13 5.13 0 0 1-5.129 5.129" class="F"/><path d="M1367.208 921.476h40.915v-7.611h-40.915zm9.117 11.743h22.681v-7.611h-22.681z" class="C"/><g class="D"><use xlink:href="#Q"/><path d="M1388.781 445.82c-2.952 24.777-24.042 44-49.618 44s-46.666-19.223-49.619-44h99.237z"/><use xlink:href="#Q" y="-54.456"/><path d="M1388.781 391.363c-2.952 24.778-24.042 44.001-49.618 44.001s-46.666-19.223-49.619-44.001h99.237z"/></g><use xlink:href="#R" class="I"/><use xlink:href="#S" stroke="#ecf6ff" class="J"/><use xlink:href="#R" x="72" class="I"/><use xlink:href="#S" x="64.208" stroke="#ecf6ff" class="J"/><g transform="matrix(-1 0 0 1 983 237)"><path d="M155.402 71.763c0 39.081-31.682 70.763-70.764 70.763s-70.762-31.682-70.762-70.763S45.557 1 84.638 1s70.764 31.681 70.764 70.763" class="C"/><path d="M141.527 71.763c0 39.081-31.683 70.763-70.764 70.763S.001 110.844.001 71.763 31.682 1 70.763 1s70.764 31.681 70.764 70.763" class="D"/><path d="M124.387 71.758c0 27.622-20.877 50.36-47.702 53.307a53.82 53.82 0 0 1-5.916.322c-29.622 0-53.63-24.007-53.63-53.629 0-29.611 24.008-53.619 53.63-53.619a53.82 53.82 0 0 1 5.916.323c26.825 2.947 47.702 25.685 47.702 53.296" class="C"/><path d="M124.387 71.758c0 27.622-20.877 50.36-47.702 53.307-26.837-2.947-47.714-25.685-47.714-53.307 0-27.611 20.877-50.349 47.714-53.296 26.825 2.947 47.702 25.685 47.702 53.296" class="I"/><g stroke="#cce3ff" class="J"><path d="M73.089 41.943l17.375 37.895"/><path d="M92.119 63.951l-38.06 41.37"/></g></g><use xlink:href="#T" class="D"/><use xlink:href="#T" class="E G"/><use xlink:href="#U" class="B"/><use xlink:href="#U" class="E G"/><g class="D"><path d="M1082.833 279.145h80.803v-62.043h-80.803z"/><use xlink:href="#V"/></g><use xlink:href="#V" class="E G"/><path d="M1060.5 486.055h122.821V323.5H1060.5z" class="B"/><path d="M1060.5 486.055h122.821V323.5H1060.5z" class="E G"/><path d="M1086.072 455.364h66.02v-101.47h-66.02z" class="D"/><path d="M1004.854 690.334c0 30.56-18.58 55.333-41.5 55.333s-41.5-24.773-41.5-55.333 18.58-55.333 41.5-55.333 41.5 24.773 41.5 55.333" class="C"/><path d="M963.665 980.963V693.147" class="E K"/><path d="M918.971 771.617c19.597 19.598 23.569 47.399 8.871 62.098s-42.5 10.726-62.098-8.871-23.568-47.4-8.871-62.098 42.5-10.726 62.098 8.871m139.93 40.264c15.803 15.803 11.533 45.695-9.538 66.766s-50.962 25.34-66.765 9.537" class="C"/><path d="M1037.611 839.719l-72.718 72.926m51.706-142.665l-53.142 52.517m-55.179 62.76l55.517 56.142m-74.654-146.008l74.213 75.097" class="E K"/><path d="M985.918 1079.809h-44.507c-34.185 0-62.154-27.969-62.154-62.154v-58.486h168.815v58.486c0 34.185-27.969 62.154-62.154 62.154" class="I"/><path d="M1048.072 991.676H879.257m168.815 32.606H879.257" class="E K"/><g transform="translate(447 330)"><g transform="translate(283 111)"><use xlink:href="#A" transform="translate(0 32.603)" class="L"/><path fill="#000" opacity=".4" d="M70.118 119.203l-24.357-5.216 24.24 16.355z"/><path fill="#2437a8" d="M90.21 70.687l8.417 20.552-10.087.128z"/><g fill="#0d0b6d"><use xlink:href="#W"/><use xlink:href="#W" x="26.474"/></g><path d="M79.745 97.186s3.526 5.71 10.509 5.226" class="B"/><path d="M79.745 97.186s3.526 5.71 10.509 5.226" stroke="#252535" stroke-width="4"/><path d="M31.409 76.222c-5.692-5.894-11.887-8.391-15.645-9.428l.717-14.875 35.808-6.236c-2.468 16.594-12.052 25.648-20.88 30.539h0z" fill="#eacb47"/><path d="M114.261 48.36c-3.226-3.065-24.252-4.015-49.527-2.071-5.879.452-11.515 1.022-16.726 1.682-17.229 2.161-29.906 5.235-31.969 7.939C13.75 22.129 34.464 2.011 61.586.14c17.793-1.23 33.929 5.705 43.588 20.154 4.943 7.405 8.195 16.791 9.088 28.066" fill="#393954"/><g transform="translate(47.986 19.046)"><mask id="X" class="B"><use xlink:href="#B"/></mask><path d="M66.683 29.983h-.009c-.034-.235-.173-.461-.398-.669-3.226-3.065-24.252-4.015-49.527-2.071-5.88.452-11.515 1.022-16.726 1.682 7.413-7.035 20.975-18.156 36.972-23.147 6.841-2.134 13.778-3.689 20.194-4.53 15.573-2.062 28.068.054 28.692 8.129.806 10.507-16.509 19.304-19.197 20.607" fill="#161629" mask="url(#X)"/></g></g><g transform="translate(137 430.237)"><g transform="translate(0 314.078)"><mask id="Y" class="B"><use xlink:href="#C"/></mask><use fill="#0d0b6d" xlink:href="#C"/><g mask="url(#Y)" fill="#2f2f3d" class="H"><path d="M-14.019 15.377h382v124h-382z"/></g></g><g transform="translate(24.533 314.054)"><mask id="Z" class="B"><use xlink:href="#D"/></mask><g fill="#cf3e83"><use xlink:href="#D"/><g mask="url(#Z)" class="H"><path d="M-11.39 15.4h302v97h-302z"/></g></g></g><g transform="translate(28.547)"><mask id="a" class="B"><use xlink:href="#E"/></mask><use fill="#101016" xlink:href="#E"/><g mask="url(#a)" fill="#2f2f3d" class="H"><path d="M.453 0h279v423h-279z"/></g></g><path d="M257.684 392.942l-.206.068c-4.696 1.551-9.752-1.055-11.198-5.761l-52.685-171.351-32.506-105.765L127.223 0h86.91l25.864 121.837 53.325 251.161c.663 3.154-.458 6.303-2.734 8.341l8.103 28.771-33.119 9.642-7.889-26.811z" opacity=".099" class="B"/><g transform="translate(148.663)"><mask id="b" class="B"><use xlink:href="#F"/></mask><use fill="#efefef" xlink:href="#F"/><g mask="url(#b)" fill="#ce3d29" class="H"><path d="M.289 0h126v391h-126z"/></g></g></g><g transform="translate(203 232.877)"><g transform="translate(0 20.766)"><mask id="c" class="B"><use xlink:href="#G"/></mask><g fill="#e576c6"><use xlink:href="#G"/><g mask="url(#c)" class="H"><path d="M0 .111h321v288H0z"/></g></g></g><g transform="translate(17 20.877)"><mask id="d" class="B"><use xlink:href="#H"/></mask><use xlink:href="#H" class="L"/><g mask="url(#d)" fill="#efefef" class="H"><path d="M0 0h206v177H0z"/></g></g><path stroke="#000" opacity=".201" d="M59.306 116.895l10.667 7.218 25.641-29.772" class="G"/><g transform="translate(270 .761)"><mask id="e" class="B"><use xlink:href="#I"/></mask><path d="M32.834 63.507l-1.858 9.089H.887L15.08.233h30.089l-5.511 28.098-5.917-2.735-1.843-.509-1.451.081-.629.428v1.758l6.432 9.224-4.92 2.138-7.57 3.96-2.187 1.51-.847.783-.692.618-.441.531-.265.475-.114.616.114.273.132.21.191.189 2.481.874 5.66-1.546h5.594l-7.467 1.546L21 51.692l-1.672 1.572-.945 1.155v1.057l1.651.741 10.414-1.192L27 56.894l-2.285 1.413-2.095 1.078L21 61.469v1.029l.574.604 1.454.771h2.218 4.468l3.119-.366z" mask="url(#e)" class="L"/></g><g transform="translate(265 .761)"><mask id="f" class="B"><use xlink:href="#J"/></mask><path fill="#020101" mask="url(#f)" d="M5.883 72.597H.904L15.097.233h4.978z"/></g><path d="M290.257 9.396c-.416 2.114-1.649 3.653-2.754 3.438s-1.663-2.103-1.247-4.216 1.649-3.653 2.754-3.439 1.663 2.104 1.247 4.217" fill="#020101"/></g></g></g></svg>