<svg xmlns="http://www.w3.org/2000/svg" xmlns:xlink="http://www.w3.org/1999/xlink" width="1924" height="1045" xmlns:v="https://vecta.io/nano"><style><![CDATA[.B{fill:#cce3ff}.C{fill:#fff}.D{fill:#dceeff}.E{fill-rule:nonzero}.F{fill:#b6d4ff}.G{fill:#ecf6ff}.H{stroke:#dceeff}.I{fill:#5e93d1}.J{stroke-width:5}.K{fill:#020101}.L{fill:#e576c6}.M{fill:#0d0b6d}.N{fill:#19141e}.O{fill:#cf3e83}.P{stroke-width:9}.Q{fill:#a47ef1}]]></style><defs><path d="M70.34 114.774l-.853-29.302s35.798 2.835 43.455-1.122c0 0 9.359-47.964-1.803-74.526l-.226-1.034L35.37 0l-3.432 44.246C29.394 36.781 7.589 27.187 2.1 37.878-9.797 61.044 32.74 76.642 32.74 76.642l-4.319 38.484" id="A"/><path d="M360.762 114.958l6.967 22.46s54.408-22.327 82.395-13.855l-94.31 54.637-24.552-61.683 29.5-1.558zM76.758 28.761L44.966 55.283s3.65 18.806 4.732 36.433c1.565 25.515-1.212 48.352-1.212 48.352L0 45.38 67.503 0l9.255 28.761z" id="B"/><path d="M302.756 116.439l28.164-7.617 8.747 28.641-24.141 10.069-12.771-31.094zM38.997 0l1.681 35.571-23.774 19.76L.118 26.654 38.997 0z" id="C"/><path d="M162.207 109.138c-7.775-25.623-13.267-44.704-15.072-53.037-8.025-37.048-8.008-54.755-8.008-56.1h27.821 104.812c-.57 9.91 1.081 36.19-2.652 72.577l81.383 363.038 8.213-1.432 7.145 28.217-89.017 17.766-10.845-29.816 5.318-.927-63.004-193.688c-3.142 5.232-6.439 10.482-9.899 15.744-46.913 71.34-93.736 112.617-119.387 132.008l3.791 5.422-25.731 16.369L.489 344.773l24.965-17.889 4.21 6.021c30.452-28.011 91.282-93.874 127.144-199.69 2.404-7.088 4.138-15.249 5.399-24.077h0z" id="D"/><path d="M285.217 65.731c-11.036 21.67-49.778 92.806-77.398 81.46-20.679-8.496-45.435-78.929-45.435-78.929l40.241-23.949 18.082 48.402 36.921-40.111c-1.254-7.948-2.258-18.338.241-22.001 4.255-6.234 25.783-25.442 25.783-25.442l3.92 32.544.685-2.743c-.001-.153.036-.318.114-.497l.023-.052 1.585-6.351c-.665-.336-.938-.814-.65-1.477.233-.538.743-1.127 1.454-1.746l5.411-21.682 4.379 1.973c4.187-.863 19.351 9.445 19.581 9.602l.003.002c3.088 1.994-4.256 34.955-10.221 41.078-4.244 4.356-17.449 8.112-24.719 9.917h0zM38.686 212.706l2.465 4.679s2.231 3.823 4.567 10.497 1.365 10.756 6.417 21.237c5.735 11.898-4.523 6.992-8.201 1.798-2.871-4.054-2.545-9.533-6.267-11.988-1.247 1.99-4.097 4.835-5.687 22.002-.285 3.079 1.111 13.066 1.111 13.066.03 2.992.414 9.233-2.993 10.185-.844.237-1.943-.697-1.943-.697s.33 3.905-3.151 4.682c-1.369.305-4.088-8.126-4.088-8.126s-.414 4.282-3.014 4.758c-.735.134-9.413-24.294-9.413-24.294l.522 5.517 1.152 5.651s-.093 3.042-2.536 3.58c-.97.214-2.832-4.859-4.577-10.828C.336 255.139.391 248.16 1.19 241.22c.964-8.387.535-11.204 4.268-21.488.446-1.23 1.046-2.642 1.715-4.094-2.048-17.681-7.82-69.434-7.113-85.323.857-19.271 21.275-62.052 21.275-62.052l41.453 23.174-22.848 41.63-1.254 79.639h0zm99.172-191.7c-24.01-1.412-34.14-16.334-36.45-20.37 15.234-1.052 16.826-.898 37.118 1.204 8.23.853 14.002 2.604 19.592 4.135 1.21 4.106 2.93 16.383-20.26 15.031z" id="E"/><path d="M189.245 43.714l.144-.028 16.354 37.597-23.342 13.604-4.873 82.087H44.538l-2.23-80.952L.258 64.578s19.83-39.765 53.76-55.592c10.97-5.12 21.03-7.536 30.39-8.46.767-.076.162-.054.255.308.053.205.238.512.453.859s.215.235 1.268 1.789 2.615 3.103 4.97 5.505c1.953 1.993 4.651 3.944 7.298 5.423 3.014 1.684 5.972 2.809 7.869 3.607 1.713.721 3.157 1.098 4.553 1.43 3.943.936 7.013 1.227 13.275 1.553.76.04 5.16-.286 5.934-.44 1.104-.219 2.093-.418 3.341-.758s4.35-1.788 6.403-4.338c.871-1.082 1.698-4.639 1.444-7.259s-1.398-2.626-.353-2.34c18.37 5 35.731 15.31 45.88 33.592a108.29 108.29 0 0 1 2.247 4.258z" id="F"/><path id="G" d="M.887.234h44.282v72.363H.887z"/><path id="H" d="M.904.234h19.171v72.363H.904z"/><path d="M215.391 107.69a107.62 107.62 0 0 1-2.301 22.21c-10.229 48.82-53.529 65.48-105.399 65.48C48.22 195.38 0 167.17 0 107.69S48.22 0 107.691 0c40.889 0 76.46 22.78 94.7 56.35 8.289 15.26 13 32.75 13 51.34" id="I"/><path d="M45.835.595C58.429 11.428 77.068 21.501 98.948 28.35c-1.393 14.825-6.019 40.376-19.971 49.657-6.591 4.383-18.594 4.923-28.819 4.333l-2.345 29.043L17.42 99.48s7.586-35.298 3.524-41.785C15.489 48.956.894 46.14.877 34.063c-.006-3.577 2.085-9.77 9.806-9.782 10.364-.015 8.887 12.401 8.887 12.401C29.104 40.391 38.822 14.987 45.835.595z" id="J"/><path d="M237.082 77.318c-.66-6.468-.919-14.206 1.137-16.977 3.771-5.086 22.416-20.461 22.416-20.461l.994 12.83 4.414-15.063s4.888 1.449 9.619 3.924c4.221 2.209 8.226 5.391 9.976 6.634 2.507 1.782-4.781 29.2-9.976 34.134-3.567 3.386-14.084 6.012-20.326 7.326-11.921 19.251-43.691 67.351-61.242 63.382-18.234-4.122-35.151-67.86-35.151-67.86l30.755-14.982 13.391 41.273 33.994-34.161h0zM28.095 217l7.486 19.144s1.137 4.929 1.773 10.753.878 9.368 4.735 18.108c2.688 6.09-6.011 4.271-8.477.869-2.543-3.509-3.83-17.892-8.017-15.046s-5.449 17.322-4.512 30.992c.147 2.147-1.344 3.9-2.41 4.518-1.729 1.001-4.252-7.459-4.252-7.459s-.908 2.972-3.661 1.731c-.975-.439-3.879-6.195-3.879-6.195s-2.249-2.836-3.431-6.003c-2.088-5.591-3.792-15.969-3.39-19.019.949-7.187 3.085-19.317 5.892-26.037-1.657-17.267-8.011-86.592-4.506-99.761 4.011-15.068 11.871-35.488 11.871-35.488l30.16 17.739-12.93 27.603L28.095 217h0zM132.336 1.776s8.054 5.692 14.07 15.87c8.233 13.924 3.929 25.937-8.738 25.957-13.561.023-29.125-4.593-35.686-25.133C98.663 8.08 95.528 0 95.528 0l36.808 1.776z" id="K"/><path d="M32.88 27.776c-3.841-2.505-8.533-5.192-10.406-4.755-2.286.533 1.956 6.578 4.987 10.49-4.898 1.965-11.39 4.908-12.427 7.058-.718 1.489 2.088 1.976 5.565 2.042-3.2 1.534-5.992 3.193-6.641 4.54-.832 1.725 3.063 2.105 7.253 2.044-3.7 1.688-7.166 3.607-7.9 5.128-1.239 2.569 8.01 2.155 13.097 1.743l-1.313 5.74c-.371 1.625-1.851 2.753-3.517 2.68l-18.102-.791C1.321 63.6-.221 61.576.26 59.474L13.086 3.416c.372-1.625 1.851-2.752 3.516-2.68l18.103.791c2.154.095 3.695 2.119 3.215 4.22l-5.04 22.029z" id="L"/><path d="M102.63 1.128L90.499.543s3.135 8.08 6.454 18.47c6.561 20.54 22.125 25.156 35.686 25.133 12.667-.02 16.971-12.033 8.738-25.957-5.299-8.965-12.179-14.449-13.744-15.629 15.995 1.081 25.954 3.09 35.178 11.74 17.561 16.471 31.781 46.835 37.628 76.833l-32.091 14.321-11.43 44.167-83.985-1.28s.735-8.09-1.076-19.78c-2.359-15.29-10.875-26.7-10.875-26.7l-8.447 12.84L0 83.731C17.199 52.368 41.189 20.03 57.184 9.74 68.484 2.467 78.83.642 88.939.543c4.597-.045 9.213.268 13.691.585z" id="M"/><path d="M30.085 4.574l23.34-.506 2.584 25.996 2.537 29.964H0c7.802-24.869 30.321-28.774 30.321-28.774l-.236-26.679zm148.347 5.219l-2.401 20.959s44.676 11.712 61.47 29.132l-82.35.143L157.337 0l21.094 9.793z" id="N"/><path d="M3.049 0l22.767 7.999-.129 25.704L0 32.513 3.049 0zm123.664 7.009l22.128 8.795-.19 17.398-22.618-.831.68-25.363z" id="O"/><path d="M4.587 499.419l14.709-360.053C24.095 54.681 60.01 8.056 66.75 0h85.573c.156 1.082 11.675 82.617 13.783 253.225l-.302 246.125v.005l2.733-.004.018 13.153-44.312.071-.018-13.153 1.528-.002v-.001l-22.502-267.37-6.74-80.023-51.16 347.324v.002l2.213-.004-.773 13.153-45.877.074.773-13.152 2.903-.005h0z" id="P"/><path id="Q" d="M1028.056 914.562h-51.865a9.64 9.64 0 0 1 9.637-9.638h32.59a9.64 9.64 0 0 1 9.638 9.638"/><path id="R" d="M972.058 818.059h20.124v-76.874h-20.124z"/><path id="S" d="M79.888 68.336c.497 2.732-1.327 5.346-4.073 5.84s-5.375-1.319-5.872-4.051 1.327-5.346 4.073-5.84 5.375 1.319 5.872 4.051"/><path id="T" d="M84.853 97.078l33.047 51.846h18.288l-33.047-51.846z"/><path id="U" d="M1646.971 532.94h195.078V367.5h-195.078z"/><path id="V" d="M1635.5 533.162h195.078v-165.44H1635.5z"/><path id="W" d="M1504.865 363.747h125.255V258.499h-125.255z"/><path id="X" d="M1497.5 363.889h125.254V258.641H1497.5z"/></defs><g transform="translate(-211 -231)" fill="none" fill-rule="evenodd"><path d="M1279.016 301.78h-1.774c-24.511 0-44.382-19.87-44.382-44.381V231h90.538v26.399c0 24.511-19.87 44.381-44.382 44.381" class="D"/><path d="M951.353 1019.426h-20.486v-49.594h31.054z" class="F"/><g class="G"><path d="M910.38 969.832h355.819V314.814H910.38z"/><path d="M930.867 1019.426H910.38v-49.594h30.094z"/></g><path d="M1282.67 1019.426h-16.471v-49.594h24.195z" class="B"/><path d="M1245.713 1019.426h20.486v-49.594h-30.093z" class="G"/><path d="M1076.07 1019.426h-20.487v-49.594h28.173zm295.978 0h-18.869l-7.079-49.594h25.948z" class="F"/><path d="M1390.916 1019.426h-18.868l-6.194-49.594h25.062z" class="B"/><path fill="#c5e0fc" d="M1055.583 1019.426h-20.486l-7.686-49.594h28.172z"/><path d="M925.427 691.154h325.725V575.393H925.427z" class="F"/><path d="M925.427 691.154h100.767V575.393H925.427z" class="B"/><path d="M925.427 818.059h325.725V702.297H925.427z" class="F"/><path d="M925.427 818.059h100.767V702.297H925.427z" class="B"/><path d="M925.427 944.965h325.725V829.203H925.427z" class="F"/><path d="M925.427 944.965h100.767V829.203H925.427z" class="B"/><path d="M925.427 441.894h325.725V326.133H925.427z" class="F"/><path d="M925.427 441.894h100.767V326.133H925.427z" class="B"/><path d="M925.427 564.249h325.725V453.83H925.427z" class="F"/><path d="M925.427 564.249h100.767V453.83H925.427zm340.772 405.583h124.717V314.814h-124.717z" class="B"/><path fill="#e6f4ff" d="M902 314.814h352.426v-21.25H902z"/><path d="M1254.426 314.814h144.657v-21.25h-144.657zm-47.689 472.622v.001a10.21 10.21 0 0 1-10.208 10.207h-82.01v-20.415h82.01a10.21 10.21 0 0 1 10.208 10.207" class="B"/><path d="M1150.917 787.436v.001a5.91 5.91 0 0 1-5.909 5.909h-30.366c-.068 0-.122-.055-.122-.123V781.65c0-.068.054-.123.122-.123h30.366a5.91 5.91 0 0 1 5.909 5.909" class="D"/><path d="M1218.321 797.644v20.416h-89.605a10.21 10.21 0 0 1-10.208-10.208 10.21 10.21 0 0 1 10.208-10.208h89.605z" class="B"/><path d="M1218.321 801.999v11.705h-36.683c-3.232 0-5.852-2.62-5.852-5.852s2.62-5.853 5.852-5.853h36.683z" class="D"/><path d="M1217.94 756.812v20.416h-83.725a10.21 10.21 0 0 1-10.208-10.208 10.21 10.21 0 0 1 10.208-10.208h83.725z" class="B"/><path d="M1217.94 761.168v11.705h-30.803c-3.232 0-5.853-2.62-5.853-5.852s2.621-5.853 5.853-5.853h30.803zm-215.107-69.788h56.138v-78.485h-56.138zm0-81.257h56.138v-4.85h-56.138z" class="D"/><path d="M1061.094 623.703h-60.384a6.05 6.05 0 0 1-6.047-6.048v-1.485a6.05 6.05 0 0 1 6.047-6.047h60.384a6.05 6.05 0 0 1 6.047 6.047v1.485a6.05 6.05 0 0 1-6.047 6.048" fill="#e6f4ff"/><path d="M958.368 944.965h86.712V884.16h-86.712z" class="G"/><g class="B"><path d="M1045.08 944.965h63.924V884.16h-63.924z"/><use xlink:href="#Q"/></g><path d="M1081.676 944.965h86.712V884.16h-86.712z" class="G"/><g class="B"><path d="M1168.387 944.965h63.924V884.16h-63.924z"/><use xlink:href="#Q" x="123.308"/></g><path d="M981.788 441.894h86.712V381.09h-86.712z" class="G"/><path d="M1068.5 441.894h63.924V381.09H1068.5zm-17.024-30.401h-51.865 0a9.64 9.64 0 0 1 9.637-9.638h32.59a9.64 9.64 0 0 1 9.638 9.638zm114.251 137.514l7.984-77.809h24.968l7.985 77.809c.836 8.153-5.562 15.242-13.759 15.242h-13.42c-8.196 0-14.595-7.089-13.758-15.242" class="B"/><use xlink:href="#R" class="D"/><g class="G"><use xlink:href="#R" x="-20.125"/><use xlink:href="#R" x="20.124"/></g><path d="M1065.326 818.06h-53.02v-76.874h53.02a5.13 5.13 0 0 1 5.128 5.128v66.617a5.13 5.13 0 0 1-5.128 5.129" class="D"/><path d="M1020.923 759.996h40.915v-7.611h-40.915zm9.116 11.743h22.682v-7.611h-22.682z" class="B"/><path d="M1131.213 697.473h0c-24.512 0-44.382-19.871-44.382-44.382V640.35h88.764v12.741c0 24.511-19.87 44.382-44.382 44.382" class="G"/><path d="M1177.655 528.865c0 14.951-7.898 28.069-19.746 35.384h-43.493c-11.848-7.315-19.746-20.433-19.746-35.384 0-6.957 1.712-13.508 4.729-19.261h73.527c3.017 5.753 4.729 12.304 4.729 19.261" class="D"/><g transform="matrix(-1 0 0 1 787 703)"><g class="F"><path d="M480.813 340.61l37.744 88.703h17.116l-22.707-93.051zm-192.813 0l37.743 88.703h17.116l-22.707-93.051zM0 429.313h17.116l37.743-88.703-32.152-4.348zm192.813 0h17.116l37.744-88.703-32.153-4.348z"/><path d="M21.047 133.02V347.8l223.213.477 36.707-212.461-259.92-2.796zm17 17.184l222.769 2.396-30.866 178.647-191.903-.41V150.204z"/></g><path d="M313.958.999l-59.999 347.278h261.749L575.709.999z" class="B"/><path d="M243.572.999l-60 347.278h258.575l60-347.278z" class="D"/><path d="M179.461 348.277h307.794c15.714 0 28.453-12.739 28.453-28.454v-65.576c0-15.715-12.739-28.454-28.453-28.454H179.461c-15.715 0-28.454 12.739-28.454 28.454v65.576c0 15.715 12.739 28.454 28.454 28.454" class="B"/><path d="M19.891 348.277h272.604V225.793H19.891z" class="D"/><path d="M292.495 133.02V347.8l223.213.477 36.708-212.461-259.921-2.796zm17 17.184l222.769 2.396-30.866 178.647-191.903-.41V150.204z" class="F"/></g><g transform="translate(500 321)"><g transform="translate(283 121)"><g transform="translate(0 24.984)"><mask id="Y" class="C"><use xlink:href="#A"/></mask><use fill="#ce3d29" xlink:href="#A"/><g mask="url(#Y)" class="E L"><path d="M0 .003h117v117H0z"/></g></g><path fill="#000" opacity=".403" d="M69.487 110.456l-24.139-5.148 24.023 16.142z"/><path fill="#405fd3" d="M89.399 62.572l8.341 20.284-9.996.127z"/><g class="M"><use xlink:href="#S"/><use xlink:href="#S" x="26.235"/></g><path d="M39.114 80.137l-.465-1.056C32.882 66.807 23.936 61.649 18.06 59.508c-3.211-4.725-5.742-10.008-6.583-15.573-2.665-17.607 1.995-33.7 12.39-38.312C34.391.954 59.317 3.295 87.305 3.295 120.91 3.295 122.761 0 122.761 0s29.623 41.572-25.069 40.363c-28.66-.634-44.969.081-44.969.081l-13.61 39.692z" class="N"/><path d="M82.953 95.906s5.147 4.2 11.535 1.508" class="C"/><path d="M82.953 95.906s5.147 4.2 11.535 1.508" stroke="#252535" stroke-width="4"/><path d="M74.264 91.523s2.783-7.237 15.966-6.694 14.817 9.509 14.817 9.509l-30.783-2.815z" class="N"/></g><g transform="translate(99 430.237)"><g transform="translate(0 343.056)"><mask id="Z" class="C"><use xlink:href="#B"/></mask><use xlink:href="#B" class="M"/><g mask="url(#Z)" fill="#ea847a" class="E"><path d="M0 23.105h450v155H0z"/></g></g><g transform="translate(28.062 343.009)"><mask id="a" class="C"><use xlink:href="#C"/></mask><g class="O"><use xlink:href="#C"/><g mask="url(#a)" class="E"><path d="M-9.02 3.198h375v145h-375z"/></g></g></g><g transform="translate(27)"><mask id="b" class="C"><use xlink:href="#D"/></mask><use fill="#101016" xlink:href="#D"/><g mask="url(#b)" class="E N"><path d="M-3 0h369v480H-3z"/></g></g><path d="M298.305 449.424L174.135 56.101c-8.025-37.048-8.008-54.755-8.008-56.1h113.712l97.653 435.615 8.213-1.432 7.145 28.217-89.017 17.766-10.845-29.816 5.318-.927z" fill-opacity=".1" class="C"/></g><g transform="translate(203 232.877)"><g transform="translate(0 20.766)"><mask id="c" class="C"><use xlink:href="#E"/></mask><g class="L"><use xlink:href="#E"/><g mask="url(#c)" class="E"><path d="M0 .111h321v288H0z"/></g></g></g><g transform="translate(17 20.877)"><mask id="d" class="C"><use xlink:href="#F"/></mask><use xlink:href="#F" class="I"/><g mask="url(#d)" fill="#1e9dbc" class="E"><path d="M0 0h206v177H0z"/></g></g><path stroke="#000" opacity=".201" d="M59.306 116.895l10.667 7.218 25.641-29.772" class="J"/><g transform="translate(270 .761)"><mask id="e" class="C"><use xlink:href="#G"/></mask><path d="M32.834 63.507l-1.858 9.089H.887L15.08.233h30.089l-5.511 28.098-5.917-2.735-1.843-.509-1.451.081-.629.428v1.758l6.432 9.224-4.92 2.138-7.57 3.96-2.187 1.51-.847.783-.692.618-.441.531-.265.475-.114.616.114.273.132.21.191.189 2.481.874 5.66-1.546h5.594l-7.467 1.546L21 51.692l-1.672 1.572-.945 1.155v1.057l1.651.741 10.414-1.192L27 56.894l-2.285 1.413-2.095 1.078L21 61.469v1.029l.574.604 1.454.771h2.218 4.468l3.119-.366z" mask="url(#e)" class="I"/></g><g transform="translate(265 .761)"><mask id="f" class="C"><use xlink:href="#H"/></mask><path mask="url(#f)" d="M5.883 72.597H.904L15.097.233h4.978z" class="K"/></g><path d="M290.257 9.396c-.416 2.114-1.649 3.653-2.754 3.438s-1.663-2.103-1.247-4.216 1.649-3.653 2.754-3.439 1.663 2.104 1.247 4.217" class="K"/></g></g><path d="M1785.854 886.334c0 30.56-18.58 55.333-41.5 55.333s-41.5-24.773-41.5-55.333 18.58-55.333 41.5-55.333 41.5 24.773 41.5 55.333" class="B"/><path d="M1744.665 1176.963V889.147" class="H P"/><path d="M1699.971 967.617c19.597 19.598 23.569 47.399 8.871 62.098s-42.5 10.726-62.098-8.871-23.568-47.4-8.871-62.098 42.5-10.726 62.098 8.871m139.93 40.264c15.803 15.803 11.533 45.695-9.538 66.766s-50.962 25.34-66.765 9.537" class="B"/><path d="M1818.611 1035.719l-72.718 72.926m51.706-142.665l-53.142 52.517m-55.179 62.761l55.517 56.142m-74.654-146.009l74.213 75.097" class="H P"/><path d="M1766.918 1275.809h-44.507c-34.185 0-62.154-27.969-62.154-62.154v-58.486h168.815v58.486c0 34.185-27.969 62.154-62.154 62.154" class="G"/><path d="M1829.072 1187.676h-168.815m168.815 32.606h-168.815" class="H P"/><path d="M1997.55 802.935s3.956-20.604 17.469-19.284c28.191 2.756-6.338 93.334 51.672 99.151s64.033-84.92 64.033-84.92" stroke="#cce3ff" stroke-width="7"/><path d="M1999.635 742.62v529.699m131.089-474.437l-346.17-149.217" stroke-width="15" class="H"/><path d="M1932.968 1272.319h133.334v-6.564c0-8.489-6.882-15.371-15.371-15.371h-102.593c-8.488 0-15.37 6.882-15.37 15.371v6.564z" class="D"/><g class="F"><path d="M1712 724.777l113.442 24.697 3.668-31.697-107.269-23.353zm50.709-47.486l33.821 7.363 9.656-44.348a16.44 16.44 0 0 0-12.564-19.556l-1.703-.371a16.44 16.44 0 0 0-19.556 12.564l-9.654 44.348z"/><path d="M1829.111 717.777l-33.654-44.133-24.66-5.369-48.956 26.149z"/></g><g transform="matrix(-1 0 0 1 746 376)"><g class="G"><path d="M460.515 36.492c-3.479 29.2-28.333 51.854-58.474 51.854s-54.995-22.654-58.474-51.854h116.948zM234.125 1c-3.479 29.2-28.333 51.854-58.475 51.854S120.656 30.2 117.177 1h116.948z"/><path d="M234.125 36.492c-3.479 29.2-28.333 51.854-58.475 51.854s-54.994-22.654-58.473-51.854h116.948z"/></g><g class="D"><path d="M270.819 44.715h47.745l-12.856 42.29h-22.033zm-231.384 0H87.18l-12.856 42.29H52.291z"/><path d="M270.819 17.099h47.745L305.708 59.39h-22.033zM0 97.078h423.178V79.302H0z"/></g><path d="M423.178 97.078h69.617V79.302h-69.617z" class="B"/><path d="M103.141 97.078l33.047 51.846V97.078z" class="F"/><use xlink:href="#T" class="B"/><path d="M345.518 97.078l33.047 51.846V97.078z" class="F"/><use xlink:href="#T" x="242.377" class="B"/></g><use xlink:href="#U" class="D"/><use xlink:href="#U" class="H J"/><use xlink:href="#V" class="C"/><use xlink:href="#V" class="H J"/><g class="D"><path d="M1668.726 498.983h125.847v-97.526h-125.847z"/><use xlink:href="#W"/></g><use xlink:href="#W" class="H J"/><use xlink:href="#X" class="C"/><use xlink:href="#X" class="H J"/><path d="M1518.833 342.145h80.803v-62.043h-80.803z" class="D"/><g transform="matrix(-1 0 0 1 1661 354)"><g transform="translate(131 26)"><g transform="translate(1)"><mask id="g" class="C"><use xlink:href="#I"/></mask><use fill="#eacb47" xlink:href="#I"/><g mask="url(#g)" fill="#f6b852" class="E"><path d="M.001 0h215v215h-215z"/></g></g><path d="M127.158 179.34s-12.931.382-18.442-2.629l17.755 11.148.687-8.519z" class="O"/><g transform="translate(77 97)"><mask id="h" class="C"><use xlink:href="#J"/></mask><use xlink:href="#J" class="I"/><g mask="url(#h)" class="E Q"><path d="M-2-27H99v143H-2z"/></g></g><path fill="#2437a8" d="M155.267 133.659l7.4 17.94-8.585-.172z"/><path d="M147.389 134.437c-.185 3.584-2.292 6.376-4.708 6.237s-4.225-3.157-4.041-6.741 2.293-6.377 4.708-6.238 4.226 3.158 4.041 6.742m22.686-.572c-.185 3.584-2.292 6.376-4.708 6.237s-4.225-3.157-4.04-6.741 2.292-6.377 4.708-6.237 4.225 3.157 4.04 6.741" fill="#1d1d23"/><path d="M151.976 160.02s-5.594 1.805-11.199-4.427" stroke="#24242b" stroke-width="3"/><path d="M127.137 179.34s-12.931.382-18.442-2.628l17.755 11.147.687-8.519z" fill="#000" opacity=".399"/></g><g transform="translate(126 220)"><g transform="translate(.95 .543)"><mask id="i" class="C"><use xlink:href="#K"/></mask><use xlink:href="#K" class="L"/><g mask="url(#i)" class="E Q"><path d="M.05.457h285v286H.05z"/></g></g><path d="M277.19 42.502c-2.777-1.592-5.421-2.784-6.716-2.482-2.266.529 1.882 6.473 4.907 10.386l-.034.149c-4.884 1.965-11.284 4.879-12.313 7.012-.718 1.489 2.088 1.976 5.565 2.042-3.2 1.534-5.992 3.193-6.641 4.54-.832 1.725 3.063 2.105 7.253 2.044-3.7 1.688-7.166 3.607-7.9 5.128-.935 1.94 4.11 2.179 8.827 2.002l-1.213 5.299c-.371 1.625-1.851 2.753-3.517 2.68l-18.102-.792c-2.154-.094-3.696-2.117-3.215-4.219l12.826-56.058c.372-1.625 1.851-2.753 3.516-2.68l18.103.791c2.154.095 3.695 2.118 3.215 4.22l-4.562 19.937h0z" class="K"/><g transform="translate(248 17)"><mask id="j" class="C"><use xlink:href="#L"/></mask><g class="I"><use xlink:href="#L"/><g mask="url(#j)" class="E"><path d="M0-1h38v68H0z"/></g></g></g><path d="M265.754 25.163c-.422 1.837-1.505 3.142-2.42 2.913s-1.314-1.904-.893-3.741 1.506-3.142 2.42-2.913 1.315 1.904.893 3.741m-2.117 9.507c-.422 1.837-1.505 3.142-2.42 2.913s-1.314-1.904-.893-3.741 1.505-3.142 2.42-2.913 1.315 1.904.893 3.741" class="K"/><g transform="translate(5.979)"><mask id="k" class="C"><use xlink:href="#M"/></mask><use xlink:href="#M" class="I"/><g mask="url(#k)" fill="#fcbda4" class="E"><path d="M.021-3h200v153h-200z"/></g></g><g stroke="#000" stroke-width="3"><path d="M163.272 150.389c3.208-40.743 24.413-50.358 8.413-96.051" opacity=".203"/><path d="M133.286 2.319s8.054 5.692 14.07 15.87c8.233 13.924 3.929 25.937-8.738 25.957-13.561.023-29.125-4.593-35.686-25.133C99.613 8.623 96.478.543 96.478.543" opacity=".202"/><path d="M88.531 73.338l-19.487 29.525" opacity=".203"/></g></g><g transform="translate(118 368)"><g transform="translate(0 489.52)"><mask id="l" class="C"><use xlink:href="#N"/></mask><g class="M"><use xlink:href="#N"/><g mask="url(#l)" class="E"><path d="M0 30.373h237v29H0z"/></g></g></g><g transform="translate(30.14 487.07)"><mask id="m" class="C"><use xlink:href="#O"/></mask><use xlink:href="#O" class="O"/><g mask="url(#m)" class="E Q"><path d="M.098 25.02h148v9h-148z"/></g></g><g transform="translate(20.484)"><mask id="n" class="C"><use xlink:href="#P"/></mask><use fill="#2b2a38" xlink:href="#P"/><g mask="url(#n)" fill="#2f2f3d" class="E"><path d="M-4.877 0h179v512h-179z"/></g></g><path fill="#0a0a0f" opacity=".398" d="M116.993 152.029l9.207-78.281-2.47 158.298z"/></g></g></g></svg>