<svg xmlns="http://www.w3.org/2000/svg" xmlns:xlink="http://www.w3.org/1999/xlink" width="2006" height="942" xmlns:v="https://vecta.io/nano"><style><![CDATA[.B{fill:#fff}.C{fill:#dceeff}.D{fill-rule:nonzero}.E{fill:#b6d4ff}.F{fill:#cce3ff}.G{stroke-width:5}.H{stroke:#dceeff}.I{fill:#000}.J{fill:#19141e}.K{fill:#e576c6}.L{fill:#0d0b6d}.M{stroke:#000}.N{fill:#ecf6ff}.O{stroke-width:4}.P{fill:#5e93d1}.Q{opacity:.198}]]></style><defs><path d="M71.028 116.942l-.862-29.813s36.147 2.885 43.88-1.141c0 0 9.451-48.802-1.821-75.827l-.228-1.052L35.716.166 31.44 44.037C28.87 36.441 7.664 27.827 2.12 38.705c-12.013 23.57 30.94 39.441 30.94 39.441L28.699 117.3" id="A"/><path d="M182.331 15.879l-.283 24.451s54.783 8.634 73.354 29.567H146.256L150.828 0l31.503 15.879zM42.521 13.82l-.284 27.463s23.074 3.014 32.467 28.615H.001l5.455-30.134 16.527-9.209L42.521 13.82z" id="B"/><path d="M145.789 2.593l31.503 9.473-.283 24.45-33.76-1.518 2.54-32.405zM5.979.533l31.503 9.474-.284 27.462L.415 35.95 5.979.533z" id="C"/><path d="M185.838 469.258l-.726 22.692h-41.555l.729-22.76c-4.655-1.869-7.982-6.363-8.095-11.673l-6.689-339.891-72.275 343.149c-1.018 4.827-4.596 8.576-9.14 9.957L45.37 491.95H1.8l3.75-23.426c-3.628-2.814-5.731-7.443-5.008-12.387L67.082 1.336h60.131l-.003-.174h72.83l-4.365 455.719c-.061 5.993-4.227 11.006-9.836 12.377z" id="D"/><path id="E" d="M76.592.429l6.979 1.14L7.461 465.042l-7-1.169z"/><path d="M316.927 62.682l-.5-8.629s.01-6.005.79-12.486 5.28-14.147.52-25.589c-4.76-11.433 6.62-3.539 9.14 1.899 2.1 4.533.99 14.067 3.57 17.556 2.18-1.183 3.63-2.724 3.63-2.724l24.53-31.633c.79-1.064 2.25-1.382 3.42-.756l1.32.716c1.39.756 1.83 2.525.94 3.817l-19.23 27.697.65.785 28.81-30.202c.9-1.004 2.41-1.183 3.52-.418l1.73 1.193a2.62 2.62 0 0 1 .59 3.788c-5.73 7.357-27.23 30.709-26.82 30.937l.86.825 26.82-23.551a2.69 2.69 0 0 1 3.67-.288l1.31 1.064c1.15.925 1.32 2.605.38 3.738l-25.33 23.68.73 1.143 21.99-15.359c1.01-.895 2.53-.895 3.55-.01l.61.547a2.64 2.64 0 0 1 .26 3.698c-3.22 3.788-13.22 10.13-21.08 17.954-6.1 6.074-9.09 11.83-17.61 18.65-3.6 2.893-6.81 4.404-9.87 6.005l-22.9-14.047zm-197.71-19.798l29.178-.074c12.23-.042 27.61 5.099 27.61 5.099s8.003 17.97-19.797 16.343-36.991-21.368-36.991-21.368zM.01 178.939c-.615-22.635 26.514-63.337 26.514-63.337l47.486 21.125-19.539 41.601 53.728 74.869-22.118 18.008S.736 205.628.01 178.939z" id="F"/><path d="M101.929 177.815l13.212 17.719-39.795 34.667S2.319 176.707.064 134.764c-1.436-26.714 21.949-64.848 21.949-64.848S51.365 23.031 85.295 7.209c6.963-3.247 23.845-5.956 34.079-7.073 3.137-.343 1.261.879 2.338 2.947 1.125 2.16 4.55 5.36 6.919 7.753 4.931 4.979 14.649 8.749 19.87 9.521 3.978.588 11.667 1.501 15.365 1.004s7.719-2.165 8.794-3.156 2.673-2.232 3.502-4.142.787-1.363.787-3.126-.091-1.502-.264-2.341-.173-1.343-.274-1.777c-.45-1.918-.249-1.657-.249-1.657 20.03 6.046 30.175 8.284 37.472 17.079l55.764 39.111 38.154-49.757 49.23 33.035s-43.589 81.162-75.179 90.135c-25.447 7.228-51.226-15.251-60.29-24.267l10.769 54.637c1.726 9.433-6.539 13.003-13.903 12.669l-116.25.011z" id="G"/><path d="M70.555 115.845l-.856-29.362s35.906 2.841 43.588-1.124c0 0 8.28-43.248-2.036-75.715L35.479.836l-5.391 43.296c-2.552-7.481-22.475-16.054-27.982-5.341-11.932 23.213 30.735 38.844 30.735 38.844l-4.333 38.563" id="H"/><path d="M331.651 94.749l6.952 22.417s54.287-22.284 82.212-13.829l-94.101 54.532-24.498-61.564 29.435-1.555zM75.723 28.243L45.282 56.166s4.522 18.579 6.428 36.102c2.76 25.366 1.064 48.265 1.064 48.265L0 48.386 65.148 0l10.575 28.243z" id="I"/><path d="M276.774 101.185l29.101-2.622 5.728 18.629-24.086 10.05-10.743-26.056zM37.702 0l3.347 35.385-22.768 20.807L.206 28.385 37.702 0z" id="J"/><path d="M250.732 100.369l81.181 363.041-22.36 5.706h-.01l-26.03 6.652-.13.03-9.01 2.3-77.771-246.92c-8.86 14.429-18.84 28.689-30.071 42.56C86.742 372.284 37.922 414.406 37.922 414.406l-7.26-10.944-.02-.03-17.45-26.299-12.62-19.02s109.26-103.146 158.42-248.245l-16.17-54.869c-8.81-36.795-8.99-53.654-8.99-54.999h94.46 37.88c-1.38 23.979-5.19 59.639-15.44 100.368z" id="K"/><path d="M211.219 7.466C213.783 1.638 227.252 0 227.252 0s21.495 23.922 23.419 27.574 5.481 21.738 5.312 25.311-11.255 19.628-11.255 19.628c-6.878-1.628-2.386-9.921-2.386-9.921s-6.161 5.037-8.722 4.953c-24.121-.795-22.829-12.602-22.258-14.08 1.281-3.32 7.719.476 7.719.476s-15.195-29.803-7.862-46.475zM36.156 12.273l4.373 8.301s2.231 3.823 4.567 10.496 1.364 10.757 6.417 21.238c5.735 11.898-4.524 6.992-8.201 1.798-2.871-4.053-2.545-9.533-6.267-11.988-1.247 1.989-4.097 4.835-5.687 22.002-.285 3.079 1.11 13.066 1.11 13.066.031 2.992.414 9.233-2.992 10.185-.844.237-1.943-.696-1.943-.696s.33 3.904-3.152 4.681c-1.369.305-4.087-8.125-4.087-8.125s-.414 4.281-3.014 4.757c-.735.135-9.413-24.293-9.413-24.293l.522 5.516 1.151 5.651s-.092 3.042-2.535 3.581c-.97.213-2.832-4.86-4.577-10.829C-.286 58.328-.231 51.35.567 44.409c.965-8.387.535-11.204 4.269-21.488 1.54-4.243 4.898-10.656 6.676-13.39l24.644 2.743z" id="L"/><path d="M95.386 19.679L101.112 0l28.6 1.77 9.91 16.175 9.91-14.952 7.13.437 2.398 18.74 3.682 1.573 4.57 2.167.08.04c20.24 10.209 23.13 20.638 29.51 33.751 8.18 16.78 16.65 68.327 16.65 68.327l35.5 88.975-43.52 24.078-10.7-20.598.27-27.498h-63.51l-7.04-.01h-62.44l-.93-33.86-11.33 67.919-49.74 2.335s-.98-70.732 8.49-111.651c6.03-26.065 35.49-74.5 63.39-91.152 4.46-2.663 10.38-4.533 16.99-5.825 2.076-.411 4.219-.763 6.403-1.062zm37.392 180.339a4.09 4.09 0 0 1-4.102 4.078c-2.266 0-4.103-1.825-4.103-4.078s1.837-4.079 4.103-4.079 4.102 1.826 4.102 4.079zm45.128.227c0 2.253-1.836 4.078-4.103 4.078s-4.102-1.825-4.102-4.078 1.837-4.079 4.102-4.079 4.103 1.825 4.103 4.079z" id="M"/><path d="M.624 24.656L8.367 0l13.041 15.461L.624 24.656zm26.158-9.436L39.253 1.978l4.217 22.98-16.688-9.739z" id="N"/><path id="O" d="M1733.556 934.148h18.365v-367.69h-18.365z"/><path id="P" d="M2013.209 616.577c0 7.659-6.091 13.869-13.604 13.869s-13.604-6.21-13.604-13.869 6.09-13.868 13.604-13.868 13.604 6.209 13.604 13.868"/><path id="Q" d="M1951.53 294.663h96.487l13.03-130.163h-96.487z"/><path id="R" d="M1946.322 294.663h98.282l13.031-130.163h-98.283z"/><path id="S" d="M2206.356 203.213l-9.03 90.181h-118.564l9.031-90.181z"/><path id="T" d="M2203.703 203.213l-9.03 90.181h-120.77l9.031-90.181z"/><path id="U" d="M1834.853 313.797l33.047 51.846h18.288l-33.047-51.846z"/><path id="V" d="M80.67 74.237c.502 2.779-1.34 5.44-4.113 5.942s-5.428-1.343-5.929-4.121 1.339-5.44 4.113-5.943 5.427 1.343 5.929 4.122"/><path id="W" d="M75.629 94.977s3.241 5.902 10.246 5.762"/><path id="X" d="M80.132 113.277c.499 2.737-1.331 5.357-4.085 5.852s-5.391-1.323-5.89-4.059 1.331-5.357 4.085-5.853 5.392 1.323 5.89 4.06"/><path id="Y" d="M79.268 133.708s3.505 5.647 10.446 5.169"/><path id="Z" d="M1166.971 302.94h195.078V137.5h-195.078z"/><path id="a" d="M1155.5 303.162h195.078v-165.44H1155.5z"/></defs><g transform="translate(-301 -135)" fill="none" fill-rule="evenodd"><use xlink:href="#O" class="C"/><use xlink:href="#O" x="-18.366" class="E"/><use xlink:href="#O" x="144.243" class="C"/><use xlink:href="#O" x="125.877" class="E"/><path d="M1733.556 720.941h144.243V566.458h-144.243z" class="C"/><path d="M1666 566.458h482.049v-24.457H1666z" class="E"/><g class="C"><path d="M2112.068 566.458h194.11v-24.457h-194.11z"/><path d="M2238.233 934.148h19.638v-367.69h-19.638z"/></g><path d="M2218.595 934.148h19.639v-367.69h-19.639z" class="E"/><g class="C"><path d="M2083.399 934.148h19.638v-367.69h-19.638z"/><path d="M2083.399 753.146h154.834V566.564h-154.834z"/></g><g class="E"><path d="M1935.448 753.058h128.312V566.476h-128.312z"/><path d="M2063.76 934.148h19.639v-367.69h-19.639z"/><path d="M2063.76 599.151h194.111v-32.693H2063.76zm-348.57 0h180.975v-32.693H1715.19z"/></g><path d="M1956.176 648.91h86.857v-64.665h-86.857zm0 81.965h86.857V666.21h-86.857z" class="C"/><g class="E"><use xlink:href="#P"/><use xlink:href="#P" y="81.965"/></g><g transform="matrix(-1 0 0 1 1533 483)"><g class="E"><path d="M230.641 331.179h564.375V197.507H230.641z"/><path d="M388.975 225.794h406.888c21.178 0 38.852-16.171 40.729-37.267l12.725-143.013C851.445 21.595 832.6 1 808.587 1H401.699c-21.179 0-38.853 16.171-40.73 37.267L348.246 181.28c-2.128 23.919 16.715 44.514 40.729 44.514M54.074 396.124h158.361c23.424 0 41.826-20.056 39.814-43.395l-13.11-152.051c-1.781-20.663-19.074-36.529-39.813-36.529H40.965c-23.425 0-41.827 20.056-39.815 43.394l13.11 152.052c1.782 20.663 19.074 36.529 39.814 36.529"/></g><path d="M266.555 225.794h452.029c21.179 0 38.853-16.171 40.73-37.267l12.723-143.013C774.165 21.595 755.322 1 731.308 1H279.279c-21.179 0-38.853 16.171-40.73 37.267L225.825 181.28c-2.127 23.919 16.716 44.514 40.73 44.514" class="C"/><path d="M70.794 396.124h690.239v-70.002H70.794z" class="F"/><path d="M165.029 326.122h485.633c24.119 0 43.671-19.552 43.671-43.67s-19.552-43.67-43.671-43.67H165.029c-24.118 0-43.67 19.552-43.67 43.67s19.552 43.67 43.67 43.67" class="C"/><path d="M892.204 452.84h16.564l-7-56.716h-30.564zm-142.358 0h16.563l-7-56.716h-30.563zm-676.437 0H56.846l7-56.716h30.563zm142.359 0h-16.564l7-56.716h30.564z" class="E"/><path d="M54.074 396.124h23.729c23.425 0 41.827-20.056 39.815-43.395l-13.109-152.051c-1.782-20.663-19.075-36.529-39.815-36.529H40.965c-23.425 0-41.827 20.056-39.815 43.394l13.11 152.052c1.782 20.663 19.074 36.529 39.814 36.529" class="F"/><path d="M737.888 396.124h178.361c20.74 0 38.033-15.866 39.814-36.529l13.109-152.052c2.013-23.338-16.388-43.394-39.813-43.394H750.997c-20.739 0-38.032 15.866-39.813 36.529l-13.109 152.051c-2.013 23.339 16.388 43.395 39.813 43.395" class="E"/><path d="M737.888 396.124h23.729c20.741 0 38.034-15.866 39.815-36.529l13.109-152.052c2.012-23.338-16.389-43.394-39.814-43.394h-23.73c-20.739 0-38.032 15.866-39.813 36.529l-13.109 152.051c-2.013 23.339 16.388 43.395 39.813 43.395" class="F"/></g><use xlink:href="#Q" class="C"/><use xlink:href="#Q" class="G H"/><use xlink:href="#R" class="B"/><use xlink:href="#R" class="G H"/><g class="C"><path d="M1965.147 277.477h64.075l9.589-95.79h-64.075z"/><use xlink:href="#S"/></g><use xlink:href="#S" class="G H"/><use xlink:href="#T" class="B"/><use xlink:href="#T" class="G H"/><path d="M2178.239 220.904l-5.487 54.798h-73.385l5.487-54.798zm-372.687 38.783h0c0 6.903 5.597 12.5 12.501 12.5h112.469v-25.001h-112.469c-6.904 0-12.501 5.597-12.501 12.501" class="F"/><path d="M1881.197 259.687h0a7.24 7.24 0 0 0 7.236 7.236h41.786a.3.3 0 0 0 .302-.3V252.75a.3.3 0 0 0-.302-.3h-41.786a7.24 7.24 0 0 0-7.236 7.237" class="C"/><path d="M1789.855 272.187v25.001h122.759c6.904 0 12.501-5.597 12.501-12.5s-5.597-12.501-12.501-12.501h-122.759z" class="F"/><path d="M1789.855 277.521v14.334h50.474a7.17 7.17 0 0 0 7.167-7.167 7.17 7.17 0 0 0-7.167-7.167h-50.474zM1750 313.797h423.178V296.02H1750z" class="C"/><path d="M2173.178 313.797h69.617V296.02h-69.617z" class="F"/><path d="M1853.141 313.797l33.047 51.846v-51.846z" class="E"/><use xlink:href="#U" class="F"/><path d="M2095.518 313.797l33.047 51.846v-51.846z" class="E"/><use xlink:href="#U" x="242.377" class="F"/><g transform="matrix(-1 0 0 1 643 314.24581)"><path d="M0 621.608h26.535V471.116H0zm221.016 0h26.535V471.116h-26.535z" class="C"/><g class="E"><path d="M93.548 621.608h26.535V471.116H93.548zm221.016 0h26.534V471.116h-26.534z"/><path d="M93.959 497.818h247.549V195.656H93.959z"/></g><path d="M0 497.818h247.55V195.656H0z" class="C"/><path d="M22.967 458.699h201.616V234.771H22.967z" class="N"/><path d="M158.52 234.772h0c0 15.922-7.394 28.83-16.514 28.83h-36.462c-9.12 0-16.513-12.909-16.513-28.83h69.489zm75.515-38.569h51.487V67.28h-51.487z" class="F"/><path d="M268.03 196.202h-82.2L216.86 1.745h82.2z" class="C"/><path d="M251.03 196.202h-82.2L199.86 1.745h82.2z" class="N"/><path d="M240.696 166.196h-51.955l21.453-134.445h51.955zm-121.041 30.007h36.413v-91.177h-36.413z" class="F"/><path d="M140.698 196.202H82.564L104.51 58.679h58.133z" class="C"/><path d="M128.674 196.202H70.54L92.486 58.679h58.133z" class="N"/><path d="M119.789 168.034H88.415l12.955-81.189h31.375z" class="C"/></g><g transform="translate(578 113)"><g transform="translate(283 114)"><path d="M119.749 44.076c0 14.336-9.218 25.957-20.589 25.957S78.573 58.412 78.573 44.076s9.218-25.957 20.588-25.957 20.589 11.621 20.589 25.957" class="J"/><g transform="translate(0 29.963)"><mask id="b" class="B"><use xlink:href="#A"/></mask><g class="K"><use xlink:href="#A"/><g mask="url(#b)" class="D"><path d="M0 0h118v118H0z"/></g></g></g><path opacity=".399" d="M70.167 117.092l-24.375-5.238 24.258 16.423z" class="I"/><path fill="#405fd3" d="M89.652 73.443l8.423 20.638-10.094.129z"/><g class="L"><use xlink:href="#V"/><use xlink:href="#V" x="28.304"/></g><path d="M37.104 81.488c-7.233-12.406-17.697-16.19-22.394-17.299-1.873-5.427-3.301-11.72-4.305-18.414C7.715 27.861 20.711 11.516 31.208 6.823c10.626-4.75 28.948-11.332 55.767-2.397 18.03 6.011 29.555-8.38 40.165-2.234 18.13 10.505 1.267 56.498-44.705 44.814-32.884-8.358-33.729-6.261-34.011-.186-.912 19.637-3.967 31.19-11.32 34.668z" class="J"/><use xlink:href="#W" class="B"/><g stroke="#252535" class="O"><use xlink:href="#W"/><path d="M87.206 74.484c0 6.461-5.227 11.698-11.674 11.698s-11.673-5.237-11.673-11.698a11.69 11.69 0 0 1 11.673-11.699 11.69 11.69 0 0 1 11.674 11.699zm29.394 0c0 6.461-5.227 11.698-11.673 11.698a11.69 11.69 0 1 1 0-23.397A11.69 11.69 0 0 1 116.6 74.484z"/><path d="M92.301 75.026h-5.048m-23.395-.542H35.021"/></g></g><g transform="translate(202 429.242)"><g transform="translate(0 461.395)"><mask id="c" class="B"><use xlink:href="#B"/></mask><use xlink:href="#B" class="L"/><g mask="url(#c)" class="D P"><path d="M-9.071 34.938h264v38h-264z"/></g></g><g transform="translate(5.039 465.208)"><mask id="d" class="B"><use xlink:href="#C"/></mask><g fill="#cf3e83"><use xlink:href="#C"/><g mask="url(#d)" class="D"><path d="M-5.039-7.028h182v60h-182z"/></g></g></g><g transform="translate(1.008)"><mask id="e" class="B"><use xlink:href="#D"/></mask><use fill="#2f2f3d" xlink:href="#D"/><g mask="url(#e)" fill="#fcbda4" class="D"><path d="M-1.008 1.335h201v493h-201z"/></g></g><path d="M130.14 123.011l12.752-56.57-9.594 171.506z" class="I Q"/><g transform="translate(7.055 1.335)"><mask id="f" class="B"><use xlink:href="#E"/></mask><g fill="#efefef"><use xlink:href="#E"/><g mask="url(#f)" class="D"><path d="M-2.016 0h86v465h-86z"/></g></g></g></g><g transform="translate(186 212)"><g transform="translate(.156)"><mask id="g" class="B"><use xlink:href="#F"/></mask><g class="K"><use xlink:href="#F"/><g mask="url(#g)" class="D"><path d="M58.844 0h331v285h-331z"/></g></g></g><g transform="translate(0 42.748)"><mask id="h" class="B"><use xlink:href="#G"/></mask><g fill="#72a065"><use xlink:href="#G"/><g mask="url(#h)" class="D"><path d="M0 0h357v231H0z"/></g></g></g><path opacity=".201" d="M221.143 153.278l-6.665-26.324 17.996 35.975z" class="I"/><path opacity=".201" d="M96.986 214.218L65.909 170.17l37.539-56.895" class="G M"/></g></g><g transform="matrix(-1 0 0 1 1867 130)"><g transform="translate(283 76)"><g transform="translate(0 69)"><mask id="i" class="B"><use xlink:href="#H"/></mask><use xlink:href="#H" class="P"/><g mask="url(#i)" class="D K"><path d="M0-2h116v118H0z"/></g></g><path opacity=".399" d="M69.699 155.483l-24.212-5.159 24.096 16.175z" class="I"/><path fill="#2437a8" d="M89.671 107.5l8.367 20.326-10.028.127z"/><g class="L"><use xlink:href="#X"/><use xlink:href="#X" x="26.315"/></g><use xlink:href="#Y" class="B"/><use xlink:href="#Y" stroke="#252535" class="O"/><path d="M15.767 103.879C12.402 91.445.225 45.551 1.66 37.716 3.32 28.636 9.681 17.49 42.367 5.798c27.693-9.905 43.314-2.733 48.047 3.37 7.2 9.287 20.838 69.475 20.838 69.475s-11.284 7.979-51.3 6.603c0 0 5.54 23.938-17.168 22.562 0 0 2.433 8.061-8.556 10.597-6.029-9.317-14.031-13.082-18.46-14.528z" class="J"/></g><g transform="translate(109 429.242)"><g transform="translate(0 359.56)"><mask id="j" class="B"><use xlink:href="#I"/></mask><use xlink:href="#I" class="L"/><g mask="url(#j)" class="D P"><path d="M-12 25.819h433v132H-12z"/></g></g><g transform="translate(27 359.533)"><mask id="k" class="B"><use xlink:href="#J"/></mask><g fill="#cf3e83"><use xlink:href="#J"/><g mask="url(#k)" class="D"><path d="M-4 9.912h345v117H-4z"/></g></g></g><g transform="translate(27 .956)"><mask id="l" class="B"><use xlink:href="#K"/></mask><use fill="#101016" xlink:href="#K"/><g mask="url(#l)" class="D J"><path d="M-9 .04h341v478H-9z"/></g></g><path d="M358.912 464.366l-22.36 5.706h-.01l-26.03 6.652-.13.03-9.01 2.3-77.771-246.921-37.609-121.31-16.17-54.869c-8.81-36.795-8.99-53.654-8.99-54.999h94.46l22.439 100.368 81.181 363.042z" fill-opacity=".1" class="B"/></g><g transform="translate(206 242.818)"><g transform="translate(0 208.596)"><mask id="m" class="B"><use xlink:href="#L"/></mask><g class="K"><use xlink:href="#L"/><g mask="url(#m)" class="D"><path d="M-6 14.09h262v78H-6z"/></g></g></g><path d="M224.007 230.134s3.384 12.36 15.001 16.212c4.062 1.347 3.047 17.244 13.003 15.343" stroke-width="3" opacity=".148" class="M"/><mask id="n" class="B"><use xlink:href="#M"/></mask><g fill="#fcbda4"><use xlink:href="#M"/><g mask="url(#n)" class="D"><path d="M-9 0h258v242H-9z"/></g></g><g class="G M"><path opacity=".197" d="M61.398 166.767l9.155-47.519 22.641-38.134"/><path d="M193.103 193.18l4.325-69.24" opacity=".196"/></g><g transform="translate(115 5.768)"><mask id="o" class="B"><use xlink:href="#N"/></mask><g fill="#ea847a"><use xlink:href="#N"/><g mask="url(#o)" class="D"><path d="M-1 .197h45v25H-1z"/></g></g></g><g class="I"><path d="M44.778 219.077a3.99 3.99 0 1 1-8 0 3.99 3.99 0 1 1 8 0" class="Q"/><path d="M242.009 213.877c0 2.197-1.791 3.977-4 3.977s-4-1.78-4-3.977a3.99 3.99 0 1 1 8 0" opacity=".199"/></g><g class="M O"><path d="M.089 207.912l53.13-2.344" opacity=".203"/><path d="M195.103 221.422l45.739-25.005" opacity=".199"/></g><g class="I"><path d="M131.593 192.985l-7.04-.01c-.41-84.77-14.38-141.326-35.57-172.234v-.01l7.14-1.65c.11.149.22.298.32.457 21.64 30.222 35.96 86.49 35.15 173.447" class="Q"/><path d="M179.053 192.985h-7.17c10.06-81.539 3.7-137.956-12.84-170.822-.03-.08-.07-.149-.11-.229l3.81 1.809 4.57 2.167.08.04c17.28 32.041 23.11 83.716 11.66 167.035" opacity=".197"/></g></g></g><use xlink:href="#Z" class="C"/><use xlink:href="#Z" class="G H"/><use xlink:href="#a" class="B"/><use xlink:href="#a" class="G H"/><path d="M1188.726 268.983h125.847v-97.526h-125.847z" class="C"/></g></svg>