<svg xmlns="http://www.w3.org/2000/svg" xmlns:xlink="http://www.w3.org/1999/xlink" viewBox="123.76 60.75 357.62 295.04"><defs><style>.a{fill:none;}.b{isolation:isolate;}.c{fill:url(#a);}.d{fill:url(#b);}.e{fill:url(#c);}.aa,.f{fill:#0c0f38;}.f,.g{opacity:0.8;}.g,.i,.k,.n,.o,.p{fill:#d4088c;}.g,.h,.i,.n,.o,.p{mix-blend-mode:lighten;}.h,.v{fill:#6ee8fc;}.j{fill:#6ee1f8;}.l{fill:url(#d);}.m{fill:#6de0f6;}.n,.v,.w{opacity:0.5;}.o{opacity:0.3;}.p{opacity:0.15;}.q{fill:url(#e);}.r{fill:#480689;}.s{fill:#267fe5;}.t{fill:#38025b;}.u{clip-path:url(#f);}.w{fill:#25bfec;}.x{fill:url(#g);}.y{fill:url(#h);}.z{fill:#50deff;}.aa{opacity:0.4;}.ab{clip-path:url(#i);}.ac{fill:url(#j);}.ad{fill:url(#k);}.ae{fill:#161242;}</style><linearGradient id="a" x1="340.52" y1="1011.38" x2="387.54" y2="1011.38" gradientTransform="translate(1119.82 734.13) rotate(135)" gradientUnits="userSpaceOnUse"><stop offset="0" stop-color="#d4088c"/><stop offset="0.04" stop-color="#cc088c"/><stop offset="0.46" stop-color="#85078a"/><stop offset="0.76" stop-color="#590689"/><stop offset="0.91" stop-color="#480689"/></linearGradient><linearGradient id="b" x1="220.72" y1="1115.02" x2="240.19" y2="1115.02" gradientTransform="translate(408.15 1225.28) rotate(180)" gradientUnits="userSpaceOnUse"><stop offset="0" stop-color="#6ee8fc"/><stop offset="0.16" stop-color="#6ae2fb"/><stop offset="0.37" stop-color="#5ed1f7"/><stop offset="0.61" stop-color="#4bb5f1"/><stop offset="0.87" stop-color="#308ee8"/><stop offset="0.96" stop-color="#267fe5"/></linearGradient><linearGradient id="c" x1="82.77" y1="798.78" x2="126.55" y2="798.78" gradientTransform="translate(1176.41 -156.05) rotate(70.67)" xlink:href="#b"/><linearGradient id="d" x1="193.33" y1="223.65" x2="410.9" y2="223.65" gradientUnits="userSpaceOnUse"><stop offset="0" stop-color="#a31fa9"/><stop offset="0.07" stop-color="#8b17a0"/><stop offset="0.15" stop-color="#740f98"/><stop offset="0.24" stop-color="#640a92"/><stop offset="0.34" stop-color="#5b078f"/><stop offset="0.48" stop-color="#58068e"/><stop offset="0.63" stop-color="#4d22a3"/><stop offset="0.94" stop-color="#3168da"/><stop offset="1" stop-color="#2c75e4"/></linearGradient><linearGradient id="e" x1="494.19" y1="744.22" x2="596.82" y2="655.34" gradientTransform="matrix(0.87, 0.5, -1, 0.58, 525, -518.49)" gradientUnits="userSpaceOnUse"><stop offset="0" stop-color="#8d139b"/><stop offset="0.17" stop-color="#851ba1"/><stop offset="0.43" stop-color="#6e33b2"/><stop offset="0.76" stop-color="#4958cd"/><stop offset="1" stop-color="#2979e4"/></linearGradient><clipPath id="f"><path class="a" d="M185.89,295.56l45.26-29.49c1.33.77,2.41-.05,2.41-1.82V194.92a5.74,5.74,0,0,0-2.41-4.59l-2.57-1.49c-1.32-.76-2.4,0-2.4,1.82l-42.76,19.52C183.42,212,184.56,294.79,185.89,295.56Z"/></clipPath><linearGradient id="g" x1="1819.98" y1="231.05" x2="1888.6" y2="261.6" gradientTransform="matrix(-1, 0, 0, 1, 2048.1, 0)" xlink:href="#d"/><linearGradient id="h" x1="1848.1" y1="244.11" x2="1757.13" y2="244.11" gradientTransform="matrix(-1, 0, 0, 1, 2048.1, 0)" xlink:href="#d"/><clipPath id="i"><path class="a" d="M207.27,307.71l45.27-29.48c1.32.77,2.4-.05,2.4-1.82V207.08a5.79,5.79,0,0,0-2.4-4.6L250,201c-1.33-.77-2.41.05-2.41,1.82L204.8,222.34C204.8,224.11,206,307,207.27,307.71Z"/></clipPath><linearGradient id="j" x1="1798.6" y1="243.21" x2="1867.22" y2="273.75" gradientTransform="matrix(-1, 0, 0, 1, 2048.1, 0)" xlink:href="#d"/><linearGradient id="k" x1="1826.72" y1="256.27" x2="1735.75" y2="256.27" gradientTransform="matrix(-1, 0, 0, 1, 2048.1, 0)" xlink:href="#d"/></defs><title>Artboard 22</title><g class="b"><circle class="c" cx="147.27" cy="276.39" r="23.51"/><circle class="d" cx="177.7" cy="110.27" r="9.74"/><circle class="e" cx="456.63" cy="205.11" r="17.5" transform="translate(-13.58 376.8) rotate(-44.25)"/><path class="f" d="M461.11,276c-7,1.37-14.66-.82-17-4.88s1.42-8.46,8.45-9.83,14.66.82,17,4.89S468.15,274.62,461.11,276Z"/><ellipse class="f" cx="147.54" cy="344.99" rx="18.7" ry="10.8"/><path class="f" d="M179.84,149.62c-3.52.69-7.32-.41-8.51-2.44s.71-4.22,4.23-4.9,7.32.41,8.5,2.43S183.35,148.94,179.84,149.62Z"/><circle class="g" cx="242.02" cy="69.76" r="2.49"/><circle class="g" cx="198.3" cy="323.39" r="3.01"/><path class="h" d="M180.79,310.09a1.55,1.55,0,1,1-1.55-1.54A1.54,1.54,0,0,1,180.79,310.09Z"/><path class="h" d="M443.38,253a1.6,1.6,0,1,1-1.6-1.6A1.59,1.59,0,0,1,443.38,253Z"/><path class="h" d="M147.54,145.05a2.25,2.25,0,1,1-2.25-2.25A2.25,2.25,0,0,1,147.54,145.05Z"/><path class="h" d="M315.75,63a2.25,2.25,0,1,1-2.25-2.25A2.25,2.25,0,0,1,315.75,63Z"/><path class="h" d="M156.71,140.07a1.25,1.25,0,1,1-1.25-1.25A1.24,1.24,0,0,1,156.71,140.07Z"/><path class="i" d="M371.24,71a1.48,1.48,0,1,1-1.48-1.47A1.48,1.48,0,0,1,371.24,71Z"/><polygon class="j" points="155 218.85 154.46 216.93 158.74 215.73 157.54 211.45 159.47 210.91 161.2 217.12 155 218.85"/><polygon class="j" points="151.22 225.56 150.68 223.64 154.96 222.44 153.76 218.16 155.69 217.62 157.43 223.83 151.22 225.56"/><polygon class="j" points="155.23 223.4 153.49 217.2 159.7 215.46 160.24 217.39 155.96 218.58 157.16 222.86 155.23 223.4"/><path class="j" d="M302.92,75.78A4.76,4.76,0,1,1,307.68,71,4.76,4.76,0,0,1,302.92,75.78Zm0-7.52A2.76,2.76,0,1,0,305.68,71,2.77,2.77,0,0,0,302.92,68.26Z"/><path class="j" d="M407.33,313.94l-5.4-5.4,5.4-5.4,5.4,5.4Zm-2.57-5.4,2.57,2.58,2.58-2.58L407.33,306Z"/><rect class="k" x="421.38" y="116.29" width="2" height="8.18" transform="translate(38.57 333.89) rotate(-45)"/><rect class="k" x="418.29" y="119.38" width="8.18" height="2" transform="translate(38.6 333.94) rotate(-45)"/><path class="i" d="M127.37,186.66a1.48,1.48,0,1,1-1.48-1.47A1.47,1.47,0,0,1,127.37,186.66Z"/><path class="f" d="M289.74,328l-75.89-43.81c-5.39-3.12-4.72-8.56,1.52-12.16l72.86-42.06c6.23-3.6,15.65-4,21-.87l75.88,43.81c5.4,3.11,4.72,8.55-1.51,12.15L310.79,327.1C304.56,330.69,295.13,331.09,289.74,328Z"/><path class="l" d="M388.8,158.31H351.17l-41.89-24.19c-5.4-3.11-14.82-2.72-21,.88l-40.39,23.31H210.23V263.73h0c-.15,2.11,1,4.14,3.61,5.64l75.89,43.81c5.39,3.12,14.82,2.73,21.05-.87l72.86-42.07c3.24-1.87,5-4.23,5.13-6.51h0Z"/><path class="k" d="M219.76,158.31h-9.53V263.73h0a5.31,5.31,0,0,0,1.73,4.21,5.13,5.13,0,0,1-1.09-3.47h0V159.05h9.63Z"/><path class="m" d="M376.76,158.31c-.07.21-.14.42-.22.64h11.59V264.36h0a6.85,6.85,0,0,1-2.1,4.2,7.35,7.35,0,0,0,2.78-4.83h0V158.31Z"/><polygon class="n" points="236.81 282.62 236.81 160.35 223.14 160.35 223.14 274.73 236.81 282.62"/><polygon class="o" points="245.2 287.46 245.2 168.56 241.47 168.56 241.47 285.31 245.2 287.46"/><polygon class="p" points="251.88 291.32 251.88 170 248.15 170 248.15 289.17 251.88 291.32"/><path class="q" d="M289.74,207.76,213.85,164c-5.39-3.11-4.72-8.56,1.52-12.15l72.86-42.07c6.23-3.6,15.65-4,21-.87l75.88,43.81c5.4,3.12,4.72,8.56-1.51,12.15l-72.86,42.07C304.56,210.49,295.13,210.88,289.74,207.76Z"/><path class="k" d="M290.57,207.76,214.69,164c-5.4-3.11-4.72-8.56,1.51-12.15l72.86-42.07a24.13,24.13,0,0,1,10.73-2.94,24.32,24.32,0,0,0-11.56,2.94L215.37,151.8c-6.24,3.59-6.91,9-1.52,12.15l75.89,43.81a19.27,19.27,0,0,0,10.32,2.07A18.85,18.85,0,0,1,290.57,207.76Z"/><path class="m" d="M385.16,152.67l-75.88-43.81a19.36,19.36,0,0,0-10.34-2.07,18.79,18.79,0,0,1,9.36,2.07l75.89,43.81c5.39,3.12,4.72,8.56-1.51,12.15l-72.86,42.07a24.06,24.06,0,0,1-10.72,2.94,24.34,24.34,0,0,0,11.69-2.94l72.86-42.07C389.88,161.23,390.56,155.79,385.16,152.67Z"/><path class="r" d="M299,197a14.18,14.18,0,0,1-6.94-1.6l-56.49-32.61a4.92,4.92,0,0,1-2.84-4.16c0-1.94,1.44-3.89,4-5.34L291,121.92c4.7-2.72,11.85-3,15.93-.65l56.5,32.62a4.92,4.92,0,0,1,2.84,4.15c0,1.94-1.45,3.89-4,5.35L308,194.71A18.54,18.54,0,0,1,299,197Zm.93-76.76a18,18,0,0,0-8.73,2.18L237,153.69c-2.35,1.36-3.7,3.14-3.7,4.89a4.41,4.41,0,0,0,2.58,3.7l56.5,32.62c3.93,2.27,10.85,2,15.41-.65L362,162.93c2.36-1.36,3.71-3.14,3.71-4.89a4.45,4.45,0,0,0-2.58-3.7l-56.5-32.62A13.6,13.6,0,0,0,300,120.19Z"/><path class="m" d="M313,215.25l64.2-37.13a2.57,2.57,0,0,0,1.06-2V175c0-.78-.48-1.14-1.06-.8L313,211.36a2.57,2.57,0,0,0-1.06,2v1.05C311.89,215.22,312.37,215.58,313,215.25Z"/><path class="s" d="M375.74,177.31a2.54,2.54,0,0,0,1.06-2v-.86l.35-.19c.58-.34,1.06,0,1.06.8v1.05a2.57,2.57,0,0,1-1.06,2L313,215.24c-.58.34-1.06,0-1.06-.8v-.2Z"/><path class="m" d="M313,226.54l64.2-37.13a2.57,2.57,0,0,0,1.06-2v-1c0-.78-.48-1.14-1.06-.81L313,222.65a2.57,2.57,0,0,0-1.06,2v1.05C311.89,226.52,312.37,226.88,313,226.54Z"/><path class="s" d="M375.74,188.61a2.54,2.54,0,0,0,1.06-2v-.86l.35-.2c.58-.33,1.06,0,1.06.81v1a2.57,2.57,0,0,1-1.06,2L313,226.54c-.58.34-1.06,0-1.06-.8v-.2Z"/><path class="m" d="M313,237.84l64.2-37.13a2.57,2.57,0,0,0,1.06-2v-1.05c0-.79-.48-1.15-1.06-.81L313,234a2.57,2.57,0,0,0-1.06,2V237C311.89,237.82,312.37,238.18,313,237.84Z"/><path class="s" d="M375.74,199.91a2.54,2.54,0,0,0,1.06-2V197l.35-.2c.58-.34,1.06,0,1.06.81v1.05a2.57,2.57,0,0,1-1.06,2L313,237.84c-.58.34-1.06,0-1.06-.8v-.2Z"/><path class="m" d="M313,249.14,377.15,212a2.57,2.57,0,0,0,1.06-2v-1.06c0-.78-.48-1.14-1.06-.8L313,245.25a2.57,2.57,0,0,0-1.06,2v1.05C311.89,249.12,312.37,249.48,313,249.14Z"/><path class="s" d="M375.74,211.2a2.51,2.51,0,0,0,1.06-2v-.85l.35-.2c.58-.34,1.06,0,1.06.8V210a2.57,2.57,0,0,1-1.06,2L313,249.14c-.58.34-1.06,0-1.06-.81v-.19Z"/><path class="m" d="M313,260.43l64.2-37.13a2.54,2.54,0,0,0,1.06-2v-1.05c0-.78-.48-1.14-1.06-.8L313,256.55a2.54,2.54,0,0,0-1.06,2v1.05C311.89,260.41,312.37,260.77,313,260.43Z"/><path class="s" d="M375.74,222.5a2.54,2.54,0,0,0,1.06-2v-.86l.35-.19c.58-.34,1.06,0,1.06.8v1.05a2.54,2.54,0,0,1-1.06,2L313,260.43c-.58.34-1.06,0-1.06-.8v-.2Z"/><path class="m" d="M313,271.73l64.2-37.13a2.57,2.57,0,0,0,1.06-2v-1c0-.79-.48-1.15-1.06-.81L313,267.84a2.57,2.57,0,0,0-1.06,2v1.06C311.89,271.71,312.37,272.07,313,271.73Z"/><path class="s" d="M375.74,233.8a2.54,2.54,0,0,0,1.06-2v-.86l.35-.2c.58-.34,1.06,0,1.06.81v1a2.57,2.57,0,0,1-1.06,2L313,271.73c-.58.34-1.06,0-1.06-.8v-.2Z"/><path class="m" d="M313,283l64.2-37.13a2.57,2.57,0,0,0,1.06-2v-1.06c0-.78-.48-1.14-1.06-.8L313,279.14a2.57,2.57,0,0,0-1.06,2v1.05C311.89,283,312.37,283.37,313,283Z"/><path class="s" d="M375.74,245.1a2.54,2.54,0,0,0,1.06-2v-.85l.35-.2c.58-.34,1.06,0,1.06.8v1.06a2.57,2.57,0,0,1-1.06,2L313,283c-.58.34-1.06,0-1.06-.81V282Z"/><path class="m" d="M313,294.33l64.2-37.13a2.57,2.57,0,0,0,1.06-2v-1c0-.78-.48-1.14-1.06-.8L313,290.44a2.57,2.57,0,0,0-1.06,2v1C311.89,294.3,312.37,294.66,313,294.33Z"/><path class="s" d="M375.74,256.39a2.54,2.54,0,0,0,1.06-2v-.85l.35-.2c.58-.34,1.06,0,1.06.8v1a2.57,2.57,0,0,1-1.06,2L313,294.33c-.58.33-1.06,0-1.06-.81v-.2Z"/><path class="m" d="M313,305.62l64.2-37.13a2.57,2.57,0,0,0,1.06-2v-1c0-.78-.48-1.14-1.06-.81L313,301.73a2.57,2.57,0,0,0-1.06,2v1.05C311.89,305.6,312.37,306,313,305.62Z"/><path class="s" d="M375.74,267.69a2.54,2.54,0,0,0,1.06-2v-.86l.35-.2c.58-.33,1.06,0,1.06.81v1a2.57,2.57,0,0,1-1.06,2L313,305.62c-.58.34-1.06,0-1.06-.8v-.2Z"/><path class="m" d="M301.23,217.08a1.73,1.73,0,1,1-1.72-1.72A1.73,1.73,0,0,1,301.23,217.08Z"/><path class="s" d="M299.51,218.16a1.72,1.72,0,0,1-1.69-1.4,1.65,1.65,0,0,0,0,.32,1.73,1.73,0,1,0,3.45,0,1.66,1.66,0,0,0,0-.32A1.72,1.72,0,0,1,299.51,218.16Z"/><path class="m" d="M301.23,228.38a1.73,1.73,0,1,1-1.72-1.72A1.72,1.72,0,0,1,301.23,228.38Z"/><path class="s" d="M299.51,229.46a1.73,1.73,0,0,1-1.69-1.4,1.65,1.65,0,0,0,0,.32,1.73,1.73,0,0,0,3.45,0,1.66,1.66,0,0,0,0-.32A1.73,1.73,0,0,1,299.51,229.46Z"/><path class="m" d="M301.23,239.68a1.73,1.73,0,1,1-1.72-1.73A1.72,1.72,0,0,1,301.23,239.68Z"/><path class="s" d="M299.51,240.75a1.72,1.72,0,0,1-1.69-1.4,1.86,1.86,0,0,0,0,.33,1.73,1.73,0,0,0,3.45,0,1.84,1.84,0,0,0,0-.33A1.72,1.72,0,0,1,299.51,240.75Z"/><path class="m" d="M301.23,251a1.73,1.73,0,1,1-1.72-1.72A1.72,1.72,0,0,1,301.23,251Z"/><path class="s" d="M299.51,252.05a1.72,1.72,0,0,1-1.69-1.4,1.75,1.75,0,0,0,0,.32,1.73,1.73,0,1,0,3.42-.32A1.72,1.72,0,0,1,299.51,252.05Z"/><path class="m" d="M301.23,262.27a1.73,1.73,0,1,1-1.72-1.72A1.72,1.72,0,0,1,301.23,262.27Z"/><path class="s" d="M299.51,263.35a1.73,1.73,0,0,1-1.69-1.4,1.65,1.65,0,0,0,0,.32,1.73,1.73,0,0,0,3.45,0,1.66,1.66,0,0,0,0-.32A1.73,1.73,0,0,1,299.51,263.35Z"/><path class="m" d="M301.23,273.57a1.73,1.73,0,1,1-1.72-1.72A1.72,1.72,0,0,1,301.23,273.57Z"/><path class="s" d="M299.51,274.65a1.73,1.73,0,0,1-1.69-1.4,1.65,1.65,0,0,0,0,.32,1.73,1.73,0,0,0,3.45,0,1.66,1.66,0,0,0,0-.32A1.73,1.73,0,0,1,299.51,274.65Z"/><path class="m" d="M301.23,284.87a1.73,1.73,0,1,1-1.72-1.73A1.72,1.72,0,0,1,301.23,284.87Z"/><path class="s" d="M299.51,285.94a1.72,1.72,0,0,1-1.69-1.4,1.75,1.75,0,0,0,0,.33,1.73,1.73,0,0,0,3.45,0,1.76,1.76,0,0,0,0-.33A1.72,1.72,0,0,1,299.51,285.94Z"/><path class="m" d="M301.23,296.16a1.73,1.73,0,1,1-1.72-1.72A1.73,1.73,0,0,1,301.23,296.16Z"/><path class="s" d="M299.51,297.24a1.72,1.72,0,0,1-1.69-1.4,1.65,1.65,0,0,0,0,.32,1.73,1.73,0,1,0,3.45,0,1.66,1.66,0,0,0,0-.32A1.72,1.72,0,0,1,299.51,297.24Z"/><path class="m" d="M301.23,307.46a1.73,1.73,0,1,1-1.72-1.72A1.72,1.72,0,0,1,301.23,307.46Z"/><path class="s" d="M299.51,308.54a1.73,1.73,0,0,1-1.69-1.4,1.65,1.65,0,0,0,0,.32,1.73,1.73,0,0,0,3.45,0,1.66,1.66,0,0,0,0-.32A1.73,1.73,0,0,1,299.51,308.54Z"/><polygon class="r" points="335.96 178.42 264.92 137.4 265.17 136.98 336.21 178 335.96 178.42"/><path class="t" d="M228.58,264.59l2.57,1.48c1.33.77,2.41-.05,2.41-1.82V194.92a5.74,5.74,0,0,0-2.41-4.59l-2.57-1.49c-1.32-.76-2.4,0-2.4,1.82V260A5.77,5.77,0,0,0,228.58,264.59Z"/><g class="u"><polygon class="v" points="197.28 277.39 240.83 252.25 240.83 184 197.28 209.15 197.28 277.39"/><polygon class="w" points="201.07 279.54 244.62 254.4 244.62 186.16 201.07 211.3 201.07 279.54"/><polygon class="v" points="240.83 184 244.62 186.16 201.07 211.3 197.28 209.15 240.83 184"/><polygon class="v" points="240.83 252.25 244.62 254.4 201.07 279.54 197.28 277.39 240.83 252.25"/><path class="x" d="M196.31,205.37l2.41-1.4v0a1.5,1.5,0,0,1,1.55.12l2.57,1.48a5.76,5.76,0,0,1,2.41,4.59v69.34a2.1,2.1,0,0,1-.83,1.92h0l-2.31,1.36.46-1.63-2.31-1.33a5.76,5.76,0,0,1-2.4-4.59V205.9Z"/><path class="m" d="M202.83,205.59l-2.57-1.48a1.61,1.61,0,0,0-1.31-.22,2,2,0,0,1,.71.26l2.62,1.51a5.85,5.85,0,0,1,2.45,4.68v70.72a.53.53,0,0,1,0,.12,2.46,2.46,0,0,0,.52-1.66V210.18A5.76,5.76,0,0,0,202.83,205.59Z"/><path class="y" d="M197.89,281.24l2.57,1.49c1.33.76,2.4-.05,2.4-1.82V211.57a5.75,5.75,0,0,0-2.4-4.59l-2.57-1.48c-1.33-.77-2.4,0-2.4,1.81v69.34A5.73,5.73,0,0,0,197.89,281.24Z"/><polygon class="z" points="236.38 232.87 231.75 230.19 231.75 223.42 236.38 226.09 236.38 232.87"/><polygon class="z" points="236.38 236.27 236.38 243.46 231.75 240.79 231.75 233.6 236.38 236.27"/><polygon class="z" points="216.9 212.36 216.9 217.94 215.3 218.86 215.3 213.29 216.9 212.36"/><polygon class="z" points="220.59 215.81 218.99 216.73 218.99 211.16 220.59 210.23 220.59 215.81"/><polygon class="z" points="212.15 242.45 212.15 258.18 231.47 247.03 236.3 249.82 207.53 266.43 207.53 239.78 212.15 242.45"/><polygon class="z" points="231.75 217.68 231.75 209.36 222.68 214.6 222.68 209.03 236.38 201.12 236.38 220.35 231.75 217.68"/><polygon class="z" points="207.53 233.21 212.15 235.88 212.15 239.05 207.53 236.38 207.53 233.21"/><polygon class="z" points="213.22 220.06 212.15 220.68 212.15 229.47 207.53 226.8 207.53 217.78 213.22 214.49 213.22 220.06"/><polygon class="z" points="226.21 219.29 229.44 217.43 229.44 213.7 226.21 215.56 226.21 219.29"/><polygon class="z" points="220.59 222.53 223.82 220.67 223.82 216.94 220.59 218.81 220.59 222.53"/><polygon class="z" points="220.59 228.33 223.82 226.46 223.82 222.74 220.59 224.6 220.59 228.33"/><polygon class="z" points="214.97 253.28 218.2 251.41 218.2 247.69 214.97 249.55 214.97 253.28"/><polygon class="z" points="226.21 225.08 229.44 223.22 229.44 219.49 226.21 221.36 226.21 225.08"/><polygon class="z" points="214.97 225.78 218.2 223.91 218.2 220.19 214.97 222.05 214.97 225.78"/><path class="aa" d="M227.33,191.8l3.83,2.13v68.25l2.4-1.39,2.75-23.15V190.93s-5.05-1.17-5-1.07-.79.1-.79.1Z"/></g><path class="t" d="M250,276.75l2.57,1.48c1.32.77,2.4-.05,2.4-1.82V207.08a5.79,5.79,0,0,0-2.4-4.6L250,201c-1.33-.77-2.41.05-2.41,1.82v69.33A5.77,5.77,0,0,0,250,276.75Z"/><g class="ab"><polygon class="v" points="218.66 289.55 262.21 264.4 262.21 196.16 218.66 221.3 218.66 289.55"/><polygon class="w" points="222.45 291.7 266 266.56 266 198.31 222.45 223.46 222.45 291.7"/><polygon class="v" points="262.21 196.16 266 198.31 222.45 223.46 218.66 221.3 262.21 196.16"/><polygon class="v" points="262.21 264.4 266 266.56 222.45 291.7 218.66 289.55 262.21 264.4"/><path class="ac" d="M217.69,217.53l2.41-1.41v0a1.56,1.56,0,0,1,1.56.12l2.57,1.49a5.76,5.76,0,0,1,2.4,4.59v69.34a2.12,2.12,0,0,1-.82,1.92h0L223.49,295l.46-1.63-2.3-1.33a5.76,5.76,0,0,1-2.41-4.59V218.06Z"/><path class="m" d="M224.22,217.75l-2.57-1.49a1.63,1.63,0,0,0-1.32-.21,2.09,2.09,0,0,1,.71.25l2.62,1.52a5.86,5.86,0,0,1,2.46,4.68v70.71c0,.05,0,.08,0,.12a2.46,2.46,0,0,0,.51-1.65V222.34A5.76,5.76,0,0,0,224.22,217.75Z"/><path class="ad" d="M219.27,293.4l2.57,1.48c1.33.77,2.41,0,2.41-1.81V223.73a5.74,5.74,0,0,0-2.41-4.59l-2.57-1.49c-1.32-.76-2.4,0-2.4,1.82v69.34A5.77,5.77,0,0,0,219.27,293.4Z"/><polygon class="z" points="257.76 245.02 253.13 242.35 253.13 235.58 257.76 238.25 257.76 245.02"/><polygon class="z" points="257.76 248.43 257.76 255.62 253.13 252.94 253.13 245.75 257.76 248.43"/><polygon class="z" points="238.29 224.52 238.29 230.09 236.68 231.02 236.68 225.44 238.29 224.52"/><polygon class="z" points="241.97 227.97 240.37 228.89 240.37 223.32 241.97 222.39 241.97 227.97"/><polygon class="z" points="233.53 254.61 233.53 270.34 252.85 259.19 257.68 261.97 228.91 278.58 228.91 251.94 233.53 254.61"/><polygon class="z" points="253.13 229.84 253.13 221.52 244.06 226.76 244.06 221.19 257.76 213.28 257.76 232.51 253.13 229.84"/><polygon class="z" points="228.91 245.36 233.53 248.03 233.53 251.2 228.91 248.53 228.91 245.36"/><polygon class="z" points="234.6 232.22 233.53 232.84 233.53 241.63 228.91 238.96 228.91 229.93 234.6 226.65 234.6 232.22"/><polygon class="z" points="247.59 231.45 250.82 229.58 250.82 225.86 247.59 227.72 247.59 231.45"/><polygon class="z" points="241.97 234.69 245.2 232.83 245.2 229.1 241.97 230.97 241.97 234.69"/><polygon class="z" points="241.97 240.48 245.2 238.62 245.2 234.9 241.97 236.76 241.97 240.48"/><polygon class="z" points="236.35 265.44 239.58 263.57 239.58 259.85 236.35 261.71 236.35 265.44"/><polygon class="z" points="247.59 237.24 250.82 235.38 250.82 231.65 247.59 233.51 247.59 237.24"/><polygon class="z" points="236.35 237.94 239.58 236.07 239.58 232.35 236.35 234.21 236.35 237.94"/><path class="aa" d="M248.71,204l3.83,2.13v68.26l2.4-1.4,2.75-23.14V203.09s-5.05-1.17-5-1.07-.79.09-.79.09Z"/></g><path class="ae" d="M274.87,290.94a2.14,2.14,0,0,1-1.08-.33l-2.57-1.48a6.06,6.06,0,0,1-2.54-4.82V215a2.4,2.4,0,0,1,1-2.17,1.81,1.81,0,0,1,1.84.13l2.57,1.48a6,6,0,0,1,2.53,4.82v69.34a2.38,2.38,0,0,1-1,2.17A1.5,1.5,0,0,1,274.87,290.94Zm-3.39-2.26,2.57,1.48a1.3,1.3,0,0,0,1.31.13,1.93,1.93,0,0,0,.7-1.72V219.23a5.47,5.47,0,0,0-2.27-4.36l-2.57-1.49a1.29,1.29,0,0,0-1.31-.12,1.87,1.87,0,0,0-.7,1.71v69.34a5.51,5.51,0,0,0,2.27,4.37Z"/></g></svg>