<svg xmlns="http://www.w3.org/2000/svg" xmlns:xlink="http://www.w3.org/1999/xlink" viewBox="0 0 884.94 420.61"><defs><clipPath id="a"><rect x="-516.89" width="1401.83" height="420.61" fill="none"/></clipPath><radialGradient id="b" cx="60.91" cy="-1083.4" r="330.55" gradientTransform="matrix(0.97, 0.47, 0.49, -0.94, 722.24, -350.91)" gradientUnits="userSpaceOnUse"><stop offset="0" stop-color="#f4dbee"/><stop offset="1" stop-color="#d1bde5"/></radialGradient><clipPath id="c"><path d="M384.87,271.18l.27,3.16c1.54,14.27,8.64,32.6,20.34,52.17,0,0,.64,1.18,2,3.27,22.06,35.81,59.17,75.67,105,104.08C586.76,480,708.14,525.27,809,507.77s204.12-155.87,207.05-213.48a453,453,0,0,0-.49-59.75c-4.71-64.4-26.34-150.48-104.84-209.94C851.47-20.39,758-52.85,680.28-64.34c-24.21-3.59-46.78-5.06-66.39-4.32-13.35.58-25.25,2-35.29,4.79l-4.19,1.29a65.52,65.52,0,0,0-8.16,3C430.7,1.8,381.24,197.11,384.87,271.18Z" fill="none"/></clipPath><linearGradient id="d" x1="291.02" y1="286.56" x2="679.54" y2="229.6" gradientTransform="matrix(1, 0, 0, -1, 0, 420)" gradientUnits="userSpaceOnUse"><stop offset="0" stop-color="#1cfcff"/><stop offset="0.08" stop-color="#1ad9e1"/><stop offset="0.21" stop-color="#17a6b5"/><stop offset="0.34" stop-color="#157a90"/><stop offset="0.47" stop-color="#135771"/><stop offset="0.6" stop-color="#113b59"/><stop offset="0.73" stop-color="#102848"/><stop offset="0.86" stop-color="#0f1c3e"/><stop offset="1" stop-color="#0f183b"/></linearGradient><radialGradient id="e" cx="6585.42" cy="-569.6" r="325.33" gradientTransform="matrix(-0.92, -0.57, 0.59, -0.88, 7044.16, 3407.84)" gradientUnits="userSpaceOnUse"><stop offset="0" stop-color="#b3feff"/><stop offset="0.1" stop-color="#aefeff"/><stop offset="0.21" stop-color="#9ffeff"/><stop offset="0.34" stop-color="#87fdff"/><stop offset="0.47" stop-color="#66fdff"/><stop offset="0.61" stop-color="#3bfcff"/><stop offset="0.7" stop-color="#1cfcff"/></radialGradient><radialGradient id="f" cx="6528.28" cy="-548.36" r="211.16" gradientTransform="matrix(-0.92, -0.57, 0.59, -0.88, 7044.16, 3407.84)" gradientUnits="userSpaceOnUse"><stop offset="0" stop-color="#1cfcff"/><stop offset="0.17" stop-color="#1cfcff"/><stop offset="0.26" stop-color="#1beaef"/><stop offset="0.45" stop-color="#18bac6"/><stop offset="0.73" stop-color="#146d84"/><stop offset="1" stop-color="#0f183b"/></radialGradient><linearGradient id="g" x1="583.69" y1="-53.03" x2="834.41" y2="440.08" gradientTransform="matrix(1, 0, 0, -1, 0, 420)" gradientUnits="userSpaceOnUse"><stop offset="0" stop-color="#d1bde5"/><stop offset="1" stop-color="#fff"/></linearGradient><linearGradient id="h" x1="5764.47" y1="2413.16" x2="6365.77" y2="2413.16" gradientTransform="translate(6452.48 3423.96) rotate(-173.09)" gradientUnits="userSpaceOnUse"><stop offset="0" stop-color="#fff"/><stop offset="1" stop-color="#9579a7"/></linearGradient><linearGradient id="i" x1="5766.37" y1="2307.02" x2="6364.94" y2="2307.02" xlink:href="#h"/><linearGradient id="j" x1="5932.47" y1="2255.76" x2="5932.47" y2="2556.59" gradientTransform="translate(6452.48 3423.96) rotate(-173.09)" gradientUnits="userSpaceOnUse"><stop offset="0" stop-color="#d1bde5"/><stop offset="1" stop-color="#f4dbee"/></linearGradient></defs><title>Artboard 1</title><g clip-path="url(#a)"><path d="M542.49,429.57c-20-17.78-40.66-34.75-62.84-49.68-9.3-1.77-33.77-5-60-8.14l-81.38-9q-10.87-.92-22-1.55C231,356.36,136.33,365.46,67,415.11c-5.7,4.08-11.47,8.43-16.83,13.13l-1.49,1.33Z" fill="url(#b)"/><path d="M515.14,429.57C499,417.08,484.61,403,472.87,386.93c0,0-3.77,1.75-10.61,5.62-.91.46-1.67.95-2.57,1.4a387.07,387.07,0,0,0-50.93,35.62Z" fill="#cab3da"/><path d="M460.64,429.57c8.2-8,16.17-15.42,23.85-22.11L472.78,387q-19.35-1.68-38.71-3.33c-14.46,12.56-29.12,28.23-43.65,45.93Z" fill="#53345f"/><path d="M451.23,429.57h155L436.12,348.39c-14.59-11.51-15.59,22.78-16.41,23.36l27.6,50.4c1.25,2.41,2.56,4.89,3.92,7.42Z" fill="#53345f"/><path d="M606.23,429.57,436.12,348.39c-14.59-11.51-15.59,22.78-16.41,23.36l-81.39-9q-10.86-.92-22-1.55a407.17,407.17,0,0,0-12.64,68.37Z" fill="#53345f" opacity="0.5" style="isolation:isolate"/><g clip-path="url(#c)"><path d="M774.59-13.42H522.13c-28.52,24.12-51.37,55-69.19,87.81C414.57,145,399.52,224.53,401.52,265.2c.07,1,.1,2,.25,3,8.64,24.62,45.57,95.75,156.32,121.3C694.32,420.88,763,327.7,763,327.7l25.8,7.6c7.21-15.13,14.51-28.7,21.76-40.84,40.4-68.25,78.27-92.3,82.81-102.79,5.39-12.35,11.34-93.48-62.79-163.8a287.1,287.1,0,0,0-56-41.29Z" fill="url(#d)"/><path d="M774.59-13.42H522.13c-28.52,24.12-51.37,55-69.19,87.81C414.57,145,399.52,224.53,401.52,265.2c.07,1,.1,2,.25,3,8.64,24.62,45.57,95.75,156.32,121.3C694.32,420.88,763,327.7,763,327.7l25.8,7.6c7.21-15.13,14.51-28.7,21.76-40.84,40.4-68.25,78.27-92.3,82.81-102.79,5.39-12.35,11.34-93.48-62.79-163.8a287.1,287.1,0,0,0-56-41.29Z" fill="url(#e)"/><path d="M774.59-13.42H522.13c-28.52,24.12-51.37,55-69.19,87.81C414.57,145,399.52,224.53,401.52,265.2c.07,1,.1,2,.25,3,8.64,24.62,45.57,95.75,156.32,121.3C694.32,420.88,763,327.7,763,327.7l25.8,7.6c7.21-15.13,14.51-28.7,21.76-40.84,40.4-68.25,78.27-92.3,82.81-102.79,5.39-12.35,11.34-93.48-62.79-163.8a287.1,287.1,0,0,0-56-41.29Z" fill="url(#f)"/><path d="M385.14,274.35c1.54,14.27,8.64,32.6,20.34,52.17,0,0,.64,1.18,2,3.27,21,34.07,55.55,71.74,98.23,99.78h431c45.5-47.1,77.69-103.49,79.33-135.27a453,453,0,0,0-.49-59.75c-4.71-64.41-26.34-150.49-104.84-209.95-18.39-14-40.09-26.72-63.58-38H774.59a288.27,288.27,0,0,1,56,41.28c74.09,70.3,68.17,151.46,62.75,163.82-4.52,10.54-42.39,34.55-82.79,102.78-7.25,12.15-14.56,25.72-21.75,40.84L763,327.66s-68.67,93.2-204.92,61.81c-110.73-25.58-147.7-96.71-156.29-121.33a27.06,27.06,0,0,1-.26-3c-2-40.63,13.13-120.24,51.42-190.77,17.8-32.84,40.66-63.71,69.2-87.82H499.72C414.23,69.89,381.91,210.8,384.87,271.18A25.73,25.73,0,0,0,385.14,274.35Z" fill="url(#g)"/><path d="M936.76,429.57c45.49-47.1,77.68-103.48,79.33-135.26a469.32,469.32,0,0,0-.48-59.77c-5.4-15-15.48-27.1-33.07-31.72C917.94,185.86,811,364.59,811,364.59l-27.84-15.44S734.14,417,639.86,429.57Z" fill="url(#h)"/><path d="M505.72,429.57H578.6l-1.58-.19c-118.35-15.67-159.51-84.92-169.43-99.58,20.93,34.05,55.47,71.7,98.13,99.77Z" fill="url(#i)"/><path d="M796.38,429.57c1.1-16.35,5.87-36.13,15.8-59.64,41.51-97.82,142.91-164.45,142.91-164.45C869,176.27,797.77,345.94,797.77,345.94c-1.95,7.7-3.64,14.93-5,21.8l-.17.75c-5.06,25-6.68,45-5.86,61.08Z" fill="url(#j)"/><path d="M863.13,429.57c-3.15-6.21-4.77-14.74-4.1-26.24,4.56-78.2,102.3-135.79,125.82-111.21s-.91,78.6-.91,78.6,24.4-36.86,29.54-60.88c7.66-36.24-2.34-67.81-21.88-76.16S879.29,284.37,843.46,383.15c-6.9,19-9.6,34.32-9.26,46.42Z" fill="#53345f"/></g></g></svg>