<svg xmlns="http://www.w3.org/2000/svg" xmlns:xlink="http://www.w3.org/1999/xlink" viewBox="0 0 677.93 421.32"><defs><clipPath id="a"><rect x="15.3" width="1280" height="421.32" fill="none"/></clipPath><linearGradient id="b" x1="626.98" y1="175.03" x2="592.35" y2="275.72" gradientTransform="matrix(1, 0, 0, -1, 0, 422)" gradientUnits="userSpaceOnUse"><stop offset="0" stop-color="#3d2888"/><stop offset="0.26" stop-color="#311b7b"/><stop offset="0.65" stop-color="#240e6e"/><stop offset="1" stop-color="#200969"/></linearGradient><linearGradient id="c" x1="587.2" y1="161.42" x2="556.9" y2="249.5" gradientTransform="matrix(1, 0, 0, -1, 0, 422)" gradientUnits="userSpaceOnUse"><stop offset="0" stop-color="#638afe"/><stop offset="1" stop-color="#5234de"/></linearGradient><linearGradient id="d" x1="596.64" y1="218.93" x2="589.35" y2="240.11" gradientTransform="matrix(1, 0, 0, -1, 0, 422)" gradientUnits="userSpaceOnUse"><stop offset="0" stop-color="#240061"/><stop offset="1" stop-color="#1b0531"/></linearGradient><linearGradient id="e" x1="565.33" y1="199.72" x2="684.58" y2="240.74" xlink:href="#d"/><linearGradient id="f" x1="623.91" y1="174.08" x2="619.71" y2="186.28" xlink:href="#d"/><linearGradient id="g" x1="635.26" y1="249.45" x2="622.65" y2="286.1" gradientTransform="matrix(1, 0, 0, -1, 0, 422)" gradientUnits="userSpaceOnUse"><stop offset="0" stop-color="#01003e"/><stop offset="1" stop-color="#1b0531"/></linearGradient><linearGradient id="h" x1="558.63" y1="212.7" x2="626.96" y2="236.2" gradientTransform="matrix(1, 0, 0, -1, 0, 422)" gradientUnits="userSpaceOnUse"><stop offset="0" stop-color="#b87cbd"/><stop offset="1" stop-color="#451391"/></linearGradient><linearGradient id="i" x1="571.51" y1="199.6" x2="676.83" y2="235.83" gradientTransform="matrix(1, 0, 0, -1, 0, 422)" gradientUnits="userSpaceOnUse"><stop offset="0" stop-color="#977cff"/><stop offset="1" stop-color="#4513b6"/></linearGradient><linearGradient id="j" x1="534.3" y1="232.48" x2="647.87" y2="271.54" xlink:href="#g"/><linearGradient id="k" x1="652.44" y1="246.36" x2="651.05" y2="250.4" xlink:href="#g"/><linearGradient id="l" x1="561.41" y1="111.51" x2="552.07" y2="138.67" gradientTransform="matrix(1, 0, 0, -1, 0, 422)" gradientUnits="userSpaceOnUse"><stop offset="0" stop-color="#802c7d"/><stop offset="0.09" stop-color="#722b7e"/><stop offset="0.33" stop-color="#532981"/><stop offset="0.57" stop-color="#3d2883"/><stop offset="0.8" stop-color="#302784"/><stop offset="1" stop-color="#2b2784"/></linearGradient><linearGradient id="m" x1="550.32" y1="115.46" x2="571.5" y2="122.75" gradientTransform="matrix(1, 0, 0, -1, 0, 422)" gradientUnits="userSpaceOnUse"><stop offset="0" stop-color="#090d4c"/><stop offset="1" stop-color="#180033"/></linearGradient><linearGradient id="n" x1="208.39" y1="109.93" x2="212.5" y2="129.42" gradientTransform="matrix(1, 0, 0, -1, 0, 422)" gradientUnits="userSpaceOnUse"><stop offset="0" stop-color="#3d0a61"/><stop offset="0.23" stop-color="#320a64"/><stop offset="0.64" stop-color="#250968"/><stop offset="1" stop-color="#200969"/></linearGradient><linearGradient id="o" x1="203.5" y1="116.06" x2="218.27" y2="112.95" xlink:href="#m"/><linearGradient id="p" x1="513.9" y1="304.23" x2="507.07" y2="332.25" xlink:href="#n"/><linearGradient id="q" x1="503.22" y1="309.18" x2="524.88" y2="314.46" xlink:href="#m"/><linearGradient id="r" x1="301.37" y1="74.59" x2="304.21" y2="88.05" xlink:href="#n"/><linearGradient id="s" x1="298" y1="78.83" x2="308.2" y2="76.67" xlink:href="#m"/><linearGradient id="t" x1="424.6" y1="226.71" x2="427.44" y2="240.16" xlink:href="#n"/><linearGradient id="u" x1="421.25" y1="230.94" x2="431.45" y2="228.79" xlink:href="#m"/><linearGradient id="v" x1="73.41" y1="44.73" x2="76.25" y2="58.17" xlink:href="#n"/><linearGradient id="w" x1="70.04" y1="48.94" x2="80.24" y2="46.79" xlink:href="#m"/><linearGradient id="x" x1="300.58" y1="38.06" x2="302.15" y2="45.51" xlink:href="#n"/><linearGradient id="y" x1="298.73" y1="40.39" x2="304.38" y2="39.2" xlink:href="#m"/><linearGradient id="z" x1="613.12" y1="118.03" x2="614.7" y2="125.49" xlink:href="#n"/><linearGradient id="aa" x1="611.28" y1="120.39" x2="616.93" y2="119.2" xlink:href="#m"/><linearGradient id="ab" x1="317.08" y1="61.17" x2="312.42" y2="61.97" xlink:href="#m"/><linearGradient id="ac" x1="315.63" y1="59.77" x2="316.31" y2="63.72" xlink:href="#m"/><linearGradient id="ad" x1="239.67" y1="178.49" x2="235.01" y2="179.28" xlink:href="#m"/><linearGradient id="ae" x1="238.23" y1="177.09" x2="238.91" y2="181.05" xlink:href="#m"/><linearGradient id="af" x1="406.9" y1="970.33" x2="406.9" y2="975.31" gradientTransform="matrix(1.79, -0.18, -0.11, -1.1, -118.23, 1281.47)" xlink:href="#m"/><linearGradient id="ag" x1="405.57" y1="973.1" x2="409.38" y2="973.1" gradientTransform="matrix(1.79, -0.18, -0.11, -1.1, -118.23, 1281.47)" xlink:href="#m"/><linearGradient id="ah" x1="316.9" y1="739.51" x2="316.9" y2="744.49" gradientTransform="matrix(1.79, -0.18, -0.11, -1.1, -118.23, 1281.47)" xlink:href="#m"/><linearGradient id="ai" x1="315.39" y1="741.86" x2="319.2" y2="741.86" gradientTransform="matrix(1.79, -0.18, -0.11, -1.1, -118.23, 1281.47)" xlink:href="#m"/><linearGradient id="aj" x1="453.35" y1="983.86" x2="453.35" y2="988.83" gradientTransform="matrix(1.79, -0.18, -0.11, -1.1, -118.23, 1281.47)" xlink:href="#m"/><linearGradient id="ak" x1="451.99" y1="986.71" x2="455.79" y2="986.71" gradientTransform="matrix(1.79, -0.18, -0.11, -1.1, -118.23, 1281.47)" xlink:href="#m"/><linearGradient id="al" x1="195.52" y1="1127.5" x2="195.52" y2="1132.47" gradientTransform="matrix(1.79, -0.18, -0.11, -1.1, -118.23, 1281.47)" xlink:href="#m"/><linearGradient id="am" x1="194.6" y1="1129.84" x2="198.41" y2="1129.84" gradientTransform="matrix(1.79, -0.18, -0.11, -1.1, -118.23, 1281.47)" xlink:href="#m"/><linearGradient id="an" x1="300.98" y1="91.98" x2="296.31" y2="92.77" xlink:href="#m"/><linearGradient id="ao" x1="299.54" y1="90.58" x2="300.21" y2="94.54" xlink:href="#m"/><linearGradient id="ap" x1="313.62" y1="99.93" x2="308.95" y2="100.72" xlink:href="#m"/><linearGradient id="aq" x1="312.16" y1="98.52" x2="312.84" y2="102.48" xlink:href="#m"/><linearGradient id="ar" x1="609.66" y1="349.65" x2="604.99" y2="350.44" xlink:href="#m"/><linearGradient id="as" x1="608.2" y1="348.25" x2="608.88" y2="352.21" xlink:href="#m"/><linearGradient id="at" x1="107.57" y1="401.43" x2="101.66" y2="402.43" xlink:href="#m"/><linearGradient id="au" x1="105.75" y1="399.64" x2="106.6" y2="404.64" xlink:href="#m"/><linearGradient id="av" x1="454.89" y1="228.4" x2="450.23" y2="229.2" xlink:href="#m"/><linearGradient id="aw" x1="453.45" y1="227" x2="454.12" y2="230.96" xlink:href="#m"/><linearGradient id="ax" x1="101.57" y1="9.21" x2="92.91" y2="10.69" xlink:href="#m"/><linearGradient id="ay" x1="98.86" y1="6.62" x2="100.11" y2="13.97" xlink:href="#m"/><linearGradient id="az" x1="64.6" y1="122.02" x2="55.93" y2="123.5" xlink:href="#m"/><linearGradient id="ba" x1="61.86" y1="119.4" x2="63.12" y2="126.75" xlink:href="#m"/><linearGradient id="bb" x1="96.84" y1="36.88" x2="92.17" y2="37.67" xlink:href="#m"/><linearGradient id="bc" x1="95.39" y1="35.48" x2="96.07" y2="39.43" xlink:href="#m"/><linearGradient id="bd" x1="84.68" y1="90.82" x2="80.01" y2="91.62" xlink:href="#m"/><linearGradient id="be" x1="83.28" y1="89.42" x2="83.96" y2="93.39" xlink:href="#m"/><linearGradient id="bf" x1="106.81" y1="19.43" x2="105.74" y2="24.27" xlink:href="#m"/><linearGradient id="bg" x1="104.97" y1="20.37" x2="108.71" y2="21.2" xlink:href="#m"/><linearGradient id="bh" x1="17.36" y1="2.5" x2="12.7" y2="3.29" xlink:href="#m"/><linearGradient id="bi" x1="15.93" y1="1.11" x2="16.6" y2="5.06" xlink:href="#m"/><linearGradient id="bj" x1="450.41" y1="216.77" x2="445.74" y2="217.56" xlink:href="#m"/><linearGradient id="bk" x1="448.97" y1="215.37" x2="449.64" y2="219.33" xlink:href="#m"/><linearGradient id="bl" x1="602.31" y1="50.31" x2="598.93" y2="58.8" xlink:href="#n"/><linearGradient id="bm" x1="599.99" y1="52.04" x2="606.64" y2="54.69" xlink:href="#m"/><linearGradient id="bn" x1="420.28" y1="48.62" x2="423.12" y2="62.08" xlink:href="#n"/><linearGradient id="bo" x1="416.9" y1="52.84" x2="427.1" y2="50.69" xlink:href="#m"/><linearGradient id="bp" x1="48.92" y1="315.45" x2="39.57" y2="342.62" xlink:href="#b"/><linearGradient id="bq" x1="37.82" y1="319.37" x2="59" y2="326.66" xlink:href="#m"/><linearGradient id="br" x1="481.04" y1="99.43" x2="475.6" y2="115.22" xlink:href="#l"/><linearGradient id="bs" x1="474.61" y1="101.74" x2="486.93" y2="105.98" xlink:href="#m"/><linearGradient id="bt" x1="9.11" y1="337.54" x2="4.53" y2="350.86" xlink:href="#l"/><linearGradient id="bu" x1="3.73" y1="339.48" x2="14.11" y2="343.05" xlink:href="#m"/><linearGradient id="bv" x1="107.27" y1="382.49" x2="102.69" y2="395.8" xlink:href="#l"/><linearGradient id="bw" x1="101.91" y1="384.43" x2="112.29" y2="388" xlink:href="#m"/><linearGradient id="bx" x1="293.57" y1="385.14" x2="268.19" y2="458.93" xlink:href="#b"/><linearGradient id="by" x1="256.3" y1="405.58" x2="310.48" y2="424.22" xlink:href="#g"/><linearGradient id="bz" x1="274.09" y1="420.96" x2="307.65" y2="432.5" xlink:href="#i"/><linearGradient id="ca" x1="566.67" y1="415.99" x2="552.67" y2="462.32" xlink:href="#b"/><linearGradient id="cb" x1="548.9" y1="413.68" x2="579.68" y2="424.27" xlink:href="#g"/><linearGradient id="cc" x1="544.7" y1="425.92" x2="559.06" y2="430.86" xlink:href="#i"/><linearGradient id="cd" x1="159.5" y1="69.05" x2="138.43" y2="130.29" xlink:href="#b"/><linearGradient id="ce" x1="136.36" y1="73.19" x2="171.07" y2="85.12" xlink:href="#g"/><linearGradient id="cf" x1="125.82" y1="89.22" x2="157.84" y2="100.23" xlink:href="#g"/><linearGradient id="cg" x1="169.25" y1="90.53" x2="153.84" y2="135.33" xlink:href="#c"/><linearGradient id="ch" x1="426.14" y1="112.74" x2="411.7" y2="154.72" xlink:href="#n"/><linearGradient id="ci" x1="408.61" y1="114.47" x2="427.21" y2="120.87" xlink:href="#m"/><linearGradient id="cj" x1="433.79" y1="119.44" x2="420.6" y2="157.78" xlink:href="#c"/><linearGradient id="ck" x1="224.42" y1="-10.09" x2="214.54" y2="18.63" xlink:href="#n"/><linearGradient id="cl" x1="229.26" y1="-1.04" x2="221.65" y2="21.07" xlink:href="#c"/><linearGradient id="cm" x1="128.1" y1="0.59" x2="123.15" y2="14.98" xlink:href="#n"/><linearGradient id="cn" x1="121.33" y1="1" x2="130.95" y2="4.3" xlink:href="#m"/><linearGradient id="co" x1="130.51" y1="5.12" x2="126.71" y2="16.18" xlink:href="#c"/><linearGradient id="cp" x1="767.11" y1="1277.16" x2="767.11" y2="1291.69" gradientTransform="translate(1568.32 1045.53) rotate(160.66)" xlink:href="#n"/><linearGradient id="cq" x1="757.12" y1="1282.35" x2="766.95" y2="1282.35" gradientTransform="translate(1568.32 1045.53) rotate(160.66)" xlink:href="#m"/><linearGradient id="cr" x1="770.8" y1="1280.38" x2="770.8" y2="1291.66" gradientTransform="translate(1568.32 1045.53) rotate(160.66)" xlink:href="#c"/><linearGradient id="cs" x1="206.07" y1="96.94" x2="202.68" y2="106.79" xlink:href="#n"/><linearGradient id="ct" x1="201.48" y1="97.23" x2="208.07" y2="99.5" xlink:href="#m"/><linearGradient id="cu" x1="207.75" y1="100.06" x2="205.15" y2="107.63" xlink:href="#c"/></defs><title>Artboard 1</title><g clip-path="url(#a)"><path d="M677.93,161.89s-2.29,5.46-5.47,11.59a75.14,75.14,0,0,1-8.09,12.92l-3.51,3.76L632.16,221l-.71,4.49L630.9,229l-.48,3L626,247s-8.54,3.5-12.82,4.64L598,242.52l-8.81-5.26-5.62-3.41-4.52.07-3.62.05-6.12.09-14.18-6.72-3-1.42-2.78-1.32-6-2.83-6.31-3s2.14-6.19,4.36-8.43l1.39-11.58s12.71-25.28,21-33.71a336.22,336.22,0,0,1,68.49-32.51l5.42,9.91,6.29-3.11,13.17,8.75,9.22,6.13,8.92,5.92h0l.55.37Z" fill="url(#b)"/><path d="M558.36,172l14,25,17.7,7,2.15,4.22L594,218.4l21.9,21.65-2.64,11.58-29.61-17.78-14.27.21-32.25-15.29,4.44-9.63,1.29-10.36s11.66-21.65,15.54-26.78Z" fill="url(#c)"/><path d="M560.49,214.69,572.32,197l52.93-27.48-1.49,7L590,204s-16.47,8.27-29.53,10.67Z" fill="url(#d)"/><path d="M569.38,234.06l22.79-25.9,28.1-18.72,57.65-27.56-13.56,24.5L632.15,221l-38.23-2.6-8.94,15Z" fill="url(#e)"/><path d="M613.18,251.58,615.82,240l14.6-8s-1.86,10.67-4.42,14.93Z" fill="url(#f)"/><path d="M623.76,176.5l14-34-5.42-9.91-7.11,37-1.48,7Z" fill="url(#g)"/><path d="M571,198.94v-4.21l7-.42Zm42.88,39.18,1.15,6.81,2.66-6Z" fill="#756aca"/><path d="M560.49,214.69l31.68-6.53,28.1-18.72,3.49-12.94L590,204l-29.53,10.7Z" opacity="0.5" fill="url(#h)" style="isolation:isolate"/><path d="M666.45,154.26a15.87,15.87,0,0,1-4.26-.79,70.76,70.76,0,0,0-25.38-2.68,21.39,21.39,0,0,1-6.34-.09,9.69,9.69,0,0,0-2.71-.51,6.87,6.87,0,0,0-3,1.16c-18,10.22-39.61,13.69-54.9,27.93a23.15,23.15,0,0,0-4.69,5.67c-2.2,3.94-2.61,8.73-4.45,12.87-1.56,3.51-4.08,6.43-6.09,9.65-2.68,4.31-4.91,9.76-5.25,14.94a20,20,0,0,0,0,2.19l-6-2.83c4.56-9.27,10.89-17.56,14.33-27.38,2-5.72,3.47-11.83,7.07-16.59,3-4,7.35-6.77,11.64-9.25,15.31-8.84,31.61-15.61,47.87-22.36a23,23,0,0,1,5.21-1.68,20.6,20.6,0,0,1,4.3,0,130.19,130.19,0,0,1,23.35,3.69Zm10.39,7.28c-11.92,3.45-24.56.28-36.92.51-21.15.41-40.84,10.75-59.69,20.89a33.93,33.93,0,0,0-8.23,5.5c-2.78,2.74-4.63,6.32-6.31,10-1.28,2.7-7,20.09-10.48,28.93l-3-1.42a32.14,32.14,0,0,0,3.75-7.25c3.26-8.16,7-16.28,9.84-24.6a19.59,19.59,0,0,1,3-5.66,17.64,17.64,0,0,1,4-3.16A352.52,352.52,0,0,1,623,158.73a4.81,4.81,0,0,1,3.4-.53c1,.36,1.74,1.37,2.69,2,2.61,1.55,5.66-.71,8.51-1.63,3.83-1.21,7.91.08,11.82.92a52,52,0,0,0,19.66.45c2.09-.35,4.57-.66,6.34.25h0l.55.37A3.63,3.63,0,0,1,676.84,161.54Zm-45.39,63.91L630.9,229a52.3,52.3,0,0,0-21.79-.09c-2.24.47-4.56,1.14-6.2,2.8a13.45,13.45,0,0,0-2.62,4.67q-1.2,3.06-2.25,6.16l-8.81-5.27c3.53-4.07,7.45-9.21,12.06-11a20.18,20.18,0,0,1,4.77-1.06l14.55-1.86c2.62-.34,5.33-.66,7.85.19A7.47,7.47,0,0,1,631.45,225.45Z" fill="#c49fcc"/><path d="M672.46,173.48a75.14,75.14,0,0,1-8.09,12.92l-3.51,3.76c-6.14-2.24-13.23.43-19.42,3.16l-20.31,8.82c-9.51,4.13-19.13,8.32-27.47,14.66A50,50,0,0,0,579.13,234l-3.62.05c2.9-4.21,7.48-8.75,8.68-10.21,4.21-5.12,8.46-10.31,13.67-14.3,8.77-6.72,19.59-9.58,29.62-13.91,15.3-6.69,29.27-17,45-22.13Z" opacity="0.5" fill="url(#i)" style="isolation:isolate"/><path d="M542.82,198.75l3.69,5.55,20.8-16.25,5.53-9.51,18.81-4.44,35.49-26,4.86-2.77.35-12.75,5.42,9.91,6.29-3.11-12.95,8.93-37.77,26-16.53,8.42L568,189.54l-20.83,16.4-5.7,4.35,1.38-11.54Z" fill="url(#j)"/><path d="M637.77,142.48l-6.55,4.9L599.05,170l-5.71,4.4-16.53,8.42L568,189.54l-22.14,16.88-4.39,3.87-2.27,3.94,27.14-21.43,1.88-2.58,9.41-6.37,10.58-6.08,7.82-1.65,10.33-10,25.95-17.34,11.78-9.41-6.29,3.11Z" fill="#756abb"/><path d="M643.18,178.44l11-8,6.57-.39-8.89,5.72Z" fill="url(#k)"/><path d="M643.18,178.44l8.8-4.16,8.78-4.19-8.64,6.46Z" fill="#7551bb"/><path d="M542.78,296.71l8.58,13L571,307.15l-1.95-14.8s-3.79-9-16.05-9.38C553,283,543.35,292.25,542.78,296.71Z" fill="url(#l)"/><path d="M551.36,309.72l1-8.88,16.71-8.49,1.95,14.8a62.08,62.08,0,0,1-19.66,2.57Z" fill="url(#m)"/><path d="M202.37,297l.7,10.83,12.41,5.76,3.79-9.42s.76-6.68-6.3-11.47c0,0-8.78,1.93-10.6,4.3Z" fill="url(#n)"/><path d="M203.07,307.81l3.55-4.85,12.65,1.2-3.79,9.41A43.81,43.81,0,0,1,203.07,307.81Z" fill="url(#o)"/><path d="M496.61,102.21,504,116l19.8-.65-.65-14.93s-3-9.29-15.17-10.9c0,0-10.47,8.31-11.39,12.69Z" fill="url(#p)"/><path d="M504,116l1.77-8.74,17.38-6.84.65,14.93A61.79,61.79,0,0,1,504,116Z" fill="url(#q)"/><path d="M297.21,337l.48,7.48,8.57,4,2.62-6.5s.53-4.61-4.35-7.92C304.53,334,298.47,335.32,297.21,337Z" fill="url(#r)"/><path d="M297.69,344.46l2.45-3.35,8.74.83-2.62,6.5a30.11,30.11,0,0,1-8.57-4Z" fill="url(#s)"/><path d="M420.44,184.86l.49,7.48,8.57,4,2.62-6.49s.52-4.62-4.36-7.93C427.76,181.9,421.7,183.2,420.44,184.86Z" fill="url(#t)"/><path d="M420.93,192.34l2.45-3.35,8.74.84-2.62,6.49A29.84,29.84,0,0,1,420.93,192.34Z" fill="url(#u)"/><path d="M69.25,366.87l.48,7.47,8.57,4,2.62-6.49s.53-4.61-4.35-7.91c0,0-6.06,1.26-7.32,2.95Z" fill="url(#v)"/><path d="M69.73,374.34,72.18,371l8.74.84-2.62,6.49a30.11,30.11,0,0,1-8.57-4Z" fill="url(#w)"/><path d="M298.27,378.18l.27,4.14,4.75,2.21,1.45-3.6a4.92,4.92,0,0,0-2.41-4.39s-3.36.72-4.06,1.64Z" fill="url(#x)"/><path d="M298.54,382.32l1.36-1.86,4.84.47-1.45,3.6a17,17,0,0,1-4.75-2.21Z" fill="url(#y)"/><path d="M610.82,298.18l.27,4.14,4.74,2.21,1.46-3.61a4.91,4.91,0,0,0-2.41-4.38s-3.36.71-4.06,1.64Z" fill="url(#z)"/><path d="M611.09,302.32l1.36-1.86,4.84.46-1.46,3.61a16.53,16.53,0,0,1-4.74-2.21Z" fill="url(#aa)"/><path d="M313.61,362.63l2.56-.28,1.26-3.34-2.28-.91a3,3,0,0,0-2.67,1.78S313,362.18,313.61,362.63Z" fill="url(#ab)"/><path d="M316.14,362.35l-1.18-.9.16-3.35,2.28.91A12,12,0,0,1,316.14,362.35Z" fill="url(#ac)"/><path d="M236.17,245.31l2.57-.28,1.26-3.34-2.28-.91a3,3,0,0,0-2.67,1.78S235.61,244.86,236.17,245.31Z" fill="url(#ad)"/><path d="M238.74,245l-1.19-.9.17-3.35,2.28.91A12.37,12.37,0,0,1,238.74,245Z" fill="url(#ae)"/><path d="M498.82,136l1.54,2.75,6.05.18.57-2.86s-.43-1.83-4-2.32C502.94,133.76,499.34,135.19,498.82,136Z" fill="url(#af)"/><path d="M500.36,138.72l1-1.64L507,136l-.57,2.87A30.69,30.69,0,0,1,500.36,138.72Z" fill="url(#ag)"/><path d="M363.15,406.54l1.54,2.75,6.05.17.57-2.85s-.43-1.83-4-2.32C367.27,404.29,363.67,405.72,363.15,406.54Z" fill="url(#ah)"/><path d="M364.69,409.29l1-1.64,5.63-1.06-.57,2.86A30,30,0,0,1,364.69,409.29Z" fill="url(#ai)"/><path d="M580.47,112.64l1.54,2.75,6,.18.57-2.87s-.43-1.82-4-2.31C584.61,110.39,581,111.82,580.47,112.64Z" fill="url(#aj)"/><path d="M582,115.39l1-1.64,5.63-1.06-.57,2.87A30.69,30.69,0,0,1,582,115.39Z" fill="url(#ak)"/><path d="M103.2,1.61l1.54,2.74,6.05.18.57-2.87s-.43-1.82-4-2.31C107.31-.65,103.72.74,103.2,1.61Z" fill="url(#al)"/><path d="M104.74,4.35l1-1.64,5.63-1.06-.57,2.87A30.69,30.69,0,0,1,104.74,4.35Z" fill="url(#am)"/><path d="M297.48,331.82l2.57-.28,1.25-3.34-2.28-.91a3,3,0,0,0-2.67,1.78S296.89,331.37,297.48,331.82Z" fill="url(#an)"/><path d="M300.05,331.54l-1.19-.9.16-3.35,2.28.91A12.34,12.34,0,0,1,300.05,331.54Z" fill="url(#ao)"/><path d="M310.11,323.88l2.57-.3,1.25-3.32-2.28-.92a3,3,0,0,0-2.66,1.78S309.52,323.43,310.11,323.88Z" fill="url(#ap)"/><path d="M312.68,323.58l-1.19-.88.16-3.36,2.28.92A11.78,11.78,0,0,1,312.68,323.58Z" fill="url(#aq)"/><path d="M606.15,74.15l2.57-.28L610,70.53l-2.28-.91A3,3,0,0,0,605,71.4,8.82,8.82,0,0,0,606.15,74.15Z" fill="url(#ar)"/><path d="M608.72,73.87l-1.19-.9.16-3.35,2.28.91A12,12,0,0,1,608.72,73.87Z" fill="url(#as)"/><path d="M103.14,22.86l3.25-.37L108,18.27l-2.89-1.15a3.84,3.84,0,0,0-3.38,2.26S102.39,22.3,103.14,22.86Z" fill="url(#at)"/><path d="M106.39,22.51l-1.5-1.13.2-4.21L108,18.33A15.77,15.77,0,0,1,106.39,22.51Z" fill="url(#au)"/><path d="M451.39,195.4l2.57-.29,1.25-3.34-2.28-.9a3,3,0,0,0-2.67,1.78S450.8,194.94,451.39,195.4Z" fill="url(#av)"/><path d="M454,195.11l-1.19-.89.16-3.35,2.28.9A11.9,11.9,0,0,1,454,195.11Z" fill="url(#aw)"/><path d="M95.07,416.12l4.78-.55,2.32-6.15-4.23-1.69a5.63,5.63,0,0,0-5,3.3S94,415.26,95.07,416.12Z" fill="url(#ax)"/><path d="M99.85,415.57l-2.24-1.65.3-6.23,4.23,1.69A22.6,22.6,0,0,1,99.85,415.57Z" fill="url(#ay)"/><path d="M58.09,303.33l4.77-.54,2.33-6.19L61,294.9s-3-.25-5,3.31C56,298.21,57,302.49,58.09,303.33Z" fill="url(#az)"/><path d="M62.86,302.79l-2.25-1.65.3-6.24,4.24,1.7A22.6,22.6,0,0,1,62.86,302.79Z" fill="url(#ba)"/><path d="M93.34,386.93l2.57-.3,1.25-3.32-2.28-.92a3,3,0,0,0-2.66,1.75S92.75,386.48,93.34,386.93Z" fill="url(#bb)"/><path d="M95.91,386.63l-1.19-.88.16-3.36,2.28.92A11.78,11.78,0,0,1,95.91,386.63Z" fill="url(#bc)"/><path d="M81.19,333l2.57-.3,1.25-3.3-2.28-.91a3,3,0,0,0-2.67,1.78S80.61,332.53,81.19,333Z" fill="url(#bd)"/><path d="M83.76,332.67l-1.15-.89.16-3.35,2.28.91A11.93,11.93,0,0,1,83.76,332.67Z" fill="url(#be)"/><path d="M103.89,399.77l1.22,2.4h3.41l-.06-2.57a3,3,0,0,0-2.57-1.94S104.07,399,103.89,399.77Z" fill="url(#bf)"/><path d="M105.11,402.17l.34-1.49,3-1.11.06,2.57A10.77,10.77,0,0,1,105.11,402.17Z" fill="url(#bg)"/><path d="M13.87,421.29l2.57-.29,1.25-3.33-2.28-.88a3,3,0,0,0-2.66,1.77S13.28,420.84,13.87,421.29Z" fill="url(#bh)"/><path d="M16.44,421l-1.19-.89.16-3.32,2.28.91A12.42,12.42,0,0,1,16.44,421Z" fill="url(#bi)"/><path d="M446.91,207l2.57-.3,1.25-3.33-2.28-.91a3,3,0,0,0-2.67,1.78S446.32,206.57,446.91,207Z" fill="url(#bj)"/><path d="M449.48,206.74l-1.19-.88.16-3.36,2.28.91A11.84,11.84,0,0,1,449.48,206.74Z" fill="url(#bk)"/><path d="M596.12,367.48l2.92,4,6.23-1.14-.84-4.68a5.5,5.5,0,0,0-5.25-2.72s-2.94,3.1-3.06,4.54Z" fill="url(#bl)"/><path d="M599,371.5l.19-2.84,5.2-3,.84,4.68A19.82,19.82,0,0,1,599,371.5Z" fill="url(#bm)"/><path d="M416.11,363l.5,7.49,8.57,4,2.62-6.51s.53-4.6-4.35-7.91C423.43,360,417.37,361.29,416.11,363Z" fill="url(#bn)"/><path d="M416.61,370.45l2.45-3.35,8.74.83-2.62,6.51A30.42,30.42,0,0,1,416.61,370.45Z" fill="url(#bo)"/><path d="M30.27,92.81l8.58,13,19.66-2.55-1.9-14.8s-3.79-9-16-9.39C40.51,79.07,30.84,88.35,30.27,92.81Z" fill="url(#bp)"/><path d="M38.85,105.81l1-8.86,16.76-8.49,2,14.74A61.81,61.81,0,0,1,38.85,105.81Z" fill="url(#bq)"/><path d="M470.21,314.55l5,7.57,11.4-1.5-1.14-8.6s-2.2-5.21-9.34-5.46c0,0-5.59,5.4-5.92,8Z" fill="url(#br)"/><path d="M475.2,322.12l.58-5.16L485.5,312l1.11,8.6a36.18,36.18,0,0,1-11.41,1.5Z" fill="url(#bs)"/><path d="M0,77.72l4.2,6.39,9.63-1.22-.95-7.24S11,71.2,5,71C5,71,.27,75.52,0,77.72Z" fill="url(#bt)"/><path d="M4.2,84.11l.49-4.38,8.19-4.21.95,7.37A30.48,30.48,0,0,1,4.2,84.11Z" fill="url(#bu)"/><path d="M98.17,32.77l4.2,6.37L112,37.89l-1-7.26s-1.81-4.39-7.82-4.61C103.18,26,98.44,30.58,98.17,32.77Z" fill="url(#bv)"/><path d="M102.37,39.14l.49-4.35,8.19-4.16,1,7.26A30.82,30.82,0,0,1,102.37,39.14Z" fill="url(#bw)"/><path d="M307.22-11.06v-.49l-.93-1.88h-59.6l-.2,1.53L258.35,1.37l7.38,8.26,4.71,5.26,3.77,4.22,16.72,18.66,5.94-8.48-3.26-10,14-16.86Z" fill="url(#bx)"/><path d="M307.2-11.57c-7.85,6.79-17.49,21.44-17.49,21.44l2.06,8.54L288,19.7l-4.57,6-12.91-16-16.3-23.17h-7.58l-.18,1.57,44.43,49.61,5.95-8.43-3.26-10,14-16.86Z" fill="url(#by)"/><path d="M274.88-13.43l14.83,23.3L307.2-11.57l-.94-1.86Z" opacity="0.2" fill="url(#bz)" style="isolation:isolate"/><path d="M271.2-13.43,262.09-7a8.53,8.53,0,0,0-2.92,2.9,10.81,10.81,0,0,0-.82,5.48l7.38,8.26A30.31,30.31,0,0,1,275-3.3,44,44,0,0,1,278.91-6a122.67,122.67,0,0,1,13.92-7.37Zm35.07,0h-1.66A92.53,92.53,0,0,0,283.5-1.66a41.24,41.24,0,0,0-8.51,8,28,28,0,0,0-4.55,8.56l3.77,4.22a41.06,41.06,0,0,1,10.4-16.86A56.64,56.64,0,0,1,299-7.45l8.18-3.61v-.49l-1-1.88Z" fill="#c49fcc"/><path d="M542.49-13.43l5.59,19.58,11.85-.66,7,4L580.37-.06l-.94-13.37Z" fill="url(#ca)"/><path d="M547.8,5.29l10.07-7.41,3.21,5.73,13.56-9.92,5.73,6.25L566.94,9.46l-7-4-11.85.66Z" fill="url(#cb)"/><path d="M542.48-13.43,547.8,5.29l10.07-7.41-2.15-11.31Z" opacity="0.36" fill="url(#cc)" style="isolation:isolate"/><path d="M136.35,349l12.68,7.6a80.21,80.21,0,0,0,20.13-25.08l-1.36-17.26,2.66-7.25-15.79-20.6s-19.76,3.44-32.2,26.24L126.21,334,136.47,337Z" fill="url(#cd)"/><path d="M136.35,349s9.63-13.29,23.56-20.33l9.25,2.87A86.48,86.48,0,0,1,149,356.55Z" fill="url(#ce)"/><path d="M136.47,337l20.45-17.5-1.54-4.73s-13.22,5.19-29.17,19.31Z" fill="url(#cf)"/><path d="M154.67,286.38l-5.32,9.9,4.68,19,2.89,4.24-1.8-16.31,2-3.18,2.74,28.63,9.25,2.87-1.36-17.26,2.66-7.25Z" fill="url(#cg)"/><path d="M401.33,277.58l6.51,27.89,17.37,4.12,3.08-5.14.53-36.83L420,264.43l-18.66,13.15Z" fill="url(#ch)"/><path d="M407.84,305.47l16.12-11,4.33,10-3.08,5.14Z" fill="url(#ci)"/><path d="M420,264.43l4,30.05,4.33,10,.53-36.83Z" fill="url(#cj)"/><path d="M211.85,430.3h12.21l5.39-7.37-1.68-19.83-5.58-2.39a50.35,50.35,0,0,0-17.85,10.87l6,18.29Z" fill="url(#ck)"/><path d="M222.19,400.75l1.19,20.78,6.07,1.44-1.68-19.83-5.58-2.39Z" fill="url(#cl)"/><path d="M118.05,411.17l3,9.14,5.91,1.51,3.66-5-.84-9.92-2.79-1.2a25.35,25.35,0,0,0-8.94,5.45Z" fill="url(#cm)"/><path d="M121,420.31l6.53-4.19,3,.72-3.67,5Z" fill="url(#cn)"/><path d="M127,405.73l.59,10.39,3,.72-.84-9.92L127,405.73Z" fill="url(#co)"/><path d="M426.35,81.64l2.94,8.81-3.61,4.86-5.6-1.45-5-8,1.43-2.66A23.5,23.5,0,0,1,426.35,81.64Z" fill="url(#cp)"/><path d="M429.3,90.45l-7.33.94-1.89,2.47,5.6,1.45Z" fill="url(#cq)"/><path d="M416.51,83.16,422,91.39l-1.89,2.47-5-8,1.43-2.66Z" fill="url(#cr)"/><path d="M199.21,318l2,6.26,4,1,2.51-3.41-.57-6.79-1.91-.82a17.46,17.46,0,0,0-6.08,3.71Z" fill="url(#cs)"/><path d="M201.26,324.29l4.48-2.86,2.07.49-2.51,3.41-4-1Z" fill="url(#ct)"/><path d="M205.33,314.3l.41,7.13,2.07.49-.57-6.79Z" fill="url(#cu)"/></g></svg>