<svg xmlns="http://www.w3.org/2000/svg" xmlns:xlink="http://www.w3.org/1999/xlink" xmlns:v="https://vecta.io/nano" viewBox="0.68 15.93 638.93 583.9"><defs><radialGradient id="A" cx="502.59" cy="1150.32" r="412.02" gradientTransform="matrix(0.72, -0.01, 0.01, 0.7, -145.56, -40.96)" xlink:href="#L"><stop offset="0" stop-color="#f4dbee"/><stop offset="1" stop-color="#d1bde5"/></radialGradient><radialGradient id="B" cx="1158.67" cy="1202.49" r="423.27" xlink:href="#A"/><linearGradient id="C" x1="192.741" y1="535.302" x2="1007.339" y2="524.496" xlink:href="#L"><stop offset="0" stop-color="#fff"/><stop offset="1" stop-color="#9579a7"/></linearGradient><clipPath id="D"><path d="M163.61 395.75l1.46 2.23c6.8 9.89 19.24 20.71 35.54 30.74 0 0 .94.62 2.79 1.64 30.29 18.13 73.12 33.62 117.7 37.53 72.37 6.35 178.64-5.33 245-55.48s86.42-189.85 65.63-233.18a386.86 386.86 0 0 0-24.11-43.64c-29-45.51-79-100.65-159.75-115.23-61-11.06-141.89-.29-203 20-19 6.32-36 13.6-50 21.39a128.63 128.63 0 0 0-23.76 16.52l-2.53 2.5A50.47 50.47 0 0 0 164 86c-74.21 95.21-32.49 256.76-.39 309.75z" fill="none" clip-rule="evenodd"/></clipPath><linearGradient id="E" x1="40.123" y1="324.618" x2="342.579" y2="218.286" xlink:href="#L"><stop offset="0" stop-color="#1cfcff"/><stop offset=".08" stop-color="#1ad9e1"/><stop offset=".21" stop-color="#17a6b5"/><stop offset=".34" stop-color="#157a90"/><stop offset=".47" stop-color="#135771"/><stop offset=".6" stop-color="#113b59"/><stop offset=".73" stop-color="#102848"/><stop offset=".86" stop-color="#0f1c3e"/><stop offset="1" stop-color="#0f183b"/></linearGradient><radialGradient id="F" cx="5894.9" cy="434.42" r="405.46" gradientTransform="matrix(-0.72,-0.06,-0.06,0.7,4574.82,289.54)" xlink:href="#L"><stop offset="0" stop-color="#b3feff"/><stop offset=".1" stop-color="#aefeff"/><stop offset=".21" stop-color="#9ffeff"/><stop offset=".34" stop-color="#87fdff"/><stop offset=".47" stop-color="#66fdff"/><stop offset=".61" stop-color="#3bfcff"/><stop offset=".7" stop-color="#1cfcff"/></radialGradient><radialGradient id="G" cx="5823.69" cy="407.95" r="263.16" gradientTransform="matrix(-0.72,-0.06,-0.06,0.7,4574.82,289.54)" xlink:href="#L"><stop offset="0" stop-color="#1cfcff"/><stop offset=".17" stop-color="#1cfcff"/><stop offset=".26" stop-color="#1beaef"/><stop offset=".45" stop-color="#18bac6"/><stop offset=".73" stop-color="#146d84"/><stop offset="1" stop-color="#0f183b"/></radialGradient><linearGradient id="H" x1="384.3" y1="469.145" x2="378.29" y2="16.075" xlink:href="#L"><stop offset="0" stop-color="#d1bde5"/><stop offset="1" stop-color="#fff"/></linearGradient><linearGradient id="I" x1="5215.44" y1="-2526.27" x2="5705.53" y2="-2526.27" gradientTransform="matrix(-0.93, 0.36, 0.36, 0.93, 6429.2, 730.03)" xlink:href="#C"/><linearGradient id="J" x1="5332.14" y1="-2411.84" x2="5332.14" y2="-2660.74" gradientTransform="matrix(-0.93, 0.36, 0.36, 0.93, 6429.2, 730.03)" xlink:href="#L"><stop offset="0" stop-color="#d1bde5"/><stop offset="1" stop-color="#f4dbee"/></linearGradient><path id="K" d="M173.34 385.21l1.35 2.07c16.08 14.86 71.23 53.38 161.92 31.15C448.16 391.1 461 297.34 461 297.34l21.78-4c-.77-13.77-.87-26.42-.42-38 2.22-65 20.2-96.65 19.33-106-1-11.05-28.94-72.76-110.81-96.92-54.28-16-105.21-9.92-141.26-.54-17.82 5.95-33.79 12.74-46.89 20.12a120 120 0 0 0-22.24 15.5l-2.4 2.33a49 49 0 0 0-4.4 4.9c-28.87 37.08-39 84.81-38.86 131.54.17 65.9 20.88 129.84 38.51 158.94z"/><linearGradient id="L" gradientUnits="userSpaceOnUse"/></defs><g fill-rule="evenodd"><path d="M342.63 599.74q4.56-5.36 9.32-10.51a890.41 890.41 0 0 0 73.44-90.87c1.14-1.6 7.08-3 14.9-4.24 18.59-2.89 47.74-4.57 47.74-4.57-9.91-1.27-19.77-3-29.57-4.95q-8.71-1.77-17.38-3.83c-55.16-13-109.22-33.39-165.28-40.36-7.47 2.15-26.53 8.85-46.89 16.24l-62.77 23.5q-8.25 3.35-16.59 7c-57.09 25-115.23 61-148.87 112.6z" fill="url(#A)"/><path d="M600.43 596.46q-7.14-24.53-14.65-48.93a.37.37 0 0 1 0-.11l-22.26-69.24-5.79-17.15-.43-1.24c-18.25-1.88-38.46-3.43-58.27-2.51q-18.45 3.11-37 5.37-7.87 1-15.76 1.82c-55.84 5.9-121.14 9.36-172.65-16.36 0 0-2.05 2.68-5.49 8.05-.47.67-.83 1.31-1.31 2-26.55 42.77-41.12 91.65-48.07 141.6h381.68z" fill="#cab3da"/><path d="M600.43 465.68q-9.88-1.76-19.81-3.15-4.39-.61-8.8-1.14l-4.7-.55h-.24l-9.59-1-13.92-1.31c-10-.83-20.45-1.42-30.9-1.46-4.48 0-9 .06-13.45.26a173.53 173.53 0 0 0-37 5.37 108.7 108.7 0 0 0-20.32 7.62l-.63 10.5-.56 9.53-.23 3.82-.37 6.23-.56 9.77-.88 14.84c6.34 12.28 14.27 24.79 24.16 35a90.2 90.2 0 0 0 8.4 7.64c2.37 1.88 5.86 5.68 10.27 11.1q8.37 10.29 16.15 21.08h103z" fill="url(#B)"/><g fill="#53345f"><path d="M565.05 599.74c-.06-45.88 3.82-92.86 15.57-137.21q-4.39-.61-8.8-1.14l-4.7-.55h0l-9.79-1c-14.12-1.46-29.43-2.71-44.82-2.77a1135.28 1135.28 0 0 0 15 142.72zm-311.37 0c10.23-52 22.61-103.85 36.58-140.87l-16.67-10.71q-14.74 5.93-29.47 11.89c-13.86 36.52-20.82 87.92-24 139.69z"/><path d="M543.37 458.48c0 1.49-.13 2.37-.13 2.37.06.26-54.15 14.64-84.78 23.75l-14.61 4.55-3.33 1.15c-30.31 10.43-62.58 22.71-94.29 25.29C319 517.81 290.43 498 269 483.41l-40.11-26.76c.4-.75-12.51-26.27 2.68-23.22 3.58.71 293.36-7 297.16-6.82 14.51.56 14.89 24.22 14.64 31.87z"/></g></g><path d="M354.1,599.74c1.74-29.45,4.13-58.63,7.27-87.06l-2.11-.81c-3.14,28.69-5.52,58.15-7.24,87.87Z" fill="#53345f"/><g fill-rule="evenodd"><path d="M600.43 522.57v-56.89c-9.51-1.69-19-3.14-28.61-4.29l-4.7-.55h0l-3.57 17.35a1021.92 1021.92 0 0 0-16.06 121.56h30.94a259.56 259.56 0 0 1 2.41-30.57 111.47 111.47 0 0 1 5-21.64v-.1a83 83 0 0 1 14.59-24.87z" fill="url(#C)" style="mix-blend-mode:multiply"/><path d="M202.39 599.74h193a578 578 0 0 0 67.25-39.82c40.94-28.12 78.38-61.55 109.18-98.53l-4.7-.55h-.24l-9.59-1-13.92-1.31c.25-7.65-.13-31.31-14.62-31.87-3.8-.14-293.58 7.53-297.16 6.82-15.19-3.05-2.28 22.47-2.68 23.22l-62.77 23.5q-8.25 3.35-16.59 7a338 338 0 0 0 23.21 66.39c7.75 16.24 17.36 32.41 29.63 46.15z" fill="#53345f" opacity=".5" style="mix-blend-mode:multiply"/></g><g clip-path="url(#D)"><use xlink:href="#K" fill="url(#E)"/><use xlink:href="#K" fill="url(#F)" style="mix-blend-mode:darken"/><use xlink:href="#K" opacity=".69" fill="url(#G)"/><g fill-rule="evenodd"><path d="M163.61 395.75l1.46 2.23c6.8 9.89 19.24 20.71 35.54 30.74 0 0 .94.62 2.79 1.64 30.29 18.13 73.12 33.62 117.7 37.53 72.37 6.35 178.64-5.33 245-55.48s86.42-189.85 65.63-233.18a386.86 386.86 0 0 0-24.11-43.64c-29-45.51-79-100.65-159.75-115.23-61-11.06-141.89-.29-203 20-19 6.32-36 13.6-50 21.39a128.63 128.63 0 0 0-23.76 16.52l-2.53 2.5A50.47 50.47 0 0 0 164 86c-74.21 95.21-32.49 256.76-.39 309.75zm-28.79-169.51c-.15-46.73 10-94.45 38.89-131.53a42.71 42.71 0 0 1 4.4-4.91l2.38-2.33A117.76 117.76 0 0 1 202.73 72c13.08-7.36 29.09-14.16 46.91-20.08 36.09-9.38 87-15.45 141.29.51 81.84 24.16 109.82 85.89 110.8 97 .89 9.37-17.09 41-19.33 106-.43 11.6-.35 24.24.44 38L461 297.32s-12.84 93.76-124.4 121.13c-90.69 22.2-145.84-16.32-161.9-31.19a21.44 21.44 0 0 1-1.38-2.08c-17.62-29.05-38.32-93.02-38.5-158.94z" fill="url(#H)"/><path d="M203.41 430.36c30.3 18.12 73.09 33.61 117.68 37.54 72.39 6.33 178.67-5.32 245-55.51s86.43-189.83 65.66-233.15a398 398 0 0 0-24.12-43.67c-9.91-9-22-14.15-36.66-11-53.72 11.45-60.37 182.1-60.37 182.1l-26.37-1s-12.54 98.24-118 135.13c-92.3 32.2-149.78-3.35-162.82-10.44z" fill="url(#I)" style="mix-blend-mode:multiply"/><path d="M594.93 381.25c-25.16 23.12-72.52 15.69-81.32-71.12-8.75-87.15 38.5-173.49 38.5-173.49-74.22 10.44-58.53 161.22-58.53 161.22 1.64 6.37 3.3 12.3 5.05 17.83l.17.61c36.49 117.78 91.38 69.41 96.13 64.95z" fill="url(#J)"/><path d="M636 191.63c-8.82-29.44-28.68-48.88-46.21-47.78s-61.44 78.69-48.2 164.4 68.65 56 78.74 23l6-18S585.29 369 561 317.3c-27.79-59.06 20.37-137.45 47.22-128.1s30.6 58 30.6 58 3.05-36.06-2.82-55.57z" fill="#53345f"/></g><g fill="#fff"><path d="M463.45 149.79s-1.25-25.64-4.25-33.22c0 0-17.45-13.82-38.93-18.89l-14 45.82s44.73 2.95 57.18 6.29zm-20.89 165.33s-5 22-14.88 35.31l-13.31-6.74s9.36-20 13.35-32zm-7.13-265s-69-23.6-112.89-21.53c0 0 154.98-22.09 112.89 21.53zm91.92 147.59l-26.1-6.37-5.9 27.55 25.16 3.99 6.84-25.17z"/></g></g></svg>