<svg xmlns="http://www.w3.org/2000/svg" viewBox="26.72 157.83 546.53 204.66"><defs><style>.a{isolation:isolate;}.b{opacity:0.3;}.c{fill:#7979d3;}.d{fill:#fccc6b;mix-blend-mode:lighten;}</style></defs><title>Artboard 18</title><g class="a"><g class="b"><path class="c" d="M89.76,348.17H89V318a26.21,26.21,0,0,1,26.18-26.19H297.47v.8H115.14A25.42,25.42,0,0,0,89.76,318Z"/><path class="c" d="M81.89,330.92h-.8V317.49a32.68,32.68,0,0,1,32.64-32.64H297.47v.8H113.73a31.88,31.88,0,0,0-31.84,31.84Z"/><path class="c" d="M73.55,337.84h-.8V317.33a40,40,0,0,1,40-40H297.47v.8H112.72a39.22,39.22,0,0,0-39.17,39.18Z"/><path class="c" d="M66.93,359h-.8V314.72A44.92,44.92,0,0,1,111,269.85H297.47v.8H111a44.12,44.12,0,0,0-44.07,44.07Z"/><path class="c" d="M89.36,351.81a2.15,2.15,0,1,1,2.14-2.14A2.14,2.14,0,0,1,89.36,351.81Zm0-3.48a1.34,1.34,0,1,0,1.34,1.34A1.34,1.34,0,0,0,89.36,348.33Z"/><path class="c" d="M81.49,334.42a2.14,2.14,0,1,1,2.14-2.14A2.14,2.14,0,0,1,81.49,334.42Zm0-3.48a1.34,1.34,0,1,0,1.34,1.34A1.34,1.34,0,0,0,81.49,330.94Z"/><path class="c" d="M73.15,341.36a2.14,2.14,0,1,1,2.14-2.14A2.14,2.14,0,0,1,73.15,341.36Zm0-3.48a1.34,1.34,0,1,0,1.34,1.34A1.34,1.34,0,0,0,73.15,337.88Z"/><path class="c" d="M66.53,362.49a2.15,2.15,0,1,1,2.14-2.14A2.14,2.14,0,0,1,66.53,362.49Zm0-3.49a1.35,1.35,0,1,0,1.34,1.35A1.35,1.35,0,0,0,66.53,359Z"/><path class="c" d="M297.06,235.46H113.32a32.67,32.67,0,0,1-32.64-32.64V189.4h.8v13.42a31.87,31.87,0,0,0,31.84,31.84H297.06Z"/><path class="c" d="M297.06,243H112.32a40,40,0,0,1-40-40V182.48h.8V203a39.21,39.21,0,0,0,39.18,39.17H297.06Z"/><path class="c" d="M297.06,250.46H110.59A44.92,44.92,0,0,1,65.72,205.6V161.31h.81V205.6a44.11,44.11,0,0,0,44.06,44.06H297.06Z"/><path class="c" d="M81.08,190.17A2.14,2.14,0,1,1,83.22,188,2.14,2.14,0,0,1,81.08,190.17Zm0-3.48A1.34,1.34,0,1,0,82.42,188,1.34,1.34,0,0,0,81.08,186.69Z"/><path class="c" d="M72.74,183.24a2.15,2.15,0,1,1,2.14-2.15A2.14,2.14,0,0,1,72.74,183.24Zm0-3.49a1.35,1.35,0,1,0,1.34,1.34A1.35,1.35,0,0,0,72.74,179.75Z"/><path class="c" d="M66.12,162.11A2.14,2.14,0,1,1,68.27,160,2.14,2.14,0,0,1,66.12,162.11Zm0-3.48A1.34,1.34,0,1,0,67.47,160,1.35,1.35,0,0,0,66.12,158.63Z"/><rect class="c" x="51.21" y="263.05" width="245.68" height="0.8"/><rect class="c" x="30.46" y="256.3" width="267.01" height="0.8"/><path class="c" d="M49.64,265.59a2.14,2.14,0,1,1,2.14-2.14A2.14,2.14,0,0,1,49.64,265.59Zm0-3.48A1.34,1.34,0,1,0,51,263.45,1.34,1.34,0,0,0,49.64,262.11Z"/><path class="c" d="M28.89,258.84A2.14,2.14,0,1,1,31,256.7,2.14,2.14,0,0,1,28.89,258.84Zm0-3.48a1.34,1.34,0,1,0,1.34,1.34A1.34,1.34,0,0,0,28.89,255.36Z"/><path class="c" d="M486.27,235.46H297.18v-.8H486.27a31.87,31.87,0,0,0,31.84-31.84V189.4h.8v13.42A32.67,32.67,0,0,1,486.27,235.46Z"/><path class="c" d="M487.28,243H297.18v-.8h190.1A39.21,39.21,0,0,0,526.45,203V182.48h.8V203A40,40,0,0,1,487.28,243Z"/><path class="c" d="M489,250.46H297.18v-.8H489a44.12,44.12,0,0,0,44.07-44.06V161.31h.8V205.6A44.92,44.92,0,0,1,489,250.46Z"/><path class="c" d="M518.51,190.17a2.14,2.14,0,1,1,2.14-2.14A2.14,2.14,0,0,1,518.51,190.17Zm0-3.48a1.34,1.34,0,1,0,1.34,1.34A1.34,1.34,0,0,0,518.51,186.69Z"/><path class="c" d="M526.85,183.24a2.15,2.15,0,1,1,2.14-2.15A2.14,2.14,0,0,1,526.85,183.24Zm0-3.49a1.35,1.35,0,1,0,1.34,1.34A1.35,1.35,0,0,0,526.85,179.75Z"/><path class="c" d="M533.47,162.11a2.14,2.14,0,1,1,2.14-2.14A2.14,2.14,0,0,1,533.47,162.11Zm0-3.48a1.34,1.34,0,1,0,1.34,1.34A1.34,1.34,0,0,0,533.47,158.63Z"/><path class="c" d="M511.45,348.17h-.8V318a25.42,25.42,0,0,0-25.38-25.39H297.58v-.8H485.27A26.22,26.22,0,0,1,511.45,318Z"/><path class="c" d="M519.32,330.92h-.8V317.49a31.88,31.88,0,0,0-31.84-31.84H297.58v-.8h189.1a32.68,32.68,0,0,1,32.64,32.64Z"/><path class="c" d="M527.66,337.84h-.8V317.33a39.23,39.23,0,0,0-39.18-39.18H297.58v-.8h190.1a40,40,0,0,1,40,40Z"/><path class="c" d="M534.28,359h-.8V314.72a44.12,44.12,0,0,0-44.07-44.07H297.58v-.8H489.41a44.92,44.92,0,0,1,44.87,44.87Z"/><path class="c" d="M511.05,351.81a2.15,2.15,0,1,1,2.14-2.14A2.14,2.14,0,0,1,511.05,351.81Zm0-3.48a1.34,1.34,0,1,0,1.34,1.34A1.34,1.34,0,0,0,511.05,348.33Z"/><path class="c" d="M518.92,334.42a2.14,2.14,0,1,1,2.14-2.14A2.14,2.14,0,0,1,518.92,334.42Zm0-3.48a1.34,1.34,0,1,0,1.34,1.34A1.34,1.34,0,0,0,518.92,330.94Z"/><path class="c" d="M527.26,341.36a2.14,2.14,0,1,1,2.14-2.14A2.14,2.14,0,0,1,527.26,341.36Zm0-3.48a1.34,1.34,0,1,0,1.34,1.34A1.34,1.34,0,0,0,527.26,337.88Z"/><path class="c" d="M533.88,362.49a2.15,2.15,0,1,1,2.14-2.14A2.14,2.14,0,0,1,533.88,362.49Zm0-3.49a1.35,1.35,0,1,0,1.34,1.35A1.36,1.36,0,0,0,533.88,359Z"/><rect class="c" x="297.76" y="256.47" width="251.03" height="0.8"/><rect class="c" x="297.18" y="263.22" width="272.36" height="0.8"/><path class="c" d="M550.36,259a2.14,2.14,0,1,1,2.14-2.14A2.14,2.14,0,0,1,550.36,259Zm0-3.48a1.34,1.34,0,1,0,1.34,1.34A1.34,1.34,0,0,0,550.36,255.53Z"/><path class="c" d="M571.11,265.76a2.14,2.14,0,1,1,2.14-2.14A2.14,2.14,0,0,1,571.11,265.76Zm0-3.48a1.34,1.34,0,1,0,1.34,1.34A1.34,1.34,0,0,0,571.11,262.28Z"/></g><path class="d" d="M484.86,228.56H297.18a.5.5,0,0,1-.5-.5.5.5,0,0,1,.5-.5H484.86a25.31,25.31,0,0,0,25.28-25.28V172.15a.5.5,0,0,1,.5-.5.5.5,0,0,1,.5.5v30.13A26.31,26.31,0,0,1,484.86,228.56Z"/><path class="d" d="M510.64,172.52a2.24,2.24,0,1,1,2.24-2.24A2.25,2.25,0,0,1,510.64,172.52Zm0-3.48a1.24,1.24,0,1,0,1.24,1.24A1.24,1.24,0,0,0,510.64,169Z"/><path class="d" d="M297.06,228.56H114.74a26.31,26.31,0,0,1-26.29-26.28V172.15a.5.5,0,0,1,1,0v30.13a25.31,25.31,0,0,0,25.29,25.28H297.06a.5.5,0,0,1,.5.5A.5.5,0,0,1,297.06,228.56Z"/><path class="d" d="M89,172.65a2.25,2.25,0,1,1,2.24-2.25A2.25,2.25,0,0,1,89,172.65Zm0-3.49a1.25,1.25,0,1,0,1.24,1.24A1.25,1.25,0,0,0,89,169.16Z"/></g></svg>