<svg xmlns="http://www.w3.org/2000/svg" width="606.36" height="310.36" viewBox="0 0 606.36 310.36"><defs><style>.a{fill:#51739e;}</style></defs><title>Artboard 1</title><path class="a" d="M.75,41.86c1.09-1.18,3.19-1.76,4.78-2.14s3.22.37,4.83-.24a7.16,7.16,0,0,0,1.77-1l3.86-3a2.22,2.22,0,0,0-2-.23c-.68.2-1.32.55-2,.69a6.43,6.43,0,0,1-1.58.08.57.57,0,0,1-.42-.11.7.7,0,0,1-.16-.48A3.57,3.57,0,0,1,10.3,33a2.89,2.89,0,0,1,3-.64,16.49,16.49,0,0,0,3.16.89c.87,0,3.07-.48,3.24-1.56.13-.83-1.35-2-1.83-2.53,1.71-2,4.77-1.91,7.11-2.3,3.36-.56,6.69-1.25,10.06-1.75q6.14-.93,12.32-1.52c2.57-.24,9.07-2.09,11.12-.12a12.9,12.9,0,0,1,1.45,2c1.82,2.54,5,3.27,7.93,2.81,4.49-.69,8.42-2.2,13.06-2.32,9-.24,17.17.94,25.42,4.55a3.49,3.49,0,0,0,3.57-.11c.6-.51.94-1.38,1.68-1.65a2.38,2.38,0,0,1,.88-.09c3.64,0,7.33-.48,10.94.15,2.61.46,5.28,1.81,7.91.71,2.45-1,4-3.65,4.65-6.1a1.58,1.58,0,0,1,.39-.81c.56-.48,3.1-.5,3.73-.34a1.49,1.49,0,0,1,1.19,1.5c-.3,2,1.08,2.28,1.75,4.25a6.2,6.2,0,0,0,1.38,2.74c-1.44.38-2.46,2.55-4,2.28-2.06-.36-2.64-1.47-2.85,1.33-.1,1.36-1.28,2.39-2.47,3.08-3.68,2.15-24.43,7.2-16.62,14.93,2.21,2.19,6.2,3.42,9.23,3.68,1.1.09,4.7-.41,3.13,1.79A4.77,4.77,0,0,0,130,61.7a3.74,3.74,0,0,0,2.73,2.74c3,.62,4.22-2.73,3.9-5.11,2.43-3.15,6.59-2.39,9.22-4.58-.3-2.28-1.77-4.22-.94-6.24A6.54,6.54,0,0,1,147,45.19l2-.22c1.13-1.12,2.21-2.2,3.28-3.28,4.57-.34,5.49-.16,8.72,1.77.51.63.15,1.41.22,2.14a17.22,17.22,0,0,1,0,1.76c1.39,1.64,2.78,1.8,4.76.86s3.49-2.65,6-2.11v7.47a8.34,8.34,0,0,1,2.13,4c.91.68,2,.16,3,.31.91.81,2,1.54,1.29,3.08-1.25,2.41-3.86,3.45-5.94,5a5.13,5.13,0,0,1-3.66,1.1c-2.4-.28-4.87,0-7.3-.11-3.44-.22-6.48,1.36-9.74,1.94a1.85,1.85,0,0,0-1.36,2.66c.4,1.23,6.33-.76,7.22-.76h0c3.7,0-1.06,3.39-1.13,4-.14,1.26,1.34,2.06,2.59,2.24.43.06.95.15,1.11.55a.85.85,0,0,1-.41,1,5.87,5.87,0,0,1-1,.42,6.32,6.32,0,0,0-2.17,1.77,5.59,5.59,0,0,1-2.2,1.71c-3.68,1.27-1-4.16-3.84-3.61a12.29,12.29,0,0,0-7.66,5c-2,2.8-3,3.55-6.24,4.65-5.34,1.8-8.13,7.55-11.67,11.48s-8.17,5.95-12.3,9a9,9,0,0,0-2.14,2c-1.12,1.59-.58,4-.3,5.75.2,1.31,1.57,5.35.66,6.5s-1.7,1.75-3.11,1.35c-1.86-1.89-1.38-4.32-1.45-6.64-2-2.74-4.74-4.92-8.25-5.24a3,3,0,0,0-1.16.08c-.86.28-1.34,1.18-1.94,1.87a5.18,5.18,0,0,1-5.38,1.5c-1.11-.36-.81-2-2.6-1.68-.76.13-1.46.52-2.21.68-3.43.72-7.42,2.25-9.48,5.41C71.19,127,67.26,144,80.77,142.16a6.28,6.28,0,0,0,3.46-1.51c1.2-1.12,1.7-2.78,2.6-4.17s2.59-2.57,4.1-1.92a3.06,3.06,0,0,1,1.6,2.85,9.08,9.08,0,0,1-.91,3.31l-2.76,6.56,5.72.28a4.56,4.56,0,0,1,2.62.66,3.33,3.33,0,0,1,1.06,3,24,24,0,0,1-.8,3.24,11.22,11.22,0,0,0,2.48,9.91,2.66,2.66,0,0,1-2.88.34,5.72,5.72,0,0,1-2.23-2.08c-1.15-1.71-1.86-3.67-2.89-5.46a8,8,0,0,0-4.51-4c-2.32-.62-4.14-.14-6.32-1.65-1.58-1.09-3-2.46-4.81-3.1a19.3,19.3,0,0,0-5.46-.58c-5.44-.26-11.86-2.58-15.29-7-1.34-1.73-1.29-3.65-1.71-5.68a19.41,19.41,0,0,0-2-4.93c-1.84-3.49-4.26-6.65-5.79-10.31-1.1-2.61-1.43-5.27-3-7.7a2.53,2.53,0,0,0-1.62-1.34c-.65-.08-1.36.3-1.94,0s-.67-1.25-.88-2c-.52-1.78-2.29-1.79-3.54-2.78a9.49,9.49,0,0,1-2.72-4.23c-1.15-3.26-1.08-6.86-1-10.27a8.31,8.31,0,0,1,.42-2.75,8.94,8.94,0,0,1,1.57-2.41C36.19,83,39.79,79.6,41.8,75.59a13.13,13.13,0,0,1,1.47-2.77c.43-.52,1-.93,1.44-1.44,1.43-1.61.49-4,0-5.74a19.94,19.94,0,0,1-.59-7.09,26.4,26.4,0,0,0,.41-5.82c-.42-3.28-3.1-3.6-4.79-5.81-1.46-1.88-7.61-1.69-9.91-2.21a10.75,10.75,0,0,0-7.83.78,4.28,4.28,0,0,1-2.48.52c-.78-.17-1.32-1.21-2.15-1.1s-.91,1.3-1.42,2a3,3,0,0,1-1.63.86c-2.39.67-5.87,2.38-8.28,1.67S.86,47.06.13,44.55A2.67,2.67,0,0,1,.75,41.86Z"/><path class="a" d="M149.13,310.05h-.08a23.07,23.07,0,0,1-11.22-12.72,3.54,3.54,0,0,1-.29-1.47,6.15,6.15,0,0,1,.64-1.77c.92-2.22.2-4.78-.9-6.91-1.62-3.14-3.28-5.34-3.87-8.86-.72-4.27-1.27-8.57-1.68-12.87a186.7,186.7,0,0,1-.67-25.36,27.35,27.35,0,0,0-.28-7c-.93-4.11-4.07-5.74-7.32-7.9-3.58-2.38-7.06-4.88-9.62-8.38a117.27,117.27,0,0,1-10-17.09,4.86,4.86,0,0,1-.75-2.65c.16-1.35,1.42-2.47,1.27-3.82a7.52,7.52,0,0,0-.77-1.88,6,6,0,0,1,.58-5.23c2.17-3.75,5.72-6.38,7.67-10.42a5.26,5.26,0,0,0,.39-3.95c-.27-.75-.76-1.41-1-2.16a5,5,0,0,1,.68-4.17c1.69-2.75,4.85-5.06,7.66-6.53a2.58,2.58,0,0,1,1-.34c1.1,0,1.74,1.19,2.15,2.21s1.2,2.22,2.28,2c1.44-.3,1.26-2.56,2.35-3.55s3.88.48,5.17.82a30.65,30.65,0,0,0,7.62,1c2.4-.19,3.24,2,4.89,3.21,2.05,1.54,4.69,2.1,6.84,3.48,2.55,1.64,4.39,4.38,7.22,5.46,1.15.45,2.39.58,3.57,1,3.46,1.11,4.89,4,5.38,7.11a8.06,8.06,0,0,0,4.49,6l.25.13c3.29,1.69,3.06,1.6,6.33,3.21,4.23,2.09,8.54,1,12.79,2.61a40.77,40.77,0,0,1,8.81,5.28,4.42,4.42,0,0,1,1.21,1.11c2.13,3.37-1.21,7.46-3.07,10a26.61,26.61,0,0,0-4.72,11.24c-.93,6,.32,13.69-4.42,18.33-2.2,2.17-5.31,2.61-8.17,3.34-3.53.91-4.44,2.59-5.24,6.13-1.11,4.92-2.62,10.71-5.48,14.94a8.73,8.73,0,0,1-5.45,3.92c-1,.18-3.4-.76-4.16.14-1.29,1.51,1.79,2.59,2.47,4a4,4,0,0,1-1.43,4.94c-1.56.95-3.89.68-5.2,2s-.67,4.23-2.79,4.69c-1,.23-2.21-.49-3.11.06s-.75,2-.17,2.95,1.42,1.81,1.46,2.91a5.09,5.09,0,0,1-1.32,2.85,3.19,3.19,0,0,0-.73,3c.37.81,1.29,1.19,2.06,1.65,2.92,1.75-.18,9.44-.72,12.16a2.25,2.25,0,0,1-.37,1A1.83,1.83,0,0,1,149.13,310.05Z"/><path class="a" d="M569.49,216.08a1,1,0,0,1-.39.19,2,2,0,0,1-1-.11,17.17,17.17,0,0,1-7.21-4.28c-1.2-1.19-2.45-2.67-4.14-2.65-1.26,0-2.33.88-3.49,1.36-3.21,1.31-5.27-1-8.2-1.69a2.81,2.81,0,0,1-1.28-.48c-.57-.53-.4-1.45-.38-2.24a4.71,4.71,0,0,0-2.33-4.09c-.75-.42-1.66-.68-2.13-1.4-.91-1.42.82-7.33,3.13-6.4,4.4,1.77,9,3.05,13.38,5a12.28,12.28,0,0,1,6.22,5.28c.74,1.44,1,3.1,1.88,4.49a9.55,9.55,0,0,0,2.92,2.88c1,.69,2.59,1.13,3.26,2.19A1.62,1.62,0,0,1,569.49,216.08Z"/><path class="a" d="M325.82,48.08c1.74-1.07,4.84.86,6-.92.75-1.17-.48-2.75-1.85-3s-2.74.25-4.12.45-3.05-.11-3.64-1.37c-1.09-2.34,4.05-6.46.34-8a3.73,3.73,0,0,0-3.26.47c-4.29,2.6-4,8.72-5.1,13.61-.49,2.22-1.68,4.64-3.9,5.14-4.57,1-6.93-6.62-11.61-6.87-1.41-.08-3,.51-4.1-.39-1.6-1.32-.08-3.85,1.43-5.28l4.22-4c7-6.66,14.93-13.7,24.61-14.37,4.26-.29,8.51.7,12.61,1.92q4.74,1.41,9.33,3.21c1.21.47,2.65,1.78,1.81,2.77a1.46,1.46,0,0,1-1,.48l-8.27.33c2.36,10.31,15.54,1.1,20-.94,10-4.57,19-3.77,29.5-2.35,1.08.15,2.51.1,2.85-.94.47-1.41-1.6-2.18-2.53-3.34-1.9-2.34,1.76-4.26,3.75-3.91,2.64.47,3.44,3.17,4,5.43.46,2,1.78,4.44,3.83,4.14,1.84-.28,2.53-2.49,3.13-4.25C409,10.86,430.2,8.78,443.37,13.16a11.29,11.29,0,0,1,3.31,1.74,16.22,16.22,0,0,0,8.45,3.46c10.06,1,28.14,4.75,30.61,5,6.21.56,11.33-.65,17.3-1.65,7-1.17,14.26,1.49,21.15,2.3,7.52.88,15,1.33,22.48,2.71a17.58,17.58,0,0,0,6.38.42c1.36-.25,2.63-.84,4-1.19,4.17-1.1,8.6,0,12.58,1.3,3,1,6,2,9.12,2.83,3.38.93,5,.72,2.91,3.42a3.16,3.16,0,0,0-.33,3c.4.85,1,1.59,1.37,2.46a4.41,4.41,0,0,1-1.19,4.84C579,45.86,571.43,41.86,571.22,47a5.74,5.74,0,0,0,1.92,4,17.15,17.15,0,0,1,3,3.36c1.39,2.49.74,5.59.16,8.35a2.34,2.34,0,0,1-.2.58c-.61,1.18-1.74.84-2.6.41a17.41,17.41,0,0,1-9-19c.9-3.76-2-3.7-4.72-3.37-4.8.57-5.2,1.7-7.64,5.39-1.13,1.69-3.45,2.16-5.47,1.9s-3.93-1.07-6-1.33a11.2,11.2,0,0,0-8.86,2.83c-2.27,2.09-3.47,6-1.33,8.2,1.84,1.92,4.93,1.52,7.59,1.8a12.89,12.89,0,0,1,5.76,23.55c-2.37,1.58-5.63,2.85-6,5.68s2.65,4.92,5,6.73,4.16,5.58,1.82,7.34-5.34-.91-7-3.28-3.27-4.71-4.9-7.06c-.45-.65-1-1.36-1.8-1.34-1.34,0-2.2,2.17-3.44,1.67-.74-.3-.81-1.28-1.07-2-1.84-5.49-11.64,2.49-7.15,6.74,1.09,1,2.67,1.32,3.92,2.13,1.87,1.2,2.82,3.37,3.89,5.32,1.75,3.19,4.08,6,5.59,9.35s2.08,7.34.26,10.48c-1.55,2.66-4.37,4-7,5.44a32.79,32.79,0,0,0-7.92,6.34c-.75.76-1.83,1.59-2.78,1.08a2.67,2.67,0,0,1-1-1.34c-2-4.34-7.9-3.19-8.27,1.69-.21,2.74,1.41,5.28,3.2,7.37s3.87,4,4.93,6.57a9.7,9.7,0,0,1-.8,8.82c-1.58,2.45-4.77,4.13-7.45,3-3.84-1.6-4.5-7.65-8.51-8.74-1.52-.41-3.37,0-4.48-1.15-1.28-1.27-.76-3.76-2.23-4.79-2.7-1.88-4.44,0-6-3.72-2-4.71-5.35-10.27-10.09-12.7a5.89,5.89,0,0,0-4.27-.6,8.69,8.69,0,0,0-3.13,2c-3.3,2.8-6.84,5.45-10,8.43a15.37,15.37,0,0,0-5,8.73c-.59,3.64,1.33,7.4.13,11-.58,1.72-2.18,3.25-4,3.12a4.37,4.37,0,0,1-3.29-2.4c-3.81-6.93-5.65-15.54-7-23.23-.24-1.38-.35-4.09-1.87-4.77s-3.73.81-5.54,0-2.88-2.67-4.12-4.23a15.64,15.64,0,0,0-10.71-5.88c-3.74-.34-7.71.66-11.14-.85-2.48-1.09-4.32-3.3-6.94-4.13-2.9-.93-5.77-1-8.48-2.51-2-1.15-4.68-4.34-6.73-.84-1,1.65-.55,3.81.42,5.47a9.76,9.76,0,0,0,7.81,4.71c2.72.12,5.45-.92,8.12-.42a7.5,7.5,0,0,1,5.87,7.91c-.29,2.56-1.9,4.77-3.61,6.7a52,52,0,0,1-19.33,13.77,7.73,7.73,0,0,1-4.41.79c-2.52-.53-3.93-3.15-5-5.48-3.31-7.19-6.29-14.65-10.45-21.4-1.66-2.69-6.32-12-10.43-11.11-1.74.39-1.53,2.94-.88,4.6a130.28,130.28,0,0,0,21.24,35.56,8.4,8.4,0,0,0,2.42,2.18c2.18,1.12,4.78.19,7.17-.32s5.52-.23,6.42,2a5.25,5.25,0,0,1-.07,3.3c-2.14,8-8.69,13.89-14.29,20s-10.78,14-9.16,22.09c.8,4,3.24,8,2.22,12-1.74,6.76-12.42,9.23-12.19,16.2.06,1.78.9,3.54.54,5.28a8,8,0,0,1-1.74,3.09l-6.33,8.07c-6,7.66-13.41,16-23.15,16a4.82,4.82,0,0,1-3.2-.9,5.55,5.55,0,0,1-1.4-2.47Q313.38,249,307.7,233.17a26.59,26.59,0,0,1-2-8.73c.07-3.77,1.82-7.27,2.62-11a22.19,22.19,0,0,0-5.55-19.73c-1.45-1.52-3.21-3-3.71-5-.86-3.51,2.33-7.46.52-10.6a7.67,7.67,0,0,0-2.92-2.5c-3.77-2.24-7.72-4.54-12.09-4.87-7.27-.55-13.68,4.14-20.85,4.09-8.3-.06-10.3-7.21-15-12.53-2.14-2.42-5.1-4.38-6-7.5-.9-3.31,1-6.09,1.67-9.19.8-3.59.11-7.17.4-10.79.5-6.21,4.42-10.31,8.45-14.63s8.35-9,13.21-12.64c9.18-7,19.87-8.66,31.17-8.49,5.69.08,3.53,3.45,5.82,7,1.55,2.36,4.49,3.81,6.95,5,3.05,1.47,6.64,3,9.69,1.49,1.11-.53,2-1.42,3.12-2,3.43-1.69,7.42.21,11.09,1.26a24.21,24.21,0,0,0,13,.07,11.54,11.54,0,0,0,5.92-3.37,5.71,5.71,0,0,0,.83-6.42c-1.52-2.5-5-2.87-7.87-2.74s-6.2.37-8.41-1.55c-1.83-1.6-2.34-4.22-3.7-6.23s-4.76-3.15-6-1.07c-1,1.69.25,4.28-1.18,5.63-2.66,2.54-5.47-2.87-6.28-4.7a24.54,24.54,0,0,0-13.47-13,1.78,1.78,0,0,0-1.54.11c-1.24.76-.47,2.52.51,3.45s2.16,1.9,1.91,3.17c-.47,2.29-3.32,1.36-4.54.42-1-.74-1.75-1.7-2.75-2.39-2.56-1.79-6.14-1.54-8.93-.14C285.36,86.3,282.71,94,276.28,97.2c-6.72,3.35-17.21-3.39-12-11A7.47,7.47,0,0,1,271,83.05c1.28.11,2.52.56,3.8.63a3.48,3.48,0,0,0,3.34-1.46c1-1.89-.87-4-1.48-6a6.93,6.93,0,0,1,1.22-5.74c5.61-8.12,19.81-14,29.44-12.16,4.2.79,9.25,1.3,12.05-1.92,1.07-1.24,1.73-3,3.22-3.64.56-.25,1.18-.32,1.74-.58a2.94,2.94,0,0,0,1.3-4l0,0A1.48,1.48,0,0,1,325.82,48.08Z"/><path class="a" d="M507.69,256.14a10,10,0,0,0-7-.83c-8.8,1.68-17.06,5.3-25.84,7a4,4,0,0,1-2.77-.15c-1.67-1-.18-3.24.18-4.46,1.15-3.9,0-7.34.07-11.24.2-7.51,1-13.34,8.57-16.15,2.9-1.07,5.92-1.68,8.75-3,1.93-.93,3.76-2.43,4.29-4.5a2,2,0,0,1,.32-.86c.64-.77,2.31-.66,3.13-1.45,1.57-1.48,2.53-3.73,4.22-5.26a3.32,3.32,0,0,1,2-1.07,3.17,3.17,0,0,1,2.32,1.34c3.48,4,4.65-.22,7.18-2.93s6.68-3.09,10.07-2.82a2,2,0,0,1,1.2.38c.69.6.34,1.71,0,2.58-2.4,6.5,8.32,12.73,11.12,5.63.88-2.22,1.2-4.55,2.32-6.7,2.47-4.73,6.38,10.52,6.35,12.54a2.83,2.83,0,0,0,.17,1.22c.29.6,1,.86,1.55,1.21,2.06,1.3,2.77,4.38,3.73,6.5,1.31,2.88,4.33,2.2,4.61,6.06a54.65,54.65,0,0,1,0,6.27,7.46,7.46,0,0,1-.24,1.88c-.41,1.27-1.51,2.3-1.64,3.63a8.33,8.33,0,0,1-.09,1.58,3.47,3.47,0,0,1-.71,1.14c-3.65,4.38-7.57,8.49-11.56,12.56a27.31,27.31,0,0,1-8.37,5.27c-3.36,1.53-6.22.78-9.83.36-1.21-.15-2.59-.4-3.19-1.45-.77-1.35.27-2.77-.06-4.13s-1.61-2-1.83-3.21c-.15-.91.42-2-.2-2.69s-1.66-.26-2.35.26-1.5,1.15-2.33.91-1.15-1.26-1.48-2.08A6.6,6.6,0,0,0,507.69,256.14Z"/><path class="a" d="M195.91,11.82l-.17-.07a2.13,2.13,0,0,1,.38-4.08,10.59,10.59,0,0,0,2.3-.56h0c2.46-1.2,1.16-3-1.14-2.59-5.62,1-11.11,2.51-16.7,3.59-3.52.67-6.43,3-9.65,4.46a5.51,5.51,0,0,1-2.18.57c-1.41,0-2.64-.89-4-1.36s-2.86-.5-4.24-.93-2.76-1.51-2.82-2.95h0c1.66-1.91,4.27-2.72,6.78-3,2.91-.36,5.75-.22,8.57-1.12s5.6-2.5,8.6-3.22a32.33,32.33,0,0,1,9.72-.34l14.23,1,2.24.15c3.6.24,9,1.1,12.47-.44a7,7,0,0,1,1.36-.63,3.55,3.55,0,0,1,1.68.2,48.88,48.88,0,0,0,15.12,1.77l13-.07a11.2,11.2,0,0,0,3.16-.31,22.34,22.34,0,0,1,2.4-.77c1.58-.23,6.34,1.38,6.59,3.16a1.52,1.52,0,0,1-.21,1.08,2,2,0,0,1-.76.53,17.22,17.22,0,0,0-3.45,2,5.28,5.28,0,0,0-2,3.32,6.19,6.19,0,0,1-.36,2.45,2.69,2.69,0,0,1-1.49,1.09,27,27,0,0,1-4.46.74c-2.56.47-4.39,2.29-4,5,.12,1,.59,2,.33,3a3,3,0,0,1-1.79,1.88c-3.47,1.48-7.73.73-11.37,1.57-4.8,1.12-8.84,4.42-13.58,5.76-2.44.69-4.71,1.1-6.38,3.13-1.82,2.21-2.29,5.31-4.68,7.1a5.86,5.86,0,0,1-5.59.74c-4.15-1.65-5.64-8.52-6.38-12.37a2.82,2.82,0,0,1,.08-1.92c.61-1.12,2.72-.25,3.76-.58a5.09,5.09,0,0,0,3.19-3.44,8.53,8.53,0,0,0-1.36-6.56,19.74,19.74,0,0,0-6.59-6.67A5.69,5.69,0,0,0,195.91,11.82Z"/><path class="a" d="M154.92,22.57c-.25.24-.47.49-.7.72a1.35,1.35,0,0,1-1.92,0,1.06,1.06,0,0,1-.17-.2l-.68-1a1.35,1.35,0,0,1,.23-1.77l1.8-1.6a1.36,1.36,0,0,1,1.49-.23c3.18,1.48,7-1.73,11-.69a1.4,1.4,0,0,1,.72.47c.62.83,1.91,1.12,3.09,1.95a1.32,1.32,0,0,0,.77.24H173a1.31,1.31,0,0,1,.69.19c1.58.93,1.13,2.32,1.27,3.53a1.27,1.27,0,0,0,.39.79c.93.94,1.88,1.89,2.84,2.84a1.39,1.39,0,0,1,.39,1V31a1.34,1.34,0,0,1-1.34,1.36h0a1.36,1.36,0,0,0-1.4,1.32,1.34,1.34,0,0,0,.16.68l.3.61a1.37,1.37,0,0,1-.56,1.84,1.31,1.31,0,0,1-.7.16c-.37,0-.75-.06-1.11-.07a1.36,1.36,0,0,0-1.4,1.32,1.32,1.32,0,0,0,.21.77,3.58,3.58,0,0,1,.46.89,1.36,1.36,0,0,1-1,1.66l-.25,0c-.77.06-1.6-.21-2.25-.16a1.33,1.33,0,0,1-.68-.12l-6.94-3.48a1.36,1.36,0,0,1-.75-1.22v-.12a1.36,1.36,0,0,1,.63-1.16,4.56,4.56,0,0,1,2.64-1.13c1.41.07,1.8-1.25,2.59-1.88a1.34,1.34,0,0,0,.49-1c0-2.52-1.36-4.36-2.56-6.42a1.39,1.39,0,0,0-1.24-.66c-2.76.09-5.08-2-8-1.91A1.39,1.39,0,0,0,154.92,22.57Z"/><path class="a" d="M520.56,184.09c.24,0,.47-.16.67-.69a12.69,12.69,0,0,0,.25-1.37c.22-.91,1-1.22,1.44-2s.3-1.67.89-2.44a5.35,5.35,0,0,1,2.35-1.56c1.37-.52,2.9-.87,3.9-1.94.68-.73,1.05-1.75,1.85-2.35,2.19-1.67,4.39.87,4.76,2.92.32,1.74-1,3.05-1.31,4.65-.41,1.88,2,3.73,1.26,5.29-.34.72-1.15,1-1.44,1.8s.05,1.78-.62,2.66-1.49,1.29-2,2.22-.53,2-1.45,2.55a3.12,3.12,0,0,1-1.53.31,25.32,25.32,0,0,1-7-.53c-2.85-.73-3.71-1.81-4.83-4.4-.5-1.16-1.6-6.33,1.18-6C519.5,183.29,520.06,184.08,520.56,184.09Z"/><path class="a" d="M374.49,225.75a3.36,3.36,0,0,1,2.32-1.92,13.3,13.3,0,0,0,7.34-5,4,4,0,0,1,1-1.13c1.59-1,1.83,1.32,1.88,2.34a22.3,22.3,0,0,1-.4,4.08c-.43,3.1-1.67,6-2.69,8.92-.95,2.73-1.83,5.48-2.77,8.22-.71,2.09-1.15,4.38-3.5,5.21a4.58,4.58,0,0,1-4.8-1.21,6.53,6.53,0,0,1-1.49-3.74,6.91,6.91,0,0,1,.36-3.25A24.84,24.84,0,0,1,373.9,235c1.32-2.19,1.25-4.58.7-7A4.21,4.21,0,0,1,374.49,225.75Z"/><path class="a" d="M109.31,17.51c1.35,1.59,3.32,2.36,5.17,3.31a2.23,2.23,0,0,0,1.77.12c1.94-.68,4.12-.55,6.17-1.21a2.25,2.25,0,0,1,2.94,2.16v1.47a2.27,2.27,0,0,1-1.48,2.13c-1.53.57-3.39.52-5,1.21a3.5,3.5,0,0,1-3.41-.37,3.07,3.07,0,0,0-3.34-.2c-2.28,1.26-4.68.41-7,.6-.26,0-.54-.27-.87-.62a2.31,2.31,0,0,1-.6-1.54v-1a2.26,2.26,0,0,0-2.25-2.27h-.11a2.27,2.27,0,0,1-1-4.32l1.26-.61a2.27,2.27,0,0,1,2,0,8.28,8.28,0,0,0,3.92.37A2.27,2.27,0,0,1,109.31,17.51Z"/><path class="a" d="M509.45,196.24V198a2.54,2.54,0,0,1-2.19,2.53,4.71,4.71,0,0,1-.92,0,2.57,2.57,0,0,1-1.75-.92c-3.61-4.47-6-9.75-9.61-14.21l-.13-.16a2.55,2.55,0,0,1,3-3.89,2.85,2.85,0,0,0,1,.18,2.55,2.55,0,0,1,2.18,1.09c2.9,4.2,5.74,8.1,8.17,12.41A2.54,2.54,0,0,1,509.45,196.24Z"/></svg>