<svg xmlns="http://www.w3.org/2000/svg" xmlns:xlink="http://www.w3.org/1999/xlink" viewBox="82.21 33.49 331.49 331.49"><defs><style>.a{fill:none;}.b{isolation:isolate;}.c{fill:#ad3838;}.d{fill:#ddb922;}.e{fill:#c4a112;}.f{fill:#f0d032;}.g{fill:#d6d6d6;mix-blend-mode:multiply;}.h{fill:#a88a0b;}.i{clip-path:url(#a);}.j{fill:#80bac4;}.k{fill:#99c7d2;}.l{fill:#404912;}.m{fill:#566519;}.n{fill:#70925a;}.o{fill:#61a4af;}.p{fill:#fff;}.q{fill:#fa6d68;}</style><clipPath id="a"><path class="a" d="M248,329.88c-18.94,0-111.67-57.62-111.67-211.58a112.39,112.39,0,0,1,1.36-17.38A3.42,3.42,0,0,1,139.83,99l13.6,0a129.05,129.05,0,0,0,93.8-39.93,1,1,0,0,1,.72-.26,1,1,0,0,1,.73.26A129.06,129.06,0,0,0,342.46,99l13.64,0a3.38,3.38,0,0,1,2.17,1.94,112,112,0,0,1,1.36,17.37C359.63,272.26,266.9,329.88,248,329.88Z"/></clipPath></defs><title>Mesa de trabajo 1</title><g class="b"><path class="c" d="M393.08,124.93s.56-8-18.26-15.14S127,165.44,127,165.44s-24.19,12-24.19,22.6,49.67,63,49.67,63l122.26-34.25L362,172.45Z"/><path class="d" d="M376.75,98c-1.54-9.76-10.8-17.74-20.68-17.73l-13.61,0a111.11,111.11,0,0,1-80.3-34.19,19.84,19.84,0,0,0-28.41,0,111.09,111.09,0,0,1-80.3,34.19l-13.61,0c-9.88,0-19.14,8-20.68,17.73a130.32,130.32,0,0,0-1.58,20.29c0,162.14,98.17,230.29,130.38,230.29S378.33,280.44,378.33,118.3A130.32,130.32,0,0,0,376.75,98Z"/><path class="e" d="M376.75,98A21.15,21.15,0,0,0,368.8,85,20.29,20.29,0,0,1,373,94.27a130.32,130.32,0,0,1,1.58,20.29c0,162.14-98.17,230.29-130.38,230.29-12.6,0-35.31-10.5-58.29-32.93,24.22,25,48.75,36.67,62,36.67,32.2,0,130.37-68.15,130.37-230.29A130.32,130.32,0,0,0,376.75,98Z"/><path class="f" d="M121.32,122a130.29,130.29,0,0,1,1.58-20.28C124.44,92,133.7,84,143.58,84l13.61,0a111.09,111.09,0,0,0,80.3-34.19,19.84,19.84,0,0,1,28.41,0A111.11,111.11,0,0,0,346.2,84l13.61,0a20.74,20.74,0,0,1,12.74,4.67,21.38,21.38,0,0,0-16.48-8.41l-13.61,0a111.11,111.11,0,0,1-80.3-34.19,19.84,19.84,0,0,0-28.41,0,111.09,111.09,0,0,1-80.3,34.19l-13.61,0c-9.88,0-19.14,8-20.68,17.73a130.32,130.32,0,0,0-1.58,20.29c0,98.68,36.36,162.49,72.08,197.36C155.19,280,121.32,217.28,121.32,122Z"/><path class="e" d="M248,329.88c-18.94,0-111.67-57.62-111.67-211.58a112.39,112.39,0,0,1,1.36-17.38A3.42,3.42,0,0,1,139.83,99l13.6,0a129.05,129.05,0,0,0,93.8-39.93,1,1,0,0,1,.72-.26,1,1,0,0,1,.73.26A129.06,129.06,0,0,0,342.46,99l13.64,0a3.38,3.38,0,0,1,2.17,1.94,112,112,0,0,1,1.36,17.37C359.63,272.26,266.9,329.88,248,329.88Z"/><path class="g" d="M308.78,94.62A127.66,127.66,0,0,1,278,82a121.3,121.3,0,0,0-60.09,0,128.16,128.16,0,0,1-30.77,12.66,121.93,121.93,0,0,0-49.5,54.68c8.19,94.28,52.74,146.48,83.59,168.25a120.15,120.15,0,0,0,53.45,0c30.85-21.77,75.4-74,83.59-168.26A122,122,0,0,0,308.78,94.62Z"/><path class="h" d="M143.77,125.79a112.61,112.61,0,0,1,1.35-17.39,3.45,3.45,0,0,1,2.19-1.93l13.6,0a129.05,129.05,0,0,0,93.8-39.93,1,1,0,0,1,.73-.25,1,1,0,0,1,.72.25,129.06,129.06,0,0,0,93.78,39.93h9c-.19-1.86-.36-3.72-.65-5.55A3.38,3.38,0,0,0,356.1,99l-13.64,0a129.06,129.06,0,0,1-93.78-39.93,1,1,0,0,0-.73-.26,1,1,0,0,0-.72.26A129.05,129.05,0,0,1,153.43,99l-13.6,0a3.42,3.42,0,0,0-2.19,1.93,112.39,112.39,0,0,0-1.36,17.38c0,97.42,37.12,156.23,69.19,186.31C175.39,272.7,143.77,215.69,143.77,125.79Z"/><g class="i"><circle class="j" cx="247.96" cy="199.24" r="117.2" transform="translate(-68.26 233.69) rotate(-45)"/><path class="k" d="M335.33,199.19a12.94,12.94,0,0,0,9.37-4.07,10.14,10.14,0,0,0,2.76-7.72,14.92,14.92,0,0,0-2.3-6.25l-.34-.59a30.94,30.94,0,0,1-3.76-13.33c-.07-2.11.06-4.73,1.73-6.28,2.46-2.28,5.75-.6,8.66-.6a41.42,41.42,0,0,0,6.85-.65,117.33,117.33,0,0,0-92.61-76.33l.78,2.18c.77,2.12,1.41,4.3,2,6.47,1.57,5.31,3.18,10.8,6.51,15.76,1.1,1.65,2.39,3.24,3.69,4.82,2.74,3.34,5.1,6.22,5.07,9.21a16.55,16.55,0,0,1-1.48,5.28,28.08,28.08,0,0,0-2,7c-.78,6.27,1.95,12.84,7.68,18.48a75.34,75.34,0,0,0,7.11,5.94,71.83,71.83,0,0,1,5.6,4.57c4.47,4.17,7.8,9.47,11.34,15.07A111.2,111.2,0,0,0,321,191c4.16,4.9,8.38,7.55,12.89,8.11A11.58,11.58,0,0,0,335.33,199.19Z"/><path class="l" d="M342.67,188c-.14-1.79-1.18-3.37-2.05-4.94a30.92,30.92,0,0,1-3.46-19.51c.45-2.9,1.54-6,4.13-7.42,2.19-1.17,4.84-.79,7.32-.57a33.88,33.88,0,0,0,8-.35A117.36,117.36,0,0,0,270.89,84.3c2.47,7,3.74,14.6,7.88,20.77,3.66,5.47,9.67,10.21,9.6,16.79-.05,4.45-3,8.4-3.56,12.82-.68,5.43,2.41,10.69,6.31,14.54s8.65,6.71,12.65,10.45c8.6,8,13.17,19.46,20.79,28.42,2.61,3.07,5.87,6,9.87,6.48S343,192,342.67,188Z"/><path class="m" d="M270.73,84.27c2.47,6.84,3.64,14.26,7.68,20.29,3.49,5.22,9.23,9.75,9.16,16-.05,4.25-2.88,8-3.4,12.24-.65,5.18,2.3,10.21,6,13.87s8.26,6.42,12.08,10c8.21,7.67,12.58,18.58,19.85,27.14,2.49,2.93,5.6,5.72,9.42,6.19s8.19-2.46,7.87-6.29c-.14-1.72-1.13-3.22-2-4.73a29.46,29.46,0,0,1-3.3-18.62c.43-2.77,1.47-5.76,4-7.08,2.09-1.12,4.62-.76,7-.55a33.81,33.81,0,0,0,10.15-.7A117.35,117.35,0,0,0,270.73,84.27Z"/><path class="k" d="M256.84,111.48c-3.82-5.15-9.68-6.69-14.84-8a30.37,30.37,0,0,1-8-2.84c-5.26-3.22-7-10.45-6.35-16.5l0-.28a117.2,117.2,0,0,0-97,115.07c.34.47.64,1,1,1.46,3.69,4.85,7.94,9.41,12,13.81,9.14,9.81,17.77,19.07,20.2,30.93.4,2,.63,4,.86,6.08a46.2,46.2,0,0,0,2.52,12.15c2.27,5.72,8.12,11.87,15.59,11.87h0a12.74,12.74,0,0,0,3.92-.61c5.3-1.7,9.22-6.69,11-14.05a45.15,45.15,0,0,0-.85-24.61c-.5-1.56-1.09-3.16-1.67-4.79-2.73-7.44-4.31-12.59-1.71-16.07,2.23-3,7.25-3.73,12.12-4.47l.84-.13c10-1.53,16.09-5.55,18.14-11.93,1.36-4.22.45-8.28-.35-11.86-.64-2.87-1.19-5.35-.44-7,.58-1.27,2-2.42,3.73-3.74a24.53,24.53,0,0,0,5.45-5.35c3.34-4.9,3.57-11.87.6-18.65a59.68,59.68,0,0,0-4.39-7.81c-1.07-1.7-2.16-3.4-3.06-5.19a6.51,6.51,0,0,1-.42-1,10.93,10.93,0,0,1,5-1,47.2,47.2,0,0,1,8.61,1.18,60.12,60.12,0,0,0,9.61,1.37l.8,0a11.44,11.44,0,0,0,6.46-1.7c5.46-3.57,4.74-10.65,4.46-13.31C260.43,120.74,259.91,115.62,256.84,111.48Z"/><path class="l" d="M253.26,117.42c-4.66-6.29-14.4-5.4-21.08-9.48s-9.27-12.62-8.46-20.32c0-.33.11-.66.15-1a118.81,118.81,0,0,0-82.44,63.76,116.39,116.39,0,0,0-10.17,38.16A82.64,82.64,0,0,0,138,199c11.46,15.07,28.68,27.22,32.47,45.76,1.16,5.69.95,11.71,3.09,17.1s7.89,10.13,13.42,8.36c4.32-1.39,6.65-6.08,7.73-10.49a40,40,0,0,0-.75-21.61c-2.63-8.24-7.79-17.74-2.61-24.66,3.48-4.64,10-5.42,15.71-6.31s12.32-3,14.1-8.55c2-6.13-3.23-13.13-.59-19,1.85-4.12,6.85-5.89,9.4-9.62,2.71-4,2.1-9.42.16-13.83s-5-8.22-7.19-12.51c-.86-1.69-1.57-3.81-.56-5.42a5,5,0,0,1,1.95-1.62c7.59-4,16.68.57,25.24.88a7.45,7.45,0,0,0,4.42-.89c2.65-1.74,2.63-5.57,2.31-8.72C255.89,124.23,255.45,120.37,253.26,117.42Z"/><path class="m" d="M224.71,133.78c7.49-3.93,16.46.56,24.91.87a7.48,7.48,0,0,0,4.36-.88c2.62-1.72,2.6-5.5,2.28-8.62-.36-3.61-.8-7.41-3-10.33-4.6-6.21-14.21-5.33-20.8-9.36s-9.15-12.45-8.36-20c0-.33.11-.65.15-1a117.26,117.26,0,0,0-92.42,98.85,84,84,0,0,0,7.61,12.1c11.32,14.87,28.32,26.87,32.06,45.18,1.14,5.61.93,11.55,3,16.88s7.79,10,13.25,8.24c4.27-1.37,6.57-6,7.64-10.35a39.48,39.48,0,0,0-.74-21.34c-2.61-8.12-7.69-17.5-2.58-24.33,3.43-4.58,9.85-5.36,15.51-6.23s12.15-3,13.91-8.45c2-6-3.19-13-.58-18.76,1.83-4.07,6.76-5.81,9.28-9.5,2.68-3.92,2.07-9.29.16-13.64s-4.94-8.12-7.1-12.35c-.85-1.68-1.55-3.76-.55-5.36A4.84,4.84,0,0,1,224.71,133.78Z"/><path class="k" d="M232.34,292.64c-2.31-2.76-5.47-3.73-8-4.52a10.19,10.19,0,0,1-3.69-1.59c-1.23-1.2-1.37-4.23-1.5-7.16-.21-4.81-.5-11.4-6.74-14.19a10,10,0,0,0-4.08-.87c-5.17,0-9.63,3.92-11.75,7.8a38.85,38.85,0,0,0-2.39,5.69A24,24,0,0,1,191.9,283c-2.05,3.1-5.83,5-10.55,7.18l-4.63,2.13a116.61,116.61,0,0,0,66,24l-3.36-3.59a13.6,13.6,0,0,1-3.89-7.5c-.11-.84-.14-1.71-.18-2.58C235.16,299.59,235,295.8,232.34,292.64Z"/><path class="l" d="M222,294.37c-5.41-5.25-3.25-21.07-10.13-24.15-3.72-1.67-4.79,5.07-6.74,8.65s-2.62,7.8-4.88,11.2c-2.85,4.29-7.77,6.65-12.45,8.8l-.92.43a116.5,116.5,0,0,0,50.44,16.64,15.86,15.86,0,0,1-1.83-5.55c-.47-3.52-3.83-11.26-6.11-14C226.65,293.11,225.12,297.37,222,294.37Z"/><path class="m" d="M236,315.84a18.13,18.13,0,0,1-5.08-10c-.47-3.52.16-7.53-2.12-10.25-2.76-3.3-8.28-2.77-11.37-5.77-5.41-5.25,0-17.37-6.92-20.45-3.72-1.66-8,1.38-9.95,5s-2.62,7.79-4.88,11.19c-2.85,4.29-7.77,6.65-12.45,8.8l-2.32,1.07A116.59,116.59,0,0,0,236,315.84Z"/><path class="k" d="M360.78,231a16.77,16.77,0,0,0-8.1-3.8,29.31,29.31,0,0,0-3-.23,18.25,18.25,0,0,1-2.7-.25c0-.39,0-1,0-1.39s0-.89,0-1.34c0-7.94-5.22-15.35-12.45-17.59a15.79,15.79,0,0,0-4.7-.71A17.46,17.46,0,0,0,315,214a33.6,33.6,0,0,0-2.26,4.73c-.83,2-1.54,3.71-2.57,4.53a3.3,3.3,0,0,1-2.14.66,12.75,12.75,0,0,1-6.75-2.7,12.14,12.14,0,0,0-7.11-2.35,12.5,12.5,0,0,0-10,5.19,13.52,13.52,0,0,0-2.13,11.27c.13.5.27,1,.42,1.53,2.41,8,8.06,13.91,14.74,15.44.76.17,1.54.29,2.32.4a7.48,7.48,0,0,1,2.53.6c.72.48,1.41,2.43,1.82,3.6,2.82,8,5.55,17.05,2.16,23.54-.73,1.38-1.3,1.72-1.46,1.79a1,1,0,0,1-.46.1c-1.11,0-3.05-1.21-4.76-2.28-2.83-1.78-6-3.79-9.91-3.79a10.91,10.91,0,0,0-2,.18c-7.63,1.43-10.81,10.31-9.93,17.93.59,5.18,2.35,10.15,4.06,14.94l.69,2A117.45,117.45,0,0,0,360.78,231Z"/><path class="l" d="M358.48,238.24a13.19,13.19,0,0,0-6.42-3.09c-3.26-.45-7.44.32-9.1-2.51-.87-1.49-.54-3.35-.54-5.07a12.79,12.79,0,0,0-23.55-7c-2.1,3.28-2.8,7.6-5.9,10-4,3-9.87,1.15-14.05-1.68l-.19-.12c-6.06-4.15-14.09-3.25-12.24,3.86.11.42.23,5.4.36,5.82,1.71,5.39,5.82,10.37,11.35,11.56,2.13.46,4.47.38,6.32,1.55s2.86,3.54,3.67,5.7c3.14,8.46,6.22,18.22,1.87,26.13a8.06,8.06,0,0,1-3.65,3.69c-6,2.56-11.7-6.33-18.09-5.2-4.89.87-6.8,7-6.21,12,.65,5.32,2.92,10.68,4.82,15.93A117.49,117.49,0,0,0,358.48,238.24Z"/><path class="m" d="M359.69,234.67c-2.22-2-4.71-3.69-7.63-4.09-3.26-.45-7.44.32-9.1-2.51-.87-1.49-.54-3.35-.54-5.07a12.79,12.79,0,0,0-23.55-7c-2.1,3.28-2.8,7.6-5.9,10-4,3-9.87,1.15-14.05-1.68l-.19-.12c-6.06-4.15-14.09,1.32-12.24,8.43.11.42.23.83.36,1.25,1.71,5.39,5.82,10.37,11.35,11.56,2.13.46,4.47.38,6.32,1.55s2.86,3.54,3.67,5.7c3.14,8.46,6.22,18.22,1.87,26.13a8.06,8.06,0,0,1-3.65,3.69c-6,2.56-11.7-6.33-18.09-5.2-4.89.88-6.8,7-6.21,12,.81,6.71,4.26,13.49,6.21,20A117.49,117.49,0,0,0,359.69,234.67Z"/><path class="n" d="M136,164.76c5.37,2.93,12.46,3,17.29-.74,3.39-2.63,5.58-6.89,9.59-8.4,5.81-2.2,11.73,2.38,16.67,6.13S192,168.5,196.32,164c2.72-2.84,2.55-7.36,1.64-11.19-2.64-11-9.89-22.32-5.46-32.73,4.6-10.82,19.91-14.66,23-26a14,14,0,0,0-.13-7.47A117.43,117.43,0,0,0,136,164.76Z"/><path class="l" d="M154.73,128.34c5.87,4.62,14.71,6.26,20.61,1.72,5.41-4.16,6.57-11.69,9.7-17.76,2.33-4.51,5.86-8.35,7.85-13A16,16,0,0,0,194,95.2,117.63,117.63,0,0,0,154.73,128.34Z"/><path class="n" d="M164.85,196c.77,2.07,2,3.92,2.83,6,1.68,4.2,1.47,8.9,2.47,13.31a8.33,8.33,0,0,0,1.76,3.89,3.72,3.72,0,0,0,3.89,1.19c2.39-.9,2.45-4.14,2.85-6.66,1.28-7.89,21.11-18.55,9.56-25.69C182,184.09,160.68,184.75,164.85,196Z"/><path class="n" d="M298.66,93.59a13.58,13.58,0,0,0,.81,8.43c1.81,4,5.59,6.67,8,10.33,3.45,5.33,3.63,12.11,3.1,18.44-.28,3.26-.69,6.64.39,9.72s4.24,5.74,7.43,5c2.86-.66,4.52-3.59,6.88-5.34,4.48-3.32,10.85-2,16.11-3.89a13.32,13.32,0,0,0,3.93-2.3A117.69,117.69,0,0,0,298.66,93.59Z"/><path class="n" d="M192.89,302.67a115.92,115.92,0,0,0,29.76,11,8.61,8.61,0,0,0-4.63-5.11c-1.48-.64-3.16-1-4.34-2.06-1.54-1.45-1.74-3.84-2.93-5.59-1.59-2.34-4.75-3.18-7.55-2.79s-5.34,1.79-7.8,3.17Z"/><path class="n" d="M314.52,234.22c-1.16,3.13,2,6.12,4.92,7.7a43.39,43.39,0,0,0,5.2,2.36c.79.29,1.58.56,2.39.81a6.75,6.75,0,0,0,2.84.42c2.72-.36,4.14-3.53,4.11-6.27C333.88,228.91,318.65,223,314.52,234.22Z"/><path class="n" d="M346.56,262.51a21.78,21.78,0,0,1-5.59.2c-5.62-.58-12.23-3.39-16.24.59-3,2.93-2.33,7.73-2.91,11.85a18.85,18.85,0,0,1-14.24,15.37c-3.94.87-8.88.9-10.73,4.48a10.1,10.1,0,0,0-.69,5c.07,1.91.18,3.88.42,5.82A117.6,117.6,0,0,0,346.56,262.51Z"/><path class="o" d="M241.36,82.23a77.68,77.68,0,0,0,6.9,5.14c6.65,4.82,12.36,11.3,14.84,19.13,3.61,11.43-.09,23.8-4.44,35s-9.5,22.59-8.77,34.56c.63,10.18,5.5,19.9,5,30.08-.35,6.95-3.17,13.51-6,19.89-1.6,3.67-3.27,7.43-6.09,10.26-4.72,4.73-11.85,6.11-17.25,10.05a8.72,8.72,0,0,0-3.38,4.06c-1.21,3.6,1.79,7.51,5.4,8.73s7.53.49,11.27-.2,7.71-1.33,11.25.05c5,1.93,8.64,7.63,14,7.28,3.73-.24,6.64-3.62,7.61-7.23s.45-7.43,0-11.14c-1.08-9.27-1.54-18.89,1.57-27.69s10.53-16.61,19.79-17.68c5.64-.66,12.4.8,16.16-3.45,3.36-3.79,1.82-10-1.61-13.76s-8.24-5.81-12.43-8.66a39.45,39.45,0,0,1-16.43-25.31c-1.44-8-.33-16.32-1.46-24.39-2.26-16.12-13.06-29.7-19.89-44.47-3.13-.25-6.29-.41-9.48-.41C245.74,82,243.55,82.11,241.36,82.23Z"/><path class="o" d="M248,316.44a117.56,117.56,0,0,0,26.44-3c-.1-1.86-.26-3.72-.5-5.56-.57-4.38-1.74-9.08-5.22-11.8-4.33-3.39-11.27-2.91-14.51-7.35-1.17-1.6-1.64-3.6-2.31-5.47s-1.69-3.78-3.48-4.64-4.43-.06-4.78,1.9a5.31,5.31,0,0,0,1,3.32c5.3,9.92,6.83,22.23,3,32.62Z"/><path class="o" d="M360.84,167.74a13.32,13.32,0,0,0-3.15,5.12c-1.23,3.74-.82,7.84-1.93,11.62-1.43,4.85-5.2,8.63-9.1,11.84-1.36,1.11-2.81,2.28-3.38,3.93a6.51,6.51,0,0,0,.41,4.6c1.72,4.05,5.56,6.72,9.28,9.07,3.38,2.14,6.82,4.17,10.3,6.14a116.45,116.45,0,0,0-2.43-52.32Z"/><path class="o" d="M157.05,256.7c-3.45-5.26-3.83-12.27-7.94-17-2.1-2.45-5-4.07-7.82-5.63L135,230.54a117.19,117.19,0,0,0,37,57.93,20,20,0,0,0-2.36-19.11C166,264.62,160.33,261.69,157.05,256.7Z"/><path class="g" d="M148.12,137.84A117.2,117.2,0,0,0,241,316.22C217.27,305.1,154.55,254.64,148.12,137.84Z"/><path class="p" d="M211.43,164.08a14.63,14.63,0,0,0-23.37-5.67c2.19-2.28.4-6.53-2.61-7.49s-6.31.53-8.62,2.68a12,12,0,0,0-13.21-16c-4.81.76-8.8,4.46-10.9,8.85s-2.52,9.41-2.32,14.28c-1.77-2.3-3.62-4.67-6.18-6s-6-1.5-8.12.51c-3.45,3.31-1,9.05,1.6,13.06l.78,6.83q33.87-.47,67.58-4.22c2.16-.25,4.68-.75,5.59-2.72A5.26,5.26,0,0,0,211.43,164.08Z"/><path class="g" d="M347.79,137.84a117.19,117.19,0,0,1-92.87,178.38C278.64,305.1,341.36,254.64,347.79,137.84Z"/><path class="p" d="M282.56,274.71a11.62,11.62,0,0,1,18.56-4.5c-1.73-1.81-.32-5.19,2.07-5.95s5,.42,6.85,2.13a9.57,9.57,0,0,1,10.49-12.69c3.82.6,7,3.54,8.66,7A24.07,24.07,0,0,1,331,272.07a16.63,16.63,0,0,1,4.91-4.8c2-1.1,4.79-1.19,6.45.41,2.74,2.62.79,7.18-1.27,10.36l-.62,5.43q-26.89-.36-53.67-3.36c-1.71-.19-3.72-.58-4.44-2.15A4.19,4.19,0,0,1,282.56,274.71Z"/><path class="p" d="M349.75,161.7c-.49-1.68-2.48-3.21-5-3.48s-5.37,1-5.56,2.7a14.87,14.87,0,0,0-3-5.79,10.63,10.63,0,0,0-7.47-3.22,9.76,9.76,0,0,0-8.49,4.41c-1.34,2.38-1.16,5-.95,7.54a10.29,10.29,0,0,0-6.76.58c-1.82,1-2.21,3.13-.36,4.12-6.65-1.2-14.29.54-18.4,4.2-2,1.76-2.72,4.78.24,5.77a10.24,10.24,0,0,0,3.56.26q24.74-1,49.4-2.56l1-9.68C349.41,165.14,350.24,163.38,349.75,161.7Z"/><path class="l" d="M324.42,110.48a13,13,0,0,0-1,1.72c-1.72,3.59-1.62,8.37,1.3,11.08,2.65,2.46,6.63,2.56,10.23,2.74,1.48.08,3,.16,4.54.12A118.43,118.43,0,0,0,324.42,110.48Z"/></g><path class="g" d="M378.22,124.49c-57.3,53.76-126.35,85.69-186.37,85.69h0c-25.59,0-48.23-6-66.55-17.46,7.81,35.81,20.83,65,35.8,87.9a161.88,161.88,0,0,0,30.76,2.87h0c55.58,0,118.36-25.6,173.35-69.6C372.85,188.16,377.68,158.43,378.22,124.49Z"/><path class="q" d="M108.35,247.9c63.72,54.94,185.91,27.15,280-64.33a15.69,15.69,0,0,0,4.71-11.25v-48a1.53,1.53,0,0,0-2.62-1.08c-95.84,94.54-221.73,122.58-285,63.75a1.53,1.53,0,0,0-2.6,1.1V235.9A15.87,15.87,0,0,0,108.35,247.9Z"/></g></svg>